<svg xmlns="http://www.w3.org/2000/svg" width="900" height="380" viewBox="0 0 900 380" font-family="sans-serif">
<rect width="900" height="380" fill="white"/>
<text x="70" y="24" font-size="16" fill="#333">Latency (ms, p50 unless noted) — lower is better</text>
<line x1="70" y1="324.0" x2="880" y2="324.0" stroke="#e5e5e5"/>
<text x="64" y="328.0" font-size="11" fill="#666" text-anchor="end">0ms</text>
<line x1="70" y1="268.0" x2="880" y2="268.0" stroke="#e5e5e5"/>
<text x="64" y="272.0" font-size="11" fill="#666" text-anchor="end">1481ms</text>
<line x1="70" y1="212.0" x2="880" y2="212.0" stroke="#e5e5e5"/>
<text x="64" y="216.0" font-size="11" fill="#666" text-anchor="end">2963ms</text>
<line x1="70" y1="156.0" x2="880" y2="156.0" stroke="#e5e5e5"/>
<text x="64" y="160.0" font-size="11" fill="#666" text-anchor="end">4444ms</text>
<line x1="70" y1="100.0" x2="880" y2="100.0" stroke="#e5e5e5"/>
<text x="64" y="104.0" font-size="11" fill="#666" text-anchor="end">5925ms</text>
<line x1="70" y1="44.0" x2="880" y2="44.0" stroke="#e5e5e5"/>
<text x="64" y="48.0" font-size="11" fill="#666" text-anchor="end">7407ms</text>
<text x="70.0" y="342" font-size="11" fill="#666" text-anchor="start">07-16 16:02</text>
<text x="482.9" y="342" font-size="11" fill="#666" text-anchor="middle">07-17 18:46</text>
<text x="880.0" y="342" font-size="11" fill="#666" text-anchor="end">07-18 08:28</text>
<polyline points="70.0,217.7 85.9,227.9 117.6,203.6 133.5,277.5 149.4,167.6 165.3,238.1 181.2,172.1 197.1,214.4 212.9,167.1 228.8,251.0 244.7,170.5 260.6,265.2 276.5,240.0 292.4,194.2 308.2,237.5 324.1,232.3 340.0,238.8 355.9,246.5 371.8,234.7 387.6,174.8 403.5,240.9 419.4,214.4 435.3,64.7 451.2,245.0 467.1,220.8 482.9,276.4 498.8,269.9 514.7,274.6 530.6,281.8 546.5,316.3 562.4,285.1 578.2,292.2 594.1,283.0 610.0,300.1 625.9,293.0 641.8,206.2 657.6,292.0 673.5,223.6 689.4,294.7 705.3,296.4 721.2,260.6 737.1,292.8 752.9,290.2 768.8,290.1 784.7,286.4 800.6,287.0 816.5,292.4 832.4,292.8 848.2,290.6 864.1,279.0 880.0,291.3" fill="none" stroke="#d62728" stroke-width="2"/>
<circle cx="70.0" cy="217.7" r="3" fill="#d62728"/>
<circle cx="85.9" cy="227.9" r="3" fill="#d62728"/>
<circle cx="117.6" cy="203.6" r="3" fill="#d62728"/>
<circle cx="133.5" cy="277.5" r="3" fill="#d62728"/>
<circle cx="149.4" cy="167.6" r="3" fill="#d62728"/>
<circle cx="165.3" cy="238.1" r="3" fill="#d62728"/>
<circle cx="181.2" cy="172.1" r="3" fill="#d62728"/>
<circle cx="197.1" cy="214.4" r="3" fill="#d62728"/>
<circle cx="212.9" cy="167.1" r="3" fill="#d62728"/>
<circle cx="228.8" cy="251.0" r="3" fill="#d62728"/>
<circle cx="244.7" cy="170.5" r="3" fill="#d62728"/>
<circle cx="260.6" cy="265.2" r="3" fill="#d62728"/>
<circle cx="276.5" cy="240.0" r="3" fill="#d62728"/>
<circle cx="292.4" cy="194.2" r="3" fill="#d62728"/>
<circle cx="308.2" cy="237.5" r="3" fill="#d62728"/>
<circle cx="324.1" cy="232.3" r="3" fill="#d62728"/>
<circle cx="340.0" cy="238.8" r="3" fill="#d62728"/>
<circle cx="355.9" cy="246.5" r="3" fill="#d62728"/>
<circle cx="371.8" cy="234.7" r="3" fill="#d62728"/>
<circle cx="387.6" cy="174.8" r="3" fill="#d62728"/>
<circle cx="403.5" cy="240.9" r="3" fill="#d62728"/>
<circle cx="419.4" cy="214.4" r="3" fill="#d62728"/>
<circle cx="435.3" cy="64.7" r="3" fill="#d62728"/>
<circle cx="451.2" cy="245.0" r="3" fill="#d62728"/>
<circle cx="467.1" cy="220.8" r="3" fill="#d62728"/>
<circle cx="482.9" cy="276.4" r="3" fill="#d62728"/>
<circle cx="498.8" cy="269.9" r="3" fill="#d62728"/>
<circle cx="514.7" cy="274.6" r="3" fill="#d62728"/>
<circle cx="530.6" cy="281.8" r="3" fill="#d62728"/>
<circle cx="546.5" cy="316.3" r="3" fill="#d62728"/>
<circle cx="562.4" cy="285.1" r="3" fill="#d62728"/>
<circle cx="578.2" cy="292.2" r="3" fill="#d62728"/>
<circle cx="594.1" cy="283.0" r="3" fill="#d62728"/>
<circle cx="610.0" cy="300.1" r="3" fill="#d62728"/>
<circle cx="625.9" cy="293.0" r="3" fill="#d62728"/>
<circle cx="641.8" cy="206.2" r="3" fill="#d62728"/>
<circle cx="657.6" cy="292.0" r="3" fill="#d62728"/>
<circle cx="673.5" cy="223.6" r="3" fill="#d62728"/>
<circle cx="689.4" cy="294.7" r="3" fill="#d62728"/>
<circle cx="705.3" cy="296.4" r="3" fill="#d62728"/>
<circle cx="721.2" cy="260.6" r="3" fill="#d62728"/>
<circle cx="737.1" cy="292.8" r="3" fill="#d62728"/>
<circle cx="752.9" cy="290.2" r="3" fill="#d62728"/>
<circle cx="768.8" cy="290.1" r="3" fill="#d62728"/>
<circle cx="784.7" cy="286.4" r="3" fill="#d62728"/>
<circle cx="800.6" cy="287.0" r="3" fill="#d62728"/>
<circle cx="816.5" cy="292.4" r="3" fill="#d62728"/>
<circle cx="832.4" cy="292.8" r="3" fill="#d62728"/>
<circle cx="848.2" cy="290.6" r="3" fill="#d62728"/>
<circle cx="864.1" cy="279.0" r="3" fill="#d62728"/>
<circle cx="880.0" cy="291.3" r="3" fill="#d62728"/>
<rect x="70.0" y="358" width="10" height="10" fill="#d62728"/>
<text x="84.0" y="367" font-size="11" fill="#333">first audio (e2e)</text>
<polyline points="212.9,215.3 276.5,199.1 292.4,224.4 308.2,176.9 324.1,267.6 340.0,239.5 355.9,283.5 371.8,244.5 387.6,260.4 403.5,246.2 419.4,245.6 435.3,201.1 451.2,299.9 467.1,252.0 482.9,317.9 498.8,317.8 514.7,317.5 530.6,318.0 578.2,318.3 594.1,317.4 610.0,317.8 625.9,318.6 641.8,317.8 657.6,318.2 673.5,317.3 689.4,317.7 705.3,319.0 721.2,318.6 737.1,317.0 752.9,317.8 768.8,318.5 784.7,317.4 800.6,317.7 816.5,317.1 832.4,300.8 848.2,295.2 864.1,317.5 880.0,317.1" fill="none" stroke="#1f77b4" stroke-width="2"/>
<circle cx="212.9" cy="215.3" r="3" fill="#1f77b4"/>
<circle cx="276.5" cy="199.1" r="3" fill="#1f77b4"/>
<circle cx="292.4" cy="224.4" r="3" fill="#1f77b4"/>
<circle cx="308.2" cy="176.9" r="3" fill="#1f77b4"/>
<circle cx="324.1" cy="267.6" r="3" fill="#1f77b4"/>
<circle cx="340.0" cy="239.5" r="3" fill="#1f77b4"/>
<circle cx="355.9" cy="283.5" r="3" fill="#1f77b4"/>
<circle cx="371.8" cy="244.5" r="3" fill="#1f77b4"/>
<circle cx="387.6" cy="260.4" r="3" fill="#1f77b4"/>
<circle cx="403.5" cy="246.2" r="3" fill="#1f77b4"/>
<circle cx="419.4" cy="245.6" r="3" fill="#1f77b4"/>
<circle cx="435.3" cy="201.1" r="3" fill="#1f77b4"/>
<circle cx="451.2" cy="299.9" r="3" fill="#1f77b4"/>
<circle cx="467.1" cy="252.0" r="3" fill="#1f77b4"/>
<circle cx="482.9" cy="317.9" r="3" fill="#1f77b4"/>
<circle cx="498.8" cy="317.8" r="3" fill="#1f77b4"/>
<circle cx="514.7" cy="317.5" r="3" fill="#1f77b4"/>
<circle cx="530.6" cy="318.0" r="3" fill="#1f77b4"/>
<circle cx="578.2" cy="318.3" r="3" fill="#1f77b4"/>
<circle cx="594.1" cy="317.4" r="3" fill="#1f77b4"/>
<circle cx="610.0" cy="317.8" r="3" fill="#1f77b4"/>
<circle cx="625.9" cy="318.6" r="3" fill="#1f77b4"/>
<circle cx="641.8" cy="317.8" r="3" fill="#1f77b4"/>
<circle cx="657.6" cy="318.2" r="3" fill="#1f77b4"/>
<circle cx="673.5" cy="317.3" r="3" fill="#1f77b4"/>
<circle cx="689.4" cy="317.7" r="3" fill="#1f77b4"/>
<circle cx="705.3" cy="319.0" r="3" fill="#1f77b4"/>
<circle cx="721.2" cy="318.6" r="3" fill="#1f77b4"/>
<circle cx="737.1" cy="317.0" r="3" fill="#1f77b4"/>
<circle cx="752.9" cy="317.8" r="3" fill="#1f77b4"/>
<circle cx="768.8" cy="318.5" r="3" fill="#1f77b4"/>
<circle cx="784.7" cy="317.4" r="3" fill="#1f77b4"/>
<circle cx="800.6" cy="317.7" r="3" fill="#1f77b4"/>
<circle cx="816.5" cy="317.1" r="3" fill="#1f77b4"/>
<circle cx="832.4" cy="300.8" r="3" fill="#1f77b4"/>
<circle cx="848.2" cy="295.2" r="3" fill="#1f77b4"/>
<circle cx="864.1" cy="317.5" r="3" fill="#1f77b4"/>
<circle cx="880.0" cy="317.1" r="3" fill="#1f77b4"/>
<rect x="205.0" y="358" width="10" height="10" fill="#1f77b4"/>
<text x="219.0" y="367" font-size="11" fill="#333">tts first chunk</text>
<polyline points="212.9,298.0 276.5,298.0 292.4,307.7 340.0,287.9 355.9,307.5 371.8,307.7 403.5,300.5 419.4,298.4 451.2,304.7 467.1,305.1 482.9,306.6 498.8,304.3 514.7,291.3 578.2,304.1 641.8,262.6 689.4,311.0 705.3,312.2 721.2,308.2 768.8,308.0 832.4,313.3 848.2,311.0 864.1,307.6 880.0,306.7" fill="none" stroke="#ff7f0e" stroke-width="2"/>
<circle cx="212.9" cy="298.0" r="3" fill="#ff7f0e"/>
<circle cx="276.5" cy="298.0" r="3" fill="#ff7f0e"/>
<circle cx="292.4" cy="307.7" r="3" fill="#ff7f0e"/>
<circle cx="340.0" cy="287.9" r="3" fill="#ff7f0e"/>
<circle cx="355.9" cy="307.5" r="3" fill="#ff7f0e"/>
<circle cx="371.8" cy="307.7" r="3" fill="#ff7f0e"/>
<circle cx="403.5" cy="300.5" r="3" fill="#ff7f0e"/>
<circle cx="419.4" cy="298.4" r="3" fill="#ff7f0e"/>
<circle cx="451.2" cy="304.7" r="3" fill="#ff7f0e"/>
<circle cx="467.1" cy="305.1" r="3" fill="#ff7f0e"/>
<circle cx="482.9" cy="306.6" r="3" fill="#ff7f0e"/>
<circle cx="498.8" cy="304.3" r="3" fill="#ff7f0e"/>
<circle cx="514.7" cy="291.3" r="3" fill="#ff7f0e"/>
<circle cx="578.2" cy="304.1" r="3" fill="#ff7f0e"/>
<circle cx="641.8" cy="262.6" r="3" fill="#ff7f0e"/>
<circle cx="689.4" cy="311.0" r="3" fill="#ff7f0e"/>
<circle cx="705.3" cy="312.2" r="3" fill="#ff7f0e"/>
<circle cx="721.2" cy="308.2" r="3" fill="#ff7f0e"/>
<circle cx="768.8" cy="308.0" r="3" fill="#ff7f0e"/>
<circle cx="832.4" cy="313.3" r="3" fill="#ff7f0e"/>
<circle cx="848.2" cy="311.0" r="3" fill="#ff7f0e"/>
<circle cx="864.1" cy="307.6" r="3" fill="#ff7f0e"/>
<circle cx="880.0" cy="306.7" r="3" fill="#ff7f0e"/>
<rect x="340.0" y="358" width="10" height="10" fill="#ff7f0e"/>
<text x="354.0" y="367" font-size="11" fill="#333">llm ttft</text>
<polyline points="70.0,297.1 85.9,301.1 117.6,298.1 133.5,298.0 149.4,303.1 181.2,274.4 197.1,281.5 212.9,241.9 276.5,243.2 292.4,286.5 308.2,268.6 324.1,306.2 340.0,280.2 355.9,306.0 371.8,297.3 387.6,269.3 403.5,299.0 419.4,267.5 435.3,275.1 451.2,303.3 467.1,253.3 482.9,280.5 498.8,282.8 514.7,272.0 530.6,296.7 578.2,299.6 594.1,301.6 610.0,312.5 625.9,300.5 641.8,169.3 657.6,296.2 673.5,240.3 689.4,307.0 705.3,310.0 721.2,275.8 737.1,305.7 752.9,304.6 768.8,303.7 784.7,297.4 800.6,297.4 816.5,306.8 832.4,306.3 848.2,305.5 864.1,293.1 880.0,303.2" fill="none" stroke="#2ca02c" stroke-width="2"/>
<circle cx="70.0" cy="297.1" r="3" fill="#2ca02c"/>
<circle cx="85.9" cy="301.1" r="3" fill="#2ca02c"/>
<circle cx="117.6" cy="298.1" r="3" fill="#2ca02c"/>
<circle cx="133.5" cy="298.0" r="3" fill="#2ca02c"/>
<circle cx="149.4" cy="303.1" r="3" fill="#2ca02c"/>
<circle cx="181.2" cy="274.4" r="3" fill="#2ca02c"/>
<circle cx="197.1" cy="281.5" r="3" fill="#2ca02c"/>
<circle cx="212.9" cy="241.9" r="3" fill="#2ca02c"/>
<circle cx="276.5" cy="243.2" r="3" fill="#2ca02c"/>
<circle cx="292.4" cy="286.5" r="3" fill="#2ca02c"/>
<circle cx="308.2" cy="268.6" r="3" fill="#2ca02c"/>
<circle cx="324.1" cy="306.2" r="3" fill="#2ca02c"/>
<circle cx="340.0" cy="280.2" r="3" fill="#2ca02c"/>
<circle cx="355.9" cy="306.0" r="3" fill="#2ca02c"/>
<circle cx="371.8" cy="297.3" r="3" fill="#2ca02c"/>
<circle cx="387.6" cy="269.3" r="3" fill="#2ca02c"/>
<circle cx="403.5" cy="299.0" r="3" fill="#2ca02c"/>
<circle cx="419.4" cy="267.5" r="3" fill="#2ca02c"/>
<circle cx="435.3" cy="275.1" r="3" fill="#2ca02c"/>
<circle cx="451.2" cy="303.3" r="3" fill="#2ca02c"/>
<circle cx="467.1" cy="253.3" r="3" fill="#2ca02c"/>
<circle cx="482.9" cy="280.5" r="3" fill="#2ca02c"/>
<circle cx="498.8" cy="282.8" r="3" fill="#2ca02c"/>
<circle cx="514.7" cy="272.0" r="3" fill="#2ca02c"/>
<circle cx="530.6" cy="296.7" r="3" fill="#2ca02c"/>
<circle cx="578.2" cy="299.6" r="3" fill="#2ca02c"/>
<circle cx="594.1" cy="301.6" r="3" fill="#2ca02c"/>
<circle cx="610.0" cy="312.5" r="3" fill="#2ca02c"/>
<circle cx="625.9" cy="300.5" r="3" fill="#2ca02c"/>
<circle cx="641.8" cy="169.3" r="3" fill="#2ca02c"/>
<circle cx="657.6" cy="296.2" r="3" fill="#2ca02c"/>
<circle cx="673.5" cy="240.3" r="3" fill="#2ca02c"/>
<circle cx="689.4" cy="307.0" r="3" fill="#2ca02c"/>
<circle cx="705.3" cy="310.0" r="3" fill="#2ca02c"/>
<circle cx="721.2" cy="275.8" r="3" fill="#2ca02c"/>
<circle cx="737.1" cy="305.7" r="3" fill="#2ca02c"/>
<circle cx="752.9" cy="304.6" r="3" fill="#2ca02c"/>
<circle cx="768.8" cy="303.7" r="3" fill="#2ca02c"/>
<circle cx="784.7" cy="297.4" r="3" fill="#2ca02c"/>
<circle cx="800.6" cy="297.4" r="3" fill="#2ca02c"/>
<circle cx="816.5" cy="306.8" r="3" fill="#2ca02c"/>
<circle cx="832.4" cy="306.3" r="3" fill="#2ca02c"/>
<circle cx="848.2" cy="305.5" r="3" fill="#2ca02c"/>
<circle cx="864.1" cy="293.1" r="3" fill="#2ca02c"/>
<circle cx="880.0" cy="303.2" r="3" fill="#2ca02c"/>
<rect x="475.0" y="358" width="10" height="10" fill="#2ca02c"/>
<text x="489.0" y="367" font-size="11" fill="#333">llm first sentence</text>
<polyline points="70.0,311.1 85.9,313.5 101.8,311.5 117.6,312.5 133.5,305.2 149.4,313.0 181.2,306.1 197.1,304.1 212.9,308.6 276.5,305.6 292.4,310.6 308.2,306.4 324.1,314.9 340.0,315.0 355.9,315.6 371.8,307.9 387.6,313.9 403.5,315.7 419.4,312.8 435.3,306.0 451.2,316.6 467.1,306.0 482.9,313.9 498.8,315.3 514.7,310.5 530.6,316.9 578.2,316.3 594.1,314.8 610.0,314.8 625.9,315.1 641.8,315.2 657.6,314.1 673.5,311.9 689.4,316.5 705.3,316.1 721.2,316.0 737.1,312.9 752.9,314.0 768.8,316.3 784.7,313.4 800.6,316.9 816.5,312.3 832.4,296.2 848.2,290.3 864.1,314.5 880.0,315.0" fill="none" stroke="#9467bd" stroke-width="2"/>
<circle cx="70.0" cy="311.1" r="3" fill="#9467bd"/>
<circle cx="85.9" cy="313.5" r="3" fill="#9467bd"/>
<circle cx="101.8" cy="311.5" r="3" fill="#9467bd"/>
<circle cx="117.6" cy="312.5" r="3" fill="#9467bd"/>
<circle cx="133.5" cy="305.2" r="3" fill="#9467bd"/>
<circle cx="149.4" cy="313.0" r="3" fill="#9467bd"/>
<circle cx="181.2" cy="306.1" r="3" fill="#9467bd"/>
<circle cx="197.1" cy="304.1" r="3" fill="#9467bd"/>
<circle cx="212.9" cy="308.6" r="3" fill="#9467bd"/>
<circle cx="276.5" cy="305.6" r="3" fill="#9467bd"/>
<circle cx="292.4" cy="310.6" r="3" fill="#9467bd"/>
<circle cx="308.2" cy="306.4" r="3" fill="#9467bd"/>
<circle cx="324.1" cy="314.9" r="3" fill="#9467bd"/>
<circle cx="340.0" cy="315.0" r="3" fill="#9467bd"/>
<circle cx="355.9" cy="315.6" r="3" fill="#9467bd"/>
<circle cx="371.8" cy="307.9" r="3" fill="#9467bd"/>
<circle cx="387.6" cy="313.9" r="3" fill="#9467bd"/>
<circle cx="403.5" cy="315.7" r="3" fill="#9467bd"/>
<circle cx="419.4" cy="312.8" r="3" fill="#9467bd"/>
<circle cx="435.3" cy="306.0" r="3" fill="#9467bd"/>
<circle cx="451.2" cy="316.6" r="3" fill="#9467bd"/>
<circle cx="467.1" cy="306.0" r="3" fill="#9467bd"/>
<circle cx="482.9" cy="313.9" r="3" fill="#9467bd"/>
<circle cx="498.8" cy="315.3" r="3" fill="#9467bd"/>
<circle cx="514.7" cy="310.5" r="3" fill="#9467bd"/>
<circle cx="530.6" cy="316.9" r="3" fill="#9467bd"/>
<circle cx="578.2" cy="316.3" r="3" fill="#9467bd"/>
<circle cx="594.1" cy="314.8" r="3" fill="#9467bd"/>
<circle cx="610.0" cy="314.8" r="3" fill="#9467bd"/>
<circle cx="625.9" cy="315.1" r="3" fill="#9467bd"/>
<circle cx="641.8" cy="315.2" r="3" fill="#9467bd"/>
<circle cx="657.6" cy="314.1" r="3" fill="#9467bd"/>
<circle cx="673.5" cy="311.9" r="3" fill="#9467bd"/>
<circle cx="689.4" cy="316.5" r="3" fill="#9467bd"/>
<circle cx="705.3" cy="316.1" r="3" fill="#9467bd"/>
<circle cx="721.2" cy="316.0" r="3" fill="#9467bd"/>
<circle cx="737.1" cy="312.9" r="3" fill="#9467bd"/>
<circle cx="752.9" cy="314.0" r="3" fill="#9467bd"/>
<circle cx="768.8" cy="316.3" r="3" fill="#9467bd"/>
<circle cx="784.7" cy="313.4" r="3" fill="#9467bd"/>
<circle cx="800.6" cy="316.9" r="3" fill="#9467bd"/>
<circle cx="816.5" cy="312.3" r="3" fill="#9467bd"/>
<circle cx="832.4" cy="296.2" r="3" fill="#9467bd"/>
<circle cx="848.2" cy="290.3" r="3" fill="#9467bd"/>
<circle cx="864.1" cy="314.5" r="3" fill="#9467bd"/>
<circle cx="880.0" cy="315.0" r="3" fill="#9467bd"/>
<rect x="610.0" y="358" width="10" height="10" fill="#9467bd"/>
<text x="624.0" y="367" font-size="11" fill="#333">lipsync first mouth</text>
<polyline points="212.9,318.5 276.5,314.7 292.4,318.1 308.2,318.0 324.1,318.8 340.0,312.5 355.9,318.8 371.8,314.5 387.6,318.9 403.5,318.7 419.4,311.9 435.3,318.2 451.2,318.5 467.1,311.1 482.9,317.5 498.8,317.9 514.7,316.7 530.6,318.9 578.2,318.7 594.1,318.6 610.0,318.2 625.9,318.2 641.8,318.6 657.6,317.8 673.5,318.8 689.4,318.3 705.3,318.3 721.2,319.3 737.1,315.9 752.9,318.6 768.8,319.7 784.7,317.7 800.6,319.3 816.5,319.1 832.4,320.4 848.2,320.3 864.1,318.2 880.0,319.1" fill="none" stroke="#8c564b" stroke-width="2"/>
<circle cx="212.9" cy="318.5" r="3" fill="#8c564b"/>
<circle cx="276.5" cy="314.7" r="3" fill="#8c564b"/>
<circle cx="292.4" cy="318.1" r="3" fill="#8c564b"/>
<circle cx="308.2" cy="318.0" r="3" fill="#8c564b"/>
<circle cx="324.1" cy="318.8" r="3" fill="#8c564b"/>
<circle cx="340.0" cy="312.5" r="3" fill="#8c564b"/>
<circle cx="355.9" cy="318.8" r="3" fill="#8c564b"/>
<circle cx="371.8" cy="314.5" r="3" fill="#8c564b"/>
<circle cx="387.6" cy="318.9" r="3" fill="#8c564b"/>
<circle cx="403.5" cy="318.7" r="3" fill="#8c564b"/>
<circle cx="419.4" cy="311.9" r="3" fill="#8c564b"/>
<circle cx="435.3" cy="318.2" r="3" fill="#8c564b"/>
<circle cx="451.2" cy="318.5" r="3" fill="#8c564b"/>
<circle cx="467.1" cy="311.1" r="3" fill="#8c564b"/>
<circle cx="482.9" cy="317.5" r="3" fill="#8c564b"/>
<circle cx="498.8" cy="317.9" r="3" fill="#8c564b"/>
<circle cx="514.7" cy="316.7" r="3" fill="#8c564b"/>
<circle cx="530.6" cy="318.9" r="3" fill="#8c564b"/>
<circle cx="578.2" cy="318.7" r="3" fill="#8c564b"/>
<circle cx="594.1" cy="318.6" r="3" fill="#8c564b"/>
<circle cx="610.0" cy="318.2" r="3" fill="#8c564b"/>
<circle cx="625.9" cy="318.2" r="3" fill="#8c564b"/>
<circle cx="641.8" cy="318.6" r="3" fill="#8c564b"/>
<circle cx="657.6" cy="317.8" r="3" fill="#8c564b"/>
<circle cx="673.5" cy="318.8" r="3" fill="#8c564b"/>
<circle cx="689.4" cy="318.3" r="3" fill="#8c564b"/>
<circle cx="705.3" cy="318.3" r="3" fill="#8c564b"/>
<circle cx="721.2" cy="319.3" r="3" fill="#8c564b"/>
<circle cx="737.1" cy="315.9" r="3" fill="#8c564b"/>
<circle cx="752.9" cy="318.6" r="3" fill="#8c564b"/>
<circle cx="768.8" cy="319.7" r="3" fill="#8c564b"/>
<circle cx="784.7" cy="317.7" r="3" fill="#8c564b"/>
<circle cx="800.6" cy="319.3" r="3" fill="#8c564b"/>
<circle cx="816.5" cy="319.1" r="3" fill="#8c564b"/>
<circle cx="832.4" cy="320.4" r="3" fill="#8c564b"/>
<circle cx="848.2" cy="320.3" r="3" fill="#8c564b"/>
<circle cx="864.1" cy="318.2" r="3" fill="#8c564b"/>
<circle cx="880.0" cy="319.1" r="3" fill="#8c564b"/>
<rect x="745.0" y="358" width="10" height="10" fill="#8c564b"/>
<text x="759.0" y="367" font-size="11" fill="#333">render tick p95</text>
</svg>
