<svg xmlns="http://www.w3.org/2000/svg" width="900" height="380" viewBox="0 0 900 380" font-family="sans-serif">
<rect width="900" height="380" fill="white"/>
<text x="70" y="24" font-size="16" fill="#333">Latency (ms, p50 unless noted) — lower is better</text>
<line x1="70" y1="324.0" x2="880" y2="324.0" stroke="#e5e5e5"/>
<text x="64" y="328.0" font-size="11" fill="#666" text-anchor="end">0ms</text>
<line x1="70" y1="268.0" x2="880" y2="268.0" stroke="#e5e5e5"/>
<text x="64" y="272.0" font-size="11" fill="#666" text-anchor="end">1481ms</text>
<line x1="70" y1="212.0" x2="880" y2="212.0" stroke="#e5e5e5"/>
<text x="64" y="216.0" font-size="11" fill="#666" text-anchor="end">2963ms</text>
<line x1="70" y1="156.0" x2="880" y2="156.0" stroke="#e5e5e5"/>
<text x="64" y="160.0" font-size="11" fill="#666" text-anchor="end">4444ms</text>
<line x1="70" y1="100.0" x2="880" y2="100.0" stroke="#e5e5e5"/>
<text x="64" y="104.0" font-size="11" fill="#666" text-anchor="end">5925ms</text>
<line x1="70" y1="44.0" x2="880" y2="44.0" stroke="#e5e5e5"/>
<text x="64" y="48.0" font-size="11" fill="#666" text-anchor="end">7407ms</text>
<text x="70.0" y="342" font-size="11" fill="#666" text-anchor="start">07-16 16:02</text>
<text x="475.0" y="342" font-size="11" fill="#666" text-anchor="middle">07-17 08:17</text>
<text x="880.0" y="342" font-size="11" fill="#666" text-anchor="end">07-17 19:15</text>
<polyline points="70.0,217.7 98.9,227.9 156.8,203.6 185.7,277.5 214.6,167.6 243.6,238.1 272.5,172.1 301.4,214.4 330.4,167.1 359.3,251.0 388.2,170.5 417.1,265.2 446.1,240.0 475.0,194.2 503.9,237.5 532.9,232.3 561.8,238.8 590.7,246.5 619.6,234.7 648.6,174.8 677.5,240.9 706.4,214.4 735.4,64.7 764.3,245.0 793.2,220.8 822.1,276.4 851.1,269.9 880.0,274.6" fill="none" stroke="#d62728" stroke-width="2"/>
<circle cx="70.0" cy="217.7" r="3" fill="#d62728"/>
<circle cx="98.9" cy="227.9" r="3" fill="#d62728"/>
<circle cx="156.8" cy="203.6" r="3" fill="#d62728"/>
<circle cx="185.7" cy="277.5" r="3" fill="#d62728"/>
<circle cx="214.6" cy="167.6" r="3" fill="#d62728"/>
<circle cx="243.6" cy="238.1" r="3" fill="#d62728"/>
<circle cx="272.5" cy="172.1" r="3" fill="#d62728"/>
<circle cx="301.4" cy="214.4" r="3" fill="#d62728"/>
<circle cx="330.4" cy="167.1" r="3" fill="#d62728"/>
<circle cx="359.3" cy="251.0" r="3" fill="#d62728"/>
<circle cx="388.2" cy="170.5" r="3" fill="#d62728"/>
<circle cx="417.1" cy="265.2" r="3" fill="#d62728"/>
<circle cx="446.1" cy="240.0" r="3" fill="#d62728"/>
<circle cx="475.0" cy="194.2" r="3" fill="#d62728"/>
<circle cx="503.9" cy="237.5" r="3" fill="#d62728"/>
<circle cx="532.9" cy="232.3" r="3" fill="#d62728"/>
<circle cx="561.8" cy="238.8" r="3" fill="#d62728"/>
<circle cx="590.7" cy="246.5" r="3" fill="#d62728"/>
<circle cx="619.6" cy="234.7" r="3" fill="#d62728"/>
<circle cx="648.6" cy="174.8" r="3" fill="#d62728"/>
<circle cx="677.5" cy="240.9" r="3" fill="#d62728"/>
<circle cx="706.4" cy="214.4" r="3" fill="#d62728"/>
<circle cx="735.4" cy="64.7" r="3" fill="#d62728"/>
<circle cx="764.3" cy="245.0" r="3" fill="#d62728"/>
<circle cx="793.2" cy="220.8" r="3" fill="#d62728"/>
<circle cx="822.1" cy="276.4" r="3" fill="#d62728"/>
<circle cx="851.1" cy="269.9" r="3" fill="#d62728"/>
<circle cx="880.0" cy="274.6" r="3" fill="#d62728"/>
<rect x="70.0" y="358" width="10" height="10" fill="#d62728"/>
<text x="84.0" y="367" font-size="11" fill="#333">first audio (e2e)</text>
<polyline points="330.4,215.3 446.1,199.1 475.0,224.4 503.9,176.9 532.9,267.6 561.8,239.5 590.7,283.5 619.6,244.5 648.6,260.4 677.5,246.2 706.4,245.6 735.4,201.1 764.3,299.9 793.2,252.0 822.1,317.9 851.1,317.8 880.0,317.5" fill="none" stroke="#1f77b4" stroke-width="2"/>
<circle cx="330.4" cy="215.3" r="3" fill="#1f77b4"/>
<circle cx="446.1" cy="199.1" r="3" fill="#1f77b4"/>
<circle cx="475.0" cy="224.4" r="3" fill="#1f77b4"/>
<circle cx="503.9" cy="176.9" r="3" fill="#1f77b4"/>
<circle cx="532.9" cy="267.6" r="3" fill="#1f77b4"/>
<circle cx="561.8" cy="239.5" r="3" fill="#1f77b4"/>
<circle cx="590.7" cy="283.5" r="3" fill="#1f77b4"/>
<circle cx="619.6" cy="244.5" r="3" fill="#1f77b4"/>
<circle cx="648.6" cy="260.4" r="3" fill="#1f77b4"/>
<circle cx="677.5" cy="246.2" r="3" fill="#1f77b4"/>
<circle cx="706.4" cy="245.6" r="3" fill="#1f77b4"/>
<circle cx="735.4" cy="201.1" r="3" fill="#1f77b4"/>
<circle cx="764.3" cy="299.9" r="3" fill="#1f77b4"/>
<circle cx="793.2" cy="252.0" r="3" fill="#1f77b4"/>
<circle cx="822.1" cy="317.9" r="3" fill="#1f77b4"/>
<circle cx="851.1" cy="317.8" r="3" fill="#1f77b4"/>
<circle cx="880.0" cy="317.5" r="3" fill="#1f77b4"/>
<rect x="205.0" y="358" width="10" height="10" fill="#1f77b4"/>
<text x="219.0" y="367" font-size="11" fill="#333">tts first chunk</text>
<polyline points="330.4,298.0 446.1,298.0 475.0,307.7 561.8,287.9 590.7,307.5 619.6,307.7 677.5,300.5 706.4,298.4 764.3,304.7 793.2,305.1 822.1,306.6 851.1,304.3 880.0,291.3" fill="none" stroke="#ff7f0e" stroke-width="2"/>
<circle cx="330.4" cy="298.0" r="3" fill="#ff7f0e"/>
<circle cx="446.1" cy="298.0" r="3" fill="#ff7f0e"/>
<circle cx="475.0" cy="307.7" r="3" fill="#ff7f0e"/>
<circle cx="561.8" cy="287.9" r="3" fill="#ff7f0e"/>
<circle cx="590.7" cy="307.5" r="3" fill="#ff7f0e"/>
<circle cx="619.6" cy="307.7" r="3" fill="#ff7f0e"/>
<circle cx="677.5" cy="300.5" r="3" fill="#ff7f0e"/>
<circle cx="706.4" cy="298.4" r="3" fill="#ff7f0e"/>
<circle cx="764.3" cy="304.7" r="3" fill="#ff7f0e"/>
<circle cx="793.2" cy="305.1" r="3" fill="#ff7f0e"/>
<circle cx="822.1" cy="306.6" r="3" fill="#ff7f0e"/>
<circle cx="851.1" cy="304.3" r="3" fill="#ff7f0e"/>
<circle cx="880.0" cy="291.3" r="3" fill="#ff7f0e"/>
<rect x="340.0" y="358" width="10" height="10" fill="#ff7f0e"/>
<text x="354.0" y="367" font-size="11" fill="#333">llm ttft</text>
<polyline points="70.0,297.1 98.9,301.1 156.8,298.1 185.7,298.0 214.6,303.1 272.5,274.4 301.4,281.5 330.4,241.9 446.1,243.2 475.0,286.5 503.9,268.6 532.9,306.2 561.8,280.2 590.7,306.0 619.6,297.3 648.6,269.3 677.5,299.0 706.4,267.5 735.4,275.1 764.3,303.3 793.2,253.3 822.1,280.5 851.1,282.8 880.0,272.0" fill="none" stroke="#2ca02c" stroke-width="2"/>
<circle cx="70.0" cy="297.1" r="3" fill="#2ca02c"/>
<circle cx="98.9" cy="301.1" r="3" fill="#2ca02c"/>
<circle cx="156.8" cy="298.1" r="3" fill="#2ca02c"/>
<circle cx="185.7" cy="298.0" r="3" fill="#2ca02c"/>
<circle cx="214.6" cy="303.1" r="3" fill="#2ca02c"/>
<circle cx="272.5" cy="274.4" r="3" fill="#2ca02c"/>
<circle cx="301.4" cy="281.5" r="3" fill="#2ca02c"/>
<circle cx="330.4" cy="241.9" r="3" fill="#2ca02c"/>
<circle cx="446.1" cy="243.2" r="3" fill="#2ca02c"/>
<circle cx="475.0" cy="286.5" r="3" fill="#2ca02c"/>
<circle cx="503.9" cy="268.6" r="3" fill="#2ca02c"/>
<circle cx="532.9" cy="306.2" r="3" fill="#2ca02c"/>
<circle cx="561.8" cy="280.2" r="3" fill="#2ca02c"/>
<circle cx="590.7" cy="306.0" r="3" fill="#2ca02c"/>
<circle cx="619.6" cy="297.3" r="3" fill="#2ca02c"/>
<circle cx="648.6" cy="269.3" r="3" fill="#2ca02c"/>
<circle cx="677.5" cy="299.0" r="3" fill="#2ca02c"/>
<circle cx="706.4" cy="267.5" r="3" fill="#2ca02c"/>
<circle cx="735.4" cy="275.1" r="3" fill="#2ca02c"/>
<circle cx="764.3" cy="303.3" r="3" fill="#2ca02c"/>
<circle cx="793.2" cy="253.3" r="3" fill="#2ca02c"/>
<circle cx="822.1" cy="280.5" r="3" fill="#2ca02c"/>
<circle cx="851.1" cy="282.8" r="3" fill="#2ca02c"/>
<circle cx="880.0" cy="272.0" r="3" fill="#2ca02c"/>
<rect x="475.0" y="358" width="10" height="10" fill="#2ca02c"/>
<text x="489.0" y="367" font-size="11" fill="#333">llm first sentence</text>
<polyline points="70.0,311.1 98.9,313.5 127.9,311.5 156.8,312.5 185.7,305.2 214.6,313.0 272.5,306.1 301.4,304.1 330.4,308.6 446.1,305.6 475.0,310.6 503.9,306.4 532.9,314.9 561.8,315.0 590.7,315.6 619.6,307.9 648.6,313.9 677.5,315.7 706.4,312.8 735.4,306.0 764.3,316.6 793.2,306.0 822.1,313.9 851.1,315.3 880.0,310.5" fill="none" stroke="#9467bd" stroke-width="2"/>
<circle cx="70.0" cy="311.1" r="3" fill="#9467bd"/>
<circle cx="98.9" cy="313.5" r="3" fill="#9467bd"/>
<circle cx="127.9" cy="311.5" r="3" fill="#9467bd"/>
<circle cx="156.8" cy="312.5" r="3" fill="#9467bd"/>
<circle cx="185.7" cy="305.2" r="3" fill="#9467bd"/>
<circle cx="214.6" cy="313.0" r="3" fill="#9467bd"/>
<circle cx="272.5" cy="306.1" r="3" fill="#9467bd"/>
<circle cx="301.4" cy="304.1" r="3" fill="#9467bd"/>
<circle cx="330.4" cy="308.6" r="3" fill="#9467bd"/>
<circle cx="446.1" cy="305.6" r="3" fill="#9467bd"/>
<circle cx="475.0" cy="310.6" r="3" fill="#9467bd"/>
<circle cx="503.9" cy="306.4" r="3" fill="#9467bd"/>
<circle cx="532.9" cy="314.9" r="3" fill="#9467bd"/>
<circle cx="561.8" cy="315.0" r="3" fill="#9467bd"/>
<circle cx="590.7" cy="315.6" r="3" fill="#9467bd"/>
<circle cx="619.6" cy="307.9" r="3" fill="#9467bd"/>
<circle cx="648.6" cy="313.9" r="3" fill="#9467bd"/>
<circle cx="677.5" cy="315.7" r="3" fill="#9467bd"/>
<circle cx="706.4" cy="312.8" r="3" fill="#9467bd"/>
<circle cx="735.4" cy="306.0" r="3" fill="#9467bd"/>
<circle cx="764.3" cy="316.6" r="3" fill="#9467bd"/>
<circle cx="793.2" cy="306.0" r="3" fill="#9467bd"/>
<circle cx="822.1" cy="313.9" r="3" fill="#9467bd"/>
<circle cx="851.1" cy="315.3" r="3" fill="#9467bd"/>
<circle cx="880.0" cy="310.5" r="3" fill="#9467bd"/>
<rect x="610.0" y="358" width="10" height="10" fill="#9467bd"/>
<text x="624.0" y="367" font-size="11" fill="#333">lipsync first mouth</text>
<polyline points="330.4,318.5 446.1,314.7 475.0,318.1 503.9,318.0 532.9,318.8 561.8,312.5 590.7,318.8 619.6,314.5 648.6,318.9 677.5,318.7 706.4,311.9 735.4,318.2 764.3,318.5 793.2,311.1 822.1,317.5 851.1,317.9 880.0,316.7" fill="none" stroke="#8c564b" stroke-width="2"/>
<circle cx="330.4" cy="318.5" r="3" fill="#8c564b"/>
<circle cx="446.1" cy="314.7" r="3" fill="#8c564b"/>
<circle cx="475.0" cy="318.1" r="3" fill="#8c564b"/>
<circle cx="503.9" cy="318.0" r="3" fill="#8c564b"/>
<circle cx="532.9" cy="318.8" r="3" fill="#8c564b"/>
<circle cx="561.8" cy="312.5" r="3" fill="#8c564b"/>
<circle cx="590.7" cy="318.8" r="3" fill="#8c564b"/>
<circle cx="619.6" cy="314.5" r="3" fill="#8c564b"/>
<circle cx="648.6" cy="318.9" r="3" fill="#8c564b"/>
<circle cx="677.5" cy="318.7" r="3" fill="#8c564b"/>
<circle cx="706.4" cy="311.9" r="3" fill="#8c564b"/>
<circle cx="735.4" cy="318.2" r="3" fill="#8c564b"/>
<circle cx="764.3" cy="318.5" r="3" fill="#8c564b"/>
<circle cx="793.2" cy="311.1" r="3" fill="#8c564b"/>
<circle cx="822.1" cy="317.5" r="3" fill="#8c564b"/>
<circle cx="851.1" cy="317.9" r="3" fill="#8c564b"/>
<circle cx="880.0" cy="316.7" r="3" fill="#8c564b"/>
<rect x="745.0" y="358" width="10" height="10" fill="#8c564b"/>
<text x="759.0" y="367" font-size="11" fill="#333">render tick p95</text>
</svg>
