<svg xmlns="http://www.w3.org/2000/svg" width="900" height="380" viewBox="0 0 900 380" font-family="sans-serif">
<rect width="900" height="380" fill="white"/>
<text x="70" y="24" font-size="16" fill="#333">Latency (ms, p50 unless noted) — lower is better</text>
<line x1="70" y1="324.0" x2="880" y2="324.0" stroke="#e5e5e5"/>
<text x="64" y="328.0" font-size="11" fill="#666" text-anchor="end">0ms</text>
<line x1="70" y1="268.0" x2="880" y2="268.0" stroke="#e5e5e5"/>
<text x="64" y="272.0" font-size="11" fill="#666" text-anchor="end">1481ms</text>
<line x1="70" y1="212.0" x2="880" y2="212.0" stroke="#e5e5e5"/>
<text x="64" y="216.0" font-size="11" fill="#666" text-anchor="end">2963ms</text>
<line x1="70" y1="156.0" x2="880" y2="156.0" stroke="#e5e5e5"/>
<text x="64" y="160.0" font-size="11" fill="#666" text-anchor="end">4444ms</text>
<line x1="70" y1="100.0" x2="880" y2="100.0" stroke="#e5e5e5"/>
<text x="64" y="104.0" font-size="11" fill="#666" text-anchor="end">5925ms</text>
<line x1="70" y1="44.0" x2="880" y2="44.0" stroke="#e5e5e5"/>
<text x="64" y="48.0" font-size="11" fill="#666" text-anchor="end">7407ms</text>
<text x="70.0" y="342" font-size="11" fill="#666" text-anchor="start">07-16 16:02</text>
<text x="484.0" y="342" font-size="11" fill="#666" text-anchor="middle">07-17 16:30</text>
<text x="880.0" y="342" font-size="11" fill="#666" text-anchor="end">07-17 22:06</text>
<polyline points="70.0,217.7 88.0,227.9 124.0,203.6 142.0,277.5 160.0,167.6 178.0,238.1 196.0,172.1 214.0,214.4 232.0,167.1 250.0,251.0 268.0,170.5 286.0,265.2 304.0,240.0 322.0,194.2 340.0,237.5 358.0,232.3 376.0,238.8 394.0,246.5 412.0,234.7 430.0,174.8 448.0,240.9 466.0,214.4 484.0,64.7 502.0,245.0 520.0,220.8 538.0,276.4 556.0,269.9 574.0,274.6 592.0,281.8 610.0,316.3 628.0,285.1 646.0,292.2 664.0,283.0 682.0,300.1 700.0,293.0 718.0,206.2 736.0,292.0 754.0,223.6 772.0,294.7 790.0,296.4 808.0,260.6 826.0,292.8 844.0,290.2 862.0,290.1 880.0,286.4" fill="none" stroke="#d62728" stroke-width="2"/>
<circle cx="70.0" cy="217.7" r="3" fill="#d62728"/>
<circle cx="88.0" cy="227.9" r="3" fill="#d62728"/>
<circle cx="124.0" cy="203.6" r="3" fill="#d62728"/>
<circle cx="142.0" cy="277.5" r="3" fill="#d62728"/>
<circle cx="160.0" cy="167.6" r="3" fill="#d62728"/>
<circle cx="178.0" cy="238.1" r="3" fill="#d62728"/>
<circle cx="196.0" cy="172.1" r="3" fill="#d62728"/>
<circle cx="214.0" cy="214.4" r="3" fill="#d62728"/>
<circle cx="232.0" cy="167.1" r="3" fill="#d62728"/>
<circle cx="250.0" cy="251.0" r="3" fill="#d62728"/>
<circle cx="268.0" cy="170.5" r="3" fill="#d62728"/>
<circle cx="286.0" cy="265.2" r="3" fill="#d62728"/>
<circle cx="304.0" cy="240.0" r="3" fill="#d62728"/>
<circle cx="322.0" cy="194.2" r="3" fill="#d62728"/>
<circle cx="340.0" cy="237.5" r="3" fill="#d62728"/>
<circle cx="358.0" cy="232.3" r="3" fill="#d62728"/>
<circle cx="376.0" cy="238.8" r="3" fill="#d62728"/>
<circle cx="394.0" cy="246.5" r="3" fill="#d62728"/>
<circle cx="412.0" cy="234.7" r="3" fill="#d62728"/>
<circle cx="430.0" cy="174.8" r="3" fill="#d62728"/>
<circle cx="448.0" cy="240.9" r="3" fill="#d62728"/>
<circle cx="466.0" cy="214.4" r="3" fill="#d62728"/>
<circle cx="484.0" cy="64.7" r="3" fill="#d62728"/>
<circle cx="502.0" cy="245.0" r="3" fill="#d62728"/>
<circle cx="520.0" cy="220.8" r="3" fill="#d62728"/>
<circle cx="538.0" cy="276.4" r="3" fill="#d62728"/>
<circle cx="556.0" cy="269.9" r="3" fill="#d62728"/>
<circle cx="574.0" cy="274.6" r="3" fill="#d62728"/>
<circle cx="592.0" cy="281.8" r="3" fill="#d62728"/>
<circle cx="610.0" cy="316.3" r="3" fill="#d62728"/>
<circle cx="628.0" cy="285.1" r="3" fill="#d62728"/>
<circle cx="646.0" cy="292.2" r="3" fill="#d62728"/>
<circle cx="664.0" cy="283.0" r="3" fill="#d62728"/>
<circle cx="682.0" cy="300.1" r="3" fill="#d62728"/>
<circle cx="700.0" cy="293.0" r="3" fill="#d62728"/>
<circle cx="718.0" cy="206.2" r="3" fill="#d62728"/>
<circle cx="736.0" cy="292.0" r="3" fill="#d62728"/>
<circle cx="754.0" cy="223.6" r="3" fill="#d62728"/>
<circle cx="772.0" cy="294.7" r="3" fill="#d62728"/>
<circle cx="790.0" cy="296.4" r="3" fill="#d62728"/>
<circle cx="808.0" cy="260.6" r="3" fill="#d62728"/>
<circle cx="826.0" cy="292.8" r="3" fill="#d62728"/>
<circle cx="844.0" cy="290.2" r="3" fill="#d62728"/>
<circle cx="862.0" cy="290.1" r="3" fill="#d62728"/>
<circle cx="880.0" cy="286.4" r="3" fill="#d62728"/>
<rect x="70.0" y="358" width="10" height="10" fill="#d62728"/>
<text x="84.0" y="367" font-size="11" fill="#333">first audio (e2e)</text>
<polyline points="232.0,215.3 304.0,199.1 322.0,224.4 340.0,176.9 358.0,267.6 376.0,239.5 394.0,283.5 412.0,244.5 430.0,260.4 448.0,246.2 466.0,245.6 484.0,201.1 502.0,299.9 520.0,252.0 538.0,317.9 556.0,317.8 574.0,317.5 592.0,318.0 646.0,318.3 664.0,317.4 682.0,317.8 700.0,318.6 718.0,317.8 736.0,318.2 754.0,317.3 772.0,317.7 790.0,319.0 808.0,318.6 826.0,317.0 844.0,317.8 862.0,318.5 880.0,317.4" fill="none" stroke="#1f77b4" stroke-width="2"/>
<circle cx="232.0" cy="215.3" r="3" fill="#1f77b4"/>
<circle cx="304.0" cy="199.1" r="3" fill="#1f77b4"/>
<circle cx="322.0" cy="224.4" r="3" fill="#1f77b4"/>
<circle cx="340.0" cy="176.9" r="3" fill="#1f77b4"/>
<circle cx="358.0" cy="267.6" r="3" fill="#1f77b4"/>
<circle cx="376.0" cy="239.5" r="3" fill="#1f77b4"/>
<circle cx="394.0" cy="283.5" r="3" fill="#1f77b4"/>
<circle cx="412.0" cy="244.5" r="3" fill="#1f77b4"/>
<circle cx="430.0" cy="260.4" r="3" fill="#1f77b4"/>
<circle cx="448.0" cy="246.2" r="3" fill="#1f77b4"/>
<circle cx="466.0" cy="245.6" r="3" fill="#1f77b4"/>
<circle cx="484.0" cy="201.1" r="3" fill="#1f77b4"/>
<circle cx="502.0" cy="299.9" r="3" fill="#1f77b4"/>
<circle cx="520.0" cy="252.0" r="3" fill="#1f77b4"/>
<circle cx="538.0" cy="317.9" r="3" fill="#1f77b4"/>
<circle cx="556.0" cy="317.8" r="3" fill="#1f77b4"/>
<circle cx="574.0" cy="317.5" r="3" fill="#1f77b4"/>
<circle cx="592.0" cy="318.0" r="3" fill="#1f77b4"/>
<circle cx="646.0" cy="318.3" r="3" fill="#1f77b4"/>
<circle cx="664.0" cy="317.4" r="3" fill="#1f77b4"/>
<circle cx="682.0" cy="317.8" r="3" fill="#1f77b4"/>
<circle cx="700.0" cy="318.6" r="3" fill="#1f77b4"/>
<circle cx="718.0" cy="317.8" r="3" fill="#1f77b4"/>
<circle cx="736.0" cy="318.2" r="3" fill="#1f77b4"/>
<circle cx="754.0" cy="317.3" r="3" fill="#1f77b4"/>
<circle cx="772.0" cy="317.7" r="3" fill="#1f77b4"/>
<circle cx="790.0" cy="319.0" r="3" fill="#1f77b4"/>
<circle cx="808.0" cy="318.6" r="3" fill="#1f77b4"/>
<circle cx="826.0" cy="317.0" r="3" fill="#1f77b4"/>
<circle cx="844.0" cy="317.8" r="3" fill="#1f77b4"/>
<circle cx="862.0" cy="318.5" r="3" fill="#1f77b4"/>
<circle cx="880.0" cy="317.4" r="3" fill="#1f77b4"/>
<rect x="205.0" y="358" width="10" height="10" fill="#1f77b4"/>
<text x="219.0" y="367" font-size="11" fill="#333">tts first chunk</text>
<polyline points="232.0,298.0 304.0,298.0 322.0,307.7 376.0,287.9 394.0,307.5 412.0,307.7 448.0,300.5 466.0,298.4 502.0,304.7 520.0,305.1 538.0,306.6 556.0,304.3 574.0,291.3 646.0,304.1 718.0,262.6 772.0,311.0 790.0,312.2 808.0,308.2 862.0,308.0" fill="none" stroke="#ff7f0e" stroke-width="2"/>
<circle cx="232.0" cy="298.0" r="3" fill="#ff7f0e"/>
<circle cx="304.0" cy="298.0" r="3" fill="#ff7f0e"/>
<circle cx="322.0" cy="307.7" r="3" fill="#ff7f0e"/>
<circle cx="376.0" cy="287.9" r="3" fill="#ff7f0e"/>
<circle cx="394.0" cy="307.5" r="3" fill="#ff7f0e"/>
<circle cx="412.0" cy="307.7" r="3" fill="#ff7f0e"/>
<circle cx="448.0" cy="300.5" r="3" fill="#ff7f0e"/>
<circle cx="466.0" cy="298.4" r="3" fill="#ff7f0e"/>
<circle cx="502.0" cy="304.7" r="3" fill="#ff7f0e"/>
<circle cx="520.0" cy="305.1" r="3" fill="#ff7f0e"/>
<circle cx="538.0" cy="306.6" r="3" fill="#ff7f0e"/>
<circle cx="556.0" cy="304.3" r="3" fill="#ff7f0e"/>
<circle cx="574.0" cy="291.3" r="3" fill="#ff7f0e"/>
<circle cx="646.0" cy="304.1" r="3" fill="#ff7f0e"/>
<circle cx="718.0" cy="262.6" r="3" fill="#ff7f0e"/>
<circle cx="772.0" cy="311.0" r="3" fill="#ff7f0e"/>
<circle cx="790.0" cy="312.2" r="3" fill="#ff7f0e"/>
<circle cx="808.0" cy="308.2" r="3" fill="#ff7f0e"/>
<circle cx="862.0" cy="308.0" r="3" fill="#ff7f0e"/>
<rect x="340.0" y="358" width="10" height="10" fill="#ff7f0e"/>
<text x="354.0" y="367" font-size="11" fill="#333">llm ttft</text>
<polyline points="70.0,297.1 88.0,301.1 124.0,298.1 142.0,298.0 160.0,303.1 196.0,274.4 214.0,281.5 232.0,241.9 304.0,243.2 322.0,286.5 340.0,268.6 358.0,306.2 376.0,280.2 394.0,306.0 412.0,297.3 430.0,269.3 448.0,299.0 466.0,267.5 484.0,275.1 502.0,303.3 520.0,253.3 538.0,280.5 556.0,282.8 574.0,272.0 592.0,296.7 646.0,299.6 664.0,301.6 682.0,312.5 700.0,300.5 718.0,169.3 736.0,296.2 754.0,240.3 772.0,307.0 790.0,310.0 808.0,275.8 826.0,305.7 844.0,304.6 862.0,303.7 880.0,297.4" fill="none" stroke="#2ca02c" stroke-width="2"/>
<circle cx="70.0" cy="297.1" r="3" fill="#2ca02c"/>
<circle cx="88.0" cy="301.1" r="3" fill="#2ca02c"/>
<circle cx="124.0" cy="298.1" r="3" fill="#2ca02c"/>
<circle cx="142.0" cy="298.0" r="3" fill="#2ca02c"/>
<circle cx="160.0" cy="303.1" r="3" fill="#2ca02c"/>
<circle cx="196.0" cy="274.4" r="3" fill="#2ca02c"/>
<circle cx="214.0" cy="281.5" r="3" fill="#2ca02c"/>
<circle cx="232.0" cy="241.9" r="3" fill="#2ca02c"/>
<circle cx="304.0" cy="243.2" r="3" fill="#2ca02c"/>
<circle cx="322.0" cy="286.5" r="3" fill="#2ca02c"/>
<circle cx="340.0" cy="268.6" r="3" fill="#2ca02c"/>
<circle cx="358.0" cy="306.2" r="3" fill="#2ca02c"/>
<circle cx="376.0" cy="280.2" r="3" fill="#2ca02c"/>
<circle cx="394.0" cy="306.0" r="3" fill="#2ca02c"/>
<circle cx="412.0" cy="297.3" r="3" fill="#2ca02c"/>
<circle cx="430.0" cy="269.3" r="3" fill="#2ca02c"/>
<circle cx="448.0" cy="299.0" r="3" fill="#2ca02c"/>
<circle cx="466.0" cy="267.5" r="3" fill="#2ca02c"/>
<circle cx="484.0" cy="275.1" r="3" fill="#2ca02c"/>
<circle cx="502.0" cy="303.3" r="3" fill="#2ca02c"/>
<circle cx="520.0" cy="253.3" r="3" fill="#2ca02c"/>
<circle cx="538.0" cy="280.5" r="3" fill="#2ca02c"/>
<circle cx="556.0" cy="282.8" r="3" fill="#2ca02c"/>
<circle cx="574.0" cy="272.0" r="3" fill="#2ca02c"/>
<circle cx="592.0" cy="296.7" r="3" fill="#2ca02c"/>
<circle cx="646.0" cy="299.6" r="3" fill="#2ca02c"/>
<circle cx="664.0" cy="301.6" r="3" fill="#2ca02c"/>
<circle cx="682.0" cy="312.5" r="3" fill="#2ca02c"/>
<circle cx="700.0" cy="300.5" r="3" fill="#2ca02c"/>
<circle cx="718.0" cy="169.3" r="3" fill="#2ca02c"/>
<circle cx="736.0" cy="296.2" r="3" fill="#2ca02c"/>
<circle cx="754.0" cy="240.3" r="3" fill="#2ca02c"/>
<circle cx="772.0" cy="307.0" r="3" fill="#2ca02c"/>
<circle cx="790.0" cy="310.0" r="3" fill="#2ca02c"/>
<circle cx="808.0" cy="275.8" r="3" fill="#2ca02c"/>
<circle cx="826.0" cy="305.7" r="3" fill="#2ca02c"/>
<circle cx="844.0" cy="304.6" r="3" fill="#2ca02c"/>
<circle cx="862.0" cy="303.7" r="3" fill="#2ca02c"/>
<circle cx="880.0" cy="297.4" r="3" fill="#2ca02c"/>
<rect x="475.0" y="358" width="10" height="10" fill="#2ca02c"/>
<text x="489.0" y="367" font-size="11" fill="#333">llm first sentence</text>
<polyline points="70.0,311.1 88.0,313.5 106.0,311.5 124.0,312.5 142.0,305.2 160.0,313.0 196.0,306.1 214.0,304.1 232.0,308.6 304.0,305.6 322.0,310.6 340.0,306.4 358.0,314.9 376.0,315.0 394.0,315.6 412.0,307.9 430.0,313.9 448.0,315.7 466.0,312.8 484.0,306.0 502.0,316.6 520.0,306.0 538.0,313.9 556.0,315.3 574.0,310.5 592.0,316.9 646.0,316.3 664.0,314.8 682.0,314.8 700.0,315.1 718.0,315.2 736.0,314.1 754.0,311.9 772.0,316.5 790.0,316.1 808.0,316.0 826.0,312.9 844.0,314.0 862.0,316.3 880.0,313.4" fill="none" stroke="#9467bd" stroke-width="2"/>
<circle cx="70.0" cy="311.1" r="3" fill="#9467bd"/>
<circle cx="88.0" cy="313.5" r="3" fill="#9467bd"/>
<circle cx="106.0" cy="311.5" r="3" fill="#9467bd"/>
<circle cx="124.0" cy="312.5" r="3" fill="#9467bd"/>
<circle cx="142.0" cy="305.2" r="3" fill="#9467bd"/>
<circle cx="160.0" cy="313.0" r="3" fill="#9467bd"/>
<circle cx="196.0" cy="306.1" r="3" fill="#9467bd"/>
<circle cx="214.0" cy="304.1" r="3" fill="#9467bd"/>
<circle cx="232.0" cy="308.6" r="3" fill="#9467bd"/>
<circle cx="304.0" cy="305.6" r="3" fill="#9467bd"/>
<circle cx="322.0" cy="310.6" r="3" fill="#9467bd"/>
<circle cx="340.0" cy="306.4" r="3" fill="#9467bd"/>
<circle cx="358.0" cy="314.9" r="3" fill="#9467bd"/>
<circle cx="376.0" cy="315.0" r="3" fill="#9467bd"/>
<circle cx="394.0" cy="315.6" r="3" fill="#9467bd"/>
<circle cx="412.0" cy="307.9" r="3" fill="#9467bd"/>
<circle cx="430.0" cy="313.9" r="3" fill="#9467bd"/>
<circle cx="448.0" cy="315.7" r="3" fill="#9467bd"/>
<circle cx="466.0" cy="312.8" r="3" fill="#9467bd"/>
<circle cx="484.0" cy="306.0" r="3" fill="#9467bd"/>
<circle cx="502.0" cy="316.6" r="3" fill="#9467bd"/>
<circle cx="520.0" cy="306.0" r="3" fill="#9467bd"/>
<circle cx="538.0" cy="313.9" r="3" fill="#9467bd"/>
<circle cx="556.0" cy="315.3" r="3" fill="#9467bd"/>
<circle cx="574.0" cy="310.5" r="3" fill="#9467bd"/>
<circle cx="592.0" cy="316.9" r="3" fill="#9467bd"/>
<circle cx="646.0" cy="316.3" r="3" fill="#9467bd"/>
<circle cx="664.0" cy="314.8" r="3" fill="#9467bd"/>
<circle cx="682.0" cy="314.8" r="3" fill="#9467bd"/>
<circle cx="700.0" cy="315.1" r="3" fill="#9467bd"/>
<circle cx="718.0" cy="315.2" r="3" fill="#9467bd"/>
<circle cx="736.0" cy="314.1" r="3" fill="#9467bd"/>
<circle cx="754.0" cy="311.9" r="3" fill="#9467bd"/>
<circle cx="772.0" cy="316.5" r="3" fill="#9467bd"/>
<circle cx="790.0" cy="316.1" r="3" fill="#9467bd"/>
<circle cx="808.0" cy="316.0" r="3" fill="#9467bd"/>
<circle cx="826.0" cy="312.9" r="3" fill="#9467bd"/>
<circle cx="844.0" cy="314.0" r="3" fill="#9467bd"/>
<circle cx="862.0" cy="316.3" r="3" fill="#9467bd"/>
<circle cx="880.0" cy="313.4" r="3" fill="#9467bd"/>
<rect x="610.0" y="358" width="10" height="10" fill="#9467bd"/>
<text x="624.0" y="367" font-size="11" fill="#333">lipsync first mouth</text>
<polyline points="232.0,318.5 304.0,314.7 322.0,318.1 340.0,318.0 358.0,318.8 376.0,312.5 394.0,318.8 412.0,314.5 430.0,318.9 448.0,318.7 466.0,311.9 484.0,318.2 502.0,318.5 520.0,311.1 538.0,317.5 556.0,317.9 574.0,316.7 592.0,318.9 646.0,318.7 664.0,318.6 682.0,318.2 700.0,318.2 718.0,318.6 736.0,317.8 754.0,318.8 772.0,318.3 790.0,318.3 808.0,319.3 826.0,315.9 844.0,318.6 862.0,319.7 880.0,317.7" fill="none" stroke="#8c564b" stroke-width="2"/>
<circle cx="232.0" cy="318.5" r="3" fill="#8c564b"/>
<circle cx="304.0" cy="314.7" r="3" fill="#8c564b"/>
<circle cx="322.0" cy="318.1" r="3" fill="#8c564b"/>
<circle cx="340.0" cy="318.0" r="3" fill="#8c564b"/>
<circle cx="358.0" cy="318.8" r="3" fill="#8c564b"/>
<circle cx="376.0" cy="312.5" r="3" fill="#8c564b"/>
<circle cx="394.0" cy="318.8" r="3" fill="#8c564b"/>
<circle cx="412.0" cy="314.5" r="3" fill="#8c564b"/>
<circle cx="430.0" cy="318.9" r="3" fill="#8c564b"/>
<circle cx="448.0" cy="318.7" r="3" fill="#8c564b"/>
<circle cx="466.0" cy="311.9" r="3" fill="#8c564b"/>
<circle cx="484.0" cy="318.2" r="3" fill="#8c564b"/>
<circle cx="502.0" cy="318.5" r="3" fill="#8c564b"/>
<circle cx="520.0" cy="311.1" r="3" fill="#8c564b"/>
<circle cx="538.0" cy="317.5" r="3" fill="#8c564b"/>
<circle cx="556.0" cy="317.9" r="3" fill="#8c564b"/>
<circle cx="574.0" cy="316.7" r="3" fill="#8c564b"/>
<circle cx="592.0" cy="318.9" r="3" fill="#8c564b"/>
<circle cx="646.0" cy="318.7" r="3" fill="#8c564b"/>
<circle cx="664.0" cy="318.6" r="3" fill="#8c564b"/>
<circle cx="682.0" cy="318.2" r="3" fill="#8c564b"/>
<circle cx="700.0" cy="318.2" r="3" fill="#8c564b"/>
<circle cx="718.0" cy="318.6" r="3" fill="#8c564b"/>
<circle cx="736.0" cy="317.8" r="3" fill="#8c564b"/>
<circle cx="754.0" cy="318.8" r="3" fill="#8c564b"/>
<circle cx="772.0" cy="318.3" r="3" fill="#8c564b"/>
<circle cx="790.0" cy="318.3" r="3" fill="#8c564b"/>
<circle cx="808.0" cy="319.3" r="3" fill="#8c564b"/>
<circle cx="826.0" cy="315.9" r="3" fill="#8c564b"/>
<circle cx="844.0" cy="318.6" r="3" fill="#8c564b"/>
<circle cx="862.0" cy="319.7" r="3" fill="#8c564b"/>
<circle cx="880.0" cy="317.7" r="3" fill="#8c564b"/>
<rect x="745.0" y="358" width="10" height="10" fill="#8c564b"/>
<text x="759.0" y="367" font-size="11" fill="#333">render tick p95</text>
</svg>
