<svg xmlns="http://www.w3.org/2000/svg" width="900" height="380" viewBox="0 0 900 380" font-family="sans-serif">
<rect width="900" height="380" fill="white"/>
<text x="70" y="24" font-size="16" fill="#333">Latency (ms, p50 unless noted) — lower is better</text>
<line x1="70" y1="324.0" x2="880" y2="324.0" stroke="#e5e5e5"/>
<text x="64" y="328.0" font-size="11" fill="#666" text-anchor="end">0ms</text>
<line x1="70" y1="268.0" x2="880" y2="268.0" stroke="#e5e5e5"/>
<text x="64" y="272.0" font-size="11" fill="#666" text-anchor="end">1481ms</text>
<line x1="70" y1="212.0" x2="880" y2="212.0" stroke="#e5e5e5"/>
<text x="64" y="216.0" font-size="11" fill="#666" text-anchor="end">2963ms</text>
<line x1="70" y1="156.0" x2="880" y2="156.0" stroke="#e5e5e5"/>
<text x="64" y="160.0" font-size="11" fill="#666" text-anchor="end">4444ms</text>
<line x1="70" y1="100.0" x2="880" y2="100.0" stroke="#e5e5e5"/>
<text x="64" y="104.0" font-size="11" fill="#666" text-anchor="end">5925ms</text>
<line x1="70" y1="44.0" x2="880" y2="44.0" stroke="#e5e5e5"/>
<text x="64" y="48.0" font-size="11" fill="#666" text-anchor="end">7407ms</text>
<text x="70.0" y="342" font-size="11" fill="#666" text-anchor="start">07-16 16:02</text>
<text x="475.0" y="342" font-size="11" fill="#666" text-anchor="middle">07-17 15:13</text>
<text x="880.0" y="342" font-size="11" fill="#666" text-anchor="end">07-17 20:37</text>
<polyline points="70.0,217.7 90.2,227.9 130.8,203.6 151.0,277.5 171.2,167.6 191.5,238.1 211.8,172.1 232.0,214.4 252.2,167.1 272.5,251.0 292.8,170.5 313.0,265.2 333.2,240.0 353.5,194.2 373.8,237.5 394.0,232.3 414.2,238.8 434.5,246.5 454.8,234.7 475.0,174.8 495.2,240.9 515.5,214.4 535.8,64.7 556.0,245.0 576.2,220.8 596.5,276.4 616.8,269.9 637.0,274.6 657.2,281.8 677.5,316.3 697.8,285.1 718.0,292.2 738.2,283.0 758.5,300.1 778.8,293.0 799.0,206.2 819.2,292.0 839.5,223.6 859.8,294.7 880.0,296.4" fill="none" stroke="#d62728" stroke-width="2"/>
<circle cx="70.0" cy="217.7" r="3" fill="#d62728"/>
<circle cx="90.2" cy="227.9" r="3" fill="#d62728"/>
<circle cx="130.8" cy="203.6" r="3" fill="#d62728"/>
<circle cx="151.0" cy="277.5" r="3" fill="#d62728"/>
<circle cx="171.2" cy="167.6" r="3" fill="#d62728"/>
<circle cx="191.5" cy="238.1" r="3" fill="#d62728"/>
<circle cx="211.8" cy="172.1" r="3" fill="#d62728"/>
<circle cx="232.0" cy="214.4" r="3" fill="#d62728"/>
<circle cx="252.2" cy="167.1" r="3" fill="#d62728"/>
<circle cx="272.5" cy="251.0" r="3" fill="#d62728"/>
<circle cx="292.8" cy="170.5" r="3" fill="#d62728"/>
<circle cx="313.0" cy="265.2" r="3" fill="#d62728"/>
<circle cx="333.2" cy="240.0" r="3" fill="#d62728"/>
<circle cx="353.5" cy="194.2" r="3" fill="#d62728"/>
<circle cx="373.8" cy="237.5" r="3" fill="#d62728"/>
<circle cx="394.0" cy="232.3" r="3" fill="#d62728"/>
<circle cx="414.2" cy="238.8" r="3" fill="#d62728"/>
<circle cx="434.5" cy="246.5" r="3" fill="#d62728"/>
<circle cx="454.8" cy="234.7" r="3" fill="#d62728"/>
<circle cx="475.0" cy="174.8" r="3" fill="#d62728"/>
<circle cx="495.2" cy="240.9" r="3" fill="#d62728"/>
<circle cx="515.5" cy="214.4" r="3" fill="#d62728"/>
<circle cx="535.8" cy="64.7" r="3" fill="#d62728"/>
<circle cx="556.0" cy="245.0" r="3" fill="#d62728"/>
<circle cx="576.2" cy="220.8" r="3" fill="#d62728"/>
<circle cx="596.5" cy="276.4" r="3" fill="#d62728"/>
<circle cx="616.8" cy="269.9" r="3" fill="#d62728"/>
<circle cx="637.0" cy="274.6" r="3" fill="#d62728"/>
<circle cx="657.2" cy="281.8" r="3" fill="#d62728"/>
<circle cx="677.5" cy="316.3" r="3" fill="#d62728"/>
<circle cx="697.8" cy="285.1" r="3" fill="#d62728"/>
<circle cx="718.0" cy="292.2" r="3" fill="#d62728"/>
<circle cx="738.2" cy="283.0" r="3" fill="#d62728"/>
<circle cx="758.5" cy="300.1" r="3" fill="#d62728"/>
<circle cx="778.8" cy="293.0" r="3" fill="#d62728"/>
<circle cx="799.0" cy="206.2" r="3" fill="#d62728"/>
<circle cx="819.2" cy="292.0" r="3" fill="#d62728"/>
<circle cx="839.5" cy="223.6" r="3" fill="#d62728"/>
<circle cx="859.8" cy="294.7" r="3" fill="#d62728"/>
<circle cx="880.0" cy="296.4" r="3" fill="#d62728"/>
<rect x="70.0" y="358" width="10" height="10" fill="#d62728"/>
<text x="84.0" y="367" font-size="11" fill="#333">first audio (e2e)</text>
<polyline points="252.2,215.3 333.2,199.1 353.5,224.4 373.8,176.9 394.0,267.6 414.2,239.5 434.5,283.5 454.8,244.5 475.0,260.4 495.2,246.2 515.5,245.6 535.8,201.1 556.0,299.9 576.2,252.0 596.5,317.9 616.8,317.8 637.0,317.5 657.2,318.0 718.0,318.3 738.2,317.4 758.5,317.8 778.8,318.6 799.0,317.8 819.2,318.2 839.5,317.3 859.8,317.7 880.0,319.0" fill="none" stroke="#1f77b4" stroke-width="2"/>
<circle cx="252.2" cy="215.3" r="3" fill="#1f77b4"/>
<circle cx="333.2" cy="199.1" r="3" fill="#1f77b4"/>
<circle cx="353.5" cy="224.4" r="3" fill="#1f77b4"/>
<circle cx="373.8" cy="176.9" r="3" fill="#1f77b4"/>
<circle cx="394.0" cy="267.6" r="3" fill="#1f77b4"/>
<circle cx="414.2" cy="239.5" r="3" fill="#1f77b4"/>
<circle cx="434.5" cy="283.5" r="3" fill="#1f77b4"/>
<circle cx="454.8" cy="244.5" r="3" fill="#1f77b4"/>
<circle cx="475.0" cy="260.4" r="3" fill="#1f77b4"/>
<circle cx="495.2" cy="246.2" r="3" fill="#1f77b4"/>
<circle cx="515.5" cy="245.6" r="3" fill="#1f77b4"/>
<circle cx="535.8" cy="201.1" r="3" fill="#1f77b4"/>
<circle cx="556.0" cy="299.9" r="3" fill="#1f77b4"/>
<circle cx="576.2" cy="252.0" r="3" fill="#1f77b4"/>
<circle cx="596.5" cy="317.9" r="3" fill="#1f77b4"/>
<circle cx="616.8" cy="317.8" r="3" fill="#1f77b4"/>
<circle cx="637.0" cy="317.5" r="3" fill="#1f77b4"/>
<circle cx="657.2" cy="318.0" r="3" fill="#1f77b4"/>
<circle cx="718.0" cy="318.3" r="3" fill="#1f77b4"/>
<circle cx="738.2" cy="317.4" r="3" fill="#1f77b4"/>
<circle cx="758.5" cy="317.8" r="3" fill="#1f77b4"/>
<circle cx="778.8" cy="318.6" r="3" fill="#1f77b4"/>
<circle cx="799.0" cy="317.8" r="3" fill="#1f77b4"/>
<circle cx="819.2" cy="318.2" r="3" fill="#1f77b4"/>
<circle cx="839.5" cy="317.3" r="3" fill="#1f77b4"/>
<circle cx="859.8" cy="317.7" r="3" fill="#1f77b4"/>
<circle cx="880.0" cy="319.0" r="3" fill="#1f77b4"/>
<rect x="205.0" y="358" width="10" height="10" fill="#1f77b4"/>
<text x="219.0" y="367" font-size="11" fill="#333">tts first chunk</text>
<polyline points="252.2,298.0 333.2,298.0 353.5,307.7 414.2,287.9 434.5,307.5 454.8,307.7 495.2,300.5 515.5,298.4 556.0,304.7 576.2,305.1 596.5,306.6 616.8,304.3 637.0,291.3 718.0,304.1 799.0,262.6 859.8,311.0 880.0,312.2" fill="none" stroke="#ff7f0e" stroke-width="2"/>
<circle cx="252.2" cy="298.0" r="3" fill="#ff7f0e"/>
<circle cx="333.2" cy="298.0" r="3" fill="#ff7f0e"/>
<circle cx="353.5" cy="307.7" r="3" fill="#ff7f0e"/>
<circle cx="414.2" cy="287.9" r="3" fill="#ff7f0e"/>
<circle cx="434.5" cy="307.5" r="3" fill="#ff7f0e"/>
<circle cx="454.8" cy="307.7" r="3" fill="#ff7f0e"/>
<circle cx="495.2" cy="300.5" r="3" fill="#ff7f0e"/>
<circle cx="515.5" cy="298.4" r="3" fill="#ff7f0e"/>
<circle cx="556.0" cy="304.7" r="3" fill="#ff7f0e"/>
<circle cx="576.2" cy="305.1" r="3" fill="#ff7f0e"/>
<circle cx="596.5" cy="306.6" r="3" fill="#ff7f0e"/>
<circle cx="616.8" cy="304.3" r="3" fill="#ff7f0e"/>
<circle cx="637.0" cy="291.3" r="3" fill="#ff7f0e"/>
<circle cx="718.0" cy="304.1" r="3" fill="#ff7f0e"/>
<circle cx="799.0" cy="262.6" r="3" fill="#ff7f0e"/>
<circle cx="859.8" cy="311.0" r="3" fill="#ff7f0e"/>
<circle cx="880.0" cy="312.2" r="3" fill="#ff7f0e"/>
<rect x="340.0" y="358" width="10" height="10" fill="#ff7f0e"/>
<text x="354.0" y="367" font-size="11" fill="#333">llm ttft</text>
<polyline points="70.0,297.1 90.2,301.1 130.8,298.1 151.0,298.0 171.2,303.1 211.8,274.4 232.0,281.5 252.2,241.9 333.2,243.2 353.5,286.5 373.8,268.6 394.0,306.2 414.2,280.2 434.5,306.0 454.8,297.3 475.0,269.3 495.2,299.0 515.5,267.5 535.8,275.1 556.0,303.3 576.2,253.3 596.5,280.5 616.8,282.8 637.0,272.0 657.2,296.7 718.0,299.6 738.2,301.6 758.5,312.5 778.8,300.5 799.0,169.3 819.2,296.2 839.5,240.3 859.8,307.0 880.0,310.0" fill="none" stroke="#2ca02c" stroke-width="2"/>
<circle cx="70.0" cy="297.1" r="3" fill="#2ca02c"/>
<circle cx="90.2" cy="301.1" r="3" fill="#2ca02c"/>
<circle cx="130.8" cy="298.1" r="3" fill="#2ca02c"/>
<circle cx="151.0" cy="298.0" r="3" fill="#2ca02c"/>
<circle cx="171.2" cy="303.1" r="3" fill="#2ca02c"/>
<circle cx="211.8" cy="274.4" r="3" fill="#2ca02c"/>
<circle cx="232.0" cy="281.5" r="3" fill="#2ca02c"/>
<circle cx="252.2" cy="241.9" r="3" fill="#2ca02c"/>
<circle cx="333.2" cy="243.2" r="3" fill="#2ca02c"/>
<circle cx="353.5" cy="286.5" r="3" fill="#2ca02c"/>
<circle cx="373.8" cy="268.6" r="3" fill="#2ca02c"/>
<circle cx="394.0" cy="306.2" r="3" fill="#2ca02c"/>
<circle cx="414.2" cy="280.2" r="3" fill="#2ca02c"/>
<circle cx="434.5" cy="306.0" r="3" fill="#2ca02c"/>
<circle cx="454.8" cy="297.3" r="3" fill="#2ca02c"/>
<circle cx="475.0" cy="269.3" r="3" fill="#2ca02c"/>
<circle cx="495.2" cy="299.0" r="3" fill="#2ca02c"/>
<circle cx="515.5" cy="267.5" r="3" fill="#2ca02c"/>
<circle cx="535.8" cy="275.1" r="3" fill="#2ca02c"/>
<circle cx="556.0" cy="303.3" r="3" fill="#2ca02c"/>
<circle cx="576.2" cy="253.3" r="3" fill="#2ca02c"/>
<circle cx="596.5" cy="280.5" r="3" fill="#2ca02c"/>
<circle cx="616.8" cy="282.8" r="3" fill="#2ca02c"/>
<circle cx="637.0" cy="272.0" r="3" fill="#2ca02c"/>
<circle cx="657.2" cy="296.7" r="3" fill="#2ca02c"/>
<circle cx="718.0" cy="299.6" r="3" fill="#2ca02c"/>
<circle cx="738.2" cy="301.6" r="3" fill="#2ca02c"/>
<circle cx="758.5" cy="312.5" r="3" fill="#2ca02c"/>
<circle cx="778.8" cy="300.5" r="3" fill="#2ca02c"/>
<circle cx="799.0" cy="169.3" r="3" fill="#2ca02c"/>
<circle cx="819.2" cy="296.2" r="3" fill="#2ca02c"/>
<circle cx="839.5" cy="240.3" r="3" fill="#2ca02c"/>
<circle cx="859.8" cy="307.0" r="3" fill="#2ca02c"/>
<circle cx="880.0" cy="310.0" r="3" fill="#2ca02c"/>
<rect x="475.0" y="358" width="10" height="10" fill="#2ca02c"/>
<text x="489.0" y="367" font-size="11" fill="#333">llm first sentence</text>
<polyline points="70.0,311.1 90.2,313.5 110.5,311.5 130.8,312.5 151.0,305.2 171.2,313.0 211.8,306.1 232.0,304.1 252.2,308.6 333.2,305.6 353.5,310.6 373.8,306.4 394.0,314.9 414.2,315.0 434.5,315.6 454.8,307.9 475.0,313.9 495.2,315.7 515.5,312.8 535.8,306.0 556.0,316.6 576.2,306.0 596.5,313.9 616.8,315.3 637.0,310.5 657.2,316.9 718.0,316.3 738.2,314.8 758.5,314.8 778.8,315.1 799.0,315.2 819.2,314.1 839.5,311.9 859.8,316.5 880.0,316.1" fill="none" stroke="#9467bd" stroke-width="2"/>
<circle cx="70.0" cy="311.1" r="3" fill="#9467bd"/>
<circle cx="90.2" cy="313.5" r="3" fill="#9467bd"/>
<circle cx="110.5" cy="311.5" r="3" fill="#9467bd"/>
<circle cx="130.8" cy="312.5" r="3" fill="#9467bd"/>
<circle cx="151.0" cy="305.2" r="3" fill="#9467bd"/>
<circle cx="171.2" cy="313.0" r="3" fill="#9467bd"/>
<circle cx="211.8" cy="306.1" r="3" fill="#9467bd"/>
<circle cx="232.0" cy="304.1" r="3" fill="#9467bd"/>
<circle cx="252.2" cy="308.6" r="3" fill="#9467bd"/>
<circle cx="333.2" cy="305.6" r="3" fill="#9467bd"/>
<circle cx="353.5" cy="310.6" r="3" fill="#9467bd"/>
<circle cx="373.8" cy="306.4" r="3" fill="#9467bd"/>
<circle cx="394.0" cy="314.9" r="3" fill="#9467bd"/>
<circle cx="414.2" cy="315.0" r="3" fill="#9467bd"/>
<circle cx="434.5" cy="315.6" r="3" fill="#9467bd"/>
<circle cx="454.8" cy="307.9" r="3" fill="#9467bd"/>
<circle cx="475.0" cy="313.9" r="3" fill="#9467bd"/>
<circle cx="495.2" cy="315.7" r="3" fill="#9467bd"/>
<circle cx="515.5" cy="312.8" r="3" fill="#9467bd"/>
<circle cx="535.8" cy="306.0" r="3" fill="#9467bd"/>
<circle cx="556.0" cy="316.6" r="3" fill="#9467bd"/>
<circle cx="576.2" cy="306.0" r="3" fill="#9467bd"/>
<circle cx="596.5" cy="313.9" r="3" fill="#9467bd"/>
<circle cx="616.8" cy="315.3" r="3" fill="#9467bd"/>
<circle cx="637.0" cy="310.5" r="3" fill="#9467bd"/>
<circle cx="657.2" cy="316.9" r="3" fill="#9467bd"/>
<circle cx="718.0" cy="316.3" r="3" fill="#9467bd"/>
<circle cx="738.2" cy="314.8" r="3" fill="#9467bd"/>
<circle cx="758.5" cy="314.8" r="3" fill="#9467bd"/>
<circle cx="778.8" cy="315.1" r="3" fill="#9467bd"/>
<circle cx="799.0" cy="315.2" r="3" fill="#9467bd"/>
<circle cx="819.2" cy="314.1" r="3" fill="#9467bd"/>
<circle cx="839.5" cy="311.9" r="3" fill="#9467bd"/>
<circle cx="859.8" cy="316.5" r="3" fill="#9467bd"/>
<circle cx="880.0" cy="316.1" r="3" fill="#9467bd"/>
<rect x="610.0" y="358" width="10" height="10" fill="#9467bd"/>
<text x="624.0" y="367" font-size="11" fill="#333">lipsync first mouth</text>
<polyline points="252.2,318.5 333.2,314.7 353.5,318.1 373.8,318.0 394.0,318.8 414.2,312.5 434.5,318.8 454.8,314.5 475.0,318.9 495.2,318.7 515.5,311.9 535.8,318.2 556.0,318.5 576.2,311.1 596.5,317.5 616.8,317.9 637.0,316.7 657.2,318.9 718.0,318.7 738.2,318.6 758.5,318.2 778.8,318.2 799.0,318.6 819.2,317.8 839.5,318.8 859.8,318.3 880.0,318.3" fill="none" stroke="#8c564b" stroke-width="2"/>
<circle cx="252.2" cy="318.5" r="3" fill="#8c564b"/>
<circle cx="333.2" cy="314.7" r="3" fill="#8c564b"/>
<circle cx="353.5" cy="318.1" r="3" fill="#8c564b"/>
<circle cx="373.8" cy="318.0" r="3" fill="#8c564b"/>
<circle cx="394.0" cy="318.8" r="3" fill="#8c564b"/>
<circle cx="414.2" cy="312.5" r="3" fill="#8c564b"/>
<circle cx="434.5" cy="318.8" r="3" fill="#8c564b"/>
<circle cx="454.8" cy="314.5" r="3" fill="#8c564b"/>
<circle cx="475.0" cy="318.9" r="3" fill="#8c564b"/>
<circle cx="495.2" cy="318.7" r="3" fill="#8c564b"/>
<circle cx="515.5" cy="311.9" r="3" fill="#8c564b"/>
<circle cx="535.8" cy="318.2" r="3" fill="#8c564b"/>
<circle cx="556.0" cy="318.5" r="3" fill="#8c564b"/>
<circle cx="576.2" cy="311.1" r="3" fill="#8c564b"/>
<circle cx="596.5" cy="317.5" r="3" fill="#8c564b"/>
<circle cx="616.8" cy="317.9" r="3" fill="#8c564b"/>
<circle cx="637.0" cy="316.7" r="3" fill="#8c564b"/>
<circle cx="657.2" cy="318.9" r="3" fill="#8c564b"/>
<circle cx="718.0" cy="318.7" r="3" fill="#8c564b"/>
<circle cx="738.2" cy="318.6" r="3" fill="#8c564b"/>
<circle cx="758.5" cy="318.2" r="3" fill="#8c564b"/>
<circle cx="778.8" cy="318.2" r="3" fill="#8c564b"/>
<circle cx="799.0" cy="318.6" r="3" fill="#8c564b"/>
<circle cx="819.2" cy="317.8" r="3" fill="#8c564b"/>
<circle cx="839.5" cy="318.8" r="3" fill="#8c564b"/>
<circle cx="859.8" cy="318.3" r="3" fill="#8c564b"/>
<circle cx="880.0" cy="318.3" r="3" fill="#8c564b"/>
<rect x="745.0" y="358" width="10" height="10" fill="#8c564b"/>
<text x="759.0" y="367" font-size="11" fill="#333">render tick p95</text>
</svg>
