<svg xmlns="http://www.w3.org/2000/svg" width="900" height="380" viewBox="0 0 900 380" font-family="sans-serif">
<rect width="900" height="380" fill="white"/>
<text x="70" y="24" font-size="16" fill="#333">Latency (ms, p50 unless noted) — lower is better</text>
<line x1="70" y1="324.0" x2="880" y2="324.0" stroke="#e5e5e5"/>
<text x="64" y="328.0" font-size="11" fill="#666" text-anchor="end">0ms</text>
<line x1="70" y1="268.0" x2="880" y2="268.0" stroke="#e5e5e5"/>
<text x="64" y="272.0" font-size="11" fill="#666" text-anchor="end">1481ms</text>
<line x1="70" y1="212.0" x2="880" y2="212.0" stroke="#e5e5e5"/>
<text x="64" y="216.0" font-size="11" fill="#666" text-anchor="end">2963ms</text>
<line x1="70" y1="156.0" x2="880" y2="156.0" stroke="#e5e5e5"/>
<text x="64" y="160.0" font-size="11" fill="#666" text-anchor="end">4444ms</text>
<line x1="70" y1="100.0" x2="880" y2="100.0" stroke="#e5e5e5"/>
<text x="64" y="104.0" font-size="11" fill="#666" text-anchor="end">5925ms</text>
<line x1="70" y1="44.0" x2="880" y2="44.0" stroke="#e5e5e5"/>
<text x="64" y="48.0" font-size="11" fill="#666" text-anchor="end">7407ms</text>
<text x="70.0" y="342" font-size="11" fill="#666" text-anchor="start">07-16 16:02</text>
<text x="483.3" y="342" font-size="11" fill="#666" text-anchor="middle">07-17 16:41</text>
<text x="880.0" y="342" font-size="11" fill="#666" text-anchor="end">07-17 22:45</text>
<polyline points="70.0,217.7 86.5,227.9 119.6,203.6 136.1,277.5 152.7,167.6 169.2,238.1 185.7,172.1 202.2,214.4 218.8,167.1 235.3,251.0 251.8,170.5 268.4,265.2 284.9,240.0 301.4,194.2 318.0,237.5 334.5,232.3 351.0,238.8 367.6,246.5 384.1,234.7 400.6,174.8 417.1,240.9 433.7,214.4 450.2,64.7 466.7,245.0 483.3,220.8 499.8,276.4 516.3,269.9 532.9,274.6 549.4,281.8 565.9,316.3 582.4,285.1 599.0,292.2 615.5,283.0 632.0,300.1 648.6,293.0 665.1,206.2 681.6,292.0 698.2,223.6 714.7,294.7 731.2,296.4 747.8,260.6 764.3,292.8 780.8,290.2 797.3,290.1 813.9,286.4 830.4,287.0 846.9,292.4 863.5,292.8 880.0,290.6" fill="none" stroke="#d62728" stroke-width="2"/>
<circle cx="70.0" cy="217.7" r="3" fill="#d62728"/>
<circle cx="86.5" cy="227.9" r="3" fill="#d62728"/>
<circle cx="119.6" cy="203.6" r="3" fill="#d62728"/>
<circle cx="136.1" cy="277.5" r="3" fill="#d62728"/>
<circle cx="152.7" cy="167.6" r="3" fill="#d62728"/>
<circle cx="169.2" cy="238.1" r="3" fill="#d62728"/>
<circle cx="185.7" cy="172.1" r="3" fill="#d62728"/>
<circle cx="202.2" cy="214.4" r="3" fill="#d62728"/>
<circle cx="218.8" cy="167.1" r="3" fill="#d62728"/>
<circle cx="235.3" cy="251.0" r="3" fill="#d62728"/>
<circle cx="251.8" cy="170.5" r="3" fill="#d62728"/>
<circle cx="268.4" cy="265.2" r="3" fill="#d62728"/>
<circle cx="284.9" cy="240.0" r="3" fill="#d62728"/>
<circle cx="301.4" cy="194.2" r="3" fill="#d62728"/>
<circle cx="318.0" cy="237.5" r="3" fill="#d62728"/>
<circle cx="334.5" cy="232.3" r="3" fill="#d62728"/>
<circle cx="351.0" cy="238.8" r="3" fill="#d62728"/>
<circle cx="367.6" cy="246.5" r="3" fill="#d62728"/>
<circle cx="384.1" cy="234.7" r="3" fill="#d62728"/>
<circle cx="400.6" cy="174.8" r="3" fill="#d62728"/>
<circle cx="417.1" cy="240.9" r="3" fill="#d62728"/>
<circle cx="433.7" cy="214.4" r="3" fill="#d62728"/>
<circle cx="450.2" cy="64.7" r="3" fill="#d62728"/>
<circle cx="466.7" cy="245.0" r="3" fill="#d62728"/>
<circle cx="483.3" cy="220.8" r="3" fill="#d62728"/>
<circle cx="499.8" cy="276.4" r="3" fill="#d62728"/>
<circle cx="516.3" cy="269.9" r="3" fill="#d62728"/>
<circle cx="532.9" cy="274.6" r="3" fill="#d62728"/>
<circle cx="549.4" cy="281.8" r="3" fill="#d62728"/>
<circle cx="565.9" cy="316.3" r="3" fill="#d62728"/>
<circle cx="582.4" cy="285.1" r="3" fill="#d62728"/>
<circle cx="599.0" cy="292.2" r="3" fill="#d62728"/>
<circle cx="615.5" cy="283.0" r="3" fill="#d62728"/>
<circle cx="632.0" cy="300.1" r="3" fill="#d62728"/>
<circle cx="648.6" cy="293.0" r="3" fill="#d62728"/>
<circle cx="665.1" cy="206.2" r="3" fill="#d62728"/>
<circle cx="681.6" cy="292.0" r="3" fill="#d62728"/>
<circle cx="698.2" cy="223.6" r="3" fill="#d62728"/>
<circle cx="714.7" cy="294.7" r="3" fill="#d62728"/>
<circle cx="731.2" cy="296.4" r="3" fill="#d62728"/>
<circle cx="747.8" cy="260.6" r="3" fill="#d62728"/>
<circle cx="764.3" cy="292.8" r="3" fill="#d62728"/>
<circle cx="780.8" cy="290.2" r="3" fill="#d62728"/>
<circle cx="797.3" cy="290.1" r="3" fill="#d62728"/>
<circle cx="813.9" cy="286.4" r="3" fill="#d62728"/>
<circle cx="830.4" cy="287.0" r="3" fill="#d62728"/>
<circle cx="846.9" cy="292.4" r="3" fill="#d62728"/>
<circle cx="863.5" cy="292.8" r="3" fill="#d62728"/>
<circle cx="880.0" cy="290.6" r="3" fill="#d62728"/>
<rect x="70.0" y="358" width="10" height="10" fill="#d62728"/>
<text x="84.0" y="367" font-size="11" fill="#333">first audio (e2e)</text>
<polyline points="218.8,215.3 284.9,199.1 301.4,224.4 318.0,176.9 334.5,267.6 351.0,239.5 367.6,283.5 384.1,244.5 400.6,260.4 417.1,246.2 433.7,245.6 450.2,201.1 466.7,299.9 483.3,252.0 499.8,317.9 516.3,317.8 532.9,317.5 549.4,318.0 599.0,318.3 615.5,317.4 632.0,317.8 648.6,318.6 665.1,317.8 681.6,318.2 698.2,317.3 714.7,317.7 731.2,319.0 747.8,318.6 764.3,317.0 780.8,317.8 797.3,318.5 813.9,317.4 830.4,317.7 846.9,317.1 863.5,300.8 880.0,295.2" fill="none" stroke="#1f77b4" stroke-width="2"/>
<circle cx="218.8" cy="215.3" r="3" fill="#1f77b4"/>
<circle cx="284.9" cy="199.1" r="3" fill="#1f77b4"/>
<circle cx="301.4" cy="224.4" r="3" fill="#1f77b4"/>
<circle cx="318.0" cy="176.9" r="3" fill="#1f77b4"/>
<circle cx="334.5" cy="267.6" r="3" fill="#1f77b4"/>
<circle cx="351.0" cy="239.5" r="3" fill="#1f77b4"/>
<circle cx="367.6" cy="283.5" r="3" fill="#1f77b4"/>
<circle cx="384.1" cy="244.5" r="3" fill="#1f77b4"/>
<circle cx="400.6" cy="260.4" r="3" fill="#1f77b4"/>
<circle cx="417.1" cy="246.2" r="3" fill="#1f77b4"/>
<circle cx="433.7" cy="245.6" r="3" fill="#1f77b4"/>
<circle cx="450.2" cy="201.1" r="3" fill="#1f77b4"/>
<circle cx="466.7" cy="299.9" r="3" fill="#1f77b4"/>
<circle cx="483.3" cy="252.0" r="3" fill="#1f77b4"/>
<circle cx="499.8" cy="317.9" r="3" fill="#1f77b4"/>
<circle cx="516.3" cy="317.8" r="3" fill="#1f77b4"/>
<circle cx="532.9" cy="317.5" r="3" fill="#1f77b4"/>
<circle cx="549.4" cy="318.0" r="3" fill="#1f77b4"/>
<circle cx="599.0" cy="318.3" r="3" fill="#1f77b4"/>
<circle cx="615.5" cy="317.4" r="3" fill="#1f77b4"/>
<circle cx="632.0" cy="317.8" r="3" fill="#1f77b4"/>
<circle cx="648.6" cy="318.6" r="3" fill="#1f77b4"/>
<circle cx="665.1" cy="317.8" r="3" fill="#1f77b4"/>
<circle cx="681.6" cy="318.2" r="3" fill="#1f77b4"/>
<circle cx="698.2" cy="317.3" r="3" fill="#1f77b4"/>
<circle cx="714.7" cy="317.7" r="3" fill="#1f77b4"/>
<circle cx="731.2" cy="319.0" r="3" fill="#1f77b4"/>
<circle cx="747.8" cy="318.6" r="3" fill="#1f77b4"/>
<circle cx="764.3" cy="317.0" r="3" fill="#1f77b4"/>
<circle cx="780.8" cy="317.8" r="3" fill="#1f77b4"/>
<circle cx="797.3" cy="318.5" r="3" fill="#1f77b4"/>
<circle cx="813.9" cy="317.4" r="3" fill="#1f77b4"/>
<circle cx="830.4" cy="317.7" r="3" fill="#1f77b4"/>
<circle cx="846.9" cy="317.1" r="3" fill="#1f77b4"/>
<circle cx="863.5" cy="300.8" r="3" fill="#1f77b4"/>
<circle cx="880.0" cy="295.2" r="3" fill="#1f77b4"/>
<rect x="205.0" y="358" width="10" height="10" fill="#1f77b4"/>
<text x="219.0" y="367" font-size="11" fill="#333">tts first chunk</text>
<polyline points="218.8,298.0 284.9,298.0 301.4,307.7 351.0,287.9 367.6,307.5 384.1,307.7 417.1,300.5 433.7,298.4 466.7,304.7 483.3,305.1 499.8,306.6 516.3,304.3 532.9,291.3 599.0,304.1 665.1,262.6 714.7,311.0 731.2,312.2 747.8,308.2 797.3,308.0 863.5,313.3 880.0,311.0" fill="none" stroke="#ff7f0e" stroke-width="2"/>
<circle cx="218.8" cy="298.0" r="3" fill="#ff7f0e"/>
<circle cx="284.9" cy="298.0" r="3" fill="#ff7f0e"/>
<circle cx="301.4" cy="307.7" r="3" fill="#ff7f0e"/>
<circle cx="351.0" cy="287.9" r="3" fill="#ff7f0e"/>
<circle cx="367.6" cy="307.5" r="3" fill="#ff7f0e"/>
<circle cx="384.1" cy="307.7" r="3" fill="#ff7f0e"/>
<circle cx="417.1" cy="300.5" r="3" fill="#ff7f0e"/>
<circle cx="433.7" cy="298.4" r="3" fill="#ff7f0e"/>
<circle cx="466.7" cy="304.7" r="3" fill="#ff7f0e"/>
<circle cx="483.3" cy="305.1" r="3" fill="#ff7f0e"/>
<circle cx="499.8" cy="306.6" r="3" fill="#ff7f0e"/>
<circle cx="516.3" cy="304.3" r="3" fill="#ff7f0e"/>
<circle cx="532.9" cy="291.3" r="3" fill="#ff7f0e"/>
<circle cx="599.0" cy="304.1" r="3" fill="#ff7f0e"/>
<circle cx="665.1" cy="262.6" r="3" fill="#ff7f0e"/>
<circle cx="714.7" cy="311.0" r="3" fill="#ff7f0e"/>
<circle cx="731.2" cy="312.2" r="3" fill="#ff7f0e"/>
<circle cx="747.8" cy="308.2" r="3" fill="#ff7f0e"/>
<circle cx="797.3" cy="308.0" r="3" fill="#ff7f0e"/>
<circle cx="863.5" cy="313.3" r="3" fill="#ff7f0e"/>
<circle cx="880.0" cy="311.0" r="3" fill="#ff7f0e"/>
<rect x="340.0" y="358" width="10" height="10" fill="#ff7f0e"/>
<text x="354.0" y="367" font-size="11" fill="#333">llm ttft</text>
<polyline points="70.0,297.1 86.5,301.1 119.6,298.1 136.1,298.0 152.7,303.1 185.7,274.4 202.2,281.5 218.8,241.9 284.9,243.2 301.4,286.5 318.0,268.6 334.5,306.2 351.0,280.2 367.6,306.0 384.1,297.3 400.6,269.3 417.1,299.0 433.7,267.5 450.2,275.1 466.7,303.3 483.3,253.3 499.8,280.5 516.3,282.8 532.9,272.0 549.4,296.7 599.0,299.6 615.5,301.6 632.0,312.5 648.6,300.5 665.1,169.3 681.6,296.2 698.2,240.3 714.7,307.0 731.2,310.0 747.8,275.8 764.3,305.7 780.8,304.6 797.3,303.7 813.9,297.4 830.4,297.4 846.9,306.8 863.5,306.3 880.0,305.5" fill="none" stroke="#2ca02c" stroke-width="2"/>
<circle cx="70.0" cy="297.1" r="3" fill="#2ca02c"/>
<circle cx="86.5" cy="301.1" r="3" fill="#2ca02c"/>
<circle cx="119.6" cy="298.1" r="3" fill="#2ca02c"/>
<circle cx="136.1" cy="298.0" r="3" fill="#2ca02c"/>
<circle cx="152.7" cy="303.1" r="3" fill="#2ca02c"/>
<circle cx="185.7" cy="274.4" r="3" fill="#2ca02c"/>
<circle cx="202.2" cy="281.5" r="3" fill="#2ca02c"/>
<circle cx="218.8" cy="241.9" r="3" fill="#2ca02c"/>
<circle cx="284.9" cy="243.2" r="3" fill="#2ca02c"/>
<circle cx="301.4" cy="286.5" r="3" fill="#2ca02c"/>
<circle cx="318.0" cy="268.6" r="3" fill="#2ca02c"/>
<circle cx="334.5" cy="306.2" r="3" fill="#2ca02c"/>
<circle cx="351.0" cy="280.2" r="3" fill="#2ca02c"/>
<circle cx="367.6" cy="306.0" r="3" fill="#2ca02c"/>
<circle cx="384.1" cy="297.3" r="3" fill="#2ca02c"/>
<circle cx="400.6" cy="269.3" r="3" fill="#2ca02c"/>
<circle cx="417.1" cy="299.0" r="3" fill="#2ca02c"/>
<circle cx="433.7" cy="267.5" r="3" fill="#2ca02c"/>
<circle cx="450.2" cy="275.1" r="3" fill="#2ca02c"/>
<circle cx="466.7" cy="303.3" r="3" fill="#2ca02c"/>
<circle cx="483.3" cy="253.3" r="3" fill="#2ca02c"/>
<circle cx="499.8" cy="280.5" r="3" fill="#2ca02c"/>
<circle cx="516.3" cy="282.8" r="3" fill="#2ca02c"/>
<circle cx="532.9" cy="272.0" r="3" fill="#2ca02c"/>
<circle cx="549.4" cy="296.7" r="3" fill="#2ca02c"/>
<circle cx="599.0" cy="299.6" r="3" fill="#2ca02c"/>
<circle cx="615.5" cy="301.6" r="3" fill="#2ca02c"/>
<circle cx="632.0" cy="312.5" r="3" fill="#2ca02c"/>
<circle cx="648.6" cy="300.5" r="3" fill="#2ca02c"/>
<circle cx="665.1" cy="169.3" r="3" fill="#2ca02c"/>
<circle cx="681.6" cy="296.2" r="3" fill="#2ca02c"/>
<circle cx="698.2" cy="240.3" r="3" fill="#2ca02c"/>
<circle cx="714.7" cy="307.0" r="3" fill="#2ca02c"/>
<circle cx="731.2" cy="310.0" r="3" fill="#2ca02c"/>
<circle cx="747.8" cy="275.8" r="3" fill="#2ca02c"/>
<circle cx="764.3" cy="305.7" r="3" fill="#2ca02c"/>
<circle cx="780.8" cy="304.6" r="3" fill="#2ca02c"/>
<circle cx="797.3" cy="303.7" r="3" fill="#2ca02c"/>
<circle cx="813.9" cy="297.4" r="3" fill="#2ca02c"/>
<circle cx="830.4" cy="297.4" r="3" fill="#2ca02c"/>
<circle cx="846.9" cy="306.8" r="3" fill="#2ca02c"/>
<circle cx="863.5" cy="306.3" r="3" fill="#2ca02c"/>
<circle cx="880.0" cy="305.5" r="3" fill="#2ca02c"/>
<rect x="475.0" y="358" width="10" height="10" fill="#2ca02c"/>
<text x="489.0" y="367" font-size="11" fill="#333">llm first sentence</text>
<polyline points="70.0,311.1 86.5,313.5 103.1,311.5 119.6,312.5 136.1,305.2 152.7,313.0 185.7,306.1 202.2,304.1 218.8,308.6 284.9,305.6 301.4,310.6 318.0,306.4 334.5,314.9 351.0,315.0 367.6,315.6 384.1,307.9 400.6,313.9 417.1,315.7 433.7,312.8 450.2,306.0 466.7,316.6 483.3,306.0 499.8,313.9 516.3,315.3 532.9,310.5 549.4,316.9 599.0,316.3 615.5,314.8 632.0,314.8 648.6,315.1 665.1,315.2 681.6,314.1 698.2,311.9 714.7,316.5 731.2,316.1 747.8,316.0 764.3,312.9 780.8,314.0 797.3,316.3 813.9,313.4 830.4,316.9 846.9,312.3 863.5,296.2 880.0,290.3" fill="none" stroke="#9467bd" stroke-width="2"/>
<circle cx="70.0" cy="311.1" r="3" fill="#9467bd"/>
<circle cx="86.5" cy="313.5" r="3" fill="#9467bd"/>
<circle cx="103.1" cy="311.5" r="3" fill="#9467bd"/>
<circle cx="119.6" cy="312.5" r="3" fill="#9467bd"/>
<circle cx="136.1" cy="305.2" r="3" fill="#9467bd"/>
<circle cx="152.7" cy="313.0" r="3" fill="#9467bd"/>
<circle cx="185.7" cy="306.1" r="3" fill="#9467bd"/>
<circle cx="202.2" cy="304.1" r="3" fill="#9467bd"/>
<circle cx="218.8" cy="308.6" r="3" fill="#9467bd"/>
<circle cx="284.9" cy="305.6" r="3" fill="#9467bd"/>
<circle cx="301.4" cy="310.6" r="3" fill="#9467bd"/>
<circle cx="318.0" cy="306.4" r="3" fill="#9467bd"/>
<circle cx="334.5" cy="314.9" r="3" fill="#9467bd"/>
<circle cx="351.0" cy="315.0" r="3" fill="#9467bd"/>
<circle cx="367.6" cy="315.6" r="3" fill="#9467bd"/>
<circle cx="384.1" cy="307.9" r="3" fill="#9467bd"/>
<circle cx="400.6" cy="313.9" r="3" fill="#9467bd"/>
<circle cx="417.1" cy="315.7" r="3" fill="#9467bd"/>
<circle cx="433.7" cy="312.8" r="3" fill="#9467bd"/>
<circle cx="450.2" cy="306.0" r="3" fill="#9467bd"/>
<circle cx="466.7" cy="316.6" r="3" fill="#9467bd"/>
<circle cx="483.3" cy="306.0" r="3" fill="#9467bd"/>
<circle cx="499.8" cy="313.9" r="3" fill="#9467bd"/>
<circle cx="516.3" cy="315.3" r="3" fill="#9467bd"/>
<circle cx="532.9" cy="310.5" r="3" fill="#9467bd"/>
<circle cx="549.4" cy="316.9" r="3" fill="#9467bd"/>
<circle cx="599.0" cy="316.3" r="3" fill="#9467bd"/>
<circle cx="615.5" cy="314.8" r="3" fill="#9467bd"/>
<circle cx="632.0" cy="314.8" r="3" fill="#9467bd"/>
<circle cx="648.6" cy="315.1" r="3" fill="#9467bd"/>
<circle cx="665.1" cy="315.2" r="3" fill="#9467bd"/>
<circle cx="681.6" cy="314.1" r="3" fill="#9467bd"/>
<circle cx="698.2" cy="311.9" r="3" fill="#9467bd"/>
<circle cx="714.7" cy="316.5" r="3" fill="#9467bd"/>
<circle cx="731.2" cy="316.1" r="3" fill="#9467bd"/>
<circle cx="747.8" cy="316.0" r="3" fill="#9467bd"/>
<circle cx="764.3" cy="312.9" r="3" fill="#9467bd"/>
<circle cx="780.8" cy="314.0" r="3" fill="#9467bd"/>
<circle cx="797.3" cy="316.3" r="3" fill="#9467bd"/>
<circle cx="813.9" cy="313.4" r="3" fill="#9467bd"/>
<circle cx="830.4" cy="316.9" r="3" fill="#9467bd"/>
<circle cx="846.9" cy="312.3" r="3" fill="#9467bd"/>
<circle cx="863.5" cy="296.2" r="3" fill="#9467bd"/>
<circle cx="880.0" cy="290.3" r="3" fill="#9467bd"/>
<rect x="610.0" y="358" width="10" height="10" fill="#9467bd"/>
<text x="624.0" y="367" font-size="11" fill="#333">lipsync first mouth</text>
<polyline points="218.8,318.5 284.9,314.7 301.4,318.1 318.0,318.0 334.5,318.8 351.0,312.5 367.6,318.8 384.1,314.5 400.6,318.9 417.1,318.7 433.7,311.9 450.2,318.2 466.7,318.5 483.3,311.1 499.8,317.5 516.3,317.9 532.9,316.7 549.4,318.9 599.0,318.7 615.5,318.6 632.0,318.2 648.6,318.2 665.1,318.6 681.6,317.8 698.2,318.8 714.7,318.3 731.2,318.3 747.8,319.3 764.3,315.9 780.8,318.6 797.3,319.7 813.9,317.7 830.4,319.3 846.9,319.1 863.5,320.4 880.0,320.3" fill="none" stroke="#8c564b" stroke-width="2"/>
<circle cx="218.8" cy="318.5" r="3" fill="#8c564b"/>
<circle cx="284.9" cy="314.7" r="3" fill="#8c564b"/>
<circle cx="301.4" cy="318.1" r="3" fill="#8c564b"/>
<circle cx="318.0" cy="318.0" r="3" fill="#8c564b"/>
<circle cx="334.5" cy="318.8" r="3" fill="#8c564b"/>
<circle cx="351.0" cy="312.5" r="3" fill="#8c564b"/>
<circle cx="367.6" cy="318.8" r="3" fill="#8c564b"/>
<circle cx="384.1" cy="314.5" r="3" fill="#8c564b"/>
<circle cx="400.6" cy="318.9" r="3" fill="#8c564b"/>
<circle cx="417.1" cy="318.7" r="3" fill="#8c564b"/>
<circle cx="433.7" cy="311.9" r="3" fill="#8c564b"/>
<circle cx="450.2" cy="318.2" r="3" fill="#8c564b"/>
<circle cx="466.7" cy="318.5" r="3" fill="#8c564b"/>
<circle cx="483.3" cy="311.1" r="3" fill="#8c564b"/>
<circle cx="499.8" cy="317.5" r="3" fill="#8c564b"/>
<circle cx="516.3" cy="317.9" r="3" fill="#8c564b"/>
<circle cx="532.9" cy="316.7" r="3" fill="#8c564b"/>
<circle cx="549.4" cy="318.9" r="3" fill="#8c564b"/>
<circle cx="599.0" cy="318.7" r="3" fill="#8c564b"/>
<circle cx="615.5" cy="318.6" r="3" fill="#8c564b"/>
<circle cx="632.0" cy="318.2" r="3" fill="#8c564b"/>
<circle cx="648.6" cy="318.2" r="3" fill="#8c564b"/>
<circle cx="665.1" cy="318.6" r="3" fill="#8c564b"/>
<circle cx="681.6" cy="317.8" r="3" fill="#8c564b"/>
<circle cx="698.2" cy="318.8" r="3" fill="#8c564b"/>
<circle cx="714.7" cy="318.3" r="3" fill="#8c564b"/>
<circle cx="731.2" cy="318.3" r="3" fill="#8c564b"/>
<circle cx="747.8" cy="319.3" r="3" fill="#8c564b"/>
<circle cx="764.3" cy="315.9" r="3" fill="#8c564b"/>
<circle cx="780.8" cy="318.6" r="3" fill="#8c564b"/>
<circle cx="797.3" cy="319.7" r="3" fill="#8c564b"/>
<circle cx="813.9" cy="317.7" r="3" fill="#8c564b"/>
<circle cx="830.4" cy="319.3" r="3" fill="#8c564b"/>
<circle cx="846.9" cy="319.1" r="3" fill="#8c564b"/>
<circle cx="863.5" cy="320.4" r="3" fill="#8c564b"/>
<circle cx="880.0" cy="320.3" r="3" fill="#8c564b"/>
<rect x="745.0" y="358" width="10" height="10" fill="#8c564b"/>
<text x="759.0" y="367" font-size="11" fill="#333">render tick p95</text>
</svg>
