<svg xmlns="http://www.w3.org/2000/svg" width="900" height="380" viewBox="0 0 900 380" font-family="sans-serif">
<rect width="900" height="380" fill="white"/>
<text x="70" y="24" font-size="16" fill="#333">Latency (ms, p50 unless noted) — lower is better</text>
<line x1="70" y1="324.0" x2="880" y2="324.0" stroke="#e5e5e5"/>
<text x="64" y="328.0" font-size="11" fill="#666" text-anchor="end">0ms</text>
<line x1="70" y1="268.0" x2="880" y2="268.0" stroke="#e5e5e5"/>
<text x="64" y="272.0" font-size="11" fill="#666" text-anchor="end">1481ms</text>
<line x1="70" y1="212.0" x2="880" y2="212.0" stroke="#e5e5e5"/>
<text x="64" y="216.0" font-size="11" fill="#666" text-anchor="end">2963ms</text>
<line x1="70" y1="156.0" x2="880" y2="156.0" stroke="#e5e5e5"/>
<text x="64" y="160.0" font-size="11" fill="#666" text-anchor="end">4444ms</text>
<line x1="70" y1="100.0" x2="880" y2="100.0" stroke="#e5e5e5"/>
<text x="64" y="104.0" font-size="11" fill="#666" text-anchor="end">5925ms</text>
<line x1="70" y1="44.0" x2="880" y2="44.0" stroke="#e5e5e5"/>
<text x="64" y="48.0" font-size="11" fill="#666" text-anchor="end">7407ms</text>
<text x="70.0" y="342" font-size="11" fill="#666" text-anchor="start">07-16 16:02</text>
<text x="485.4" y="342" font-size="11" fill="#666" text-anchor="middle">07-17 15:13</text>
<text x="880.0" y="342" font-size="11" fill="#666" text-anchor="end">07-17 20:27</text>
<polyline points="70.0,217.7 90.8,227.9 132.3,203.6 153.1,277.5 173.8,167.6 194.6,238.1 215.4,172.1 236.2,214.4 256.9,167.1 277.7,251.0 298.5,170.5 319.2,265.2 340.0,240.0 360.8,194.2 381.5,237.5 402.3,232.3 423.1,238.8 443.8,246.5 464.6,234.7 485.4,174.8 506.2,240.9 526.9,214.4 547.7,64.7 568.5,245.0 589.2,220.8 610.0,276.4 630.8,269.9 651.5,274.6 672.3,281.8 693.1,316.3 713.8,285.1 734.6,292.2 755.4,283.0 776.2,300.1 796.9,293.0 817.7,206.2 838.5,292.0 859.2,223.6 880.0,294.7" fill="none" stroke="#d62728" stroke-width="2"/>
<circle cx="70.0" cy="217.7" r="3" fill="#d62728"/>
<circle cx="90.8" cy="227.9" r="3" fill="#d62728"/>
<circle cx="132.3" cy="203.6" r="3" fill="#d62728"/>
<circle cx="153.1" cy="277.5" r="3" fill="#d62728"/>
<circle cx="173.8" cy="167.6" r="3" fill="#d62728"/>
<circle cx="194.6" cy="238.1" r="3" fill="#d62728"/>
<circle cx="215.4" cy="172.1" r="3" fill="#d62728"/>
<circle cx="236.2" cy="214.4" r="3" fill="#d62728"/>
<circle cx="256.9" cy="167.1" r="3" fill="#d62728"/>
<circle cx="277.7" cy="251.0" r="3" fill="#d62728"/>
<circle cx="298.5" cy="170.5" r="3" fill="#d62728"/>
<circle cx="319.2" cy="265.2" r="3" fill="#d62728"/>
<circle cx="340.0" cy="240.0" r="3" fill="#d62728"/>
<circle cx="360.8" cy="194.2" r="3" fill="#d62728"/>
<circle cx="381.5" cy="237.5" r="3" fill="#d62728"/>
<circle cx="402.3" cy="232.3" r="3" fill="#d62728"/>
<circle cx="423.1" cy="238.8" r="3" fill="#d62728"/>
<circle cx="443.8" cy="246.5" r="3" fill="#d62728"/>
<circle cx="464.6" cy="234.7" r="3" fill="#d62728"/>
<circle cx="485.4" cy="174.8" r="3" fill="#d62728"/>
<circle cx="506.2" cy="240.9" r="3" fill="#d62728"/>
<circle cx="526.9" cy="214.4" r="3" fill="#d62728"/>
<circle cx="547.7" cy="64.7" r="3" fill="#d62728"/>
<circle cx="568.5" cy="245.0" r="3" fill="#d62728"/>
<circle cx="589.2" cy="220.8" r="3" fill="#d62728"/>
<circle cx="610.0" cy="276.4" r="3" fill="#d62728"/>
<circle cx="630.8" cy="269.9" r="3" fill="#d62728"/>
<circle cx="651.5" cy="274.6" r="3" fill="#d62728"/>
<circle cx="672.3" cy="281.8" r="3" fill="#d62728"/>
<circle cx="693.1" cy="316.3" r="3" fill="#d62728"/>
<circle cx="713.8" cy="285.1" r="3" fill="#d62728"/>
<circle cx="734.6" cy="292.2" r="3" fill="#d62728"/>
<circle cx="755.4" cy="283.0" r="3" fill="#d62728"/>
<circle cx="776.2" cy="300.1" r="3" fill="#d62728"/>
<circle cx="796.9" cy="293.0" r="3" fill="#d62728"/>
<circle cx="817.7" cy="206.2" r="3" fill="#d62728"/>
<circle cx="838.5" cy="292.0" r="3" fill="#d62728"/>
<circle cx="859.2" cy="223.6" r="3" fill="#d62728"/>
<circle cx="880.0" cy="294.7" r="3" fill="#d62728"/>
<rect x="70.0" y="358" width="10" height="10" fill="#d62728"/>
<text x="84.0" y="367" font-size="11" fill="#333">first audio (e2e)</text>
<polyline points="256.9,215.3 340.0,199.1 360.8,224.4 381.5,176.9 402.3,267.6 423.1,239.5 443.8,283.5 464.6,244.5 485.4,260.4 506.2,246.2 526.9,245.6 547.7,201.1 568.5,299.9 589.2,252.0 610.0,317.9 630.8,317.8 651.5,317.5 672.3,318.0 734.6,318.3 755.4,317.4 776.2,317.8 796.9,318.6 817.7,317.8 838.5,318.2 859.2,317.3 880.0,317.7" fill="none" stroke="#1f77b4" stroke-width="2"/>
<circle cx="256.9" cy="215.3" r="3" fill="#1f77b4"/>
<circle cx="340.0" cy="199.1" r="3" fill="#1f77b4"/>
<circle cx="360.8" cy="224.4" r="3" fill="#1f77b4"/>
<circle cx="381.5" cy="176.9" r="3" fill="#1f77b4"/>
<circle cx="402.3" cy="267.6" r="3" fill="#1f77b4"/>
<circle cx="423.1" cy="239.5" r="3" fill="#1f77b4"/>
<circle cx="443.8" cy="283.5" r="3" fill="#1f77b4"/>
<circle cx="464.6" cy="244.5" r="3" fill="#1f77b4"/>
<circle cx="485.4" cy="260.4" r="3" fill="#1f77b4"/>
<circle cx="506.2" cy="246.2" r="3" fill="#1f77b4"/>
<circle cx="526.9" cy="245.6" r="3" fill="#1f77b4"/>
<circle cx="547.7" cy="201.1" r="3" fill="#1f77b4"/>
<circle cx="568.5" cy="299.9" r="3" fill="#1f77b4"/>
<circle cx="589.2" cy="252.0" r="3" fill="#1f77b4"/>
<circle cx="610.0" cy="317.9" r="3" fill="#1f77b4"/>
<circle cx="630.8" cy="317.8" r="3" fill="#1f77b4"/>
<circle cx="651.5" cy="317.5" r="3" fill="#1f77b4"/>
<circle cx="672.3" cy="318.0" r="3" fill="#1f77b4"/>
<circle cx="734.6" cy="318.3" r="3" fill="#1f77b4"/>
<circle cx="755.4" cy="317.4" r="3" fill="#1f77b4"/>
<circle cx="776.2" cy="317.8" r="3" fill="#1f77b4"/>
<circle cx="796.9" cy="318.6" r="3" fill="#1f77b4"/>
<circle cx="817.7" cy="317.8" r="3" fill="#1f77b4"/>
<circle cx="838.5" cy="318.2" r="3" fill="#1f77b4"/>
<circle cx="859.2" cy="317.3" r="3" fill="#1f77b4"/>
<circle cx="880.0" cy="317.7" r="3" fill="#1f77b4"/>
<rect x="205.0" y="358" width="10" height="10" fill="#1f77b4"/>
<text x="219.0" y="367" font-size="11" fill="#333">tts first chunk</text>
<polyline points="256.9,298.0 340.0,298.0 360.8,307.7 423.1,287.9 443.8,307.5 464.6,307.7 506.2,300.5 526.9,298.4 568.5,304.7 589.2,305.1 610.0,306.6 630.8,304.3 651.5,291.3 734.6,304.1 817.7,262.6 880.0,311.0" fill="none" stroke="#ff7f0e" stroke-width="2"/>
<circle cx="256.9" cy="298.0" r="3" fill="#ff7f0e"/>
<circle cx="340.0" cy="298.0" r="3" fill="#ff7f0e"/>
<circle cx="360.8" cy="307.7" r="3" fill="#ff7f0e"/>
<circle cx="423.1" cy="287.9" r="3" fill="#ff7f0e"/>
<circle cx="443.8" cy="307.5" r="3" fill="#ff7f0e"/>
<circle cx="464.6" cy="307.7" r="3" fill="#ff7f0e"/>
<circle cx="506.2" cy="300.5" r="3" fill="#ff7f0e"/>
<circle cx="526.9" cy="298.4" r="3" fill="#ff7f0e"/>
<circle cx="568.5" cy="304.7" r="3" fill="#ff7f0e"/>
<circle cx="589.2" cy="305.1" r="3" fill="#ff7f0e"/>
<circle cx="610.0" cy="306.6" r="3" fill="#ff7f0e"/>
<circle cx="630.8" cy="304.3" r="3" fill="#ff7f0e"/>
<circle cx="651.5" cy="291.3" r="3" fill="#ff7f0e"/>
<circle cx="734.6" cy="304.1" r="3" fill="#ff7f0e"/>
<circle cx="817.7" cy="262.6" r="3" fill="#ff7f0e"/>
<circle cx="880.0" cy="311.0" r="3" fill="#ff7f0e"/>
<rect x="340.0" y="358" width="10" height="10" fill="#ff7f0e"/>
<text x="354.0" y="367" font-size="11" fill="#333">llm ttft</text>
<polyline points="70.0,297.1 90.8,301.1 132.3,298.1 153.1,298.0 173.8,303.1 215.4,274.4 236.2,281.5 256.9,241.9 340.0,243.2 360.8,286.5 381.5,268.6 402.3,306.2 423.1,280.2 443.8,306.0 464.6,297.3 485.4,269.3 506.2,299.0 526.9,267.5 547.7,275.1 568.5,303.3 589.2,253.3 610.0,280.5 630.8,282.8 651.5,272.0 672.3,296.7 734.6,299.6 755.4,301.6 776.2,312.5 796.9,300.5 817.7,169.3 838.5,296.2 859.2,240.3 880.0,307.0" fill="none" stroke="#2ca02c" stroke-width="2"/>
<circle cx="70.0" cy="297.1" r="3" fill="#2ca02c"/>
<circle cx="90.8" cy="301.1" r="3" fill="#2ca02c"/>
<circle cx="132.3" cy="298.1" r="3" fill="#2ca02c"/>
<circle cx="153.1" cy="298.0" r="3" fill="#2ca02c"/>
<circle cx="173.8" cy="303.1" r="3" fill="#2ca02c"/>
<circle cx="215.4" cy="274.4" r="3" fill="#2ca02c"/>
<circle cx="236.2" cy="281.5" r="3" fill="#2ca02c"/>
<circle cx="256.9" cy="241.9" r="3" fill="#2ca02c"/>
<circle cx="340.0" cy="243.2" r="3" fill="#2ca02c"/>
<circle cx="360.8" cy="286.5" r="3" fill="#2ca02c"/>
<circle cx="381.5" cy="268.6" r="3" fill="#2ca02c"/>
<circle cx="402.3" cy="306.2" r="3" fill="#2ca02c"/>
<circle cx="423.1" cy="280.2" r="3" fill="#2ca02c"/>
<circle cx="443.8" cy="306.0" r="3" fill="#2ca02c"/>
<circle cx="464.6" cy="297.3" r="3" fill="#2ca02c"/>
<circle cx="485.4" cy="269.3" r="3" fill="#2ca02c"/>
<circle cx="506.2" cy="299.0" r="3" fill="#2ca02c"/>
<circle cx="526.9" cy="267.5" r="3" fill="#2ca02c"/>
<circle cx="547.7" cy="275.1" r="3" fill="#2ca02c"/>
<circle cx="568.5" cy="303.3" r="3" fill="#2ca02c"/>
<circle cx="589.2" cy="253.3" r="3" fill="#2ca02c"/>
<circle cx="610.0" cy="280.5" r="3" fill="#2ca02c"/>
<circle cx="630.8" cy="282.8" r="3" fill="#2ca02c"/>
<circle cx="651.5" cy="272.0" r="3" fill="#2ca02c"/>
<circle cx="672.3" cy="296.7" r="3" fill="#2ca02c"/>
<circle cx="734.6" cy="299.6" r="3" fill="#2ca02c"/>
<circle cx="755.4" cy="301.6" r="3" fill="#2ca02c"/>
<circle cx="776.2" cy="312.5" r="3" fill="#2ca02c"/>
<circle cx="796.9" cy="300.5" r="3" fill="#2ca02c"/>
<circle cx="817.7" cy="169.3" r="3" fill="#2ca02c"/>
<circle cx="838.5" cy="296.2" r="3" fill="#2ca02c"/>
<circle cx="859.2" cy="240.3" r="3" fill="#2ca02c"/>
<circle cx="880.0" cy="307.0" r="3" fill="#2ca02c"/>
<rect x="475.0" y="358" width="10" height="10" fill="#2ca02c"/>
<text x="489.0" y="367" font-size="11" fill="#333">llm first sentence</text>
<polyline points="70.0,311.1 90.8,313.5 111.5,311.5 132.3,312.5 153.1,305.2 173.8,313.0 215.4,306.1 236.2,304.1 256.9,308.6 340.0,305.6 360.8,310.6 381.5,306.4 402.3,314.9 423.1,315.0 443.8,315.6 464.6,307.9 485.4,313.9 506.2,315.7 526.9,312.8 547.7,306.0 568.5,316.6 589.2,306.0 610.0,313.9 630.8,315.3 651.5,310.5 672.3,316.9 734.6,316.3 755.4,314.8 776.2,314.8 796.9,315.1 817.7,315.2 838.5,314.1 859.2,311.9 880.0,316.5" fill="none" stroke="#9467bd" stroke-width="2"/>
<circle cx="70.0" cy="311.1" r="3" fill="#9467bd"/>
<circle cx="90.8" cy="313.5" r="3" fill="#9467bd"/>
<circle cx="111.5" cy="311.5" r="3" fill="#9467bd"/>
<circle cx="132.3" cy="312.5" r="3" fill="#9467bd"/>
<circle cx="153.1" cy="305.2" r="3" fill="#9467bd"/>
<circle cx="173.8" cy="313.0" r="3" fill="#9467bd"/>
<circle cx="215.4" cy="306.1" r="3" fill="#9467bd"/>
<circle cx="236.2" cy="304.1" r="3" fill="#9467bd"/>
<circle cx="256.9" cy="308.6" r="3" fill="#9467bd"/>
<circle cx="340.0" cy="305.6" r="3" fill="#9467bd"/>
<circle cx="360.8" cy="310.6" r="3" fill="#9467bd"/>
<circle cx="381.5" cy="306.4" r="3" fill="#9467bd"/>
<circle cx="402.3" cy="314.9" r="3" fill="#9467bd"/>
<circle cx="423.1" cy="315.0" r="3" fill="#9467bd"/>
<circle cx="443.8" cy="315.6" r="3" fill="#9467bd"/>
<circle cx="464.6" cy="307.9" r="3" fill="#9467bd"/>
<circle cx="485.4" cy="313.9" r="3" fill="#9467bd"/>
<circle cx="506.2" cy="315.7" r="3" fill="#9467bd"/>
<circle cx="526.9" cy="312.8" r="3" fill="#9467bd"/>
<circle cx="547.7" cy="306.0" r="3" fill="#9467bd"/>
<circle cx="568.5" cy="316.6" r="3" fill="#9467bd"/>
<circle cx="589.2" cy="306.0" r="3" fill="#9467bd"/>
<circle cx="610.0" cy="313.9" r="3" fill="#9467bd"/>
<circle cx="630.8" cy="315.3" r="3" fill="#9467bd"/>
<circle cx="651.5" cy="310.5" r="3" fill="#9467bd"/>
<circle cx="672.3" cy="316.9" r="3" fill="#9467bd"/>
<circle cx="734.6" cy="316.3" r="3" fill="#9467bd"/>
<circle cx="755.4" cy="314.8" r="3" fill="#9467bd"/>
<circle cx="776.2" cy="314.8" r="3" fill="#9467bd"/>
<circle cx="796.9" cy="315.1" r="3" fill="#9467bd"/>
<circle cx="817.7" cy="315.2" r="3" fill="#9467bd"/>
<circle cx="838.5" cy="314.1" r="3" fill="#9467bd"/>
<circle cx="859.2" cy="311.9" r="3" fill="#9467bd"/>
<circle cx="880.0" cy="316.5" r="3" fill="#9467bd"/>
<rect x="610.0" y="358" width="10" height="10" fill="#9467bd"/>
<text x="624.0" y="367" font-size="11" fill="#333">lipsync first mouth</text>
<polyline points="256.9,318.5 340.0,314.7 360.8,318.1 381.5,318.0 402.3,318.8 423.1,312.5 443.8,318.8 464.6,314.5 485.4,318.9 506.2,318.7 526.9,311.9 547.7,318.2 568.5,318.5 589.2,311.1 610.0,317.5 630.8,317.9 651.5,316.7 672.3,318.9 734.6,318.7 755.4,318.6 776.2,318.2 796.9,318.2 817.7,318.6 838.5,317.8 859.2,318.8 880.0,318.3" fill="none" stroke="#8c564b" stroke-width="2"/>
<circle cx="256.9" cy="318.5" r="3" fill="#8c564b"/>
<circle cx="340.0" cy="314.7" r="3" fill="#8c564b"/>
<circle cx="360.8" cy="318.1" r="3" fill="#8c564b"/>
<circle cx="381.5" cy="318.0" r="3" fill="#8c564b"/>
<circle cx="402.3" cy="318.8" r="3" fill="#8c564b"/>
<circle cx="423.1" cy="312.5" r="3" fill="#8c564b"/>
<circle cx="443.8" cy="318.8" r="3" fill="#8c564b"/>
<circle cx="464.6" cy="314.5" r="3" fill="#8c564b"/>
<circle cx="485.4" cy="318.9" r="3" fill="#8c564b"/>
<circle cx="506.2" cy="318.7" r="3" fill="#8c564b"/>
<circle cx="526.9" cy="311.9" r="3" fill="#8c564b"/>
<circle cx="547.7" cy="318.2" r="3" fill="#8c564b"/>
<circle cx="568.5" cy="318.5" r="3" fill="#8c564b"/>
<circle cx="589.2" cy="311.1" r="3" fill="#8c564b"/>
<circle cx="610.0" cy="317.5" r="3" fill="#8c564b"/>
<circle cx="630.8" cy="317.9" r="3" fill="#8c564b"/>
<circle cx="651.5" cy="316.7" r="3" fill="#8c564b"/>
<circle cx="672.3" cy="318.9" r="3" fill="#8c564b"/>
<circle cx="734.6" cy="318.7" r="3" fill="#8c564b"/>
<circle cx="755.4" cy="318.6" r="3" fill="#8c564b"/>
<circle cx="776.2" cy="318.2" r="3" fill="#8c564b"/>
<circle cx="796.9" cy="318.2" r="3" fill="#8c564b"/>
<circle cx="817.7" cy="318.6" r="3" fill="#8c564b"/>
<circle cx="838.5" cy="317.8" r="3" fill="#8c564b"/>
<circle cx="859.2" cy="318.8" r="3" fill="#8c564b"/>
<circle cx="880.0" cy="318.3" r="3" fill="#8c564b"/>
<rect x="745.0" y="358" width="10" height="10" fill="#8c564b"/>
<text x="759.0" y="367" font-size="11" fill="#333">render tick p95</text>
</svg>
