<svg xmlns="http://www.w3.org/2000/svg" width="900" height="380" viewBox="0 0 900 380" font-family="sans-serif">
<rect width="900" height="380" fill="white"/>
<text x="70" y="24" font-size="16" fill="#333">Latency p50 (ms) — lower is better</text>
<line x1="70" y1="324.0" x2="880" y2="324.0" stroke="#e5e5e5"/>
<text x="64" y="328.0" font-size="11" fill="#666" text-anchor="end">0ms</text>
<line x1="70" y1="268.0" x2="880" y2="268.0" stroke="#e5e5e5"/>
<text x="64" y="272.0" font-size="11" fill="#666" text-anchor="end">923ms</text>
<line x1="70" y1="212.0" x2="880" y2="212.0" stroke="#e5e5e5"/>
<text x="64" y="216.0" font-size="11" fill="#666" text-anchor="end">1847ms</text>
<line x1="70" y1="156.0" x2="880" y2="156.0" stroke="#e5e5e5"/>
<text x="64" y="160.0" font-size="11" fill="#666" text-anchor="end">2770ms</text>
<line x1="70" y1="100.0" x2="880" y2="100.0" stroke="#e5e5e5"/>
<text x="64" y="104.0" font-size="11" fill="#666" text-anchor="end">3694ms</text>
<line x1="70" y1="44.0" x2="880" y2="44.0" stroke="#e5e5e5"/>
<text x="64" y="48.0" font-size="11" fill="#666" text-anchor="end">4617ms</text>
<text x="70.0" y="342" font-size="11" fill="#666" text-anchor="start">07-16 16:02</text>
<text x="475.0" y="342" font-size="11" fill="#666" text-anchor="middle">07-16 21:34</text>
<text x="880.0" y="342" font-size="11" fill="#666" text-anchor="end">07-17 05:57</text>
<polyline points="70.0,153.5 137.5,169.8 272.5,130.9 340.0,249.4 407.5,73.1 475.0,186.2 542.5,80.4 610.0,148.2 677.5,72.3 745.0,206.9 812.5,77.7 880.0,229.7" fill="none" stroke="#d62728" stroke-width="2"/>
<circle cx="70.0" cy="153.5" r="3" fill="#d62728"/>
<circle cx="137.5" cy="169.8" r="3" fill="#d62728"/>
<circle cx="272.5" cy="130.9" r="3" fill="#d62728"/>
<circle cx="340.0" cy="249.4" r="3" fill="#d62728"/>
<circle cx="407.5" cy="73.1" r="3" fill="#d62728"/>
<circle cx="475.0" cy="186.2" r="3" fill="#d62728"/>
<circle cx="542.5" cy="80.4" r="3" fill="#d62728"/>
<circle cx="610.0" cy="148.2" r="3" fill="#d62728"/>
<circle cx="677.5" cy="72.3" r="3" fill="#d62728"/>
<circle cx="745.0" cy="206.9" r="3" fill="#d62728"/>
<circle cx="812.5" cy="77.7" r="3" fill="#d62728"/>
<circle cx="880.0" cy="229.7" r="3" fill="#d62728"/>
<rect x="70.0" y="358" width="10" height="10" fill="#d62728"/>
<text x="84.0" y="367" font-size="11" fill="#333">first audio (e2e)</text>
<polyline points="70.0,173.4 137.5,64.7 272.5,132.7 340.0,165.7 407.5,220.3 542.5,132.6 610.0,147.3 677.5,149.6" fill="none" stroke="#1f77b4" stroke-width="2"/>
<circle cx="70.0" cy="173.4" r="3" fill="#1f77b4"/>
<circle cx="137.5" cy="64.7" r="3" fill="#1f77b4"/>
<circle cx="272.5" cy="132.7" r="3" fill="#1f77b4"/>
<circle cx="340.0" cy="165.7" r="3" fill="#1f77b4"/>
<circle cx="407.5" cy="220.3" r="3" fill="#1f77b4"/>
<circle cx="542.5" cy="132.6" r="3" fill="#1f77b4"/>
<circle cx="610.0" cy="147.3" r="3" fill="#1f77b4"/>
<circle cx="677.5" cy="149.6" r="3" fill="#1f77b4"/>
<rect x="232.0" y="358" width="10" height="10" fill="#1f77b4"/>
<text x="246.0" y="367" font-size="11" fill="#333">tts synth</text>
<polyline points="70.0,280.9 137.5,287.3 272.5,282.4 340.0,282.3 407.5,290.5 542.5,244.5 610.0,255.9 677.5,192.4" fill="none" stroke="#2ca02c" stroke-width="2"/>
<circle cx="70.0" cy="280.9" r="3" fill="#2ca02c"/>
<circle cx="137.5" cy="287.3" r="3" fill="#2ca02c"/>
<circle cx="272.5" cy="282.4" r="3" fill="#2ca02c"/>
<circle cx="340.0" cy="282.3" r="3" fill="#2ca02c"/>
<circle cx="407.5" cy="290.5" r="3" fill="#2ca02c"/>
<circle cx="542.5" cy="244.5" r="3" fill="#2ca02c"/>
<circle cx="610.0" cy="255.9" r="3" fill="#2ca02c"/>
<circle cx="677.5" cy="192.4" r="3" fill="#2ca02c"/>
<rect x="394.0" y="358" width="10" height="10" fill="#2ca02c"/>
<text x="408.0" y="367" font-size="11" fill="#333">llm first sentence</text>
<polyline points="70.0,303.4 137.5,307.1 205.0,304.0 272.5,305.5 340.0,293.9 407.5,306.4 542.5,295.3 610.0,292.1 677.5,299.3" fill="none" stroke="#9467bd" stroke-width="2"/>
<circle cx="70.0" cy="303.4" r="3" fill="#9467bd"/>
<circle cx="137.5" cy="307.1" r="3" fill="#9467bd"/>
<circle cx="205.0" cy="304.0" r="3" fill="#9467bd"/>
<circle cx="272.5" cy="305.5" r="3" fill="#9467bd"/>
<circle cx="340.0" cy="293.9" r="3" fill="#9467bd"/>
<circle cx="407.5" cy="306.4" r="3" fill="#9467bd"/>
<circle cx="542.5" cy="295.3" r="3" fill="#9467bd"/>
<circle cx="610.0" cy="292.1" r="3" fill="#9467bd"/>
<circle cx="677.5" cy="299.3" r="3" fill="#9467bd"/>
<rect x="556.0" y="358" width="10" height="10" fill="#9467bd"/>
<text x="570.0" y="367" font-size="11" fill="#333">lipsync first mouth</text>
<polyline points="70.0,319.8 137.5,320.1 205.0,315.8 272.5,320.4 340.0,319.8 407.5,319.5 542.5,319.6 610.0,319.8 677.5,319.9" fill="none" stroke="#8c564b" stroke-width="2"/>
<circle cx="70.0" cy="319.8" r="3" fill="#8c564b"/>
<circle cx="137.5" cy="320.1" r="3" fill="#8c564b"/>
<circle cx="205.0" cy="315.8" r="3" fill="#8c564b"/>
<circle cx="272.5" cy="320.4" r="3" fill="#8c564b"/>
<circle cx="340.0" cy="319.8" r="3" fill="#8c564b"/>
<circle cx="407.5" cy="319.5" r="3" fill="#8c564b"/>
<circle cx="542.5" cy="319.6" r="3" fill="#8c564b"/>
<circle cx="610.0" cy="319.8" r="3" fill="#8c564b"/>
<circle cx="677.5" cy="319.9" r="3" fill="#8c564b"/>
<rect x="718.0" y="358" width="10" height="10" fill="#8c564b"/>
<text x="732.0" y="367" font-size="11" fill="#333">wav2lip infer</text>
</svg>
