<svg xmlns="http://www.w3.org/2000/svg" width="900" height="380" viewBox="0 0 900 380" font-family="sans-serif">
<rect width="900" height="380" fill="white"/>
<text x="70" y="24" font-size="16" fill="#333">Latency (ms, p50 unless noted) — lower is better</text>
<line x1="70" y1="324.0" x2="880" y2="324.0" stroke="#e5e5e5"/>
<text x="64" y="328.0" font-size="11" fill="#666" text-anchor="end">0ms</text>
<line x1="70" y1="268.0" x2="880" y2="268.0" stroke="#e5e5e5"/>
<text x="64" y="272.0" font-size="11" fill="#666" text-anchor="end">1481ms</text>
<line x1="70" y1="212.0" x2="880" y2="212.0" stroke="#e5e5e5"/>
<text x="64" y="216.0" font-size="11" fill="#666" text-anchor="end">2963ms</text>
<line x1="70" y1="156.0" x2="880" y2="156.0" stroke="#e5e5e5"/>
<text x="64" y="160.0" font-size="11" fill="#666" text-anchor="end">4444ms</text>
<line x1="70" y1="100.0" x2="880" y2="100.0" stroke="#e5e5e5"/>
<text x="64" y="104.0" font-size="11" fill="#666" text-anchor="end">5925ms</text>
<line x1="70" y1="44.0" x2="880" y2="44.0" stroke="#e5e5e5"/>
<text x="64" y="48.0" font-size="11" fill="#666" text-anchor="end">7407ms</text>
<text x="70.0" y="342" font-size="11" fill="#666" text-anchor="start">07-16 16:02</text>
<text x="484.4" y="342" font-size="11" fill="#666" text-anchor="middle">07-17 15:23</text>
<text x="880.0" y="342" font-size="11" fill="#666" text-anchor="end">07-17 21:56</text>
<polyline points="70.0,217.7 88.8,227.9 126.5,203.6 145.3,277.5 164.2,167.6 183.0,238.1 201.9,172.1 220.7,214.4 239.5,167.1 258.4,251.0 277.2,170.5 296.0,265.2 314.9,240.0 333.7,194.2 352.6,237.5 371.4,232.3 390.2,238.8 409.1,246.5 427.9,234.7 446.7,174.8 465.6,240.9 484.4,214.4 503.3,64.7 522.1,245.0 540.9,220.8 559.8,276.4 578.6,269.9 597.4,274.6 616.3,281.8 635.1,316.3 654.0,285.1 672.8,292.2 691.6,283.0 710.5,300.1 729.3,293.0 748.1,206.2 767.0,292.0 785.8,223.6 804.7,294.7 823.5,296.4 842.3,260.6 861.2,292.8 880.0,290.2" fill="none" stroke="#d62728" stroke-width="2"/>
<circle cx="70.0" cy="217.7" r="3" fill="#d62728"/>
<circle cx="88.8" cy="227.9" r="3" fill="#d62728"/>
<circle cx="126.5" cy="203.6" r="3" fill="#d62728"/>
<circle cx="145.3" cy="277.5" r="3" fill="#d62728"/>
<circle cx="164.2" cy="167.6" r="3" fill="#d62728"/>
<circle cx="183.0" cy="238.1" r="3" fill="#d62728"/>
<circle cx="201.9" cy="172.1" r="3" fill="#d62728"/>
<circle cx="220.7" cy="214.4" r="3" fill="#d62728"/>
<circle cx="239.5" cy="167.1" r="3" fill="#d62728"/>
<circle cx="258.4" cy="251.0" r="3" fill="#d62728"/>
<circle cx="277.2" cy="170.5" r="3" fill="#d62728"/>
<circle cx="296.0" cy="265.2" r="3" fill="#d62728"/>
<circle cx="314.9" cy="240.0" r="3" fill="#d62728"/>
<circle cx="333.7" cy="194.2" r="3" fill="#d62728"/>
<circle cx="352.6" cy="237.5" r="3" fill="#d62728"/>
<circle cx="371.4" cy="232.3" r="3" fill="#d62728"/>
<circle cx="390.2" cy="238.8" r="3" fill="#d62728"/>
<circle cx="409.1" cy="246.5" r="3" fill="#d62728"/>
<circle cx="427.9" cy="234.7" r="3" fill="#d62728"/>
<circle cx="446.7" cy="174.8" r="3" fill="#d62728"/>
<circle cx="465.6" cy="240.9" r="3" fill="#d62728"/>
<circle cx="484.4" cy="214.4" r="3" fill="#d62728"/>
<circle cx="503.3" cy="64.7" r="3" fill="#d62728"/>
<circle cx="522.1" cy="245.0" r="3" fill="#d62728"/>
<circle cx="540.9" cy="220.8" r="3" fill="#d62728"/>
<circle cx="559.8" cy="276.4" r="3" fill="#d62728"/>
<circle cx="578.6" cy="269.9" r="3" fill="#d62728"/>
<circle cx="597.4" cy="274.6" r="3" fill="#d62728"/>
<circle cx="616.3" cy="281.8" r="3" fill="#d62728"/>
<circle cx="635.1" cy="316.3" r="3" fill="#d62728"/>
<circle cx="654.0" cy="285.1" r="3" fill="#d62728"/>
<circle cx="672.8" cy="292.2" r="3" fill="#d62728"/>
<circle cx="691.6" cy="283.0" r="3" fill="#d62728"/>
<circle cx="710.5" cy="300.1" r="3" fill="#d62728"/>
<circle cx="729.3" cy="293.0" r="3" fill="#d62728"/>
<circle cx="748.1" cy="206.2" r="3" fill="#d62728"/>
<circle cx="767.0" cy="292.0" r="3" fill="#d62728"/>
<circle cx="785.8" cy="223.6" r="3" fill="#d62728"/>
<circle cx="804.7" cy="294.7" r="3" fill="#d62728"/>
<circle cx="823.5" cy="296.4" r="3" fill="#d62728"/>
<circle cx="842.3" cy="260.6" r="3" fill="#d62728"/>
<circle cx="861.2" cy="292.8" r="3" fill="#d62728"/>
<circle cx="880.0" cy="290.2" r="3" fill="#d62728"/>
<rect x="70.0" y="358" width="10" height="10" fill="#d62728"/>
<text x="84.0" y="367" font-size="11" fill="#333">first audio (e2e)</text>
<polyline points="239.5,215.3 314.9,199.1 333.7,224.4 352.6,176.9 371.4,267.6 390.2,239.5 409.1,283.5 427.9,244.5 446.7,260.4 465.6,246.2 484.4,245.6 503.3,201.1 522.1,299.9 540.9,252.0 559.8,317.9 578.6,317.8 597.4,317.5 616.3,318.0 672.8,318.3 691.6,317.4 710.5,317.8 729.3,318.6 748.1,317.8 767.0,318.2 785.8,317.3 804.7,317.7 823.5,319.0 842.3,318.6 861.2,317.0 880.0,317.8" fill="none" stroke="#1f77b4" stroke-width="2"/>
<circle cx="239.5" cy="215.3" r="3" fill="#1f77b4"/>
<circle cx="314.9" cy="199.1" r="3" fill="#1f77b4"/>
<circle cx="333.7" cy="224.4" r="3" fill="#1f77b4"/>
<circle cx="352.6" cy="176.9" r="3" fill="#1f77b4"/>
<circle cx="371.4" cy="267.6" r="3" fill="#1f77b4"/>
<circle cx="390.2" cy="239.5" r="3" fill="#1f77b4"/>
<circle cx="409.1" cy="283.5" r="3" fill="#1f77b4"/>
<circle cx="427.9" cy="244.5" r="3" fill="#1f77b4"/>
<circle cx="446.7" cy="260.4" r="3" fill="#1f77b4"/>
<circle cx="465.6" cy="246.2" r="3" fill="#1f77b4"/>
<circle cx="484.4" cy="245.6" r="3" fill="#1f77b4"/>
<circle cx="503.3" cy="201.1" r="3" fill="#1f77b4"/>
<circle cx="522.1" cy="299.9" r="3" fill="#1f77b4"/>
<circle cx="540.9" cy="252.0" r="3" fill="#1f77b4"/>
<circle cx="559.8" cy="317.9" r="3" fill="#1f77b4"/>
<circle cx="578.6" cy="317.8" r="3" fill="#1f77b4"/>
<circle cx="597.4" cy="317.5" r="3" fill="#1f77b4"/>
<circle cx="616.3" cy="318.0" r="3" fill="#1f77b4"/>
<circle cx="672.8" cy="318.3" r="3" fill="#1f77b4"/>
<circle cx="691.6" cy="317.4" r="3" fill="#1f77b4"/>
<circle cx="710.5" cy="317.8" r="3" fill="#1f77b4"/>
<circle cx="729.3" cy="318.6" r="3" fill="#1f77b4"/>
<circle cx="748.1" cy="317.8" r="3" fill="#1f77b4"/>
<circle cx="767.0" cy="318.2" r="3" fill="#1f77b4"/>
<circle cx="785.8" cy="317.3" r="3" fill="#1f77b4"/>
<circle cx="804.7" cy="317.7" r="3" fill="#1f77b4"/>
<circle cx="823.5" cy="319.0" r="3" fill="#1f77b4"/>
<circle cx="842.3" cy="318.6" r="3" fill="#1f77b4"/>
<circle cx="861.2" cy="317.0" r="3" fill="#1f77b4"/>
<circle cx="880.0" cy="317.8" r="3" fill="#1f77b4"/>
<rect x="205.0" y="358" width="10" height="10" fill="#1f77b4"/>
<text x="219.0" y="367" font-size="11" fill="#333">tts first chunk</text>
<polyline points="239.5,298.0 314.9,298.0 333.7,307.7 390.2,287.9 409.1,307.5 427.9,307.7 465.6,300.5 484.4,298.4 522.1,304.7 540.9,305.1 559.8,306.6 578.6,304.3 597.4,291.3 672.8,304.1 748.1,262.6 804.7,311.0 823.5,312.2 842.3,308.2" fill="none" stroke="#ff7f0e" stroke-width="2"/>
<circle cx="239.5" cy="298.0" r="3" fill="#ff7f0e"/>
<circle cx="314.9" cy="298.0" r="3" fill="#ff7f0e"/>
<circle cx="333.7" cy="307.7" r="3" fill="#ff7f0e"/>
<circle cx="390.2" cy="287.9" r="3" fill="#ff7f0e"/>
<circle cx="409.1" cy="307.5" r="3" fill="#ff7f0e"/>
<circle cx="427.9" cy="307.7" r="3" fill="#ff7f0e"/>
<circle cx="465.6" cy="300.5" r="3" fill="#ff7f0e"/>
<circle cx="484.4" cy="298.4" r="3" fill="#ff7f0e"/>
<circle cx="522.1" cy="304.7" r="3" fill="#ff7f0e"/>
<circle cx="540.9" cy="305.1" r="3" fill="#ff7f0e"/>
<circle cx="559.8" cy="306.6" r="3" fill="#ff7f0e"/>
<circle cx="578.6" cy="304.3" r="3" fill="#ff7f0e"/>
<circle cx="597.4" cy="291.3" r="3" fill="#ff7f0e"/>
<circle cx="672.8" cy="304.1" r="3" fill="#ff7f0e"/>
<circle cx="748.1" cy="262.6" r="3" fill="#ff7f0e"/>
<circle cx="804.7" cy="311.0" r="3" fill="#ff7f0e"/>
<circle cx="823.5" cy="312.2" r="3" fill="#ff7f0e"/>
<circle cx="842.3" cy="308.2" r="3" fill="#ff7f0e"/>
<rect x="340.0" y="358" width="10" height="10" fill="#ff7f0e"/>
<text x="354.0" y="367" font-size="11" fill="#333">llm ttft</text>
<polyline points="70.0,297.1 88.8,301.1 126.5,298.1 145.3,298.0 164.2,303.1 201.9,274.4 220.7,281.5 239.5,241.9 314.9,243.2 333.7,286.5 352.6,268.6 371.4,306.2 390.2,280.2 409.1,306.0 427.9,297.3 446.7,269.3 465.6,299.0 484.4,267.5 503.3,275.1 522.1,303.3 540.9,253.3 559.8,280.5 578.6,282.8 597.4,272.0 616.3,296.7 672.8,299.6 691.6,301.6 710.5,312.5 729.3,300.5 748.1,169.3 767.0,296.2 785.8,240.3 804.7,307.0 823.5,310.0 842.3,275.8 861.2,305.7 880.0,304.6" fill="none" stroke="#2ca02c" stroke-width="2"/>
<circle cx="70.0" cy="297.1" r="3" fill="#2ca02c"/>
<circle cx="88.8" cy="301.1" r="3" fill="#2ca02c"/>
<circle cx="126.5" cy="298.1" r="3" fill="#2ca02c"/>
<circle cx="145.3" cy="298.0" r="3" fill="#2ca02c"/>
<circle cx="164.2" cy="303.1" r="3" fill="#2ca02c"/>
<circle cx="201.9" cy="274.4" r="3" fill="#2ca02c"/>
<circle cx="220.7" cy="281.5" r="3" fill="#2ca02c"/>
<circle cx="239.5" cy="241.9" r="3" fill="#2ca02c"/>
<circle cx="314.9" cy="243.2" r="3" fill="#2ca02c"/>
<circle cx="333.7" cy="286.5" r="3" fill="#2ca02c"/>
<circle cx="352.6" cy="268.6" r="3" fill="#2ca02c"/>
<circle cx="371.4" cy="306.2" r="3" fill="#2ca02c"/>
<circle cx="390.2" cy="280.2" r="3" fill="#2ca02c"/>
<circle cx="409.1" cy="306.0" r="3" fill="#2ca02c"/>
<circle cx="427.9" cy="297.3" r="3" fill="#2ca02c"/>
<circle cx="446.7" cy="269.3" r="3" fill="#2ca02c"/>
<circle cx="465.6" cy="299.0" r="3" fill="#2ca02c"/>
<circle cx="484.4" cy="267.5" r="3" fill="#2ca02c"/>
<circle cx="503.3" cy="275.1" r="3" fill="#2ca02c"/>
<circle cx="522.1" cy="303.3" r="3" fill="#2ca02c"/>
<circle cx="540.9" cy="253.3" r="3" fill="#2ca02c"/>
<circle cx="559.8" cy="280.5" r="3" fill="#2ca02c"/>
<circle cx="578.6" cy="282.8" r="3" fill="#2ca02c"/>
<circle cx="597.4" cy="272.0" r="3" fill="#2ca02c"/>
<circle cx="616.3" cy="296.7" r="3" fill="#2ca02c"/>
<circle cx="672.8" cy="299.6" r="3" fill="#2ca02c"/>
<circle cx="691.6" cy="301.6" r="3" fill="#2ca02c"/>
<circle cx="710.5" cy="312.5" r="3" fill="#2ca02c"/>
<circle cx="729.3" cy="300.5" r="3" fill="#2ca02c"/>
<circle cx="748.1" cy="169.3" r="3" fill="#2ca02c"/>
<circle cx="767.0" cy="296.2" r="3" fill="#2ca02c"/>
<circle cx="785.8" cy="240.3" r="3" fill="#2ca02c"/>
<circle cx="804.7" cy="307.0" r="3" fill="#2ca02c"/>
<circle cx="823.5" cy="310.0" r="3" fill="#2ca02c"/>
<circle cx="842.3" cy="275.8" r="3" fill="#2ca02c"/>
<circle cx="861.2" cy="305.7" r="3" fill="#2ca02c"/>
<circle cx="880.0" cy="304.6" r="3" fill="#2ca02c"/>
<rect x="475.0" y="358" width="10" height="10" fill="#2ca02c"/>
<text x="489.0" y="367" font-size="11" fill="#333">llm first sentence</text>
<polyline points="70.0,311.1 88.8,313.5 107.7,311.5 126.5,312.5 145.3,305.2 164.2,313.0 201.9,306.1 220.7,304.1 239.5,308.6 314.9,305.6 333.7,310.6 352.6,306.4 371.4,314.9 390.2,315.0 409.1,315.6 427.9,307.9 446.7,313.9 465.6,315.7 484.4,312.8 503.3,306.0 522.1,316.6 540.9,306.0 559.8,313.9 578.6,315.3 597.4,310.5 616.3,316.9 672.8,316.3 691.6,314.8 710.5,314.8 729.3,315.1 748.1,315.2 767.0,314.1 785.8,311.9 804.7,316.5 823.5,316.1 842.3,316.0 861.2,312.9 880.0,314.0" fill="none" stroke="#9467bd" stroke-width="2"/>
<circle cx="70.0" cy="311.1" r="3" fill="#9467bd"/>
<circle cx="88.8" cy="313.5" r="3" fill="#9467bd"/>
<circle cx="107.7" cy="311.5" r="3" fill="#9467bd"/>
<circle cx="126.5" cy="312.5" r="3" fill="#9467bd"/>
<circle cx="145.3" cy="305.2" r="3" fill="#9467bd"/>
<circle cx="164.2" cy="313.0" r="3" fill="#9467bd"/>
<circle cx="201.9" cy="306.1" r="3" fill="#9467bd"/>
<circle cx="220.7" cy="304.1" r="3" fill="#9467bd"/>
<circle cx="239.5" cy="308.6" r="3" fill="#9467bd"/>
<circle cx="314.9" cy="305.6" r="3" fill="#9467bd"/>
<circle cx="333.7" cy="310.6" r="3" fill="#9467bd"/>
<circle cx="352.6" cy="306.4" r="3" fill="#9467bd"/>
<circle cx="371.4" cy="314.9" r="3" fill="#9467bd"/>
<circle cx="390.2" cy="315.0" r="3" fill="#9467bd"/>
<circle cx="409.1" cy="315.6" r="3" fill="#9467bd"/>
<circle cx="427.9" cy="307.9" r="3" fill="#9467bd"/>
<circle cx="446.7" cy="313.9" r="3" fill="#9467bd"/>
<circle cx="465.6" cy="315.7" r="3" fill="#9467bd"/>
<circle cx="484.4" cy="312.8" r="3" fill="#9467bd"/>
<circle cx="503.3" cy="306.0" r="3" fill="#9467bd"/>
<circle cx="522.1" cy="316.6" r="3" fill="#9467bd"/>
<circle cx="540.9" cy="306.0" r="3" fill="#9467bd"/>
<circle cx="559.8" cy="313.9" r="3" fill="#9467bd"/>
<circle cx="578.6" cy="315.3" r="3" fill="#9467bd"/>
<circle cx="597.4" cy="310.5" r="3" fill="#9467bd"/>
<circle cx="616.3" cy="316.9" r="3" fill="#9467bd"/>
<circle cx="672.8" cy="316.3" r="3" fill="#9467bd"/>
<circle cx="691.6" cy="314.8" r="3" fill="#9467bd"/>
<circle cx="710.5" cy="314.8" r="3" fill="#9467bd"/>
<circle cx="729.3" cy="315.1" r="3" fill="#9467bd"/>
<circle cx="748.1" cy="315.2" r="3" fill="#9467bd"/>
<circle cx="767.0" cy="314.1" r="3" fill="#9467bd"/>
<circle cx="785.8" cy="311.9" r="3" fill="#9467bd"/>
<circle cx="804.7" cy="316.5" r="3" fill="#9467bd"/>
<circle cx="823.5" cy="316.1" r="3" fill="#9467bd"/>
<circle cx="842.3" cy="316.0" r="3" fill="#9467bd"/>
<circle cx="861.2" cy="312.9" r="3" fill="#9467bd"/>
<circle cx="880.0" cy="314.0" r="3" fill="#9467bd"/>
<rect x="610.0" y="358" width="10" height="10" fill="#9467bd"/>
<text x="624.0" y="367" font-size="11" fill="#333">lipsync first mouth</text>
<polyline points="239.5,318.5 314.9,314.7 333.7,318.1 352.6,318.0 371.4,318.8 390.2,312.5 409.1,318.8 427.9,314.5 446.7,318.9 465.6,318.7 484.4,311.9 503.3,318.2 522.1,318.5 540.9,311.1 559.8,317.5 578.6,317.9 597.4,316.7 616.3,318.9 672.8,318.7 691.6,318.6 710.5,318.2 729.3,318.2 748.1,318.6 767.0,317.8 785.8,318.8 804.7,318.3 823.5,318.3 842.3,319.3 861.2,315.9 880.0,318.6" fill="none" stroke="#8c564b" stroke-width="2"/>
<circle cx="239.5" cy="318.5" r="3" fill="#8c564b"/>
<circle cx="314.9" cy="314.7" r="3" fill="#8c564b"/>
<circle cx="333.7" cy="318.1" r="3" fill="#8c564b"/>
<circle cx="352.6" cy="318.0" r="3" fill="#8c564b"/>
<circle cx="371.4" cy="318.8" r="3" fill="#8c564b"/>
<circle cx="390.2" cy="312.5" r="3" fill="#8c564b"/>
<circle cx="409.1" cy="318.8" r="3" fill="#8c564b"/>
<circle cx="427.9" cy="314.5" r="3" fill="#8c564b"/>
<circle cx="446.7" cy="318.9" r="3" fill="#8c564b"/>
<circle cx="465.6" cy="318.7" r="3" fill="#8c564b"/>
<circle cx="484.4" cy="311.9" r="3" fill="#8c564b"/>
<circle cx="503.3" cy="318.2" r="3" fill="#8c564b"/>
<circle cx="522.1" cy="318.5" r="3" fill="#8c564b"/>
<circle cx="540.9" cy="311.1" r="3" fill="#8c564b"/>
<circle cx="559.8" cy="317.5" r="3" fill="#8c564b"/>
<circle cx="578.6" cy="317.9" r="3" fill="#8c564b"/>
<circle cx="597.4" cy="316.7" r="3" fill="#8c564b"/>
<circle cx="616.3" cy="318.9" r="3" fill="#8c564b"/>
<circle cx="672.8" cy="318.7" r="3" fill="#8c564b"/>
<circle cx="691.6" cy="318.6" r="3" fill="#8c564b"/>
<circle cx="710.5" cy="318.2" r="3" fill="#8c564b"/>
<circle cx="729.3" cy="318.2" r="3" fill="#8c564b"/>
<circle cx="748.1" cy="318.6" r="3" fill="#8c564b"/>
<circle cx="767.0" cy="317.8" r="3" fill="#8c564b"/>
<circle cx="785.8" cy="318.8" r="3" fill="#8c564b"/>
<circle cx="804.7" cy="318.3" r="3" fill="#8c564b"/>
<circle cx="823.5" cy="318.3" r="3" fill="#8c564b"/>
<circle cx="842.3" cy="319.3" r="3" fill="#8c564b"/>
<circle cx="861.2" cy="315.9" r="3" fill="#8c564b"/>
<circle cx="880.0" cy="318.6" r="3" fill="#8c564b"/>
<rect x="745.0" y="358" width="10" height="10" fill="#8c564b"/>
<text x="759.0" y="367" font-size="11" fill="#333">render tick p95</text>
</svg>
