<svg xmlns="http://www.w3.org/2000/svg" width="900" height="380" viewBox="0 0 900 380" font-family="sans-serif">
<rect width="900" height="380" fill="white"/>
<text x="70" y="24" font-size="16" fill="#333">Latency (ms, p50 unless noted) — lower is better</text>
<line x1="70" y1="324.0" x2="880" y2="324.0" stroke="#e5e5e5"/>
<text x="64" y="328.0" font-size="11" fill="#666" text-anchor="end">0ms</text>
<line x1="70" y1="268.0" x2="880" y2="268.0" stroke="#e5e5e5"/>
<text x="64" y="272.0" font-size="11" fill="#666" text-anchor="end">1481ms</text>
<line x1="70" y1="212.0" x2="880" y2="212.0" stroke="#e5e5e5"/>
<text x="64" y="216.0" font-size="11" fill="#666" text-anchor="end">2963ms</text>
<line x1="70" y1="156.0" x2="880" y2="156.0" stroke="#e5e5e5"/>
<text x="64" y="160.0" font-size="11" fill="#666" text-anchor="end">4444ms</text>
<line x1="70" y1="100.0" x2="880" y2="100.0" stroke="#e5e5e5"/>
<text x="64" y="104.0" font-size="11" fill="#666" text-anchor="end">5925ms</text>
<line x1="70" y1="44.0" x2="880" y2="44.0" stroke="#e5e5e5"/>
<text x="64" y="48.0" font-size="11" fill="#666" text-anchor="end">7407ms</text>
<text x="70.0" y="342" font-size="11" fill="#666" text-anchor="start">07-16 16:02</text>
<text x="475.0" y="342" font-size="11" fill="#666" text-anchor="middle">07-17 19:27</text>
<text x="880.0" y="342" font-size="11" fill="#666" text-anchor="end">07-19 06:11</text>
<polyline points="70.0,217.7 84.0,227.9 111.9,203.6 125.9,277.5 139.8,167.6 153.8,238.1 167.8,172.1 181.7,214.4 195.7,167.1 209.7,251.0 223.6,170.5 237.6,265.2 251.6,240.0 265.5,194.2 279.5,237.5 293.4,232.3 307.4,238.8 321.4,246.5 335.3,234.7 349.3,174.8 363.3,240.9 377.2,214.4 391.2,64.7 405.2,245.0 419.1,220.8 433.1,276.4 447.1,269.9 461.0,274.6 475.0,281.8 489.0,316.3 502.9,285.1 516.9,292.2 530.9,283.0 544.8,300.1 558.8,293.0 572.8,206.2 586.7,292.0 600.7,223.6 614.7,294.7 628.6,296.4 642.6,260.6 656.6,292.8 670.5,290.2 684.5,290.1 698.4,286.4 712.4,287.0 726.4,292.4 740.3,292.8 754.3,290.6 768.3,279.0 782.2,291.3 796.2,279.4 810.2,293.4 824.1,276.0 838.1,284.7 852.1,292.0 866.0,286.6 880.0,279.9" fill="none" stroke="#d62728" stroke-width="2"/>
<circle cx="70.0" cy="217.7" r="3" fill="#d62728"/>
<circle cx="84.0" cy="227.9" r="3" fill="#d62728"/>
<circle cx="111.9" cy="203.6" r="3" fill="#d62728"/>
<circle cx="125.9" cy="277.5" r="3" fill="#d62728"/>
<circle cx="139.8" cy="167.6" r="3" fill="#d62728"/>
<circle cx="153.8" cy="238.1" r="3" fill="#d62728"/>
<circle cx="167.8" cy="172.1" r="3" fill="#d62728"/>
<circle cx="181.7" cy="214.4" r="3" fill="#d62728"/>
<circle cx="195.7" cy="167.1" r="3" fill="#d62728"/>
<circle cx="209.7" cy="251.0" r="3" fill="#d62728"/>
<circle cx="223.6" cy="170.5" r="3" fill="#d62728"/>
<circle cx="237.6" cy="265.2" r="3" fill="#d62728"/>
<circle cx="251.6" cy="240.0" r="3" fill="#d62728"/>
<circle cx="265.5" cy="194.2" r="3" fill="#d62728"/>
<circle cx="279.5" cy="237.5" r="3" fill="#d62728"/>
<circle cx="293.4" cy="232.3" r="3" fill="#d62728"/>
<circle cx="307.4" cy="238.8" r="3" fill="#d62728"/>
<circle cx="321.4" cy="246.5" r="3" fill="#d62728"/>
<circle cx="335.3" cy="234.7" r="3" fill="#d62728"/>
<circle cx="349.3" cy="174.8" r="3" fill="#d62728"/>
<circle cx="363.3" cy="240.9" r="3" fill="#d62728"/>
<circle cx="377.2" cy="214.4" r="3" fill="#d62728"/>
<circle cx="391.2" cy="64.7" r="3" fill="#d62728"/>
<circle cx="405.2" cy="245.0" r="3" fill="#d62728"/>
<circle cx="419.1" cy="220.8" r="3" fill="#d62728"/>
<circle cx="433.1" cy="276.4" r="3" fill="#d62728"/>
<circle cx="447.1" cy="269.9" r="3" fill="#d62728"/>
<circle cx="461.0" cy="274.6" r="3" fill="#d62728"/>
<circle cx="475.0" cy="281.8" r="3" fill="#d62728"/>
<circle cx="489.0" cy="316.3" r="3" fill="#d62728"/>
<circle cx="502.9" cy="285.1" r="3" fill="#d62728"/>
<circle cx="516.9" cy="292.2" r="3" fill="#d62728"/>
<circle cx="530.9" cy="283.0" r="3" fill="#d62728"/>
<circle cx="544.8" cy="300.1" r="3" fill="#d62728"/>
<circle cx="558.8" cy="293.0" r="3" fill="#d62728"/>
<circle cx="572.8" cy="206.2" r="3" fill="#d62728"/>
<circle cx="586.7" cy="292.0" r="3" fill="#d62728"/>
<circle cx="600.7" cy="223.6" r="3" fill="#d62728"/>
<circle cx="614.7" cy="294.7" r="3" fill="#d62728"/>
<circle cx="628.6" cy="296.4" r="3" fill="#d62728"/>
<circle cx="642.6" cy="260.6" r="3" fill="#d62728"/>
<circle cx="656.6" cy="292.8" r="3" fill="#d62728"/>
<circle cx="670.5" cy="290.2" r="3" fill="#d62728"/>
<circle cx="684.5" cy="290.1" r="3" fill="#d62728"/>
<circle cx="698.4" cy="286.4" r="3" fill="#d62728"/>
<circle cx="712.4" cy="287.0" r="3" fill="#d62728"/>
<circle cx="726.4" cy="292.4" r="3" fill="#d62728"/>
<circle cx="740.3" cy="292.8" r="3" fill="#d62728"/>
<circle cx="754.3" cy="290.6" r="3" fill="#d62728"/>
<circle cx="768.3" cy="279.0" r="3" fill="#d62728"/>
<circle cx="782.2" cy="291.3" r="3" fill="#d62728"/>
<circle cx="796.2" cy="279.4" r="3" fill="#d62728"/>
<circle cx="810.2" cy="293.4" r="3" fill="#d62728"/>
<circle cx="824.1" cy="276.0" r="3" fill="#d62728"/>
<circle cx="838.1" cy="284.7" r="3" fill="#d62728"/>
<circle cx="852.1" cy="292.0" r="3" fill="#d62728"/>
<circle cx="866.0" cy="286.6" r="3" fill="#d62728"/>
<circle cx="880.0" cy="279.9" r="3" fill="#d62728"/>
<rect x="70.0" y="358" width="10" height="10" fill="#d62728"/>
<text x="84.0" y="367" font-size="11" fill="#333">first audio (e2e)</text>
<polyline points="195.7,215.3 251.6,199.1 265.5,224.4 279.5,176.9 293.4,267.6 307.4,239.5 321.4,283.5 335.3,244.5 349.3,260.4 363.3,246.2 377.2,245.6 391.2,201.1 405.2,299.9 419.1,252.0 433.1,317.9 447.1,317.8 461.0,317.5 475.0,318.0 516.9,318.3 530.9,317.4 544.8,317.8 558.8,318.6 572.8,317.8 586.7,318.2 600.7,317.3 614.7,317.7 628.6,319.0 642.6,318.6 656.6,317.0 670.5,317.8 684.5,318.5 698.4,317.4 712.4,317.7 726.4,317.1 740.3,300.8 754.3,295.2 768.3,317.5 782.2,317.1 810.2,295.5 838.1,319.0 852.1,303.2 866.0,318.6 880.0,317.7" fill="none" stroke="#1f77b4" stroke-width="2"/>
<circle cx="195.7" cy="215.3" r="3" fill="#1f77b4"/>
<circle cx="251.6" cy="199.1" r="3" fill="#1f77b4"/>
<circle cx="265.5" cy="224.4" r="3" fill="#1f77b4"/>
<circle cx="279.5" cy="176.9" r="3" fill="#1f77b4"/>
<circle cx="293.4" cy="267.6" r="3" fill="#1f77b4"/>
<circle cx="307.4" cy="239.5" r="3" fill="#1f77b4"/>
<circle cx="321.4" cy="283.5" r="3" fill="#1f77b4"/>
<circle cx="335.3" cy="244.5" r="3" fill="#1f77b4"/>
<circle cx="349.3" cy="260.4" r="3" fill="#1f77b4"/>
<circle cx="363.3" cy="246.2" r="3" fill="#1f77b4"/>
<circle cx="377.2" cy="245.6" r="3" fill="#1f77b4"/>
<circle cx="391.2" cy="201.1" r="3" fill="#1f77b4"/>
<circle cx="405.2" cy="299.9" r="3" fill="#1f77b4"/>
<circle cx="419.1" cy="252.0" r="3" fill="#1f77b4"/>
<circle cx="433.1" cy="317.9" r="3" fill="#1f77b4"/>
<circle cx="447.1" cy="317.8" r="3" fill="#1f77b4"/>
<circle cx="461.0" cy="317.5" r="3" fill="#1f77b4"/>
<circle cx="475.0" cy="318.0" r="3" fill="#1f77b4"/>
<circle cx="516.9" cy="318.3" r="3" fill="#1f77b4"/>
<circle cx="530.9" cy="317.4" r="3" fill="#1f77b4"/>
<circle cx="544.8" cy="317.8" r="3" fill="#1f77b4"/>
<circle cx="558.8" cy="318.6" r="3" fill="#1f77b4"/>
<circle cx="572.8" cy="317.8" r="3" fill="#1f77b4"/>
<circle cx="586.7" cy="318.2" r="3" fill="#1f77b4"/>
<circle cx="600.7" cy="317.3" r="3" fill="#1f77b4"/>
<circle cx="614.7" cy="317.7" r="3" fill="#1f77b4"/>
<circle cx="628.6" cy="319.0" r="3" fill="#1f77b4"/>
<circle cx="642.6" cy="318.6" r="3" fill="#1f77b4"/>
<circle cx="656.6" cy="317.0" r="3" fill="#1f77b4"/>
<circle cx="670.5" cy="317.8" r="3" fill="#1f77b4"/>
<circle cx="684.5" cy="318.5" r="3" fill="#1f77b4"/>
<circle cx="698.4" cy="317.4" r="3" fill="#1f77b4"/>
<circle cx="712.4" cy="317.7" r="3" fill="#1f77b4"/>
<circle cx="726.4" cy="317.1" r="3" fill="#1f77b4"/>
<circle cx="740.3" cy="300.8" r="3" fill="#1f77b4"/>
<circle cx="754.3" cy="295.2" r="3" fill="#1f77b4"/>
<circle cx="768.3" cy="317.5" r="3" fill="#1f77b4"/>
<circle cx="782.2" cy="317.1" r="3" fill="#1f77b4"/>
<circle cx="810.2" cy="295.5" r="3" fill="#1f77b4"/>
<circle cx="838.1" cy="319.0" r="3" fill="#1f77b4"/>
<circle cx="852.1" cy="303.2" r="3" fill="#1f77b4"/>
<circle cx="866.0" cy="318.6" r="3" fill="#1f77b4"/>
<circle cx="880.0" cy="317.7" r="3" fill="#1f77b4"/>
<rect x="205.0" y="358" width="10" height="10" fill="#1f77b4"/>
<text x="219.0" y="367" font-size="11" fill="#333">tts first chunk</text>
<polyline points="195.7,298.0 251.6,298.0 265.5,307.7 307.4,287.9 321.4,307.5 335.3,307.7 363.3,300.5 377.2,298.4 405.2,304.7 419.1,305.1 433.1,306.6 447.1,304.3 461.0,291.3 516.9,304.1 572.8,262.6 614.7,311.0 628.6,312.2 642.6,308.2 684.5,308.0 740.3,313.3 754.3,311.0 768.3,307.6 782.2,306.7 810.2,306.4 838.1,310.3 852.1,313.1 866.0,311.0 880.0,299.8" fill="none" stroke="#ff7f0e" stroke-width="2"/>
<circle cx="195.7" cy="298.0" r="3" fill="#ff7f0e"/>
<circle cx="251.6" cy="298.0" r="3" fill="#ff7f0e"/>
<circle cx="265.5" cy="307.7" r="3" fill="#ff7f0e"/>
<circle cx="307.4" cy="287.9" r="3" fill="#ff7f0e"/>
<circle cx="321.4" cy="307.5" r="3" fill="#ff7f0e"/>
<circle cx="335.3" cy="307.7" r="3" fill="#ff7f0e"/>
<circle cx="363.3" cy="300.5" r="3" fill="#ff7f0e"/>
<circle cx="377.2" cy="298.4" r="3" fill="#ff7f0e"/>
<circle cx="405.2" cy="304.7" r="3" fill="#ff7f0e"/>
<circle cx="419.1" cy="305.1" r="3" fill="#ff7f0e"/>
<circle cx="433.1" cy="306.6" r="3" fill="#ff7f0e"/>
<circle cx="447.1" cy="304.3" r="3" fill="#ff7f0e"/>
<circle cx="461.0" cy="291.3" r="3" fill="#ff7f0e"/>
<circle cx="516.9" cy="304.1" r="3" fill="#ff7f0e"/>
<circle cx="572.8" cy="262.6" r="3" fill="#ff7f0e"/>
<circle cx="614.7" cy="311.0" r="3" fill="#ff7f0e"/>
<circle cx="628.6" cy="312.2" r="3" fill="#ff7f0e"/>
<circle cx="642.6" cy="308.2" r="3" fill="#ff7f0e"/>
<circle cx="684.5" cy="308.0" r="3" fill="#ff7f0e"/>
<circle cx="740.3" cy="313.3" r="3" fill="#ff7f0e"/>
<circle cx="754.3" cy="311.0" r="3" fill="#ff7f0e"/>
<circle cx="768.3" cy="307.6" r="3" fill="#ff7f0e"/>
<circle cx="782.2" cy="306.7" r="3" fill="#ff7f0e"/>
<circle cx="810.2" cy="306.4" r="3" fill="#ff7f0e"/>
<circle cx="838.1" cy="310.3" r="3" fill="#ff7f0e"/>
<circle cx="852.1" cy="313.1" r="3" fill="#ff7f0e"/>
<circle cx="866.0" cy="311.0" r="3" fill="#ff7f0e"/>
<circle cx="880.0" cy="299.8" r="3" fill="#ff7f0e"/>
<rect x="340.0" y="358" width="10" height="10" fill="#ff7f0e"/>
<text x="354.0" y="367" font-size="11" fill="#333">llm ttft</text>
<polyline points="70.0,297.1 84.0,301.1 111.9,298.1 125.9,298.0 139.8,303.1 167.8,274.4 181.7,281.5 195.7,241.9 251.6,243.2 265.5,286.5 279.5,268.6 293.4,306.2 307.4,280.2 321.4,306.0 335.3,297.3 349.3,269.3 363.3,299.0 377.2,267.5 391.2,275.1 405.2,303.3 419.1,253.3 433.1,280.5 447.1,282.8 461.0,272.0 475.0,296.7 516.9,299.6 530.9,301.6 544.8,312.5 558.8,300.5 572.8,169.3 586.7,296.2 600.7,240.3 614.7,307.0 628.6,310.0 642.6,275.8 656.6,305.7 670.5,304.6 684.5,303.7 698.4,297.4 712.4,297.4 726.4,306.8 740.3,306.3 754.3,305.5 768.3,293.1 782.2,303.2 810.2,301.0 838.1,307.2 852.1,305.8 866.0,307.8 880.0,292.2" fill="none" stroke="#2ca02c" stroke-width="2"/>
<circle cx="70.0" cy="297.1" r="3" fill="#2ca02c"/>
<circle cx="84.0" cy="301.1" r="3" fill="#2ca02c"/>
<circle cx="111.9" cy="298.1" r="3" fill="#2ca02c"/>
<circle cx="125.9" cy="298.0" r="3" fill="#2ca02c"/>
<circle cx="139.8" cy="303.1" r="3" fill="#2ca02c"/>
<circle cx="167.8" cy="274.4" r="3" fill="#2ca02c"/>
<circle cx="181.7" cy="281.5" r="3" fill="#2ca02c"/>
<circle cx="195.7" cy="241.9" r="3" fill="#2ca02c"/>
<circle cx="251.6" cy="243.2" r="3" fill="#2ca02c"/>
<circle cx="265.5" cy="286.5" r="3" fill="#2ca02c"/>
<circle cx="279.5" cy="268.6" r="3" fill="#2ca02c"/>
<circle cx="293.4" cy="306.2" r="3" fill="#2ca02c"/>
<circle cx="307.4" cy="280.2" r="3" fill="#2ca02c"/>
<circle cx="321.4" cy="306.0" r="3" fill="#2ca02c"/>
<circle cx="335.3" cy="297.3" r="3" fill="#2ca02c"/>
<circle cx="349.3" cy="269.3" r="3" fill="#2ca02c"/>
<circle cx="363.3" cy="299.0" r="3" fill="#2ca02c"/>
<circle cx="377.2" cy="267.5" r="3" fill="#2ca02c"/>
<circle cx="391.2" cy="275.1" r="3" fill="#2ca02c"/>
<circle cx="405.2" cy="303.3" r="3" fill="#2ca02c"/>
<circle cx="419.1" cy="253.3" r="3" fill="#2ca02c"/>
<circle cx="433.1" cy="280.5" r="3" fill="#2ca02c"/>
<circle cx="447.1" cy="282.8" r="3" fill="#2ca02c"/>
<circle cx="461.0" cy="272.0" r="3" fill="#2ca02c"/>
<circle cx="475.0" cy="296.7" r="3" fill="#2ca02c"/>
<circle cx="516.9" cy="299.6" r="3" fill="#2ca02c"/>
<circle cx="530.9" cy="301.6" r="3" fill="#2ca02c"/>
<circle cx="544.8" cy="312.5" r="3" fill="#2ca02c"/>
<circle cx="558.8" cy="300.5" r="3" fill="#2ca02c"/>
<circle cx="572.8" cy="169.3" r="3" fill="#2ca02c"/>
<circle cx="586.7" cy="296.2" r="3" fill="#2ca02c"/>
<circle cx="600.7" cy="240.3" r="3" fill="#2ca02c"/>
<circle cx="614.7" cy="307.0" r="3" fill="#2ca02c"/>
<circle cx="628.6" cy="310.0" r="3" fill="#2ca02c"/>
<circle cx="642.6" cy="275.8" r="3" fill="#2ca02c"/>
<circle cx="656.6" cy="305.7" r="3" fill="#2ca02c"/>
<circle cx="670.5" cy="304.6" r="3" fill="#2ca02c"/>
<circle cx="684.5" cy="303.7" r="3" fill="#2ca02c"/>
<circle cx="698.4" cy="297.4" r="3" fill="#2ca02c"/>
<circle cx="712.4" cy="297.4" r="3" fill="#2ca02c"/>
<circle cx="726.4" cy="306.8" r="3" fill="#2ca02c"/>
<circle cx="740.3" cy="306.3" r="3" fill="#2ca02c"/>
<circle cx="754.3" cy="305.5" r="3" fill="#2ca02c"/>
<circle cx="768.3" cy="293.1" r="3" fill="#2ca02c"/>
<circle cx="782.2" cy="303.2" r="3" fill="#2ca02c"/>
<circle cx="810.2" cy="301.0" r="3" fill="#2ca02c"/>
<circle cx="838.1" cy="307.2" r="3" fill="#2ca02c"/>
<circle cx="852.1" cy="305.8" r="3" fill="#2ca02c"/>
<circle cx="866.0" cy="307.8" r="3" fill="#2ca02c"/>
<circle cx="880.0" cy="292.2" r="3" fill="#2ca02c"/>
<rect x="475.0" y="358" width="10" height="10" fill="#2ca02c"/>
<text x="489.0" y="367" font-size="11" fill="#333">llm first sentence</text>
<polyline points="70.0,311.1 84.0,313.5 97.9,311.5 111.9,312.5 125.9,305.2 139.8,313.0 167.8,306.1 181.7,304.1 195.7,308.6 251.6,305.6 265.5,310.6 279.5,306.4 293.4,314.9 307.4,315.0 321.4,315.6 335.3,307.9 349.3,313.9 363.3,315.7 377.2,312.8 391.2,306.0 405.2,316.6 419.1,306.0 433.1,313.9 447.1,315.3 461.0,310.5 475.0,316.9 516.9,316.3 530.9,314.8 544.8,314.8 558.8,315.1 572.8,315.2 586.7,314.1 600.7,311.9 614.7,316.5 628.6,316.1 642.6,316.0 656.6,312.9 670.5,314.0 684.5,316.3 698.4,313.4 712.4,316.9 726.4,312.3 740.3,296.2 754.3,290.3 768.3,314.5 782.2,315.0 796.2,318.5 810.2,289.0 824.1,317.3 838.1,316.3 852.1,297.7 866.0,313.5 880.0,314.0" fill="none" stroke="#9467bd" stroke-width="2"/>
<circle cx="70.0" cy="311.1" r="3" fill="#9467bd"/>
<circle cx="84.0" cy="313.5" r="3" fill="#9467bd"/>
<circle cx="97.9" cy="311.5" r="3" fill="#9467bd"/>
<circle cx="111.9" cy="312.5" r="3" fill="#9467bd"/>
<circle cx="125.9" cy="305.2" r="3" fill="#9467bd"/>
<circle cx="139.8" cy="313.0" r="3" fill="#9467bd"/>
<circle cx="167.8" cy="306.1" r="3" fill="#9467bd"/>
<circle cx="181.7" cy="304.1" r="3" fill="#9467bd"/>
<circle cx="195.7" cy="308.6" r="3" fill="#9467bd"/>
<circle cx="251.6" cy="305.6" r="3" fill="#9467bd"/>
<circle cx="265.5" cy="310.6" r="3" fill="#9467bd"/>
<circle cx="279.5" cy="306.4" r="3" fill="#9467bd"/>
<circle cx="293.4" cy="314.9" r="3" fill="#9467bd"/>
<circle cx="307.4" cy="315.0" r="3" fill="#9467bd"/>
<circle cx="321.4" cy="315.6" r="3" fill="#9467bd"/>
<circle cx="335.3" cy="307.9" r="3" fill="#9467bd"/>
<circle cx="349.3" cy="313.9" r="3" fill="#9467bd"/>
<circle cx="363.3" cy="315.7" r="3" fill="#9467bd"/>
<circle cx="377.2" cy="312.8" r="3" fill="#9467bd"/>
<circle cx="391.2" cy="306.0" r="3" fill="#9467bd"/>
<circle cx="405.2" cy="316.6" r="3" fill="#9467bd"/>
<circle cx="419.1" cy="306.0" r="3" fill="#9467bd"/>
<circle cx="433.1" cy="313.9" r="3" fill="#9467bd"/>
<circle cx="447.1" cy="315.3" r="3" fill="#9467bd"/>
<circle cx="461.0" cy="310.5" r="3" fill="#9467bd"/>
<circle cx="475.0" cy="316.9" r="3" fill="#9467bd"/>
<circle cx="516.9" cy="316.3" r="3" fill="#9467bd"/>
<circle cx="530.9" cy="314.8" r="3" fill="#9467bd"/>
<circle cx="544.8" cy="314.8" r="3" fill="#9467bd"/>
<circle cx="558.8" cy="315.1" r="3" fill="#9467bd"/>
<circle cx="572.8" cy="315.2" r="3" fill="#9467bd"/>
<circle cx="586.7" cy="314.1" r="3" fill="#9467bd"/>
<circle cx="600.7" cy="311.9" r="3" fill="#9467bd"/>
<circle cx="614.7" cy="316.5" r="3" fill="#9467bd"/>
<circle cx="628.6" cy="316.1" r="3" fill="#9467bd"/>
<circle cx="642.6" cy="316.0" r="3" fill="#9467bd"/>
<circle cx="656.6" cy="312.9" r="3" fill="#9467bd"/>
<circle cx="670.5" cy="314.0" r="3" fill="#9467bd"/>
<circle cx="684.5" cy="316.3" r="3" fill="#9467bd"/>
<circle cx="698.4" cy="313.4" r="3" fill="#9467bd"/>
<circle cx="712.4" cy="316.9" r="3" fill="#9467bd"/>
<circle cx="726.4" cy="312.3" r="3" fill="#9467bd"/>
<circle cx="740.3" cy="296.2" r="3" fill="#9467bd"/>
<circle cx="754.3" cy="290.3" r="3" fill="#9467bd"/>
<circle cx="768.3" cy="314.5" r="3" fill="#9467bd"/>
<circle cx="782.2" cy="315.0" r="3" fill="#9467bd"/>
<circle cx="796.2" cy="318.5" r="3" fill="#9467bd"/>
<circle cx="810.2" cy="289.0" r="3" fill="#9467bd"/>
<circle cx="824.1" cy="317.3" r="3" fill="#9467bd"/>
<circle cx="838.1" cy="316.3" r="3" fill="#9467bd"/>
<circle cx="852.1" cy="297.7" r="3" fill="#9467bd"/>
<circle cx="866.0" cy="313.5" r="3" fill="#9467bd"/>
<circle cx="880.0" cy="314.0" r="3" fill="#9467bd"/>
<rect x="610.0" y="358" width="10" height="10" fill="#9467bd"/>
<text x="624.0" y="367" font-size="11" fill="#333">lipsync first mouth</text>
<polyline points="195.7,318.5 251.6,314.7 265.5,318.1 279.5,318.0 293.4,318.8 307.4,312.5 321.4,318.8 335.3,314.5 349.3,318.9 363.3,318.7 377.2,311.9 391.2,318.2 405.2,318.5 419.1,311.1 433.1,317.5 447.1,317.9 461.0,316.7 475.0,318.9 516.9,318.7 530.9,318.6 544.8,318.2 558.8,318.2 572.8,318.6 586.7,317.8 600.7,318.8 614.7,318.3 628.6,318.3 642.6,319.3 656.6,315.9 670.5,318.6 684.5,319.7 698.4,317.7 712.4,319.3 726.4,319.1 740.3,320.4 754.3,320.3 768.3,318.2 782.2,319.1 796.2,318.8 810.2,319.7 824.1,316.8 838.1,319.5 852.1,319.7 866.0,318.9 880.0,318.2" fill="none" stroke="#8c564b" stroke-width="2"/>
<circle cx="195.7" cy="318.5" r="3" fill="#8c564b"/>
<circle cx="251.6" cy="314.7" r="3" fill="#8c564b"/>
<circle cx="265.5" cy="318.1" r="3" fill="#8c564b"/>
<circle cx="279.5" cy="318.0" r="3" fill="#8c564b"/>
<circle cx="293.4" cy="318.8" r="3" fill="#8c564b"/>
<circle cx="307.4" cy="312.5" r="3" fill="#8c564b"/>
<circle cx="321.4" cy="318.8" r="3" fill="#8c564b"/>
<circle cx="335.3" cy="314.5" r="3" fill="#8c564b"/>
<circle cx="349.3" cy="318.9" r="3" fill="#8c564b"/>
<circle cx="363.3" cy="318.7" r="3" fill="#8c564b"/>
<circle cx="377.2" cy="311.9" r="3" fill="#8c564b"/>
<circle cx="391.2" cy="318.2" r="3" fill="#8c564b"/>
<circle cx="405.2" cy="318.5" r="3" fill="#8c564b"/>
<circle cx="419.1" cy="311.1" r="3" fill="#8c564b"/>
<circle cx="433.1" cy="317.5" r="3" fill="#8c564b"/>
<circle cx="447.1" cy="317.9" r="3" fill="#8c564b"/>
<circle cx="461.0" cy="316.7" r="3" fill="#8c564b"/>
<circle cx="475.0" cy="318.9" r="3" fill="#8c564b"/>
<circle cx="516.9" cy="318.7" r="3" fill="#8c564b"/>
<circle cx="530.9" cy="318.6" r="3" fill="#8c564b"/>
<circle cx="544.8" cy="318.2" r="3" fill="#8c564b"/>
<circle cx="558.8" cy="318.2" r="3" fill="#8c564b"/>
<circle cx="572.8" cy="318.6" r="3" fill="#8c564b"/>
<circle cx="586.7" cy="317.8" r="3" fill="#8c564b"/>
<circle cx="600.7" cy="318.8" r="3" fill="#8c564b"/>
<circle cx="614.7" cy="318.3" r="3" fill="#8c564b"/>
<circle cx="628.6" cy="318.3" r="3" fill="#8c564b"/>
<circle cx="642.6" cy="319.3" r="3" fill="#8c564b"/>
<circle cx="656.6" cy="315.9" r="3" fill="#8c564b"/>
<circle cx="670.5" cy="318.6" r="3" fill="#8c564b"/>
<circle cx="684.5" cy="319.7" r="3" fill="#8c564b"/>
<circle cx="698.4" cy="317.7" r="3" fill="#8c564b"/>
<circle cx="712.4" cy="319.3" r="3" fill="#8c564b"/>
<circle cx="726.4" cy="319.1" r="3" fill="#8c564b"/>
<circle cx="740.3" cy="320.4" r="3" fill="#8c564b"/>
<circle cx="754.3" cy="320.3" r="3" fill="#8c564b"/>
<circle cx="768.3" cy="318.2" r="3" fill="#8c564b"/>
<circle cx="782.2" cy="319.1" r="3" fill="#8c564b"/>
<circle cx="796.2" cy="318.8" r="3" fill="#8c564b"/>
<circle cx="810.2" cy="319.7" r="3" fill="#8c564b"/>
<circle cx="824.1" cy="316.8" r="3" fill="#8c564b"/>
<circle cx="838.1" cy="319.5" r="3" fill="#8c564b"/>
<circle cx="852.1" cy="319.7" r="3" fill="#8c564b"/>
<circle cx="866.0" cy="318.9" r="3" fill="#8c564b"/>
<circle cx="880.0" cy="318.2" r="3" fill="#8c564b"/>
<rect x="745.0" y="358" width="10" height="10" fill="#8c564b"/>
<text x="759.0" y="367" font-size="11" fill="#333">render tick p95</text>
</svg>
