<svg xmlns="http://www.w3.org/2000/svg" width="900" height="380" viewBox="0 0 900 380" font-family="sans-serif">
<rect width="900" height="380" fill="white"/>
<text x="70" y="24" font-size="16" fill="#333">Latency (ms, p50 unless noted) — lower is better</text>
<line x1="70" y1="324.0" x2="880" y2="324.0" stroke="#e5e5e5"/>
<text x="64" y="328.0" font-size="11" fill="#666" text-anchor="end">0ms</text>
<line x1="70" y1="268.0" x2="880" y2="268.0" stroke="#e5e5e5"/>
<text x="64" y="272.0" font-size="11" fill="#666" text-anchor="end">1481ms</text>
<line x1="70" y1="212.0" x2="880" y2="212.0" stroke="#e5e5e5"/>
<text x="64" y="216.0" font-size="11" fill="#666" text-anchor="end">2963ms</text>
<line x1="70" y1="156.0" x2="880" y2="156.0" stroke="#e5e5e5"/>
<text x="64" y="160.0" font-size="11" fill="#666" text-anchor="end">4444ms</text>
<line x1="70" y1="100.0" x2="880" y2="100.0" stroke="#e5e5e5"/>
<text x="64" y="104.0" font-size="11" fill="#666" text-anchor="end">5925ms</text>
<line x1="70" y1="44.0" x2="880" y2="44.0" stroke="#e5e5e5"/>
<text x="64" y="48.0" font-size="11" fill="#666" text-anchor="end">7407ms</text>
<text x="70.0" y="342" font-size="11" fill="#666" text-anchor="start">07-16 16:02</text>
<text x="475.0" y="342" font-size="11" fill="#666" text-anchor="middle">07-17 16:30</text>
<text x="880.0" y="342" font-size="11" fill="#666" text-anchor="end">07-17 22:11</text>
<polyline points="70.0,217.7 87.6,227.9 122.8,203.6 140.4,277.5 158.0,167.6 175.7,238.1 193.3,172.1 210.9,214.4 228.5,167.1 246.1,251.0 263.7,170.5 281.3,265.2 298.9,240.0 316.5,194.2 334.1,237.5 351.7,232.3 369.3,238.8 387.0,246.5 404.6,234.7 422.2,174.8 439.8,240.9 457.4,214.4 475.0,64.7 492.6,245.0 510.2,220.8 527.8,276.4 545.4,269.9 563.0,274.6 580.7,281.8 598.3,316.3 615.9,285.1 633.5,292.2 651.1,283.0 668.7,300.1 686.3,293.0 703.9,206.2 721.5,292.0 739.1,223.6 756.7,294.7 774.3,296.4 792.0,260.6 809.6,292.8 827.2,290.2 844.8,290.1 862.4,286.4 880.0,287.0" fill="none" stroke="#d62728" stroke-width="2"/>
<circle cx="70.0" cy="217.7" r="3" fill="#d62728"/>
<circle cx="87.6" cy="227.9" r="3" fill="#d62728"/>
<circle cx="122.8" cy="203.6" r="3" fill="#d62728"/>
<circle cx="140.4" cy="277.5" r="3" fill="#d62728"/>
<circle cx="158.0" cy="167.6" r="3" fill="#d62728"/>
<circle cx="175.7" cy="238.1" r="3" fill="#d62728"/>
<circle cx="193.3" cy="172.1" r="3" fill="#d62728"/>
<circle cx="210.9" cy="214.4" r="3" fill="#d62728"/>
<circle cx="228.5" cy="167.1" r="3" fill="#d62728"/>
<circle cx="246.1" cy="251.0" r="3" fill="#d62728"/>
<circle cx="263.7" cy="170.5" r="3" fill="#d62728"/>
<circle cx="281.3" cy="265.2" r="3" fill="#d62728"/>
<circle cx="298.9" cy="240.0" r="3" fill="#d62728"/>
<circle cx="316.5" cy="194.2" r="3" fill="#d62728"/>
<circle cx="334.1" cy="237.5" r="3" fill="#d62728"/>
<circle cx="351.7" cy="232.3" r="3" fill="#d62728"/>
<circle cx="369.3" cy="238.8" r="3" fill="#d62728"/>
<circle cx="387.0" cy="246.5" r="3" fill="#d62728"/>
<circle cx="404.6" cy="234.7" r="3" fill="#d62728"/>
<circle cx="422.2" cy="174.8" r="3" fill="#d62728"/>
<circle cx="439.8" cy="240.9" r="3" fill="#d62728"/>
<circle cx="457.4" cy="214.4" r="3" fill="#d62728"/>
<circle cx="475.0" cy="64.7" r="3" fill="#d62728"/>
<circle cx="492.6" cy="245.0" r="3" fill="#d62728"/>
<circle cx="510.2" cy="220.8" r="3" fill="#d62728"/>
<circle cx="527.8" cy="276.4" r="3" fill="#d62728"/>
<circle cx="545.4" cy="269.9" r="3" fill="#d62728"/>
<circle cx="563.0" cy="274.6" r="3" fill="#d62728"/>
<circle cx="580.7" cy="281.8" r="3" fill="#d62728"/>
<circle cx="598.3" cy="316.3" r="3" fill="#d62728"/>
<circle cx="615.9" cy="285.1" r="3" fill="#d62728"/>
<circle cx="633.5" cy="292.2" r="3" fill="#d62728"/>
<circle cx="651.1" cy="283.0" r="3" fill="#d62728"/>
<circle cx="668.7" cy="300.1" r="3" fill="#d62728"/>
<circle cx="686.3" cy="293.0" r="3" fill="#d62728"/>
<circle cx="703.9" cy="206.2" r="3" fill="#d62728"/>
<circle cx="721.5" cy="292.0" r="3" fill="#d62728"/>
<circle cx="739.1" cy="223.6" r="3" fill="#d62728"/>
<circle cx="756.7" cy="294.7" r="3" fill="#d62728"/>
<circle cx="774.3" cy="296.4" r="3" fill="#d62728"/>
<circle cx="792.0" cy="260.6" r="3" fill="#d62728"/>
<circle cx="809.6" cy="292.8" r="3" fill="#d62728"/>
<circle cx="827.2" cy="290.2" r="3" fill="#d62728"/>
<circle cx="844.8" cy="290.1" r="3" fill="#d62728"/>
<circle cx="862.4" cy="286.4" r="3" fill="#d62728"/>
<circle cx="880.0" cy="287.0" r="3" fill="#d62728"/>
<rect x="70.0" y="358" width="10" height="10" fill="#d62728"/>
<text x="84.0" y="367" font-size="11" fill="#333">first audio (e2e)</text>
<polyline points="228.5,215.3 298.9,199.1 316.5,224.4 334.1,176.9 351.7,267.6 369.3,239.5 387.0,283.5 404.6,244.5 422.2,260.4 439.8,246.2 457.4,245.6 475.0,201.1 492.6,299.9 510.2,252.0 527.8,317.9 545.4,317.8 563.0,317.5 580.7,318.0 633.5,318.3 651.1,317.4 668.7,317.8 686.3,318.6 703.9,317.8 721.5,318.2 739.1,317.3 756.7,317.7 774.3,319.0 792.0,318.6 809.6,317.0 827.2,317.8 844.8,318.5 862.4,317.4 880.0,317.7" fill="none" stroke="#1f77b4" stroke-width="2"/>
<circle cx="228.5" cy="215.3" r="3" fill="#1f77b4"/>
<circle cx="298.9" cy="199.1" r="3" fill="#1f77b4"/>
<circle cx="316.5" cy="224.4" r="3" fill="#1f77b4"/>
<circle cx="334.1" cy="176.9" r="3" fill="#1f77b4"/>
<circle cx="351.7" cy="267.6" r="3" fill="#1f77b4"/>
<circle cx="369.3" cy="239.5" r="3" fill="#1f77b4"/>
<circle cx="387.0" cy="283.5" r="3" fill="#1f77b4"/>
<circle cx="404.6" cy="244.5" r="3" fill="#1f77b4"/>
<circle cx="422.2" cy="260.4" r="3" fill="#1f77b4"/>
<circle cx="439.8" cy="246.2" r="3" fill="#1f77b4"/>
<circle cx="457.4" cy="245.6" r="3" fill="#1f77b4"/>
<circle cx="475.0" cy="201.1" r="3" fill="#1f77b4"/>
<circle cx="492.6" cy="299.9" r="3" fill="#1f77b4"/>
<circle cx="510.2" cy="252.0" r="3" fill="#1f77b4"/>
<circle cx="527.8" cy="317.9" r="3" fill="#1f77b4"/>
<circle cx="545.4" cy="317.8" r="3" fill="#1f77b4"/>
<circle cx="563.0" cy="317.5" r="3" fill="#1f77b4"/>
<circle cx="580.7" cy="318.0" r="3" fill="#1f77b4"/>
<circle cx="633.5" cy="318.3" r="3" fill="#1f77b4"/>
<circle cx="651.1" cy="317.4" r="3" fill="#1f77b4"/>
<circle cx="668.7" cy="317.8" r="3" fill="#1f77b4"/>
<circle cx="686.3" cy="318.6" r="3" fill="#1f77b4"/>
<circle cx="703.9" cy="317.8" r="3" fill="#1f77b4"/>
<circle cx="721.5" cy="318.2" r="3" fill="#1f77b4"/>
<circle cx="739.1" cy="317.3" r="3" fill="#1f77b4"/>
<circle cx="756.7" cy="317.7" r="3" fill="#1f77b4"/>
<circle cx="774.3" cy="319.0" r="3" fill="#1f77b4"/>
<circle cx="792.0" cy="318.6" r="3" fill="#1f77b4"/>
<circle cx="809.6" cy="317.0" r="3" fill="#1f77b4"/>
<circle cx="827.2" cy="317.8" r="3" fill="#1f77b4"/>
<circle cx="844.8" cy="318.5" r="3" fill="#1f77b4"/>
<circle cx="862.4" cy="317.4" r="3" fill="#1f77b4"/>
<circle cx="880.0" cy="317.7" r="3" fill="#1f77b4"/>
<rect x="205.0" y="358" width="10" height="10" fill="#1f77b4"/>
<text x="219.0" y="367" font-size="11" fill="#333">tts first chunk</text>
<polyline points="228.5,298.0 298.9,298.0 316.5,307.7 369.3,287.9 387.0,307.5 404.6,307.7 439.8,300.5 457.4,298.4 492.6,304.7 510.2,305.1 527.8,306.6 545.4,304.3 563.0,291.3 633.5,304.1 703.9,262.6 756.7,311.0 774.3,312.2 792.0,308.2 844.8,308.0" fill="none" stroke="#ff7f0e" stroke-width="2"/>
<circle cx="228.5" cy="298.0" r="3" fill="#ff7f0e"/>
<circle cx="298.9" cy="298.0" r="3" fill="#ff7f0e"/>
<circle cx="316.5" cy="307.7" r="3" fill="#ff7f0e"/>
<circle cx="369.3" cy="287.9" r="3" fill="#ff7f0e"/>
<circle cx="387.0" cy="307.5" r="3" fill="#ff7f0e"/>
<circle cx="404.6" cy="307.7" r="3" fill="#ff7f0e"/>
<circle cx="439.8" cy="300.5" r="3" fill="#ff7f0e"/>
<circle cx="457.4" cy="298.4" r="3" fill="#ff7f0e"/>
<circle cx="492.6" cy="304.7" r="3" fill="#ff7f0e"/>
<circle cx="510.2" cy="305.1" r="3" fill="#ff7f0e"/>
<circle cx="527.8" cy="306.6" r="3" fill="#ff7f0e"/>
<circle cx="545.4" cy="304.3" r="3" fill="#ff7f0e"/>
<circle cx="563.0" cy="291.3" r="3" fill="#ff7f0e"/>
<circle cx="633.5" cy="304.1" r="3" fill="#ff7f0e"/>
<circle cx="703.9" cy="262.6" r="3" fill="#ff7f0e"/>
<circle cx="756.7" cy="311.0" r="3" fill="#ff7f0e"/>
<circle cx="774.3" cy="312.2" r="3" fill="#ff7f0e"/>
<circle cx="792.0" cy="308.2" r="3" fill="#ff7f0e"/>
<circle cx="844.8" cy="308.0" r="3" fill="#ff7f0e"/>
<rect x="340.0" y="358" width="10" height="10" fill="#ff7f0e"/>
<text x="354.0" y="367" font-size="11" fill="#333">llm ttft</text>
<polyline points="70.0,297.1 87.6,301.1 122.8,298.1 140.4,298.0 158.0,303.1 193.3,274.4 210.9,281.5 228.5,241.9 298.9,243.2 316.5,286.5 334.1,268.6 351.7,306.2 369.3,280.2 387.0,306.0 404.6,297.3 422.2,269.3 439.8,299.0 457.4,267.5 475.0,275.1 492.6,303.3 510.2,253.3 527.8,280.5 545.4,282.8 563.0,272.0 580.7,296.7 633.5,299.6 651.1,301.6 668.7,312.5 686.3,300.5 703.9,169.3 721.5,296.2 739.1,240.3 756.7,307.0 774.3,310.0 792.0,275.8 809.6,305.7 827.2,304.6 844.8,303.7 862.4,297.4 880.0,297.4" fill="none" stroke="#2ca02c" stroke-width="2"/>
<circle cx="70.0" cy="297.1" r="3" fill="#2ca02c"/>
<circle cx="87.6" cy="301.1" r="3" fill="#2ca02c"/>
<circle cx="122.8" cy="298.1" r="3" fill="#2ca02c"/>
<circle cx="140.4" cy="298.0" r="3" fill="#2ca02c"/>
<circle cx="158.0" cy="303.1" r="3" fill="#2ca02c"/>
<circle cx="193.3" cy="274.4" r="3" fill="#2ca02c"/>
<circle cx="210.9" cy="281.5" r="3" fill="#2ca02c"/>
<circle cx="228.5" cy="241.9" r="3" fill="#2ca02c"/>
<circle cx="298.9" cy="243.2" r="3" fill="#2ca02c"/>
<circle cx="316.5" cy="286.5" r="3" fill="#2ca02c"/>
<circle cx="334.1" cy="268.6" r="3" fill="#2ca02c"/>
<circle cx="351.7" cy="306.2" r="3" fill="#2ca02c"/>
<circle cx="369.3" cy="280.2" r="3" fill="#2ca02c"/>
<circle cx="387.0" cy="306.0" r="3" fill="#2ca02c"/>
<circle cx="404.6" cy="297.3" r="3" fill="#2ca02c"/>
<circle cx="422.2" cy="269.3" r="3" fill="#2ca02c"/>
<circle cx="439.8" cy="299.0" r="3" fill="#2ca02c"/>
<circle cx="457.4" cy="267.5" r="3" fill="#2ca02c"/>
<circle cx="475.0" cy="275.1" r="3" fill="#2ca02c"/>
<circle cx="492.6" cy="303.3" r="3" fill="#2ca02c"/>
<circle cx="510.2" cy="253.3" r="3" fill="#2ca02c"/>
<circle cx="527.8" cy="280.5" r="3" fill="#2ca02c"/>
<circle cx="545.4" cy="282.8" r="3" fill="#2ca02c"/>
<circle cx="563.0" cy="272.0" r="3" fill="#2ca02c"/>
<circle cx="580.7" cy="296.7" r="3" fill="#2ca02c"/>
<circle cx="633.5" cy="299.6" r="3" fill="#2ca02c"/>
<circle cx="651.1" cy="301.6" r="3" fill="#2ca02c"/>
<circle cx="668.7" cy="312.5" r="3" fill="#2ca02c"/>
<circle cx="686.3" cy="300.5" r="3" fill="#2ca02c"/>
<circle cx="703.9" cy="169.3" r="3" fill="#2ca02c"/>
<circle cx="721.5" cy="296.2" r="3" fill="#2ca02c"/>
<circle cx="739.1" cy="240.3" r="3" fill="#2ca02c"/>
<circle cx="756.7" cy="307.0" r="3" fill="#2ca02c"/>
<circle cx="774.3" cy="310.0" r="3" fill="#2ca02c"/>
<circle cx="792.0" cy="275.8" r="3" fill="#2ca02c"/>
<circle cx="809.6" cy="305.7" r="3" fill="#2ca02c"/>
<circle cx="827.2" cy="304.6" r="3" fill="#2ca02c"/>
<circle cx="844.8" cy="303.7" r="3" fill="#2ca02c"/>
<circle cx="862.4" cy="297.4" r="3" fill="#2ca02c"/>
<circle cx="880.0" cy="297.4" r="3" fill="#2ca02c"/>
<rect x="475.0" y="358" width="10" height="10" fill="#2ca02c"/>
<text x="489.0" y="367" font-size="11" fill="#333">llm first sentence</text>
<polyline points="70.0,311.1 87.6,313.5 105.2,311.5 122.8,312.5 140.4,305.2 158.0,313.0 193.3,306.1 210.9,304.1 228.5,308.6 298.9,305.6 316.5,310.6 334.1,306.4 351.7,314.9 369.3,315.0 387.0,315.6 404.6,307.9 422.2,313.9 439.8,315.7 457.4,312.8 475.0,306.0 492.6,316.6 510.2,306.0 527.8,313.9 545.4,315.3 563.0,310.5 580.7,316.9 633.5,316.3 651.1,314.8 668.7,314.8 686.3,315.1 703.9,315.2 721.5,314.1 739.1,311.9 756.7,316.5 774.3,316.1 792.0,316.0 809.6,312.9 827.2,314.0 844.8,316.3 862.4,313.4 880.0,316.9" fill="none" stroke="#9467bd" stroke-width="2"/>
<circle cx="70.0" cy="311.1" r="3" fill="#9467bd"/>
<circle cx="87.6" cy="313.5" r="3" fill="#9467bd"/>
<circle cx="105.2" cy="311.5" r="3" fill="#9467bd"/>
<circle cx="122.8" cy="312.5" r="3" fill="#9467bd"/>
<circle cx="140.4" cy="305.2" r="3" fill="#9467bd"/>
<circle cx="158.0" cy="313.0" r="3" fill="#9467bd"/>
<circle cx="193.3" cy="306.1" r="3" fill="#9467bd"/>
<circle cx="210.9" cy="304.1" r="3" fill="#9467bd"/>
<circle cx="228.5" cy="308.6" r="3" fill="#9467bd"/>
<circle cx="298.9" cy="305.6" r="3" fill="#9467bd"/>
<circle cx="316.5" cy="310.6" r="3" fill="#9467bd"/>
<circle cx="334.1" cy="306.4" r="3" fill="#9467bd"/>
<circle cx="351.7" cy="314.9" r="3" fill="#9467bd"/>
<circle cx="369.3" cy="315.0" r="3" fill="#9467bd"/>
<circle cx="387.0" cy="315.6" r="3" fill="#9467bd"/>
<circle cx="404.6" cy="307.9" r="3" fill="#9467bd"/>
<circle cx="422.2" cy="313.9" r="3" fill="#9467bd"/>
<circle cx="439.8" cy="315.7" r="3" fill="#9467bd"/>
<circle cx="457.4" cy="312.8" r="3" fill="#9467bd"/>
<circle cx="475.0" cy="306.0" r="3" fill="#9467bd"/>
<circle cx="492.6" cy="316.6" r="3" fill="#9467bd"/>
<circle cx="510.2" cy="306.0" r="3" fill="#9467bd"/>
<circle cx="527.8" cy="313.9" r="3" fill="#9467bd"/>
<circle cx="545.4" cy="315.3" r="3" fill="#9467bd"/>
<circle cx="563.0" cy="310.5" r="3" fill="#9467bd"/>
<circle cx="580.7" cy="316.9" r="3" fill="#9467bd"/>
<circle cx="633.5" cy="316.3" r="3" fill="#9467bd"/>
<circle cx="651.1" cy="314.8" r="3" fill="#9467bd"/>
<circle cx="668.7" cy="314.8" r="3" fill="#9467bd"/>
<circle cx="686.3" cy="315.1" r="3" fill="#9467bd"/>
<circle cx="703.9" cy="315.2" r="3" fill="#9467bd"/>
<circle cx="721.5" cy="314.1" r="3" fill="#9467bd"/>
<circle cx="739.1" cy="311.9" r="3" fill="#9467bd"/>
<circle cx="756.7" cy="316.5" r="3" fill="#9467bd"/>
<circle cx="774.3" cy="316.1" r="3" fill="#9467bd"/>
<circle cx="792.0" cy="316.0" r="3" fill="#9467bd"/>
<circle cx="809.6" cy="312.9" r="3" fill="#9467bd"/>
<circle cx="827.2" cy="314.0" r="3" fill="#9467bd"/>
<circle cx="844.8" cy="316.3" r="3" fill="#9467bd"/>
<circle cx="862.4" cy="313.4" r="3" fill="#9467bd"/>
<circle cx="880.0" cy="316.9" r="3" fill="#9467bd"/>
<rect x="610.0" y="358" width="10" height="10" fill="#9467bd"/>
<text x="624.0" y="367" font-size="11" fill="#333">lipsync first mouth</text>
<polyline points="228.5,318.5 298.9,314.7 316.5,318.1 334.1,318.0 351.7,318.8 369.3,312.5 387.0,318.8 404.6,314.5 422.2,318.9 439.8,318.7 457.4,311.9 475.0,318.2 492.6,318.5 510.2,311.1 527.8,317.5 545.4,317.9 563.0,316.7 580.7,318.9 633.5,318.7 651.1,318.6 668.7,318.2 686.3,318.2 703.9,318.6 721.5,317.8 739.1,318.8 756.7,318.3 774.3,318.3 792.0,319.3 809.6,315.9 827.2,318.6 844.8,319.7 862.4,317.7 880.0,319.3" fill="none" stroke="#8c564b" stroke-width="2"/>
<circle cx="228.5" cy="318.5" r="3" fill="#8c564b"/>
<circle cx="298.9" cy="314.7" r="3" fill="#8c564b"/>
<circle cx="316.5" cy="318.1" r="3" fill="#8c564b"/>
<circle cx="334.1" cy="318.0" r="3" fill="#8c564b"/>
<circle cx="351.7" cy="318.8" r="3" fill="#8c564b"/>
<circle cx="369.3" cy="312.5" r="3" fill="#8c564b"/>
<circle cx="387.0" cy="318.8" r="3" fill="#8c564b"/>
<circle cx="404.6" cy="314.5" r="3" fill="#8c564b"/>
<circle cx="422.2" cy="318.9" r="3" fill="#8c564b"/>
<circle cx="439.8" cy="318.7" r="3" fill="#8c564b"/>
<circle cx="457.4" cy="311.9" r="3" fill="#8c564b"/>
<circle cx="475.0" cy="318.2" r="3" fill="#8c564b"/>
<circle cx="492.6" cy="318.5" r="3" fill="#8c564b"/>
<circle cx="510.2" cy="311.1" r="3" fill="#8c564b"/>
<circle cx="527.8" cy="317.5" r="3" fill="#8c564b"/>
<circle cx="545.4" cy="317.9" r="3" fill="#8c564b"/>
<circle cx="563.0" cy="316.7" r="3" fill="#8c564b"/>
<circle cx="580.7" cy="318.9" r="3" fill="#8c564b"/>
<circle cx="633.5" cy="318.7" r="3" fill="#8c564b"/>
<circle cx="651.1" cy="318.6" r="3" fill="#8c564b"/>
<circle cx="668.7" cy="318.2" r="3" fill="#8c564b"/>
<circle cx="686.3" cy="318.2" r="3" fill="#8c564b"/>
<circle cx="703.9" cy="318.6" r="3" fill="#8c564b"/>
<circle cx="721.5" cy="317.8" r="3" fill="#8c564b"/>
<circle cx="739.1" cy="318.8" r="3" fill="#8c564b"/>
<circle cx="756.7" cy="318.3" r="3" fill="#8c564b"/>
<circle cx="774.3" cy="318.3" r="3" fill="#8c564b"/>
<circle cx="792.0" cy="319.3" r="3" fill="#8c564b"/>
<circle cx="809.6" cy="315.9" r="3" fill="#8c564b"/>
<circle cx="827.2" cy="318.6" r="3" fill="#8c564b"/>
<circle cx="844.8" cy="319.7" r="3" fill="#8c564b"/>
<circle cx="862.4" cy="317.7" r="3" fill="#8c564b"/>
<circle cx="880.0" cy="319.3" r="3" fill="#8c564b"/>
<rect x="745.0" y="358" width="10" height="10" fill="#8c564b"/>
<text x="759.0" y="367" font-size="11" fill="#333">render tick p95</text>
</svg>
