<svg xmlns="http://www.w3.org/2000/svg" width="900" height="380" viewBox="0 0 900 380" font-family="sans-serif">
<rect width="900" height="380" fill="white"/>
<text x="70" y="24" font-size="16" fill="#333">Latency (ms, p50 unless noted) — lower is better</text>
<line x1="70" y1="324.0" x2="880" y2="324.0" stroke="#e5e5e5"/>
<text x="64" y="328.0" font-size="11" fill="#666" text-anchor="end">0ms</text>
<line x1="70" y1="268.0" x2="880" y2="268.0" stroke="#e5e5e5"/>
<text x="64" y="272.0" font-size="11" fill="#666" text-anchor="end">1481ms</text>
<line x1="70" y1="212.0" x2="880" y2="212.0" stroke="#e5e5e5"/>
<text x="64" y="216.0" font-size="11" fill="#666" text-anchor="end">2963ms</text>
<line x1="70" y1="156.0" x2="880" y2="156.0" stroke="#e5e5e5"/>
<text x="64" y="160.0" font-size="11" fill="#666" text-anchor="end">4444ms</text>
<line x1="70" y1="100.0" x2="880" y2="100.0" stroke="#e5e5e5"/>
<text x="64" y="104.0" font-size="11" fill="#666" text-anchor="end">5925ms</text>
<line x1="70" y1="44.0" x2="880" y2="44.0" stroke="#e5e5e5"/>
<text x="64" y="48.0" font-size="11" fill="#666" text-anchor="end">7407ms</text>
<text x="70.0" y="342" font-size="11" fill="#666" text-anchor="start">07-16 16:02</text>
<text x="475.0" y="342" font-size="11" fill="#666" text-anchor="middle">07-17 18:46</text>
<text x="880.0" y="342" font-size="11" fill="#666" text-anchor="end">07-18 08:37</text>
<polyline points="70.0,217.7 85.6,227.9 116.7,203.6 132.3,277.5 147.9,167.6 163.5,238.1 179.0,172.1 194.6,214.4 210.2,167.1 225.8,251.0 241.3,170.5 256.9,265.2 272.5,240.0 288.1,194.2 303.7,237.5 319.2,232.3 334.8,238.8 350.4,246.5 366.0,234.7 381.5,174.8 397.1,240.9 412.7,214.4 428.3,64.7 443.8,245.0 459.4,220.8 475.0,276.4 490.6,269.9 506.2,274.6 521.7,281.8 537.3,316.3 552.9,285.1 568.5,292.2 584.0,283.0 599.6,300.1 615.2,293.0 630.8,206.2 646.3,292.0 661.9,223.6 677.5,294.7 693.1,296.4 708.7,260.6 724.2,292.8 739.8,290.2 755.4,290.1 771.0,286.4 786.5,287.0 802.1,292.4 817.7,292.8 833.3,290.6 848.8,279.0 864.4,291.3 880.0,279.4" fill="none" stroke="#d62728" stroke-width="2"/>
<circle cx="70.0" cy="217.7" r="3" fill="#d62728"/>
<circle cx="85.6" cy="227.9" r="3" fill="#d62728"/>
<circle cx="116.7" cy="203.6" r="3" fill="#d62728"/>
<circle cx="132.3" cy="277.5" r="3" fill="#d62728"/>
<circle cx="147.9" cy="167.6" r="3" fill="#d62728"/>
<circle cx="163.5" cy="238.1" r="3" fill="#d62728"/>
<circle cx="179.0" cy="172.1" r="3" fill="#d62728"/>
<circle cx="194.6" cy="214.4" r="3" fill="#d62728"/>
<circle cx="210.2" cy="167.1" r="3" fill="#d62728"/>
<circle cx="225.8" cy="251.0" r="3" fill="#d62728"/>
<circle cx="241.3" cy="170.5" r="3" fill="#d62728"/>
<circle cx="256.9" cy="265.2" r="3" fill="#d62728"/>
<circle cx="272.5" cy="240.0" r="3" fill="#d62728"/>
<circle cx="288.1" cy="194.2" r="3" fill="#d62728"/>
<circle cx="303.7" cy="237.5" r="3" fill="#d62728"/>
<circle cx="319.2" cy="232.3" r="3" fill="#d62728"/>
<circle cx="334.8" cy="238.8" r="3" fill="#d62728"/>
<circle cx="350.4" cy="246.5" r="3" fill="#d62728"/>
<circle cx="366.0" cy="234.7" r="3" fill="#d62728"/>
<circle cx="381.5" cy="174.8" r="3" fill="#d62728"/>
<circle cx="397.1" cy="240.9" r="3" fill="#d62728"/>
<circle cx="412.7" cy="214.4" r="3" fill="#d62728"/>
<circle cx="428.3" cy="64.7" r="3" fill="#d62728"/>
<circle cx="443.8" cy="245.0" r="3" fill="#d62728"/>
<circle cx="459.4" cy="220.8" r="3" fill="#d62728"/>
<circle cx="475.0" cy="276.4" r="3" fill="#d62728"/>
<circle cx="490.6" cy="269.9" r="3" fill="#d62728"/>
<circle cx="506.2" cy="274.6" r="3" fill="#d62728"/>
<circle cx="521.7" cy="281.8" r="3" fill="#d62728"/>
<circle cx="537.3" cy="316.3" r="3" fill="#d62728"/>
<circle cx="552.9" cy="285.1" r="3" fill="#d62728"/>
<circle cx="568.5" cy="292.2" r="3" fill="#d62728"/>
<circle cx="584.0" cy="283.0" r="3" fill="#d62728"/>
<circle cx="599.6" cy="300.1" r="3" fill="#d62728"/>
<circle cx="615.2" cy="293.0" r="3" fill="#d62728"/>
<circle cx="630.8" cy="206.2" r="3" fill="#d62728"/>
<circle cx="646.3" cy="292.0" r="3" fill="#d62728"/>
<circle cx="661.9" cy="223.6" r="3" fill="#d62728"/>
<circle cx="677.5" cy="294.7" r="3" fill="#d62728"/>
<circle cx="693.1" cy="296.4" r="3" fill="#d62728"/>
<circle cx="708.7" cy="260.6" r="3" fill="#d62728"/>
<circle cx="724.2" cy="292.8" r="3" fill="#d62728"/>
<circle cx="739.8" cy="290.2" r="3" fill="#d62728"/>
<circle cx="755.4" cy="290.1" r="3" fill="#d62728"/>
<circle cx="771.0" cy="286.4" r="3" fill="#d62728"/>
<circle cx="786.5" cy="287.0" r="3" fill="#d62728"/>
<circle cx="802.1" cy="292.4" r="3" fill="#d62728"/>
<circle cx="817.7" cy="292.8" r="3" fill="#d62728"/>
<circle cx="833.3" cy="290.6" r="3" fill="#d62728"/>
<circle cx="848.8" cy="279.0" r="3" fill="#d62728"/>
<circle cx="864.4" cy="291.3" r="3" fill="#d62728"/>
<circle cx="880.0" cy="279.4" r="3" fill="#d62728"/>
<rect x="70.0" y="358" width="10" height="10" fill="#d62728"/>
<text x="84.0" y="367" font-size="11" fill="#333">first audio (e2e)</text>
<polyline points="210.2,215.3 272.5,199.1 288.1,224.4 303.7,176.9 319.2,267.6 334.8,239.5 350.4,283.5 366.0,244.5 381.5,260.4 397.1,246.2 412.7,245.6 428.3,201.1 443.8,299.9 459.4,252.0 475.0,317.9 490.6,317.8 506.2,317.5 521.7,318.0 568.5,318.3 584.0,317.4 599.6,317.8 615.2,318.6 630.8,317.8 646.3,318.2 661.9,317.3 677.5,317.7 693.1,319.0 708.7,318.6 724.2,317.0 739.8,317.8 755.4,318.5 771.0,317.4 786.5,317.7 802.1,317.1 817.7,300.8 833.3,295.2 848.8,317.5 864.4,317.1" fill="none" stroke="#1f77b4" stroke-width="2"/>
<circle cx="210.2" cy="215.3" r="3" fill="#1f77b4"/>
<circle cx="272.5" cy="199.1" r="3" fill="#1f77b4"/>
<circle cx="288.1" cy="224.4" r="3" fill="#1f77b4"/>
<circle cx="303.7" cy="176.9" r="3" fill="#1f77b4"/>
<circle cx="319.2" cy="267.6" r="3" fill="#1f77b4"/>
<circle cx="334.8" cy="239.5" r="3" fill="#1f77b4"/>
<circle cx="350.4" cy="283.5" r="3" fill="#1f77b4"/>
<circle cx="366.0" cy="244.5" r="3" fill="#1f77b4"/>
<circle cx="381.5" cy="260.4" r="3" fill="#1f77b4"/>
<circle cx="397.1" cy="246.2" r="3" fill="#1f77b4"/>
<circle cx="412.7" cy="245.6" r="3" fill="#1f77b4"/>
<circle cx="428.3" cy="201.1" r="3" fill="#1f77b4"/>
<circle cx="443.8" cy="299.9" r="3" fill="#1f77b4"/>
<circle cx="459.4" cy="252.0" r="3" fill="#1f77b4"/>
<circle cx="475.0" cy="317.9" r="3" fill="#1f77b4"/>
<circle cx="490.6" cy="317.8" r="3" fill="#1f77b4"/>
<circle cx="506.2" cy="317.5" r="3" fill="#1f77b4"/>
<circle cx="521.7" cy="318.0" r="3" fill="#1f77b4"/>
<circle cx="568.5" cy="318.3" r="3" fill="#1f77b4"/>
<circle cx="584.0" cy="317.4" r="3" fill="#1f77b4"/>
<circle cx="599.6" cy="317.8" r="3" fill="#1f77b4"/>
<circle cx="615.2" cy="318.6" r="3" fill="#1f77b4"/>
<circle cx="630.8" cy="317.8" r="3" fill="#1f77b4"/>
<circle cx="646.3" cy="318.2" r="3" fill="#1f77b4"/>
<circle cx="661.9" cy="317.3" r="3" fill="#1f77b4"/>
<circle cx="677.5" cy="317.7" r="3" fill="#1f77b4"/>
<circle cx="693.1" cy="319.0" r="3" fill="#1f77b4"/>
<circle cx="708.7" cy="318.6" r="3" fill="#1f77b4"/>
<circle cx="724.2" cy="317.0" r="3" fill="#1f77b4"/>
<circle cx="739.8" cy="317.8" r="3" fill="#1f77b4"/>
<circle cx="755.4" cy="318.5" r="3" fill="#1f77b4"/>
<circle cx="771.0" cy="317.4" r="3" fill="#1f77b4"/>
<circle cx="786.5" cy="317.7" r="3" fill="#1f77b4"/>
<circle cx="802.1" cy="317.1" r="3" fill="#1f77b4"/>
<circle cx="817.7" cy="300.8" r="3" fill="#1f77b4"/>
<circle cx="833.3" cy="295.2" r="3" fill="#1f77b4"/>
<circle cx="848.8" cy="317.5" r="3" fill="#1f77b4"/>
<circle cx="864.4" cy="317.1" r="3" fill="#1f77b4"/>
<rect x="205.0" y="358" width="10" height="10" fill="#1f77b4"/>
<text x="219.0" y="367" font-size="11" fill="#333">tts first chunk</text>
<polyline points="210.2,298.0 272.5,298.0 288.1,307.7 334.8,287.9 350.4,307.5 366.0,307.7 397.1,300.5 412.7,298.4 443.8,304.7 459.4,305.1 475.0,306.6 490.6,304.3 506.2,291.3 568.5,304.1 630.8,262.6 677.5,311.0 693.1,312.2 708.7,308.2 755.4,308.0 817.7,313.3 833.3,311.0 848.8,307.6 864.4,306.7" fill="none" stroke="#ff7f0e" stroke-width="2"/>
<circle cx="210.2" cy="298.0" r="3" fill="#ff7f0e"/>
<circle cx="272.5" cy="298.0" r="3" fill="#ff7f0e"/>
<circle cx="288.1" cy="307.7" r="3" fill="#ff7f0e"/>
<circle cx="334.8" cy="287.9" r="3" fill="#ff7f0e"/>
<circle cx="350.4" cy="307.5" r="3" fill="#ff7f0e"/>
<circle cx="366.0" cy="307.7" r="3" fill="#ff7f0e"/>
<circle cx="397.1" cy="300.5" r="3" fill="#ff7f0e"/>
<circle cx="412.7" cy="298.4" r="3" fill="#ff7f0e"/>
<circle cx="443.8" cy="304.7" r="3" fill="#ff7f0e"/>
<circle cx="459.4" cy="305.1" r="3" fill="#ff7f0e"/>
<circle cx="475.0" cy="306.6" r="3" fill="#ff7f0e"/>
<circle cx="490.6" cy="304.3" r="3" fill="#ff7f0e"/>
<circle cx="506.2" cy="291.3" r="3" fill="#ff7f0e"/>
<circle cx="568.5" cy="304.1" r="3" fill="#ff7f0e"/>
<circle cx="630.8" cy="262.6" r="3" fill="#ff7f0e"/>
<circle cx="677.5" cy="311.0" r="3" fill="#ff7f0e"/>
<circle cx="693.1" cy="312.2" r="3" fill="#ff7f0e"/>
<circle cx="708.7" cy="308.2" r="3" fill="#ff7f0e"/>
<circle cx="755.4" cy="308.0" r="3" fill="#ff7f0e"/>
<circle cx="817.7" cy="313.3" r="3" fill="#ff7f0e"/>
<circle cx="833.3" cy="311.0" r="3" fill="#ff7f0e"/>
<circle cx="848.8" cy="307.6" r="3" fill="#ff7f0e"/>
<circle cx="864.4" cy="306.7" r="3" fill="#ff7f0e"/>
<rect x="340.0" y="358" width="10" height="10" fill="#ff7f0e"/>
<text x="354.0" y="367" font-size="11" fill="#333">llm ttft</text>
<polyline points="70.0,297.1 85.6,301.1 116.7,298.1 132.3,298.0 147.9,303.1 179.0,274.4 194.6,281.5 210.2,241.9 272.5,243.2 288.1,286.5 303.7,268.6 319.2,306.2 334.8,280.2 350.4,306.0 366.0,297.3 381.5,269.3 397.1,299.0 412.7,267.5 428.3,275.1 443.8,303.3 459.4,253.3 475.0,280.5 490.6,282.8 506.2,272.0 521.7,296.7 568.5,299.6 584.0,301.6 599.6,312.5 615.2,300.5 630.8,169.3 646.3,296.2 661.9,240.3 677.5,307.0 693.1,310.0 708.7,275.8 724.2,305.7 739.8,304.6 755.4,303.7 771.0,297.4 786.5,297.4 802.1,306.8 817.7,306.3 833.3,305.5 848.8,293.1 864.4,303.2" fill="none" stroke="#2ca02c" stroke-width="2"/>
<circle cx="70.0" cy="297.1" r="3" fill="#2ca02c"/>
<circle cx="85.6" cy="301.1" r="3" fill="#2ca02c"/>
<circle cx="116.7" cy="298.1" r="3" fill="#2ca02c"/>
<circle cx="132.3" cy="298.0" r="3" fill="#2ca02c"/>
<circle cx="147.9" cy="303.1" r="3" fill="#2ca02c"/>
<circle cx="179.0" cy="274.4" r="3" fill="#2ca02c"/>
<circle cx="194.6" cy="281.5" r="3" fill="#2ca02c"/>
<circle cx="210.2" cy="241.9" r="3" fill="#2ca02c"/>
<circle cx="272.5" cy="243.2" r="3" fill="#2ca02c"/>
<circle cx="288.1" cy="286.5" r="3" fill="#2ca02c"/>
<circle cx="303.7" cy="268.6" r="3" fill="#2ca02c"/>
<circle cx="319.2" cy="306.2" r="3" fill="#2ca02c"/>
<circle cx="334.8" cy="280.2" r="3" fill="#2ca02c"/>
<circle cx="350.4" cy="306.0" r="3" fill="#2ca02c"/>
<circle cx="366.0" cy="297.3" r="3" fill="#2ca02c"/>
<circle cx="381.5" cy="269.3" r="3" fill="#2ca02c"/>
<circle cx="397.1" cy="299.0" r="3" fill="#2ca02c"/>
<circle cx="412.7" cy="267.5" r="3" fill="#2ca02c"/>
<circle cx="428.3" cy="275.1" r="3" fill="#2ca02c"/>
<circle cx="443.8" cy="303.3" r="3" fill="#2ca02c"/>
<circle cx="459.4" cy="253.3" r="3" fill="#2ca02c"/>
<circle cx="475.0" cy="280.5" r="3" fill="#2ca02c"/>
<circle cx="490.6" cy="282.8" r="3" fill="#2ca02c"/>
<circle cx="506.2" cy="272.0" r="3" fill="#2ca02c"/>
<circle cx="521.7" cy="296.7" r="3" fill="#2ca02c"/>
<circle cx="568.5" cy="299.6" r="3" fill="#2ca02c"/>
<circle cx="584.0" cy="301.6" r="3" fill="#2ca02c"/>
<circle cx="599.6" cy="312.5" r="3" fill="#2ca02c"/>
<circle cx="615.2" cy="300.5" r="3" fill="#2ca02c"/>
<circle cx="630.8" cy="169.3" r="3" fill="#2ca02c"/>
<circle cx="646.3" cy="296.2" r="3" fill="#2ca02c"/>
<circle cx="661.9" cy="240.3" r="3" fill="#2ca02c"/>
<circle cx="677.5" cy="307.0" r="3" fill="#2ca02c"/>
<circle cx="693.1" cy="310.0" r="3" fill="#2ca02c"/>
<circle cx="708.7" cy="275.8" r="3" fill="#2ca02c"/>
<circle cx="724.2" cy="305.7" r="3" fill="#2ca02c"/>
<circle cx="739.8" cy="304.6" r="3" fill="#2ca02c"/>
<circle cx="755.4" cy="303.7" r="3" fill="#2ca02c"/>
<circle cx="771.0" cy="297.4" r="3" fill="#2ca02c"/>
<circle cx="786.5" cy="297.4" r="3" fill="#2ca02c"/>
<circle cx="802.1" cy="306.8" r="3" fill="#2ca02c"/>
<circle cx="817.7" cy="306.3" r="3" fill="#2ca02c"/>
<circle cx="833.3" cy="305.5" r="3" fill="#2ca02c"/>
<circle cx="848.8" cy="293.1" r="3" fill="#2ca02c"/>
<circle cx="864.4" cy="303.2" r="3" fill="#2ca02c"/>
<rect x="475.0" y="358" width="10" height="10" fill="#2ca02c"/>
<text x="489.0" y="367" font-size="11" fill="#333">llm first sentence</text>
<polyline points="70.0,311.1 85.6,313.5 101.2,311.5 116.7,312.5 132.3,305.2 147.9,313.0 179.0,306.1 194.6,304.1 210.2,308.6 272.5,305.6 288.1,310.6 303.7,306.4 319.2,314.9 334.8,315.0 350.4,315.6 366.0,307.9 381.5,313.9 397.1,315.7 412.7,312.8 428.3,306.0 443.8,316.6 459.4,306.0 475.0,313.9 490.6,315.3 506.2,310.5 521.7,316.9 568.5,316.3 584.0,314.8 599.6,314.8 615.2,315.1 630.8,315.2 646.3,314.1 661.9,311.9 677.5,316.5 693.1,316.1 708.7,316.0 724.2,312.9 739.8,314.0 755.4,316.3 771.0,313.4 786.5,316.9 802.1,312.3 817.7,296.2 833.3,290.3 848.8,314.5 864.4,315.0 880.0,318.5" fill="none" stroke="#9467bd" stroke-width="2"/>
<circle cx="70.0" cy="311.1" r="3" fill="#9467bd"/>
<circle cx="85.6" cy="313.5" r="3" fill="#9467bd"/>
<circle cx="101.2" cy="311.5" r="3" fill="#9467bd"/>
<circle cx="116.7" cy="312.5" r="3" fill="#9467bd"/>
<circle cx="132.3" cy="305.2" r="3" fill="#9467bd"/>
<circle cx="147.9" cy="313.0" r="3" fill="#9467bd"/>
<circle cx="179.0" cy="306.1" r="3" fill="#9467bd"/>
<circle cx="194.6" cy="304.1" r="3" fill="#9467bd"/>
<circle cx="210.2" cy="308.6" r="3" fill="#9467bd"/>
<circle cx="272.5" cy="305.6" r="3" fill="#9467bd"/>
<circle cx="288.1" cy="310.6" r="3" fill="#9467bd"/>
<circle cx="303.7" cy="306.4" r="3" fill="#9467bd"/>
<circle cx="319.2" cy="314.9" r="3" fill="#9467bd"/>
<circle cx="334.8" cy="315.0" r="3" fill="#9467bd"/>
<circle cx="350.4" cy="315.6" r="3" fill="#9467bd"/>
<circle cx="366.0" cy="307.9" r="3" fill="#9467bd"/>
<circle cx="381.5" cy="313.9" r="3" fill="#9467bd"/>
<circle cx="397.1" cy="315.7" r="3" fill="#9467bd"/>
<circle cx="412.7" cy="312.8" r="3" fill="#9467bd"/>
<circle cx="428.3" cy="306.0" r="3" fill="#9467bd"/>
<circle cx="443.8" cy="316.6" r="3" fill="#9467bd"/>
<circle cx="459.4" cy="306.0" r="3" fill="#9467bd"/>
<circle cx="475.0" cy="313.9" r="3" fill="#9467bd"/>
<circle cx="490.6" cy="315.3" r="3" fill="#9467bd"/>
<circle cx="506.2" cy="310.5" r="3" fill="#9467bd"/>
<circle cx="521.7" cy="316.9" r="3" fill="#9467bd"/>
<circle cx="568.5" cy="316.3" r="3" fill="#9467bd"/>
<circle cx="584.0" cy="314.8" r="3" fill="#9467bd"/>
<circle cx="599.6" cy="314.8" r="3" fill="#9467bd"/>
<circle cx="615.2" cy="315.1" r="3" fill="#9467bd"/>
<circle cx="630.8" cy="315.2" r="3" fill="#9467bd"/>
<circle cx="646.3" cy="314.1" r="3" fill="#9467bd"/>
<circle cx="661.9" cy="311.9" r="3" fill="#9467bd"/>
<circle cx="677.5" cy="316.5" r="3" fill="#9467bd"/>
<circle cx="693.1" cy="316.1" r="3" fill="#9467bd"/>
<circle cx="708.7" cy="316.0" r="3" fill="#9467bd"/>
<circle cx="724.2" cy="312.9" r="3" fill="#9467bd"/>
<circle cx="739.8" cy="314.0" r="3" fill="#9467bd"/>
<circle cx="755.4" cy="316.3" r="3" fill="#9467bd"/>
<circle cx="771.0" cy="313.4" r="3" fill="#9467bd"/>
<circle cx="786.5" cy="316.9" r="3" fill="#9467bd"/>
<circle cx="802.1" cy="312.3" r="3" fill="#9467bd"/>
<circle cx="817.7" cy="296.2" r="3" fill="#9467bd"/>
<circle cx="833.3" cy="290.3" r="3" fill="#9467bd"/>
<circle cx="848.8" cy="314.5" r="3" fill="#9467bd"/>
<circle cx="864.4" cy="315.0" r="3" fill="#9467bd"/>
<circle cx="880.0" cy="318.5" r="3" fill="#9467bd"/>
<rect x="610.0" y="358" width="10" height="10" fill="#9467bd"/>
<text x="624.0" y="367" font-size="11" fill="#333">lipsync first mouth</text>
<polyline points="210.2,318.5 272.5,314.7 288.1,318.1 303.7,318.0 319.2,318.8 334.8,312.5 350.4,318.8 366.0,314.5 381.5,318.9 397.1,318.7 412.7,311.9 428.3,318.2 443.8,318.5 459.4,311.1 475.0,317.5 490.6,317.9 506.2,316.7 521.7,318.9 568.5,318.7 584.0,318.6 599.6,318.2 615.2,318.2 630.8,318.6 646.3,317.8 661.9,318.8 677.5,318.3 693.1,318.3 708.7,319.3 724.2,315.9 739.8,318.6 755.4,319.7 771.0,317.7 786.5,319.3 802.1,319.1 817.7,320.4 833.3,320.3 848.8,318.2 864.4,319.1 880.0,318.8" fill="none" stroke="#8c564b" stroke-width="2"/>
<circle cx="210.2" cy="318.5" r="3" fill="#8c564b"/>
<circle cx="272.5" cy="314.7" r="3" fill="#8c564b"/>
<circle cx="288.1" cy="318.1" r="3" fill="#8c564b"/>
<circle cx="303.7" cy="318.0" r="3" fill="#8c564b"/>
<circle cx="319.2" cy="318.8" r="3" fill="#8c564b"/>
<circle cx="334.8" cy="312.5" r="3" fill="#8c564b"/>
<circle cx="350.4" cy="318.8" r="3" fill="#8c564b"/>
<circle cx="366.0" cy="314.5" r="3" fill="#8c564b"/>
<circle cx="381.5" cy="318.9" r="3" fill="#8c564b"/>
<circle cx="397.1" cy="318.7" r="3" fill="#8c564b"/>
<circle cx="412.7" cy="311.9" r="3" fill="#8c564b"/>
<circle cx="428.3" cy="318.2" r="3" fill="#8c564b"/>
<circle cx="443.8" cy="318.5" r="3" fill="#8c564b"/>
<circle cx="459.4" cy="311.1" r="3" fill="#8c564b"/>
<circle cx="475.0" cy="317.5" r="3" fill="#8c564b"/>
<circle cx="490.6" cy="317.9" r="3" fill="#8c564b"/>
<circle cx="506.2" cy="316.7" r="3" fill="#8c564b"/>
<circle cx="521.7" cy="318.9" r="3" fill="#8c564b"/>
<circle cx="568.5" cy="318.7" r="3" fill="#8c564b"/>
<circle cx="584.0" cy="318.6" r="3" fill="#8c564b"/>
<circle cx="599.6" cy="318.2" r="3" fill="#8c564b"/>
<circle cx="615.2" cy="318.2" r="3" fill="#8c564b"/>
<circle cx="630.8" cy="318.6" r="3" fill="#8c564b"/>
<circle cx="646.3" cy="317.8" r="3" fill="#8c564b"/>
<circle cx="661.9" cy="318.8" r="3" fill="#8c564b"/>
<circle cx="677.5" cy="318.3" r="3" fill="#8c564b"/>
<circle cx="693.1" cy="318.3" r="3" fill="#8c564b"/>
<circle cx="708.7" cy="319.3" r="3" fill="#8c564b"/>
<circle cx="724.2" cy="315.9" r="3" fill="#8c564b"/>
<circle cx="739.8" cy="318.6" r="3" fill="#8c564b"/>
<circle cx="755.4" cy="319.7" r="3" fill="#8c564b"/>
<circle cx="771.0" cy="317.7" r="3" fill="#8c564b"/>
<circle cx="786.5" cy="319.3" r="3" fill="#8c564b"/>
<circle cx="802.1" cy="319.1" r="3" fill="#8c564b"/>
<circle cx="817.7" cy="320.4" r="3" fill="#8c564b"/>
<circle cx="833.3" cy="320.3" r="3" fill="#8c564b"/>
<circle cx="848.8" cy="318.2" r="3" fill="#8c564b"/>
<circle cx="864.4" cy="319.1" r="3" fill="#8c564b"/>
<circle cx="880.0" cy="318.8" r="3" fill="#8c564b"/>
<rect x="745.0" y="358" width="10" height="10" fill="#8c564b"/>
<text x="759.0" y="367" font-size="11" fill="#333">render tick p95</text>
</svg>
