<svg xmlns="http://www.w3.org/2000/svg" width="900" height="380" viewBox="0 0 900 380" font-family="sans-serif">
<rect width="900" height="380" fill="white"/>
<text x="70" y="24" font-size="16" fill="#333">Latency (ms, p50 unless noted) — lower is better</text>
<line x1="70" y1="324.0" x2="880" y2="324.0" stroke="#e5e5e5"/>
<text x="64" y="328.0" font-size="11" fill="#666" text-anchor="end">0ms</text>
<line x1="70" y1="268.0" x2="880" y2="268.0" stroke="#e5e5e5"/>
<text x="64" y="272.0" font-size="11" fill="#666" text-anchor="end">1481ms</text>
<line x1="70" y1="212.0" x2="880" y2="212.0" stroke="#e5e5e5"/>
<text x="64" y="216.0" font-size="11" fill="#666" text-anchor="end">2963ms</text>
<line x1="70" y1="156.0" x2="880" y2="156.0" stroke="#e5e5e5"/>
<text x="64" y="160.0" font-size="11" fill="#666" text-anchor="end">4444ms</text>
<line x1="70" y1="100.0" x2="880" y2="100.0" stroke="#e5e5e5"/>
<text x="64" y="104.0" font-size="11" fill="#666" text-anchor="end">5925ms</text>
<line x1="70" y1="44.0" x2="880" y2="44.0" stroke="#e5e5e5"/>
<text x="64" y="48.0" font-size="11" fill="#666" text-anchor="end">7407ms</text>
<text x="70.0" y="342" font-size="11" fill="#666" text-anchor="start">07-16 16:02</text>
<text x="485.9" y="342" font-size="11" fill="#666" text-anchor="middle">07-17 14:55</text>
<text x="880.0" y="342" font-size="11" fill="#666" text-anchor="end">07-17 20:15</text>
<polyline points="70.0,217.7 91.9,227.9 135.7,203.6 157.6,277.5 179.5,167.6 201.4,238.1 223.2,172.1 245.1,214.4 267.0,167.1 288.9,251.0 310.8,170.5 332.7,265.2 354.6,240.0 376.5,194.2 398.4,237.5 420.3,232.3 442.2,238.8 464.1,246.5 485.9,234.7 507.8,174.8 529.7,240.9 551.6,214.4 573.5,64.7 595.4,245.0 617.3,220.8 639.2,276.4 661.1,269.9 683.0,274.6 704.9,281.8 726.8,316.3 748.6,285.1 770.5,292.2 792.4,283.0 814.3,300.1 836.2,293.0 858.1,206.2 880.0,292.0" fill="none" stroke="#d62728" stroke-width="2"/>
<circle cx="70.0" cy="217.7" r="3" fill="#d62728"/>
<circle cx="91.9" cy="227.9" r="3" fill="#d62728"/>
<circle cx="135.7" cy="203.6" r="3" fill="#d62728"/>
<circle cx="157.6" cy="277.5" r="3" fill="#d62728"/>
<circle cx="179.5" cy="167.6" r="3" fill="#d62728"/>
<circle cx="201.4" cy="238.1" r="3" fill="#d62728"/>
<circle cx="223.2" cy="172.1" r="3" fill="#d62728"/>
<circle cx="245.1" cy="214.4" r="3" fill="#d62728"/>
<circle cx="267.0" cy="167.1" r="3" fill="#d62728"/>
<circle cx="288.9" cy="251.0" r="3" fill="#d62728"/>
<circle cx="310.8" cy="170.5" r="3" fill="#d62728"/>
<circle cx="332.7" cy="265.2" r="3" fill="#d62728"/>
<circle cx="354.6" cy="240.0" r="3" fill="#d62728"/>
<circle cx="376.5" cy="194.2" r="3" fill="#d62728"/>
<circle cx="398.4" cy="237.5" r="3" fill="#d62728"/>
<circle cx="420.3" cy="232.3" r="3" fill="#d62728"/>
<circle cx="442.2" cy="238.8" r="3" fill="#d62728"/>
<circle cx="464.1" cy="246.5" r="3" fill="#d62728"/>
<circle cx="485.9" cy="234.7" r="3" fill="#d62728"/>
<circle cx="507.8" cy="174.8" r="3" fill="#d62728"/>
<circle cx="529.7" cy="240.9" r="3" fill="#d62728"/>
<circle cx="551.6" cy="214.4" r="3" fill="#d62728"/>
<circle cx="573.5" cy="64.7" r="3" fill="#d62728"/>
<circle cx="595.4" cy="245.0" r="3" fill="#d62728"/>
<circle cx="617.3" cy="220.8" r="3" fill="#d62728"/>
<circle cx="639.2" cy="276.4" r="3" fill="#d62728"/>
<circle cx="661.1" cy="269.9" r="3" fill="#d62728"/>
<circle cx="683.0" cy="274.6" r="3" fill="#d62728"/>
<circle cx="704.9" cy="281.8" r="3" fill="#d62728"/>
<circle cx="726.8" cy="316.3" r="3" fill="#d62728"/>
<circle cx="748.6" cy="285.1" r="3" fill="#d62728"/>
<circle cx="770.5" cy="292.2" r="3" fill="#d62728"/>
<circle cx="792.4" cy="283.0" r="3" fill="#d62728"/>
<circle cx="814.3" cy="300.1" r="3" fill="#d62728"/>
<circle cx="836.2" cy="293.0" r="3" fill="#d62728"/>
<circle cx="858.1" cy="206.2" r="3" fill="#d62728"/>
<circle cx="880.0" cy="292.0" r="3" fill="#d62728"/>
<rect x="70.0" y="358" width="10" height="10" fill="#d62728"/>
<text x="84.0" y="367" font-size="11" fill="#333">first audio (e2e)</text>
<polyline points="267.0,215.3 354.6,199.1 376.5,224.4 398.4,176.9 420.3,267.6 442.2,239.5 464.1,283.5 485.9,244.5 507.8,260.4 529.7,246.2 551.6,245.6 573.5,201.1 595.4,299.9 617.3,252.0 639.2,317.9 661.1,317.8 683.0,317.5 704.9,318.0 770.5,318.3 792.4,317.4 814.3,317.8 836.2,318.6 858.1,317.8 880.0,318.2" fill="none" stroke="#1f77b4" stroke-width="2"/>
<circle cx="267.0" cy="215.3" r="3" fill="#1f77b4"/>
<circle cx="354.6" cy="199.1" r="3" fill="#1f77b4"/>
<circle cx="376.5" cy="224.4" r="3" fill="#1f77b4"/>
<circle cx="398.4" cy="176.9" r="3" fill="#1f77b4"/>
<circle cx="420.3" cy="267.6" r="3" fill="#1f77b4"/>
<circle cx="442.2" cy="239.5" r="3" fill="#1f77b4"/>
<circle cx="464.1" cy="283.5" r="3" fill="#1f77b4"/>
<circle cx="485.9" cy="244.5" r="3" fill="#1f77b4"/>
<circle cx="507.8" cy="260.4" r="3" fill="#1f77b4"/>
<circle cx="529.7" cy="246.2" r="3" fill="#1f77b4"/>
<circle cx="551.6" cy="245.6" r="3" fill="#1f77b4"/>
<circle cx="573.5" cy="201.1" r="3" fill="#1f77b4"/>
<circle cx="595.4" cy="299.9" r="3" fill="#1f77b4"/>
<circle cx="617.3" cy="252.0" r="3" fill="#1f77b4"/>
<circle cx="639.2" cy="317.9" r="3" fill="#1f77b4"/>
<circle cx="661.1" cy="317.8" r="3" fill="#1f77b4"/>
<circle cx="683.0" cy="317.5" r="3" fill="#1f77b4"/>
<circle cx="704.9" cy="318.0" r="3" fill="#1f77b4"/>
<circle cx="770.5" cy="318.3" r="3" fill="#1f77b4"/>
<circle cx="792.4" cy="317.4" r="3" fill="#1f77b4"/>
<circle cx="814.3" cy="317.8" r="3" fill="#1f77b4"/>
<circle cx="836.2" cy="318.6" r="3" fill="#1f77b4"/>
<circle cx="858.1" cy="317.8" r="3" fill="#1f77b4"/>
<circle cx="880.0" cy="318.2" r="3" fill="#1f77b4"/>
<rect x="205.0" y="358" width="10" height="10" fill="#1f77b4"/>
<text x="219.0" y="367" font-size="11" fill="#333">tts first chunk</text>
<polyline points="267.0,298.0 354.6,298.0 376.5,307.7 442.2,287.9 464.1,307.5 485.9,307.7 529.7,300.5 551.6,298.4 595.4,304.7 617.3,305.1 639.2,306.6 661.1,304.3 683.0,291.3 770.5,304.1 858.1,262.6" fill="none" stroke="#ff7f0e" stroke-width="2"/>
<circle cx="267.0" cy="298.0" r="3" fill="#ff7f0e"/>
<circle cx="354.6" cy="298.0" r="3" fill="#ff7f0e"/>
<circle cx="376.5" cy="307.7" r="3" fill="#ff7f0e"/>
<circle cx="442.2" cy="287.9" r="3" fill="#ff7f0e"/>
<circle cx="464.1" cy="307.5" r="3" fill="#ff7f0e"/>
<circle cx="485.9" cy="307.7" r="3" fill="#ff7f0e"/>
<circle cx="529.7" cy="300.5" r="3" fill="#ff7f0e"/>
<circle cx="551.6" cy="298.4" r="3" fill="#ff7f0e"/>
<circle cx="595.4" cy="304.7" r="3" fill="#ff7f0e"/>
<circle cx="617.3" cy="305.1" r="3" fill="#ff7f0e"/>
<circle cx="639.2" cy="306.6" r="3" fill="#ff7f0e"/>
<circle cx="661.1" cy="304.3" r="3" fill="#ff7f0e"/>
<circle cx="683.0" cy="291.3" r="3" fill="#ff7f0e"/>
<circle cx="770.5" cy="304.1" r="3" fill="#ff7f0e"/>
<circle cx="858.1" cy="262.6" r="3" fill="#ff7f0e"/>
<rect x="340.0" y="358" width="10" height="10" fill="#ff7f0e"/>
<text x="354.0" y="367" font-size="11" fill="#333">llm ttft</text>
<polyline points="70.0,297.1 91.9,301.1 135.7,298.1 157.6,298.0 179.5,303.1 223.2,274.4 245.1,281.5 267.0,241.9 354.6,243.2 376.5,286.5 398.4,268.6 420.3,306.2 442.2,280.2 464.1,306.0 485.9,297.3 507.8,269.3 529.7,299.0 551.6,267.5 573.5,275.1 595.4,303.3 617.3,253.3 639.2,280.5 661.1,282.8 683.0,272.0 704.9,296.7 770.5,299.6 792.4,301.6 814.3,312.5 836.2,300.5 858.1,169.3 880.0,296.2" fill="none" stroke="#2ca02c" stroke-width="2"/>
<circle cx="70.0" cy="297.1" r="3" fill="#2ca02c"/>
<circle cx="91.9" cy="301.1" r="3" fill="#2ca02c"/>
<circle cx="135.7" cy="298.1" r="3" fill="#2ca02c"/>
<circle cx="157.6" cy="298.0" r="3" fill="#2ca02c"/>
<circle cx="179.5" cy="303.1" r="3" fill="#2ca02c"/>
<circle cx="223.2" cy="274.4" r="3" fill="#2ca02c"/>
<circle cx="245.1" cy="281.5" r="3" fill="#2ca02c"/>
<circle cx="267.0" cy="241.9" r="3" fill="#2ca02c"/>
<circle cx="354.6" cy="243.2" r="3" fill="#2ca02c"/>
<circle cx="376.5" cy="286.5" r="3" fill="#2ca02c"/>
<circle cx="398.4" cy="268.6" r="3" fill="#2ca02c"/>
<circle cx="420.3" cy="306.2" r="3" fill="#2ca02c"/>
<circle cx="442.2" cy="280.2" r="3" fill="#2ca02c"/>
<circle cx="464.1" cy="306.0" r="3" fill="#2ca02c"/>
<circle cx="485.9" cy="297.3" r="3" fill="#2ca02c"/>
<circle cx="507.8" cy="269.3" r="3" fill="#2ca02c"/>
<circle cx="529.7" cy="299.0" r="3" fill="#2ca02c"/>
<circle cx="551.6" cy="267.5" r="3" fill="#2ca02c"/>
<circle cx="573.5" cy="275.1" r="3" fill="#2ca02c"/>
<circle cx="595.4" cy="303.3" r="3" fill="#2ca02c"/>
<circle cx="617.3" cy="253.3" r="3" fill="#2ca02c"/>
<circle cx="639.2" cy="280.5" r="3" fill="#2ca02c"/>
<circle cx="661.1" cy="282.8" r="3" fill="#2ca02c"/>
<circle cx="683.0" cy="272.0" r="3" fill="#2ca02c"/>
<circle cx="704.9" cy="296.7" r="3" fill="#2ca02c"/>
<circle cx="770.5" cy="299.6" r="3" fill="#2ca02c"/>
<circle cx="792.4" cy="301.6" r="3" fill="#2ca02c"/>
<circle cx="814.3" cy="312.5" r="3" fill="#2ca02c"/>
<circle cx="836.2" cy="300.5" r="3" fill="#2ca02c"/>
<circle cx="858.1" cy="169.3" r="3" fill="#2ca02c"/>
<circle cx="880.0" cy="296.2" r="3" fill="#2ca02c"/>
<rect x="475.0" y="358" width="10" height="10" fill="#2ca02c"/>
<text x="489.0" y="367" font-size="11" fill="#333">llm first sentence</text>
<polyline points="70.0,311.1 91.9,313.5 113.8,311.5 135.7,312.5 157.6,305.2 179.5,313.0 223.2,306.1 245.1,304.1 267.0,308.6 354.6,305.6 376.5,310.6 398.4,306.4 420.3,314.9 442.2,315.0 464.1,315.6 485.9,307.9 507.8,313.9 529.7,315.7 551.6,312.8 573.5,306.0 595.4,316.6 617.3,306.0 639.2,313.9 661.1,315.3 683.0,310.5 704.9,316.9 770.5,316.3 792.4,314.8 814.3,314.8 836.2,315.1 858.1,315.2 880.0,314.1" fill="none" stroke="#9467bd" stroke-width="2"/>
<circle cx="70.0" cy="311.1" r="3" fill="#9467bd"/>
<circle cx="91.9" cy="313.5" r="3" fill="#9467bd"/>
<circle cx="113.8" cy="311.5" r="3" fill="#9467bd"/>
<circle cx="135.7" cy="312.5" r="3" fill="#9467bd"/>
<circle cx="157.6" cy="305.2" r="3" fill="#9467bd"/>
<circle cx="179.5" cy="313.0" r="3" fill="#9467bd"/>
<circle cx="223.2" cy="306.1" r="3" fill="#9467bd"/>
<circle cx="245.1" cy="304.1" r="3" fill="#9467bd"/>
<circle cx="267.0" cy="308.6" r="3" fill="#9467bd"/>
<circle cx="354.6" cy="305.6" r="3" fill="#9467bd"/>
<circle cx="376.5" cy="310.6" r="3" fill="#9467bd"/>
<circle cx="398.4" cy="306.4" r="3" fill="#9467bd"/>
<circle cx="420.3" cy="314.9" r="3" fill="#9467bd"/>
<circle cx="442.2" cy="315.0" r="3" fill="#9467bd"/>
<circle cx="464.1" cy="315.6" r="3" fill="#9467bd"/>
<circle cx="485.9" cy="307.9" r="3" fill="#9467bd"/>
<circle cx="507.8" cy="313.9" r="3" fill="#9467bd"/>
<circle cx="529.7" cy="315.7" r="3" fill="#9467bd"/>
<circle cx="551.6" cy="312.8" r="3" fill="#9467bd"/>
<circle cx="573.5" cy="306.0" r="3" fill="#9467bd"/>
<circle cx="595.4" cy="316.6" r="3" fill="#9467bd"/>
<circle cx="617.3" cy="306.0" r="3" fill="#9467bd"/>
<circle cx="639.2" cy="313.9" r="3" fill="#9467bd"/>
<circle cx="661.1" cy="315.3" r="3" fill="#9467bd"/>
<circle cx="683.0" cy="310.5" r="3" fill="#9467bd"/>
<circle cx="704.9" cy="316.9" r="3" fill="#9467bd"/>
<circle cx="770.5" cy="316.3" r="3" fill="#9467bd"/>
<circle cx="792.4" cy="314.8" r="3" fill="#9467bd"/>
<circle cx="814.3" cy="314.8" r="3" fill="#9467bd"/>
<circle cx="836.2" cy="315.1" r="3" fill="#9467bd"/>
<circle cx="858.1" cy="315.2" r="3" fill="#9467bd"/>
<circle cx="880.0" cy="314.1" r="3" fill="#9467bd"/>
<rect x="610.0" y="358" width="10" height="10" fill="#9467bd"/>
<text x="624.0" y="367" font-size="11" fill="#333">lipsync first mouth</text>
<polyline points="267.0,318.5 354.6,314.7 376.5,318.1 398.4,318.0 420.3,318.8 442.2,312.5 464.1,318.8 485.9,314.5 507.8,318.9 529.7,318.7 551.6,311.9 573.5,318.2 595.4,318.5 617.3,311.1 639.2,317.5 661.1,317.9 683.0,316.7 704.9,318.9 770.5,318.7 792.4,318.6 814.3,318.2 836.2,318.2 858.1,318.6 880.0,317.8" fill="none" stroke="#8c564b" stroke-width="2"/>
<circle cx="267.0" cy="318.5" r="3" fill="#8c564b"/>
<circle cx="354.6" cy="314.7" r="3" fill="#8c564b"/>
<circle cx="376.5" cy="318.1" r="3" fill="#8c564b"/>
<circle cx="398.4" cy="318.0" r="3" fill="#8c564b"/>
<circle cx="420.3" cy="318.8" r="3" fill="#8c564b"/>
<circle cx="442.2" cy="312.5" r="3" fill="#8c564b"/>
<circle cx="464.1" cy="318.8" r="3" fill="#8c564b"/>
<circle cx="485.9" cy="314.5" r="3" fill="#8c564b"/>
<circle cx="507.8" cy="318.9" r="3" fill="#8c564b"/>
<circle cx="529.7" cy="318.7" r="3" fill="#8c564b"/>
<circle cx="551.6" cy="311.9" r="3" fill="#8c564b"/>
<circle cx="573.5" cy="318.2" r="3" fill="#8c564b"/>
<circle cx="595.4" cy="318.5" r="3" fill="#8c564b"/>
<circle cx="617.3" cy="311.1" r="3" fill="#8c564b"/>
<circle cx="639.2" cy="317.5" r="3" fill="#8c564b"/>
<circle cx="661.1" cy="317.9" r="3" fill="#8c564b"/>
<circle cx="683.0" cy="316.7" r="3" fill="#8c564b"/>
<circle cx="704.9" cy="318.9" r="3" fill="#8c564b"/>
<circle cx="770.5" cy="318.7" r="3" fill="#8c564b"/>
<circle cx="792.4" cy="318.6" r="3" fill="#8c564b"/>
<circle cx="814.3" cy="318.2" r="3" fill="#8c564b"/>
<circle cx="836.2" cy="318.2" r="3" fill="#8c564b"/>
<circle cx="858.1" cy="318.6" r="3" fill="#8c564b"/>
<circle cx="880.0" cy="317.8" r="3" fill="#8c564b"/>
<rect x="745.0" y="358" width="10" height="10" fill="#8c564b"/>
<text x="759.0" y="367" font-size="11" fill="#333">render tick p95</text>
</svg>
