<svg xmlns="http://www.w3.org/2000/svg" width="900" height="380" viewBox="0 0 900 380" font-family="sans-serif">
<rect width="900" height="380" fill="white"/>
<text x="70" y="24" font-size="16" fill="#333">Latency (ms, p50 unless noted) — lower is better</text>
<line x1="70" y1="324.0" x2="880" y2="324.0" stroke="#e5e5e5"/>
<text x="64" y="328.0" font-size="11" fill="#666" text-anchor="end">0ms</text>
<line x1="70" y1="268.0" x2="880" y2="268.0" stroke="#e5e5e5"/>
<text x="64" y="272.0" font-size="11" fill="#666" text-anchor="end">1481ms</text>
<line x1="70" y1="212.0" x2="880" y2="212.0" stroke="#e5e5e5"/>
<text x="64" y="216.0" font-size="11" fill="#666" text-anchor="end">2963ms</text>
<line x1="70" y1="156.0" x2="880" y2="156.0" stroke="#e5e5e5"/>
<text x="64" y="160.0" font-size="11" fill="#666" text-anchor="end">4444ms</text>
<line x1="70" y1="100.0" x2="880" y2="100.0" stroke="#e5e5e5"/>
<text x="64" y="104.0" font-size="11" fill="#666" text-anchor="end">5925ms</text>
<line x1="70" y1="44.0" x2="880" y2="44.0" stroke="#e5e5e5"/>
<text x="64" y="48.0" font-size="11" fill="#666" text-anchor="end">7407ms</text>
<text x="70.0" y="342" font-size="11" fill="#666" text-anchor="start">07-16 16:02</text>
<text x="475.0" y="342" font-size="11" fill="#666" text-anchor="middle">07-17 16:41</text>
<text x="880.0" y="342" font-size="11" fill="#666" text-anchor="end">07-18 05:38</text>
<polyline points="70.0,217.7 86.2,227.9 118.6,203.6 134.8,277.5 151.0,167.6 167.2,238.1 183.4,172.1 199.6,214.4 215.8,167.1 232.0,251.0 248.2,170.5 264.4,265.2 280.6,240.0 296.8,194.2 313.0,237.5 329.2,232.3 345.4,238.8 361.6,246.5 377.8,234.7 394.0,174.8 410.2,240.9 426.4,214.4 442.6,64.7 458.8,245.0 475.0,220.8 491.2,276.4 507.4,269.9 523.6,274.6 539.8,281.8 556.0,316.3 572.2,285.1 588.4,292.2 604.6,283.0 620.8,300.1 637.0,293.0 653.2,206.2 669.4,292.0 685.6,223.6 701.8,294.7 718.0,296.4 734.2,260.6 750.4,292.8 766.6,290.2 782.8,290.1 799.0,286.4 815.2,287.0 831.4,292.4 847.6,292.8 863.8,290.6 880.0,279.0" fill="none" stroke="#d62728" stroke-width="2"/>
<circle cx="70.0" cy="217.7" r="3" fill="#d62728"/>
<circle cx="86.2" cy="227.9" r="3" fill="#d62728"/>
<circle cx="118.6" cy="203.6" r="3" fill="#d62728"/>
<circle cx="134.8" cy="277.5" r="3" fill="#d62728"/>
<circle cx="151.0" cy="167.6" r="3" fill="#d62728"/>
<circle cx="167.2" cy="238.1" r="3" fill="#d62728"/>
<circle cx="183.4" cy="172.1" r="3" fill="#d62728"/>
<circle cx="199.6" cy="214.4" r="3" fill="#d62728"/>
<circle cx="215.8" cy="167.1" r="3" fill="#d62728"/>
<circle cx="232.0" cy="251.0" r="3" fill="#d62728"/>
<circle cx="248.2" cy="170.5" r="3" fill="#d62728"/>
<circle cx="264.4" cy="265.2" r="3" fill="#d62728"/>
<circle cx="280.6" cy="240.0" r="3" fill="#d62728"/>
<circle cx="296.8" cy="194.2" r="3" fill="#d62728"/>
<circle cx="313.0" cy="237.5" r="3" fill="#d62728"/>
<circle cx="329.2" cy="232.3" r="3" fill="#d62728"/>
<circle cx="345.4" cy="238.8" r="3" fill="#d62728"/>
<circle cx="361.6" cy="246.5" r="3" fill="#d62728"/>
<circle cx="377.8" cy="234.7" r="3" fill="#d62728"/>
<circle cx="394.0" cy="174.8" r="3" fill="#d62728"/>
<circle cx="410.2" cy="240.9" r="3" fill="#d62728"/>
<circle cx="426.4" cy="214.4" r="3" fill="#d62728"/>
<circle cx="442.6" cy="64.7" r="3" fill="#d62728"/>
<circle cx="458.8" cy="245.0" r="3" fill="#d62728"/>
<circle cx="475.0" cy="220.8" r="3" fill="#d62728"/>
<circle cx="491.2" cy="276.4" r="3" fill="#d62728"/>
<circle cx="507.4" cy="269.9" r="3" fill="#d62728"/>
<circle cx="523.6" cy="274.6" r="3" fill="#d62728"/>
<circle cx="539.8" cy="281.8" r="3" fill="#d62728"/>
<circle cx="556.0" cy="316.3" r="3" fill="#d62728"/>
<circle cx="572.2" cy="285.1" r="3" fill="#d62728"/>
<circle cx="588.4" cy="292.2" r="3" fill="#d62728"/>
<circle cx="604.6" cy="283.0" r="3" fill="#d62728"/>
<circle cx="620.8" cy="300.1" r="3" fill="#d62728"/>
<circle cx="637.0" cy="293.0" r="3" fill="#d62728"/>
<circle cx="653.2" cy="206.2" r="3" fill="#d62728"/>
<circle cx="669.4" cy="292.0" r="3" fill="#d62728"/>
<circle cx="685.6" cy="223.6" r="3" fill="#d62728"/>
<circle cx="701.8" cy="294.7" r="3" fill="#d62728"/>
<circle cx="718.0" cy="296.4" r="3" fill="#d62728"/>
<circle cx="734.2" cy="260.6" r="3" fill="#d62728"/>
<circle cx="750.4" cy="292.8" r="3" fill="#d62728"/>
<circle cx="766.6" cy="290.2" r="3" fill="#d62728"/>
<circle cx="782.8" cy="290.1" r="3" fill="#d62728"/>
<circle cx="799.0" cy="286.4" r="3" fill="#d62728"/>
<circle cx="815.2" cy="287.0" r="3" fill="#d62728"/>
<circle cx="831.4" cy="292.4" r="3" fill="#d62728"/>
<circle cx="847.6" cy="292.8" r="3" fill="#d62728"/>
<circle cx="863.8" cy="290.6" r="3" fill="#d62728"/>
<circle cx="880.0" cy="279.0" r="3" fill="#d62728"/>
<rect x="70.0" y="358" width="10" height="10" fill="#d62728"/>
<text x="84.0" y="367" font-size="11" fill="#333">first audio (e2e)</text>
<polyline points="215.8,215.3 280.6,199.1 296.8,224.4 313.0,176.9 329.2,267.6 345.4,239.5 361.6,283.5 377.8,244.5 394.0,260.4 410.2,246.2 426.4,245.6 442.6,201.1 458.8,299.9 475.0,252.0 491.2,317.9 507.4,317.8 523.6,317.5 539.8,318.0 588.4,318.3 604.6,317.4 620.8,317.8 637.0,318.6 653.2,317.8 669.4,318.2 685.6,317.3 701.8,317.7 718.0,319.0 734.2,318.6 750.4,317.0 766.6,317.8 782.8,318.5 799.0,317.4 815.2,317.7 831.4,317.1 847.6,300.8 863.8,295.2 880.0,317.5" fill="none" stroke="#1f77b4" stroke-width="2"/>
<circle cx="215.8" cy="215.3" r="3" fill="#1f77b4"/>
<circle cx="280.6" cy="199.1" r="3" fill="#1f77b4"/>
<circle cx="296.8" cy="224.4" r="3" fill="#1f77b4"/>
<circle cx="313.0" cy="176.9" r="3" fill="#1f77b4"/>
<circle cx="329.2" cy="267.6" r="3" fill="#1f77b4"/>
<circle cx="345.4" cy="239.5" r="3" fill="#1f77b4"/>
<circle cx="361.6" cy="283.5" r="3" fill="#1f77b4"/>
<circle cx="377.8" cy="244.5" r="3" fill="#1f77b4"/>
<circle cx="394.0" cy="260.4" r="3" fill="#1f77b4"/>
<circle cx="410.2" cy="246.2" r="3" fill="#1f77b4"/>
<circle cx="426.4" cy="245.6" r="3" fill="#1f77b4"/>
<circle cx="442.6" cy="201.1" r="3" fill="#1f77b4"/>
<circle cx="458.8" cy="299.9" r="3" fill="#1f77b4"/>
<circle cx="475.0" cy="252.0" r="3" fill="#1f77b4"/>
<circle cx="491.2" cy="317.9" r="3" fill="#1f77b4"/>
<circle cx="507.4" cy="317.8" r="3" fill="#1f77b4"/>
<circle cx="523.6" cy="317.5" r="3" fill="#1f77b4"/>
<circle cx="539.8" cy="318.0" r="3" fill="#1f77b4"/>
<circle cx="588.4" cy="318.3" r="3" fill="#1f77b4"/>
<circle cx="604.6" cy="317.4" r="3" fill="#1f77b4"/>
<circle cx="620.8" cy="317.8" r="3" fill="#1f77b4"/>
<circle cx="637.0" cy="318.6" r="3" fill="#1f77b4"/>
<circle cx="653.2" cy="317.8" r="3" fill="#1f77b4"/>
<circle cx="669.4" cy="318.2" r="3" fill="#1f77b4"/>
<circle cx="685.6" cy="317.3" r="3" fill="#1f77b4"/>
<circle cx="701.8" cy="317.7" r="3" fill="#1f77b4"/>
<circle cx="718.0" cy="319.0" r="3" fill="#1f77b4"/>
<circle cx="734.2" cy="318.6" r="3" fill="#1f77b4"/>
<circle cx="750.4" cy="317.0" r="3" fill="#1f77b4"/>
<circle cx="766.6" cy="317.8" r="3" fill="#1f77b4"/>
<circle cx="782.8" cy="318.5" r="3" fill="#1f77b4"/>
<circle cx="799.0" cy="317.4" r="3" fill="#1f77b4"/>
<circle cx="815.2" cy="317.7" r="3" fill="#1f77b4"/>
<circle cx="831.4" cy="317.1" r="3" fill="#1f77b4"/>
<circle cx="847.6" cy="300.8" r="3" fill="#1f77b4"/>
<circle cx="863.8" cy="295.2" r="3" fill="#1f77b4"/>
<circle cx="880.0" cy="317.5" r="3" fill="#1f77b4"/>
<rect x="205.0" y="358" width="10" height="10" fill="#1f77b4"/>
<text x="219.0" y="367" font-size="11" fill="#333">tts first chunk</text>
<polyline points="215.8,298.0 280.6,298.0 296.8,307.7 345.4,287.9 361.6,307.5 377.8,307.7 410.2,300.5 426.4,298.4 458.8,304.7 475.0,305.1 491.2,306.6 507.4,304.3 523.6,291.3 588.4,304.1 653.2,262.6 701.8,311.0 718.0,312.2 734.2,308.2 782.8,308.0 847.6,313.3 863.8,311.0 880.0,307.6" fill="none" stroke="#ff7f0e" stroke-width="2"/>
<circle cx="215.8" cy="298.0" r="3" fill="#ff7f0e"/>
<circle cx="280.6" cy="298.0" r="3" fill="#ff7f0e"/>
<circle cx="296.8" cy="307.7" r="3" fill="#ff7f0e"/>
<circle cx="345.4" cy="287.9" r="3" fill="#ff7f0e"/>
<circle cx="361.6" cy="307.5" r="3" fill="#ff7f0e"/>
<circle cx="377.8" cy="307.7" r="3" fill="#ff7f0e"/>
<circle cx="410.2" cy="300.5" r="3" fill="#ff7f0e"/>
<circle cx="426.4" cy="298.4" r="3" fill="#ff7f0e"/>
<circle cx="458.8" cy="304.7" r="3" fill="#ff7f0e"/>
<circle cx="475.0" cy="305.1" r="3" fill="#ff7f0e"/>
<circle cx="491.2" cy="306.6" r="3" fill="#ff7f0e"/>
<circle cx="507.4" cy="304.3" r="3" fill="#ff7f0e"/>
<circle cx="523.6" cy="291.3" r="3" fill="#ff7f0e"/>
<circle cx="588.4" cy="304.1" r="3" fill="#ff7f0e"/>
<circle cx="653.2" cy="262.6" r="3" fill="#ff7f0e"/>
<circle cx="701.8" cy="311.0" r="3" fill="#ff7f0e"/>
<circle cx="718.0" cy="312.2" r="3" fill="#ff7f0e"/>
<circle cx="734.2" cy="308.2" r="3" fill="#ff7f0e"/>
<circle cx="782.8" cy="308.0" r="3" fill="#ff7f0e"/>
<circle cx="847.6" cy="313.3" r="3" fill="#ff7f0e"/>
<circle cx="863.8" cy="311.0" r="3" fill="#ff7f0e"/>
<circle cx="880.0" cy="307.6" r="3" fill="#ff7f0e"/>
<rect x="340.0" y="358" width="10" height="10" fill="#ff7f0e"/>
<text x="354.0" y="367" font-size="11" fill="#333">llm ttft</text>
<polyline points="70.0,297.1 86.2,301.1 118.6,298.1 134.8,298.0 151.0,303.1 183.4,274.4 199.6,281.5 215.8,241.9 280.6,243.2 296.8,286.5 313.0,268.6 329.2,306.2 345.4,280.2 361.6,306.0 377.8,297.3 394.0,269.3 410.2,299.0 426.4,267.5 442.6,275.1 458.8,303.3 475.0,253.3 491.2,280.5 507.4,282.8 523.6,272.0 539.8,296.7 588.4,299.6 604.6,301.6 620.8,312.5 637.0,300.5 653.2,169.3 669.4,296.2 685.6,240.3 701.8,307.0 718.0,310.0 734.2,275.8 750.4,305.7 766.6,304.6 782.8,303.7 799.0,297.4 815.2,297.4 831.4,306.8 847.6,306.3 863.8,305.5 880.0,293.1" fill="none" stroke="#2ca02c" stroke-width="2"/>
<circle cx="70.0" cy="297.1" r="3" fill="#2ca02c"/>
<circle cx="86.2" cy="301.1" r="3" fill="#2ca02c"/>
<circle cx="118.6" cy="298.1" r="3" fill="#2ca02c"/>
<circle cx="134.8" cy="298.0" r="3" fill="#2ca02c"/>
<circle cx="151.0" cy="303.1" r="3" fill="#2ca02c"/>
<circle cx="183.4" cy="274.4" r="3" fill="#2ca02c"/>
<circle cx="199.6" cy="281.5" r="3" fill="#2ca02c"/>
<circle cx="215.8" cy="241.9" r="3" fill="#2ca02c"/>
<circle cx="280.6" cy="243.2" r="3" fill="#2ca02c"/>
<circle cx="296.8" cy="286.5" r="3" fill="#2ca02c"/>
<circle cx="313.0" cy="268.6" r="3" fill="#2ca02c"/>
<circle cx="329.2" cy="306.2" r="3" fill="#2ca02c"/>
<circle cx="345.4" cy="280.2" r="3" fill="#2ca02c"/>
<circle cx="361.6" cy="306.0" r="3" fill="#2ca02c"/>
<circle cx="377.8" cy="297.3" r="3" fill="#2ca02c"/>
<circle cx="394.0" cy="269.3" r="3" fill="#2ca02c"/>
<circle cx="410.2" cy="299.0" r="3" fill="#2ca02c"/>
<circle cx="426.4" cy="267.5" r="3" fill="#2ca02c"/>
<circle cx="442.6" cy="275.1" r="3" fill="#2ca02c"/>
<circle cx="458.8" cy="303.3" r="3" fill="#2ca02c"/>
<circle cx="475.0" cy="253.3" r="3" fill="#2ca02c"/>
<circle cx="491.2" cy="280.5" r="3" fill="#2ca02c"/>
<circle cx="507.4" cy="282.8" r="3" fill="#2ca02c"/>
<circle cx="523.6" cy="272.0" r="3" fill="#2ca02c"/>
<circle cx="539.8" cy="296.7" r="3" fill="#2ca02c"/>
<circle cx="588.4" cy="299.6" r="3" fill="#2ca02c"/>
<circle cx="604.6" cy="301.6" r="3" fill="#2ca02c"/>
<circle cx="620.8" cy="312.5" r="3" fill="#2ca02c"/>
<circle cx="637.0" cy="300.5" r="3" fill="#2ca02c"/>
<circle cx="653.2" cy="169.3" r="3" fill="#2ca02c"/>
<circle cx="669.4" cy="296.2" r="3" fill="#2ca02c"/>
<circle cx="685.6" cy="240.3" r="3" fill="#2ca02c"/>
<circle cx="701.8" cy="307.0" r="3" fill="#2ca02c"/>
<circle cx="718.0" cy="310.0" r="3" fill="#2ca02c"/>
<circle cx="734.2" cy="275.8" r="3" fill="#2ca02c"/>
<circle cx="750.4" cy="305.7" r="3" fill="#2ca02c"/>
<circle cx="766.6" cy="304.6" r="3" fill="#2ca02c"/>
<circle cx="782.8" cy="303.7" r="3" fill="#2ca02c"/>
<circle cx="799.0" cy="297.4" r="3" fill="#2ca02c"/>
<circle cx="815.2" cy="297.4" r="3" fill="#2ca02c"/>
<circle cx="831.4" cy="306.8" r="3" fill="#2ca02c"/>
<circle cx="847.6" cy="306.3" r="3" fill="#2ca02c"/>
<circle cx="863.8" cy="305.5" r="3" fill="#2ca02c"/>
<circle cx="880.0" cy="293.1" r="3" fill="#2ca02c"/>
<rect x="475.0" y="358" width="10" height="10" fill="#2ca02c"/>
<text x="489.0" y="367" font-size="11" fill="#333">llm first sentence</text>
<polyline points="70.0,311.1 86.2,313.5 102.4,311.5 118.6,312.5 134.8,305.2 151.0,313.0 183.4,306.1 199.6,304.1 215.8,308.6 280.6,305.6 296.8,310.6 313.0,306.4 329.2,314.9 345.4,315.0 361.6,315.6 377.8,307.9 394.0,313.9 410.2,315.7 426.4,312.8 442.6,306.0 458.8,316.6 475.0,306.0 491.2,313.9 507.4,315.3 523.6,310.5 539.8,316.9 588.4,316.3 604.6,314.8 620.8,314.8 637.0,315.1 653.2,315.2 669.4,314.1 685.6,311.9 701.8,316.5 718.0,316.1 734.2,316.0 750.4,312.9 766.6,314.0 782.8,316.3 799.0,313.4 815.2,316.9 831.4,312.3 847.6,296.2 863.8,290.3 880.0,314.5" fill="none" stroke="#9467bd" stroke-width="2"/>
<circle cx="70.0" cy="311.1" r="3" fill="#9467bd"/>
<circle cx="86.2" cy="313.5" r="3" fill="#9467bd"/>
<circle cx="102.4" cy="311.5" r="3" fill="#9467bd"/>
<circle cx="118.6" cy="312.5" r="3" fill="#9467bd"/>
<circle cx="134.8" cy="305.2" r="3" fill="#9467bd"/>
<circle cx="151.0" cy="313.0" r="3" fill="#9467bd"/>
<circle cx="183.4" cy="306.1" r="3" fill="#9467bd"/>
<circle cx="199.6" cy="304.1" r="3" fill="#9467bd"/>
<circle cx="215.8" cy="308.6" r="3" fill="#9467bd"/>
<circle cx="280.6" cy="305.6" r="3" fill="#9467bd"/>
<circle cx="296.8" cy="310.6" r="3" fill="#9467bd"/>
<circle cx="313.0" cy="306.4" r="3" fill="#9467bd"/>
<circle cx="329.2" cy="314.9" r="3" fill="#9467bd"/>
<circle cx="345.4" cy="315.0" r="3" fill="#9467bd"/>
<circle cx="361.6" cy="315.6" r="3" fill="#9467bd"/>
<circle cx="377.8" cy="307.9" r="3" fill="#9467bd"/>
<circle cx="394.0" cy="313.9" r="3" fill="#9467bd"/>
<circle cx="410.2" cy="315.7" r="3" fill="#9467bd"/>
<circle cx="426.4" cy="312.8" r="3" fill="#9467bd"/>
<circle cx="442.6" cy="306.0" r="3" fill="#9467bd"/>
<circle cx="458.8" cy="316.6" r="3" fill="#9467bd"/>
<circle cx="475.0" cy="306.0" r="3" fill="#9467bd"/>
<circle cx="491.2" cy="313.9" r="3" fill="#9467bd"/>
<circle cx="507.4" cy="315.3" r="3" fill="#9467bd"/>
<circle cx="523.6" cy="310.5" r="3" fill="#9467bd"/>
<circle cx="539.8" cy="316.9" r="3" fill="#9467bd"/>
<circle cx="588.4" cy="316.3" r="3" fill="#9467bd"/>
<circle cx="604.6" cy="314.8" r="3" fill="#9467bd"/>
<circle cx="620.8" cy="314.8" r="3" fill="#9467bd"/>
<circle cx="637.0" cy="315.1" r="3" fill="#9467bd"/>
<circle cx="653.2" cy="315.2" r="3" fill="#9467bd"/>
<circle cx="669.4" cy="314.1" r="3" fill="#9467bd"/>
<circle cx="685.6" cy="311.9" r="3" fill="#9467bd"/>
<circle cx="701.8" cy="316.5" r="3" fill="#9467bd"/>
<circle cx="718.0" cy="316.1" r="3" fill="#9467bd"/>
<circle cx="734.2" cy="316.0" r="3" fill="#9467bd"/>
<circle cx="750.4" cy="312.9" r="3" fill="#9467bd"/>
<circle cx="766.6" cy="314.0" r="3" fill="#9467bd"/>
<circle cx="782.8" cy="316.3" r="3" fill="#9467bd"/>
<circle cx="799.0" cy="313.4" r="3" fill="#9467bd"/>
<circle cx="815.2" cy="316.9" r="3" fill="#9467bd"/>
<circle cx="831.4" cy="312.3" r="3" fill="#9467bd"/>
<circle cx="847.6" cy="296.2" r="3" fill="#9467bd"/>
<circle cx="863.8" cy="290.3" r="3" fill="#9467bd"/>
<circle cx="880.0" cy="314.5" r="3" fill="#9467bd"/>
<rect x="610.0" y="358" width="10" height="10" fill="#9467bd"/>
<text x="624.0" y="367" font-size="11" fill="#333">lipsync first mouth</text>
<polyline points="215.8,318.5 280.6,314.7 296.8,318.1 313.0,318.0 329.2,318.8 345.4,312.5 361.6,318.8 377.8,314.5 394.0,318.9 410.2,318.7 426.4,311.9 442.6,318.2 458.8,318.5 475.0,311.1 491.2,317.5 507.4,317.9 523.6,316.7 539.8,318.9 588.4,318.7 604.6,318.6 620.8,318.2 637.0,318.2 653.2,318.6 669.4,317.8 685.6,318.8 701.8,318.3 718.0,318.3 734.2,319.3 750.4,315.9 766.6,318.6 782.8,319.7 799.0,317.7 815.2,319.3 831.4,319.1 847.6,320.4 863.8,320.3 880.0,318.2" fill="none" stroke="#8c564b" stroke-width="2"/>
<circle cx="215.8" cy="318.5" r="3" fill="#8c564b"/>
<circle cx="280.6" cy="314.7" r="3" fill="#8c564b"/>
<circle cx="296.8" cy="318.1" r="3" fill="#8c564b"/>
<circle cx="313.0" cy="318.0" r="3" fill="#8c564b"/>
<circle cx="329.2" cy="318.8" r="3" fill="#8c564b"/>
<circle cx="345.4" cy="312.5" r="3" fill="#8c564b"/>
<circle cx="361.6" cy="318.8" r="3" fill="#8c564b"/>
<circle cx="377.8" cy="314.5" r="3" fill="#8c564b"/>
<circle cx="394.0" cy="318.9" r="3" fill="#8c564b"/>
<circle cx="410.2" cy="318.7" r="3" fill="#8c564b"/>
<circle cx="426.4" cy="311.9" r="3" fill="#8c564b"/>
<circle cx="442.6" cy="318.2" r="3" fill="#8c564b"/>
<circle cx="458.8" cy="318.5" r="3" fill="#8c564b"/>
<circle cx="475.0" cy="311.1" r="3" fill="#8c564b"/>
<circle cx="491.2" cy="317.5" r="3" fill="#8c564b"/>
<circle cx="507.4" cy="317.9" r="3" fill="#8c564b"/>
<circle cx="523.6" cy="316.7" r="3" fill="#8c564b"/>
<circle cx="539.8" cy="318.9" r="3" fill="#8c564b"/>
<circle cx="588.4" cy="318.7" r="3" fill="#8c564b"/>
<circle cx="604.6" cy="318.6" r="3" fill="#8c564b"/>
<circle cx="620.8" cy="318.2" r="3" fill="#8c564b"/>
<circle cx="637.0" cy="318.2" r="3" fill="#8c564b"/>
<circle cx="653.2" cy="318.6" r="3" fill="#8c564b"/>
<circle cx="669.4" cy="317.8" r="3" fill="#8c564b"/>
<circle cx="685.6" cy="318.8" r="3" fill="#8c564b"/>
<circle cx="701.8" cy="318.3" r="3" fill="#8c564b"/>
<circle cx="718.0" cy="318.3" r="3" fill="#8c564b"/>
<circle cx="734.2" cy="319.3" r="3" fill="#8c564b"/>
<circle cx="750.4" cy="315.9" r="3" fill="#8c564b"/>
<circle cx="766.6" cy="318.6" r="3" fill="#8c564b"/>
<circle cx="782.8" cy="319.7" r="3" fill="#8c564b"/>
<circle cx="799.0" cy="317.7" r="3" fill="#8c564b"/>
<circle cx="815.2" cy="319.3" r="3" fill="#8c564b"/>
<circle cx="831.4" cy="319.1" r="3" fill="#8c564b"/>
<circle cx="847.6" cy="320.4" r="3" fill="#8c564b"/>
<circle cx="863.8" cy="320.3" r="3" fill="#8c564b"/>
<circle cx="880.0" cy="318.2" r="3" fill="#8c564b"/>
<rect x="745.0" y="358" width="10" height="10" fill="#8c564b"/>
<text x="759.0" y="367" font-size="11" fill="#333">render tick p95</text>
</svg>
