<svg xmlns="http://www.w3.org/2000/svg" width="900" height="380" viewBox="0 0 900 380" font-family="sans-serif">
<rect width="900" height="380" fill="white"/>
<text x="70" y="24" font-size="16" fill="#333">Latency (ms, p50 unless noted) — lower is better</text>
<line x1="70" y1="324.0" x2="880" y2="324.0" stroke="#e5e5e5"/>
<text x="64" y="328.0" font-size="11" fill="#666" text-anchor="end">0ms</text>
<line x1="70" y1="268.0" x2="880" y2="268.0" stroke="#e5e5e5"/>
<text x="64" y="272.0" font-size="11" fill="#666" text-anchor="end">897ms</text>
<line x1="70" y1="212.0" x2="880" y2="212.0" stroke="#e5e5e5"/>
<text x="64" y="216.0" font-size="11" fill="#666" text-anchor="end">1793ms</text>
<line x1="70" y1="156.0" x2="880" y2="156.0" stroke="#e5e5e5"/>
<text x="64" y="160.0" font-size="11" fill="#666" text-anchor="end">2690ms</text>
<line x1="70" y1="100.0" x2="880" y2="100.0" stroke="#e5e5e5"/>
<text x="64" y="104.0" font-size="11" fill="#666" text-anchor="end">3586ms</text>
<line x1="70" y1="44.0" x2="880" y2="44.0" stroke="#e5e5e5"/>
<text x="64" y="48.0" font-size="11" fill="#666" text-anchor="end">4483ms</text>
<text x="70.0" y="342" font-size="11" fill="#666" text-anchor="start">07-16 16:02</text>
<text x="511.8" y="342" font-size="11" fill="#666" text-anchor="middle">07-16 21:34</text>
<text x="880.0" y="342" font-size="11" fill="#666" text-anchor="end">07-16 22:34</text>
<polyline points="70.0,148.4 143.6,165.2 290.9,125.1 364.5,247.2 438.2,65.6 511.8,182.0 585.5,73.1 659.1,142.9 732.7,64.7 806.4,203.4 880.0,70.4" fill="none" stroke="#d62728" stroke-width="2"/>
<circle cx="70.0" cy="148.4" r="3" fill="#d62728"/>
<circle cx="143.6" cy="165.2" r="3" fill="#d62728"/>
<circle cx="290.9" cy="125.1" r="3" fill="#d62728"/>
<circle cx="364.5" cy="247.2" r="3" fill="#d62728"/>
<circle cx="438.2" cy="65.6" r="3" fill="#d62728"/>
<circle cx="511.8" cy="182.0" r="3" fill="#d62728"/>
<circle cx="585.5" cy="73.1" r="3" fill="#d62728"/>
<circle cx="659.1" cy="142.9" r="3" fill="#d62728"/>
<circle cx="732.7" cy="64.7" r="3" fill="#d62728"/>
<circle cx="806.4" cy="203.4" r="3" fill="#d62728"/>
<circle cx="880.0" cy="70.4" r="3" fill="#d62728"/>
<rect x="70.0" y="358" width="10" height="10" fill="#d62728"/>
<text x="84.0" y="367" font-size="11" fill="#333">first audio (e2e)</text>
<polyline points="732.7,144.3" fill="none" stroke="#1f77b4" stroke-width="2"/>
<circle cx="732.7" cy="144.3" r="3" fill="#1f77b4"/>
<rect x="205.0" y="358" width="10" height="10" fill="#1f77b4"/>
<text x="219.0" y="367" font-size="11" fill="#333">tts first chunk</text>
<polyline points="732.7,281.0" fill="none" stroke="#ff7f0e" stroke-width="2"/>
<circle cx="732.7" cy="281.0" r="3" fill="#ff7f0e"/>
<rect x="340.0" y="358" width="10" height="10" fill="#ff7f0e"/>
<text x="354.0" y="367" font-size="11" fill="#333">llm ttft</text>
<polyline points="70.0,279.6 143.6,286.2 290.9,281.2 364.5,281.1 438.2,289.5 585.5,242.1 659.1,253.8 732.7,188.4" fill="none" stroke="#2ca02c" stroke-width="2"/>
<circle cx="70.0" cy="279.6" r="3" fill="#2ca02c"/>
<circle cx="143.6" cy="286.2" r="3" fill="#2ca02c"/>
<circle cx="290.9" cy="281.2" r="3" fill="#2ca02c"/>
<circle cx="364.5" cy="281.1" r="3" fill="#2ca02c"/>
<circle cx="438.2" cy="289.5" r="3" fill="#2ca02c"/>
<circle cx="585.5" cy="242.1" r="3" fill="#2ca02c"/>
<circle cx="659.1" cy="253.8" r="3" fill="#2ca02c"/>
<circle cx="732.7" cy="188.4" r="3" fill="#2ca02c"/>
<rect x="475.0" y="358" width="10" height="10" fill="#2ca02c"/>
<text x="489.0" y="367" font-size="11" fill="#333">llm first sentence</text>
<polyline points="70.0,302.7 143.6,306.6 217.3,303.4 290.9,305.0 364.5,293.0 438.2,305.8 585.5,294.4 659.1,291.1 732.7,298.6" fill="none" stroke="#9467bd" stroke-width="2"/>
<circle cx="70.0" cy="302.7" r="3" fill="#9467bd"/>
<circle cx="143.6" cy="306.6" r="3" fill="#9467bd"/>
<circle cx="217.3" cy="303.4" r="3" fill="#9467bd"/>
<circle cx="290.9" cy="305.0" r="3" fill="#9467bd"/>
<circle cx="364.5" cy="293.0" r="3" fill="#9467bd"/>
<circle cx="438.2" cy="305.8" r="3" fill="#9467bd"/>
<circle cx="585.5" cy="294.4" r="3" fill="#9467bd"/>
<circle cx="659.1" cy="291.1" r="3" fill="#9467bd"/>
<circle cx="732.7" cy="298.6" r="3" fill="#9467bd"/>
<rect x="610.0" y="358" width="10" height="10" fill="#9467bd"/>
<text x="624.0" y="367" font-size="11" fill="#333">lipsync first mouth</text>
<polyline points="732.7,314.9" fill="none" stroke="#8c564b" stroke-width="2"/>
<circle cx="732.7" cy="314.9" r="3" fill="#8c564b"/>
<rect x="745.0" y="358" width="10" height="10" fill="#8c564b"/>
<text x="759.0" y="367" font-size="11" fill="#333">render tick p95</text>
</svg>
