<svg xmlns="http://www.w3.org/2000/svg" width="900" height="380" viewBox="0 0 900 380" font-family="sans-serif">
<rect width="900" height="380" fill="white"/>
<text x="70" y="24" font-size="16" fill="#333">Latency (ms, p50 unless noted) — lower is better</text>
<line x1="70" y1="324.0" x2="880" y2="324.0" stroke="#e5e5e5"/>
<text x="64" y="328.0" font-size="11" fill="#666" text-anchor="end">0ms</text>
<line x1="70" y1="268.0" x2="880" y2="268.0" stroke="#e5e5e5"/>
<text x="64" y="272.0" font-size="11" fill="#666" text-anchor="end">1481ms</text>
<line x1="70" y1="212.0" x2="880" y2="212.0" stroke="#e5e5e5"/>
<text x="64" y="216.0" font-size="11" fill="#666" text-anchor="end">2963ms</text>
<line x1="70" y1="156.0" x2="880" y2="156.0" stroke="#e5e5e5"/>
<text x="64" y="160.0" font-size="11" fill="#666" text-anchor="end">4444ms</text>
<line x1="70" y1="100.0" x2="880" y2="100.0" stroke="#e5e5e5"/>
<text x="64" y="104.0" font-size="11" fill="#666" text-anchor="end">5925ms</text>
<line x1="70" y1="44.0" x2="880" y2="44.0" stroke="#e5e5e5"/>
<text x="64" y="48.0" font-size="11" fill="#666" text-anchor="end">7407ms</text>
<text x="70.0" y="342" font-size="11" fill="#666" text-anchor="start">07-16 16:02</text>
<text x="492.6" y="342" font-size="11" fill="#666" text-anchor="middle">07-17 05:57</text>
<text x="880.0" y="342" font-size="11" fill="#666" text-anchor="end">07-17 16:30</text>
<polyline points="70.0,217.7 105.2,227.9 175.7,203.6 210.9,277.5 246.1,167.6 281.3,238.1 316.5,172.1 351.7,214.4 387.0,167.1 422.2,251.0 457.4,170.5 492.6,265.2 527.8,240.0 563.0,194.2 598.3,237.5 633.5,232.3 668.7,238.8 703.9,246.5 739.1,234.7 774.3,174.8 809.6,240.9 844.8,214.4 880.0,64.7" fill="none" stroke="#d62728" stroke-width="2"/>
<circle cx="70.0" cy="217.7" r="3" fill="#d62728"/>
<circle cx="105.2" cy="227.9" r="3" fill="#d62728"/>
<circle cx="175.7" cy="203.6" r="3" fill="#d62728"/>
<circle cx="210.9" cy="277.5" r="3" fill="#d62728"/>
<circle cx="246.1" cy="167.6" r="3" fill="#d62728"/>
<circle cx="281.3" cy="238.1" r="3" fill="#d62728"/>
<circle cx="316.5" cy="172.1" r="3" fill="#d62728"/>
<circle cx="351.7" cy="214.4" r="3" fill="#d62728"/>
<circle cx="387.0" cy="167.1" r="3" fill="#d62728"/>
<circle cx="422.2" cy="251.0" r="3" fill="#d62728"/>
<circle cx="457.4" cy="170.5" r="3" fill="#d62728"/>
<circle cx="492.6" cy="265.2" r="3" fill="#d62728"/>
<circle cx="527.8" cy="240.0" r="3" fill="#d62728"/>
<circle cx="563.0" cy="194.2" r="3" fill="#d62728"/>
<circle cx="598.3" cy="237.5" r="3" fill="#d62728"/>
<circle cx="633.5" cy="232.3" r="3" fill="#d62728"/>
<circle cx="668.7" cy="238.8" r="3" fill="#d62728"/>
<circle cx="703.9" cy="246.5" r="3" fill="#d62728"/>
<circle cx="739.1" cy="234.7" r="3" fill="#d62728"/>
<circle cx="774.3" cy="174.8" r="3" fill="#d62728"/>
<circle cx="809.6" cy="240.9" r="3" fill="#d62728"/>
<circle cx="844.8" cy="214.4" r="3" fill="#d62728"/>
<circle cx="880.0" cy="64.7" r="3" fill="#d62728"/>
<rect x="70.0" y="358" width="10" height="10" fill="#d62728"/>
<text x="84.0" y="367" font-size="11" fill="#333">first audio (e2e)</text>
<polyline points="387.0,215.3 527.8,199.1 563.0,224.4 598.3,176.9 633.5,267.6 668.7,239.5 703.9,283.5 739.1,244.5 774.3,260.4 809.6,246.2 844.8,245.6 880.0,201.1" fill="none" stroke="#1f77b4" stroke-width="2"/>
<circle cx="387.0" cy="215.3" r="3" fill="#1f77b4"/>
<circle cx="527.8" cy="199.1" r="3" fill="#1f77b4"/>
<circle cx="563.0" cy="224.4" r="3" fill="#1f77b4"/>
<circle cx="598.3" cy="176.9" r="3" fill="#1f77b4"/>
<circle cx="633.5" cy="267.6" r="3" fill="#1f77b4"/>
<circle cx="668.7" cy="239.5" r="3" fill="#1f77b4"/>
<circle cx="703.9" cy="283.5" r="3" fill="#1f77b4"/>
<circle cx="739.1" cy="244.5" r="3" fill="#1f77b4"/>
<circle cx="774.3" cy="260.4" r="3" fill="#1f77b4"/>
<circle cx="809.6" cy="246.2" r="3" fill="#1f77b4"/>
<circle cx="844.8" cy="245.6" r="3" fill="#1f77b4"/>
<circle cx="880.0" cy="201.1" r="3" fill="#1f77b4"/>
<rect x="205.0" y="358" width="10" height="10" fill="#1f77b4"/>
<text x="219.0" y="367" font-size="11" fill="#333">tts first chunk</text>
<polyline points="387.0,298.0 527.8,298.0 563.0,307.7 668.7,287.9 703.9,307.5 739.1,307.7 809.6,300.5 844.8,298.4" fill="none" stroke="#ff7f0e" stroke-width="2"/>
<circle cx="387.0" cy="298.0" r="3" fill="#ff7f0e"/>
<circle cx="527.8" cy="298.0" r="3" fill="#ff7f0e"/>
<circle cx="563.0" cy="307.7" r="3" fill="#ff7f0e"/>
<circle cx="668.7" cy="287.9" r="3" fill="#ff7f0e"/>
<circle cx="703.9" cy="307.5" r="3" fill="#ff7f0e"/>
<circle cx="739.1" cy="307.7" r="3" fill="#ff7f0e"/>
<circle cx="809.6" cy="300.5" r="3" fill="#ff7f0e"/>
<circle cx="844.8" cy="298.4" r="3" fill="#ff7f0e"/>
<rect x="340.0" y="358" width="10" height="10" fill="#ff7f0e"/>
<text x="354.0" y="367" font-size="11" fill="#333">llm ttft</text>
<polyline points="70.0,297.1 105.2,301.1 175.7,298.1 210.9,298.0 246.1,303.1 316.5,274.4 351.7,281.5 387.0,241.9 527.8,243.2 563.0,286.5 598.3,268.6 633.5,306.2 668.7,280.2 703.9,306.0 739.1,297.3 774.3,269.3 809.6,299.0 844.8,267.5 880.0,275.1" fill="none" stroke="#2ca02c" stroke-width="2"/>
<circle cx="70.0" cy="297.1" r="3" fill="#2ca02c"/>
<circle cx="105.2" cy="301.1" r="3" fill="#2ca02c"/>
<circle cx="175.7" cy="298.1" r="3" fill="#2ca02c"/>
<circle cx="210.9" cy="298.0" r="3" fill="#2ca02c"/>
<circle cx="246.1" cy="303.1" r="3" fill="#2ca02c"/>
<circle cx="316.5" cy="274.4" r="3" fill="#2ca02c"/>
<circle cx="351.7" cy="281.5" r="3" fill="#2ca02c"/>
<circle cx="387.0" cy="241.9" r="3" fill="#2ca02c"/>
<circle cx="527.8" cy="243.2" r="3" fill="#2ca02c"/>
<circle cx="563.0" cy="286.5" r="3" fill="#2ca02c"/>
<circle cx="598.3" cy="268.6" r="3" fill="#2ca02c"/>
<circle cx="633.5" cy="306.2" r="3" fill="#2ca02c"/>
<circle cx="668.7" cy="280.2" r="3" fill="#2ca02c"/>
<circle cx="703.9" cy="306.0" r="3" fill="#2ca02c"/>
<circle cx="739.1" cy="297.3" r="3" fill="#2ca02c"/>
<circle cx="774.3" cy="269.3" r="3" fill="#2ca02c"/>
<circle cx="809.6" cy="299.0" r="3" fill="#2ca02c"/>
<circle cx="844.8" cy="267.5" r="3" fill="#2ca02c"/>
<circle cx="880.0" cy="275.1" r="3" fill="#2ca02c"/>
<rect x="475.0" y="358" width="10" height="10" fill="#2ca02c"/>
<text x="489.0" y="367" font-size="11" fill="#333">llm first sentence</text>
<polyline points="70.0,311.1 105.2,313.5 140.4,311.5 175.7,312.5 210.9,305.2 246.1,313.0 316.5,306.1 351.7,304.1 387.0,308.6 527.8,305.6 563.0,310.6 598.3,306.4 633.5,314.9 668.7,315.0 703.9,315.6 739.1,307.9 774.3,313.9 809.6,315.7 844.8,312.8 880.0,306.0" fill="none" stroke="#9467bd" stroke-width="2"/>
<circle cx="70.0" cy="311.1" r="3" fill="#9467bd"/>
<circle cx="105.2" cy="313.5" r="3" fill="#9467bd"/>
<circle cx="140.4" cy="311.5" r="3" fill="#9467bd"/>
<circle cx="175.7" cy="312.5" r="3" fill="#9467bd"/>
<circle cx="210.9" cy="305.2" r="3" fill="#9467bd"/>
<circle cx="246.1" cy="313.0" r="3" fill="#9467bd"/>
<circle cx="316.5" cy="306.1" r="3" fill="#9467bd"/>
<circle cx="351.7" cy="304.1" r="3" fill="#9467bd"/>
<circle cx="387.0" cy="308.6" r="3" fill="#9467bd"/>
<circle cx="527.8" cy="305.6" r="3" fill="#9467bd"/>
<circle cx="563.0" cy="310.6" r="3" fill="#9467bd"/>
<circle cx="598.3" cy="306.4" r="3" fill="#9467bd"/>
<circle cx="633.5" cy="314.9" r="3" fill="#9467bd"/>
<circle cx="668.7" cy="315.0" r="3" fill="#9467bd"/>
<circle cx="703.9" cy="315.6" r="3" fill="#9467bd"/>
<circle cx="739.1" cy="307.9" r="3" fill="#9467bd"/>
<circle cx="774.3" cy="313.9" r="3" fill="#9467bd"/>
<circle cx="809.6" cy="315.7" r="3" fill="#9467bd"/>
<circle cx="844.8" cy="312.8" r="3" fill="#9467bd"/>
<circle cx="880.0" cy="306.0" r="3" fill="#9467bd"/>
<rect x="610.0" y="358" width="10" height="10" fill="#9467bd"/>
<text x="624.0" y="367" font-size="11" fill="#333">lipsync first mouth</text>
<polyline points="387.0,318.5 527.8,314.7 563.0,318.1 598.3,318.0 633.5,318.8 668.7,312.5 703.9,318.8 739.1,314.5 774.3,318.9 809.6,318.7 844.8,311.9 880.0,318.2" fill="none" stroke="#8c564b" stroke-width="2"/>
<circle cx="387.0" cy="318.5" r="3" fill="#8c564b"/>
<circle cx="527.8" cy="314.7" r="3" fill="#8c564b"/>
<circle cx="563.0" cy="318.1" r="3" fill="#8c564b"/>
<circle cx="598.3" cy="318.0" r="3" fill="#8c564b"/>
<circle cx="633.5" cy="318.8" r="3" fill="#8c564b"/>
<circle cx="668.7" cy="312.5" r="3" fill="#8c564b"/>
<circle cx="703.9" cy="318.8" r="3" fill="#8c564b"/>
<circle cx="739.1" cy="314.5" r="3" fill="#8c564b"/>
<circle cx="774.3" cy="318.9" r="3" fill="#8c564b"/>
<circle cx="809.6" cy="318.7" r="3" fill="#8c564b"/>
<circle cx="844.8" cy="311.9" r="3" fill="#8c564b"/>
<circle cx="880.0" cy="318.2" r="3" fill="#8c564b"/>
<rect x="745.0" y="358" width="10" height="10" fill="#8c564b"/>
<text x="759.0" y="367" font-size="11" fill="#333">render tick p95</text>
</svg>
