<svg xmlns="http://www.w3.org/2000/svg" width="900" height="380" viewBox="0 0 900 380" font-family="sans-serif">
<rect width="900" height="380" fill="white"/>
<text x="70" y="24" font-size="16" fill="#333">Latency (ms, p50 unless noted) — lower is better</text>
<line x1="70" y1="324.0" x2="880" y2="324.0" stroke="#e5e5e5"/>
<text x="64" y="328.0" font-size="11" fill="#666" text-anchor="end">0ms</text>
<line x1="70" y1="268.0" x2="880" y2="268.0" stroke="#e5e5e5"/>
<text x="64" y="272.0" font-size="11" fill="#666" text-anchor="end">1481ms</text>
<line x1="70" y1="212.0" x2="880" y2="212.0" stroke="#e5e5e5"/>
<text x="64" y="216.0" font-size="11" fill="#666" text-anchor="end">2963ms</text>
<line x1="70" y1="156.0" x2="880" y2="156.0" stroke="#e5e5e5"/>
<text x="64" y="160.0" font-size="11" fill="#666" text-anchor="end">4444ms</text>
<line x1="70" y1="100.0" x2="880" y2="100.0" stroke="#e5e5e5"/>
<text x="64" y="104.0" font-size="11" fill="#666" text-anchor="end">5925ms</text>
<line x1="70" y1="44.0" x2="880" y2="44.0" stroke="#e5e5e5"/>
<text x="64" y="48.0" font-size="11" fill="#666" text-anchor="end">7407ms</text>
<text x="70.0" y="342" font-size="11" fill="#666" text-anchor="start">07-16 16:02</text>
<text x="475.0" y="342" font-size="11" fill="#666" text-anchor="middle">07-17 16:35</text>
<text x="880.0" y="342" font-size="11" fill="#666" text-anchor="end">07-17 22:35</text>
<polyline points="70.0,217.7 86.9,227.9 120.6,203.6 137.5,277.5 154.4,167.6 171.2,238.1 188.1,172.1 205.0,214.4 221.9,167.1 238.8,251.0 255.6,170.5 272.5,265.2 289.4,240.0 306.2,194.2 323.1,237.5 340.0,232.3 356.9,238.8 373.8,246.5 390.6,234.7 407.5,174.8 424.4,240.9 441.2,214.4 458.1,64.7 475.0,245.0 491.9,220.8 508.8,276.4 525.6,269.9 542.5,274.6 559.4,281.8 576.2,316.3 593.1,285.1 610.0,292.2 626.9,283.0 643.8,300.1 660.6,293.0 677.5,206.2 694.4,292.0 711.2,223.6 728.1,294.7 745.0,296.4 761.9,260.6 778.8,292.8 795.6,290.2 812.5,290.1 829.4,286.4 846.2,287.0 863.1,292.4 880.0,292.8" fill="none" stroke="#d62728" stroke-width="2"/>
<circle cx="70.0" cy="217.7" r="3" fill="#d62728"/>
<circle cx="86.9" cy="227.9" r="3" fill="#d62728"/>
<circle cx="120.6" cy="203.6" r="3" fill="#d62728"/>
<circle cx="137.5" cy="277.5" r="3" fill="#d62728"/>
<circle cx="154.4" cy="167.6" r="3" fill="#d62728"/>
<circle cx="171.2" cy="238.1" r="3" fill="#d62728"/>
<circle cx="188.1" cy="172.1" r="3" fill="#d62728"/>
<circle cx="205.0" cy="214.4" r="3" fill="#d62728"/>
<circle cx="221.9" cy="167.1" r="3" fill="#d62728"/>
<circle cx="238.8" cy="251.0" r="3" fill="#d62728"/>
<circle cx="255.6" cy="170.5" r="3" fill="#d62728"/>
<circle cx="272.5" cy="265.2" r="3" fill="#d62728"/>
<circle cx="289.4" cy="240.0" r="3" fill="#d62728"/>
<circle cx="306.2" cy="194.2" r="3" fill="#d62728"/>
<circle cx="323.1" cy="237.5" r="3" fill="#d62728"/>
<circle cx="340.0" cy="232.3" r="3" fill="#d62728"/>
<circle cx="356.9" cy="238.8" r="3" fill="#d62728"/>
<circle cx="373.8" cy="246.5" r="3" fill="#d62728"/>
<circle cx="390.6" cy="234.7" r="3" fill="#d62728"/>
<circle cx="407.5" cy="174.8" r="3" fill="#d62728"/>
<circle cx="424.4" cy="240.9" r="3" fill="#d62728"/>
<circle cx="441.2" cy="214.4" r="3" fill="#d62728"/>
<circle cx="458.1" cy="64.7" r="3" fill="#d62728"/>
<circle cx="475.0" cy="245.0" r="3" fill="#d62728"/>
<circle cx="491.9" cy="220.8" r="3" fill="#d62728"/>
<circle cx="508.8" cy="276.4" r="3" fill="#d62728"/>
<circle cx="525.6" cy="269.9" r="3" fill="#d62728"/>
<circle cx="542.5" cy="274.6" r="3" fill="#d62728"/>
<circle cx="559.4" cy="281.8" r="3" fill="#d62728"/>
<circle cx="576.2" cy="316.3" r="3" fill="#d62728"/>
<circle cx="593.1" cy="285.1" r="3" fill="#d62728"/>
<circle cx="610.0" cy="292.2" r="3" fill="#d62728"/>
<circle cx="626.9" cy="283.0" r="3" fill="#d62728"/>
<circle cx="643.8" cy="300.1" r="3" fill="#d62728"/>
<circle cx="660.6" cy="293.0" r="3" fill="#d62728"/>
<circle cx="677.5" cy="206.2" r="3" fill="#d62728"/>
<circle cx="694.4" cy="292.0" r="3" fill="#d62728"/>
<circle cx="711.2" cy="223.6" r="3" fill="#d62728"/>
<circle cx="728.1" cy="294.7" r="3" fill="#d62728"/>
<circle cx="745.0" cy="296.4" r="3" fill="#d62728"/>
<circle cx="761.9" cy="260.6" r="3" fill="#d62728"/>
<circle cx="778.8" cy="292.8" r="3" fill="#d62728"/>
<circle cx="795.6" cy="290.2" r="3" fill="#d62728"/>
<circle cx="812.5" cy="290.1" r="3" fill="#d62728"/>
<circle cx="829.4" cy="286.4" r="3" fill="#d62728"/>
<circle cx="846.2" cy="287.0" r="3" fill="#d62728"/>
<circle cx="863.1" cy="292.4" r="3" fill="#d62728"/>
<circle cx="880.0" cy="292.8" r="3" fill="#d62728"/>
<rect x="70.0" y="358" width="10" height="10" fill="#d62728"/>
<text x="84.0" y="367" font-size="11" fill="#333">first audio (e2e)</text>
<polyline points="221.9,215.3 289.4,199.1 306.2,224.4 323.1,176.9 340.0,267.6 356.9,239.5 373.8,283.5 390.6,244.5 407.5,260.4 424.4,246.2 441.2,245.6 458.1,201.1 475.0,299.9 491.9,252.0 508.8,317.9 525.6,317.8 542.5,317.5 559.4,318.0 610.0,318.3 626.9,317.4 643.8,317.8 660.6,318.6 677.5,317.8 694.4,318.2 711.2,317.3 728.1,317.7 745.0,319.0 761.9,318.6 778.8,317.0 795.6,317.8 812.5,318.5 829.4,317.4 846.2,317.7 863.1,317.1 880.0,300.8" fill="none" stroke="#1f77b4" stroke-width="2"/>
<circle cx="221.9" cy="215.3" r="3" fill="#1f77b4"/>
<circle cx="289.4" cy="199.1" r="3" fill="#1f77b4"/>
<circle cx="306.2" cy="224.4" r="3" fill="#1f77b4"/>
<circle cx="323.1" cy="176.9" r="3" fill="#1f77b4"/>
<circle cx="340.0" cy="267.6" r="3" fill="#1f77b4"/>
<circle cx="356.9" cy="239.5" r="3" fill="#1f77b4"/>
<circle cx="373.8" cy="283.5" r="3" fill="#1f77b4"/>
<circle cx="390.6" cy="244.5" r="3" fill="#1f77b4"/>
<circle cx="407.5" cy="260.4" r="3" fill="#1f77b4"/>
<circle cx="424.4" cy="246.2" r="3" fill="#1f77b4"/>
<circle cx="441.2" cy="245.6" r="3" fill="#1f77b4"/>
<circle cx="458.1" cy="201.1" r="3" fill="#1f77b4"/>
<circle cx="475.0" cy="299.9" r="3" fill="#1f77b4"/>
<circle cx="491.9" cy="252.0" r="3" fill="#1f77b4"/>
<circle cx="508.8" cy="317.9" r="3" fill="#1f77b4"/>
<circle cx="525.6" cy="317.8" r="3" fill="#1f77b4"/>
<circle cx="542.5" cy="317.5" r="3" fill="#1f77b4"/>
<circle cx="559.4" cy="318.0" r="3" fill="#1f77b4"/>
<circle cx="610.0" cy="318.3" r="3" fill="#1f77b4"/>
<circle cx="626.9" cy="317.4" r="3" fill="#1f77b4"/>
<circle cx="643.8" cy="317.8" r="3" fill="#1f77b4"/>
<circle cx="660.6" cy="318.6" r="3" fill="#1f77b4"/>
<circle cx="677.5" cy="317.8" r="3" fill="#1f77b4"/>
<circle cx="694.4" cy="318.2" r="3" fill="#1f77b4"/>
<circle cx="711.2" cy="317.3" r="3" fill="#1f77b4"/>
<circle cx="728.1" cy="317.7" r="3" fill="#1f77b4"/>
<circle cx="745.0" cy="319.0" r="3" fill="#1f77b4"/>
<circle cx="761.9" cy="318.6" r="3" fill="#1f77b4"/>
<circle cx="778.8" cy="317.0" r="3" fill="#1f77b4"/>
<circle cx="795.6" cy="317.8" r="3" fill="#1f77b4"/>
<circle cx="812.5" cy="318.5" r="3" fill="#1f77b4"/>
<circle cx="829.4" cy="317.4" r="3" fill="#1f77b4"/>
<circle cx="846.2" cy="317.7" r="3" fill="#1f77b4"/>
<circle cx="863.1" cy="317.1" r="3" fill="#1f77b4"/>
<circle cx="880.0" cy="300.8" r="3" fill="#1f77b4"/>
<rect x="205.0" y="358" width="10" height="10" fill="#1f77b4"/>
<text x="219.0" y="367" font-size="11" fill="#333">tts first chunk</text>
<polyline points="221.9,298.0 289.4,298.0 306.2,307.7 356.9,287.9 373.8,307.5 390.6,307.7 424.4,300.5 441.2,298.4 475.0,304.7 491.9,305.1 508.8,306.6 525.6,304.3 542.5,291.3 610.0,304.1 677.5,262.6 728.1,311.0 745.0,312.2 761.9,308.2 812.5,308.0 880.0,313.3" fill="none" stroke="#ff7f0e" stroke-width="2"/>
<circle cx="221.9" cy="298.0" r="3" fill="#ff7f0e"/>
<circle cx="289.4" cy="298.0" r="3" fill="#ff7f0e"/>
<circle cx="306.2" cy="307.7" r="3" fill="#ff7f0e"/>
<circle cx="356.9" cy="287.9" r="3" fill="#ff7f0e"/>
<circle cx="373.8" cy="307.5" r="3" fill="#ff7f0e"/>
<circle cx="390.6" cy="307.7" r="3" fill="#ff7f0e"/>
<circle cx="424.4" cy="300.5" r="3" fill="#ff7f0e"/>
<circle cx="441.2" cy="298.4" r="3" fill="#ff7f0e"/>
<circle cx="475.0" cy="304.7" r="3" fill="#ff7f0e"/>
<circle cx="491.9" cy="305.1" r="3" fill="#ff7f0e"/>
<circle cx="508.8" cy="306.6" r="3" fill="#ff7f0e"/>
<circle cx="525.6" cy="304.3" r="3" fill="#ff7f0e"/>
<circle cx="542.5" cy="291.3" r="3" fill="#ff7f0e"/>
<circle cx="610.0" cy="304.1" r="3" fill="#ff7f0e"/>
<circle cx="677.5" cy="262.6" r="3" fill="#ff7f0e"/>
<circle cx="728.1" cy="311.0" r="3" fill="#ff7f0e"/>
<circle cx="745.0" cy="312.2" r="3" fill="#ff7f0e"/>
<circle cx="761.9" cy="308.2" r="3" fill="#ff7f0e"/>
<circle cx="812.5" cy="308.0" r="3" fill="#ff7f0e"/>
<circle cx="880.0" cy="313.3" r="3" fill="#ff7f0e"/>
<rect x="340.0" y="358" width="10" height="10" fill="#ff7f0e"/>
<text x="354.0" y="367" font-size="11" fill="#333">llm ttft</text>
<polyline points="70.0,297.1 86.9,301.1 120.6,298.1 137.5,298.0 154.4,303.1 188.1,274.4 205.0,281.5 221.9,241.9 289.4,243.2 306.2,286.5 323.1,268.6 340.0,306.2 356.9,280.2 373.8,306.0 390.6,297.3 407.5,269.3 424.4,299.0 441.2,267.5 458.1,275.1 475.0,303.3 491.9,253.3 508.8,280.5 525.6,282.8 542.5,272.0 559.4,296.7 610.0,299.6 626.9,301.6 643.8,312.5 660.6,300.5 677.5,169.3 694.4,296.2 711.2,240.3 728.1,307.0 745.0,310.0 761.9,275.8 778.8,305.7 795.6,304.6 812.5,303.7 829.4,297.4 846.2,297.4 863.1,306.8 880.0,306.3" fill="none" stroke="#2ca02c" stroke-width="2"/>
<circle cx="70.0" cy="297.1" r="3" fill="#2ca02c"/>
<circle cx="86.9" cy="301.1" r="3" fill="#2ca02c"/>
<circle cx="120.6" cy="298.1" r="3" fill="#2ca02c"/>
<circle cx="137.5" cy="298.0" r="3" fill="#2ca02c"/>
<circle cx="154.4" cy="303.1" r="3" fill="#2ca02c"/>
<circle cx="188.1" cy="274.4" r="3" fill="#2ca02c"/>
<circle cx="205.0" cy="281.5" r="3" fill="#2ca02c"/>
<circle cx="221.9" cy="241.9" r="3" fill="#2ca02c"/>
<circle cx="289.4" cy="243.2" r="3" fill="#2ca02c"/>
<circle cx="306.2" cy="286.5" r="3" fill="#2ca02c"/>
<circle cx="323.1" cy="268.6" r="3" fill="#2ca02c"/>
<circle cx="340.0" cy="306.2" r="3" fill="#2ca02c"/>
<circle cx="356.9" cy="280.2" r="3" fill="#2ca02c"/>
<circle cx="373.8" cy="306.0" r="3" fill="#2ca02c"/>
<circle cx="390.6" cy="297.3" r="3" fill="#2ca02c"/>
<circle cx="407.5" cy="269.3" r="3" fill="#2ca02c"/>
<circle cx="424.4" cy="299.0" r="3" fill="#2ca02c"/>
<circle cx="441.2" cy="267.5" r="3" fill="#2ca02c"/>
<circle cx="458.1" cy="275.1" r="3" fill="#2ca02c"/>
<circle cx="475.0" cy="303.3" r="3" fill="#2ca02c"/>
<circle cx="491.9" cy="253.3" r="3" fill="#2ca02c"/>
<circle cx="508.8" cy="280.5" r="3" fill="#2ca02c"/>
<circle cx="525.6" cy="282.8" r="3" fill="#2ca02c"/>
<circle cx="542.5" cy="272.0" r="3" fill="#2ca02c"/>
<circle cx="559.4" cy="296.7" r="3" fill="#2ca02c"/>
<circle cx="610.0" cy="299.6" r="3" fill="#2ca02c"/>
<circle cx="626.9" cy="301.6" r="3" fill="#2ca02c"/>
<circle cx="643.8" cy="312.5" r="3" fill="#2ca02c"/>
<circle cx="660.6" cy="300.5" r="3" fill="#2ca02c"/>
<circle cx="677.5" cy="169.3" r="3" fill="#2ca02c"/>
<circle cx="694.4" cy="296.2" r="3" fill="#2ca02c"/>
<circle cx="711.2" cy="240.3" r="3" fill="#2ca02c"/>
<circle cx="728.1" cy="307.0" r="3" fill="#2ca02c"/>
<circle cx="745.0" cy="310.0" r="3" fill="#2ca02c"/>
<circle cx="761.9" cy="275.8" r="3" fill="#2ca02c"/>
<circle cx="778.8" cy="305.7" r="3" fill="#2ca02c"/>
<circle cx="795.6" cy="304.6" r="3" fill="#2ca02c"/>
<circle cx="812.5" cy="303.7" r="3" fill="#2ca02c"/>
<circle cx="829.4" cy="297.4" r="3" fill="#2ca02c"/>
<circle cx="846.2" cy="297.4" r="3" fill="#2ca02c"/>
<circle cx="863.1" cy="306.8" r="3" fill="#2ca02c"/>
<circle cx="880.0" cy="306.3" r="3" fill="#2ca02c"/>
<rect x="475.0" y="358" width="10" height="10" fill="#2ca02c"/>
<text x="489.0" y="367" font-size="11" fill="#333">llm first sentence</text>
<polyline points="70.0,311.1 86.9,313.5 103.8,311.5 120.6,312.5 137.5,305.2 154.4,313.0 188.1,306.1 205.0,304.1 221.9,308.6 289.4,305.6 306.2,310.6 323.1,306.4 340.0,314.9 356.9,315.0 373.8,315.6 390.6,307.9 407.5,313.9 424.4,315.7 441.2,312.8 458.1,306.0 475.0,316.6 491.9,306.0 508.8,313.9 525.6,315.3 542.5,310.5 559.4,316.9 610.0,316.3 626.9,314.8 643.8,314.8 660.6,315.1 677.5,315.2 694.4,314.1 711.2,311.9 728.1,316.5 745.0,316.1 761.9,316.0 778.8,312.9 795.6,314.0 812.5,316.3 829.4,313.4 846.2,316.9 863.1,312.3 880.0,296.2" fill="none" stroke="#9467bd" stroke-width="2"/>
<circle cx="70.0" cy="311.1" r="3" fill="#9467bd"/>
<circle cx="86.9" cy="313.5" r="3" fill="#9467bd"/>
<circle cx="103.8" cy="311.5" r="3" fill="#9467bd"/>
<circle cx="120.6" cy="312.5" r="3" fill="#9467bd"/>
<circle cx="137.5" cy="305.2" r="3" fill="#9467bd"/>
<circle cx="154.4" cy="313.0" r="3" fill="#9467bd"/>
<circle cx="188.1" cy="306.1" r="3" fill="#9467bd"/>
<circle cx="205.0" cy="304.1" r="3" fill="#9467bd"/>
<circle cx="221.9" cy="308.6" r="3" fill="#9467bd"/>
<circle cx="289.4" cy="305.6" r="3" fill="#9467bd"/>
<circle cx="306.2" cy="310.6" r="3" fill="#9467bd"/>
<circle cx="323.1" cy="306.4" r="3" fill="#9467bd"/>
<circle cx="340.0" cy="314.9" r="3" fill="#9467bd"/>
<circle cx="356.9" cy="315.0" r="3" fill="#9467bd"/>
<circle cx="373.8" cy="315.6" r="3" fill="#9467bd"/>
<circle cx="390.6" cy="307.9" r="3" fill="#9467bd"/>
<circle cx="407.5" cy="313.9" r="3" fill="#9467bd"/>
<circle cx="424.4" cy="315.7" r="3" fill="#9467bd"/>
<circle cx="441.2" cy="312.8" r="3" fill="#9467bd"/>
<circle cx="458.1" cy="306.0" r="3" fill="#9467bd"/>
<circle cx="475.0" cy="316.6" r="3" fill="#9467bd"/>
<circle cx="491.9" cy="306.0" r="3" fill="#9467bd"/>
<circle cx="508.8" cy="313.9" r="3" fill="#9467bd"/>
<circle cx="525.6" cy="315.3" r="3" fill="#9467bd"/>
<circle cx="542.5" cy="310.5" r="3" fill="#9467bd"/>
<circle cx="559.4" cy="316.9" r="3" fill="#9467bd"/>
<circle cx="610.0" cy="316.3" r="3" fill="#9467bd"/>
<circle cx="626.9" cy="314.8" r="3" fill="#9467bd"/>
<circle cx="643.8" cy="314.8" r="3" fill="#9467bd"/>
<circle cx="660.6" cy="315.1" r="3" fill="#9467bd"/>
<circle cx="677.5" cy="315.2" r="3" fill="#9467bd"/>
<circle cx="694.4" cy="314.1" r="3" fill="#9467bd"/>
<circle cx="711.2" cy="311.9" r="3" fill="#9467bd"/>
<circle cx="728.1" cy="316.5" r="3" fill="#9467bd"/>
<circle cx="745.0" cy="316.1" r="3" fill="#9467bd"/>
<circle cx="761.9" cy="316.0" r="3" fill="#9467bd"/>
<circle cx="778.8" cy="312.9" r="3" fill="#9467bd"/>
<circle cx="795.6" cy="314.0" r="3" fill="#9467bd"/>
<circle cx="812.5" cy="316.3" r="3" fill="#9467bd"/>
<circle cx="829.4" cy="313.4" r="3" fill="#9467bd"/>
<circle cx="846.2" cy="316.9" r="3" fill="#9467bd"/>
<circle cx="863.1" cy="312.3" r="3" fill="#9467bd"/>
<circle cx="880.0" cy="296.2" r="3" fill="#9467bd"/>
<rect x="610.0" y="358" width="10" height="10" fill="#9467bd"/>
<text x="624.0" y="367" font-size="11" fill="#333">lipsync first mouth</text>
<polyline points="221.9,318.5 289.4,314.7 306.2,318.1 323.1,318.0 340.0,318.8 356.9,312.5 373.8,318.8 390.6,314.5 407.5,318.9 424.4,318.7 441.2,311.9 458.1,318.2 475.0,318.5 491.9,311.1 508.8,317.5 525.6,317.9 542.5,316.7 559.4,318.9 610.0,318.7 626.9,318.6 643.8,318.2 660.6,318.2 677.5,318.6 694.4,317.8 711.2,318.8 728.1,318.3 745.0,318.3 761.9,319.3 778.8,315.9 795.6,318.6 812.5,319.7 829.4,317.7 846.2,319.3 863.1,319.1 880.0,320.4" fill="none" stroke="#8c564b" stroke-width="2"/>
<circle cx="221.9" cy="318.5" r="3" fill="#8c564b"/>
<circle cx="289.4" cy="314.7" r="3" fill="#8c564b"/>
<circle cx="306.2" cy="318.1" r="3" fill="#8c564b"/>
<circle cx="323.1" cy="318.0" r="3" fill="#8c564b"/>
<circle cx="340.0" cy="318.8" r="3" fill="#8c564b"/>
<circle cx="356.9" cy="312.5" r="3" fill="#8c564b"/>
<circle cx="373.8" cy="318.8" r="3" fill="#8c564b"/>
<circle cx="390.6" cy="314.5" r="3" fill="#8c564b"/>
<circle cx="407.5" cy="318.9" r="3" fill="#8c564b"/>
<circle cx="424.4" cy="318.7" r="3" fill="#8c564b"/>
<circle cx="441.2" cy="311.9" r="3" fill="#8c564b"/>
<circle cx="458.1" cy="318.2" r="3" fill="#8c564b"/>
<circle cx="475.0" cy="318.5" r="3" fill="#8c564b"/>
<circle cx="491.9" cy="311.1" r="3" fill="#8c564b"/>
<circle cx="508.8" cy="317.5" r="3" fill="#8c564b"/>
<circle cx="525.6" cy="317.9" r="3" fill="#8c564b"/>
<circle cx="542.5" cy="316.7" r="3" fill="#8c564b"/>
<circle cx="559.4" cy="318.9" r="3" fill="#8c564b"/>
<circle cx="610.0" cy="318.7" r="3" fill="#8c564b"/>
<circle cx="626.9" cy="318.6" r="3" fill="#8c564b"/>
<circle cx="643.8" cy="318.2" r="3" fill="#8c564b"/>
<circle cx="660.6" cy="318.2" r="3" fill="#8c564b"/>
<circle cx="677.5" cy="318.6" r="3" fill="#8c564b"/>
<circle cx="694.4" cy="317.8" r="3" fill="#8c564b"/>
<circle cx="711.2" cy="318.8" r="3" fill="#8c564b"/>
<circle cx="728.1" cy="318.3" r="3" fill="#8c564b"/>
<circle cx="745.0" cy="318.3" r="3" fill="#8c564b"/>
<circle cx="761.9" cy="319.3" r="3" fill="#8c564b"/>
<circle cx="778.8" cy="315.9" r="3" fill="#8c564b"/>
<circle cx="795.6" cy="318.6" r="3" fill="#8c564b"/>
<circle cx="812.5" cy="319.7" r="3" fill="#8c564b"/>
<circle cx="829.4" cy="317.7" r="3" fill="#8c564b"/>
<circle cx="846.2" cy="319.3" r="3" fill="#8c564b"/>
<circle cx="863.1" cy="319.1" r="3" fill="#8c564b"/>
<circle cx="880.0" cy="320.4" r="3" fill="#8c564b"/>
<rect x="745.0" y="358" width="10" height="10" fill="#8c564b"/>
<text x="759.0" y="367" font-size="11" fill="#333">render tick p95</text>
</svg>
