<svg xmlns="http://www.w3.org/2000/svg" width="900" height="380" viewBox="0 0 900 380" font-family="sans-serif">
<rect width="900" height="380" fill="white"/>
<text x="70" y="24" font-size="16" fill="#333">Latency (ms, p50 unless noted) — lower is better</text>
<line x1="70" y1="324.0" x2="880" y2="324.0" stroke="#e5e5e5"/>
<text x="64" y="328.0" font-size="11" fill="#666" text-anchor="end">0ms</text>
<line x1="70" y1="268.0" x2="880" y2="268.0" stroke="#e5e5e5"/>
<text x="64" y="272.0" font-size="11" fill="#666" text-anchor="end">1481ms</text>
<line x1="70" y1="212.0" x2="880" y2="212.0" stroke="#e5e5e5"/>
<text x="64" y="216.0" font-size="11" fill="#666" text-anchor="end">2963ms</text>
<line x1="70" y1="156.0" x2="880" y2="156.0" stroke="#e5e5e5"/>
<text x="64" y="160.0" font-size="11" fill="#666" text-anchor="end">4444ms</text>
<line x1="70" y1="100.0" x2="880" y2="100.0" stroke="#e5e5e5"/>
<text x="64" y="104.0" font-size="11" fill="#666" text-anchor="end">5925ms</text>
<line x1="70" y1="44.0" x2="880" y2="44.0" stroke="#e5e5e5"/>
<text x="64" y="48.0" font-size="11" fill="#666" text-anchor="end">7407ms</text>
<text x="70.0" y="342" font-size="11" fill="#666" text-anchor="start">07-16 16:02</text>
<text x="482.6" y="342" font-size="11" fill="#666" text-anchor="middle">07-17 19:01</text>
<text x="880.0" y="342" font-size="11" fill="#666" text-anchor="end">07-18 08:44</text>
<polyline points="70.0,217.7 85.3,227.9 115.8,203.6 131.1,277.5 146.4,167.6 161.7,238.1 177.0,172.1 192.3,214.4 207.5,167.1 222.8,251.0 238.1,170.5 253.4,265.2 268.7,240.0 284.0,194.2 299.2,237.5 314.5,232.3 329.8,238.8 345.1,246.5 360.4,234.7 375.7,174.8 390.9,240.9 406.2,214.4 421.5,64.7 436.8,245.0 452.1,220.8 467.4,276.4 482.6,269.9 497.9,274.6 513.2,281.8 528.5,316.3 543.8,285.1 559.1,292.2 574.3,283.0 589.6,300.1 604.9,293.0 620.2,206.2 635.5,292.0 650.8,223.6 666.0,294.7 681.3,296.4 696.6,260.6 711.9,292.8 727.2,290.2 742.5,290.1 757.7,286.4 773.0,287.0 788.3,292.4 803.6,292.8 818.9,290.6 834.2,279.0 849.4,291.3 864.7,279.4 880.0,293.4" fill="none" stroke="#d62728" stroke-width="2"/>
<circle cx="70.0" cy="217.7" r="3" fill="#d62728"/>
<circle cx="85.3" cy="227.9" r="3" fill="#d62728"/>
<circle cx="115.8" cy="203.6" r="3" fill="#d62728"/>
<circle cx="131.1" cy="277.5" r="3" fill="#d62728"/>
<circle cx="146.4" cy="167.6" r="3" fill="#d62728"/>
<circle cx="161.7" cy="238.1" r="3" fill="#d62728"/>
<circle cx="177.0" cy="172.1" r="3" fill="#d62728"/>
<circle cx="192.3" cy="214.4" r="3" fill="#d62728"/>
<circle cx="207.5" cy="167.1" r="3" fill="#d62728"/>
<circle cx="222.8" cy="251.0" r="3" fill="#d62728"/>
<circle cx="238.1" cy="170.5" r="3" fill="#d62728"/>
<circle cx="253.4" cy="265.2" r="3" fill="#d62728"/>
<circle cx="268.7" cy="240.0" r="3" fill="#d62728"/>
<circle cx="284.0" cy="194.2" r="3" fill="#d62728"/>
<circle cx="299.2" cy="237.5" r="3" fill="#d62728"/>
<circle cx="314.5" cy="232.3" r="3" fill="#d62728"/>
<circle cx="329.8" cy="238.8" r="3" fill="#d62728"/>
<circle cx="345.1" cy="246.5" r="3" fill="#d62728"/>
<circle cx="360.4" cy="234.7" r="3" fill="#d62728"/>
<circle cx="375.7" cy="174.8" r="3" fill="#d62728"/>
<circle cx="390.9" cy="240.9" r="3" fill="#d62728"/>
<circle cx="406.2" cy="214.4" r="3" fill="#d62728"/>
<circle cx="421.5" cy="64.7" r="3" fill="#d62728"/>
<circle cx="436.8" cy="245.0" r="3" fill="#d62728"/>
<circle cx="452.1" cy="220.8" r="3" fill="#d62728"/>
<circle cx="467.4" cy="276.4" r="3" fill="#d62728"/>
<circle cx="482.6" cy="269.9" r="3" fill="#d62728"/>
<circle cx="497.9" cy="274.6" r="3" fill="#d62728"/>
<circle cx="513.2" cy="281.8" r="3" fill="#d62728"/>
<circle cx="528.5" cy="316.3" r="3" fill="#d62728"/>
<circle cx="543.8" cy="285.1" r="3" fill="#d62728"/>
<circle cx="559.1" cy="292.2" r="3" fill="#d62728"/>
<circle cx="574.3" cy="283.0" r="3" fill="#d62728"/>
<circle cx="589.6" cy="300.1" r="3" fill="#d62728"/>
<circle cx="604.9" cy="293.0" r="3" fill="#d62728"/>
<circle cx="620.2" cy="206.2" r="3" fill="#d62728"/>
<circle cx="635.5" cy="292.0" r="3" fill="#d62728"/>
<circle cx="650.8" cy="223.6" r="3" fill="#d62728"/>
<circle cx="666.0" cy="294.7" r="3" fill="#d62728"/>
<circle cx="681.3" cy="296.4" r="3" fill="#d62728"/>
<circle cx="696.6" cy="260.6" r="3" fill="#d62728"/>
<circle cx="711.9" cy="292.8" r="3" fill="#d62728"/>
<circle cx="727.2" cy="290.2" r="3" fill="#d62728"/>
<circle cx="742.5" cy="290.1" r="3" fill="#d62728"/>
<circle cx="757.7" cy="286.4" r="3" fill="#d62728"/>
<circle cx="773.0" cy="287.0" r="3" fill="#d62728"/>
<circle cx="788.3" cy="292.4" r="3" fill="#d62728"/>
<circle cx="803.6" cy="292.8" r="3" fill="#d62728"/>
<circle cx="818.9" cy="290.6" r="3" fill="#d62728"/>
<circle cx="834.2" cy="279.0" r="3" fill="#d62728"/>
<circle cx="849.4" cy="291.3" r="3" fill="#d62728"/>
<circle cx="864.7" cy="279.4" r="3" fill="#d62728"/>
<circle cx="880.0" cy="293.4" r="3" fill="#d62728"/>
<rect x="70.0" y="358" width="10" height="10" fill="#d62728"/>
<text x="84.0" y="367" font-size="11" fill="#333">first audio (e2e)</text>
<polyline points="207.5,215.3 268.7,199.1 284.0,224.4 299.2,176.9 314.5,267.6 329.8,239.5 345.1,283.5 360.4,244.5 375.7,260.4 390.9,246.2 406.2,245.6 421.5,201.1 436.8,299.9 452.1,252.0 467.4,317.9 482.6,317.8 497.9,317.5 513.2,318.0 559.1,318.3 574.3,317.4 589.6,317.8 604.9,318.6 620.2,317.8 635.5,318.2 650.8,317.3 666.0,317.7 681.3,319.0 696.6,318.6 711.9,317.0 727.2,317.8 742.5,318.5 757.7,317.4 773.0,317.7 788.3,317.1 803.6,300.8 818.9,295.2 834.2,317.5 849.4,317.1 880.0,295.5" fill="none" stroke="#1f77b4" stroke-width="2"/>
<circle cx="207.5" cy="215.3" r="3" fill="#1f77b4"/>
<circle cx="268.7" cy="199.1" r="3" fill="#1f77b4"/>
<circle cx="284.0" cy="224.4" r="3" fill="#1f77b4"/>
<circle cx="299.2" cy="176.9" r="3" fill="#1f77b4"/>
<circle cx="314.5" cy="267.6" r="3" fill="#1f77b4"/>
<circle cx="329.8" cy="239.5" r="3" fill="#1f77b4"/>
<circle cx="345.1" cy="283.5" r="3" fill="#1f77b4"/>
<circle cx="360.4" cy="244.5" r="3" fill="#1f77b4"/>
<circle cx="375.7" cy="260.4" r="3" fill="#1f77b4"/>
<circle cx="390.9" cy="246.2" r="3" fill="#1f77b4"/>
<circle cx="406.2" cy="245.6" r="3" fill="#1f77b4"/>
<circle cx="421.5" cy="201.1" r="3" fill="#1f77b4"/>
<circle cx="436.8" cy="299.9" r="3" fill="#1f77b4"/>
<circle cx="452.1" cy="252.0" r="3" fill="#1f77b4"/>
<circle cx="467.4" cy="317.9" r="3" fill="#1f77b4"/>
<circle cx="482.6" cy="317.8" r="3" fill="#1f77b4"/>
<circle cx="497.9" cy="317.5" r="3" fill="#1f77b4"/>
<circle cx="513.2" cy="318.0" r="3" fill="#1f77b4"/>
<circle cx="559.1" cy="318.3" r="3" fill="#1f77b4"/>
<circle cx="574.3" cy="317.4" r="3" fill="#1f77b4"/>
<circle cx="589.6" cy="317.8" r="3" fill="#1f77b4"/>
<circle cx="604.9" cy="318.6" r="3" fill="#1f77b4"/>
<circle cx="620.2" cy="317.8" r="3" fill="#1f77b4"/>
<circle cx="635.5" cy="318.2" r="3" fill="#1f77b4"/>
<circle cx="650.8" cy="317.3" r="3" fill="#1f77b4"/>
<circle cx="666.0" cy="317.7" r="3" fill="#1f77b4"/>
<circle cx="681.3" cy="319.0" r="3" fill="#1f77b4"/>
<circle cx="696.6" cy="318.6" r="3" fill="#1f77b4"/>
<circle cx="711.9" cy="317.0" r="3" fill="#1f77b4"/>
<circle cx="727.2" cy="317.8" r="3" fill="#1f77b4"/>
<circle cx="742.5" cy="318.5" r="3" fill="#1f77b4"/>
<circle cx="757.7" cy="317.4" r="3" fill="#1f77b4"/>
<circle cx="773.0" cy="317.7" r="3" fill="#1f77b4"/>
<circle cx="788.3" cy="317.1" r="3" fill="#1f77b4"/>
<circle cx="803.6" cy="300.8" r="3" fill="#1f77b4"/>
<circle cx="818.9" cy="295.2" r="3" fill="#1f77b4"/>
<circle cx="834.2" cy="317.5" r="3" fill="#1f77b4"/>
<circle cx="849.4" cy="317.1" r="3" fill="#1f77b4"/>
<circle cx="880.0" cy="295.5" r="3" fill="#1f77b4"/>
<rect x="205.0" y="358" width="10" height="10" fill="#1f77b4"/>
<text x="219.0" y="367" font-size="11" fill="#333">tts first chunk</text>
<polyline points="207.5,298.0 268.7,298.0 284.0,307.7 329.8,287.9 345.1,307.5 360.4,307.7 390.9,300.5 406.2,298.4 436.8,304.7 452.1,305.1 467.4,306.6 482.6,304.3 497.9,291.3 559.1,304.1 620.2,262.6 666.0,311.0 681.3,312.2 696.6,308.2 742.5,308.0 803.6,313.3 818.9,311.0 834.2,307.6 849.4,306.7 880.0,306.4" fill="none" stroke="#ff7f0e" stroke-width="2"/>
<circle cx="207.5" cy="298.0" r="3" fill="#ff7f0e"/>
<circle cx="268.7" cy="298.0" r="3" fill="#ff7f0e"/>
<circle cx="284.0" cy="307.7" r="3" fill="#ff7f0e"/>
<circle cx="329.8" cy="287.9" r="3" fill="#ff7f0e"/>
<circle cx="345.1" cy="307.5" r="3" fill="#ff7f0e"/>
<circle cx="360.4" cy="307.7" r="3" fill="#ff7f0e"/>
<circle cx="390.9" cy="300.5" r="3" fill="#ff7f0e"/>
<circle cx="406.2" cy="298.4" r="3" fill="#ff7f0e"/>
<circle cx="436.8" cy="304.7" r="3" fill="#ff7f0e"/>
<circle cx="452.1" cy="305.1" r="3" fill="#ff7f0e"/>
<circle cx="467.4" cy="306.6" r="3" fill="#ff7f0e"/>
<circle cx="482.6" cy="304.3" r="3" fill="#ff7f0e"/>
<circle cx="497.9" cy="291.3" r="3" fill="#ff7f0e"/>
<circle cx="559.1" cy="304.1" r="3" fill="#ff7f0e"/>
<circle cx="620.2" cy="262.6" r="3" fill="#ff7f0e"/>
<circle cx="666.0" cy="311.0" r="3" fill="#ff7f0e"/>
<circle cx="681.3" cy="312.2" r="3" fill="#ff7f0e"/>
<circle cx="696.6" cy="308.2" r="3" fill="#ff7f0e"/>
<circle cx="742.5" cy="308.0" r="3" fill="#ff7f0e"/>
<circle cx="803.6" cy="313.3" r="3" fill="#ff7f0e"/>
<circle cx="818.9" cy="311.0" r="3" fill="#ff7f0e"/>
<circle cx="834.2" cy="307.6" r="3" fill="#ff7f0e"/>
<circle cx="849.4" cy="306.7" r="3" fill="#ff7f0e"/>
<circle cx="880.0" cy="306.4" r="3" fill="#ff7f0e"/>
<rect x="340.0" y="358" width="10" height="10" fill="#ff7f0e"/>
<text x="354.0" y="367" font-size="11" fill="#333">llm ttft</text>
<polyline points="70.0,297.1 85.3,301.1 115.8,298.1 131.1,298.0 146.4,303.1 177.0,274.4 192.3,281.5 207.5,241.9 268.7,243.2 284.0,286.5 299.2,268.6 314.5,306.2 329.8,280.2 345.1,306.0 360.4,297.3 375.7,269.3 390.9,299.0 406.2,267.5 421.5,275.1 436.8,303.3 452.1,253.3 467.4,280.5 482.6,282.8 497.9,272.0 513.2,296.7 559.1,299.6 574.3,301.6 589.6,312.5 604.9,300.5 620.2,169.3 635.5,296.2 650.8,240.3 666.0,307.0 681.3,310.0 696.6,275.8 711.9,305.7 727.2,304.6 742.5,303.7 757.7,297.4 773.0,297.4 788.3,306.8 803.6,306.3 818.9,305.5 834.2,293.1 849.4,303.2 880.0,301.0" fill="none" stroke="#2ca02c" stroke-width="2"/>
<circle cx="70.0" cy="297.1" r="3" fill="#2ca02c"/>
<circle cx="85.3" cy="301.1" r="3" fill="#2ca02c"/>
<circle cx="115.8" cy="298.1" r="3" fill="#2ca02c"/>
<circle cx="131.1" cy="298.0" r="3" fill="#2ca02c"/>
<circle cx="146.4" cy="303.1" r="3" fill="#2ca02c"/>
<circle cx="177.0" cy="274.4" r="3" fill="#2ca02c"/>
<circle cx="192.3" cy="281.5" r="3" fill="#2ca02c"/>
<circle cx="207.5" cy="241.9" r="3" fill="#2ca02c"/>
<circle cx="268.7" cy="243.2" r="3" fill="#2ca02c"/>
<circle cx="284.0" cy="286.5" r="3" fill="#2ca02c"/>
<circle cx="299.2" cy="268.6" r="3" fill="#2ca02c"/>
<circle cx="314.5" cy="306.2" r="3" fill="#2ca02c"/>
<circle cx="329.8" cy="280.2" r="3" fill="#2ca02c"/>
<circle cx="345.1" cy="306.0" r="3" fill="#2ca02c"/>
<circle cx="360.4" cy="297.3" r="3" fill="#2ca02c"/>
<circle cx="375.7" cy="269.3" r="3" fill="#2ca02c"/>
<circle cx="390.9" cy="299.0" r="3" fill="#2ca02c"/>
<circle cx="406.2" cy="267.5" r="3" fill="#2ca02c"/>
<circle cx="421.5" cy="275.1" r="3" fill="#2ca02c"/>
<circle cx="436.8" cy="303.3" r="3" fill="#2ca02c"/>
<circle cx="452.1" cy="253.3" r="3" fill="#2ca02c"/>
<circle cx="467.4" cy="280.5" r="3" fill="#2ca02c"/>
<circle cx="482.6" cy="282.8" r="3" fill="#2ca02c"/>
<circle cx="497.9" cy="272.0" r="3" fill="#2ca02c"/>
<circle cx="513.2" cy="296.7" r="3" fill="#2ca02c"/>
<circle cx="559.1" cy="299.6" r="3" fill="#2ca02c"/>
<circle cx="574.3" cy="301.6" r="3" fill="#2ca02c"/>
<circle cx="589.6" cy="312.5" r="3" fill="#2ca02c"/>
<circle cx="604.9" cy="300.5" r="3" fill="#2ca02c"/>
<circle cx="620.2" cy="169.3" r="3" fill="#2ca02c"/>
<circle cx="635.5" cy="296.2" r="3" fill="#2ca02c"/>
<circle cx="650.8" cy="240.3" r="3" fill="#2ca02c"/>
<circle cx="666.0" cy="307.0" r="3" fill="#2ca02c"/>
<circle cx="681.3" cy="310.0" r="3" fill="#2ca02c"/>
<circle cx="696.6" cy="275.8" r="3" fill="#2ca02c"/>
<circle cx="711.9" cy="305.7" r="3" fill="#2ca02c"/>
<circle cx="727.2" cy="304.6" r="3" fill="#2ca02c"/>
<circle cx="742.5" cy="303.7" r="3" fill="#2ca02c"/>
<circle cx="757.7" cy="297.4" r="3" fill="#2ca02c"/>
<circle cx="773.0" cy="297.4" r="3" fill="#2ca02c"/>
<circle cx="788.3" cy="306.8" r="3" fill="#2ca02c"/>
<circle cx="803.6" cy="306.3" r="3" fill="#2ca02c"/>
<circle cx="818.9" cy="305.5" r="3" fill="#2ca02c"/>
<circle cx="834.2" cy="293.1" r="3" fill="#2ca02c"/>
<circle cx="849.4" cy="303.2" r="3" fill="#2ca02c"/>
<circle cx="880.0" cy="301.0" r="3" fill="#2ca02c"/>
<rect x="475.0" y="358" width="10" height="10" fill="#2ca02c"/>
<text x="489.0" y="367" font-size="11" fill="#333">llm first sentence</text>
<polyline points="70.0,311.1 85.3,313.5 100.6,311.5 115.8,312.5 131.1,305.2 146.4,313.0 177.0,306.1 192.3,304.1 207.5,308.6 268.7,305.6 284.0,310.6 299.2,306.4 314.5,314.9 329.8,315.0 345.1,315.6 360.4,307.9 375.7,313.9 390.9,315.7 406.2,312.8 421.5,306.0 436.8,316.6 452.1,306.0 467.4,313.9 482.6,315.3 497.9,310.5 513.2,316.9 559.1,316.3 574.3,314.8 589.6,314.8 604.9,315.1 620.2,315.2 635.5,314.1 650.8,311.9 666.0,316.5 681.3,316.1 696.6,316.0 711.9,312.9 727.2,314.0 742.5,316.3 757.7,313.4 773.0,316.9 788.3,312.3 803.6,296.2 818.9,290.3 834.2,314.5 849.4,315.0 864.7,318.5 880.0,289.0" fill="none" stroke="#9467bd" stroke-width="2"/>
<circle cx="70.0" cy="311.1" r="3" fill="#9467bd"/>
<circle cx="85.3" cy="313.5" r="3" fill="#9467bd"/>
<circle cx="100.6" cy="311.5" r="3" fill="#9467bd"/>
<circle cx="115.8" cy="312.5" r="3" fill="#9467bd"/>
<circle cx="131.1" cy="305.2" r="3" fill="#9467bd"/>
<circle cx="146.4" cy="313.0" r="3" fill="#9467bd"/>
<circle cx="177.0" cy="306.1" r="3" fill="#9467bd"/>
<circle cx="192.3" cy="304.1" r="3" fill="#9467bd"/>
<circle cx="207.5" cy="308.6" r="3" fill="#9467bd"/>
<circle cx="268.7" cy="305.6" r="3" fill="#9467bd"/>
<circle cx="284.0" cy="310.6" r="3" fill="#9467bd"/>
<circle cx="299.2" cy="306.4" r="3" fill="#9467bd"/>
<circle cx="314.5" cy="314.9" r="3" fill="#9467bd"/>
<circle cx="329.8" cy="315.0" r="3" fill="#9467bd"/>
<circle cx="345.1" cy="315.6" r="3" fill="#9467bd"/>
<circle cx="360.4" cy="307.9" r="3" fill="#9467bd"/>
<circle cx="375.7" cy="313.9" r="3" fill="#9467bd"/>
<circle cx="390.9" cy="315.7" r="3" fill="#9467bd"/>
<circle cx="406.2" cy="312.8" r="3" fill="#9467bd"/>
<circle cx="421.5" cy="306.0" r="3" fill="#9467bd"/>
<circle cx="436.8" cy="316.6" r="3" fill="#9467bd"/>
<circle cx="452.1" cy="306.0" r="3" fill="#9467bd"/>
<circle cx="467.4" cy="313.9" r="3" fill="#9467bd"/>
<circle cx="482.6" cy="315.3" r="3" fill="#9467bd"/>
<circle cx="497.9" cy="310.5" r="3" fill="#9467bd"/>
<circle cx="513.2" cy="316.9" r="3" fill="#9467bd"/>
<circle cx="559.1" cy="316.3" r="3" fill="#9467bd"/>
<circle cx="574.3" cy="314.8" r="3" fill="#9467bd"/>
<circle cx="589.6" cy="314.8" r="3" fill="#9467bd"/>
<circle cx="604.9" cy="315.1" r="3" fill="#9467bd"/>
<circle cx="620.2" cy="315.2" r="3" fill="#9467bd"/>
<circle cx="635.5" cy="314.1" r="3" fill="#9467bd"/>
<circle cx="650.8" cy="311.9" r="3" fill="#9467bd"/>
<circle cx="666.0" cy="316.5" r="3" fill="#9467bd"/>
<circle cx="681.3" cy="316.1" r="3" fill="#9467bd"/>
<circle cx="696.6" cy="316.0" r="3" fill="#9467bd"/>
<circle cx="711.9" cy="312.9" r="3" fill="#9467bd"/>
<circle cx="727.2" cy="314.0" r="3" fill="#9467bd"/>
<circle cx="742.5" cy="316.3" r="3" fill="#9467bd"/>
<circle cx="757.7" cy="313.4" r="3" fill="#9467bd"/>
<circle cx="773.0" cy="316.9" r="3" fill="#9467bd"/>
<circle cx="788.3" cy="312.3" r="3" fill="#9467bd"/>
<circle cx="803.6" cy="296.2" r="3" fill="#9467bd"/>
<circle cx="818.9" cy="290.3" r="3" fill="#9467bd"/>
<circle cx="834.2" cy="314.5" r="3" fill="#9467bd"/>
<circle cx="849.4" cy="315.0" r="3" fill="#9467bd"/>
<circle cx="864.7" cy="318.5" r="3" fill="#9467bd"/>
<circle cx="880.0" cy="289.0" r="3" fill="#9467bd"/>
<rect x="610.0" y="358" width="10" height="10" fill="#9467bd"/>
<text x="624.0" y="367" font-size="11" fill="#333">lipsync first mouth</text>
<polyline points="207.5,318.5 268.7,314.7 284.0,318.1 299.2,318.0 314.5,318.8 329.8,312.5 345.1,318.8 360.4,314.5 375.7,318.9 390.9,318.7 406.2,311.9 421.5,318.2 436.8,318.5 452.1,311.1 467.4,317.5 482.6,317.9 497.9,316.7 513.2,318.9 559.1,318.7 574.3,318.6 589.6,318.2 604.9,318.2 620.2,318.6 635.5,317.8 650.8,318.8 666.0,318.3 681.3,318.3 696.6,319.3 711.9,315.9 727.2,318.6 742.5,319.7 757.7,317.7 773.0,319.3 788.3,319.1 803.6,320.4 818.9,320.3 834.2,318.2 849.4,319.1 864.7,318.8 880.0,319.7" fill="none" stroke="#8c564b" stroke-width="2"/>
<circle cx="207.5" cy="318.5" r="3" fill="#8c564b"/>
<circle cx="268.7" cy="314.7" r="3" fill="#8c564b"/>
<circle cx="284.0" cy="318.1" r="3" fill="#8c564b"/>
<circle cx="299.2" cy="318.0" r="3" fill="#8c564b"/>
<circle cx="314.5" cy="318.8" r="3" fill="#8c564b"/>
<circle cx="329.8" cy="312.5" r="3" fill="#8c564b"/>
<circle cx="345.1" cy="318.8" r="3" fill="#8c564b"/>
<circle cx="360.4" cy="314.5" r="3" fill="#8c564b"/>
<circle cx="375.7" cy="318.9" r="3" fill="#8c564b"/>
<circle cx="390.9" cy="318.7" r="3" fill="#8c564b"/>
<circle cx="406.2" cy="311.9" r="3" fill="#8c564b"/>
<circle cx="421.5" cy="318.2" r="3" fill="#8c564b"/>
<circle cx="436.8" cy="318.5" r="3" fill="#8c564b"/>
<circle cx="452.1" cy="311.1" r="3" fill="#8c564b"/>
<circle cx="467.4" cy="317.5" r="3" fill="#8c564b"/>
<circle cx="482.6" cy="317.9" r="3" fill="#8c564b"/>
<circle cx="497.9" cy="316.7" r="3" fill="#8c564b"/>
<circle cx="513.2" cy="318.9" r="3" fill="#8c564b"/>
<circle cx="559.1" cy="318.7" r="3" fill="#8c564b"/>
<circle cx="574.3" cy="318.6" r="3" fill="#8c564b"/>
<circle cx="589.6" cy="318.2" r="3" fill="#8c564b"/>
<circle cx="604.9" cy="318.2" r="3" fill="#8c564b"/>
<circle cx="620.2" cy="318.6" r="3" fill="#8c564b"/>
<circle cx="635.5" cy="317.8" r="3" fill="#8c564b"/>
<circle cx="650.8" cy="318.8" r="3" fill="#8c564b"/>
<circle cx="666.0" cy="318.3" r="3" fill="#8c564b"/>
<circle cx="681.3" cy="318.3" r="3" fill="#8c564b"/>
<circle cx="696.6" cy="319.3" r="3" fill="#8c564b"/>
<circle cx="711.9" cy="315.9" r="3" fill="#8c564b"/>
<circle cx="727.2" cy="318.6" r="3" fill="#8c564b"/>
<circle cx="742.5" cy="319.7" r="3" fill="#8c564b"/>
<circle cx="757.7" cy="317.7" r="3" fill="#8c564b"/>
<circle cx="773.0" cy="319.3" r="3" fill="#8c564b"/>
<circle cx="788.3" cy="319.1" r="3" fill="#8c564b"/>
<circle cx="803.6" cy="320.4" r="3" fill="#8c564b"/>
<circle cx="818.9" cy="320.3" r="3" fill="#8c564b"/>
<circle cx="834.2" cy="318.2" r="3" fill="#8c564b"/>
<circle cx="849.4" cy="319.1" r="3" fill="#8c564b"/>
<circle cx="864.7" cy="318.8" r="3" fill="#8c564b"/>
<circle cx="880.0" cy="319.7" r="3" fill="#8c564b"/>
<rect x="745.0" y="358" width="10" height="10" fill="#8c564b"/>
<text x="759.0" y="367" font-size="11" fill="#333">render tick p95</text>
</svg>
