<svg xmlns="http://www.w3.org/2000/svg" width="900" height="380" viewBox="0 0 900 380" font-family="sans-serif">
<rect width="900" height="380" fill="white"/>
<text x="70" y="24" font-size="16" fill="#333">Latency (ms, p50 unless noted) — lower is better</text>
<line x1="70" y1="324.0" x2="880" y2="324.0" stroke="#e5e5e5"/>
<text x="64" y="328.0" font-size="11" fill="#666" text-anchor="end">0ms</text>
<line x1="70" y1="268.0" x2="880" y2="268.0" stroke="#e5e5e5"/>
<text x="64" y="272.0" font-size="11" fill="#666" text-anchor="end">1481ms</text>
<line x1="70" y1="212.0" x2="880" y2="212.0" stroke="#e5e5e5"/>
<text x="64" y="216.0" font-size="11" fill="#666" text-anchor="end">2963ms</text>
<line x1="70" y1="156.0" x2="880" y2="156.0" stroke="#e5e5e5"/>
<text x="64" y="160.0" font-size="11" fill="#666" text-anchor="end">4444ms</text>
<line x1="70" y1="100.0" x2="880" y2="100.0" stroke="#e5e5e5"/>
<text x="64" y="104.0" font-size="11" fill="#666" text-anchor="end">5925ms</text>
<line x1="70" y1="44.0" x2="880" y2="44.0" stroke="#e5e5e5"/>
<text x="64" y="48.0" font-size="11" fill="#666" text-anchor="end">7407ms</text>
<text x="70.0" y="342" font-size="11" fill="#666" text-anchor="start">07-16 16:02</text>
<text x="475.0" y="342" font-size="11" fill="#666" text-anchor="middle">07-17 15:18</text>
<text x="880.0" y="342" font-size="11" fill="#666" text-anchor="end">07-17 21:50</text>
<polyline points="70.0,217.7 89.3,227.9 127.9,203.6 147.1,277.5 166.4,167.6 185.7,238.1 205.0,172.1 224.3,214.4 243.6,167.1 262.9,251.0 282.1,170.5 301.4,265.2 320.7,240.0 340.0,194.2 359.3,237.5 378.6,232.3 397.9,238.8 417.1,246.5 436.4,234.7 455.7,174.8 475.0,240.9 494.3,214.4 513.6,64.7 532.9,245.0 552.1,220.8 571.4,276.4 590.7,269.9 610.0,274.6 629.3,281.8 648.6,316.3 667.9,285.1 687.1,292.2 706.4,283.0 725.7,300.1 745.0,293.0 764.3,206.2 783.6,292.0 802.9,223.6 822.1,294.7 841.4,296.4 860.7,260.6 880.0,292.8" fill="none" stroke="#d62728" stroke-width="2"/>
<circle cx="70.0" cy="217.7" r="3" fill="#d62728"/>
<circle cx="89.3" cy="227.9" r="3" fill="#d62728"/>
<circle cx="127.9" cy="203.6" r="3" fill="#d62728"/>
<circle cx="147.1" cy="277.5" r="3" fill="#d62728"/>
<circle cx="166.4" cy="167.6" r="3" fill="#d62728"/>
<circle cx="185.7" cy="238.1" r="3" fill="#d62728"/>
<circle cx="205.0" cy="172.1" r="3" fill="#d62728"/>
<circle cx="224.3" cy="214.4" r="3" fill="#d62728"/>
<circle cx="243.6" cy="167.1" r="3" fill="#d62728"/>
<circle cx="262.9" cy="251.0" r="3" fill="#d62728"/>
<circle cx="282.1" cy="170.5" r="3" fill="#d62728"/>
<circle cx="301.4" cy="265.2" r="3" fill="#d62728"/>
<circle cx="320.7" cy="240.0" r="3" fill="#d62728"/>
<circle cx="340.0" cy="194.2" r="3" fill="#d62728"/>
<circle cx="359.3" cy="237.5" r="3" fill="#d62728"/>
<circle cx="378.6" cy="232.3" r="3" fill="#d62728"/>
<circle cx="397.9" cy="238.8" r="3" fill="#d62728"/>
<circle cx="417.1" cy="246.5" r="3" fill="#d62728"/>
<circle cx="436.4" cy="234.7" r="3" fill="#d62728"/>
<circle cx="455.7" cy="174.8" r="3" fill="#d62728"/>
<circle cx="475.0" cy="240.9" r="3" fill="#d62728"/>
<circle cx="494.3" cy="214.4" r="3" fill="#d62728"/>
<circle cx="513.6" cy="64.7" r="3" fill="#d62728"/>
<circle cx="532.9" cy="245.0" r="3" fill="#d62728"/>
<circle cx="552.1" cy="220.8" r="3" fill="#d62728"/>
<circle cx="571.4" cy="276.4" r="3" fill="#d62728"/>
<circle cx="590.7" cy="269.9" r="3" fill="#d62728"/>
<circle cx="610.0" cy="274.6" r="3" fill="#d62728"/>
<circle cx="629.3" cy="281.8" r="3" fill="#d62728"/>
<circle cx="648.6" cy="316.3" r="3" fill="#d62728"/>
<circle cx="667.9" cy="285.1" r="3" fill="#d62728"/>
<circle cx="687.1" cy="292.2" r="3" fill="#d62728"/>
<circle cx="706.4" cy="283.0" r="3" fill="#d62728"/>
<circle cx="725.7" cy="300.1" r="3" fill="#d62728"/>
<circle cx="745.0" cy="293.0" r="3" fill="#d62728"/>
<circle cx="764.3" cy="206.2" r="3" fill="#d62728"/>
<circle cx="783.6" cy="292.0" r="3" fill="#d62728"/>
<circle cx="802.9" cy="223.6" r="3" fill="#d62728"/>
<circle cx="822.1" cy="294.7" r="3" fill="#d62728"/>
<circle cx="841.4" cy="296.4" r="3" fill="#d62728"/>
<circle cx="860.7" cy="260.6" r="3" fill="#d62728"/>
<circle cx="880.0" cy="292.8" r="3" fill="#d62728"/>
<rect x="70.0" y="358" width="10" height="10" fill="#d62728"/>
<text x="84.0" y="367" font-size="11" fill="#333">first audio (e2e)</text>
<polyline points="243.6,215.3 320.7,199.1 340.0,224.4 359.3,176.9 378.6,267.6 397.9,239.5 417.1,283.5 436.4,244.5 455.7,260.4 475.0,246.2 494.3,245.6 513.6,201.1 532.9,299.9 552.1,252.0 571.4,317.9 590.7,317.8 610.0,317.5 629.3,318.0 687.1,318.3 706.4,317.4 725.7,317.8 745.0,318.6 764.3,317.8 783.6,318.2 802.9,317.3 822.1,317.7 841.4,319.0 860.7,318.6 880.0,317.0" fill="none" stroke="#1f77b4" stroke-width="2"/>
<circle cx="243.6" cy="215.3" r="3" fill="#1f77b4"/>
<circle cx="320.7" cy="199.1" r="3" fill="#1f77b4"/>
<circle cx="340.0" cy="224.4" r="3" fill="#1f77b4"/>
<circle cx="359.3" cy="176.9" r="3" fill="#1f77b4"/>
<circle cx="378.6" cy="267.6" r="3" fill="#1f77b4"/>
<circle cx="397.9" cy="239.5" r="3" fill="#1f77b4"/>
<circle cx="417.1" cy="283.5" r="3" fill="#1f77b4"/>
<circle cx="436.4" cy="244.5" r="3" fill="#1f77b4"/>
<circle cx="455.7" cy="260.4" r="3" fill="#1f77b4"/>
<circle cx="475.0" cy="246.2" r="3" fill="#1f77b4"/>
<circle cx="494.3" cy="245.6" r="3" fill="#1f77b4"/>
<circle cx="513.6" cy="201.1" r="3" fill="#1f77b4"/>
<circle cx="532.9" cy="299.9" r="3" fill="#1f77b4"/>
<circle cx="552.1" cy="252.0" r="3" fill="#1f77b4"/>
<circle cx="571.4" cy="317.9" r="3" fill="#1f77b4"/>
<circle cx="590.7" cy="317.8" r="3" fill="#1f77b4"/>
<circle cx="610.0" cy="317.5" r="3" fill="#1f77b4"/>
<circle cx="629.3" cy="318.0" r="3" fill="#1f77b4"/>
<circle cx="687.1" cy="318.3" r="3" fill="#1f77b4"/>
<circle cx="706.4" cy="317.4" r="3" fill="#1f77b4"/>
<circle cx="725.7" cy="317.8" r="3" fill="#1f77b4"/>
<circle cx="745.0" cy="318.6" r="3" fill="#1f77b4"/>
<circle cx="764.3" cy="317.8" r="3" fill="#1f77b4"/>
<circle cx="783.6" cy="318.2" r="3" fill="#1f77b4"/>
<circle cx="802.9" cy="317.3" r="3" fill="#1f77b4"/>
<circle cx="822.1" cy="317.7" r="3" fill="#1f77b4"/>
<circle cx="841.4" cy="319.0" r="3" fill="#1f77b4"/>
<circle cx="860.7" cy="318.6" r="3" fill="#1f77b4"/>
<circle cx="880.0" cy="317.0" r="3" fill="#1f77b4"/>
<rect x="205.0" y="358" width="10" height="10" fill="#1f77b4"/>
<text x="219.0" y="367" font-size="11" fill="#333">tts first chunk</text>
<polyline points="243.6,298.0 320.7,298.0 340.0,307.7 397.9,287.9 417.1,307.5 436.4,307.7 475.0,300.5 494.3,298.4 532.9,304.7 552.1,305.1 571.4,306.6 590.7,304.3 610.0,291.3 687.1,304.1 764.3,262.6 822.1,311.0 841.4,312.2 860.7,308.2" fill="none" stroke="#ff7f0e" stroke-width="2"/>
<circle cx="243.6" cy="298.0" r="3" fill="#ff7f0e"/>
<circle cx="320.7" cy="298.0" r="3" fill="#ff7f0e"/>
<circle cx="340.0" cy="307.7" r="3" fill="#ff7f0e"/>
<circle cx="397.9" cy="287.9" r="3" fill="#ff7f0e"/>
<circle cx="417.1" cy="307.5" r="3" fill="#ff7f0e"/>
<circle cx="436.4" cy="307.7" r="3" fill="#ff7f0e"/>
<circle cx="475.0" cy="300.5" r="3" fill="#ff7f0e"/>
<circle cx="494.3" cy="298.4" r="3" fill="#ff7f0e"/>
<circle cx="532.9" cy="304.7" r="3" fill="#ff7f0e"/>
<circle cx="552.1" cy="305.1" r="3" fill="#ff7f0e"/>
<circle cx="571.4" cy="306.6" r="3" fill="#ff7f0e"/>
<circle cx="590.7" cy="304.3" r="3" fill="#ff7f0e"/>
<circle cx="610.0" cy="291.3" r="3" fill="#ff7f0e"/>
<circle cx="687.1" cy="304.1" r="3" fill="#ff7f0e"/>
<circle cx="764.3" cy="262.6" r="3" fill="#ff7f0e"/>
<circle cx="822.1" cy="311.0" r="3" fill="#ff7f0e"/>
<circle cx="841.4" cy="312.2" r="3" fill="#ff7f0e"/>
<circle cx="860.7" cy="308.2" r="3" fill="#ff7f0e"/>
<rect x="340.0" y="358" width="10" height="10" fill="#ff7f0e"/>
<text x="354.0" y="367" font-size="11" fill="#333">llm ttft</text>
<polyline points="70.0,297.1 89.3,301.1 127.9,298.1 147.1,298.0 166.4,303.1 205.0,274.4 224.3,281.5 243.6,241.9 320.7,243.2 340.0,286.5 359.3,268.6 378.6,306.2 397.9,280.2 417.1,306.0 436.4,297.3 455.7,269.3 475.0,299.0 494.3,267.5 513.6,275.1 532.9,303.3 552.1,253.3 571.4,280.5 590.7,282.8 610.0,272.0 629.3,296.7 687.1,299.6 706.4,301.6 725.7,312.5 745.0,300.5 764.3,169.3 783.6,296.2 802.9,240.3 822.1,307.0 841.4,310.0 860.7,275.8 880.0,305.7" fill="none" stroke="#2ca02c" stroke-width="2"/>
<circle cx="70.0" cy="297.1" r="3" fill="#2ca02c"/>
<circle cx="89.3" cy="301.1" r="3" fill="#2ca02c"/>
<circle cx="127.9" cy="298.1" r="3" fill="#2ca02c"/>
<circle cx="147.1" cy="298.0" r="3" fill="#2ca02c"/>
<circle cx="166.4" cy="303.1" r="3" fill="#2ca02c"/>
<circle cx="205.0" cy="274.4" r="3" fill="#2ca02c"/>
<circle cx="224.3" cy="281.5" r="3" fill="#2ca02c"/>
<circle cx="243.6" cy="241.9" r="3" fill="#2ca02c"/>
<circle cx="320.7" cy="243.2" r="3" fill="#2ca02c"/>
<circle cx="340.0" cy="286.5" r="3" fill="#2ca02c"/>
<circle cx="359.3" cy="268.6" r="3" fill="#2ca02c"/>
<circle cx="378.6" cy="306.2" r="3" fill="#2ca02c"/>
<circle cx="397.9" cy="280.2" r="3" fill="#2ca02c"/>
<circle cx="417.1" cy="306.0" r="3" fill="#2ca02c"/>
<circle cx="436.4" cy="297.3" r="3" fill="#2ca02c"/>
<circle cx="455.7" cy="269.3" r="3" fill="#2ca02c"/>
<circle cx="475.0" cy="299.0" r="3" fill="#2ca02c"/>
<circle cx="494.3" cy="267.5" r="3" fill="#2ca02c"/>
<circle cx="513.6" cy="275.1" r="3" fill="#2ca02c"/>
<circle cx="532.9" cy="303.3" r="3" fill="#2ca02c"/>
<circle cx="552.1" cy="253.3" r="3" fill="#2ca02c"/>
<circle cx="571.4" cy="280.5" r="3" fill="#2ca02c"/>
<circle cx="590.7" cy="282.8" r="3" fill="#2ca02c"/>
<circle cx="610.0" cy="272.0" r="3" fill="#2ca02c"/>
<circle cx="629.3" cy="296.7" r="3" fill="#2ca02c"/>
<circle cx="687.1" cy="299.6" r="3" fill="#2ca02c"/>
<circle cx="706.4" cy="301.6" r="3" fill="#2ca02c"/>
<circle cx="725.7" cy="312.5" r="3" fill="#2ca02c"/>
<circle cx="745.0" cy="300.5" r="3" fill="#2ca02c"/>
<circle cx="764.3" cy="169.3" r="3" fill="#2ca02c"/>
<circle cx="783.6" cy="296.2" r="3" fill="#2ca02c"/>
<circle cx="802.9" cy="240.3" r="3" fill="#2ca02c"/>
<circle cx="822.1" cy="307.0" r="3" fill="#2ca02c"/>
<circle cx="841.4" cy="310.0" r="3" fill="#2ca02c"/>
<circle cx="860.7" cy="275.8" r="3" fill="#2ca02c"/>
<circle cx="880.0" cy="305.7" r="3" fill="#2ca02c"/>
<rect x="475.0" y="358" width="10" height="10" fill="#2ca02c"/>
<text x="489.0" y="367" font-size="11" fill="#333">llm first sentence</text>
<polyline points="70.0,311.1 89.3,313.5 108.6,311.5 127.9,312.5 147.1,305.2 166.4,313.0 205.0,306.1 224.3,304.1 243.6,308.6 320.7,305.6 340.0,310.6 359.3,306.4 378.6,314.9 397.9,315.0 417.1,315.6 436.4,307.9 455.7,313.9 475.0,315.7 494.3,312.8 513.6,306.0 532.9,316.6 552.1,306.0 571.4,313.9 590.7,315.3 610.0,310.5 629.3,316.9 687.1,316.3 706.4,314.8 725.7,314.8 745.0,315.1 764.3,315.2 783.6,314.1 802.9,311.9 822.1,316.5 841.4,316.1 860.7,316.0 880.0,312.9" fill="none" stroke="#9467bd" stroke-width="2"/>
<circle cx="70.0" cy="311.1" r="3" fill="#9467bd"/>
<circle cx="89.3" cy="313.5" r="3" fill="#9467bd"/>
<circle cx="108.6" cy="311.5" r="3" fill="#9467bd"/>
<circle cx="127.9" cy="312.5" r="3" fill="#9467bd"/>
<circle cx="147.1" cy="305.2" r="3" fill="#9467bd"/>
<circle cx="166.4" cy="313.0" r="3" fill="#9467bd"/>
<circle cx="205.0" cy="306.1" r="3" fill="#9467bd"/>
<circle cx="224.3" cy="304.1" r="3" fill="#9467bd"/>
<circle cx="243.6" cy="308.6" r="3" fill="#9467bd"/>
<circle cx="320.7" cy="305.6" r="3" fill="#9467bd"/>
<circle cx="340.0" cy="310.6" r="3" fill="#9467bd"/>
<circle cx="359.3" cy="306.4" r="3" fill="#9467bd"/>
<circle cx="378.6" cy="314.9" r="3" fill="#9467bd"/>
<circle cx="397.9" cy="315.0" r="3" fill="#9467bd"/>
<circle cx="417.1" cy="315.6" r="3" fill="#9467bd"/>
<circle cx="436.4" cy="307.9" r="3" fill="#9467bd"/>
<circle cx="455.7" cy="313.9" r="3" fill="#9467bd"/>
<circle cx="475.0" cy="315.7" r="3" fill="#9467bd"/>
<circle cx="494.3" cy="312.8" r="3" fill="#9467bd"/>
<circle cx="513.6" cy="306.0" r="3" fill="#9467bd"/>
<circle cx="532.9" cy="316.6" r="3" fill="#9467bd"/>
<circle cx="552.1" cy="306.0" r="3" fill="#9467bd"/>
<circle cx="571.4" cy="313.9" r="3" fill="#9467bd"/>
<circle cx="590.7" cy="315.3" r="3" fill="#9467bd"/>
<circle cx="610.0" cy="310.5" r="3" fill="#9467bd"/>
<circle cx="629.3" cy="316.9" r="3" fill="#9467bd"/>
<circle cx="687.1" cy="316.3" r="3" fill="#9467bd"/>
<circle cx="706.4" cy="314.8" r="3" fill="#9467bd"/>
<circle cx="725.7" cy="314.8" r="3" fill="#9467bd"/>
<circle cx="745.0" cy="315.1" r="3" fill="#9467bd"/>
<circle cx="764.3" cy="315.2" r="3" fill="#9467bd"/>
<circle cx="783.6" cy="314.1" r="3" fill="#9467bd"/>
<circle cx="802.9" cy="311.9" r="3" fill="#9467bd"/>
<circle cx="822.1" cy="316.5" r="3" fill="#9467bd"/>
<circle cx="841.4" cy="316.1" r="3" fill="#9467bd"/>
<circle cx="860.7" cy="316.0" r="3" fill="#9467bd"/>
<circle cx="880.0" cy="312.9" r="3" fill="#9467bd"/>
<rect x="610.0" y="358" width="10" height="10" fill="#9467bd"/>
<text x="624.0" y="367" font-size="11" fill="#333">lipsync first mouth</text>
<polyline points="243.6,318.5 320.7,314.7 340.0,318.1 359.3,318.0 378.6,318.8 397.9,312.5 417.1,318.8 436.4,314.5 455.7,318.9 475.0,318.7 494.3,311.9 513.6,318.2 532.9,318.5 552.1,311.1 571.4,317.5 590.7,317.9 610.0,316.7 629.3,318.9 687.1,318.7 706.4,318.6 725.7,318.2 745.0,318.2 764.3,318.6 783.6,317.8 802.9,318.8 822.1,318.3 841.4,318.3 860.7,319.3 880.0,315.9" fill="none" stroke="#8c564b" stroke-width="2"/>
<circle cx="243.6" cy="318.5" r="3" fill="#8c564b"/>
<circle cx="320.7" cy="314.7" r="3" fill="#8c564b"/>
<circle cx="340.0" cy="318.1" r="3" fill="#8c564b"/>
<circle cx="359.3" cy="318.0" r="3" fill="#8c564b"/>
<circle cx="378.6" cy="318.8" r="3" fill="#8c564b"/>
<circle cx="397.9" cy="312.5" r="3" fill="#8c564b"/>
<circle cx="417.1" cy="318.8" r="3" fill="#8c564b"/>
<circle cx="436.4" cy="314.5" r="3" fill="#8c564b"/>
<circle cx="455.7" cy="318.9" r="3" fill="#8c564b"/>
<circle cx="475.0" cy="318.7" r="3" fill="#8c564b"/>
<circle cx="494.3" cy="311.9" r="3" fill="#8c564b"/>
<circle cx="513.6" cy="318.2" r="3" fill="#8c564b"/>
<circle cx="532.9" cy="318.5" r="3" fill="#8c564b"/>
<circle cx="552.1" cy="311.1" r="3" fill="#8c564b"/>
<circle cx="571.4" cy="317.5" r="3" fill="#8c564b"/>
<circle cx="590.7" cy="317.9" r="3" fill="#8c564b"/>
<circle cx="610.0" cy="316.7" r="3" fill="#8c564b"/>
<circle cx="629.3" cy="318.9" r="3" fill="#8c564b"/>
<circle cx="687.1" cy="318.7" r="3" fill="#8c564b"/>
<circle cx="706.4" cy="318.6" r="3" fill="#8c564b"/>
<circle cx="725.7" cy="318.2" r="3" fill="#8c564b"/>
<circle cx="745.0" cy="318.2" r="3" fill="#8c564b"/>
<circle cx="764.3" cy="318.6" r="3" fill="#8c564b"/>
<circle cx="783.6" cy="317.8" r="3" fill="#8c564b"/>
<circle cx="802.9" cy="318.8" r="3" fill="#8c564b"/>
<circle cx="822.1" cy="318.3" r="3" fill="#8c564b"/>
<circle cx="841.4" cy="318.3" r="3" fill="#8c564b"/>
<circle cx="860.7" cy="319.3" r="3" fill="#8c564b"/>
<circle cx="880.0" cy="315.9" r="3" fill="#8c564b"/>
<rect x="745.0" y="358" width="10" height="10" fill="#8c564b"/>
<text x="759.0" y="367" font-size="11" fill="#333">render tick p95</text>
</svg>
