<svg xmlns="http://www.w3.org/2000/svg" width="900" height="380" viewBox="0 0 900 380" font-family="sans-serif">
<rect width="900" height="380" fill="white"/>
<text x="70" y="24" font-size="16" fill="#333">Latency (ms, p50 unless noted) — lower is better</text>
<line x1="70" y1="324.0" x2="880" y2="324.0" stroke="#e5e5e5"/>
<text x="64" y="328.0" font-size="11" fill="#666" text-anchor="end">0ms</text>
<line x1="70" y1="268.0" x2="880" y2="268.0" stroke="#e5e5e5"/>
<text x="64" y="272.0" font-size="11" fill="#666" text-anchor="end">1481ms</text>
<line x1="70" y1="212.0" x2="880" y2="212.0" stroke="#e5e5e5"/>
<text x="64" y="216.0" font-size="11" fill="#666" text-anchor="end">2963ms</text>
<line x1="70" y1="156.0" x2="880" y2="156.0" stroke="#e5e5e5"/>
<text x="64" y="160.0" font-size="11" fill="#666" text-anchor="end">4444ms</text>
<line x1="70" y1="100.0" x2="880" y2="100.0" stroke="#e5e5e5"/>
<text x="64" y="104.0" font-size="11" fill="#666" text-anchor="end">5925ms</text>
<line x1="70" y1="44.0" x2="880" y2="44.0" stroke="#e5e5e5"/>
<text x="64" y="48.0" font-size="11" fill="#666" text-anchor="end">7407ms</text>
<text x="70.0" y="342" font-size="11" fill="#666" text-anchor="start">07-16 16:02</text>
<text x="482.1" y="342" font-size="11" fill="#666" text-anchor="middle">07-17 19:27</text>
<text x="880.0" y="342" font-size="11" fill="#666" text-anchor="end">07-18 18:25</text>
<polyline points="70.0,217.7 84.2,227.9 112.6,203.6 126.8,277.5 141.1,167.6 155.3,238.1 169.5,172.1 183.7,214.4 197.9,167.1 212.1,251.0 226.3,170.5 240.5,265.2 254.7,240.0 268.9,194.2 283.2,237.5 297.4,232.3 311.6,238.8 325.8,246.5 340.0,234.7 354.2,174.8 368.4,240.9 382.6,214.4 396.8,64.7 411.1,245.0 425.3,220.8 439.5,276.4 453.7,269.9 467.9,274.6 482.1,281.8 496.3,316.3 510.5,285.1 524.7,292.2 538.9,283.0 553.2,300.1 567.4,293.0 581.6,206.2 595.8,292.0 610.0,223.6 624.2,294.7 638.4,296.4 652.6,260.6 666.8,292.8 681.1,290.2 695.3,290.1 709.5,286.4 723.7,287.0 737.9,292.4 752.1,292.8 766.3,290.6 780.5,279.0 794.7,291.3 808.9,279.4 823.2,293.4 837.4,276.0 851.6,284.7 865.8,292.0 880.0,286.6" fill="none" stroke="#d62728" stroke-width="2"/>
<circle cx="70.0" cy="217.7" r="3" fill="#d62728"/>
<circle cx="84.2" cy="227.9" r="3" fill="#d62728"/>
<circle cx="112.6" cy="203.6" r="3" fill="#d62728"/>
<circle cx="126.8" cy="277.5" r="3" fill="#d62728"/>
<circle cx="141.1" cy="167.6" r="3" fill="#d62728"/>
<circle cx="155.3" cy="238.1" r="3" fill="#d62728"/>
<circle cx="169.5" cy="172.1" r="3" fill="#d62728"/>
<circle cx="183.7" cy="214.4" r="3" fill="#d62728"/>
<circle cx="197.9" cy="167.1" r="3" fill="#d62728"/>
<circle cx="212.1" cy="251.0" r="3" fill="#d62728"/>
<circle cx="226.3" cy="170.5" r="3" fill="#d62728"/>
<circle cx="240.5" cy="265.2" r="3" fill="#d62728"/>
<circle cx="254.7" cy="240.0" r="3" fill="#d62728"/>
<circle cx="268.9" cy="194.2" r="3" fill="#d62728"/>
<circle cx="283.2" cy="237.5" r="3" fill="#d62728"/>
<circle cx="297.4" cy="232.3" r="3" fill="#d62728"/>
<circle cx="311.6" cy="238.8" r="3" fill="#d62728"/>
<circle cx="325.8" cy="246.5" r="3" fill="#d62728"/>
<circle cx="340.0" cy="234.7" r="3" fill="#d62728"/>
<circle cx="354.2" cy="174.8" r="3" fill="#d62728"/>
<circle cx="368.4" cy="240.9" r="3" fill="#d62728"/>
<circle cx="382.6" cy="214.4" r="3" fill="#d62728"/>
<circle cx="396.8" cy="64.7" r="3" fill="#d62728"/>
<circle cx="411.1" cy="245.0" r="3" fill="#d62728"/>
<circle cx="425.3" cy="220.8" r="3" fill="#d62728"/>
<circle cx="439.5" cy="276.4" r="3" fill="#d62728"/>
<circle cx="453.7" cy="269.9" r="3" fill="#d62728"/>
<circle cx="467.9" cy="274.6" r="3" fill="#d62728"/>
<circle cx="482.1" cy="281.8" r="3" fill="#d62728"/>
<circle cx="496.3" cy="316.3" r="3" fill="#d62728"/>
<circle cx="510.5" cy="285.1" r="3" fill="#d62728"/>
<circle cx="524.7" cy="292.2" r="3" fill="#d62728"/>
<circle cx="538.9" cy="283.0" r="3" fill="#d62728"/>
<circle cx="553.2" cy="300.1" r="3" fill="#d62728"/>
<circle cx="567.4" cy="293.0" r="3" fill="#d62728"/>
<circle cx="581.6" cy="206.2" r="3" fill="#d62728"/>
<circle cx="595.8" cy="292.0" r="3" fill="#d62728"/>
<circle cx="610.0" cy="223.6" r="3" fill="#d62728"/>
<circle cx="624.2" cy="294.7" r="3" fill="#d62728"/>
<circle cx="638.4" cy="296.4" r="3" fill="#d62728"/>
<circle cx="652.6" cy="260.6" r="3" fill="#d62728"/>
<circle cx="666.8" cy="292.8" r="3" fill="#d62728"/>
<circle cx="681.1" cy="290.2" r="3" fill="#d62728"/>
<circle cx="695.3" cy="290.1" r="3" fill="#d62728"/>
<circle cx="709.5" cy="286.4" r="3" fill="#d62728"/>
<circle cx="723.7" cy="287.0" r="3" fill="#d62728"/>
<circle cx="737.9" cy="292.4" r="3" fill="#d62728"/>
<circle cx="752.1" cy="292.8" r="3" fill="#d62728"/>
<circle cx="766.3" cy="290.6" r="3" fill="#d62728"/>
<circle cx="780.5" cy="279.0" r="3" fill="#d62728"/>
<circle cx="794.7" cy="291.3" r="3" fill="#d62728"/>
<circle cx="808.9" cy="279.4" r="3" fill="#d62728"/>
<circle cx="823.2" cy="293.4" r="3" fill="#d62728"/>
<circle cx="837.4" cy="276.0" r="3" fill="#d62728"/>
<circle cx="851.6" cy="284.7" r="3" fill="#d62728"/>
<circle cx="865.8" cy="292.0" r="3" fill="#d62728"/>
<circle cx="880.0" cy="286.6" r="3" fill="#d62728"/>
<rect x="70.0" y="358" width="10" height="10" fill="#d62728"/>
<text x="84.0" y="367" font-size="11" fill="#333">first audio (e2e)</text>
<polyline points="197.9,215.3 254.7,199.1 268.9,224.4 283.2,176.9 297.4,267.6 311.6,239.5 325.8,283.5 340.0,244.5 354.2,260.4 368.4,246.2 382.6,245.6 396.8,201.1 411.1,299.9 425.3,252.0 439.5,317.9 453.7,317.8 467.9,317.5 482.1,318.0 524.7,318.3 538.9,317.4 553.2,317.8 567.4,318.6 581.6,317.8 595.8,318.2 610.0,317.3 624.2,317.7 638.4,319.0 652.6,318.6 666.8,317.0 681.1,317.8 695.3,318.5 709.5,317.4 723.7,317.7 737.9,317.1 752.1,300.8 766.3,295.2 780.5,317.5 794.7,317.1 823.2,295.5 851.6,319.0 865.8,303.2 880.0,318.6" fill="none" stroke="#1f77b4" stroke-width="2"/>
<circle cx="197.9" cy="215.3" r="3" fill="#1f77b4"/>
<circle cx="254.7" cy="199.1" r="3" fill="#1f77b4"/>
<circle cx="268.9" cy="224.4" r="3" fill="#1f77b4"/>
<circle cx="283.2" cy="176.9" r="3" fill="#1f77b4"/>
<circle cx="297.4" cy="267.6" r="3" fill="#1f77b4"/>
<circle cx="311.6" cy="239.5" r="3" fill="#1f77b4"/>
<circle cx="325.8" cy="283.5" r="3" fill="#1f77b4"/>
<circle cx="340.0" cy="244.5" r="3" fill="#1f77b4"/>
<circle cx="354.2" cy="260.4" r="3" fill="#1f77b4"/>
<circle cx="368.4" cy="246.2" r="3" fill="#1f77b4"/>
<circle cx="382.6" cy="245.6" r="3" fill="#1f77b4"/>
<circle cx="396.8" cy="201.1" r="3" fill="#1f77b4"/>
<circle cx="411.1" cy="299.9" r="3" fill="#1f77b4"/>
<circle cx="425.3" cy="252.0" r="3" fill="#1f77b4"/>
<circle cx="439.5" cy="317.9" r="3" fill="#1f77b4"/>
<circle cx="453.7" cy="317.8" r="3" fill="#1f77b4"/>
<circle cx="467.9" cy="317.5" r="3" fill="#1f77b4"/>
<circle cx="482.1" cy="318.0" r="3" fill="#1f77b4"/>
<circle cx="524.7" cy="318.3" r="3" fill="#1f77b4"/>
<circle cx="538.9" cy="317.4" r="3" fill="#1f77b4"/>
<circle cx="553.2" cy="317.8" r="3" fill="#1f77b4"/>
<circle cx="567.4" cy="318.6" r="3" fill="#1f77b4"/>
<circle cx="581.6" cy="317.8" r="3" fill="#1f77b4"/>
<circle cx="595.8" cy="318.2" r="3" fill="#1f77b4"/>
<circle cx="610.0" cy="317.3" r="3" fill="#1f77b4"/>
<circle cx="624.2" cy="317.7" r="3" fill="#1f77b4"/>
<circle cx="638.4" cy="319.0" r="3" fill="#1f77b4"/>
<circle cx="652.6" cy="318.6" r="3" fill="#1f77b4"/>
<circle cx="666.8" cy="317.0" r="3" fill="#1f77b4"/>
<circle cx="681.1" cy="317.8" r="3" fill="#1f77b4"/>
<circle cx="695.3" cy="318.5" r="3" fill="#1f77b4"/>
<circle cx="709.5" cy="317.4" r="3" fill="#1f77b4"/>
<circle cx="723.7" cy="317.7" r="3" fill="#1f77b4"/>
<circle cx="737.9" cy="317.1" r="3" fill="#1f77b4"/>
<circle cx="752.1" cy="300.8" r="3" fill="#1f77b4"/>
<circle cx="766.3" cy="295.2" r="3" fill="#1f77b4"/>
<circle cx="780.5" cy="317.5" r="3" fill="#1f77b4"/>
<circle cx="794.7" cy="317.1" r="3" fill="#1f77b4"/>
<circle cx="823.2" cy="295.5" r="3" fill="#1f77b4"/>
<circle cx="851.6" cy="319.0" r="3" fill="#1f77b4"/>
<circle cx="865.8" cy="303.2" r="3" fill="#1f77b4"/>
<circle cx="880.0" cy="318.6" r="3" fill="#1f77b4"/>
<rect x="205.0" y="358" width="10" height="10" fill="#1f77b4"/>
<text x="219.0" y="367" font-size="11" fill="#333">tts first chunk</text>
<polyline points="197.9,298.0 254.7,298.0 268.9,307.7 311.6,287.9 325.8,307.5 340.0,307.7 368.4,300.5 382.6,298.4 411.1,304.7 425.3,305.1 439.5,306.6 453.7,304.3 467.9,291.3 524.7,304.1 581.6,262.6 624.2,311.0 638.4,312.2 652.6,308.2 695.3,308.0 752.1,313.3 766.3,311.0 780.5,307.6 794.7,306.7 823.2,306.4 851.6,310.3 865.8,313.1 880.0,311.0" fill="none" stroke="#ff7f0e" stroke-width="2"/>
<circle cx="197.9" cy="298.0" r="3" fill="#ff7f0e"/>
<circle cx="254.7" cy="298.0" r="3" fill="#ff7f0e"/>
<circle cx="268.9" cy="307.7" r="3" fill="#ff7f0e"/>
<circle cx="311.6" cy="287.9" r="3" fill="#ff7f0e"/>
<circle cx="325.8" cy="307.5" r="3" fill="#ff7f0e"/>
<circle cx="340.0" cy="307.7" r="3" fill="#ff7f0e"/>
<circle cx="368.4" cy="300.5" r="3" fill="#ff7f0e"/>
<circle cx="382.6" cy="298.4" r="3" fill="#ff7f0e"/>
<circle cx="411.1" cy="304.7" r="3" fill="#ff7f0e"/>
<circle cx="425.3" cy="305.1" r="3" fill="#ff7f0e"/>
<circle cx="439.5" cy="306.6" r="3" fill="#ff7f0e"/>
<circle cx="453.7" cy="304.3" r="3" fill="#ff7f0e"/>
<circle cx="467.9" cy="291.3" r="3" fill="#ff7f0e"/>
<circle cx="524.7" cy="304.1" r="3" fill="#ff7f0e"/>
<circle cx="581.6" cy="262.6" r="3" fill="#ff7f0e"/>
<circle cx="624.2" cy="311.0" r="3" fill="#ff7f0e"/>
<circle cx="638.4" cy="312.2" r="3" fill="#ff7f0e"/>
<circle cx="652.6" cy="308.2" r="3" fill="#ff7f0e"/>
<circle cx="695.3" cy="308.0" r="3" fill="#ff7f0e"/>
<circle cx="752.1" cy="313.3" r="3" fill="#ff7f0e"/>
<circle cx="766.3" cy="311.0" r="3" fill="#ff7f0e"/>
<circle cx="780.5" cy="307.6" r="3" fill="#ff7f0e"/>
<circle cx="794.7" cy="306.7" r="3" fill="#ff7f0e"/>
<circle cx="823.2" cy="306.4" r="3" fill="#ff7f0e"/>
<circle cx="851.6" cy="310.3" r="3" fill="#ff7f0e"/>
<circle cx="865.8" cy="313.1" r="3" fill="#ff7f0e"/>
<circle cx="880.0" cy="311.0" r="3" fill="#ff7f0e"/>
<rect x="340.0" y="358" width="10" height="10" fill="#ff7f0e"/>
<text x="354.0" y="367" font-size="11" fill="#333">llm ttft</text>
<polyline points="70.0,297.1 84.2,301.1 112.6,298.1 126.8,298.0 141.1,303.1 169.5,274.4 183.7,281.5 197.9,241.9 254.7,243.2 268.9,286.5 283.2,268.6 297.4,306.2 311.6,280.2 325.8,306.0 340.0,297.3 354.2,269.3 368.4,299.0 382.6,267.5 396.8,275.1 411.1,303.3 425.3,253.3 439.5,280.5 453.7,282.8 467.9,272.0 482.1,296.7 524.7,299.6 538.9,301.6 553.2,312.5 567.4,300.5 581.6,169.3 595.8,296.2 610.0,240.3 624.2,307.0 638.4,310.0 652.6,275.8 666.8,305.7 681.1,304.6 695.3,303.7 709.5,297.4 723.7,297.4 737.9,306.8 752.1,306.3 766.3,305.5 780.5,293.1 794.7,303.2 823.2,301.0 851.6,307.2 865.8,305.8 880.0,307.8" fill="none" stroke="#2ca02c" stroke-width="2"/>
<circle cx="70.0" cy="297.1" r="3" fill="#2ca02c"/>
<circle cx="84.2" cy="301.1" r="3" fill="#2ca02c"/>
<circle cx="112.6" cy="298.1" r="3" fill="#2ca02c"/>
<circle cx="126.8" cy="298.0" r="3" fill="#2ca02c"/>
<circle cx="141.1" cy="303.1" r="3" fill="#2ca02c"/>
<circle cx="169.5" cy="274.4" r="3" fill="#2ca02c"/>
<circle cx="183.7" cy="281.5" r="3" fill="#2ca02c"/>
<circle cx="197.9" cy="241.9" r="3" fill="#2ca02c"/>
<circle cx="254.7" cy="243.2" r="3" fill="#2ca02c"/>
<circle cx="268.9" cy="286.5" r="3" fill="#2ca02c"/>
<circle cx="283.2" cy="268.6" r="3" fill="#2ca02c"/>
<circle cx="297.4" cy="306.2" r="3" fill="#2ca02c"/>
<circle cx="311.6" cy="280.2" r="3" fill="#2ca02c"/>
<circle cx="325.8" cy="306.0" r="3" fill="#2ca02c"/>
<circle cx="340.0" cy="297.3" r="3" fill="#2ca02c"/>
<circle cx="354.2" cy="269.3" r="3" fill="#2ca02c"/>
<circle cx="368.4" cy="299.0" r="3" fill="#2ca02c"/>
<circle cx="382.6" cy="267.5" r="3" fill="#2ca02c"/>
<circle cx="396.8" cy="275.1" r="3" fill="#2ca02c"/>
<circle cx="411.1" cy="303.3" r="3" fill="#2ca02c"/>
<circle cx="425.3" cy="253.3" r="3" fill="#2ca02c"/>
<circle cx="439.5" cy="280.5" r="3" fill="#2ca02c"/>
<circle cx="453.7" cy="282.8" r="3" fill="#2ca02c"/>
<circle cx="467.9" cy="272.0" r="3" fill="#2ca02c"/>
<circle cx="482.1" cy="296.7" r="3" fill="#2ca02c"/>
<circle cx="524.7" cy="299.6" r="3" fill="#2ca02c"/>
<circle cx="538.9" cy="301.6" r="3" fill="#2ca02c"/>
<circle cx="553.2" cy="312.5" r="3" fill="#2ca02c"/>
<circle cx="567.4" cy="300.5" r="3" fill="#2ca02c"/>
<circle cx="581.6" cy="169.3" r="3" fill="#2ca02c"/>
<circle cx="595.8" cy="296.2" r="3" fill="#2ca02c"/>
<circle cx="610.0" cy="240.3" r="3" fill="#2ca02c"/>
<circle cx="624.2" cy="307.0" r="3" fill="#2ca02c"/>
<circle cx="638.4" cy="310.0" r="3" fill="#2ca02c"/>
<circle cx="652.6" cy="275.8" r="3" fill="#2ca02c"/>
<circle cx="666.8" cy="305.7" r="3" fill="#2ca02c"/>
<circle cx="681.1" cy="304.6" r="3" fill="#2ca02c"/>
<circle cx="695.3" cy="303.7" r="3" fill="#2ca02c"/>
<circle cx="709.5" cy="297.4" r="3" fill="#2ca02c"/>
<circle cx="723.7" cy="297.4" r="3" fill="#2ca02c"/>
<circle cx="737.9" cy="306.8" r="3" fill="#2ca02c"/>
<circle cx="752.1" cy="306.3" r="3" fill="#2ca02c"/>
<circle cx="766.3" cy="305.5" r="3" fill="#2ca02c"/>
<circle cx="780.5" cy="293.1" r="3" fill="#2ca02c"/>
<circle cx="794.7" cy="303.2" r="3" fill="#2ca02c"/>
<circle cx="823.2" cy="301.0" r="3" fill="#2ca02c"/>
<circle cx="851.6" cy="307.2" r="3" fill="#2ca02c"/>
<circle cx="865.8" cy="305.8" r="3" fill="#2ca02c"/>
<circle cx="880.0" cy="307.8" r="3" fill="#2ca02c"/>
<rect x="475.0" y="358" width="10" height="10" fill="#2ca02c"/>
<text x="489.0" y="367" font-size="11" fill="#333">llm first sentence</text>
<polyline points="70.0,311.1 84.2,313.5 98.4,311.5 112.6,312.5 126.8,305.2 141.1,313.0 169.5,306.1 183.7,304.1 197.9,308.6 254.7,305.6 268.9,310.6 283.2,306.4 297.4,314.9 311.6,315.0 325.8,315.6 340.0,307.9 354.2,313.9 368.4,315.7 382.6,312.8 396.8,306.0 411.1,316.6 425.3,306.0 439.5,313.9 453.7,315.3 467.9,310.5 482.1,316.9 524.7,316.3 538.9,314.8 553.2,314.8 567.4,315.1 581.6,315.2 595.8,314.1 610.0,311.9 624.2,316.5 638.4,316.1 652.6,316.0 666.8,312.9 681.1,314.0 695.3,316.3 709.5,313.4 723.7,316.9 737.9,312.3 752.1,296.2 766.3,290.3 780.5,314.5 794.7,315.0 808.9,318.5 823.2,289.0 837.4,317.3 851.6,316.3 865.8,297.7 880.0,313.5" fill="none" stroke="#9467bd" stroke-width="2"/>
<circle cx="70.0" cy="311.1" r="3" fill="#9467bd"/>
<circle cx="84.2" cy="313.5" r="3" fill="#9467bd"/>
<circle cx="98.4" cy="311.5" r="3" fill="#9467bd"/>
<circle cx="112.6" cy="312.5" r="3" fill="#9467bd"/>
<circle cx="126.8" cy="305.2" r="3" fill="#9467bd"/>
<circle cx="141.1" cy="313.0" r="3" fill="#9467bd"/>
<circle cx="169.5" cy="306.1" r="3" fill="#9467bd"/>
<circle cx="183.7" cy="304.1" r="3" fill="#9467bd"/>
<circle cx="197.9" cy="308.6" r="3" fill="#9467bd"/>
<circle cx="254.7" cy="305.6" r="3" fill="#9467bd"/>
<circle cx="268.9" cy="310.6" r="3" fill="#9467bd"/>
<circle cx="283.2" cy="306.4" r="3" fill="#9467bd"/>
<circle cx="297.4" cy="314.9" r="3" fill="#9467bd"/>
<circle cx="311.6" cy="315.0" r="3" fill="#9467bd"/>
<circle cx="325.8" cy="315.6" r="3" fill="#9467bd"/>
<circle cx="340.0" cy="307.9" r="3" fill="#9467bd"/>
<circle cx="354.2" cy="313.9" r="3" fill="#9467bd"/>
<circle cx="368.4" cy="315.7" r="3" fill="#9467bd"/>
<circle cx="382.6" cy="312.8" r="3" fill="#9467bd"/>
<circle cx="396.8" cy="306.0" r="3" fill="#9467bd"/>
<circle cx="411.1" cy="316.6" r="3" fill="#9467bd"/>
<circle cx="425.3" cy="306.0" r="3" fill="#9467bd"/>
<circle cx="439.5" cy="313.9" r="3" fill="#9467bd"/>
<circle cx="453.7" cy="315.3" r="3" fill="#9467bd"/>
<circle cx="467.9" cy="310.5" r="3" fill="#9467bd"/>
<circle cx="482.1" cy="316.9" r="3" fill="#9467bd"/>
<circle cx="524.7" cy="316.3" r="3" fill="#9467bd"/>
<circle cx="538.9" cy="314.8" r="3" fill="#9467bd"/>
<circle cx="553.2" cy="314.8" r="3" fill="#9467bd"/>
<circle cx="567.4" cy="315.1" r="3" fill="#9467bd"/>
<circle cx="581.6" cy="315.2" r="3" fill="#9467bd"/>
<circle cx="595.8" cy="314.1" r="3" fill="#9467bd"/>
<circle cx="610.0" cy="311.9" r="3" fill="#9467bd"/>
<circle cx="624.2" cy="316.5" r="3" fill="#9467bd"/>
<circle cx="638.4" cy="316.1" r="3" fill="#9467bd"/>
<circle cx="652.6" cy="316.0" r="3" fill="#9467bd"/>
<circle cx="666.8" cy="312.9" r="3" fill="#9467bd"/>
<circle cx="681.1" cy="314.0" r="3" fill="#9467bd"/>
<circle cx="695.3" cy="316.3" r="3" fill="#9467bd"/>
<circle cx="709.5" cy="313.4" r="3" fill="#9467bd"/>
<circle cx="723.7" cy="316.9" r="3" fill="#9467bd"/>
<circle cx="737.9" cy="312.3" r="3" fill="#9467bd"/>
<circle cx="752.1" cy="296.2" r="3" fill="#9467bd"/>
<circle cx="766.3" cy="290.3" r="3" fill="#9467bd"/>
<circle cx="780.5" cy="314.5" r="3" fill="#9467bd"/>
<circle cx="794.7" cy="315.0" r="3" fill="#9467bd"/>
<circle cx="808.9" cy="318.5" r="3" fill="#9467bd"/>
<circle cx="823.2" cy="289.0" r="3" fill="#9467bd"/>
<circle cx="837.4" cy="317.3" r="3" fill="#9467bd"/>
<circle cx="851.6" cy="316.3" r="3" fill="#9467bd"/>
<circle cx="865.8" cy="297.7" r="3" fill="#9467bd"/>
<circle cx="880.0" cy="313.5" r="3" fill="#9467bd"/>
<rect x="610.0" y="358" width="10" height="10" fill="#9467bd"/>
<text x="624.0" y="367" font-size="11" fill="#333">lipsync first mouth</text>
<polyline points="197.9,318.5 254.7,314.7 268.9,318.1 283.2,318.0 297.4,318.8 311.6,312.5 325.8,318.8 340.0,314.5 354.2,318.9 368.4,318.7 382.6,311.9 396.8,318.2 411.1,318.5 425.3,311.1 439.5,317.5 453.7,317.9 467.9,316.7 482.1,318.9 524.7,318.7 538.9,318.6 553.2,318.2 567.4,318.2 581.6,318.6 595.8,317.8 610.0,318.8 624.2,318.3 638.4,318.3 652.6,319.3 666.8,315.9 681.1,318.6 695.3,319.7 709.5,317.7 723.7,319.3 737.9,319.1 752.1,320.4 766.3,320.3 780.5,318.2 794.7,319.1 808.9,318.8 823.2,319.7 837.4,316.8 851.6,319.5 865.8,319.7 880.0,318.9" fill="none" stroke="#8c564b" stroke-width="2"/>
<circle cx="197.9" cy="318.5" r="3" fill="#8c564b"/>
<circle cx="254.7" cy="314.7" r="3" fill="#8c564b"/>
<circle cx="268.9" cy="318.1" r="3" fill="#8c564b"/>
<circle cx="283.2" cy="318.0" r="3" fill="#8c564b"/>
<circle cx="297.4" cy="318.8" r="3" fill="#8c564b"/>
<circle cx="311.6" cy="312.5" r="3" fill="#8c564b"/>
<circle cx="325.8" cy="318.8" r="3" fill="#8c564b"/>
<circle cx="340.0" cy="314.5" r="3" fill="#8c564b"/>
<circle cx="354.2" cy="318.9" r="3" fill="#8c564b"/>
<circle cx="368.4" cy="318.7" r="3" fill="#8c564b"/>
<circle cx="382.6" cy="311.9" r="3" fill="#8c564b"/>
<circle cx="396.8" cy="318.2" r="3" fill="#8c564b"/>
<circle cx="411.1" cy="318.5" r="3" fill="#8c564b"/>
<circle cx="425.3" cy="311.1" r="3" fill="#8c564b"/>
<circle cx="439.5" cy="317.5" r="3" fill="#8c564b"/>
<circle cx="453.7" cy="317.9" r="3" fill="#8c564b"/>
<circle cx="467.9" cy="316.7" r="3" fill="#8c564b"/>
<circle cx="482.1" cy="318.9" r="3" fill="#8c564b"/>
<circle cx="524.7" cy="318.7" r="3" fill="#8c564b"/>
<circle cx="538.9" cy="318.6" r="3" fill="#8c564b"/>
<circle cx="553.2" cy="318.2" r="3" fill="#8c564b"/>
<circle cx="567.4" cy="318.2" r="3" fill="#8c564b"/>
<circle cx="581.6" cy="318.6" r="3" fill="#8c564b"/>
<circle cx="595.8" cy="317.8" r="3" fill="#8c564b"/>
<circle cx="610.0" cy="318.8" r="3" fill="#8c564b"/>
<circle cx="624.2" cy="318.3" r="3" fill="#8c564b"/>
<circle cx="638.4" cy="318.3" r="3" fill="#8c564b"/>
<circle cx="652.6" cy="319.3" r="3" fill="#8c564b"/>
<circle cx="666.8" cy="315.9" r="3" fill="#8c564b"/>
<circle cx="681.1" cy="318.6" r="3" fill="#8c564b"/>
<circle cx="695.3" cy="319.7" r="3" fill="#8c564b"/>
<circle cx="709.5" cy="317.7" r="3" fill="#8c564b"/>
<circle cx="723.7" cy="319.3" r="3" fill="#8c564b"/>
<circle cx="737.9" cy="319.1" r="3" fill="#8c564b"/>
<circle cx="752.1" cy="320.4" r="3" fill="#8c564b"/>
<circle cx="766.3" cy="320.3" r="3" fill="#8c564b"/>
<circle cx="780.5" cy="318.2" r="3" fill="#8c564b"/>
<circle cx="794.7" cy="319.1" r="3" fill="#8c564b"/>
<circle cx="808.9" cy="318.8" r="3" fill="#8c564b"/>
<circle cx="823.2" cy="319.7" r="3" fill="#8c564b"/>
<circle cx="837.4" cy="316.8" r="3" fill="#8c564b"/>
<circle cx="851.6" cy="319.5" r="3" fill="#8c564b"/>
<circle cx="865.8" cy="319.7" r="3" fill="#8c564b"/>
<circle cx="880.0" cy="318.9" r="3" fill="#8c564b"/>
<rect x="745.0" y="358" width="10" height="10" fill="#8c564b"/>
<text x="759.0" y="367" font-size="11" fill="#333">render tick p95</text>
</svg>
