<svg xmlns="http://www.w3.org/2000/svg" width="900" height="380" viewBox="0 0 900 380" font-family="sans-serif">
<rect width="900" height="380" fill="white"/>
<text x="70" y="24" font-size="16" fill="#333">Latency (ms, p50 unless noted) — lower is better</text>
<line x1="70" y1="324.0" x2="880" y2="324.0" stroke="#e5e5e5"/>
<text x="64" y="328.0" font-size="11" fill="#666" text-anchor="end">0ms</text>
<line x1="70" y1="268.0" x2="880" y2="268.0" stroke="#e5e5e5"/>
<text x="64" y="272.0" font-size="11" fill="#666" text-anchor="end">1481ms</text>
<line x1="70" y1="212.0" x2="880" y2="212.0" stroke="#e5e5e5"/>
<text x="64" y="216.0" font-size="11" fill="#666" text-anchor="end">2963ms</text>
<line x1="70" y1="156.0" x2="880" y2="156.0" stroke="#e5e5e5"/>
<text x="64" y="160.0" font-size="11" fill="#666" text-anchor="end">4444ms</text>
<line x1="70" y1="100.0" x2="880" y2="100.0" stroke="#e5e5e5"/>
<text x="64" y="104.0" font-size="11" fill="#666" text-anchor="end">5925ms</text>
<line x1="70" y1="44.0" x2="880" y2="44.0" stroke="#e5e5e5"/>
<text x="64" y="48.0" font-size="11" fill="#666" text-anchor="end">7407ms</text>
<text x="70.0" y="342" font-size="11" fill="#666" text-anchor="start">07-16 16:02</text>
<text x="484.9" y="342" font-size="11" fill="#666" text-anchor="middle">07-17 15:18</text>
<text x="880.0" y="342" font-size="11" fill="#666" text-anchor="end">07-17 20:50</text>
<polyline points="70.0,217.7 89.8,227.9 129.3,203.6 149.0,277.5 168.8,167.6 188.5,238.1 208.3,172.1 228.0,214.4 247.8,167.1 267.6,251.0 287.3,170.5 307.1,265.2 326.8,240.0 346.6,194.2 366.3,237.5 386.1,232.3 405.9,238.8 425.6,246.5 445.4,234.7 465.1,174.8 484.9,240.9 504.6,214.4 524.4,64.7 544.1,245.0 563.9,220.8 583.7,276.4 603.4,269.9 623.2,274.6 642.9,281.8 662.7,316.3 682.4,285.1 702.2,292.2 722.0,283.0 741.7,300.1 761.5,293.0 781.2,206.2 801.0,292.0 820.7,223.6 840.5,294.7 860.2,296.4 880.0,260.6" fill="none" stroke="#d62728" stroke-width="2"/>
<circle cx="70.0" cy="217.7" r="3" fill="#d62728"/>
<circle cx="89.8" cy="227.9" r="3" fill="#d62728"/>
<circle cx="129.3" cy="203.6" r="3" fill="#d62728"/>
<circle cx="149.0" cy="277.5" r="3" fill="#d62728"/>
<circle cx="168.8" cy="167.6" r="3" fill="#d62728"/>
<circle cx="188.5" cy="238.1" r="3" fill="#d62728"/>
<circle cx="208.3" cy="172.1" r="3" fill="#d62728"/>
<circle cx="228.0" cy="214.4" r="3" fill="#d62728"/>
<circle cx="247.8" cy="167.1" r="3" fill="#d62728"/>
<circle cx="267.6" cy="251.0" r="3" fill="#d62728"/>
<circle cx="287.3" cy="170.5" r="3" fill="#d62728"/>
<circle cx="307.1" cy="265.2" r="3" fill="#d62728"/>
<circle cx="326.8" cy="240.0" r="3" fill="#d62728"/>
<circle cx="346.6" cy="194.2" r="3" fill="#d62728"/>
<circle cx="366.3" cy="237.5" r="3" fill="#d62728"/>
<circle cx="386.1" cy="232.3" r="3" fill="#d62728"/>
<circle cx="405.9" cy="238.8" r="3" fill="#d62728"/>
<circle cx="425.6" cy="246.5" r="3" fill="#d62728"/>
<circle cx="445.4" cy="234.7" r="3" fill="#d62728"/>
<circle cx="465.1" cy="174.8" r="3" fill="#d62728"/>
<circle cx="484.9" cy="240.9" r="3" fill="#d62728"/>
<circle cx="504.6" cy="214.4" r="3" fill="#d62728"/>
<circle cx="524.4" cy="64.7" r="3" fill="#d62728"/>
<circle cx="544.1" cy="245.0" r="3" fill="#d62728"/>
<circle cx="563.9" cy="220.8" r="3" fill="#d62728"/>
<circle cx="583.7" cy="276.4" r="3" fill="#d62728"/>
<circle cx="603.4" cy="269.9" r="3" fill="#d62728"/>
<circle cx="623.2" cy="274.6" r="3" fill="#d62728"/>
<circle cx="642.9" cy="281.8" r="3" fill="#d62728"/>
<circle cx="662.7" cy="316.3" r="3" fill="#d62728"/>
<circle cx="682.4" cy="285.1" r="3" fill="#d62728"/>
<circle cx="702.2" cy="292.2" r="3" fill="#d62728"/>
<circle cx="722.0" cy="283.0" r="3" fill="#d62728"/>
<circle cx="741.7" cy="300.1" r="3" fill="#d62728"/>
<circle cx="761.5" cy="293.0" r="3" fill="#d62728"/>
<circle cx="781.2" cy="206.2" r="3" fill="#d62728"/>
<circle cx="801.0" cy="292.0" r="3" fill="#d62728"/>
<circle cx="820.7" cy="223.6" r="3" fill="#d62728"/>
<circle cx="840.5" cy="294.7" r="3" fill="#d62728"/>
<circle cx="860.2" cy="296.4" r="3" fill="#d62728"/>
<circle cx="880.0" cy="260.6" r="3" fill="#d62728"/>
<rect x="70.0" y="358" width="10" height="10" fill="#d62728"/>
<text x="84.0" y="367" font-size="11" fill="#333">first audio (e2e)</text>
<polyline points="247.8,215.3 326.8,199.1 346.6,224.4 366.3,176.9 386.1,267.6 405.9,239.5 425.6,283.5 445.4,244.5 465.1,260.4 484.9,246.2 504.6,245.6 524.4,201.1 544.1,299.9 563.9,252.0 583.7,317.9 603.4,317.8 623.2,317.5 642.9,318.0 702.2,318.3 722.0,317.4 741.7,317.8 761.5,318.6 781.2,317.8 801.0,318.2 820.7,317.3 840.5,317.7 860.2,319.0 880.0,318.6" fill="none" stroke="#1f77b4" stroke-width="2"/>
<circle cx="247.8" cy="215.3" r="3" fill="#1f77b4"/>
<circle cx="326.8" cy="199.1" r="3" fill="#1f77b4"/>
<circle cx="346.6" cy="224.4" r="3" fill="#1f77b4"/>
<circle cx="366.3" cy="176.9" r="3" fill="#1f77b4"/>
<circle cx="386.1" cy="267.6" r="3" fill="#1f77b4"/>
<circle cx="405.9" cy="239.5" r="3" fill="#1f77b4"/>
<circle cx="425.6" cy="283.5" r="3" fill="#1f77b4"/>
<circle cx="445.4" cy="244.5" r="3" fill="#1f77b4"/>
<circle cx="465.1" cy="260.4" r="3" fill="#1f77b4"/>
<circle cx="484.9" cy="246.2" r="3" fill="#1f77b4"/>
<circle cx="504.6" cy="245.6" r="3" fill="#1f77b4"/>
<circle cx="524.4" cy="201.1" r="3" fill="#1f77b4"/>
<circle cx="544.1" cy="299.9" r="3" fill="#1f77b4"/>
<circle cx="563.9" cy="252.0" r="3" fill="#1f77b4"/>
<circle cx="583.7" cy="317.9" r="3" fill="#1f77b4"/>
<circle cx="603.4" cy="317.8" r="3" fill="#1f77b4"/>
<circle cx="623.2" cy="317.5" r="3" fill="#1f77b4"/>
<circle cx="642.9" cy="318.0" r="3" fill="#1f77b4"/>
<circle cx="702.2" cy="318.3" r="3" fill="#1f77b4"/>
<circle cx="722.0" cy="317.4" r="3" fill="#1f77b4"/>
<circle cx="741.7" cy="317.8" r="3" fill="#1f77b4"/>
<circle cx="761.5" cy="318.6" r="3" fill="#1f77b4"/>
<circle cx="781.2" cy="317.8" r="3" fill="#1f77b4"/>
<circle cx="801.0" cy="318.2" r="3" fill="#1f77b4"/>
<circle cx="820.7" cy="317.3" r="3" fill="#1f77b4"/>
<circle cx="840.5" cy="317.7" r="3" fill="#1f77b4"/>
<circle cx="860.2" cy="319.0" r="3" fill="#1f77b4"/>
<circle cx="880.0" cy="318.6" r="3" fill="#1f77b4"/>
<rect x="205.0" y="358" width="10" height="10" fill="#1f77b4"/>
<text x="219.0" y="367" font-size="11" fill="#333">tts first chunk</text>
<polyline points="247.8,298.0 326.8,298.0 346.6,307.7 405.9,287.9 425.6,307.5 445.4,307.7 484.9,300.5 504.6,298.4 544.1,304.7 563.9,305.1 583.7,306.6 603.4,304.3 623.2,291.3 702.2,304.1 781.2,262.6 840.5,311.0 860.2,312.2 880.0,308.2" fill="none" stroke="#ff7f0e" stroke-width="2"/>
<circle cx="247.8" cy="298.0" r="3" fill="#ff7f0e"/>
<circle cx="326.8" cy="298.0" r="3" fill="#ff7f0e"/>
<circle cx="346.6" cy="307.7" r="3" fill="#ff7f0e"/>
<circle cx="405.9" cy="287.9" r="3" fill="#ff7f0e"/>
<circle cx="425.6" cy="307.5" r="3" fill="#ff7f0e"/>
<circle cx="445.4" cy="307.7" r="3" fill="#ff7f0e"/>
<circle cx="484.9" cy="300.5" r="3" fill="#ff7f0e"/>
<circle cx="504.6" cy="298.4" r="3" fill="#ff7f0e"/>
<circle cx="544.1" cy="304.7" r="3" fill="#ff7f0e"/>
<circle cx="563.9" cy="305.1" r="3" fill="#ff7f0e"/>
<circle cx="583.7" cy="306.6" r="3" fill="#ff7f0e"/>
<circle cx="603.4" cy="304.3" r="3" fill="#ff7f0e"/>
<circle cx="623.2" cy="291.3" r="3" fill="#ff7f0e"/>
<circle cx="702.2" cy="304.1" r="3" fill="#ff7f0e"/>
<circle cx="781.2" cy="262.6" r="3" fill="#ff7f0e"/>
<circle cx="840.5" cy="311.0" r="3" fill="#ff7f0e"/>
<circle cx="860.2" cy="312.2" r="3" fill="#ff7f0e"/>
<circle cx="880.0" cy="308.2" r="3" fill="#ff7f0e"/>
<rect x="340.0" y="358" width="10" height="10" fill="#ff7f0e"/>
<text x="354.0" y="367" font-size="11" fill="#333">llm ttft</text>
<polyline points="70.0,297.1 89.8,301.1 129.3,298.1 149.0,298.0 168.8,303.1 208.3,274.4 228.0,281.5 247.8,241.9 326.8,243.2 346.6,286.5 366.3,268.6 386.1,306.2 405.9,280.2 425.6,306.0 445.4,297.3 465.1,269.3 484.9,299.0 504.6,267.5 524.4,275.1 544.1,303.3 563.9,253.3 583.7,280.5 603.4,282.8 623.2,272.0 642.9,296.7 702.2,299.6 722.0,301.6 741.7,312.5 761.5,300.5 781.2,169.3 801.0,296.2 820.7,240.3 840.5,307.0 860.2,310.0 880.0,275.8" fill="none" stroke="#2ca02c" stroke-width="2"/>
<circle cx="70.0" cy="297.1" r="3" fill="#2ca02c"/>
<circle cx="89.8" cy="301.1" r="3" fill="#2ca02c"/>
<circle cx="129.3" cy="298.1" r="3" fill="#2ca02c"/>
<circle cx="149.0" cy="298.0" r="3" fill="#2ca02c"/>
<circle cx="168.8" cy="303.1" r="3" fill="#2ca02c"/>
<circle cx="208.3" cy="274.4" r="3" fill="#2ca02c"/>
<circle cx="228.0" cy="281.5" r="3" fill="#2ca02c"/>
<circle cx="247.8" cy="241.9" r="3" fill="#2ca02c"/>
<circle cx="326.8" cy="243.2" r="3" fill="#2ca02c"/>
<circle cx="346.6" cy="286.5" r="3" fill="#2ca02c"/>
<circle cx="366.3" cy="268.6" r="3" fill="#2ca02c"/>
<circle cx="386.1" cy="306.2" r="3" fill="#2ca02c"/>
<circle cx="405.9" cy="280.2" r="3" fill="#2ca02c"/>
<circle cx="425.6" cy="306.0" r="3" fill="#2ca02c"/>
<circle cx="445.4" cy="297.3" r="3" fill="#2ca02c"/>
<circle cx="465.1" cy="269.3" r="3" fill="#2ca02c"/>
<circle cx="484.9" cy="299.0" r="3" fill="#2ca02c"/>
<circle cx="504.6" cy="267.5" r="3" fill="#2ca02c"/>
<circle cx="524.4" cy="275.1" r="3" fill="#2ca02c"/>
<circle cx="544.1" cy="303.3" r="3" fill="#2ca02c"/>
<circle cx="563.9" cy="253.3" r="3" fill="#2ca02c"/>
<circle cx="583.7" cy="280.5" r="3" fill="#2ca02c"/>
<circle cx="603.4" cy="282.8" r="3" fill="#2ca02c"/>
<circle cx="623.2" cy="272.0" r="3" fill="#2ca02c"/>
<circle cx="642.9" cy="296.7" r="3" fill="#2ca02c"/>
<circle cx="702.2" cy="299.6" r="3" fill="#2ca02c"/>
<circle cx="722.0" cy="301.6" r="3" fill="#2ca02c"/>
<circle cx="741.7" cy="312.5" r="3" fill="#2ca02c"/>
<circle cx="761.5" cy="300.5" r="3" fill="#2ca02c"/>
<circle cx="781.2" cy="169.3" r="3" fill="#2ca02c"/>
<circle cx="801.0" cy="296.2" r="3" fill="#2ca02c"/>
<circle cx="820.7" cy="240.3" r="3" fill="#2ca02c"/>
<circle cx="840.5" cy="307.0" r="3" fill="#2ca02c"/>
<circle cx="860.2" cy="310.0" r="3" fill="#2ca02c"/>
<circle cx="880.0" cy="275.8" r="3" fill="#2ca02c"/>
<rect x="475.0" y="358" width="10" height="10" fill="#2ca02c"/>
<text x="489.0" y="367" font-size="11" fill="#333">llm first sentence</text>
<polyline points="70.0,311.1 89.8,313.5 109.5,311.5 129.3,312.5 149.0,305.2 168.8,313.0 208.3,306.1 228.0,304.1 247.8,308.6 326.8,305.6 346.6,310.6 366.3,306.4 386.1,314.9 405.9,315.0 425.6,315.6 445.4,307.9 465.1,313.9 484.9,315.7 504.6,312.8 524.4,306.0 544.1,316.6 563.9,306.0 583.7,313.9 603.4,315.3 623.2,310.5 642.9,316.9 702.2,316.3 722.0,314.8 741.7,314.8 761.5,315.1 781.2,315.2 801.0,314.1 820.7,311.9 840.5,316.5 860.2,316.1 880.0,316.0" fill="none" stroke="#9467bd" stroke-width="2"/>
<circle cx="70.0" cy="311.1" r="3" fill="#9467bd"/>
<circle cx="89.8" cy="313.5" r="3" fill="#9467bd"/>
<circle cx="109.5" cy="311.5" r="3" fill="#9467bd"/>
<circle cx="129.3" cy="312.5" r="3" fill="#9467bd"/>
<circle cx="149.0" cy="305.2" r="3" fill="#9467bd"/>
<circle cx="168.8" cy="313.0" r="3" fill="#9467bd"/>
<circle cx="208.3" cy="306.1" r="3" fill="#9467bd"/>
<circle cx="228.0" cy="304.1" r="3" fill="#9467bd"/>
<circle cx="247.8" cy="308.6" r="3" fill="#9467bd"/>
<circle cx="326.8" cy="305.6" r="3" fill="#9467bd"/>
<circle cx="346.6" cy="310.6" r="3" fill="#9467bd"/>
<circle cx="366.3" cy="306.4" r="3" fill="#9467bd"/>
<circle cx="386.1" cy="314.9" r="3" fill="#9467bd"/>
<circle cx="405.9" cy="315.0" r="3" fill="#9467bd"/>
<circle cx="425.6" cy="315.6" r="3" fill="#9467bd"/>
<circle cx="445.4" cy="307.9" r="3" fill="#9467bd"/>
<circle cx="465.1" cy="313.9" r="3" fill="#9467bd"/>
<circle cx="484.9" cy="315.7" r="3" fill="#9467bd"/>
<circle cx="504.6" cy="312.8" r="3" fill="#9467bd"/>
<circle cx="524.4" cy="306.0" r="3" fill="#9467bd"/>
<circle cx="544.1" cy="316.6" r="3" fill="#9467bd"/>
<circle cx="563.9" cy="306.0" r="3" fill="#9467bd"/>
<circle cx="583.7" cy="313.9" r="3" fill="#9467bd"/>
<circle cx="603.4" cy="315.3" r="3" fill="#9467bd"/>
<circle cx="623.2" cy="310.5" r="3" fill="#9467bd"/>
<circle cx="642.9" cy="316.9" r="3" fill="#9467bd"/>
<circle cx="702.2" cy="316.3" r="3" fill="#9467bd"/>
<circle cx="722.0" cy="314.8" r="3" fill="#9467bd"/>
<circle cx="741.7" cy="314.8" r="3" fill="#9467bd"/>
<circle cx="761.5" cy="315.1" r="3" fill="#9467bd"/>
<circle cx="781.2" cy="315.2" r="3" fill="#9467bd"/>
<circle cx="801.0" cy="314.1" r="3" fill="#9467bd"/>
<circle cx="820.7" cy="311.9" r="3" fill="#9467bd"/>
<circle cx="840.5" cy="316.5" r="3" fill="#9467bd"/>
<circle cx="860.2" cy="316.1" r="3" fill="#9467bd"/>
<circle cx="880.0" cy="316.0" r="3" fill="#9467bd"/>
<rect x="610.0" y="358" width="10" height="10" fill="#9467bd"/>
<text x="624.0" y="367" font-size="11" fill="#333">lipsync first mouth</text>
<polyline points="247.8,318.5 326.8,314.7 346.6,318.1 366.3,318.0 386.1,318.8 405.9,312.5 425.6,318.8 445.4,314.5 465.1,318.9 484.9,318.7 504.6,311.9 524.4,318.2 544.1,318.5 563.9,311.1 583.7,317.5 603.4,317.9 623.2,316.7 642.9,318.9 702.2,318.7 722.0,318.6 741.7,318.2 761.5,318.2 781.2,318.6 801.0,317.8 820.7,318.8 840.5,318.3 860.2,318.3 880.0,319.3" fill="none" stroke="#8c564b" stroke-width="2"/>
<circle cx="247.8" cy="318.5" r="3" fill="#8c564b"/>
<circle cx="326.8" cy="314.7" r="3" fill="#8c564b"/>
<circle cx="346.6" cy="318.1" r="3" fill="#8c564b"/>
<circle cx="366.3" cy="318.0" r="3" fill="#8c564b"/>
<circle cx="386.1" cy="318.8" r="3" fill="#8c564b"/>
<circle cx="405.9" cy="312.5" r="3" fill="#8c564b"/>
<circle cx="425.6" cy="318.8" r="3" fill="#8c564b"/>
<circle cx="445.4" cy="314.5" r="3" fill="#8c564b"/>
<circle cx="465.1" cy="318.9" r="3" fill="#8c564b"/>
<circle cx="484.9" cy="318.7" r="3" fill="#8c564b"/>
<circle cx="504.6" cy="311.9" r="3" fill="#8c564b"/>
<circle cx="524.4" cy="318.2" r="3" fill="#8c564b"/>
<circle cx="544.1" cy="318.5" r="3" fill="#8c564b"/>
<circle cx="563.9" cy="311.1" r="3" fill="#8c564b"/>
<circle cx="583.7" cy="317.5" r="3" fill="#8c564b"/>
<circle cx="603.4" cy="317.9" r="3" fill="#8c564b"/>
<circle cx="623.2" cy="316.7" r="3" fill="#8c564b"/>
<circle cx="642.9" cy="318.9" r="3" fill="#8c564b"/>
<circle cx="702.2" cy="318.7" r="3" fill="#8c564b"/>
<circle cx="722.0" cy="318.6" r="3" fill="#8c564b"/>
<circle cx="741.7" cy="318.2" r="3" fill="#8c564b"/>
<circle cx="761.5" cy="318.2" r="3" fill="#8c564b"/>
<circle cx="781.2" cy="318.6" r="3" fill="#8c564b"/>
<circle cx="801.0" cy="317.8" r="3" fill="#8c564b"/>
<circle cx="820.7" cy="318.8" r="3" fill="#8c564b"/>
<circle cx="840.5" cy="318.3" r="3" fill="#8c564b"/>
<circle cx="860.2" cy="318.3" r="3" fill="#8c564b"/>
<circle cx="880.0" cy="319.3" r="3" fill="#8c564b"/>
<rect x="745.0" y="358" width="10" height="10" fill="#8c564b"/>
<text x="759.0" y="367" font-size="11" fill="#333">render tick p95</text>
</svg>
