<svg xmlns="http://www.w3.org/2000/svg" width="900" height="380" viewBox="0 0 900 380" font-family="sans-serif">
<rect width="900" height="380" fill="white"/>
<text x="70" y="24" font-size="16" fill="#333">Latency (ms, p50 unless noted) — lower is better</text>
<line x1="70" y1="324.0" x2="880" y2="324.0" stroke="#e5e5e5"/>
<text x="64" y="328.0" font-size="11" fill="#666" text-anchor="end">0ms</text>
<line x1="70" y1="268.0" x2="880" y2="268.0" stroke="#e5e5e5"/>
<text x="64" y="272.0" font-size="11" fill="#666" text-anchor="end">897ms</text>
<line x1="70" y1="212.0" x2="880" y2="212.0" stroke="#e5e5e5"/>
<text x="64" y="216.0" font-size="11" fill="#666" text-anchor="end">1793ms</text>
<line x1="70" y1="156.0" x2="880" y2="156.0" stroke="#e5e5e5"/>
<text x="64" y="160.0" font-size="11" fill="#666" text-anchor="end">2690ms</text>
<line x1="70" y1="100.0" x2="880" y2="100.0" stroke="#e5e5e5"/>
<text x="64" y="104.0" font-size="11" fill="#666" text-anchor="end">3586ms</text>
<line x1="70" y1="44.0" x2="880" y2="44.0" stroke="#e5e5e5"/>
<text x="64" y="48.0" font-size="11" fill="#666" text-anchor="end">4483ms</text>
<text x="70.0" y="342" font-size="11" fill="#666" text-anchor="start">07-16 16:02</text>
<text x="498.8" y="342" font-size="11" fill="#666" text-anchor="middle">07-16 22:24</text>
<text x="880.0" y="342" font-size="11" fill="#666" text-anchor="end">07-17 14:26</text>
<polyline points="70.0,148.4 117.6,165.2 212.9,125.1 260.6,247.2 308.2,65.6 355.9,182.0 403.5,73.1 451.2,142.9 498.8,64.7 546.5,203.4 594.1,70.4 641.8,226.9 689.4,185.2 737.1,109.6 784.7,181.0 832.4,172.5 880.0,183.3" fill="none" stroke="#d62728" stroke-width="2"/>
<circle cx="70.0" cy="148.4" r="3" fill="#d62728"/>
<circle cx="117.6" cy="165.2" r="3" fill="#d62728"/>
<circle cx="212.9" cy="125.1" r="3" fill="#d62728"/>
<circle cx="260.6" cy="247.2" r="3" fill="#d62728"/>
<circle cx="308.2" cy="65.6" r="3" fill="#d62728"/>
<circle cx="355.9" cy="182.0" r="3" fill="#d62728"/>
<circle cx="403.5" cy="73.1" r="3" fill="#d62728"/>
<circle cx="451.2" cy="142.9" r="3" fill="#d62728"/>
<circle cx="498.8" cy="64.7" r="3" fill="#d62728"/>
<circle cx="546.5" cy="203.4" r="3" fill="#d62728"/>
<circle cx="594.1" cy="70.4" r="3" fill="#d62728"/>
<circle cx="641.8" cy="226.9" r="3" fill="#d62728"/>
<circle cx="689.4" cy="185.2" r="3" fill="#d62728"/>
<circle cx="737.1" cy="109.6" r="3" fill="#d62728"/>
<circle cx="784.7" cy="181.0" r="3" fill="#d62728"/>
<circle cx="832.4" cy="172.5" r="3" fill="#d62728"/>
<circle cx="880.0" cy="183.3" r="3" fill="#d62728"/>
<rect x="70.0" y="358" width="10" height="10" fill="#d62728"/>
<text x="84.0" y="367" font-size="11" fill="#333">first audio (e2e)</text>
<polyline points="498.8,144.3 689.4,117.7 737.1,159.4 784.7,81.0 832.4,230.8 880.0,184.4" fill="none" stroke="#1f77b4" stroke-width="2"/>
<circle cx="498.8" cy="144.3" r="3" fill="#1f77b4"/>
<circle cx="689.4" cy="117.7" r="3" fill="#1f77b4"/>
<circle cx="737.1" cy="159.4" r="3" fill="#1f77b4"/>
<circle cx="784.7" cy="81.0" r="3" fill="#1f77b4"/>
<circle cx="832.4" cy="230.8" r="3" fill="#1f77b4"/>
<circle cx="880.0" cy="184.4" r="3" fill="#1f77b4"/>
<rect x="205.0" y="358" width="10" height="10" fill="#1f77b4"/>
<text x="219.0" y="367" font-size="11" fill="#333">tts first chunk</text>
<polyline points="498.8,281.0 689.4,281.0 737.1,297.1 880.0,264.4" fill="none" stroke="#ff7f0e" stroke-width="2"/>
<circle cx="498.8" cy="281.0" r="3" fill="#ff7f0e"/>
<circle cx="689.4" cy="281.0" r="3" fill="#ff7f0e"/>
<circle cx="737.1" cy="297.1" r="3" fill="#ff7f0e"/>
<circle cx="880.0" cy="264.4" r="3" fill="#ff7f0e"/>
<rect x="340.0" y="358" width="10" height="10" fill="#ff7f0e"/>
<text x="354.0" y="367" font-size="11" fill="#333">llm ttft</text>
<polyline points="70.0,279.6 117.6,286.2 212.9,281.2 260.6,281.1 308.2,289.5 403.5,242.1 451.2,253.8 498.8,188.4 689.4,190.5 737.1,262.0 784.7,232.4 832.4,294.7 880.0,251.7" fill="none" stroke="#2ca02c" stroke-width="2"/>
<circle cx="70.0" cy="279.6" r="3" fill="#2ca02c"/>
<circle cx="117.6" cy="286.2" r="3" fill="#2ca02c"/>
<circle cx="212.9" cy="281.2" r="3" fill="#2ca02c"/>
<circle cx="260.6" cy="281.1" r="3" fill="#2ca02c"/>
<circle cx="308.2" cy="289.5" r="3" fill="#2ca02c"/>
<circle cx="403.5" cy="242.1" r="3" fill="#2ca02c"/>
<circle cx="451.2" cy="253.8" r="3" fill="#2ca02c"/>
<circle cx="498.8" cy="188.4" r="3" fill="#2ca02c"/>
<circle cx="689.4" cy="190.5" r="3" fill="#2ca02c"/>
<circle cx="737.1" cy="262.0" r="3" fill="#2ca02c"/>
<circle cx="784.7" cy="232.4" r="3" fill="#2ca02c"/>
<circle cx="832.4" cy="294.7" r="3" fill="#2ca02c"/>
<circle cx="880.0" cy="251.7" r="3" fill="#2ca02c"/>
<rect x="475.0" y="358" width="10" height="10" fill="#2ca02c"/>
<text x="489.0" y="367" font-size="11" fill="#333">llm first sentence</text>
<polyline points="70.0,302.7 117.6,306.6 165.3,303.4 212.9,305.0 260.6,293.0 308.2,305.8 403.5,294.4 451.2,291.1 498.8,298.6 689.4,293.7 737.1,301.9 784.7,294.9 832.4,308.9 880.0,309.1" fill="none" stroke="#9467bd" stroke-width="2"/>
<circle cx="70.0" cy="302.7" r="3" fill="#9467bd"/>
<circle cx="117.6" cy="306.6" r="3" fill="#9467bd"/>
<circle cx="165.3" cy="303.4" r="3" fill="#9467bd"/>
<circle cx="212.9" cy="305.0" r="3" fill="#9467bd"/>
<circle cx="260.6" cy="293.0" r="3" fill="#9467bd"/>
<circle cx="308.2" cy="305.8" r="3" fill="#9467bd"/>
<circle cx="403.5" cy="294.4" r="3" fill="#9467bd"/>
<circle cx="451.2" cy="291.1" r="3" fill="#9467bd"/>
<circle cx="498.8" cy="298.6" r="3" fill="#9467bd"/>
<circle cx="689.4" cy="293.7" r="3" fill="#9467bd"/>
<circle cx="737.1" cy="301.9" r="3" fill="#9467bd"/>
<circle cx="784.7" cy="294.9" r="3" fill="#9467bd"/>
<circle cx="832.4" cy="308.9" r="3" fill="#9467bd"/>
<circle cx="880.0" cy="309.1" r="3" fill="#9467bd"/>
<rect x="610.0" y="358" width="10" height="10" fill="#9467bd"/>
<text x="624.0" y="367" font-size="11" fill="#333">lipsync first mouth</text>
<polyline points="498.8,314.9 689.4,308.6 737.1,314.2 784.7,314.0 832.4,315.4 880.0,304.9" fill="none" stroke="#8c564b" stroke-width="2"/>
<circle cx="498.8" cy="314.9" r="3" fill="#8c564b"/>
<circle cx="689.4" cy="308.6" r="3" fill="#8c564b"/>
<circle cx="737.1" cy="314.2" r="3" fill="#8c564b"/>
<circle cx="784.7" cy="314.0" r="3" fill="#8c564b"/>
<circle cx="832.4" cy="315.4" r="3" fill="#8c564b"/>
<circle cx="880.0" cy="304.9" r="3" fill="#8c564b"/>
<rect x="745.0" y="358" width="10" height="10" fill="#8c564b"/>
<text x="759.0" y="367" font-size="11" fill="#333">render tick p95</text>
</svg>
