<svg xmlns="http://www.w3.org/2000/svg" width="900" height="380" viewBox="0 0 900 380" font-family="sans-serif">
<rect width="900" height="380" fill="white"/>
<text x="70" y="24" font-size="16" fill="#333">Latency (ms, p50 unless noted) — lower is better</text>
<line x1="70" y1="324.0" x2="880" y2="324.0" stroke="#e5e5e5"/>
<text x="64" y="328.0" font-size="11" fill="#666" text-anchor="end">0ms</text>
<line x1="70" y1="268.0" x2="880" y2="268.0" stroke="#e5e5e5"/>
<text x="64" y="272.0" font-size="11" fill="#666" text-anchor="end">1481ms</text>
<line x1="70" y1="212.0" x2="880" y2="212.0" stroke="#e5e5e5"/>
<text x="64" y="216.0" font-size="11" fill="#666" text-anchor="end">2963ms</text>
<line x1="70" y1="156.0" x2="880" y2="156.0" stroke="#e5e5e5"/>
<text x="64" y="160.0" font-size="11" fill="#666" text-anchor="end">4444ms</text>
<line x1="70" y1="100.0" x2="880" y2="100.0" stroke="#e5e5e5"/>
<text x="64" y="104.0" font-size="11" fill="#666" text-anchor="end">5925ms</text>
<line x1="70" y1="44.0" x2="880" y2="44.0" stroke="#e5e5e5"/>
<text x="64" y="48.0" font-size="11" fill="#666" text-anchor="end">7407ms</text>
<text x="70.0" y="342" font-size="11" fill="#666" text-anchor="start">07-16 16:02</text>
<text x="475.0" y="342" font-size="11" fill="#666" text-anchor="middle">07-17 13:17</text>
<text x="880.0" y="342" font-size="11" fill="#666" text-anchor="end">07-17 19:42</text>
<polyline points="70.0,217.7 97.0,227.9 151.0,203.6 178.0,277.5 205.0,167.6 232.0,238.1 259.0,172.1 286.0,214.4 313.0,167.1 340.0,251.0 367.0,170.5 394.0,265.2 421.0,240.0 448.0,194.2 475.0,237.5 502.0,232.3 529.0,238.8 556.0,246.5 583.0,234.7 610.0,174.8 637.0,240.9 664.0,214.4 691.0,64.7 718.0,245.0 745.0,220.8 772.0,276.4 799.0,269.9 826.0,274.6 853.0,281.8 880.0,316.3" fill="none" stroke="#d62728" stroke-width="2"/>
<circle cx="70.0" cy="217.7" r="3" fill="#d62728"/>
<circle cx="97.0" cy="227.9" r="3" fill="#d62728"/>
<circle cx="151.0" cy="203.6" r="3" fill="#d62728"/>
<circle cx="178.0" cy="277.5" r="3" fill="#d62728"/>
<circle cx="205.0" cy="167.6" r="3" fill="#d62728"/>
<circle cx="232.0" cy="238.1" r="3" fill="#d62728"/>
<circle cx="259.0" cy="172.1" r="3" fill="#d62728"/>
<circle cx="286.0" cy="214.4" r="3" fill="#d62728"/>
<circle cx="313.0" cy="167.1" r="3" fill="#d62728"/>
<circle cx="340.0" cy="251.0" r="3" fill="#d62728"/>
<circle cx="367.0" cy="170.5" r="3" fill="#d62728"/>
<circle cx="394.0" cy="265.2" r="3" fill="#d62728"/>
<circle cx="421.0" cy="240.0" r="3" fill="#d62728"/>
<circle cx="448.0" cy="194.2" r="3" fill="#d62728"/>
<circle cx="475.0" cy="237.5" r="3" fill="#d62728"/>
<circle cx="502.0" cy="232.3" r="3" fill="#d62728"/>
<circle cx="529.0" cy="238.8" r="3" fill="#d62728"/>
<circle cx="556.0" cy="246.5" r="3" fill="#d62728"/>
<circle cx="583.0" cy="234.7" r="3" fill="#d62728"/>
<circle cx="610.0" cy="174.8" r="3" fill="#d62728"/>
<circle cx="637.0" cy="240.9" r="3" fill="#d62728"/>
<circle cx="664.0" cy="214.4" r="3" fill="#d62728"/>
<circle cx="691.0" cy="64.7" r="3" fill="#d62728"/>
<circle cx="718.0" cy="245.0" r="3" fill="#d62728"/>
<circle cx="745.0" cy="220.8" r="3" fill="#d62728"/>
<circle cx="772.0" cy="276.4" r="3" fill="#d62728"/>
<circle cx="799.0" cy="269.9" r="3" fill="#d62728"/>
<circle cx="826.0" cy="274.6" r="3" fill="#d62728"/>
<circle cx="853.0" cy="281.8" r="3" fill="#d62728"/>
<circle cx="880.0" cy="316.3" r="3" fill="#d62728"/>
<rect x="70.0" y="358" width="10" height="10" fill="#d62728"/>
<text x="84.0" y="367" font-size="11" fill="#333">first audio (e2e)</text>
<polyline points="313.0,215.3 421.0,199.1 448.0,224.4 475.0,176.9 502.0,267.6 529.0,239.5 556.0,283.5 583.0,244.5 610.0,260.4 637.0,246.2 664.0,245.6 691.0,201.1 718.0,299.9 745.0,252.0 772.0,317.9 799.0,317.8 826.0,317.5 853.0,318.0" fill="none" stroke="#1f77b4" stroke-width="2"/>
<circle cx="313.0" cy="215.3" r="3" fill="#1f77b4"/>
<circle cx="421.0" cy="199.1" r="3" fill="#1f77b4"/>
<circle cx="448.0" cy="224.4" r="3" fill="#1f77b4"/>
<circle cx="475.0" cy="176.9" r="3" fill="#1f77b4"/>
<circle cx="502.0" cy="267.6" r="3" fill="#1f77b4"/>
<circle cx="529.0" cy="239.5" r="3" fill="#1f77b4"/>
<circle cx="556.0" cy="283.5" r="3" fill="#1f77b4"/>
<circle cx="583.0" cy="244.5" r="3" fill="#1f77b4"/>
<circle cx="610.0" cy="260.4" r="3" fill="#1f77b4"/>
<circle cx="637.0" cy="246.2" r="3" fill="#1f77b4"/>
<circle cx="664.0" cy="245.6" r="3" fill="#1f77b4"/>
<circle cx="691.0" cy="201.1" r="3" fill="#1f77b4"/>
<circle cx="718.0" cy="299.9" r="3" fill="#1f77b4"/>
<circle cx="745.0" cy="252.0" r="3" fill="#1f77b4"/>
<circle cx="772.0" cy="317.9" r="3" fill="#1f77b4"/>
<circle cx="799.0" cy="317.8" r="3" fill="#1f77b4"/>
<circle cx="826.0" cy="317.5" r="3" fill="#1f77b4"/>
<circle cx="853.0" cy="318.0" r="3" fill="#1f77b4"/>
<rect x="205.0" y="358" width="10" height="10" fill="#1f77b4"/>
<text x="219.0" y="367" font-size="11" fill="#333">tts first chunk</text>
<polyline points="313.0,298.0 421.0,298.0 448.0,307.7 529.0,287.9 556.0,307.5 583.0,307.7 637.0,300.5 664.0,298.4 718.0,304.7 745.0,305.1 772.0,306.6 799.0,304.3 826.0,291.3" fill="none" stroke="#ff7f0e" stroke-width="2"/>
<circle cx="313.0" cy="298.0" r="3" fill="#ff7f0e"/>
<circle cx="421.0" cy="298.0" r="3" fill="#ff7f0e"/>
<circle cx="448.0" cy="307.7" r="3" fill="#ff7f0e"/>
<circle cx="529.0" cy="287.9" r="3" fill="#ff7f0e"/>
<circle cx="556.0" cy="307.5" r="3" fill="#ff7f0e"/>
<circle cx="583.0" cy="307.7" r="3" fill="#ff7f0e"/>
<circle cx="637.0" cy="300.5" r="3" fill="#ff7f0e"/>
<circle cx="664.0" cy="298.4" r="3" fill="#ff7f0e"/>
<circle cx="718.0" cy="304.7" r="3" fill="#ff7f0e"/>
<circle cx="745.0" cy="305.1" r="3" fill="#ff7f0e"/>
<circle cx="772.0" cy="306.6" r="3" fill="#ff7f0e"/>
<circle cx="799.0" cy="304.3" r="3" fill="#ff7f0e"/>
<circle cx="826.0" cy="291.3" r="3" fill="#ff7f0e"/>
<rect x="340.0" y="358" width="10" height="10" fill="#ff7f0e"/>
<text x="354.0" y="367" font-size="11" fill="#333">llm ttft</text>
<polyline points="70.0,297.1 97.0,301.1 151.0,298.1 178.0,298.0 205.0,303.1 259.0,274.4 286.0,281.5 313.0,241.9 421.0,243.2 448.0,286.5 475.0,268.6 502.0,306.2 529.0,280.2 556.0,306.0 583.0,297.3 610.0,269.3 637.0,299.0 664.0,267.5 691.0,275.1 718.0,303.3 745.0,253.3 772.0,280.5 799.0,282.8 826.0,272.0 853.0,296.7" fill="none" stroke="#2ca02c" stroke-width="2"/>
<circle cx="70.0" cy="297.1" r="3" fill="#2ca02c"/>
<circle cx="97.0" cy="301.1" r="3" fill="#2ca02c"/>
<circle cx="151.0" cy="298.1" r="3" fill="#2ca02c"/>
<circle cx="178.0" cy="298.0" r="3" fill="#2ca02c"/>
<circle cx="205.0" cy="303.1" r="3" fill="#2ca02c"/>
<circle cx="259.0" cy="274.4" r="3" fill="#2ca02c"/>
<circle cx="286.0" cy="281.5" r="3" fill="#2ca02c"/>
<circle cx="313.0" cy="241.9" r="3" fill="#2ca02c"/>
<circle cx="421.0" cy="243.2" r="3" fill="#2ca02c"/>
<circle cx="448.0" cy="286.5" r="3" fill="#2ca02c"/>
<circle cx="475.0" cy="268.6" r="3" fill="#2ca02c"/>
<circle cx="502.0" cy="306.2" r="3" fill="#2ca02c"/>
<circle cx="529.0" cy="280.2" r="3" fill="#2ca02c"/>
<circle cx="556.0" cy="306.0" r="3" fill="#2ca02c"/>
<circle cx="583.0" cy="297.3" r="3" fill="#2ca02c"/>
<circle cx="610.0" cy="269.3" r="3" fill="#2ca02c"/>
<circle cx="637.0" cy="299.0" r="3" fill="#2ca02c"/>
<circle cx="664.0" cy="267.5" r="3" fill="#2ca02c"/>
<circle cx="691.0" cy="275.1" r="3" fill="#2ca02c"/>
<circle cx="718.0" cy="303.3" r="3" fill="#2ca02c"/>
<circle cx="745.0" cy="253.3" r="3" fill="#2ca02c"/>
<circle cx="772.0" cy="280.5" r="3" fill="#2ca02c"/>
<circle cx="799.0" cy="282.8" r="3" fill="#2ca02c"/>
<circle cx="826.0" cy="272.0" r="3" fill="#2ca02c"/>
<circle cx="853.0" cy="296.7" r="3" fill="#2ca02c"/>
<rect x="475.0" y="358" width="10" height="10" fill="#2ca02c"/>
<text x="489.0" y="367" font-size="11" fill="#333">llm first sentence</text>
<polyline points="70.0,311.1 97.0,313.5 124.0,311.5 151.0,312.5 178.0,305.2 205.0,313.0 259.0,306.1 286.0,304.1 313.0,308.6 421.0,305.6 448.0,310.6 475.0,306.4 502.0,314.9 529.0,315.0 556.0,315.6 583.0,307.9 610.0,313.9 637.0,315.7 664.0,312.8 691.0,306.0 718.0,316.6 745.0,306.0 772.0,313.9 799.0,315.3 826.0,310.5 853.0,316.9" fill="none" stroke="#9467bd" stroke-width="2"/>
<circle cx="70.0" cy="311.1" r="3" fill="#9467bd"/>
<circle cx="97.0" cy="313.5" r="3" fill="#9467bd"/>
<circle cx="124.0" cy="311.5" r="3" fill="#9467bd"/>
<circle cx="151.0" cy="312.5" r="3" fill="#9467bd"/>
<circle cx="178.0" cy="305.2" r="3" fill="#9467bd"/>
<circle cx="205.0" cy="313.0" r="3" fill="#9467bd"/>
<circle cx="259.0" cy="306.1" r="3" fill="#9467bd"/>
<circle cx="286.0" cy="304.1" r="3" fill="#9467bd"/>
<circle cx="313.0" cy="308.6" r="3" fill="#9467bd"/>
<circle cx="421.0" cy="305.6" r="3" fill="#9467bd"/>
<circle cx="448.0" cy="310.6" r="3" fill="#9467bd"/>
<circle cx="475.0" cy="306.4" r="3" fill="#9467bd"/>
<circle cx="502.0" cy="314.9" r="3" fill="#9467bd"/>
<circle cx="529.0" cy="315.0" r="3" fill="#9467bd"/>
<circle cx="556.0" cy="315.6" r="3" fill="#9467bd"/>
<circle cx="583.0" cy="307.9" r="3" fill="#9467bd"/>
<circle cx="610.0" cy="313.9" r="3" fill="#9467bd"/>
<circle cx="637.0" cy="315.7" r="3" fill="#9467bd"/>
<circle cx="664.0" cy="312.8" r="3" fill="#9467bd"/>
<circle cx="691.0" cy="306.0" r="3" fill="#9467bd"/>
<circle cx="718.0" cy="316.6" r="3" fill="#9467bd"/>
<circle cx="745.0" cy="306.0" r="3" fill="#9467bd"/>
<circle cx="772.0" cy="313.9" r="3" fill="#9467bd"/>
<circle cx="799.0" cy="315.3" r="3" fill="#9467bd"/>
<circle cx="826.0" cy="310.5" r="3" fill="#9467bd"/>
<circle cx="853.0" cy="316.9" r="3" fill="#9467bd"/>
<rect x="610.0" y="358" width="10" height="10" fill="#9467bd"/>
<text x="624.0" y="367" font-size="11" fill="#333">lipsync first mouth</text>
<polyline points="313.0,318.5 421.0,314.7 448.0,318.1 475.0,318.0 502.0,318.8 529.0,312.5 556.0,318.8 583.0,314.5 610.0,318.9 637.0,318.7 664.0,311.9 691.0,318.2 718.0,318.5 745.0,311.1 772.0,317.5 799.0,317.9 826.0,316.7 853.0,318.9" fill="none" stroke="#8c564b" stroke-width="2"/>
<circle cx="313.0" cy="318.5" r="3" fill="#8c564b"/>
<circle cx="421.0" cy="314.7" r="3" fill="#8c564b"/>
<circle cx="448.0" cy="318.1" r="3" fill="#8c564b"/>
<circle cx="475.0" cy="318.0" r="3" fill="#8c564b"/>
<circle cx="502.0" cy="318.8" r="3" fill="#8c564b"/>
<circle cx="529.0" cy="312.5" r="3" fill="#8c564b"/>
<circle cx="556.0" cy="318.8" r="3" fill="#8c564b"/>
<circle cx="583.0" cy="314.5" r="3" fill="#8c564b"/>
<circle cx="610.0" cy="318.9" r="3" fill="#8c564b"/>
<circle cx="637.0" cy="318.7" r="3" fill="#8c564b"/>
<circle cx="664.0" cy="311.9" r="3" fill="#8c564b"/>
<circle cx="691.0" cy="318.2" r="3" fill="#8c564b"/>
<circle cx="718.0" cy="318.5" r="3" fill="#8c564b"/>
<circle cx="745.0" cy="311.1" r="3" fill="#8c564b"/>
<circle cx="772.0" cy="317.5" r="3" fill="#8c564b"/>
<circle cx="799.0" cy="317.9" r="3" fill="#8c564b"/>
<circle cx="826.0" cy="316.7" r="3" fill="#8c564b"/>
<circle cx="853.0" cy="318.9" r="3" fill="#8c564b"/>
<rect x="745.0" y="358" width="10" height="10" fill="#8c564b"/>
<text x="759.0" y="367" font-size="11" fill="#333">render tick p95</text>
</svg>
