<svg xmlns="http://www.w3.org/2000/svg" width="900" height="380" viewBox="0 0 900 380" font-family="sans-serif">
<rect width="900" height="380" fill="white"/>
<text x="70" y="24" font-size="16" fill="#333">Latency (ms, p50 unless noted) — lower is better</text>
<line x1="70" y1="324.0" x2="880" y2="324.0" stroke="#e5e5e5"/>
<text x="64" y="328.0" font-size="11" fill="#666" text-anchor="end">0ms</text>
<line x1="70" y1="268.0" x2="880" y2="268.0" stroke="#e5e5e5"/>
<text x="64" y="272.0" font-size="11" fill="#666" text-anchor="end">1481ms</text>
<line x1="70" y1="212.0" x2="880" y2="212.0" stroke="#e5e5e5"/>
<text x="64" y="216.0" font-size="11" fill="#666" text-anchor="end">2963ms</text>
<line x1="70" y1="156.0" x2="880" y2="156.0" stroke="#e5e5e5"/>
<text x="64" y="160.0" font-size="11" fill="#666" text-anchor="end">4444ms</text>
<line x1="70" y1="100.0" x2="880" y2="100.0" stroke="#e5e5e5"/>
<text x="64" y="104.0" font-size="11" fill="#666" text-anchor="end">5925ms</text>
<line x1="70" y1="44.0" x2="880" y2="44.0" stroke="#e5e5e5"/>
<text x="64" y="48.0" font-size="11" fill="#666" text-anchor="end">7407ms</text>
<text x="70.0" y="342" font-size="11" fill="#666" text-anchor="start">07-16 16:02</text>
<text x="475.0" y="342" font-size="11" fill="#666" text-anchor="middle">07-17 14:55</text>
<text x="880.0" y="342" font-size="11" fill="#666" text-anchor="end">07-17 20:21</text>
<polyline points="70.0,217.7 91.3,227.9 133.9,203.6 155.3,277.5 176.6,167.6 197.9,238.1 219.2,172.1 240.5,214.4 261.8,167.1 283.2,251.0 304.5,170.5 325.8,265.2 347.1,240.0 368.4,194.2 389.7,237.5 411.1,232.3 432.4,238.8 453.7,246.5 475.0,234.7 496.3,174.8 517.6,240.9 538.9,214.4 560.3,64.7 581.6,245.0 602.9,220.8 624.2,276.4 645.5,269.9 666.8,274.6 688.2,281.8 709.5,316.3 730.8,285.1 752.1,292.2 773.4,283.0 794.7,300.1 816.1,293.0 837.4,206.2 858.7,292.0 880.0,223.6" fill="none" stroke="#d62728" stroke-width="2"/>
<circle cx="70.0" cy="217.7" r="3" fill="#d62728"/>
<circle cx="91.3" cy="227.9" r="3" fill="#d62728"/>
<circle cx="133.9" cy="203.6" r="3" fill="#d62728"/>
<circle cx="155.3" cy="277.5" r="3" fill="#d62728"/>
<circle cx="176.6" cy="167.6" r="3" fill="#d62728"/>
<circle cx="197.9" cy="238.1" r="3" fill="#d62728"/>
<circle cx="219.2" cy="172.1" r="3" fill="#d62728"/>
<circle cx="240.5" cy="214.4" r="3" fill="#d62728"/>
<circle cx="261.8" cy="167.1" r="3" fill="#d62728"/>
<circle cx="283.2" cy="251.0" r="3" fill="#d62728"/>
<circle cx="304.5" cy="170.5" r="3" fill="#d62728"/>
<circle cx="325.8" cy="265.2" r="3" fill="#d62728"/>
<circle cx="347.1" cy="240.0" r="3" fill="#d62728"/>
<circle cx="368.4" cy="194.2" r="3" fill="#d62728"/>
<circle cx="389.7" cy="237.5" r="3" fill="#d62728"/>
<circle cx="411.1" cy="232.3" r="3" fill="#d62728"/>
<circle cx="432.4" cy="238.8" r="3" fill="#d62728"/>
<circle cx="453.7" cy="246.5" r="3" fill="#d62728"/>
<circle cx="475.0" cy="234.7" r="3" fill="#d62728"/>
<circle cx="496.3" cy="174.8" r="3" fill="#d62728"/>
<circle cx="517.6" cy="240.9" r="3" fill="#d62728"/>
<circle cx="538.9" cy="214.4" r="3" fill="#d62728"/>
<circle cx="560.3" cy="64.7" r="3" fill="#d62728"/>
<circle cx="581.6" cy="245.0" r="3" fill="#d62728"/>
<circle cx="602.9" cy="220.8" r="3" fill="#d62728"/>
<circle cx="624.2" cy="276.4" r="3" fill="#d62728"/>
<circle cx="645.5" cy="269.9" r="3" fill="#d62728"/>
<circle cx="666.8" cy="274.6" r="3" fill="#d62728"/>
<circle cx="688.2" cy="281.8" r="3" fill="#d62728"/>
<circle cx="709.5" cy="316.3" r="3" fill="#d62728"/>
<circle cx="730.8" cy="285.1" r="3" fill="#d62728"/>
<circle cx="752.1" cy="292.2" r="3" fill="#d62728"/>
<circle cx="773.4" cy="283.0" r="3" fill="#d62728"/>
<circle cx="794.7" cy="300.1" r="3" fill="#d62728"/>
<circle cx="816.1" cy="293.0" r="3" fill="#d62728"/>
<circle cx="837.4" cy="206.2" r="3" fill="#d62728"/>
<circle cx="858.7" cy="292.0" r="3" fill="#d62728"/>
<circle cx="880.0" cy="223.6" r="3" fill="#d62728"/>
<rect x="70.0" y="358" width="10" height="10" fill="#d62728"/>
<text x="84.0" y="367" font-size="11" fill="#333">first audio (e2e)</text>
<polyline points="261.8,215.3 347.1,199.1 368.4,224.4 389.7,176.9 411.1,267.6 432.4,239.5 453.7,283.5 475.0,244.5 496.3,260.4 517.6,246.2 538.9,245.6 560.3,201.1 581.6,299.9 602.9,252.0 624.2,317.9 645.5,317.8 666.8,317.5 688.2,318.0 752.1,318.3 773.4,317.4 794.7,317.8 816.1,318.6 837.4,317.8 858.7,318.2 880.0,317.3" fill="none" stroke="#1f77b4" stroke-width="2"/>
<circle cx="261.8" cy="215.3" r="3" fill="#1f77b4"/>
<circle cx="347.1" cy="199.1" r="3" fill="#1f77b4"/>
<circle cx="368.4" cy="224.4" r="3" fill="#1f77b4"/>
<circle cx="389.7" cy="176.9" r="3" fill="#1f77b4"/>
<circle cx="411.1" cy="267.6" r="3" fill="#1f77b4"/>
<circle cx="432.4" cy="239.5" r="3" fill="#1f77b4"/>
<circle cx="453.7" cy="283.5" r="3" fill="#1f77b4"/>
<circle cx="475.0" cy="244.5" r="3" fill="#1f77b4"/>
<circle cx="496.3" cy="260.4" r="3" fill="#1f77b4"/>
<circle cx="517.6" cy="246.2" r="3" fill="#1f77b4"/>
<circle cx="538.9" cy="245.6" r="3" fill="#1f77b4"/>
<circle cx="560.3" cy="201.1" r="3" fill="#1f77b4"/>
<circle cx="581.6" cy="299.9" r="3" fill="#1f77b4"/>
<circle cx="602.9" cy="252.0" r="3" fill="#1f77b4"/>
<circle cx="624.2" cy="317.9" r="3" fill="#1f77b4"/>
<circle cx="645.5" cy="317.8" r="3" fill="#1f77b4"/>
<circle cx="666.8" cy="317.5" r="3" fill="#1f77b4"/>
<circle cx="688.2" cy="318.0" r="3" fill="#1f77b4"/>
<circle cx="752.1" cy="318.3" r="3" fill="#1f77b4"/>
<circle cx="773.4" cy="317.4" r="3" fill="#1f77b4"/>
<circle cx="794.7" cy="317.8" r="3" fill="#1f77b4"/>
<circle cx="816.1" cy="318.6" r="3" fill="#1f77b4"/>
<circle cx="837.4" cy="317.8" r="3" fill="#1f77b4"/>
<circle cx="858.7" cy="318.2" r="3" fill="#1f77b4"/>
<circle cx="880.0" cy="317.3" r="3" fill="#1f77b4"/>
<rect x="205.0" y="358" width="10" height="10" fill="#1f77b4"/>
<text x="219.0" y="367" font-size="11" fill="#333">tts first chunk</text>
<polyline points="261.8,298.0 347.1,298.0 368.4,307.7 432.4,287.9 453.7,307.5 475.0,307.7 517.6,300.5 538.9,298.4 581.6,304.7 602.9,305.1 624.2,306.6 645.5,304.3 666.8,291.3 752.1,304.1 837.4,262.6" fill="none" stroke="#ff7f0e" stroke-width="2"/>
<circle cx="261.8" cy="298.0" r="3" fill="#ff7f0e"/>
<circle cx="347.1" cy="298.0" r="3" fill="#ff7f0e"/>
<circle cx="368.4" cy="307.7" r="3" fill="#ff7f0e"/>
<circle cx="432.4" cy="287.9" r="3" fill="#ff7f0e"/>
<circle cx="453.7" cy="307.5" r="3" fill="#ff7f0e"/>
<circle cx="475.0" cy="307.7" r="3" fill="#ff7f0e"/>
<circle cx="517.6" cy="300.5" r="3" fill="#ff7f0e"/>
<circle cx="538.9" cy="298.4" r="3" fill="#ff7f0e"/>
<circle cx="581.6" cy="304.7" r="3" fill="#ff7f0e"/>
<circle cx="602.9" cy="305.1" r="3" fill="#ff7f0e"/>
<circle cx="624.2" cy="306.6" r="3" fill="#ff7f0e"/>
<circle cx="645.5" cy="304.3" r="3" fill="#ff7f0e"/>
<circle cx="666.8" cy="291.3" r="3" fill="#ff7f0e"/>
<circle cx="752.1" cy="304.1" r="3" fill="#ff7f0e"/>
<circle cx="837.4" cy="262.6" r="3" fill="#ff7f0e"/>
<rect x="340.0" y="358" width="10" height="10" fill="#ff7f0e"/>
<text x="354.0" y="367" font-size="11" fill="#333">llm ttft</text>
<polyline points="70.0,297.1 91.3,301.1 133.9,298.1 155.3,298.0 176.6,303.1 219.2,274.4 240.5,281.5 261.8,241.9 347.1,243.2 368.4,286.5 389.7,268.6 411.1,306.2 432.4,280.2 453.7,306.0 475.0,297.3 496.3,269.3 517.6,299.0 538.9,267.5 560.3,275.1 581.6,303.3 602.9,253.3 624.2,280.5 645.5,282.8 666.8,272.0 688.2,296.7 752.1,299.6 773.4,301.6 794.7,312.5 816.1,300.5 837.4,169.3 858.7,296.2 880.0,240.3" fill="none" stroke="#2ca02c" stroke-width="2"/>
<circle cx="70.0" cy="297.1" r="3" fill="#2ca02c"/>
<circle cx="91.3" cy="301.1" r="3" fill="#2ca02c"/>
<circle cx="133.9" cy="298.1" r="3" fill="#2ca02c"/>
<circle cx="155.3" cy="298.0" r="3" fill="#2ca02c"/>
<circle cx="176.6" cy="303.1" r="3" fill="#2ca02c"/>
<circle cx="219.2" cy="274.4" r="3" fill="#2ca02c"/>
<circle cx="240.5" cy="281.5" r="3" fill="#2ca02c"/>
<circle cx="261.8" cy="241.9" r="3" fill="#2ca02c"/>
<circle cx="347.1" cy="243.2" r="3" fill="#2ca02c"/>
<circle cx="368.4" cy="286.5" r="3" fill="#2ca02c"/>
<circle cx="389.7" cy="268.6" r="3" fill="#2ca02c"/>
<circle cx="411.1" cy="306.2" r="3" fill="#2ca02c"/>
<circle cx="432.4" cy="280.2" r="3" fill="#2ca02c"/>
<circle cx="453.7" cy="306.0" r="3" fill="#2ca02c"/>
<circle cx="475.0" cy="297.3" r="3" fill="#2ca02c"/>
<circle cx="496.3" cy="269.3" r="3" fill="#2ca02c"/>
<circle cx="517.6" cy="299.0" r="3" fill="#2ca02c"/>
<circle cx="538.9" cy="267.5" r="3" fill="#2ca02c"/>
<circle cx="560.3" cy="275.1" r="3" fill="#2ca02c"/>
<circle cx="581.6" cy="303.3" r="3" fill="#2ca02c"/>
<circle cx="602.9" cy="253.3" r="3" fill="#2ca02c"/>
<circle cx="624.2" cy="280.5" r="3" fill="#2ca02c"/>
<circle cx="645.5" cy="282.8" r="3" fill="#2ca02c"/>
<circle cx="666.8" cy="272.0" r="3" fill="#2ca02c"/>
<circle cx="688.2" cy="296.7" r="3" fill="#2ca02c"/>
<circle cx="752.1" cy="299.6" r="3" fill="#2ca02c"/>
<circle cx="773.4" cy="301.6" r="3" fill="#2ca02c"/>
<circle cx="794.7" cy="312.5" r="3" fill="#2ca02c"/>
<circle cx="816.1" cy="300.5" r="3" fill="#2ca02c"/>
<circle cx="837.4" cy="169.3" r="3" fill="#2ca02c"/>
<circle cx="858.7" cy="296.2" r="3" fill="#2ca02c"/>
<circle cx="880.0" cy="240.3" r="3" fill="#2ca02c"/>
<rect x="475.0" y="358" width="10" height="10" fill="#2ca02c"/>
<text x="489.0" y="367" font-size="11" fill="#333">llm first sentence</text>
<polyline points="70.0,311.1 91.3,313.5 112.6,311.5 133.9,312.5 155.3,305.2 176.6,313.0 219.2,306.1 240.5,304.1 261.8,308.6 347.1,305.6 368.4,310.6 389.7,306.4 411.1,314.9 432.4,315.0 453.7,315.6 475.0,307.9 496.3,313.9 517.6,315.7 538.9,312.8 560.3,306.0 581.6,316.6 602.9,306.0 624.2,313.9 645.5,315.3 666.8,310.5 688.2,316.9 752.1,316.3 773.4,314.8 794.7,314.8 816.1,315.1 837.4,315.2 858.7,314.1 880.0,311.9" fill="none" stroke="#9467bd" stroke-width="2"/>
<circle cx="70.0" cy="311.1" r="3" fill="#9467bd"/>
<circle cx="91.3" cy="313.5" r="3" fill="#9467bd"/>
<circle cx="112.6" cy="311.5" r="3" fill="#9467bd"/>
<circle cx="133.9" cy="312.5" r="3" fill="#9467bd"/>
<circle cx="155.3" cy="305.2" r="3" fill="#9467bd"/>
<circle cx="176.6" cy="313.0" r="3" fill="#9467bd"/>
<circle cx="219.2" cy="306.1" r="3" fill="#9467bd"/>
<circle cx="240.5" cy="304.1" r="3" fill="#9467bd"/>
<circle cx="261.8" cy="308.6" r="3" fill="#9467bd"/>
<circle cx="347.1" cy="305.6" r="3" fill="#9467bd"/>
<circle cx="368.4" cy="310.6" r="3" fill="#9467bd"/>
<circle cx="389.7" cy="306.4" r="3" fill="#9467bd"/>
<circle cx="411.1" cy="314.9" r="3" fill="#9467bd"/>
<circle cx="432.4" cy="315.0" r="3" fill="#9467bd"/>
<circle cx="453.7" cy="315.6" r="3" fill="#9467bd"/>
<circle cx="475.0" cy="307.9" r="3" fill="#9467bd"/>
<circle cx="496.3" cy="313.9" r="3" fill="#9467bd"/>
<circle cx="517.6" cy="315.7" r="3" fill="#9467bd"/>
<circle cx="538.9" cy="312.8" r="3" fill="#9467bd"/>
<circle cx="560.3" cy="306.0" r="3" fill="#9467bd"/>
<circle cx="581.6" cy="316.6" r="3" fill="#9467bd"/>
<circle cx="602.9" cy="306.0" r="3" fill="#9467bd"/>
<circle cx="624.2" cy="313.9" r="3" fill="#9467bd"/>
<circle cx="645.5" cy="315.3" r="3" fill="#9467bd"/>
<circle cx="666.8" cy="310.5" r="3" fill="#9467bd"/>
<circle cx="688.2" cy="316.9" r="3" fill="#9467bd"/>
<circle cx="752.1" cy="316.3" r="3" fill="#9467bd"/>
<circle cx="773.4" cy="314.8" r="3" fill="#9467bd"/>
<circle cx="794.7" cy="314.8" r="3" fill="#9467bd"/>
<circle cx="816.1" cy="315.1" r="3" fill="#9467bd"/>
<circle cx="837.4" cy="315.2" r="3" fill="#9467bd"/>
<circle cx="858.7" cy="314.1" r="3" fill="#9467bd"/>
<circle cx="880.0" cy="311.9" r="3" fill="#9467bd"/>
<rect x="610.0" y="358" width="10" height="10" fill="#9467bd"/>
<text x="624.0" y="367" font-size="11" fill="#333">lipsync first mouth</text>
<polyline points="261.8,318.5 347.1,314.7 368.4,318.1 389.7,318.0 411.1,318.8 432.4,312.5 453.7,318.8 475.0,314.5 496.3,318.9 517.6,318.7 538.9,311.9 560.3,318.2 581.6,318.5 602.9,311.1 624.2,317.5 645.5,317.9 666.8,316.7 688.2,318.9 752.1,318.7 773.4,318.6 794.7,318.2 816.1,318.2 837.4,318.6 858.7,317.8 880.0,318.8" fill="none" stroke="#8c564b" stroke-width="2"/>
<circle cx="261.8" cy="318.5" r="3" fill="#8c564b"/>
<circle cx="347.1" cy="314.7" r="3" fill="#8c564b"/>
<circle cx="368.4" cy="318.1" r="3" fill="#8c564b"/>
<circle cx="389.7" cy="318.0" r="3" fill="#8c564b"/>
<circle cx="411.1" cy="318.8" r="3" fill="#8c564b"/>
<circle cx="432.4" cy="312.5" r="3" fill="#8c564b"/>
<circle cx="453.7" cy="318.8" r="3" fill="#8c564b"/>
<circle cx="475.0" cy="314.5" r="3" fill="#8c564b"/>
<circle cx="496.3" cy="318.9" r="3" fill="#8c564b"/>
<circle cx="517.6" cy="318.7" r="3" fill="#8c564b"/>
<circle cx="538.9" cy="311.9" r="3" fill="#8c564b"/>
<circle cx="560.3" cy="318.2" r="3" fill="#8c564b"/>
<circle cx="581.6" cy="318.5" r="3" fill="#8c564b"/>
<circle cx="602.9" cy="311.1" r="3" fill="#8c564b"/>
<circle cx="624.2" cy="317.5" r="3" fill="#8c564b"/>
<circle cx="645.5" cy="317.9" r="3" fill="#8c564b"/>
<circle cx="666.8" cy="316.7" r="3" fill="#8c564b"/>
<circle cx="688.2" cy="318.9" r="3" fill="#8c564b"/>
<circle cx="752.1" cy="318.7" r="3" fill="#8c564b"/>
<circle cx="773.4" cy="318.6" r="3" fill="#8c564b"/>
<circle cx="794.7" cy="318.2" r="3" fill="#8c564b"/>
<circle cx="816.1" cy="318.2" r="3" fill="#8c564b"/>
<circle cx="837.4" cy="318.6" r="3" fill="#8c564b"/>
<circle cx="858.7" cy="317.8" r="3" fill="#8c564b"/>
<circle cx="880.0" cy="318.8" r="3" fill="#8c564b"/>
<rect x="745.0" y="358" width="10" height="10" fill="#8c564b"/>
<text x="759.0" y="367" font-size="11" fill="#333">render tick p95</text>
</svg>
