<svg xmlns="http://www.w3.org/2000/svg" width="900" height="380" viewBox="0 0 900 380" font-family="sans-serif">
<rect width="900" height="380" fill="white"/>
<text x="70" y="24" font-size="16" fill="#333">Latency (ms, p50 unless noted) — lower is better</text>
<line x1="70" y1="324.0" x2="880" y2="324.0" stroke="#e5e5e5"/>
<text x="64" y="328.0" font-size="11" fill="#666" text-anchor="end">0ms</text>
<line x1="70" y1="268.0" x2="880" y2="268.0" stroke="#e5e5e5"/>
<text x="64" y="272.0" font-size="11" fill="#666" text-anchor="end">897ms</text>
<line x1="70" y1="212.0" x2="880" y2="212.0" stroke="#e5e5e5"/>
<text x="64" y="216.0" font-size="11" fill="#666" text-anchor="end">1793ms</text>
<line x1="70" y1="156.0" x2="880" y2="156.0" stroke="#e5e5e5"/>
<text x="64" y="160.0" font-size="11" fill="#666" text-anchor="end">2690ms</text>
<line x1="70" y1="100.0" x2="880" y2="100.0" stroke="#e5e5e5"/>
<text x="64" y="104.0" font-size="11" fill="#666" text-anchor="end">3586ms</text>
<line x1="70" y1="44.0" x2="880" y2="44.0" stroke="#e5e5e5"/>
<text x="64" y="48.0" font-size="11" fill="#666" text-anchor="end">4483ms</text>
<text x="70.0" y="342" font-size="11" fill="#666" text-anchor="start">07-16 16:02</text>
<text x="475.0" y="342" font-size="11" fill="#666" text-anchor="middle">07-16 21:38</text>
<text x="880.0" y="342" font-size="11" fill="#666" text-anchor="end">07-17 08:17</text>
<polyline points="70.0,148.4 127.9,165.2 243.6,125.1 301.4,247.2 359.3,65.6 417.1,182.0 475.0,73.1 532.9,142.9 590.7,64.7 648.6,203.4 706.4,70.4 764.3,226.9 822.1,185.2 880.0,109.6" fill="none" stroke="#d62728" stroke-width="2"/>
<circle cx="70.0" cy="148.4" r="3" fill="#d62728"/>
<circle cx="127.9" cy="165.2" r="3" fill="#d62728"/>
<circle cx="243.6" cy="125.1" r="3" fill="#d62728"/>
<circle cx="301.4" cy="247.2" r="3" fill="#d62728"/>
<circle cx="359.3" cy="65.6" r="3" fill="#d62728"/>
<circle cx="417.1" cy="182.0" r="3" fill="#d62728"/>
<circle cx="475.0" cy="73.1" r="3" fill="#d62728"/>
<circle cx="532.9" cy="142.9" r="3" fill="#d62728"/>
<circle cx="590.7" cy="64.7" r="3" fill="#d62728"/>
<circle cx="648.6" cy="203.4" r="3" fill="#d62728"/>
<circle cx="706.4" cy="70.4" r="3" fill="#d62728"/>
<circle cx="764.3" cy="226.9" r="3" fill="#d62728"/>
<circle cx="822.1" cy="185.2" r="3" fill="#d62728"/>
<circle cx="880.0" cy="109.6" r="3" fill="#d62728"/>
<rect x="70.0" y="358" width="10" height="10" fill="#d62728"/>
<text x="84.0" y="367" font-size="11" fill="#333">first audio (e2e)</text>
<polyline points="590.7,144.3 822.1,117.7 880.0,159.4" fill="none" stroke="#1f77b4" stroke-width="2"/>
<circle cx="590.7" cy="144.3" r="3" fill="#1f77b4"/>
<circle cx="822.1" cy="117.7" r="3" fill="#1f77b4"/>
<circle cx="880.0" cy="159.4" r="3" fill="#1f77b4"/>
<rect x="205.0" y="358" width="10" height="10" fill="#1f77b4"/>
<text x="219.0" y="367" font-size="11" fill="#333">tts first chunk</text>
<polyline points="590.7,281.0 822.1,281.0 880.0,297.1" fill="none" stroke="#ff7f0e" stroke-width="2"/>
<circle cx="590.7" cy="281.0" r="3" fill="#ff7f0e"/>
<circle cx="822.1" cy="281.0" r="3" fill="#ff7f0e"/>
<circle cx="880.0" cy="297.1" r="3" fill="#ff7f0e"/>
<rect x="340.0" y="358" width="10" height="10" fill="#ff7f0e"/>
<text x="354.0" y="367" font-size="11" fill="#333">llm ttft</text>
<polyline points="70.0,279.6 127.9,286.2 243.6,281.2 301.4,281.1 359.3,289.5 475.0,242.1 532.9,253.8 590.7,188.4 822.1,190.5 880.0,262.0" fill="none" stroke="#2ca02c" stroke-width="2"/>
<circle cx="70.0" cy="279.6" r="3" fill="#2ca02c"/>
<circle cx="127.9" cy="286.2" r="3" fill="#2ca02c"/>
<circle cx="243.6" cy="281.2" r="3" fill="#2ca02c"/>
<circle cx="301.4" cy="281.1" r="3" fill="#2ca02c"/>
<circle cx="359.3" cy="289.5" r="3" fill="#2ca02c"/>
<circle cx="475.0" cy="242.1" r="3" fill="#2ca02c"/>
<circle cx="532.9" cy="253.8" r="3" fill="#2ca02c"/>
<circle cx="590.7" cy="188.4" r="3" fill="#2ca02c"/>
<circle cx="822.1" cy="190.5" r="3" fill="#2ca02c"/>
<circle cx="880.0" cy="262.0" r="3" fill="#2ca02c"/>
<rect x="475.0" y="358" width="10" height="10" fill="#2ca02c"/>
<text x="489.0" y="367" font-size="11" fill="#333">llm first sentence</text>
<polyline points="70.0,302.7 127.9,306.6 185.7,303.4 243.6,305.0 301.4,293.0 359.3,305.8 475.0,294.4 532.9,291.1 590.7,298.6 822.1,293.7 880.0,301.9" fill="none" stroke="#9467bd" stroke-width="2"/>
<circle cx="70.0" cy="302.7" r="3" fill="#9467bd"/>
<circle cx="127.9" cy="306.6" r="3" fill="#9467bd"/>
<circle cx="185.7" cy="303.4" r="3" fill="#9467bd"/>
<circle cx="243.6" cy="305.0" r="3" fill="#9467bd"/>
<circle cx="301.4" cy="293.0" r="3" fill="#9467bd"/>
<circle cx="359.3" cy="305.8" r="3" fill="#9467bd"/>
<circle cx="475.0" cy="294.4" r="3" fill="#9467bd"/>
<circle cx="532.9" cy="291.1" r="3" fill="#9467bd"/>
<circle cx="590.7" cy="298.6" r="3" fill="#9467bd"/>
<circle cx="822.1" cy="293.7" r="3" fill="#9467bd"/>
<circle cx="880.0" cy="301.9" r="3" fill="#9467bd"/>
<rect x="610.0" y="358" width="10" height="10" fill="#9467bd"/>
<text x="624.0" y="367" font-size="11" fill="#333">lipsync first mouth</text>
<polyline points="590.7,314.9 822.1,308.6 880.0,314.2" fill="none" stroke="#8c564b" stroke-width="2"/>
<circle cx="590.7" cy="314.9" r="3" fill="#8c564b"/>
<circle cx="822.1" cy="308.6" r="3" fill="#8c564b"/>
<circle cx="880.0" cy="314.2" r="3" fill="#8c564b"/>
<rect x="745.0" y="358" width="10" height="10" fill="#8c564b"/>
<text x="759.0" y="367" font-size="11" fill="#333">render tick p95</text>
</svg>
