<svg xmlns="http://www.w3.org/2000/svg" width="900" height="380" viewBox="0 0 900 380" font-family="sans-serif">
<rect width="900" height="380" fill="white"/>
<text x="70" y="24" font-size="16" fill="#333">Latency (ms, p50 unless noted) — lower is better</text>
<line x1="70" y1="324.0" x2="880" y2="324.0" stroke="#e5e5e5"/>
<text x="64" y="328.0" font-size="11" fill="#666" text-anchor="end">0ms</text>
<line x1="70" y1="268.0" x2="880" y2="268.0" stroke="#e5e5e5"/>
<text x="64" y="272.0" font-size="11" fill="#666" text-anchor="end">1481ms</text>
<line x1="70" y1="212.0" x2="880" y2="212.0" stroke="#e5e5e5"/>
<text x="64" y="216.0" font-size="11" fill="#666" text-anchor="end">2963ms</text>
<line x1="70" y1="156.0" x2="880" y2="156.0" stroke="#e5e5e5"/>
<text x="64" y="160.0" font-size="11" fill="#666" text-anchor="end">4444ms</text>
<line x1="70" y1="100.0" x2="880" y2="100.0" stroke="#e5e5e5"/>
<text x="64" y="104.0" font-size="11" fill="#666" text-anchor="end">5925ms</text>
<line x1="70" y1="44.0" x2="880" y2="44.0" stroke="#e5e5e5"/>
<text x="64" y="48.0" font-size="11" fill="#666" text-anchor="end">7407ms</text>
<text x="70.0" y="342" font-size="11" fill="#666" text-anchor="start">07-16 16:02</text>
<text x="475.0" y="342" font-size="11" fill="#666" text-anchor="middle">07-17 15:23</text>
<text x="880.0" y="342" font-size="11" fill="#666" text-anchor="end">07-17 22:02</text>
<polyline points="70.0,217.7 88.4,227.9 125.2,203.6 143.6,277.5 162.0,167.6 180.5,238.1 198.9,172.1 217.3,214.4 235.7,167.1 254.1,251.0 272.5,170.5 290.9,265.2 309.3,240.0 327.7,194.2 346.1,237.5 364.5,232.3 383.0,238.8 401.4,246.5 419.8,234.7 438.2,174.8 456.6,240.9 475.0,214.4 493.4,64.7 511.8,245.0 530.2,220.8 548.6,276.4 567.0,269.9 585.5,274.6 603.9,281.8 622.3,316.3 640.7,285.1 659.1,292.2 677.5,283.0 695.9,300.1 714.3,293.0 732.7,206.2 751.1,292.0 769.5,223.6 788.0,294.7 806.4,296.4 824.8,260.6 843.2,292.8 861.6,290.2 880.0,290.1" fill="none" stroke="#d62728" stroke-width="2"/>
<circle cx="70.0" cy="217.7" r="3" fill="#d62728"/>
<circle cx="88.4" cy="227.9" r="3" fill="#d62728"/>
<circle cx="125.2" cy="203.6" r="3" fill="#d62728"/>
<circle cx="143.6" cy="277.5" r="3" fill="#d62728"/>
<circle cx="162.0" cy="167.6" r="3" fill="#d62728"/>
<circle cx="180.5" cy="238.1" r="3" fill="#d62728"/>
<circle cx="198.9" cy="172.1" r="3" fill="#d62728"/>
<circle cx="217.3" cy="214.4" r="3" fill="#d62728"/>
<circle cx="235.7" cy="167.1" r="3" fill="#d62728"/>
<circle cx="254.1" cy="251.0" r="3" fill="#d62728"/>
<circle cx="272.5" cy="170.5" r="3" fill="#d62728"/>
<circle cx="290.9" cy="265.2" r="3" fill="#d62728"/>
<circle cx="309.3" cy="240.0" r="3" fill="#d62728"/>
<circle cx="327.7" cy="194.2" r="3" fill="#d62728"/>
<circle cx="346.1" cy="237.5" r="3" fill="#d62728"/>
<circle cx="364.5" cy="232.3" r="3" fill="#d62728"/>
<circle cx="383.0" cy="238.8" r="3" fill="#d62728"/>
<circle cx="401.4" cy="246.5" r="3" fill="#d62728"/>
<circle cx="419.8" cy="234.7" r="3" fill="#d62728"/>
<circle cx="438.2" cy="174.8" r="3" fill="#d62728"/>
<circle cx="456.6" cy="240.9" r="3" fill="#d62728"/>
<circle cx="475.0" cy="214.4" r="3" fill="#d62728"/>
<circle cx="493.4" cy="64.7" r="3" fill="#d62728"/>
<circle cx="511.8" cy="245.0" r="3" fill="#d62728"/>
<circle cx="530.2" cy="220.8" r="3" fill="#d62728"/>
<circle cx="548.6" cy="276.4" r="3" fill="#d62728"/>
<circle cx="567.0" cy="269.9" r="3" fill="#d62728"/>
<circle cx="585.5" cy="274.6" r="3" fill="#d62728"/>
<circle cx="603.9" cy="281.8" r="3" fill="#d62728"/>
<circle cx="622.3" cy="316.3" r="3" fill="#d62728"/>
<circle cx="640.7" cy="285.1" r="3" fill="#d62728"/>
<circle cx="659.1" cy="292.2" r="3" fill="#d62728"/>
<circle cx="677.5" cy="283.0" r="3" fill="#d62728"/>
<circle cx="695.9" cy="300.1" r="3" fill="#d62728"/>
<circle cx="714.3" cy="293.0" r="3" fill="#d62728"/>
<circle cx="732.7" cy="206.2" r="3" fill="#d62728"/>
<circle cx="751.1" cy="292.0" r="3" fill="#d62728"/>
<circle cx="769.5" cy="223.6" r="3" fill="#d62728"/>
<circle cx="788.0" cy="294.7" r="3" fill="#d62728"/>
<circle cx="806.4" cy="296.4" r="3" fill="#d62728"/>
<circle cx="824.8" cy="260.6" r="3" fill="#d62728"/>
<circle cx="843.2" cy="292.8" r="3" fill="#d62728"/>
<circle cx="861.6" cy="290.2" r="3" fill="#d62728"/>
<circle cx="880.0" cy="290.1" r="3" fill="#d62728"/>
<rect x="70.0" y="358" width="10" height="10" fill="#d62728"/>
<text x="84.0" y="367" font-size="11" fill="#333">first audio (e2e)</text>
<polyline points="235.7,215.3 309.3,199.1 327.7,224.4 346.1,176.9 364.5,267.6 383.0,239.5 401.4,283.5 419.8,244.5 438.2,260.4 456.6,246.2 475.0,245.6 493.4,201.1 511.8,299.9 530.2,252.0 548.6,317.9 567.0,317.8 585.5,317.5 603.9,318.0 659.1,318.3 677.5,317.4 695.9,317.8 714.3,318.6 732.7,317.8 751.1,318.2 769.5,317.3 788.0,317.7 806.4,319.0 824.8,318.6 843.2,317.0 861.6,317.8 880.0,318.5" fill="none" stroke="#1f77b4" stroke-width="2"/>
<circle cx="235.7" cy="215.3" r="3" fill="#1f77b4"/>
<circle cx="309.3" cy="199.1" r="3" fill="#1f77b4"/>
<circle cx="327.7" cy="224.4" r="3" fill="#1f77b4"/>
<circle cx="346.1" cy="176.9" r="3" fill="#1f77b4"/>
<circle cx="364.5" cy="267.6" r="3" fill="#1f77b4"/>
<circle cx="383.0" cy="239.5" r="3" fill="#1f77b4"/>
<circle cx="401.4" cy="283.5" r="3" fill="#1f77b4"/>
<circle cx="419.8" cy="244.5" r="3" fill="#1f77b4"/>
<circle cx="438.2" cy="260.4" r="3" fill="#1f77b4"/>
<circle cx="456.6" cy="246.2" r="3" fill="#1f77b4"/>
<circle cx="475.0" cy="245.6" r="3" fill="#1f77b4"/>
<circle cx="493.4" cy="201.1" r="3" fill="#1f77b4"/>
<circle cx="511.8" cy="299.9" r="3" fill="#1f77b4"/>
<circle cx="530.2" cy="252.0" r="3" fill="#1f77b4"/>
<circle cx="548.6" cy="317.9" r="3" fill="#1f77b4"/>
<circle cx="567.0" cy="317.8" r="3" fill="#1f77b4"/>
<circle cx="585.5" cy="317.5" r="3" fill="#1f77b4"/>
<circle cx="603.9" cy="318.0" r="3" fill="#1f77b4"/>
<circle cx="659.1" cy="318.3" r="3" fill="#1f77b4"/>
<circle cx="677.5" cy="317.4" r="3" fill="#1f77b4"/>
<circle cx="695.9" cy="317.8" r="3" fill="#1f77b4"/>
<circle cx="714.3" cy="318.6" r="3" fill="#1f77b4"/>
<circle cx="732.7" cy="317.8" r="3" fill="#1f77b4"/>
<circle cx="751.1" cy="318.2" r="3" fill="#1f77b4"/>
<circle cx="769.5" cy="317.3" r="3" fill="#1f77b4"/>
<circle cx="788.0" cy="317.7" r="3" fill="#1f77b4"/>
<circle cx="806.4" cy="319.0" r="3" fill="#1f77b4"/>
<circle cx="824.8" cy="318.6" r="3" fill="#1f77b4"/>
<circle cx="843.2" cy="317.0" r="3" fill="#1f77b4"/>
<circle cx="861.6" cy="317.8" r="3" fill="#1f77b4"/>
<circle cx="880.0" cy="318.5" r="3" fill="#1f77b4"/>
<rect x="205.0" y="358" width="10" height="10" fill="#1f77b4"/>
<text x="219.0" y="367" font-size="11" fill="#333">tts first chunk</text>
<polyline points="235.7,298.0 309.3,298.0 327.7,307.7 383.0,287.9 401.4,307.5 419.8,307.7 456.6,300.5 475.0,298.4 511.8,304.7 530.2,305.1 548.6,306.6 567.0,304.3 585.5,291.3 659.1,304.1 732.7,262.6 788.0,311.0 806.4,312.2 824.8,308.2 880.0,308.0" fill="none" stroke="#ff7f0e" stroke-width="2"/>
<circle cx="235.7" cy="298.0" r="3" fill="#ff7f0e"/>
<circle cx="309.3" cy="298.0" r="3" fill="#ff7f0e"/>
<circle cx="327.7" cy="307.7" r="3" fill="#ff7f0e"/>
<circle cx="383.0" cy="287.9" r="3" fill="#ff7f0e"/>
<circle cx="401.4" cy="307.5" r="3" fill="#ff7f0e"/>
<circle cx="419.8" cy="307.7" r="3" fill="#ff7f0e"/>
<circle cx="456.6" cy="300.5" r="3" fill="#ff7f0e"/>
<circle cx="475.0" cy="298.4" r="3" fill="#ff7f0e"/>
<circle cx="511.8" cy="304.7" r="3" fill="#ff7f0e"/>
<circle cx="530.2" cy="305.1" r="3" fill="#ff7f0e"/>
<circle cx="548.6" cy="306.6" r="3" fill="#ff7f0e"/>
<circle cx="567.0" cy="304.3" r="3" fill="#ff7f0e"/>
<circle cx="585.5" cy="291.3" r="3" fill="#ff7f0e"/>
<circle cx="659.1" cy="304.1" r="3" fill="#ff7f0e"/>
<circle cx="732.7" cy="262.6" r="3" fill="#ff7f0e"/>
<circle cx="788.0" cy="311.0" r="3" fill="#ff7f0e"/>
<circle cx="806.4" cy="312.2" r="3" fill="#ff7f0e"/>
<circle cx="824.8" cy="308.2" r="3" fill="#ff7f0e"/>
<circle cx="880.0" cy="308.0" r="3" fill="#ff7f0e"/>
<rect x="340.0" y="358" width="10" height="10" fill="#ff7f0e"/>
<text x="354.0" y="367" font-size="11" fill="#333">llm ttft</text>
<polyline points="70.0,297.1 88.4,301.1 125.2,298.1 143.6,298.0 162.0,303.1 198.9,274.4 217.3,281.5 235.7,241.9 309.3,243.2 327.7,286.5 346.1,268.6 364.5,306.2 383.0,280.2 401.4,306.0 419.8,297.3 438.2,269.3 456.6,299.0 475.0,267.5 493.4,275.1 511.8,303.3 530.2,253.3 548.6,280.5 567.0,282.8 585.5,272.0 603.9,296.7 659.1,299.6 677.5,301.6 695.9,312.5 714.3,300.5 732.7,169.3 751.1,296.2 769.5,240.3 788.0,307.0 806.4,310.0 824.8,275.8 843.2,305.7 861.6,304.6 880.0,303.7" fill="none" stroke="#2ca02c" stroke-width="2"/>
<circle cx="70.0" cy="297.1" r="3" fill="#2ca02c"/>
<circle cx="88.4" cy="301.1" r="3" fill="#2ca02c"/>
<circle cx="125.2" cy="298.1" r="3" fill="#2ca02c"/>
<circle cx="143.6" cy="298.0" r="3" fill="#2ca02c"/>
<circle cx="162.0" cy="303.1" r="3" fill="#2ca02c"/>
<circle cx="198.9" cy="274.4" r="3" fill="#2ca02c"/>
<circle cx="217.3" cy="281.5" r="3" fill="#2ca02c"/>
<circle cx="235.7" cy="241.9" r="3" fill="#2ca02c"/>
<circle cx="309.3" cy="243.2" r="3" fill="#2ca02c"/>
<circle cx="327.7" cy="286.5" r="3" fill="#2ca02c"/>
<circle cx="346.1" cy="268.6" r="3" fill="#2ca02c"/>
<circle cx="364.5" cy="306.2" r="3" fill="#2ca02c"/>
<circle cx="383.0" cy="280.2" r="3" fill="#2ca02c"/>
<circle cx="401.4" cy="306.0" r="3" fill="#2ca02c"/>
<circle cx="419.8" cy="297.3" r="3" fill="#2ca02c"/>
<circle cx="438.2" cy="269.3" r="3" fill="#2ca02c"/>
<circle cx="456.6" cy="299.0" r="3" fill="#2ca02c"/>
<circle cx="475.0" cy="267.5" r="3" fill="#2ca02c"/>
<circle cx="493.4" cy="275.1" r="3" fill="#2ca02c"/>
<circle cx="511.8" cy="303.3" r="3" fill="#2ca02c"/>
<circle cx="530.2" cy="253.3" r="3" fill="#2ca02c"/>
<circle cx="548.6" cy="280.5" r="3" fill="#2ca02c"/>
<circle cx="567.0" cy="282.8" r="3" fill="#2ca02c"/>
<circle cx="585.5" cy="272.0" r="3" fill="#2ca02c"/>
<circle cx="603.9" cy="296.7" r="3" fill="#2ca02c"/>
<circle cx="659.1" cy="299.6" r="3" fill="#2ca02c"/>
<circle cx="677.5" cy="301.6" r="3" fill="#2ca02c"/>
<circle cx="695.9" cy="312.5" r="3" fill="#2ca02c"/>
<circle cx="714.3" cy="300.5" r="3" fill="#2ca02c"/>
<circle cx="732.7" cy="169.3" r="3" fill="#2ca02c"/>
<circle cx="751.1" cy="296.2" r="3" fill="#2ca02c"/>
<circle cx="769.5" cy="240.3" r="3" fill="#2ca02c"/>
<circle cx="788.0" cy="307.0" r="3" fill="#2ca02c"/>
<circle cx="806.4" cy="310.0" r="3" fill="#2ca02c"/>
<circle cx="824.8" cy="275.8" r="3" fill="#2ca02c"/>
<circle cx="843.2" cy="305.7" r="3" fill="#2ca02c"/>
<circle cx="861.6" cy="304.6" r="3" fill="#2ca02c"/>
<circle cx="880.0" cy="303.7" r="3" fill="#2ca02c"/>
<rect x="475.0" y="358" width="10" height="10" fill="#2ca02c"/>
<text x="489.0" y="367" font-size="11" fill="#333">llm first sentence</text>
<polyline points="70.0,311.1 88.4,313.5 106.8,311.5 125.2,312.5 143.6,305.2 162.0,313.0 198.9,306.1 217.3,304.1 235.7,308.6 309.3,305.6 327.7,310.6 346.1,306.4 364.5,314.9 383.0,315.0 401.4,315.6 419.8,307.9 438.2,313.9 456.6,315.7 475.0,312.8 493.4,306.0 511.8,316.6 530.2,306.0 548.6,313.9 567.0,315.3 585.5,310.5 603.9,316.9 659.1,316.3 677.5,314.8 695.9,314.8 714.3,315.1 732.7,315.2 751.1,314.1 769.5,311.9 788.0,316.5 806.4,316.1 824.8,316.0 843.2,312.9 861.6,314.0 880.0,316.3" fill="none" stroke="#9467bd" stroke-width="2"/>
<circle cx="70.0" cy="311.1" r="3" fill="#9467bd"/>
<circle cx="88.4" cy="313.5" r="3" fill="#9467bd"/>
<circle cx="106.8" cy="311.5" r="3" fill="#9467bd"/>
<circle cx="125.2" cy="312.5" r="3" fill="#9467bd"/>
<circle cx="143.6" cy="305.2" r="3" fill="#9467bd"/>
<circle cx="162.0" cy="313.0" r="3" fill="#9467bd"/>
<circle cx="198.9" cy="306.1" r="3" fill="#9467bd"/>
<circle cx="217.3" cy="304.1" r="3" fill="#9467bd"/>
<circle cx="235.7" cy="308.6" r="3" fill="#9467bd"/>
<circle cx="309.3" cy="305.6" r="3" fill="#9467bd"/>
<circle cx="327.7" cy="310.6" r="3" fill="#9467bd"/>
<circle cx="346.1" cy="306.4" r="3" fill="#9467bd"/>
<circle cx="364.5" cy="314.9" r="3" fill="#9467bd"/>
<circle cx="383.0" cy="315.0" r="3" fill="#9467bd"/>
<circle cx="401.4" cy="315.6" r="3" fill="#9467bd"/>
<circle cx="419.8" cy="307.9" r="3" fill="#9467bd"/>
<circle cx="438.2" cy="313.9" r="3" fill="#9467bd"/>
<circle cx="456.6" cy="315.7" r="3" fill="#9467bd"/>
<circle cx="475.0" cy="312.8" r="3" fill="#9467bd"/>
<circle cx="493.4" cy="306.0" r="3" fill="#9467bd"/>
<circle cx="511.8" cy="316.6" r="3" fill="#9467bd"/>
<circle cx="530.2" cy="306.0" r="3" fill="#9467bd"/>
<circle cx="548.6" cy="313.9" r="3" fill="#9467bd"/>
<circle cx="567.0" cy="315.3" r="3" fill="#9467bd"/>
<circle cx="585.5" cy="310.5" r="3" fill="#9467bd"/>
<circle cx="603.9" cy="316.9" r="3" fill="#9467bd"/>
<circle cx="659.1" cy="316.3" r="3" fill="#9467bd"/>
<circle cx="677.5" cy="314.8" r="3" fill="#9467bd"/>
<circle cx="695.9" cy="314.8" r="3" fill="#9467bd"/>
<circle cx="714.3" cy="315.1" r="3" fill="#9467bd"/>
<circle cx="732.7" cy="315.2" r="3" fill="#9467bd"/>
<circle cx="751.1" cy="314.1" r="3" fill="#9467bd"/>
<circle cx="769.5" cy="311.9" r="3" fill="#9467bd"/>
<circle cx="788.0" cy="316.5" r="3" fill="#9467bd"/>
<circle cx="806.4" cy="316.1" r="3" fill="#9467bd"/>
<circle cx="824.8" cy="316.0" r="3" fill="#9467bd"/>
<circle cx="843.2" cy="312.9" r="3" fill="#9467bd"/>
<circle cx="861.6" cy="314.0" r="3" fill="#9467bd"/>
<circle cx="880.0" cy="316.3" r="3" fill="#9467bd"/>
<rect x="610.0" y="358" width="10" height="10" fill="#9467bd"/>
<text x="624.0" y="367" font-size="11" fill="#333">lipsync first mouth</text>
<polyline points="235.7,318.5 309.3,314.7 327.7,318.1 346.1,318.0 364.5,318.8 383.0,312.5 401.4,318.8 419.8,314.5 438.2,318.9 456.6,318.7 475.0,311.9 493.4,318.2 511.8,318.5 530.2,311.1 548.6,317.5 567.0,317.9 585.5,316.7 603.9,318.9 659.1,318.7 677.5,318.6 695.9,318.2 714.3,318.2 732.7,318.6 751.1,317.8 769.5,318.8 788.0,318.3 806.4,318.3 824.8,319.3 843.2,315.9 861.6,318.6 880.0,319.7" fill="none" stroke="#8c564b" stroke-width="2"/>
<circle cx="235.7" cy="318.5" r="3" fill="#8c564b"/>
<circle cx="309.3" cy="314.7" r="3" fill="#8c564b"/>
<circle cx="327.7" cy="318.1" r="3" fill="#8c564b"/>
<circle cx="346.1" cy="318.0" r="3" fill="#8c564b"/>
<circle cx="364.5" cy="318.8" r="3" fill="#8c564b"/>
<circle cx="383.0" cy="312.5" r="3" fill="#8c564b"/>
<circle cx="401.4" cy="318.8" r="3" fill="#8c564b"/>
<circle cx="419.8" cy="314.5" r="3" fill="#8c564b"/>
<circle cx="438.2" cy="318.9" r="3" fill="#8c564b"/>
<circle cx="456.6" cy="318.7" r="3" fill="#8c564b"/>
<circle cx="475.0" cy="311.9" r="3" fill="#8c564b"/>
<circle cx="493.4" cy="318.2" r="3" fill="#8c564b"/>
<circle cx="511.8" cy="318.5" r="3" fill="#8c564b"/>
<circle cx="530.2" cy="311.1" r="3" fill="#8c564b"/>
<circle cx="548.6" cy="317.5" r="3" fill="#8c564b"/>
<circle cx="567.0" cy="317.9" r="3" fill="#8c564b"/>
<circle cx="585.5" cy="316.7" r="3" fill="#8c564b"/>
<circle cx="603.9" cy="318.9" r="3" fill="#8c564b"/>
<circle cx="659.1" cy="318.7" r="3" fill="#8c564b"/>
<circle cx="677.5" cy="318.6" r="3" fill="#8c564b"/>
<circle cx="695.9" cy="318.2" r="3" fill="#8c564b"/>
<circle cx="714.3" cy="318.2" r="3" fill="#8c564b"/>
<circle cx="732.7" cy="318.6" r="3" fill="#8c564b"/>
<circle cx="751.1" cy="317.8" r="3" fill="#8c564b"/>
<circle cx="769.5" cy="318.8" r="3" fill="#8c564b"/>
<circle cx="788.0" cy="318.3" r="3" fill="#8c564b"/>
<circle cx="806.4" cy="318.3" r="3" fill="#8c564b"/>
<circle cx="824.8" cy="319.3" r="3" fill="#8c564b"/>
<circle cx="843.2" cy="315.9" r="3" fill="#8c564b"/>
<circle cx="861.6" cy="318.6" r="3" fill="#8c564b"/>
<circle cx="880.0" cy="319.7" r="3" fill="#8c564b"/>
<rect x="745.0" y="358" width="10" height="10" fill="#8c564b"/>
<text x="759.0" y="367" font-size="11" fill="#333">render tick p95</text>
</svg>
