<svg xmlns="http://www.w3.org/2000/svg" width="900" height="380" viewBox="0 0 900 380" font-family="sans-serif">
<rect width="900" height="380" fill="white"/>
<text x="70" y="24" font-size="16" fill="#333">Latency (ms, p50 unless noted) — lower is better</text>
<line x1="70" y1="324.0" x2="880" y2="324.0" stroke="#e5e5e5"/>
<text x="64" y="328.0" font-size="11" fill="#666" text-anchor="end">0ms</text>
<line x1="70" y1="268.0" x2="880" y2="268.0" stroke="#e5e5e5"/>
<text x="64" y="272.0" font-size="11" fill="#666" text-anchor="end">1481ms</text>
<line x1="70" y1="212.0" x2="880" y2="212.0" stroke="#e5e5e5"/>
<text x="64" y="216.0" font-size="11" fill="#666" text-anchor="end">2963ms</text>
<line x1="70" y1="156.0" x2="880" y2="156.0" stroke="#e5e5e5"/>
<text x="64" y="160.0" font-size="11" fill="#666" text-anchor="end">4444ms</text>
<line x1="70" y1="100.0" x2="880" y2="100.0" stroke="#e5e5e5"/>
<text x="64" y="104.0" font-size="11" fill="#666" text-anchor="end">5925ms</text>
<line x1="70" y1="44.0" x2="880" y2="44.0" stroke="#e5e5e5"/>
<text x="64" y="48.0" font-size="11" fill="#666" text-anchor="end">7407ms</text>
<text x="70.0" y="342" font-size="11" fill="#666" text-anchor="start">07-16 16:02</text>
<text x="481.9" y="342" font-size="11" fill="#666" text-anchor="middle">07-17 19:42</text>
<text x="880.0" y="342" font-size="11" fill="#666" text-anchor="end">07-20 06:28</text>
<polyline points="70.0,217.7 83.7,227.9 111.2,203.6 124.9,277.5 138.6,167.6 152.4,238.1 166.1,172.1 179.8,214.4 193.6,167.1 207.3,251.0 221.0,170.5 234.7,265.2 248.5,240.0 262.2,194.2 275.9,237.5 289.7,232.3 303.4,238.8 317.1,246.5 330.8,234.7 344.6,174.8 358.3,240.9 372.0,214.4 385.8,64.7 399.5,245.0 413.2,220.8 426.9,276.4 440.7,269.9 454.4,274.6 468.1,281.8 481.9,316.3 495.6,285.1 509.3,292.2 523.1,283.0 536.8,300.1 550.5,293.0 564.2,206.2 578.0,292.0 591.7,223.6 605.4,294.7 619.2,296.4 632.9,260.6 646.6,292.8 660.3,290.2 674.1,290.1 687.8,286.4 701.5,287.0 715.3,292.4 729.0,292.8 742.7,290.6 756.4,279.0 770.2,291.3 783.9,279.4 797.6,293.4 811.4,276.0 825.1,284.7 838.8,292.0 852.5,286.6 866.3,279.9 880.0,283.0" fill="none" stroke="#d62728" stroke-width="2"/>
<circle cx="70.0" cy="217.7" r="3" fill="#d62728"/>
<circle cx="83.7" cy="227.9" r="3" fill="#d62728"/>
<circle cx="111.2" cy="203.6" r="3" fill="#d62728"/>
<circle cx="124.9" cy="277.5" r="3" fill="#d62728"/>
<circle cx="138.6" cy="167.6" r="3" fill="#d62728"/>
<circle cx="152.4" cy="238.1" r="3" fill="#d62728"/>
<circle cx="166.1" cy="172.1" r="3" fill="#d62728"/>
<circle cx="179.8" cy="214.4" r="3" fill="#d62728"/>
<circle cx="193.6" cy="167.1" r="3" fill="#d62728"/>
<circle cx="207.3" cy="251.0" r="3" fill="#d62728"/>
<circle cx="221.0" cy="170.5" r="3" fill="#d62728"/>
<circle cx="234.7" cy="265.2" r="3" fill="#d62728"/>
<circle cx="248.5" cy="240.0" r="3" fill="#d62728"/>
<circle cx="262.2" cy="194.2" r="3" fill="#d62728"/>
<circle cx="275.9" cy="237.5" r="3" fill="#d62728"/>
<circle cx="289.7" cy="232.3" r="3" fill="#d62728"/>
<circle cx="303.4" cy="238.8" r="3" fill="#d62728"/>
<circle cx="317.1" cy="246.5" r="3" fill="#d62728"/>
<circle cx="330.8" cy="234.7" r="3" fill="#d62728"/>
<circle cx="344.6" cy="174.8" r="3" fill="#d62728"/>
<circle cx="358.3" cy="240.9" r="3" fill="#d62728"/>
<circle cx="372.0" cy="214.4" r="3" fill="#d62728"/>
<circle cx="385.8" cy="64.7" r="3" fill="#d62728"/>
<circle cx="399.5" cy="245.0" r="3" fill="#d62728"/>
<circle cx="413.2" cy="220.8" r="3" fill="#d62728"/>
<circle cx="426.9" cy="276.4" r="3" fill="#d62728"/>
<circle cx="440.7" cy="269.9" r="3" fill="#d62728"/>
<circle cx="454.4" cy="274.6" r="3" fill="#d62728"/>
<circle cx="468.1" cy="281.8" r="3" fill="#d62728"/>
<circle cx="481.9" cy="316.3" r="3" fill="#d62728"/>
<circle cx="495.6" cy="285.1" r="3" fill="#d62728"/>
<circle cx="509.3" cy="292.2" r="3" fill="#d62728"/>
<circle cx="523.1" cy="283.0" r="3" fill="#d62728"/>
<circle cx="536.8" cy="300.1" r="3" fill="#d62728"/>
<circle cx="550.5" cy="293.0" r="3" fill="#d62728"/>
<circle cx="564.2" cy="206.2" r="3" fill="#d62728"/>
<circle cx="578.0" cy="292.0" r="3" fill="#d62728"/>
<circle cx="591.7" cy="223.6" r="3" fill="#d62728"/>
<circle cx="605.4" cy="294.7" r="3" fill="#d62728"/>
<circle cx="619.2" cy="296.4" r="3" fill="#d62728"/>
<circle cx="632.9" cy="260.6" r="3" fill="#d62728"/>
<circle cx="646.6" cy="292.8" r="3" fill="#d62728"/>
<circle cx="660.3" cy="290.2" r="3" fill="#d62728"/>
<circle cx="674.1" cy="290.1" r="3" fill="#d62728"/>
<circle cx="687.8" cy="286.4" r="3" fill="#d62728"/>
<circle cx="701.5" cy="287.0" r="3" fill="#d62728"/>
<circle cx="715.3" cy="292.4" r="3" fill="#d62728"/>
<circle cx="729.0" cy="292.8" r="3" fill="#d62728"/>
<circle cx="742.7" cy="290.6" r="3" fill="#d62728"/>
<circle cx="756.4" cy="279.0" r="3" fill="#d62728"/>
<circle cx="770.2" cy="291.3" r="3" fill="#d62728"/>
<circle cx="783.9" cy="279.4" r="3" fill="#d62728"/>
<circle cx="797.6" cy="293.4" r="3" fill="#d62728"/>
<circle cx="811.4" cy="276.0" r="3" fill="#d62728"/>
<circle cx="825.1" cy="284.7" r="3" fill="#d62728"/>
<circle cx="838.8" cy="292.0" r="3" fill="#d62728"/>
<circle cx="852.5" cy="286.6" r="3" fill="#d62728"/>
<circle cx="866.3" cy="279.9" r="3" fill="#d62728"/>
<circle cx="880.0" cy="283.0" r="3" fill="#d62728"/>
<rect x="70.0" y="358" width="10" height="10" fill="#d62728"/>
<text x="84.0" y="367" font-size="11" fill="#333">first audio (e2e)</text>
<polyline points="193.6,215.3 248.5,199.1 262.2,224.4 275.9,176.9 289.7,267.6 303.4,239.5 317.1,283.5 330.8,244.5 344.6,260.4 358.3,246.2 372.0,245.6 385.8,201.1 399.5,299.9 413.2,252.0 426.9,317.9 440.7,317.8 454.4,317.5 468.1,318.0 509.3,318.3 523.1,317.4 536.8,317.8 550.5,318.6 564.2,317.8 578.0,318.2 591.7,317.3 605.4,317.7 619.2,319.0 632.9,318.6 646.6,317.0 660.3,317.8 674.1,318.5 687.8,317.4 701.5,317.7 715.3,317.1 729.0,300.8 742.7,295.2 756.4,317.5 770.2,317.1 797.6,295.5 825.1,319.0 838.8,303.2 852.5,318.6 866.3,317.7 880.0,318.1" fill="none" stroke="#1f77b4" stroke-width="2"/>
<circle cx="193.6" cy="215.3" r="3" fill="#1f77b4"/>
<circle cx="248.5" cy="199.1" r="3" fill="#1f77b4"/>
<circle cx="262.2" cy="224.4" r="3" fill="#1f77b4"/>
<circle cx="275.9" cy="176.9" r="3" fill="#1f77b4"/>
<circle cx="289.7" cy="267.6" r="3" fill="#1f77b4"/>
<circle cx="303.4" cy="239.5" r="3" fill="#1f77b4"/>
<circle cx="317.1" cy="283.5" r="3" fill="#1f77b4"/>
<circle cx="330.8" cy="244.5" r="3" fill="#1f77b4"/>
<circle cx="344.6" cy="260.4" r="3" fill="#1f77b4"/>
<circle cx="358.3" cy="246.2" r="3" fill="#1f77b4"/>
<circle cx="372.0" cy="245.6" r="3" fill="#1f77b4"/>
<circle cx="385.8" cy="201.1" r="3" fill="#1f77b4"/>
<circle cx="399.5" cy="299.9" r="3" fill="#1f77b4"/>
<circle cx="413.2" cy="252.0" r="3" fill="#1f77b4"/>
<circle cx="426.9" cy="317.9" r="3" fill="#1f77b4"/>
<circle cx="440.7" cy="317.8" r="3" fill="#1f77b4"/>
<circle cx="454.4" cy="317.5" r="3" fill="#1f77b4"/>
<circle cx="468.1" cy="318.0" r="3" fill="#1f77b4"/>
<circle cx="509.3" cy="318.3" r="3" fill="#1f77b4"/>
<circle cx="523.1" cy="317.4" r="3" fill="#1f77b4"/>
<circle cx="536.8" cy="317.8" r="3" fill="#1f77b4"/>
<circle cx="550.5" cy="318.6" r="3" fill="#1f77b4"/>
<circle cx="564.2" cy="317.8" r="3" fill="#1f77b4"/>
<circle cx="578.0" cy="318.2" r="3" fill="#1f77b4"/>
<circle cx="591.7" cy="317.3" r="3" fill="#1f77b4"/>
<circle cx="605.4" cy="317.7" r="3" fill="#1f77b4"/>
<circle cx="619.2" cy="319.0" r="3" fill="#1f77b4"/>
<circle cx="632.9" cy="318.6" r="3" fill="#1f77b4"/>
<circle cx="646.6" cy="317.0" r="3" fill="#1f77b4"/>
<circle cx="660.3" cy="317.8" r="3" fill="#1f77b4"/>
<circle cx="674.1" cy="318.5" r="3" fill="#1f77b4"/>
<circle cx="687.8" cy="317.4" r="3" fill="#1f77b4"/>
<circle cx="701.5" cy="317.7" r="3" fill="#1f77b4"/>
<circle cx="715.3" cy="317.1" r="3" fill="#1f77b4"/>
<circle cx="729.0" cy="300.8" r="3" fill="#1f77b4"/>
<circle cx="742.7" cy="295.2" r="3" fill="#1f77b4"/>
<circle cx="756.4" cy="317.5" r="3" fill="#1f77b4"/>
<circle cx="770.2" cy="317.1" r="3" fill="#1f77b4"/>
<circle cx="797.6" cy="295.5" r="3" fill="#1f77b4"/>
<circle cx="825.1" cy="319.0" r="3" fill="#1f77b4"/>
<circle cx="838.8" cy="303.2" r="3" fill="#1f77b4"/>
<circle cx="852.5" cy="318.6" r="3" fill="#1f77b4"/>
<circle cx="866.3" cy="317.7" r="3" fill="#1f77b4"/>
<circle cx="880.0" cy="318.1" r="3" fill="#1f77b4"/>
<rect x="205.0" y="358" width="10" height="10" fill="#1f77b4"/>
<text x="219.0" y="367" font-size="11" fill="#333">tts first chunk</text>
<polyline points="193.6,298.0 248.5,298.0 262.2,307.7 303.4,287.9 317.1,307.5 330.8,307.7 358.3,300.5 372.0,298.4 399.5,304.7 413.2,305.1 426.9,306.6 440.7,304.3 454.4,291.3 509.3,304.1 564.2,262.6 605.4,311.0 619.2,312.2 632.9,308.2 674.1,308.0 729.0,313.3 742.7,311.0 756.4,307.6 770.2,306.7 797.6,306.4 825.1,310.3 838.8,313.1 852.5,311.0 866.3,299.8 880.0,309.6" fill="none" stroke="#ff7f0e" stroke-width="2"/>
<circle cx="193.6" cy="298.0" r="3" fill="#ff7f0e"/>
<circle cx="248.5" cy="298.0" r="3" fill="#ff7f0e"/>
<circle cx="262.2" cy="307.7" r="3" fill="#ff7f0e"/>
<circle cx="303.4" cy="287.9" r="3" fill="#ff7f0e"/>
<circle cx="317.1" cy="307.5" r="3" fill="#ff7f0e"/>
<circle cx="330.8" cy="307.7" r="3" fill="#ff7f0e"/>
<circle cx="358.3" cy="300.5" r="3" fill="#ff7f0e"/>
<circle cx="372.0" cy="298.4" r="3" fill="#ff7f0e"/>
<circle cx="399.5" cy="304.7" r="3" fill="#ff7f0e"/>
<circle cx="413.2" cy="305.1" r="3" fill="#ff7f0e"/>
<circle cx="426.9" cy="306.6" r="3" fill="#ff7f0e"/>
<circle cx="440.7" cy="304.3" r="3" fill="#ff7f0e"/>
<circle cx="454.4" cy="291.3" r="3" fill="#ff7f0e"/>
<circle cx="509.3" cy="304.1" r="3" fill="#ff7f0e"/>
<circle cx="564.2" cy="262.6" r="3" fill="#ff7f0e"/>
<circle cx="605.4" cy="311.0" r="3" fill="#ff7f0e"/>
<circle cx="619.2" cy="312.2" r="3" fill="#ff7f0e"/>
<circle cx="632.9" cy="308.2" r="3" fill="#ff7f0e"/>
<circle cx="674.1" cy="308.0" r="3" fill="#ff7f0e"/>
<circle cx="729.0" cy="313.3" r="3" fill="#ff7f0e"/>
<circle cx="742.7" cy="311.0" r="3" fill="#ff7f0e"/>
<circle cx="756.4" cy="307.6" r="3" fill="#ff7f0e"/>
<circle cx="770.2" cy="306.7" r="3" fill="#ff7f0e"/>
<circle cx="797.6" cy="306.4" r="3" fill="#ff7f0e"/>
<circle cx="825.1" cy="310.3" r="3" fill="#ff7f0e"/>
<circle cx="838.8" cy="313.1" r="3" fill="#ff7f0e"/>
<circle cx="852.5" cy="311.0" r="3" fill="#ff7f0e"/>
<circle cx="866.3" cy="299.8" r="3" fill="#ff7f0e"/>
<circle cx="880.0" cy="309.6" r="3" fill="#ff7f0e"/>
<rect x="340.0" y="358" width="10" height="10" fill="#ff7f0e"/>
<text x="354.0" y="367" font-size="11" fill="#333">llm ttft</text>
<polyline points="70.0,297.1 83.7,301.1 111.2,298.1 124.9,298.0 138.6,303.1 166.1,274.4 179.8,281.5 193.6,241.9 248.5,243.2 262.2,286.5 275.9,268.6 289.7,306.2 303.4,280.2 317.1,306.0 330.8,297.3 344.6,269.3 358.3,299.0 372.0,267.5 385.8,275.1 399.5,303.3 413.2,253.3 426.9,280.5 440.7,282.8 454.4,272.0 468.1,296.7 509.3,299.6 523.1,301.6 536.8,312.5 550.5,300.5 564.2,169.3 578.0,296.2 591.7,240.3 605.4,307.0 619.2,310.0 632.9,275.8 646.6,305.7 660.3,304.6 674.1,303.7 687.8,297.4 701.5,297.4 715.3,306.8 729.0,306.3 742.7,305.5 756.4,293.1 770.2,303.2 797.6,301.0 825.1,307.2 838.8,305.8 852.5,307.8 866.3,292.2 880.0,299.0" fill="none" stroke="#2ca02c" stroke-width="2"/>
<circle cx="70.0" cy="297.1" r="3" fill="#2ca02c"/>
<circle cx="83.7" cy="301.1" r="3" fill="#2ca02c"/>
<circle cx="111.2" cy="298.1" r="3" fill="#2ca02c"/>
<circle cx="124.9" cy="298.0" r="3" fill="#2ca02c"/>
<circle cx="138.6" cy="303.1" r="3" fill="#2ca02c"/>
<circle cx="166.1" cy="274.4" r="3" fill="#2ca02c"/>
<circle cx="179.8" cy="281.5" r="3" fill="#2ca02c"/>
<circle cx="193.6" cy="241.9" r="3" fill="#2ca02c"/>
<circle cx="248.5" cy="243.2" r="3" fill="#2ca02c"/>
<circle cx="262.2" cy="286.5" r="3" fill="#2ca02c"/>
<circle cx="275.9" cy="268.6" r="3" fill="#2ca02c"/>
<circle cx="289.7" cy="306.2" r="3" fill="#2ca02c"/>
<circle cx="303.4" cy="280.2" r="3" fill="#2ca02c"/>
<circle cx="317.1" cy="306.0" r="3" fill="#2ca02c"/>
<circle cx="330.8" cy="297.3" r="3" fill="#2ca02c"/>
<circle cx="344.6" cy="269.3" r="3" fill="#2ca02c"/>
<circle cx="358.3" cy="299.0" r="3" fill="#2ca02c"/>
<circle cx="372.0" cy="267.5" r="3" fill="#2ca02c"/>
<circle cx="385.8" cy="275.1" r="3" fill="#2ca02c"/>
<circle cx="399.5" cy="303.3" r="3" fill="#2ca02c"/>
<circle cx="413.2" cy="253.3" r="3" fill="#2ca02c"/>
<circle cx="426.9" cy="280.5" r="3" fill="#2ca02c"/>
<circle cx="440.7" cy="282.8" r="3" fill="#2ca02c"/>
<circle cx="454.4" cy="272.0" r="3" fill="#2ca02c"/>
<circle cx="468.1" cy="296.7" r="3" fill="#2ca02c"/>
<circle cx="509.3" cy="299.6" r="3" fill="#2ca02c"/>
<circle cx="523.1" cy="301.6" r="3" fill="#2ca02c"/>
<circle cx="536.8" cy="312.5" r="3" fill="#2ca02c"/>
<circle cx="550.5" cy="300.5" r="3" fill="#2ca02c"/>
<circle cx="564.2" cy="169.3" r="3" fill="#2ca02c"/>
<circle cx="578.0" cy="296.2" r="3" fill="#2ca02c"/>
<circle cx="591.7" cy="240.3" r="3" fill="#2ca02c"/>
<circle cx="605.4" cy="307.0" r="3" fill="#2ca02c"/>
<circle cx="619.2" cy="310.0" r="3" fill="#2ca02c"/>
<circle cx="632.9" cy="275.8" r="3" fill="#2ca02c"/>
<circle cx="646.6" cy="305.7" r="3" fill="#2ca02c"/>
<circle cx="660.3" cy="304.6" r="3" fill="#2ca02c"/>
<circle cx="674.1" cy="303.7" r="3" fill="#2ca02c"/>
<circle cx="687.8" cy="297.4" r="3" fill="#2ca02c"/>
<circle cx="701.5" cy="297.4" r="3" fill="#2ca02c"/>
<circle cx="715.3" cy="306.8" r="3" fill="#2ca02c"/>
<circle cx="729.0" cy="306.3" r="3" fill="#2ca02c"/>
<circle cx="742.7" cy="305.5" r="3" fill="#2ca02c"/>
<circle cx="756.4" cy="293.1" r="3" fill="#2ca02c"/>
<circle cx="770.2" cy="303.2" r="3" fill="#2ca02c"/>
<circle cx="797.6" cy="301.0" r="3" fill="#2ca02c"/>
<circle cx="825.1" cy="307.2" r="3" fill="#2ca02c"/>
<circle cx="838.8" cy="305.8" r="3" fill="#2ca02c"/>
<circle cx="852.5" cy="307.8" r="3" fill="#2ca02c"/>
<circle cx="866.3" cy="292.2" r="3" fill="#2ca02c"/>
<circle cx="880.0" cy="299.0" r="3" fill="#2ca02c"/>
<rect x="475.0" y="358" width="10" height="10" fill="#2ca02c"/>
<text x="489.0" y="367" font-size="11" fill="#333">llm first sentence</text>
<polyline points="70.0,311.1 83.7,313.5 97.5,311.5 111.2,312.5 124.9,305.2 138.6,313.0 166.1,306.1 179.8,304.1 193.6,308.6 248.5,305.6 262.2,310.6 275.9,306.4 289.7,314.9 303.4,315.0 317.1,315.6 330.8,307.9 344.6,313.9 358.3,315.7 372.0,312.8 385.8,306.0 399.5,316.6 413.2,306.0 426.9,313.9 440.7,315.3 454.4,310.5 468.1,316.9 509.3,316.3 523.1,314.8 536.8,314.8 550.5,315.1 564.2,315.2 578.0,314.1 591.7,311.9 605.4,316.5 619.2,316.1 632.9,316.0 646.6,312.9 660.3,314.0 674.1,316.3 687.8,313.4 701.5,316.9 715.3,312.3 729.0,296.2 742.7,290.3 756.4,314.5 770.2,315.0 783.9,318.5 797.6,289.0 811.4,317.3 825.1,316.3 838.8,297.7 852.5,313.5 866.3,314.0 880.0,314.2" fill="none" stroke="#9467bd" stroke-width="2"/>
<circle cx="70.0" cy="311.1" r="3" fill="#9467bd"/>
<circle cx="83.7" cy="313.5" r="3" fill="#9467bd"/>
<circle cx="97.5" cy="311.5" r="3" fill="#9467bd"/>
<circle cx="111.2" cy="312.5" r="3" fill="#9467bd"/>
<circle cx="124.9" cy="305.2" r="3" fill="#9467bd"/>
<circle cx="138.6" cy="313.0" r="3" fill="#9467bd"/>
<circle cx="166.1" cy="306.1" r="3" fill="#9467bd"/>
<circle cx="179.8" cy="304.1" r="3" fill="#9467bd"/>
<circle cx="193.6" cy="308.6" r="3" fill="#9467bd"/>
<circle cx="248.5" cy="305.6" r="3" fill="#9467bd"/>
<circle cx="262.2" cy="310.6" r="3" fill="#9467bd"/>
<circle cx="275.9" cy="306.4" r="3" fill="#9467bd"/>
<circle cx="289.7" cy="314.9" r="3" fill="#9467bd"/>
<circle cx="303.4" cy="315.0" r="3" fill="#9467bd"/>
<circle cx="317.1" cy="315.6" r="3" fill="#9467bd"/>
<circle cx="330.8" cy="307.9" r="3" fill="#9467bd"/>
<circle cx="344.6" cy="313.9" r="3" fill="#9467bd"/>
<circle cx="358.3" cy="315.7" r="3" fill="#9467bd"/>
<circle cx="372.0" cy="312.8" r="3" fill="#9467bd"/>
<circle cx="385.8" cy="306.0" r="3" fill="#9467bd"/>
<circle cx="399.5" cy="316.6" r="3" fill="#9467bd"/>
<circle cx="413.2" cy="306.0" r="3" fill="#9467bd"/>
<circle cx="426.9" cy="313.9" r="3" fill="#9467bd"/>
<circle cx="440.7" cy="315.3" r="3" fill="#9467bd"/>
<circle cx="454.4" cy="310.5" r="3" fill="#9467bd"/>
<circle cx="468.1" cy="316.9" r="3" fill="#9467bd"/>
<circle cx="509.3" cy="316.3" r="3" fill="#9467bd"/>
<circle cx="523.1" cy="314.8" r="3" fill="#9467bd"/>
<circle cx="536.8" cy="314.8" r="3" fill="#9467bd"/>
<circle cx="550.5" cy="315.1" r="3" fill="#9467bd"/>
<circle cx="564.2" cy="315.2" r="3" fill="#9467bd"/>
<circle cx="578.0" cy="314.1" r="3" fill="#9467bd"/>
<circle cx="591.7" cy="311.9" r="3" fill="#9467bd"/>
<circle cx="605.4" cy="316.5" r="3" fill="#9467bd"/>
<circle cx="619.2" cy="316.1" r="3" fill="#9467bd"/>
<circle cx="632.9" cy="316.0" r="3" fill="#9467bd"/>
<circle cx="646.6" cy="312.9" r="3" fill="#9467bd"/>
<circle cx="660.3" cy="314.0" r="3" fill="#9467bd"/>
<circle cx="674.1" cy="316.3" r="3" fill="#9467bd"/>
<circle cx="687.8" cy="313.4" r="3" fill="#9467bd"/>
<circle cx="701.5" cy="316.9" r="3" fill="#9467bd"/>
<circle cx="715.3" cy="312.3" r="3" fill="#9467bd"/>
<circle cx="729.0" cy="296.2" r="3" fill="#9467bd"/>
<circle cx="742.7" cy="290.3" r="3" fill="#9467bd"/>
<circle cx="756.4" cy="314.5" r="3" fill="#9467bd"/>
<circle cx="770.2" cy="315.0" r="3" fill="#9467bd"/>
<circle cx="783.9" cy="318.5" r="3" fill="#9467bd"/>
<circle cx="797.6" cy="289.0" r="3" fill="#9467bd"/>
<circle cx="811.4" cy="317.3" r="3" fill="#9467bd"/>
<circle cx="825.1" cy="316.3" r="3" fill="#9467bd"/>
<circle cx="838.8" cy="297.7" r="3" fill="#9467bd"/>
<circle cx="852.5" cy="313.5" r="3" fill="#9467bd"/>
<circle cx="866.3" cy="314.0" r="3" fill="#9467bd"/>
<circle cx="880.0" cy="314.2" r="3" fill="#9467bd"/>
<rect x="610.0" y="358" width="10" height="10" fill="#9467bd"/>
<text x="624.0" y="367" font-size="11" fill="#333">lipsync first mouth</text>
<polyline points="193.6,318.5 248.5,314.7 262.2,318.1 275.9,318.0 289.7,318.8 303.4,312.5 317.1,318.8 330.8,314.5 344.6,318.9 358.3,318.7 372.0,311.9 385.8,318.2 399.5,318.5 413.2,311.1 426.9,317.5 440.7,317.9 454.4,316.7 468.1,318.9 509.3,318.7 523.1,318.6 536.8,318.2 550.5,318.2 564.2,318.6 578.0,317.8 591.7,318.8 605.4,318.3 619.2,318.3 632.9,319.3 646.6,315.9 660.3,318.6 674.1,319.7 687.8,317.7 701.5,319.3 715.3,319.1 729.0,320.4 742.7,320.3 756.4,318.2 770.2,319.1 783.9,318.8 797.6,319.7 811.4,316.8 825.1,319.5 838.8,319.7 852.5,318.9 866.3,318.2 880.0,318.2" fill="none" stroke="#8c564b" stroke-width="2"/>
<circle cx="193.6" cy="318.5" r="3" fill="#8c564b"/>
<circle cx="248.5" cy="314.7" r="3" fill="#8c564b"/>
<circle cx="262.2" cy="318.1" r="3" fill="#8c564b"/>
<circle cx="275.9" cy="318.0" r="3" fill="#8c564b"/>
<circle cx="289.7" cy="318.8" r="3" fill="#8c564b"/>
<circle cx="303.4" cy="312.5" r="3" fill="#8c564b"/>
<circle cx="317.1" cy="318.8" r="3" fill="#8c564b"/>
<circle cx="330.8" cy="314.5" r="3" fill="#8c564b"/>
<circle cx="344.6" cy="318.9" r="3" fill="#8c564b"/>
<circle cx="358.3" cy="318.7" r="3" fill="#8c564b"/>
<circle cx="372.0" cy="311.9" r="3" fill="#8c564b"/>
<circle cx="385.8" cy="318.2" r="3" fill="#8c564b"/>
<circle cx="399.5" cy="318.5" r="3" fill="#8c564b"/>
<circle cx="413.2" cy="311.1" r="3" fill="#8c564b"/>
<circle cx="426.9" cy="317.5" r="3" fill="#8c564b"/>
<circle cx="440.7" cy="317.9" r="3" fill="#8c564b"/>
<circle cx="454.4" cy="316.7" r="3" fill="#8c564b"/>
<circle cx="468.1" cy="318.9" r="3" fill="#8c564b"/>
<circle cx="509.3" cy="318.7" r="3" fill="#8c564b"/>
<circle cx="523.1" cy="318.6" r="3" fill="#8c564b"/>
<circle cx="536.8" cy="318.2" r="3" fill="#8c564b"/>
<circle cx="550.5" cy="318.2" r="3" fill="#8c564b"/>
<circle cx="564.2" cy="318.6" r="3" fill="#8c564b"/>
<circle cx="578.0" cy="317.8" r="3" fill="#8c564b"/>
<circle cx="591.7" cy="318.8" r="3" fill="#8c564b"/>
<circle cx="605.4" cy="318.3" r="3" fill="#8c564b"/>
<circle cx="619.2" cy="318.3" r="3" fill="#8c564b"/>
<circle cx="632.9" cy="319.3" r="3" fill="#8c564b"/>
<circle cx="646.6" cy="315.9" r="3" fill="#8c564b"/>
<circle cx="660.3" cy="318.6" r="3" fill="#8c564b"/>
<circle cx="674.1" cy="319.7" r="3" fill="#8c564b"/>
<circle cx="687.8" cy="317.7" r="3" fill="#8c564b"/>
<circle cx="701.5" cy="319.3" r="3" fill="#8c564b"/>
<circle cx="715.3" cy="319.1" r="3" fill="#8c564b"/>
<circle cx="729.0" cy="320.4" r="3" fill="#8c564b"/>
<circle cx="742.7" cy="320.3" r="3" fill="#8c564b"/>
<circle cx="756.4" cy="318.2" r="3" fill="#8c564b"/>
<circle cx="770.2" cy="319.1" r="3" fill="#8c564b"/>
<circle cx="783.9" cy="318.8" r="3" fill="#8c564b"/>
<circle cx="797.6" cy="319.7" r="3" fill="#8c564b"/>
<circle cx="811.4" cy="316.8" r="3" fill="#8c564b"/>
<circle cx="825.1" cy="319.5" r="3" fill="#8c564b"/>
<circle cx="838.8" cy="319.7" r="3" fill="#8c564b"/>
<circle cx="852.5" cy="318.9" r="3" fill="#8c564b"/>
<circle cx="866.3" cy="318.2" r="3" fill="#8c564b"/>
<circle cx="880.0" cy="318.2" r="3" fill="#8c564b"/>
<rect x="745.0" y="358" width="10" height="10" fill="#8c564b"/>
<text x="759.0" y="367" font-size="11" fill="#333">render tick p95</text>
</svg>
