<svg xmlns="http://www.w3.org/2000/svg" width="900" height="380" viewBox="0 0 900 380" font-family="sans-serif">
<rect width="900" height="380" fill="white"/>
<text x="70" y="24" font-size="16" fill="#333">Latency (ms, p50 unless noted) — lower is better</text>
<line x1="70" y1="324.0" x2="880" y2="324.0" stroke="#e5e5e5"/>
<text x="64" y="328.0" font-size="11" fill="#666" text-anchor="end">0ms</text>
<line x1="70" y1="268.0" x2="880" y2="268.0" stroke="#e5e5e5"/>
<text x="64" y="272.0" font-size="11" fill="#666" text-anchor="end">1481ms</text>
<line x1="70" y1="212.0" x2="880" y2="212.0" stroke="#e5e5e5"/>
<text x="64" y="216.0" font-size="11" fill="#666" text-anchor="end">2963ms</text>
<line x1="70" y1="156.0" x2="880" y2="156.0" stroke="#e5e5e5"/>
<text x="64" y="160.0" font-size="11" fill="#666" text-anchor="end">4444ms</text>
<line x1="70" y1="100.0" x2="880" y2="100.0" stroke="#e5e5e5"/>
<text x="64" y="104.0" font-size="11" fill="#666" text-anchor="end">5925ms</text>
<line x1="70" y1="44.0" x2="880" y2="44.0" stroke="#e5e5e5"/>
<text x="64" y="48.0" font-size="11" fill="#666" text-anchor="end">7407ms</text>
<text x="70.0" y="342" font-size="11" fill="#666" text-anchor="start">07-16 16:02</text>
<text x="482.4" y="342" font-size="11" fill="#666" text-anchor="middle">07-17 19:15</text>
<text x="880.0" y="342" font-size="11" fill="#666" text-anchor="end">07-18 10:28</text>
<polyline points="70.0,217.7 84.7,227.9 114.2,203.6 128.9,277.5 143.6,167.6 158.4,238.1 173.1,172.1 187.8,214.4 202.5,167.1 217.3,251.0 232.0,170.5 246.7,265.2 261.5,240.0 276.2,194.2 290.9,237.5 305.6,232.3 320.4,238.8 335.1,246.5 349.8,234.7 364.5,174.8 379.3,240.9 394.0,214.4 408.7,64.7 423.5,245.0 438.2,220.8 452.9,276.4 467.6,269.9 482.4,274.6 497.1,281.8 511.8,316.3 526.5,285.1 541.3,292.2 556.0,283.0 570.7,300.1 585.5,293.0 600.2,206.2 614.9,292.0 629.6,223.6 644.4,294.7 659.1,296.4 673.8,260.6 688.5,292.8 703.3,290.2 718.0,290.1 732.7,286.4 747.5,287.0 762.2,292.4 776.9,292.8 791.6,290.6 806.4,279.0 821.1,291.3 835.8,279.4 850.5,293.4 865.3,276.0 880.0,284.7" fill="none" stroke="#d62728" stroke-width="2"/>
<circle cx="70.0" cy="217.7" r="3" fill="#d62728"/>
<circle cx="84.7" cy="227.9" r="3" fill="#d62728"/>
<circle cx="114.2" cy="203.6" r="3" fill="#d62728"/>
<circle cx="128.9" cy="277.5" r="3" fill="#d62728"/>
<circle cx="143.6" cy="167.6" r="3" fill="#d62728"/>
<circle cx="158.4" cy="238.1" r="3" fill="#d62728"/>
<circle cx="173.1" cy="172.1" r="3" fill="#d62728"/>
<circle cx="187.8" cy="214.4" r="3" fill="#d62728"/>
<circle cx="202.5" cy="167.1" r="3" fill="#d62728"/>
<circle cx="217.3" cy="251.0" r="3" fill="#d62728"/>
<circle cx="232.0" cy="170.5" r="3" fill="#d62728"/>
<circle cx="246.7" cy="265.2" r="3" fill="#d62728"/>
<circle cx="261.5" cy="240.0" r="3" fill="#d62728"/>
<circle cx="276.2" cy="194.2" r="3" fill="#d62728"/>
<circle cx="290.9" cy="237.5" r="3" fill="#d62728"/>
<circle cx="305.6" cy="232.3" r="3" fill="#d62728"/>
<circle cx="320.4" cy="238.8" r="3" fill="#d62728"/>
<circle cx="335.1" cy="246.5" r="3" fill="#d62728"/>
<circle cx="349.8" cy="234.7" r="3" fill="#d62728"/>
<circle cx="364.5" cy="174.8" r="3" fill="#d62728"/>
<circle cx="379.3" cy="240.9" r="3" fill="#d62728"/>
<circle cx="394.0" cy="214.4" r="3" fill="#d62728"/>
<circle cx="408.7" cy="64.7" r="3" fill="#d62728"/>
<circle cx="423.5" cy="245.0" r="3" fill="#d62728"/>
<circle cx="438.2" cy="220.8" r="3" fill="#d62728"/>
<circle cx="452.9" cy="276.4" r="3" fill="#d62728"/>
<circle cx="467.6" cy="269.9" r="3" fill="#d62728"/>
<circle cx="482.4" cy="274.6" r="3" fill="#d62728"/>
<circle cx="497.1" cy="281.8" r="3" fill="#d62728"/>
<circle cx="511.8" cy="316.3" r="3" fill="#d62728"/>
<circle cx="526.5" cy="285.1" r="3" fill="#d62728"/>
<circle cx="541.3" cy="292.2" r="3" fill="#d62728"/>
<circle cx="556.0" cy="283.0" r="3" fill="#d62728"/>
<circle cx="570.7" cy="300.1" r="3" fill="#d62728"/>
<circle cx="585.5" cy="293.0" r="3" fill="#d62728"/>
<circle cx="600.2" cy="206.2" r="3" fill="#d62728"/>
<circle cx="614.9" cy="292.0" r="3" fill="#d62728"/>
<circle cx="629.6" cy="223.6" r="3" fill="#d62728"/>
<circle cx="644.4" cy="294.7" r="3" fill="#d62728"/>
<circle cx="659.1" cy="296.4" r="3" fill="#d62728"/>
<circle cx="673.8" cy="260.6" r="3" fill="#d62728"/>
<circle cx="688.5" cy="292.8" r="3" fill="#d62728"/>
<circle cx="703.3" cy="290.2" r="3" fill="#d62728"/>
<circle cx="718.0" cy="290.1" r="3" fill="#d62728"/>
<circle cx="732.7" cy="286.4" r="3" fill="#d62728"/>
<circle cx="747.5" cy="287.0" r="3" fill="#d62728"/>
<circle cx="762.2" cy="292.4" r="3" fill="#d62728"/>
<circle cx="776.9" cy="292.8" r="3" fill="#d62728"/>
<circle cx="791.6" cy="290.6" r="3" fill="#d62728"/>
<circle cx="806.4" cy="279.0" r="3" fill="#d62728"/>
<circle cx="821.1" cy="291.3" r="3" fill="#d62728"/>
<circle cx="835.8" cy="279.4" r="3" fill="#d62728"/>
<circle cx="850.5" cy="293.4" r="3" fill="#d62728"/>
<circle cx="865.3" cy="276.0" r="3" fill="#d62728"/>
<circle cx="880.0" cy="284.7" r="3" fill="#d62728"/>
<rect x="70.0" y="358" width="10" height="10" fill="#d62728"/>
<text x="84.0" y="367" font-size="11" fill="#333">first audio (e2e)</text>
<polyline points="202.5,215.3 261.5,199.1 276.2,224.4 290.9,176.9 305.6,267.6 320.4,239.5 335.1,283.5 349.8,244.5 364.5,260.4 379.3,246.2 394.0,245.6 408.7,201.1 423.5,299.9 438.2,252.0 452.9,317.9 467.6,317.8 482.4,317.5 497.1,318.0 541.3,318.3 556.0,317.4 570.7,317.8 585.5,318.6 600.2,317.8 614.9,318.2 629.6,317.3 644.4,317.7 659.1,319.0 673.8,318.6 688.5,317.0 703.3,317.8 718.0,318.5 732.7,317.4 747.5,317.7 762.2,317.1 776.9,300.8 791.6,295.2 806.4,317.5 821.1,317.1 850.5,295.5 880.0,319.0" fill="none" stroke="#1f77b4" stroke-width="2"/>
<circle cx="202.5" cy="215.3" r="3" fill="#1f77b4"/>
<circle cx="261.5" cy="199.1" r="3" fill="#1f77b4"/>
<circle cx="276.2" cy="224.4" r="3" fill="#1f77b4"/>
<circle cx="290.9" cy="176.9" r="3" fill="#1f77b4"/>
<circle cx="305.6" cy="267.6" r="3" fill="#1f77b4"/>
<circle cx="320.4" cy="239.5" r="3" fill="#1f77b4"/>
<circle cx="335.1" cy="283.5" r="3" fill="#1f77b4"/>
<circle cx="349.8" cy="244.5" r="3" fill="#1f77b4"/>
<circle cx="364.5" cy="260.4" r="3" fill="#1f77b4"/>
<circle cx="379.3" cy="246.2" r="3" fill="#1f77b4"/>
<circle cx="394.0" cy="245.6" r="3" fill="#1f77b4"/>
<circle cx="408.7" cy="201.1" r="3" fill="#1f77b4"/>
<circle cx="423.5" cy="299.9" r="3" fill="#1f77b4"/>
<circle cx="438.2" cy="252.0" r="3" fill="#1f77b4"/>
<circle cx="452.9" cy="317.9" r="3" fill="#1f77b4"/>
<circle cx="467.6" cy="317.8" r="3" fill="#1f77b4"/>
<circle cx="482.4" cy="317.5" r="3" fill="#1f77b4"/>
<circle cx="497.1" cy="318.0" r="3" fill="#1f77b4"/>
<circle cx="541.3" cy="318.3" r="3" fill="#1f77b4"/>
<circle cx="556.0" cy="317.4" r="3" fill="#1f77b4"/>
<circle cx="570.7" cy="317.8" r="3" fill="#1f77b4"/>
<circle cx="585.5" cy="318.6" r="3" fill="#1f77b4"/>
<circle cx="600.2" cy="317.8" r="3" fill="#1f77b4"/>
<circle cx="614.9" cy="318.2" r="3" fill="#1f77b4"/>
<circle cx="629.6" cy="317.3" r="3" fill="#1f77b4"/>
<circle cx="644.4" cy="317.7" r="3" fill="#1f77b4"/>
<circle cx="659.1" cy="319.0" r="3" fill="#1f77b4"/>
<circle cx="673.8" cy="318.6" r="3" fill="#1f77b4"/>
<circle cx="688.5" cy="317.0" r="3" fill="#1f77b4"/>
<circle cx="703.3" cy="317.8" r="3" fill="#1f77b4"/>
<circle cx="718.0" cy="318.5" r="3" fill="#1f77b4"/>
<circle cx="732.7" cy="317.4" r="3" fill="#1f77b4"/>
<circle cx="747.5" cy="317.7" r="3" fill="#1f77b4"/>
<circle cx="762.2" cy="317.1" r="3" fill="#1f77b4"/>
<circle cx="776.9" cy="300.8" r="3" fill="#1f77b4"/>
<circle cx="791.6" cy="295.2" r="3" fill="#1f77b4"/>
<circle cx="806.4" cy="317.5" r="3" fill="#1f77b4"/>
<circle cx="821.1" cy="317.1" r="3" fill="#1f77b4"/>
<circle cx="850.5" cy="295.5" r="3" fill="#1f77b4"/>
<circle cx="880.0" cy="319.0" r="3" fill="#1f77b4"/>
<rect x="205.0" y="358" width="10" height="10" fill="#1f77b4"/>
<text x="219.0" y="367" font-size="11" fill="#333">tts first chunk</text>
<polyline points="202.5,298.0 261.5,298.0 276.2,307.7 320.4,287.9 335.1,307.5 349.8,307.7 379.3,300.5 394.0,298.4 423.5,304.7 438.2,305.1 452.9,306.6 467.6,304.3 482.4,291.3 541.3,304.1 600.2,262.6 644.4,311.0 659.1,312.2 673.8,308.2 718.0,308.0 776.9,313.3 791.6,311.0 806.4,307.6 821.1,306.7 850.5,306.4 880.0,310.3" fill="none" stroke="#ff7f0e" stroke-width="2"/>
<circle cx="202.5" cy="298.0" r="3" fill="#ff7f0e"/>
<circle cx="261.5" cy="298.0" r="3" fill="#ff7f0e"/>
<circle cx="276.2" cy="307.7" r="3" fill="#ff7f0e"/>
<circle cx="320.4" cy="287.9" r="3" fill="#ff7f0e"/>
<circle cx="335.1" cy="307.5" r="3" fill="#ff7f0e"/>
<circle cx="349.8" cy="307.7" r="3" fill="#ff7f0e"/>
<circle cx="379.3" cy="300.5" r="3" fill="#ff7f0e"/>
<circle cx="394.0" cy="298.4" r="3" fill="#ff7f0e"/>
<circle cx="423.5" cy="304.7" r="3" fill="#ff7f0e"/>
<circle cx="438.2" cy="305.1" r="3" fill="#ff7f0e"/>
<circle cx="452.9" cy="306.6" r="3" fill="#ff7f0e"/>
<circle cx="467.6" cy="304.3" r="3" fill="#ff7f0e"/>
<circle cx="482.4" cy="291.3" r="3" fill="#ff7f0e"/>
<circle cx="541.3" cy="304.1" r="3" fill="#ff7f0e"/>
<circle cx="600.2" cy="262.6" r="3" fill="#ff7f0e"/>
<circle cx="644.4" cy="311.0" r="3" fill="#ff7f0e"/>
<circle cx="659.1" cy="312.2" r="3" fill="#ff7f0e"/>
<circle cx="673.8" cy="308.2" r="3" fill="#ff7f0e"/>
<circle cx="718.0" cy="308.0" r="3" fill="#ff7f0e"/>
<circle cx="776.9" cy="313.3" r="3" fill="#ff7f0e"/>
<circle cx="791.6" cy="311.0" r="3" fill="#ff7f0e"/>
<circle cx="806.4" cy="307.6" r="3" fill="#ff7f0e"/>
<circle cx="821.1" cy="306.7" r="3" fill="#ff7f0e"/>
<circle cx="850.5" cy="306.4" r="3" fill="#ff7f0e"/>
<circle cx="880.0" cy="310.3" r="3" fill="#ff7f0e"/>
<rect x="340.0" y="358" width="10" height="10" fill="#ff7f0e"/>
<text x="354.0" y="367" font-size="11" fill="#333">llm ttft</text>
<polyline points="70.0,297.1 84.7,301.1 114.2,298.1 128.9,298.0 143.6,303.1 173.1,274.4 187.8,281.5 202.5,241.9 261.5,243.2 276.2,286.5 290.9,268.6 305.6,306.2 320.4,280.2 335.1,306.0 349.8,297.3 364.5,269.3 379.3,299.0 394.0,267.5 408.7,275.1 423.5,303.3 438.2,253.3 452.9,280.5 467.6,282.8 482.4,272.0 497.1,296.7 541.3,299.6 556.0,301.6 570.7,312.5 585.5,300.5 600.2,169.3 614.9,296.2 629.6,240.3 644.4,307.0 659.1,310.0 673.8,275.8 688.5,305.7 703.3,304.6 718.0,303.7 732.7,297.4 747.5,297.4 762.2,306.8 776.9,306.3 791.6,305.5 806.4,293.1 821.1,303.2 850.5,301.0 880.0,307.2" fill="none" stroke="#2ca02c" stroke-width="2"/>
<circle cx="70.0" cy="297.1" r="3" fill="#2ca02c"/>
<circle cx="84.7" cy="301.1" r="3" fill="#2ca02c"/>
<circle cx="114.2" cy="298.1" r="3" fill="#2ca02c"/>
<circle cx="128.9" cy="298.0" r="3" fill="#2ca02c"/>
<circle cx="143.6" cy="303.1" r="3" fill="#2ca02c"/>
<circle cx="173.1" cy="274.4" r="3" fill="#2ca02c"/>
<circle cx="187.8" cy="281.5" r="3" fill="#2ca02c"/>
<circle cx="202.5" cy="241.9" r="3" fill="#2ca02c"/>
<circle cx="261.5" cy="243.2" r="3" fill="#2ca02c"/>
<circle cx="276.2" cy="286.5" r="3" fill="#2ca02c"/>
<circle cx="290.9" cy="268.6" r="3" fill="#2ca02c"/>
<circle cx="305.6" cy="306.2" r="3" fill="#2ca02c"/>
<circle cx="320.4" cy="280.2" r="3" fill="#2ca02c"/>
<circle cx="335.1" cy="306.0" r="3" fill="#2ca02c"/>
<circle cx="349.8" cy="297.3" r="3" fill="#2ca02c"/>
<circle cx="364.5" cy="269.3" r="3" fill="#2ca02c"/>
<circle cx="379.3" cy="299.0" r="3" fill="#2ca02c"/>
<circle cx="394.0" cy="267.5" r="3" fill="#2ca02c"/>
<circle cx="408.7" cy="275.1" r="3" fill="#2ca02c"/>
<circle cx="423.5" cy="303.3" r="3" fill="#2ca02c"/>
<circle cx="438.2" cy="253.3" r="3" fill="#2ca02c"/>
<circle cx="452.9" cy="280.5" r="3" fill="#2ca02c"/>
<circle cx="467.6" cy="282.8" r="3" fill="#2ca02c"/>
<circle cx="482.4" cy="272.0" r="3" fill="#2ca02c"/>
<circle cx="497.1" cy="296.7" r="3" fill="#2ca02c"/>
<circle cx="541.3" cy="299.6" r="3" fill="#2ca02c"/>
<circle cx="556.0" cy="301.6" r="3" fill="#2ca02c"/>
<circle cx="570.7" cy="312.5" r="3" fill="#2ca02c"/>
<circle cx="585.5" cy="300.5" r="3" fill="#2ca02c"/>
<circle cx="600.2" cy="169.3" r="3" fill="#2ca02c"/>
<circle cx="614.9" cy="296.2" r="3" fill="#2ca02c"/>
<circle cx="629.6" cy="240.3" r="3" fill="#2ca02c"/>
<circle cx="644.4" cy="307.0" r="3" fill="#2ca02c"/>
<circle cx="659.1" cy="310.0" r="3" fill="#2ca02c"/>
<circle cx="673.8" cy="275.8" r="3" fill="#2ca02c"/>
<circle cx="688.5" cy="305.7" r="3" fill="#2ca02c"/>
<circle cx="703.3" cy="304.6" r="3" fill="#2ca02c"/>
<circle cx="718.0" cy="303.7" r="3" fill="#2ca02c"/>
<circle cx="732.7" cy="297.4" r="3" fill="#2ca02c"/>
<circle cx="747.5" cy="297.4" r="3" fill="#2ca02c"/>
<circle cx="762.2" cy="306.8" r="3" fill="#2ca02c"/>
<circle cx="776.9" cy="306.3" r="3" fill="#2ca02c"/>
<circle cx="791.6" cy="305.5" r="3" fill="#2ca02c"/>
<circle cx="806.4" cy="293.1" r="3" fill="#2ca02c"/>
<circle cx="821.1" cy="303.2" r="3" fill="#2ca02c"/>
<circle cx="850.5" cy="301.0" r="3" fill="#2ca02c"/>
<circle cx="880.0" cy="307.2" r="3" fill="#2ca02c"/>
<rect x="475.0" y="358" width="10" height="10" fill="#2ca02c"/>
<text x="489.0" y="367" font-size="11" fill="#333">llm first sentence</text>
<polyline points="70.0,311.1 84.7,313.5 99.5,311.5 114.2,312.5 128.9,305.2 143.6,313.0 173.1,306.1 187.8,304.1 202.5,308.6 261.5,305.6 276.2,310.6 290.9,306.4 305.6,314.9 320.4,315.0 335.1,315.6 349.8,307.9 364.5,313.9 379.3,315.7 394.0,312.8 408.7,306.0 423.5,316.6 438.2,306.0 452.9,313.9 467.6,315.3 482.4,310.5 497.1,316.9 541.3,316.3 556.0,314.8 570.7,314.8 585.5,315.1 600.2,315.2 614.9,314.1 629.6,311.9 644.4,316.5 659.1,316.1 673.8,316.0 688.5,312.9 703.3,314.0 718.0,316.3 732.7,313.4 747.5,316.9 762.2,312.3 776.9,296.2 791.6,290.3 806.4,314.5 821.1,315.0 835.8,318.5 850.5,289.0 865.3,317.3 880.0,316.3" fill="none" stroke="#9467bd" stroke-width="2"/>
<circle cx="70.0" cy="311.1" r="3" fill="#9467bd"/>
<circle cx="84.7" cy="313.5" r="3" fill="#9467bd"/>
<circle cx="99.5" cy="311.5" r="3" fill="#9467bd"/>
<circle cx="114.2" cy="312.5" r="3" fill="#9467bd"/>
<circle cx="128.9" cy="305.2" r="3" fill="#9467bd"/>
<circle cx="143.6" cy="313.0" r="3" fill="#9467bd"/>
<circle cx="173.1" cy="306.1" r="3" fill="#9467bd"/>
<circle cx="187.8" cy="304.1" r="3" fill="#9467bd"/>
<circle cx="202.5" cy="308.6" r="3" fill="#9467bd"/>
<circle cx="261.5" cy="305.6" r="3" fill="#9467bd"/>
<circle cx="276.2" cy="310.6" r="3" fill="#9467bd"/>
<circle cx="290.9" cy="306.4" r="3" fill="#9467bd"/>
<circle cx="305.6" cy="314.9" r="3" fill="#9467bd"/>
<circle cx="320.4" cy="315.0" r="3" fill="#9467bd"/>
<circle cx="335.1" cy="315.6" r="3" fill="#9467bd"/>
<circle cx="349.8" cy="307.9" r="3" fill="#9467bd"/>
<circle cx="364.5" cy="313.9" r="3" fill="#9467bd"/>
<circle cx="379.3" cy="315.7" r="3" fill="#9467bd"/>
<circle cx="394.0" cy="312.8" r="3" fill="#9467bd"/>
<circle cx="408.7" cy="306.0" r="3" fill="#9467bd"/>
<circle cx="423.5" cy="316.6" r="3" fill="#9467bd"/>
<circle cx="438.2" cy="306.0" r="3" fill="#9467bd"/>
<circle cx="452.9" cy="313.9" r="3" fill="#9467bd"/>
<circle cx="467.6" cy="315.3" r="3" fill="#9467bd"/>
<circle cx="482.4" cy="310.5" r="3" fill="#9467bd"/>
<circle cx="497.1" cy="316.9" r="3" fill="#9467bd"/>
<circle cx="541.3" cy="316.3" r="3" fill="#9467bd"/>
<circle cx="556.0" cy="314.8" r="3" fill="#9467bd"/>
<circle cx="570.7" cy="314.8" r="3" fill="#9467bd"/>
<circle cx="585.5" cy="315.1" r="3" fill="#9467bd"/>
<circle cx="600.2" cy="315.2" r="3" fill="#9467bd"/>
<circle cx="614.9" cy="314.1" r="3" fill="#9467bd"/>
<circle cx="629.6" cy="311.9" r="3" fill="#9467bd"/>
<circle cx="644.4" cy="316.5" r="3" fill="#9467bd"/>
<circle cx="659.1" cy="316.1" r="3" fill="#9467bd"/>
<circle cx="673.8" cy="316.0" r="3" fill="#9467bd"/>
<circle cx="688.5" cy="312.9" r="3" fill="#9467bd"/>
<circle cx="703.3" cy="314.0" r="3" fill="#9467bd"/>
<circle cx="718.0" cy="316.3" r="3" fill="#9467bd"/>
<circle cx="732.7" cy="313.4" r="3" fill="#9467bd"/>
<circle cx="747.5" cy="316.9" r="3" fill="#9467bd"/>
<circle cx="762.2" cy="312.3" r="3" fill="#9467bd"/>
<circle cx="776.9" cy="296.2" r="3" fill="#9467bd"/>
<circle cx="791.6" cy="290.3" r="3" fill="#9467bd"/>
<circle cx="806.4" cy="314.5" r="3" fill="#9467bd"/>
<circle cx="821.1" cy="315.0" r="3" fill="#9467bd"/>
<circle cx="835.8" cy="318.5" r="3" fill="#9467bd"/>
<circle cx="850.5" cy="289.0" r="3" fill="#9467bd"/>
<circle cx="865.3" cy="317.3" r="3" fill="#9467bd"/>
<circle cx="880.0" cy="316.3" r="3" fill="#9467bd"/>
<rect x="610.0" y="358" width="10" height="10" fill="#9467bd"/>
<text x="624.0" y="367" font-size="11" fill="#333">lipsync first mouth</text>
<polyline points="202.5,318.5 261.5,314.7 276.2,318.1 290.9,318.0 305.6,318.8 320.4,312.5 335.1,318.8 349.8,314.5 364.5,318.9 379.3,318.7 394.0,311.9 408.7,318.2 423.5,318.5 438.2,311.1 452.9,317.5 467.6,317.9 482.4,316.7 497.1,318.9 541.3,318.7 556.0,318.6 570.7,318.2 585.5,318.2 600.2,318.6 614.9,317.8 629.6,318.8 644.4,318.3 659.1,318.3 673.8,319.3 688.5,315.9 703.3,318.6 718.0,319.7 732.7,317.7 747.5,319.3 762.2,319.1 776.9,320.4 791.6,320.3 806.4,318.2 821.1,319.1 835.8,318.8 850.5,319.7 865.3,316.8 880.0,319.5" fill="none" stroke="#8c564b" stroke-width="2"/>
<circle cx="202.5" cy="318.5" r="3" fill="#8c564b"/>
<circle cx="261.5" cy="314.7" r="3" fill="#8c564b"/>
<circle cx="276.2" cy="318.1" r="3" fill="#8c564b"/>
<circle cx="290.9" cy="318.0" r="3" fill="#8c564b"/>
<circle cx="305.6" cy="318.8" r="3" fill="#8c564b"/>
<circle cx="320.4" cy="312.5" r="3" fill="#8c564b"/>
<circle cx="335.1" cy="318.8" r="3" fill="#8c564b"/>
<circle cx="349.8" cy="314.5" r="3" fill="#8c564b"/>
<circle cx="364.5" cy="318.9" r="3" fill="#8c564b"/>
<circle cx="379.3" cy="318.7" r="3" fill="#8c564b"/>
<circle cx="394.0" cy="311.9" r="3" fill="#8c564b"/>
<circle cx="408.7" cy="318.2" r="3" fill="#8c564b"/>
<circle cx="423.5" cy="318.5" r="3" fill="#8c564b"/>
<circle cx="438.2" cy="311.1" r="3" fill="#8c564b"/>
<circle cx="452.9" cy="317.5" r="3" fill="#8c564b"/>
<circle cx="467.6" cy="317.9" r="3" fill="#8c564b"/>
<circle cx="482.4" cy="316.7" r="3" fill="#8c564b"/>
<circle cx="497.1" cy="318.9" r="3" fill="#8c564b"/>
<circle cx="541.3" cy="318.7" r="3" fill="#8c564b"/>
<circle cx="556.0" cy="318.6" r="3" fill="#8c564b"/>
<circle cx="570.7" cy="318.2" r="3" fill="#8c564b"/>
<circle cx="585.5" cy="318.2" r="3" fill="#8c564b"/>
<circle cx="600.2" cy="318.6" r="3" fill="#8c564b"/>
<circle cx="614.9" cy="317.8" r="3" fill="#8c564b"/>
<circle cx="629.6" cy="318.8" r="3" fill="#8c564b"/>
<circle cx="644.4" cy="318.3" r="3" fill="#8c564b"/>
<circle cx="659.1" cy="318.3" r="3" fill="#8c564b"/>
<circle cx="673.8" cy="319.3" r="3" fill="#8c564b"/>
<circle cx="688.5" cy="315.9" r="3" fill="#8c564b"/>
<circle cx="703.3" cy="318.6" r="3" fill="#8c564b"/>
<circle cx="718.0" cy="319.7" r="3" fill="#8c564b"/>
<circle cx="732.7" cy="317.7" r="3" fill="#8c564b"/>
<circle cx="747.5" cy="319.3" r="3" fill="#8c564b"/>
<circle cx="762.2" cy="319.1" r="3" fill="#8c564b"/>
<circle cx="776.9" cy="320.4" r="3" fill="#8c564b"/>
<circle cx="791.6" cy="320.3" r="3" fill="#8c564b"/>
<circle cx="806.4" cy="318.2" r="3" fill="#8c564b"/>
<circle cx="821.1" cy="319.1" r="3" fill="#8c564b"/>
<circle cx="835.8" cy="318.8" r="3" fill="#8c564b"/>
<circle cx="850.5" cy="319.7" r="3" fill="#8c564b"/>
<circle cx="865.3" cy="316.8" r="3" fill="#8c564b"/>
<circle cx="880.0" cy="319.5" r="3" fill="#8c564b"/>
<rect x="745.0" y="358" width="10" height="10" fill="#8c564b"/>
<text x="759.0" y="367" font-size="11" fill="#333">render tick p95</text>
</svg>
