<svg xmlns="http://www.w3.org/2000/svg" width="900" height="380" viewBox="0 0 900 380" font-family="sans-serif">
<rect width="900" height="380" fill="white"/>
<text x="70" y="24" font-size="16" fill="#333">Latency (ms, p50 unless noted) — lower is better</text>
<line x1="70" y1="324.0" x2="880" y2="324.0" stroke="#e5e5e5"/>
<text x="64" y="328.0" font-size="11" fill="#666" text-anchor="end">0ms</text>
<line x1="70" y1="268.0" x2="880" y2="268.0" stroke="#e5e5e5"/>
<text x="64" y="272.0" font-size="11" fill="#666" text-anchor="end">1481ms</text>
<line x1="70" y1="212.0" x2="880" y2="212.0" stroke="#e5e5e5"/>
<text x="64" y="216.0" font-size="11" fill="#666" text-anchor="end">2963ms</text>
<line x1="70" y1="156.0" x2="880" y2="156.0" stroke="#e5e5e5"/>
<text x="64" y="160.0" font-size="11" fill="#666" text-anchor="end">4444ms</text>
<line x1="70" y1="100.0" x2="880" y2="100.0" stroke="#e5e5e5"/>
<text x="64" y="104.0" font-size="11" fill="#666" text-anchor="end">5925ms</text>
<line x1="70" y1="44.0" x2="880" y2="44.0" stroke="#e5e5e5"/>
<text x="64" y="48.0" font-size="11" fill="#666" text-anchor="end">7407ms</text>
<text x="70.0" y="342" font-size="11" fill="#666" text-anchor="start">07-16 16:02</text>
<text x="475.0" y="342" font-size="11" fill="#666" text-anchor="middle">07-17 19:15</text>
<text x="880.0" y="342" font-size="11" fill="#666" text-anchor="end">07-18 18:08</text>
<polyline points="70.0,217.7 84.5,227.9 113.4,203.6 127.9,277.5 142.3,167.6 156.8,238.1 171.2,172.1 185.7,214.4 200.2,167.1 214.6,251.0 229.1,170.5 243.6,265.2 258.0,240.0 272.5,194.2 287.0,237.5 301.4,232.3 315.9,238.8 330.4,246.5 344.8,234.7 359.3,174.8 373.8,240.9 388.2,214.4 402.7,64.7 417.1,245.0 431.6,220.8 446.1,276.4 460.5,269.9 475.0,274.6 489.5,281.8 503.9,316.3 518.4,285.1 532.9,292.2 547.3,283.0 561.8,300.1 576.2,293.0 590.7,206.2 605.2,292.0 619.6,223.6 634.1,294.7 648.6,296.4 663.0,260.6 677.5,292.8 692.0,290.2 706.4,290.1 720.9,286.4 735.4,287.0 749.8,292.4 764.3,292.8 778.8,290.6 793.2,279.0 807.7,291.3 822.1,279.4 836.6,293.4 851.1,276.0 865.5,284.7 880.0,292.0" fill="none" stroke="#d62728" stroke-width="2"/>
<circle cx="70.0" cy="217.7" r="3" fill="#d62728"/>
<circle cx="84.5" cy="227.9" r="3" fill="#d62728"/>
<circle cx="113.4" cy="203.6" r="3" fill="#d62728"/>
<circle cx="127.9" cy="277.5" r="3" fill="#d62728"/>
<circle cx="142.3" cy="167.6" r="3" fill="#d62728"/>
<circle cx="156.8" cy="238.1" r="3" fill="#d62728"/>
<circle cx="171.2" cy="172.1" r="3" fill="#d62728"/>
<circle cx="185.7" cy="214.4" r="3" fill="#d62728"/>
<circle cx="200.2" cy="167.1" r="3" fill="#d62728"/>
<circle cx="214.6" cy="251.0" r="3" fill="#d62728"/>
<circle cx="229.1" cy="170.5" r="3" fill="#d62728"/>
<circle cx="243.6" cy="265.2" r="3" fill="#d62728"/>
<circle cx="258.0" cy="240.0" r="3" fill="#d62728"/>
<circle cx="272.5" cy="194.2" r="3" fill="#d62728"/>
<circle cx="287.0" cy="237.5" r="3" fill="#d62728"/>
<circle cx="301.4" cy="232.3" r="3" fill="#d62728"/>
<circle cx="315.9" cy="238.8" r="3" fill="#d62728"/>
<circle cx="330.4" cy="246.5" r="3" fill="#d62728"/>
<circle cx="344.8" cy="234.7" r="3" fill="#d62728"/>
<circle cx="359.3" cy="174.8" r="3" fill="#d62728"/>
<circle cx="373.8" cy="240.9" r="3" fill="#d62728"/>
<circle cx="388.2" cy="214.4" r="3" fill="#d62728"/>
<circle cx="402.7" cy="64.7" r="3" fill="#d62728"/>
<circle cx="417.1" cy="245.0" r="3" fill="#d62728"/>
<circle cx="431.6" cy="220.8" r="3" fill="#d62728"/>
<circle cx="446.1" cy="276.4" r="3" fill="#d62728"/>
<circle cx="460.5" cy="269.9" r="3" fill="#d62728"/>
<circle cx="475.0" cy="274.6" r="3" fill="#d62728"/>
<circle cx="489.5" cy="281.8" r="3" fill="#d62728"/>
<circle cx="503.9" cy="316.3" r="3" fill="#d62728"/>
<circle cx="518.4" cy="285.1" r="3" fill="#d62728"/>
<circle cx="532.9" cy="292.2" r="3" fill="#d62728"/>
<circle cx="547.3" cy="283.0" r="3" fill="#d62728"/>
<circle cx="561.8" cy="300.1" r="3" fill="#d62728"/>
<circle cx="576.2" cy="293.0" r="3" fill="#d62728"/>
<circle cx="590.7" cy="206.2" r="3" fill="#d62728"/>
<circle cx="605.2" cy="292.0" r="3" fill="#d62728"/>
<circle cx="619.6" cy="223.6" r="3" fill="#d62728"/>
<circle cx="634.1" cy="294.7" r="3" fill="#d62728"/>
<circle cx="648.6" cy="296.4" r="3" fill="#d62728"/>
<circle cx="663.0" cy="260.6" r="3" fill="#d62728"/>
<circle cx="677.5" cy="292.8" r="3" fill="#d62728"/>
<circle cx="692.0" cy="290.2" r="3" fill="#d62728"/>
<circle cx="706.4" cy="290.1" r="3" fill="#d62728"/>
<circle cx="720.9" cy="286.4" r="3" fill="#d62728"/>
<circle cx="735.4" cy="287.0" r="3" fill="#d62728"/>
<circle cx="749.8" cy="292.4" r="3" fill="#d62728"/>
<circle cx="764.3" cy="292.8" r="3" fill="#d62728"/>
<circle cx="778.8" cy="290.6" r="3" fill="#d62728"/>
<circle cx="793.2" cy="279.0" r="3" fill="#d62728"/>
<circle cx="807.7" cy="291.3" r="3" fill="#d62728"/>
<circle cx="822.1" cy="279.4" r="3" fill="#d62728"/>
<circle cx="836.6" cy="293.4" r="3" fill="#d62728"/>
<circle cx="851.1" cy="276.0" r="3" fill="#d62728"/>
<circle cx="865.5" cy="284.7" r="3" fill="#d62728"/>
<circle cx="880.0" cy="292.0" r="3" fill="#d62728"/>
<rect x="70.0" y="358" width="10" height="10" fill="#d62728"/>
<text x="84.0" y="367" font-size="11" fill="#333">first audio (e2e)</text>
<polyline points="200.2,215.3 258.0,199.1 272.5,224.4 287.0,176.9 301.4,267.6 315.9,239.5 330.4,283.5 344.8,244.5 359.3,260.4 373.8,246.2 388.2,245.6 402.7,201.1 417.1,299.9 431.6,252.0 446.1,317.9 460.5,317.8 475.0,317.5 489.5,318.0 532.9,318.3 547.3,317.4 561.8,317.8 576.2,318.6 590.7,317.8 605.2,318.2 619.6,317.3 634.1,317.7 648.6,319.0 663.0,318.6 677.5,317.0 692.0,317.8 706.4,318.5 720.9,317.4 735.4,317.7 749.8,317.1 764.3,300.8 778.8,295.2 793.2,317.5 807.7,317.1 836.6,295.5 865.5,319.0 880.0,303.2" fill="none" stroke="#1f77b4" stroke-width="2"/>
<circle cx="200.2" cy="215.3" r="3" fill="#1f77b4"/>
<circle cx="258.0" cy="199.1" r="3" fill="#1f77b4"/>
<circle cx="272.5" cy="224.4" r="3" fill="#1f77b4"/>
<circle cx="287.0" cy="176.9" r="3" fill="#1f77b4"/>
<circle cx="301.4" cy="267.6" r="3" fill="#1f77b4"/>
<circle cx="315.9" cy="239.5" r="3" fill="#1f77b4"/>
<circle cx="330.4" cy="283.5" r="3" fill="#1f77b4"/>
<circle cx="344.8" cy="244.5" r="3" fill="#1f77b4"/>
<circle cx="359.3" cy="260.4" r="3" fill="#1f77b4"/>
<circle cx="373.8" cy="246.2" r="3" fill="#1f77b4"/>
<circle cx="388.2" cy="245.6" r="3" fill="#1f77b4"/>
<circle cx="402.7" cy="201.1" r="3" fill="#1f77b4"/>
<circle cx="417.1" cy="299.9" r="3" fill="#1f77b4"/>
<circle cx="431.6" cy="252.0" r="3" fill="#1f77b4"/>
<circle cx="446.1" cy="317.9" r="3" fill="#1f77b4"/>
<circle cx="460.5" cy="317.8" r="3" fill="#1f77b4"/>
<circle cx="475.0" cy="317.5" r="3" fill="#1f77b4"/>
<circle cx="489.5" cy="318.0" r="3" fill="#1f77b4"/>
<circle cx="532.9" cy="318.3" r="3" fill="#1f77b4"/>
<circle cx="547.3" cy="317.4" r="3" fill="#1f77b4"/>
<circle cx="561.8" cy="317.8" r="3" fill="#1f77b4"/>
<circle cx="576.2" cy="318.6" r="3" fill="#1f77b4"/>
<circle cx="590.7" cy="317.8" r="3" fill="#1f77b4"/>
<circle cx="605.2" cy="318.2" r="3" fill="#1f77b4"/>
<circle cx="619.6" cy="317.3" r="3" fill="#1f77b4"/>
<circle cx="634.1" cy="317.7" r="3" fill="#1f77b4"/>
<circle cx="648.6" cy="319.0" r="3" fill="#1f77b4"/>
<circle cx="663.0" cy="318.6" r="3" fill="#1f77b4"/>
<circle cx="677.5" cy="317.0" r="3" fill="#1f77b4"/>
<circle cx="692.0" cy="317.8" r="3" fill="#1f77b4"/>
<circle cx="706.4" cy="318.5" r="3" fill="#1f77b4"/>
<circle cx="720.9" cy="317.4" r="3" fill="#1f77b4"/>
<circle cx="735.4" cy="317.7" r="3" fill="#1f77b4"/>
<circle cx="749.8" cy="317.1" r="3" fill="#1f77b4"/>
<circle cx="764.3" cy="300.8" r="3" fill="#1f77b4"/>
<circle cx="778.8" cy="295.2" r="3" fill="#1f77b4"/>
<circle cx="793.2" cy="317.5" r="3" fill="#1f77b4"/>
<circle cx="807.7" cy="317.1" r="3" fill="#1f77b4"/>
<circle cx="836.6" cy="295.5" r="3" fill="#1f77b4"/>
<circle cx="865.5" cy="319.0" r="3" fill="#1f77b4"/>
<circle cx="880.0" cy="303.2" r="3" fill="#1f77b4"/>
<rect x="205.0" y="358" width="10" height="10" fill="#1f77b4"/>
<text x="219.0" y="367" font-size="11" fill="#333">tts first chunk</text>
<polyline points="200.2,298.0 258.0,298.0 272.5,307.7 315.9,287.9 330.4,307.5 344.8,307.7 373.8,300.5 388.2,298.4 417.1,304.7 431.6,305.1 446.1,306.6 460.5,304.3 475.0,291.3 532.9,304.1 590.7,262.6 634.1,311.0 648.6,312.2 663.0,308.2 706.4,308.0 764.3,313.3 778.8,311.0 793.2,307.6 807.7,306.7 836.6,306.4 865.5,310.3 880.0,313.1" fill="none" stroke="#ff7f0e" stroke-width="2"/>
<circle cx="200.2" cy="298.0" r="3" fill="#ff7f0e"/>
<circle cx="258.0" cy="298.0" r="3" fill="#ff7f0e"/>
<circle cx="272.5" cy="307.7" r="3" fill="#ff7f0e"/>
<circle cx="315.9" cy="287.9" r="3" fill="#ff7f0e"/>
<circle cx="330.4" cy="307.5" r="3" fill="#ff7f0e"/>
<circle cx="344.8" cy="307.7" r="3" fill="#ff7f0e"/>
<circle cx="373.8" cy="300.5" r="3" fill="#ff7f0e"/>
<circle cx="388.2" cy="298.4" r="3" fill="#ff7f0e"/>
<circle cx="417.1" cy="304.7" r="3" fill="#ff7f0e"/>
<circle cx="431.6" cy="305.1" r="3" fill="#ff7f0e"/>
<circle cx="446.1" cy="306.6" r="3" fill="#ff7f0e"/>
<circle cx="460.5" cy="304.3" r="3" fill="#ff7f0e"/>
<circle cx="475.0" cy="291.3" r="3" fill="#ff7f0e"/>
<circle cx="532.9" cy="304.1" r="3" fill="#ff7f0e"/>
<circle cx="590.7" cy="262.6" r="3" fill="#ff7f0e"/>
<circle cx="634.1" cy="311.0" r="3" fill="#ff7f0e"/>
<circle cx="648.6" cy="312.2" r="3" fill="#ff7f0e"/>
<circle cx="663.0" cy="308.2" r="3" fill="#ff7f0e"/>
<circle cx="706.4" cy="308.0" r="3" fill="#ff7f0e"/>
<circle cx="764.3" cy="313.3" r="3" fill="#ff7f0e"/>
<circle cx="778.8" cy="311.0" r="3" fill="#ff7f0e"/>
<circle cx="793.2" cy="307.6" r="3" fill="#ff7f0e"/>
<circle cx="807.7" cy="306.7" r="3" fill="#ff7f0e"/>
<circle cx="836.6" cy="306.4" r="3" fill="#ff7f0e"/>
<circle cx="865.5" cy="310.3" r="3" fill="#ff7f0e"/>
<circle cx="880.0" cy="313.1" r="3" fill="#ff7f0e"/>
<rect x="340.0" y="358" width="10" height="10" fill="#ff7f0e"/>
<text x="354.0" y="367" font-size="11" fill="#333">llm ttft</text>
<polyline points="70.0,297.1 84.5,301.1 113.4,298.1 127.9,298.0 142.3,303.1 171.2,274.4 185.7,281.5 200.2,241.9 258.0,243.2 272.5,286.5 287.0,268.6 301.4,306.2 315.9,280.2 330.4,306.0 344.8,297.3 359.3,269.3 373.8,299.0 388.2,267.5 402.7,275.1 417.1,303.3 431.6,253.3 446.1,280.5 460.5,282.8 475.0,272.0 489.5,296.7 532.9,299.6 547.3,301.6 561.8,312.5 576.2,300.5 590.7,169.3 605.2,296.2 619.6,240.3 634.1,307.0 648.6,310.0 663.0,275.8 677.5,305.7 692.0,304.6 706.4,303.7 720.9,297.4 735.4,297.4 749.8,306.8 764.3,306.3 778.8,305.5 793.2,293.1 807.7,303.2 836.6,301.0 865.5,307.2 880.0,305.8" fill="none" stroke="#2ca02c" stroke-width="2"/>
<circle cx="70.0" cy="297.1" r="3" fill="#2ca02c"/>
<circle cx="84.5" cy="301.1" r="3" fill="#2ca02c"/>
<circle cx="113.4" cy="298.1" r="3" fill="#2ca02c"/>
<circle cx="127.9" cy="298.0" r="3" fill="#2ca02c"/>
<circle cx="142.3" cy="303.1" r="3" fill="#2ca02c"/>
<circle cx="171.2" cy="274.4" r="3" fill="#2ca02c"/>
<circle cx="185.7" cy="281.5" r="3" fill="#2ca02c"/>
<circle cx="200.2" cy="241.9" r="3" fill="#2ca02c"/>
<circle cx="258.0" cy="243.2" r="3" fill="#2ca02c"/>
<circle cx="272.5" cy="286.5" r="3" fill="#2ca02c"/>
<circle cx="287.0" cy="268.6" r="3" fill="#2ca02c"/>
<circle cx="301.4" cy="306.2" r="3" fill="#2ca02c"/>
<circle cx="315.9" cy="280.2" r="3" fill="#2ca02c"/>
<circle cx="330.4" cy="306.0" r="3" fill="#2ca02c"/>
<circle cx="344.8" cy="297.3" r="3" fill="#2ca02c"/>
<circle cx="359.3" cy="269.3" r="3" fill="#2ca02c"/>
<circle cx="373.8" cy="299.0" r="3" fill="#2ca02c"/>
<circle cx="388.2" cy="267.5" r="3" fill="#2ca02c"/>
<circle cx="402.7" cy="275.1" r="3" fill="#2ca02c"/>
<circle cx="417.1" cy="303.3" r="3" fill="#2ca02c"/>
<circle cx="431.6" cy="253.3" r="3" fill="#2ca02c"/>
<circle cx="446.1" cy="280.5" r="3" fill="#2ca02c"/>
<circle cx="460.5" cy="282.8" r="3" fill="#2ca02c"/>
<circle cx="475.0" cy="272.0" r="3" fill="#2ca02c"/>
<circle cx="489.5" cy="296.7" r="3" fill="#2ca02c"/>
<circle cx="532.9" cy="299.6" r="3" fill="#2ca02c"/>
<circle cx="547.3" cy="301.6" r="3" fill="#2ca02c"/>
<circle cx="561.8" cy="312.5" r="3" fill="#2ca02c"/>
<circle cx="576.2" cy="300.5" r="3" fill="#2ca02c"/>
<circle cx="590.7" cy="169.3" r="3" fill="#2ca02c"/>
<circle cx="605.2" cy="296.2" r="3" fill="#2ca02c"/>
<circle cx="619.6" cy="240.3" r="3" fill="#2ca02c"/>
<circle cx="634.1" cy="307.0" r="3" fill="#2ca02c"/>
<circle cx="648.6" cy="310.0" r="3" fill="#2ca02c"/>
<circle cx="663.0" cy="275.8" r="3" fill="#2ca02c"/>
<circle cx="677.5" cy="305.7" r="3" fill="#2ca02c"/>
<circle cx="692.0" cy="304.6" r="3" fill="#2ca02c"/>
<circle cx="706.4" cy="303.7" r="3" fill="#2ca02c"/>
<circle cx="720.9" cy="297.4" r="3" fill="#2ca02c"/>
<circle cx="735.4" cy="297.4" r="3" fill="#2ca02c"/>
<circle cx="749.8" cy="306.8" r="3" fill="#2ca02c"/>
<circle cx="764.3" cy="306.3" r="3" fill="#2ca02c"/>
<circle cx="778.8" cy="305.5" r="3" fill="#2ca02c"/>
<circle cx="793.2" cy="293.1" r="3" fill="#2ca02c"/>
<circle cx="807.7" cy="303.2" r="3" fill="#2ca02c"/>
<circle cx="836.6" cy="301.0" r="3" fill="#2ca02c"/>
<circle cx="865.5" cy="307.2" r="3" fill="#2ca02c"/>
<circle cx="880.0" cy="305.8" r="3" fill="#2ca02c"/>
<rect x="475.0" y="358" width="10" height="10" fill="#2ca02c"/>
<text x="489.0" y="367" font-size="11" fill="#333">llm first sentence</text>
<polyline points="70.0,311.1 84.5,313.5 98.9,311.5 113.4,312.5 127.9,305.2 142.3,313.0 171.2,306.1 185.7,304.1 200.2,308.6 258.0,305.6 272.5,310.6 287.0,306.4 301.4,314.9 315.9,315.0 330.4,315.6 344.8,307.9 359.3,313.9 373.8,315.7 388.2,312.8 402.7,306.0 417.1,316.6 431.6,306.0 446.1,313.9 460.5,315.3 475.0,310.5 489.5,316.9 532.9,316.3 547.3,314.8 561.8,314.8 576.2,315.1 590.7,315.2 605.2,314.1 619.6,311.9 634.1,316.5 648.6,316.1 663.0,316.0 677.5,312.9 692.0,314.0 706.4,316.3 720.9,313.4 735.4,316.9 749.8,312.3 764.3,296.2 778.8,290.3 793.2,314.5 807.7,315.0 822.1,318.5 836.6,289.0 851.1,317.3 865.5,316.3 880.0,297.7" fill="none" stroke="#9467bd" stroke-width="2"/>
<circle cx="70.0" cy="311.1" r="3" fill="#9467bd"/>
<circle cx="84.5" cy="313.5" r="3" fill="#9467bd"/>
<circle cx="98.9" cy="311.5" r="3" fill="#9467bd"/>
<circle cx="113.4" cy="312.5" r="3" fill="#9467bd"/>
<circle cx="127.9" cy="305.2" r="3" fill="#9467bd"/>
<circle cx="142.3" cy="313.0" r="3" fill="#9467bd"/>
<circle cx="171.2" cy="306.1" r="3" fill="#9467bd"/>
<circle cx="185.7" cy="304.1" r="3" fill="#9467bd"/>
<circle cx="200.2" cy="308.6" r="3" fill="#9467bd"/>
<circle cx="258.0" cy="305.6" r="3" fill="#9467bd"/>
<circle cx="272.5" cy="310.6" r="3" fill="#9467bd"/>
<circle cx="287.0" cy="306.4" r="3" fill="#9467bd"/>
<circle cx="301.4" cy="314.9" r="3" fill="#9467bd"/>
<circle cx="315.9" cy="315.0" r="3" fill="#9467bd"/>
<circle cx="330.4" cy="315.6" r="3" fill="#9467bd"/>
<circle cx="344.8" cy="307.9" r="3" fill="#9467bd"/>
<circle cx="359.3" cy="313.9" r="3" fill="#9467bd"/>
<circle cx="373.8" cy="315.7" r="3" fill="#9467bd"/>
<circle cx="388.2" cy="312.8" r="3" fill="#9467bd"/>
<circle cx="402.7" cy="306.0" r="3" fill="#9467bd"/>
<circle cx="417.1" cy="316.6" r="3" fill="#9467bd"/>
<circle cx="431.6" cy="306.0" r="3" fill="#9467bd"/>
<circle cx="446.1" cy="313.9" r="3" fill="#9467bd"/>
<circle cx="460.5" cy="315.3" r="3" fill="#9467bd"/>
<circle cx="475.0" cy="310.5" r="3" fill="#9467bd"/>
<circle cx="489.5" cy="316.9" r="3" fill="#9467bd"/>
<circle cx="532.9" cy="316.3" r="3" fill="#9467bd"/>
<circle cx="547.3" cy="314.8" r="3" fill="#9467bd"/>
<circle cx="561.8" cy="314.8" r="3" fill="#9467bd"/>
<circle cx="576.2" cy="315.1" r="3" fill="#9467bd"/>
<circle cx="590.7" cy="315.2" r="3" fill="#9467bd"/>
<circle cx="605.2" cy="314.1" r="3" fill="#9467bd"/>
<circle cx="619.6" cy="311.9" r="3" fill="#9467bd"/>
<circle cx="634.1" cy="316.5" r="3" fill="#9467bd"/>
<circle cx="648.6" cy="316.1" r="3" fill="#9467bd"/>
<circle cx="663.0" cy="316.0" r="3" fill="#9467bd"/>
<circle cx="677.5" cy="312.9" r="3" fill="#9467bd"/>
<circle cx="692.0" cy="314.0" r="3" fill="#9467bd"/>
<circle cx="706.4" cy="316.3" r="3" fill="#9467bd"/>
<circle cx="720.9" cy="313.4" r="3" fill="#9467bd"/>
<circle cx="735.4" cy="316.9" r="3" fill="#9467bd"/>
<circle cx="749.8" cy="312.3" r="3" fill="#9467bd"/>
<circle cx="764.3" cy="296.2" r="3" fill="#9467bd"/>
<circle cx="778.8" cy="290.3" r="3" fill="#9467bd"/>
<circle cx="793.2" cy="314.5" r="3" fill="#9467bd"/>
<circle cx="807.7" cy="315.0" r="3" fill="#9467bd"/>
<circle cx="822.1" cy="318.5" r="3" fill="#9467bd"/>
<circle cx="836.6" cy="289.0" r="3" fill="#9467bd"/>
<circle cx="851.1" cy="317.3" r="3" fill="#9467bd"/>
<circle cx="865.5" cy="316.3" r="3" fill="#9467bd"/>
<circle cx="880.0" cy="297.7" r="3" fill="#9467bd"/>
<rect x="610.0" y="358" width="10" height="10" fill="#9467bd"/>
<text x="624.0" y="367" font-size="11" fill="#333">lipsync first mouth</text>
<polyline points="200.2,318.5 258.0,314.7 272.5,318.1 287.0,318.0 301.4,318.8 315.9,312.5 330.4,318.8 344.8,314.5 359.3,318.9 373.8,318.7 388.2,311.9 402.7,318.2 417.1,318.5 431.6,311.1 446.1,317.5 460.5,317.9 475.0,316.7 489.5,318.9 532.9,318.7 547.3,318.6 561.8,318.2 576.2,318.2 590.7,318.6 605.2,317.8 619.6,318.8 634.1,318.3 648.6,318.3 663.0,319.3 677.5,315.9 692.0,318.6 706.4,319.7 720.9,317.7 735.4,319.3 749.8,319.1 764.3,320.4 778.8,320.3 793.2,318.2 807.7,319.1 822.1,318.8 836.6,319.7 851.1,316.8 865.5,319.5 880.0,319.7" fill="none" stroke="#8c564b" stroke-width="2"/>
<circle cx="200.2" cy="318.5" r="3" fill="#8c564b"/>
<circle cx="258.0" cy="314.7" r="3" fill="#8c564b"/>
<circle cx="272.5" cy="318.1" r="3" fill="#8c564b"/>
<circle cx="287.0" cy="318.0" r="3" fill="#8c564b"/>
<circle cx="301.4" cy="318.8" r="3" fill="#8c564b"/>
<circle cx="315.9" cy="312.5" r="3" fill="#8c564b"/>
<circle cx="330.4" cy="318.8" r="3" fill="#8c564b"/>
<circle cx="344.8" cy="314.5" r="3" fill="#8c564b"/>
<circle cx="359.3" cy="318.9" r="3" fill="#8c564b"/>
<circle cx="373.8" cy="318.7" r="3" fill="#8c564b"/>
<circle cx="388.2" cy="311.9" r="3" fill="#8c564b"/>
<circle cx="402.7" cy="318.2" r="3" fill="#8c564b"/>
<circle cx="417.1" cy="318.5" r="3" fill="#8c564b"/>
<circle cx="431.6" cy="311.1" r="3" fill="#8c564b"/>
<circle cx="446.1" cy="317.5" r="3" fill="#8c564b"/>
<circle cx="460.5" cy="317.9" r="3" fill="#8c564b"/>
<circle cx="475.0" cy="316.7" r="3" fill="#8c564b"/>
<circle cx="489.5" cy="318.9" r="3" fill="#8c564b"/>
<circle cx="532.9" cy="318.7" r="3" fill="#8c564b"/>
<circle cx="547.3" cy="318.6" r="3" fill="#8c564b"/>
<circle cx="561.8" cy="318.2" r="3" fill="#8c564b"/>
<circle cx="576.2" cy="318.2" r="3" fill="#8c564b"/>
<circle cx="590.7" cy="318.6" r="3" fill="#8c564b"/>
<circle cx="605.2" cy="317.8" r="3" fill="#8c564b"/>
<circle cx="619.6" cy="318.8" r="3" fill="#8c564b"/>
<circle cx="634.1" cy="318.3" r="3" fill="#8c564b"/>
<circle cx="648.6" cy="318.3" r="3" fill="#8c564b"/>
<circle cx="663.0" cy="319.3" r="3" fill="#8c564b"/>
<circle cx="677.5" cy="315.9" r="3" fill="#8c564b"/>
<circle cx="692.0" cy="318.6" r="3" fill="#8c564b"/>
<circle cx="706.4" cy="319.7" r="3" fill="#8c564b"/>
<circle cx="720.9" cy="317.7" r="3" fill="#8c564b"/>
<circle cx="735.4" cy="319.3" r="3" fill="#8c564b"/>
<circle cx="749.8" cy="319.1" r="3" fill="#8c564b"/>
<circle cx="764.3" cy="320.4" r="3" fill="#8c564b"/>
<circle cx="778.8" cy="320.3" r="3" fill="#8c564b"/>
<circle cx="793.2" cy="318.2" r="3" fill="#8c564b"/>
<circle cx="807.7" cy="319.1" r="3" fill="#8c564b"/>
<circle cx="822.1" cy="318.8" r="3" fill="#8c564b"/>
<circle cx="836.6" cy="319.7" r="3" fill="#8c564b"/>
<circle cx="851.1" cy="316.8" r="3" fill="#8c564b"/>
<circle cx="865.5" cy="319.5" r="3" fill="#8c564b"/>
<circle cx="880.0" cy="319.7" r="3" fill="#8c564b"/>
<rect x="745.0" y="358" width="10" height="10" fill="#8c564b"/>
<text x="759.0" y="367" font-size="11" fill="#333">render tick p95</text>
</svg>
