<svg xmlns="http://www.w3.org/2000/svg" width="900" height="380" viewBox="0 0 900 380" font-family="sans-serif">
<rect width="900" height="380" fill="white"/>
<text x="70" y="24" font-size="16" fill="#333">Latency (ms, p50 unless noted) — lower is better</text>
<line x1="70" y1="324.0" x2="880" y2="324.0" stroke="#e5e5e5"/>
<text x="64" y="328.0" font-size="11" fill="#666" text-anchor="end">0ms</text>
<line x1="70" y1="268.0" x2="880" y2="268.0" stroke="#e5e5e5"/>
<text x="64" y="272.0" font-size="11" fill="#666" text-anchor="end">1481ms</text>
<line x1="70" y1="212.0" x2="880" y2="212.0" stroke="#e5e5e5"/>
<text x="64" y="216.0" font-size="11" fill="#666" text-anchor="end">2963ms</text>
<line x1="70" y1="156.0" x2="880" y2="156.0" stroke="#e5e5e5"/>
<text x="64" y="160.0" font-size="11" fill="#666" text-anchor="end">4444ms</text>
<line x1="70" y1="100.0" x2="880" y2="100.0" stroke="#e5e5e5"/>
<text x="64" y="104.0" font-size="11" fill="#666" text-anchor="end">5925ms</text>
<line x1="70" y1="44.0" x2="880" y2="44.0" stroke="#e5e5e5"/>
<text x="64" y="48.0" font-size="11" fill="#666" text-anchor="end">7407ms</text>
<text x="70.0" y="342" font-size="11" fill="#666" text-anchor="start">07-16 16:02</text>
<text x="475.0" y="342" font-size="11" fill="#666" text-anchor="middle">07-17 19:01</text>
<text x="880.0" y="342" font-size="11" fill="#666" text-anchor="end">07-18 10:24</text>
<polyline points="70.0,217.7 85.0,227.9 115.0,203.6 130.0,277.5 145.0,167.6 160.0,238.1 175.0,172.1 190.0,214.4 205.0,167.1 220.0,251.0 235.0,170.5 250.0,265.2 265.0,240.0 280.0,194.2 295.0,237.5 310.0,232.3 325.0,238.8 340.0,246.5 355.0,234.7 370.0,174.8 385.0,240.9 400.0,214.4 415.0,64.7 430.0,245.0 445.0,220.8 460.0,276.4 475.0,269.9 490.0,274.6 505.0,281.8 520.0,316.3 535.0,285.1 550.0,292.2 565.0,283.0 580.0,300.1 595.0,293.0 610.0,206.2 625.0,292.0 640.0,223.6 655.0,294.7 670.0,296.4 685.0,260.6 700.0,292.8 715.0,290.2 730.0,290.1 745.0,286.4 760.0,287.0 775.0,292.4 790.0,292.8 805.0,290.6 820.0,279.0 835.0,291.3 850.0,279.4 865.0,293.4 880.0,276.0" fill="none" stroke="#d62728" stroke-width="2"/>
<circle cx="70.0" cy="217.7" r="3" fill="#d62728"/>
<circle cx="85.0" cy="227.9" r="3" fill="#d62728"/>
<circle cx="115.0" cy="203.6" r="3" fill="#d62728"/>
<circle cx="130.0" cy="277.5" r="3" fill="#d62728"/>
<circle cx="145.0" cy="167.6" r="3" fill="#d62728"/>
<circle cx="160.0" cy="238.1" r="3" fill="#d62728"/>
<circle cx="175.0" cy="172.1" r="3" fill="#d62728"/>
<circle cx="190.0" cy="214.4" r="3" fill="#d62728"/>
<circle cx="205.0" cy="167.1" r="3" fill="#d62728"/>
<circle cx="220.0" cy="251.0" r="3" fill="#d62728"/>
<circle cx="235.0" cy="170.5" r="3" fill="#d62728"/>
<circle cx="250.0" cy="265.2" r="3" fill="#d62728"/>
<circle cx="265.0" cy="240.0" r="3" fill="#d62728"/>
<circle cx="280.0" cy="194.2" r="3" fill="#d62728"/>
<circle cx="295.0" cy="237.5" r="3" fill="#d62728"/>
<circle cx="310.0" cy="232.3" r="3" fill="#d62728"/>
<circle cx="325.0" cy="238.8" r="3" fill="#d62728"/>
<circle cx="340.0" cy="246.5" r="3" fill="#d62728"/>
<circle cx="355.0" cy="234.7" r="3" fill="#d62728"/>
<circle cx="370.0" cy="174.8" r="3" fill="#d62728"/>
<circle cx="385.0" cy="240.9" r="3" fill="#d62728"/>
<circle cx="400.0" cy="214.4" r="3" fill="#d62728"/>
<circle cx="415.0" cy="64.7" r="3" fill="#d62728"/>
<circle cx="430.0" cy="245.0" r="3" fill="#d62728"/>
<circle cx="445.0" cy="220.8" r="3" fill="#d62728"/>
<circle cx="460.0" cy="276.4" r="3" fill="#d62728"/>
<circle cx="475.0" cy="269.9" r="3" fill="#d62728"/>
<circle cx="490.0" cy="274.6" r="3" fill="#d62728"/>
<circle cx="505.0" cy="281.8" r="3" fill="#d62728"/>
<circle cx="520.0" cy="316.3" r="3" fill="#d62728"/>
<circle cx="535.0" cy="285.1" r="3" fill="#d62728"/>
<circle cx="550.0" cy="292.2" r="3" fill="#d62728"/>
<circle cx="565.0" cy="283.0" r="3" fill="#d62728"/>
<circle cx="580.0" cy="300.1" r="3" fill="#d62728"/>
<circle cx="595.0" cy="293.0" r="3" fill="#d62728"/>
<circle cx="610.0" cy="206.2" r="3" fill="#d62728"/>
<circle cx="625.0" cy="292.0" r="3" fill="#d62728"/>
<circle cx="640.0" cy="223.6" r="3" fill="#d62728"/>
<circle cx="655.0" cy="294.7" r="3" fill="#d62728"/>
<circle cx="670.0" cy="296.4" r="3" fill="#d62728"/>
<circle cx="685.0" cy="260.6" r="3" fill="#d62728"/>
<circle cx="700.0" cy="292.8" r="3" fill="#d62728"/>
<circle cx="715.0" cy="290.2" r="3" fill="#d62728"/>
<circle cx="730.0" cy="290.1" r="3" fill="#d62728"/>
<circle cx="745.0" cy="286.4" r="3" fill="#d62728"/>
<circle cx="760.0" cy="287.0" r="3" fill="#d62728"/>
<circle cx="775.0" cy="292.4" r="3" fill="#d62728"/>
<circle cx="790.0" cy="292.8" r="3" fill="#d62728"/>
<circle cx="805.0" cy="290.6" r="3" fill="#d62728"/>
<circle cx="820.0" cy="279.0" r="3" fill="#d62728"/>
<circle cx="835.0" cy="291.3" r="3" fill="#d62728"/>
<circle cx="850.0" cy="279.4" r="3" fill="#d62728"/>
<circle cx="865.0" cy="293.4" r="3" fill="#d62728"/>
<circle cx="880.0" cy="276.0" r="3" fill="#d62728"/>
<rect x="70.0" y="358" width="10" height="10" fill="#d62728"/>
<text x="84.0" y="367" font-size="11" fill="#333">first audio (e2e)</text>
<polyline points="205.0,215.3 265.0,199.1 280.0,224.4 295.0,176.9 310.0,267.6 325.0,239.5 340.0,283.5 355.0,244.5 370.0,260.4 385.0,246.2 400.0,245.6 415.0,201.1 430.0,299.9 445.0,252.0 460.0,317.9 475.0,317.8 490.0,317.5 505.0,318.0 550.0,318.3 565.0,317.4 580.0,317.8 595.0,318.6 610.0,317.8 625.0,318.2 640.0,317.3 655.0,317.7 670.0,319.0 685.0,318.6 700.0,317.0 715.0,317.8 730.0,318.5 745.0,317.4 760.0,317.7 775.0,317.1 790.0,300.8 805.0,295.2 820.0,317.5 835.0,317.1 865.0,295.5" fill="none" stroke="#1f77b4" stroke-width="2"/>
<circle cx="205.0" cy="215.3" r="3" fill="#1f77b4"/>
<circle cx="265.0" cy="199.1" r="3" fill="#1f77b4"/>
<circle cx="280.0" cy="224.4" r="3" fill="#1f77b4"/>
<circle cx="295.0" cy="176.9" r="3" fill="#1f77b4"/>
<circle cx="310.0" cy="267.6" r="3" fill="#1f77b4"/>
<circle cx="325.0" cy="239.5" r="3" fill="#1f77b4"/>
<circle cx="340.0" cy="283.5" r="3" fill="#1f77b4"/>
<circle cx="355.0" cy="244.5" r="3" fill="#1f77b4"/>
<circle cx="370.0" cy="260.4" r="3" fill="#1f77b4"/>
<circle cx="385.0" cy="246.2" r="3" fill="#1f77b4"/>
<circle cx="400.0" cy="245.6" r="3" fill="#1f77b4"/>
<circle cx="415.0" cy="201.1" r="3" fill="#1f77b4"/>
<circle cx="430.0" cy="299.9" r="3" fill="#1f77b4"/>
<circle cx="445.0" cy="252.0" r="3" fill="#1f77b4"/>
<circle cx="460.0" cy="317.9" r="3" fill="#1f77b4"/>
<circle cx="475.0" cy="317.8" r="3" fill="#1f77b4"/>
<circle cx="490.0" cy="317.5" r="3" fill="#1f77b4"/>
<circle cx="505.0" cy="318.0" r="3" fill="#1f77b4"/>
<circle cx="550.0" cy="318.3" r="3" fill="#1f77b4"/>
<circle cx="565.0" cy="317.4" r="3" fill="#1f77b4"/>
<circle cx="580.0" cy="317.8" r="3" fill="#1f77b4"/>
<circle cx="595.0" cy="318.6" r="3" fill="#1f77b4"/>
<circle cx="610.0" cy="317.8" r="3" fill="#1f77b4"/>
<circle cx="625.0" cy="318.2" r="3" fill="#1f77b4"/>
<circle cx="640.0" cy="317.3" r="3" fill="#1f77b4"/>
<circle cx="655.0" cy="317.7" r="3" fill="#1f77b4"/>
<circle cx="670.0" cy="319.0" r="3" fill="#1f77b4"/>
<circle cx="685.0" cy="318.6" r="3" fill="#1f77b4"/>
<circle cx="700.0" cy="317.0" r="3" fill="#1f77b4"/>
<circle cx="715.0" cy="317.8" r="3" fill="#1f77b4"/>
<circle cx="730.0" cy="318.5" r="3" fill="#1f77b4"/>
<circle cx="745.0" cy="317.4" r="3" fill="#1f77b4"/>
<circle cx="760.0" cy="317.7" r="3" fill="#1f77b4"/>
<circle cx="775.0" cy="317.1" r="3" fill="#1f77b4"/>
<circle cx="790.0" cy="300.8" r="3" fill="#1f77b4"/>
<circle cx="805.0" cy="295.2" r="3" fill="#1f77b4"/>
<circle cx="820.0" cy="317.5" r="3" fill="#1f77b4"/>
<circle cx="835.0" cy="317.1" r="3" fill="#1f77b4"/>
<circle cx="865.0" cy="295.5" r="3" fill="#1f77b4"/>
<rect x="205.0" y="358" width="10" height="10" fill="#1f77b4"/>
<text x="219.0" y="367" font-size="11" fill="#333">tts first chunk</text>
<polyline points="205.0,298.0 265.0,298.0 280.0,307.7 325.0,287.9 340.0,307.5 355.0,307.7 385.0,300.5 400.0,298.4 430.0,304.7 445.0,305.1 460.0,306.6 475.0,304.3 490.0,291.3 550.0,304.1 610.0,262.6 655.0,311.0 670.0,312.2 685.0,308.2 730.0,308.0 790.0,313.3 805.0,311.0 820.0,307.6 835.0,306.7 865.0,306.4" fill="none" stroke="#ff7f0e" stroke-width="2"/>
<circle cx="205.0" cy="298.0" r="3" fill="#ff7f0e"/>
<circle cx="265.0" cy="298.0" r="3" fill="#ff7f0e"/>
<circle cx="280.0" cy="307.7" r="3" fill="#ff7f0e"/>
<circle cx="325.0" cy="287.9" r="3" fill="#ff7f0e"/>
<circle cx="340.0" cy="307.5" r="3" fill="#ff7f0e"/>
<circle cx="355.0" cy="307.7" r="3" fill="#ff7f0e"/>
<circle cx="385.0" cy="300.5" r="3" fill="#ff7f0e"/>
<circle cx="400.0" cy="298.4" r="3" fill="#ff7f0e"/>
<circle cx="430.0" cy="304.7" r="3" fill="#ff7f0e"/>
<circle cx="445.0" cy="305.1" r="3" fill="#ff7f0e"/>
<circle cx="460.0" cy="306.6" r="3" fill="#ff7f0e"/>
<circle cx="475.0" cy="304.3" r="3" fill="#ff7f0e"/>
<circle cx="490.0" cy="291.3" r="3" fill="#ff7f0e"/>
<circle cx="550.0" cy="304.1" r="3" fill="#ff7f0e"/>
<circle cx="610.0" cy="262.6" r="3" fill="#ff7f0e"/>
<circle cx="655.0" cy="311.0" r="3" fill="#ff7f0e"/>
<circle cx="670.0" cy="312.2" r="3" fill="#ff7f0e"/>
<circle cx="685.0" cy="308.2" r="3" fill="#ff7f0e"/>
<circle cx="730.0" cy="308.0" r="3" fill="#ff7f0e"/>
<circle cx="790.0" cy="313.3" r="3" fill="#ff7f0e"/>
<circle cx="805.0" cy="311.0" r="3" fill="#ff7f0e"/>
<circle cx="820.0" cy="307.6" r="3" fill="#ff7f0e"/>
<circle cx="835.0" cy="306.7" r="3" fill="#ff7f0e"/>
<circle cx="865.0" cy="306.4" r="3" fill="#ff7f0e"/>
<rect x="340.0" y="358" width="10" height="10" fill="#ff7f0e"/>
<text x="354.0" y="367" font-size="11" fill="#333">llm ttft</text>
<polyline points="70.0,297.1 85.0,301.1 115.0,298.1 130.0,298.0 145.0,303.1 175.0,274.4 190.0,281.5 205.0,241.9 265.0,243.2 280.0,286.5 295.0,268.6 310.0,306.2 325.0,280.2 340.0,306.0 355.0,297.3 370.0,269.3 385.0,299.0 400.0,267.5 415.0,275.1 430.0,303.3 445.0,253.3 460.0,280.5 475.0,282.8 490.0,272.0 505.0,296.7 550.0,299.6 565.0,301.6 580.0,312.5 595.0,300.5 610.0,169.3 625.0,296.2 640.0,240.3 655.0,307.0 670.0,310.0 685.0,275.8 700.0,305.7 715.0,304.6 730.0,303.7 745.0,297.4 760.0,297.4 775.0,306.8 790.0,306.3 805.0,305.5 820.0,293.1 835.0,303.2 865.0,301.0" fill="none" stroke="#2ca02c" stroke-width="2"/>
<circle cx="70.0" cy="297.1" r="3" fill="#2ca02c"/>
<circle cx="85.0" cy="301.1" r="3" fill="#2ca02c"/>
<circle cx="115.0" cy="298.1" r="3" fill="#2ca02c"/>
<circle cx="130.0" cy="298.0" r="3" fill="#2ca02c"/>
<circle cx="145.0" cy="303.1" r="3" fill="#2ca02c"/>
<circle cx="175.0" cy="274.4" r="3" fill="#2ca02c"/>
<circle cx="190.0" cy="281.5" r="3" fill="#2ca02c"/>
<circle cx="205.0" cy="241.9" r="3" fill="#2ca02c"/>
<circle cx="265.0" cy="243.2" r="3" fill="#2ca02c"/>
<circle cx="280.0" cy="286.5" r="3" fill="#2ca02c"/>
<circle cx="295.0" cy="268.6" r="3" fill="#2ca02c"/>
<circle cx="310.0" cy="306.2" r="3" fill="#2ca02c"/>
<circle cx="325.0" cy="280.2" r="3" fill="#2ca02c"/>
<circle cx="340.0" cy="306.0" r="3" fill="#2ca02c"/>
<circle cx="355.0" cy="297.3" r="3" fill="#2ca02c"/>
<circle cx="370.0" cy="269.3" r="3" fill="#2ca02c"/>
<circle cx="385.0" cy="299.0" r="3" fill="#2ca02c"/>
<circle cx="400.0" cy="267.5" r="3" fill="#2ca02c"/>
<circle cx="415.0" cy="275.1" r="3" fill="#2ca02c"/>
<circle cx="430.0" cy="303.3" r="3" fill="#2ca02c"/>
<circle cx="445.0" cy="253.3" r="3" fill="#2ca02c"/>
<circle cx="460.0" cy="280.5" r="3" fill="#2ca02c"/>
<circle cx="475.0" cy="282.8" r="3" fill="#2ca02c"/>
<circle cx="490.0" cy="272.0" r="3" fill="#2ca02c"/>
<circle cx="505.0" cy="296.7" r="3" fill="#2ca02c"/>
<circle cx="550.0" cy="299.6" r="3" fill="#2ca02c"/>
<circle cx="565.0" cy="301.6" r="3" fill="#2ca02c"/>
<circle cx="580.0" cy="312.5" r="3" fill="#2ca02c"/>
<circle cx="595.0" cy="300.5" r="3" fill="#2ca02c"/>
<circle cx="610.0" cy="169.3" r="3" fill="#2ca02c"/>
<circle cx="625.0" cy="296.2" r="3" fill="#2ca02c"/>
<circle cx="640.0" cy="240.3" r="3" fill="#2ca02c"/>
<circle cx="655.0" cy="307.0" r="3" fill="#2ca02c"/>
<circle cx="670.0" cy="310.0" r="3" fill="#2ca02c"/>
<circle cx="685.0" cy="275.8" r="3" fill="#2ca02c"/>
<circle cx="700.0" cy="305.7" r="3" fill="#2ca02c"/>
<circle cx="715.0" cy="304.6" r="3" fill="#2ca02c"/>
<circle cx="730.0" cy="303.7" r="3" fill="#2ca02c"/>
<circle cx="745.0" cy="297.4" r="3" fill="#2ca02c"/>
<circle cx="760.0" cy="297.4" r="3" fill="#2ca02c"/>
<circle cx="775.0" cy="306.8" r="3" fill="#2ca02c"/>
<circle cx="790.0" cy="306.3" r="3" fill="#2ca02c"/>
<circle cx="805.0" cy="305.5" r="3" fill="#2ca02c"/>
<circle cx="820.0" cy="293.1" r="3" fill="#2ca02c"/>
<circle cx="835.0" cy="303.2" r="3" fill="#2ca02c"/>
<circle cx="865.0" cy="301.0" r="3" fill="#2ca02c"/>
<rect x="475.0" y="358" width="10" height="10" fill="#2ca02c"/>
<text x="489.0" y="367" font-size="11" fill="#333">llm first sentence</text>
<polyline points="70.0,311.1 85.0,313.5 100.0,311.5 115.0,312.5 130.0,305.2 145.0,313.0 175.0,306.1 190.0,304.1 205.0,308.6 265.0,305.6 280.0,310.6 295.0,306.4 310.0,314.9 325.0,315.0 340.0,315.6 355.0,307.9 370.0,313.9 385.0,315.7 400.0,312.8 415.0,306.0 430.0,316.6 445.0,306.0 460.0,313.9 475.0,315.3 490.0,310.5 505.0,316.9 550.0,316.3 565.0,314.8 580.0,314.8 595.0,315.1 610.0,315.2 625.0,314.1 640.0,311.9 655.0,316.5 670.0,316.1 685.0,316.0 700.0,312.9 715.0,314.0 730.0,316.3 745.0,313.4 760.0,316.9 775.0,312.3 790.0,296.2 805.0,290.3 820.0,314.5 835.0,315.0 850.0,318.5 865.0,289.0 880.0,317.3" fill="none" stroke="#9467bd" stroke-width="2"/>
<circle cx="70.0" cy="311.1" r="3" fill="#9467bd"/>
<circle cx="85.0" cy="313.5" r="3" fill="#9467bd"/>
<circle cx="100.0" cy="311.5" r="3" fill="#9467bd"/>
<circle cx="115.0" cy="312.5" r="3" fill="#9467bd"/>
<circle cx="130.0" cy="305.2" r="3" fill="#9467bd"/>
<circle cx="145.0" cy="313.0" r="3" fill="#9467bd"/>
<circle cx="175.0" cy="306.1" r="3" fill="#9467bd"/>
<circle cx="190.0" cy="304.1" r="3" fill="#9467bd"/>
<circle cx="205.0" cy="308.6" r="3" fill="#9467bd"/>
<circle cx="265.0" cy="305.6" r="3" fill="#9467bd"/>
<circle cx="280.0" cy="310.6" r="3" fill="#9467bd"/>
<circle cx="295.0" cy="306.4" r="3" fill="#9467bd"/>
<circle cx="310.0" cy="314.9" r="3" fill="#9467bd"/>
<circle cx="325.0" cy="315.0" r="3" fill="#9467bd"/>
<circle cx="340.0" cy="315.6" r="3" fill="#9467bd"/>
<circle cx="355.0" cy="307.9" r="3" fill="#9467bd"/>
<circle cx="370.0" cy="313.9" r="3" fill="#9467bd"/>
<circle cx="385.0" cy="315.7" r="3" fill="#9467bd"/>
<circle cx="400.0" cy="312.8" r="3" fill="#9467bd"/>
<circle cx="415.0" cy="306.0" r="3" fill="#9467bd"/>
<circle cx="430.0" cy="316.6" r="3" fill="#9467bd"/>
<circle cx="445.0" cy="306.0" r="3" fill="#9467bd"/>
<circle cx="460.0" cy="313.9" r="3" fill="#9467bd"/>
<circle cx="475.0" cy="315.3" r="3" fill="#9467bd"/>
<circle cx="490.0" cy="310.5" r="3" fill="#9467bd"/>
<circle cx="505.0" cy="316.9" r="3" fill="#9467bd"/>
<circle cx="550.0" cy="316.3" r="3" fill="#9467bd"/>
<circle cx="565.0" cy="314.8" r="3" fill="#9467bd"/>
<circle cx="580.0" cy="314.8" r="3" fill="#9467bd"/>
<circle cx="595.0" cy="315.1" r="3" fill="#9467bd"/>
<circle cx="610.0" cy="315.2" r="3" fill="#9467bd"/>
<circle cx="625.0" cy="314.1" r="3" fill="#9467bd"/>
<circle cx="640.0" cy="311.9" r="3" fill="#9467bd"/>
<circle cx="655.0" cy="316.5" r="3" fill="#9467bd"/>
<circle cx="670.0" cy="316.1" r="3" fill="#9467bd"/>
<circle cx="685.0" cy="316.0" r="3" fill="#9467bd"/>
<circle cx="700.0" cy="312.9" r="3" fill="#9467bd"/>
<circle cx="715.0" cy="314.0" r="3" fill="#9467bd"/>
<circle cx="730.0" cy="316.3" r="3" fill="#9467bd"/>
<circle cx="745.0" cy="313.4" r="3" fill="#9467bd"/>
<circle cx="760.0" cy="316.9" r="3" fill="#9467bd"/>
<circle cx="775.0" cy="312.3" r="3" fill="#9467bd"/>
<circle cx="790.0" cy="296.2" r="3" fill="#9467bd"/>
<circle cx="805.0" cy="290.3" r="3" fill="#9467bd"/>
<circle cx="820.0" cy="314.5" r="3" fill="#9467bd"/>
<circle cx="835.0" cy="315.0" r="3" fill="#9467bd"/>
<circle cx="850.0" cy="318.5" r="3" fill="#9467bd"/>
<circle cx="865.0" cy="289.0" r="3" fill="#9467bd"/>
<circle cx="880.0" cy="317.3" r="3" fill="#9467bd"/>
<rect x="610.0" y="358" width="10" height="10" fill="#9467bd"/>
<text x="624.0" y="367" font-size="11" fill="#333">lipsync first mouth</text>
<polyline points="205.0,318.5 265.0,314.7 280.0,318.1 295.0,318.0 310.0,318.8 325.0,312.5 340.0,318.8 355.0,314.5 370.0,318.9 385.0,318.7 400.0,311.9 415.0,318.2 430.0,318.5 445.0,311.1 460.0,317.5 475.0,317.9 490.0,316.7 505.0,318.9 550.0,318.7 565.0,318.6 580.0,318.2 595.0,318.2 610.0,318.6 625.0,317.8 640.0,318.8 655.0,318.3 670.0,318.3 685.0,319.3 700.0,315.9 715.0,318.6 730.0,319.7 745.0,317.7 760.0,319.3 775.0,319.1 790.0,320.4 805.0,320.3 820.0,318.2 835.0,319.1 850.0,318.8 865.0,319.7 880.0,316.8" fill="none" stroke="#8c564b" stroke-width="2"/>
<circle cx="205.0" cy="318.5" r="3" fill="#8c564b"/>
<circle cx="265.0" cy="314.7" r="3" fill="#8c564b"/>
<circle cx="280.0" cy="318.1" r="3" fill="#8c564b"/>
<circle cx="295.0" cy="318.0" r="3" fill="#8c564b"/>
<circle cx="310.0" cy="318.8" r="3" fill="#8c564b"/>
<circle cx="325.0" cy="312.5" r="3" fill="#8c564b"/>
<circle cx="340.0" cy="318.8" r="3" fill="#8c564b"/>
<circle cx="355.0" cy="314.5" r="3" fill="#8c564b"/>
<circle cx="370.0" cy="318.9" r="3" fill="#8c564b"/>
<circle cx="385.0" cy="318.7" r="3" fill="#8c564b"/>
<circle cx="400.0" cy="311.9" r="3" fill="#8c564b"/>
<circle cx="415.0" cy="318.2" r="3" fill="#8c564b"/>
<circle cx="430.0" cy="318.5" r="3" fill="#8c564b"/>
<circle cx="445.0" cy="311.1" r="3" fill="#8c564b"/>
<circle cx="460.0" cy="317.5" r="3" fill="#8c564b"/>
<circle cx="475.0" cy="317.9" r="3" fill="#8c564b"/>
<circle cx="490.0" cy="316.7" r="3" fill="#8c564b"/>
<circle cx="505.0" cy="318.9" r="3" fill="#8c564b"/>
<circle cx="550.0" cy="318.7" r="3" fill="#8c564b"/>
<circle cx="565.0" cy="318.6" r="3" fill="#8c564b"/>
<circle cx="580.0" cy="318.2" r="3" fill="#8c564b"/>
<circle cx="595.0" cy="318.2" r="3" fill="#8c564b"/>
<circle cx="610.0" cy="318.6" r="3" fill="#8c564b"/>
<circle cx="625.0" cy="317.8" r="3" fill="#8c564b"/>
<circle cx="640.0" cy="318.8" r="3" fill="#8c564b"/>
<circle cx="655.0" cy="318.3" r="3" fill="#8c564b"/>
<circle cx="670.0" cy="318.3" r="3" fill="#8c564b"/>
<circle cx="685.0" cy="319.3" r="3" fill="#8c564b"/>
<circle cx="700.0" cy="315.9" r="3" fill="#8c564b"/>
<circle cx="715.0" cy="318.6" r="3" fill="#8c564b"/>
<circle cx="730.0" cy="319.7" r="3" fill="#8c564b"/>
<circle cx="745.0" cy="317.7" r="3" fill="#8c564b"/>
<circle cx="760.0" cy="319.3" r="3" fill="#8c564b"/>
<circle cx="775.0" cy="319.1" r="3" fill="#8c564b"/>
<circle cx="790.0" cy="320.4" r="3" fill="#8c564b"/>
<circle cx="805.0" cy="320.3" r="3" fill="#8c564b"/>
<circle cx="820.0" cy="318.2" r="3" fill="#8c564b"/>
<circle cx="835.0" cy="319.1" r="3" fill="#8c564b"/>
<circle cx="850.0" cy="318.8" r="3" fill="#8c564b"/>
<circle cx="865.0" cy="319.7" r="3" fill="#8c564b"/>
<circle cx="880.0" cy="316.8" r="3" fill="#8c564b"/>
<rect x="745.0" y="358" width="10" height="10" fill="#8c564b"/>
<text x="759.0" y="367" font-size="11" fill="#333">render tick p95</text>
</svg>
