<svg xmlns="http://www.w3.org/2000/svg" width="900" height="380" viewBox="0 0 900 380" font-family="sans-serif">
<rect width="900" height="380" fill="white"/>
<text x="70" y="24" font-size="16" fill="#333">Latency (ms, p50 unless noted) — lower is better</text>
<line x1="70" y1="324.0" x2="880" y2="324.0" stroke="#e5e5e5"/>
<text x="64" y="328.0" font-size="11" fill="#666" text-anchor="end">0ms</text>
<line x1="70" y1="268.0" x2="880" y2="268.0" stroke="#e5e5e5"/>
<text x="64" y="272.0" font-size="11" fill="#666" text-anchor="end">897ms</text>
<line x1="70" y1="212.0" x2="880" y2="212.0" stroke="#e5e5e5"/>
<text x="64" y="216.0" font-size="11" fill="#666" text-anchor="end">1793ms</text>
<line x1="70" y1="156.0" x2="880" y2="156.0" stroke="#e5e5e5"/>
<text x="64" y="160.0" font-size="11" fill="#666" text-anchor="end">2690ms</text>
<line x1="70" y1="100.0" x2="880" y2="100.0" stroke="#e5e5e5"/>
<text x="64" y="104.0" font-size="11" fill="#666" text-anchor="end">3586ms</text>
<line x1="70" y1="44.0" x2="880" y2="44.0" stroke="#e5e5e5"/>
<text x="64" y="48.0" font-size="11" fill="#666" text-anchor="end">4483ms</text>
<text x="70.0" y="342" font-size="11" fill="#666" text-anchor="start">07-16 16:02</text>
<text x="475.0" y="342" font-size="11" fill="#666" text-anchor="middle">07-16 21:55</text>
<text x="880.0" y="342" font-size="11" fill="#666" text-anchor="end">07-17 14:10</text>
<polyline points="70.0,148.4 120.6,165.2 221.9,125.1 272.5,247.2 323.1,65.6 373.8,182.0 424.4,73.1 475.0,142.9 525.6,64.7 576.2,203.4 626.9,70.4 677.5,226.9 728.1,185.2 778.8,109.6 829.4,181.0 880.0,172.5" fill="none" stroke="#d62728" stroke-width="2"/>
<circle cx="70.0" cy="148.4" r="3" fill="#d62728"/>
<circle cx="120.6" cy="165.2" r="3" fill="#d62728"/>
<circle cx="221.9" cy="125.1" r="3" fill="#d62728"/>
<circle cx="272.5" cy="247.2" r="3" fill="#d62728"/>
<circle cx="323.1" cy="65.6" r="3" fill="#d62728"/>
<circle cx="373.8" cy="182.0" r="3" fill="#d62728"/>
<circle cx="424.4" cy="73.1" r="3" fill="#d62728"/>
<circle cx="475.0" cy="142.9" r="3" fill="#d62728"/>
<circle cx="525.6" cy="64.7" r="3" fill="#d62728"/>
<circle cx="576.2" cy="203.4" r="3" fill="#d62728"/>
<circle cx="626.9" cy="70.4" r="3" fill="#d62728"/>
<circle cx="677.5" cy="226.9" r="3" fill="#d62728"/>
<circle cx="728.1" cy="185.2" r="3" fill="#d62728"/>
<circle cx="778.8" cy="109.6" r="3" fill="#d62728"/>
<circle cx="829.4" cy="181.0" r="3" fill="#d62728"/>
<circle cx="880.0" cy="172.5" r="3" fill="#d62728"/>
<rect x="70.0" y="358" width="10" height="10" fill="#d62728"/>
<text x="84.0" y="367" font-size="11" fill="#333">first audio (e2e)</text>
<polyline points="525.6,144.3 728.1,117.7 778.8,159.4 829.4,81.0 880.0,230.8" fill="none" stroke="#1f77b4" stroke-width="2"/>
<circle cx="525.6" cy="144.3" r="3" fill="#1f77b4"/>
<circle cx="728.1" cy="117.7" r="3" fill="#1f77b4"/>
<circle cx="778.8" cy="159.4" r="3" fill="#1f77b4"/>
<circle cx="829.4" cy="81.0" r="3" fill="#1f77b4"/>
<circle cx="880.0" cy="230.8" r="3" fill="#1f77b4"/>
<rect x="205.0" y="358" width="10" height="10" fill="#1f77b4"/>
<text x="219.0" y="367" font-size="11" fill="#333">tts first chunk</text>
<polyline points="525.6,281.0 728.1,281.0 778.8,297.1" fill="none" stroke="#ff7f0e" stroke-width="2"/>
<circle cx="525.6" cy="281.0" r="3" fill="#ff7f0e"/>
<circle cx="728.1" cy="281.0" r="3" fill="#ff7f0e"/>
<circle cx="778.8" cy="297.1" r="3" fill="#ff7f0e"/>
<rect x="340.0" y="358" width="10" height="10" fill="#ff7f0e"/>
<text x="354.0" y="367" font-size="11" fill="#333">llm ttft</text>
<polyline points="70.0,279.6 120.6,286.2 221.9,281.2 272.5,281.1 323.1,289.5 424.4,242.1 475.0,253.8 525.6,188.4 728.1,190.5 778.8,262.0 829.4,232.4 880.0,294.7" fill="none" stroke="#2ca02c" stroke-width="2"/>
<circle cx="70.0" cy="279.6" r="3" fill="#2ca02c"/>
<circle cx="120.6" cy="286.2" r="3" fill="#2ca02c"/>
<circle cx="221.9" cy="281.2" r="3" fill="#2ca02c"/>
<circle cx="272.5" cy="281.1" r="3" fill="#2ca02c"/>
<circle cx="323.1" cy="289.5" r="3" fill="#2ca02c"/>
<circle cx="424.4" cy="242.1" r="3" fill="#2ca02c"/>
<circle cx="475.0" cy="253.8" r="3" fill="#2ca02c"/>
<circle cx="525.6" cy="188.4" r="3" fill="#2ca02c"/>
<circle cx="728.1" cy="190.5" r="3" fill="#2ca02c"/>
<circle cx="778.8" cy="262.0" r="3" fill="#2ca02c"/>
<circle cx="829.4" cy="232.4" r="3" fill="#2ca02c"/>
<circle cx="880.0" cy="294.7" r="3" fill="#2ca02c"/>
<rect x="475.0" y="358" width="10" height="10" fill="#2ca02c"/>
<text x="489.0" y="367" font-size="11" fill="#333">llm first sentence</text>
<polyline points="70.0,302.7 120.6,306.6 171.2,303.4 221.9,305.0 272.5,293.0 323.1,305.8 424.4,294.4 475.0,291.1 525.6,298.6 728.1,293.7 778.8,301.9 829.4,294.9 880.0,308.9" fill="none" stroke="#9467bd" stroke-width="2"/>
<circle cx="70.0" cy="302.7" r="3" fill="#9467bd"/>
<circle cx="120.6" cy="306.6" r="3" fill="#9467bd"/>
<circle cx="171.2" cy="303.4" r="3" fill="#9467bd"/>
<circle cx="221.9" cy="305.0" r="3" fill="#9467bd"/>
<circle cx="272.5" cy="293.0" r="3" fill="#9467bd"/>
<circle cx="323.1" cy="305.8" r="3" fill="#9467bd"/>
<circle cx="424.4" cy="294.4" r="3" fill="#9467bd"/>
<circle cx="475.0" cy="291.1" r="3" fill="#9467bd"/>
<circle cx="525.6" cy="298.6" r="3" fill="#9467bd"/>
<circle cx="728.1" cy="293.7" r="3" fill="#9467bd"/>
<circle cx="778.8" cy="301.9" r="3" fill="#9467bd"/>
<circle cx="829.4" cy="294.9" r="3" fill="#9467bd"/>
<circle cx="880.0" cy="308.9" r="3" fill="#9467bd"/>
<rect x="610.0" y="358" width="10" height="10" fill="#9467bd"/>
<text x="624.0" y="367" font-size="11" fill="#333">lipsync first mouth</text>
<polyline points="525.6,314.9 728.1,308.6 778.8,314.2 829.4,314.0 880.0,315.4" fill="none" stroke="#8c564b" stroke-width="2"/>
<circle cx="525.6" cy="314.9" r="3" fill="#8c564b"/>
<circle cx="728.1" cy="308.6" r="3" fill="#8c564b"/>
<circle cx="778.8" cy="314.2" r="3" fill="#8c564b"/>
<circle cx="829.4" cy="314.0" r="3" fill="#8c564b"/>
<circle cx="880.0" cy="315.4" r="3" fill="#8c564b"/>
<rect x="745.0" y="358" width="10" height="10" fill="#8c564b"/>
<text x="759.0" y="367" font-size="11" fill="#333">render tick p95</text>
</svg>
