<svg xmlns="http://www.w3.org/2000/svg" width="900" height="380" viewBox="0 0 900 380" font-family="sans-serif">
<rect width="900" height="380" fill="white"/>
<text x="70" y="24" font-size="16" fill="#333">Latency (ms, p50 unless noted) — lower is better</text>
<line x1="70" y1="324.0" x2="880" y2="324.0" stroke="#e5e5e5"/>
<text x="64" y="328.0" font-size="11" fill="#666" text-anchor="end">0ms</text>
<line x1="70" y1="268.0" x2="880" y2="268.0" stroke="#e5e5e5"/>
<text x="64" y="272.0" font-size="11" fill="#666" text-anchor="end">1481ms</text>
<line x1="70" y1="212.0" x2="880" y2="212.0" stroke="#e5e5e5"/>
<text x="64" y="216.0" font-size="11" fill="#666" text-anchor="end">2963ms</text>
<line x1="70" y1="156.0" x2="880" y2="156.0" stroke="#e5e5e5"/>
<text x="64" y="160.0" font-size="11" fill="#666" text-anchor="end">4444ms</text>
<line x1="70" y1="100.0" x2="880" y2="100.0" stroke="#e5e5e5"/>
<text x="64" y="104.0" font-size="11" fill="#666" text-anchor="end">5925ms</text>
<line x1="70" y1="44.0" x2="880" y2="44.0" stroke="#e5e5e5"/>
<text x="64" y="48.0" font-size="11" fill="#666" text-anchor="end">7407ms</text>
<text x="70.0" y="342" font-size="11" fill="#666" text-anchor="start">07-16 16:02</text>
<text x="475.0" y="342" font-size="11" fill="#666" text-anchor="middle">07-17 14:39</text>
<text x="880.0" y="342" font-size="11" fill="#666" text-anchor="end">07-17 20:11</text>
<polyline points="70.0,217.7 92.5,227.9 137.5,203.6 160.0,277.5 182.5,167.6 205.0,238.1 227.5,172.1 250.0,214.4 272.5,167.1 295.0,251.0 317.5,170.5 340.0,265.2 362.5,240.0 385.0,194.2 407.5,237.5 430.0,232.3 452.5,238.8 475.0,246.5 497.5,234.7 520.0,174.8 542.5,240.9 565.0,214.4 587.5,64.7 610.0,245.0 632.5,220.8 655.0,276.4 677.5,269.9 700.0,274.6 722.5,281.8 745.0,316.3 767.5,285.1 790.0,292.2 812.5,283.0 835.0,300.1 857.5,293.0 880.0,206.2" fill="none" stroke="#d62728" stroke-width="2"/>
<circle cx="70.0" cy="217.7" r="3" fill="#d62728"/>
<circle cx="92.5" cy="227.9" r="3" fill="#d62728"/>
<circle cx="137.5" cy="203.6" r="3" fill="#d62728"/>
<circle cx="160.0" cy="277.5" r="3" fill="#d62728"/>
<circle cx="182.5" cy="167.6" r="3" fill="#d62728"/>
<circle cx="205.0" cy="238.1" r="3" fill="#d62728"/>
<circle cx="227.5" cy="172.1" r="3" fill="#d62728"/>
<circle cx="250.0" cy="214.4" r="3" fill="#d62728"/>
<circle cx="272.5" cy="167.1" r="3" fill="#d62728"/>
<circle cx="295.0" cy="251.0" r="3" fill="#d62728"/>
<circle cx="317.5" cy="170.5" r="3" fill="#d62728"/>
<circle cx="340.0" cy="265.2" r="3" fill="#d62728"/>
<circle cx="362.5" cy="240.0" r="3" fill="#d62728"/>
<circle cx="385.0" cy="194.2" r="3" fill="#d62728"/>
<circle cx="407.5" cy="237.5" r="3" fill="#d62728"/>
<circle cx="430.0" cy="232.3" r="3" fill="#d62728"/>
<circle cx="452.5" cy="238.8" r="3" fill="#d62728"/>
<circle cx="475.0" cy="246.5" r="3" fill="#d62728"/>
<circle cx="497.5" cy="234.7" r="3" fill="#d62728"/>
<circle cx="520.0" cy="174.8" r="3" fill="#d62728"/>
<circle cx="542.5" cy="240.9" r="3" fill="#d62728"/>
<circle cx="565.0" cy="214.4" r="3" fill="#d62728"/>
<circle cx="587.5" cy="64.7" r="3" fill="#d62728"/>
<circle cx="610.0" cy="245.0" r="3" fill="#d62728"/>
<circle cx="632.5" cy="220.8" r="3" fill="#d62728"/>
<circle cx="655.0" cy="276.4" r="3" fill="#d62728"/>
<circle cx="677.5" cy="269.9" r="3" fill="#d62728"/>
<circle cx="700.0" cy="274.6" r="3" fill="#d62728"/>
<circle cx="722.5" cy="281.8" r="3" fill="#d62728"/>
<circle cx="745.0" cy="316.3" r="3" fill="#d62728"/>
<circle cx="767.5" cy="285.1" r="3" fill="#d62728"/>
<circle cx="790.0" cy="292.2" r="3" fill="#d62728"/>
<circle cx="812.5" cy="283.0" r="3" fill="#d62728"/>
<circle cx="835.0" cy="300.1" r="3" fill="#d62728"/>
<circle cx="857.5" cy="293.0" r="3" fill="#d62728"/>
<circle cx="880.0" cy="206.2" r="3" fill="#d62728"/>
<rect x="70.0" y="358" width="10" height="10" fill="#d62728"/>
<text x="84.0" y="367" font-size="11" fill="#333">first audio (e2e)</text>
<polyline points="272.5,215.3 362.5,199.1 385.0,224.4 407.5,176.9 430.0,267.6 452.5,239.5 475.0,283.5 497.5,244.5 520.0,260.4 542.5,246.2 565.0,245.6 587.5,201.1 610.0,299.9 632.5,252.0 655.0,317.9 677.5,317.8 700.0,317.5 722.5,318.0 790.0,318.3 812.5,317.4 835.0,317.8 857.5,318.6 880.0,317.8" fill="none" stroke="#1f77b4" stroke-width="2"/>
<circle cx="272.5" cy="215.3" r="3" fill="#1f77b4"/>
<circle cx="362.5" cy="199.1" r="3" fill="#1f77b4"/>
<circle cx="385.0" cy="224.4" r="3" fill="#1f77b4"/>
<circle cx="407.5" cy="176.9" r="3" fill="#1f77b4"/>
<circle cx="430.0" cy="267.6" r="3" fill="#1f77b4"/>
<circle cx="452.5" cy="239.5" r="3" fill="#1f77b4"/>
<circle cx="475.0" cy="283.5" r="3" fill="#1f77b4"/>
<circle cx="497.5" cy="244.5" r="3" fill="#1f77b4"/>
<circle cx="520.0" cy="260.4" r="3" fill="#1f77b4"/>
<circle cx="542.5" cy="246.2" r="3" fill="#1f77b4"/>
<circle cx="565.0" cy="245.6" r="3" fill="#1f77b4"/>
<circle cx="587.5" cy="201.1" r="3" fill="#1f77b4"/>
<circle cx="610.0" cy="299.9" r="3" fill="#1f77b4"/>
<circle cx="632.5" cy="252.0" r="3" fill="#1f77b4"/>
<circle cx="655.0" cy="317.9" r="3" fill="#1f77b4"/>
<circle cx="677.5" cy="317.8" r="3" fill="#1f77b4"/>
<circle cx="700.0" cy="317.5" r="3" fill="#1f77b4"/>
<circle cx="722.5" cy="318.0" r="3" fill="#1f77b4"/>
<circle cx="790.0" cy="318.3" r="3" fill="#1f77b4"/>
<circle cx="812.5" cy="317.4" r="3" fill="#1f77b4"/>
<circle cx="835.0" cy="317.8" r="3" fill="#1f77b4"/>
<circle cx="857.5" cy="318.6" r="3" fill="#1f77b4"/>
<circle cx="880.0" cy="317.8" r="3" fill="#1f77b4"/>
<rect x="205.0" y="358" width="10" height="10" fill="#1f77b4"/>
<text x="219.0" y="367" font-size="11" fill="#333">tts first chunk</text>
<polyline points="272.5,298.0 362.5,298.0 385.0,307.7 452.5,287.9 475.0,307.5 497.5,307.7 542.5,300.5 565.0,298.4 610.0,304.7 632.5,305.1 655.0,306.6 677.5,304.3 700.0,291.3 790.0,304.1 880.0,262.6" fill="none" stroke="#ff7f0e" stroke-width="2"/>
<circle cx="272.5" cy="298.0" r="3" fill="#ff7f0e"/>
<circle cx="362.5" cy="298.0" r="3" fill="#ff7f0e"/>
<circle cx="385.0" cy="307.7" r="3" fill="#ff7f0e"/>
<circle cx="452.5" cy="287.9" r="3" fill="#ff7f0e"/>
<circle cx="475.0" cy="307.5" r="3" fill="#ff7f0e"/>
<circle cx="497.5" cy="307.7" r="3" fill="#ff7f0e"/>
<circle cx="542.5" cy="300.5" r="3" fill="#ff7f0e"/>
<circle cx="565.0" cy="298.4" r="3" fill="#ff7f0e"/>
<circle cx="610.0" cy="304.7" r="3" fill="#ff7f0e"/>
<circle cx="632.5" cy="305.1" r="3" fill="#ff7f0e"/>
<circle cx="655.0" cy="306.6" r="3" fill="#ff7f0e"/>
<circle cx="677.5" cy="304.3" r="3" fill="#ff7f0e"/>
<circle cx="700.0" cy="291.3" r="3" fill="#ff7f0e"/>
<circle cx="790.0" cy="304.1" r="3" fill="#ff7f0e"/>
<circle cx="880.0" cy="262.6" r="3" fill="#ff7f0e"/>
<rect x="340.0" y="358" width="10" height="10" fill="#ff7f0e"/>
<text x="354.0" y="367" font-size="11" fill="#333">llm ttft</text>
<polyline points="70.0,297.1 92.5,301.1 137.5,298.1 160.0,298.0 182.5,303.1 227.5,274.4 250.0,281.5 272.5,241.9 362.5,243.2 385.0,286.5 407.5,268.6 430.0,306.2 452.5,280.2 475.0,306.0 497.5,297.3 520.0,269.3 542.5,299.0 565.0,267.5 587.5,275.1 610.0,303.3 632.5,253.3 655.0,280.5 677.5,282.8 700.0,272.0 722.5,296.7 790.0,299.6 812.5,301.6 835.0,312.5 857.5,300.5 880.0,169.3" fill="none" stroke="#2ca02c" stroke-width="2"/>
<circle cx="70.0" cy="297.1" r="3" fill="#2ca02c"/>
<circle cx="92.5" cy="301.1" r="3" fill="#2ca02c"/>
<circle cx="137.5" cy="298.1" r="3" fill="#2ca02c"/>
<circle cx="160.0" cy="298.0" r="3" fill="#2ca02c"/>
<circle cx="182.5" cy="303.1" r="3" fill="#2ca02c"/>
<circle cx="227.5" cy="274.4" r="3" fill="#2ca02c"/>
<circle cx="250.0" cy="281.5" r="3" fill="#2ca02c"/>
<circle cx="272.5" cy="241.9" r="3" fill="#2ca02c"/>
<circle cx="362.5" cy="243.2" r="3" fill="#2ca02c"/>
<circle cx="385.0" cy="286.5" r="3" fill="#2ca02c"/>
<circle cx="407.5" cy="268.6" r="3" fill="#2ca02c"/>
<circle cx="430.0" cy="306.2" r="3" fill="#2ca02c"/>
<circle cx="452.5" cy="280.2" r="3" fill="#2ca02c"/>
<circle cx="475.0" cy="306.0" r="3" fill="#2ca02c"/>
<circle cx="497.5" cy="297.3" r="3" fill="#2ca02c"/>
<circle cx="520.0" cy="269.3" r="3" fill="#2ca02c"/>
<circle cx="542.5" cy="299.0" r="3" fill="#2ca02c"/>
<circle cx="565.0" cy="267.5" r="3" fill="#2ca02c"/>
<circle cx="587.5" cy="275.1" r="3" fill="#2ca02c"/>
<circle cx="610.0" cy="303.3" r="3" fill="#2ca02c"/>
<circle cx="632.5" cy="253.3" r="3" fill="#2ca02c"/>
<circle cx="655.0" cy="280.5" r="3" fill="#2ca02c"/>
<circle cx="677.5" cy="282.8" r="3" fill="#2ca02c"/>
<circle cx="700.0" cy="272.0" r="3" fill="#2ca02c"/>
<circle cx="722.5" cy="296.7" r="3" fill="#2ca02c"/>
<circle cx="790.0" cy="299.6" r="3" fill="#2ca02c"/>
<circle cx="812.5" cy="301.6" r="3" fill="#2ca02c"/>
<circle cx="835.0" cy="312.5" r="3" fill="#2ca02c"/>
<circle cx="857.5" cy="300.5" r="3" fill="#2ca02c"/>
<circle cx="880.0" cy="169.3" r="3" fill="#2ca02c"/>
<rect x="475.0" y="358" width="10" height="10" fill="#2ca02c"/>
<text x="489.0" y="367" font-size="11" fill="#333">llm first sentence</text>
<polyline points="70.0,311.1 92.5,313.5 115.0,311.5 137.5,312.5 160.0,305.2 182.5,313.0 227.5,306.1 250.0,304.1 272.5,308.6 362.5,305.6 385.0,310.6 407.5,306.4 430.0,314.9 452.5,315.0 475.0,315.6 497.5,307.9 520.0,313.9 542.5,315.7 565.0,312.8 587.5,306.0 610.0,316.6 632.5,306.0 655.0,313.9 677.5,315.3 700.0,310.5 722.5,316.9 790.0,316.3 812.5,314.8 835.0,314.8 857.5,315.1 880.0,315.2" fill="none" stroke="#9467bd" stroke-width="2"/>
<circle cx="70.0" cy="311.1" r="3" fill="#9467bd"/>
<circle cx="92.5" cy="313.5" r="3" fill="#9467bd"/>
<circle cx="115.0" cy="311.5" r="3" fill="#9467bd"/>
<circle cx="137.5" cy="312.5" r="3" fill="#9467bd"/>
<circle cx="160.0" cy="305.2" r="3" fill="#9467bd"/>
<circle cx="182.5" cy="313.0" r="3" fill="#9467bd"/>
<circle cx="227.5" cy="306.1" r="3" fill="#9467bd"/>
<circle cx="250.0" cy="304.1" r="3" fill="#9467bd"/>
<circle cx="272.5" cy="308.6" r="3" fill="#9467bd"/>
<circle cx="362.5" cy="305.6" r="3" fill="#9467bd"/>
<circle cx="385.0" cy="310.6" r="3" fill="#9467bd"/>
<circle cx="407.5" cy="306.4" r="3" fill="#9467bd"/>
<circle cx="430.0" cy="314.9" r="3" fill="#9467bd"/>
<circle cx="452.5" cy="315.0" r="3" fill="#9467bd"/>
<circle cx="475.0" cy="315.6" r="3" fill="#9467bd"/>
<circle cx="497.5" cy="307.9" r="3" fill="#9467bd"/>
<circle cx="520.0" cy="313.9" r="3" fill="#9467bd"/>
<circle cx="542.5" cy="315.7" r="3" fill="#9467bd"/>
<circle cx="565.0" cy="312.8" r="3" fill="#9467bd"/>
<circle cx="587.5" cy="306.0" r="3" fill="#9467bd"/>
<circle cx="610.0" cy="316.6" r="3" fill="#9467bd"/>
<circle cx="632.5" cy="306.0" r="3" fill="#9467bd"/>
<circle cx="655.0" cy="313.9" r="3" fill="#9467bd"/>
<circle cx="677.5" cy="315.3" r="3" fill="#9467bd"/>
<circle cx="700.0" cy="310.5" r="3" fill="#9467bd"/>
<circle cx="722.5" cy="316.9" r="3" fill="#9467bd"/>
<circle cx="790.0" cy="316.3" r="3" fill="#9467bd"/>
<circle cx="812.5" cy="314.8" r="3" fill="#9467bd"/>
<circle cx="835.0" cy="314.8" r="3" fill="#9467bd"/>
<circle cx="857.5" cy="315.1" r="3" fill="#9467bd"/>
<circle cx="880.0" cy="315.2" r="3" fill="#9467bd"/>
<rect x="610.0" y="358" width="10" height="10" fill="#9467bd"/>
<text x="624.0" y="367" font-size="11" fill="#333">lipsync first mouth</text>
<polyline points="272.5,318.5 362.5,314.7 385.0,318.1 407.5,318.0 430.0,318.8 452.5,312.5 475.0,318.8 497.5,314.5 520.0,318.9 542.5,318.7 565.0,311.9 587.5,318.2 610.0,318.5 632.5,311.1 655.0,317.5 677.5,317.9 700.0,316.7 722.5,318.9 790.0,318.7 812.5,318.6 835.0,318.2 857.5,318.2 880.0,318.6" fill="none" stroke="#8c564b" stroke-width="2"/>
<circle cx="272.5" cy="318.5" r="3" fill="#8c564b"/>
<circle cx="362.5" cy="314.7" r="3" fill="#8c564b"/>
<circle cx="385.0" cy="318.1" r="3" fill="#8c564b"/>
<circle cx="407.5" cy="318.0" r="3" fill="#8c564b"/>
<circle cx="430.0" cy="318.8" r="3" fill="#8c564b"/>
<circle cx="452.5" cy="312.5" r="3" fill="#8c564b"/>
<circle cx="475.0" cy="318.8" r="3" fill="#8c564b"/>
<circle cx="497.5" cy="314.5" r="3" fill="#8c564b"/>
<circle cx="520.0" cy="318.9" r="3" fill="#8c564b"/>
<circle cx="542.5" cy="318.7" r="3" fill="#8c564b"/>
<circle cx="565.0" cy="311.9" r="3" fill="#8c564b"/>
<circle cx="587.5" cy="318.2" r="3" fill="#8c564b"/>
<circle cx="610.0" cy="318.5" r="3" fill="#8c564b"/>
<circle cx="632.5" cy="311.1" r="3" fill="#8c564b"/>
<circle cx="655.0" cy="317.5" r="3" fill="#8c564b"/>
<circle cx="677.5" cy="317.9" r="3" fill="#8c564b"/>
<circle cx="700.0" cy="316.7" r="3" fill="#8c564b"/>
<circle cx="722.5" cy="318.9" r="3" fill="#8c564b"/>
<circle cx="790.0" cy="318.7" r="3" fill="#8c564b"/>
<circle cx="812.5" cy="318.6" r="3" fill="#8c564b"/>
<circle cx="835.0" cy="318.2" r="3" fill="#8c564b"/>
<circle cx="857.5" cy="318.2" r="3" fill="#8c564b"/>
<circle cx="880.0" cy="318.6" r="3" fill="#8c564b"/>
<rect x="745.0" y="358" width="10" height="10" fill="#8c564b"/>
<text x="759.0" y="367" font-size="11" fill="#333">render tick p95</text>
</svg>
