<svg xmlns="http://www.w3.org/2000/svg" width="900" height="380" viewBox="0 0 900 380" font-family="sans-serif">
<rect width="900" height="380" fill="white"/>
<text x="70" y="24" font-size="16" fill="#333">Latency (ms, p50 unless noted) — lower is better</text>
<line x1="70" y1="324.0" x2="880" y2="324.0" stroke="#e5e5e5"/>
<text x="64" y="328.0" font-size="11" fill="#666" text-anchor="end">0ms</text>
<line x1="70" y1="268.0" x2="880" y2="268.0" stroke="#e5e5e5"/>
<text x="64" y="272.0" font-size="11" fill="#666" text-anchor="end">1481ms</text>
<line x1="70" y1="212.0" x2="880" y2="212.0" stroke="#e5e5e5"/>
<text x="64" y="216.0" font-size="11" fill="#666" text-anchor="end">2963ms</text>
<line x1="70" y1="156.0" x2="880" y2="156.0" stroke="#e5e5e5"/>
<text x="64" y="160.0" font-size="11" fill="#666" text-anchor="end">4444ms</text>
<line x1="70" y1="100.0" x2="880" y2="100.0" stroke="#e5e5e5"/>
<text x="64" y="104.0" font-size="11" fill="#666" text-anchor="end">5925ms</text>
<line x1="70" y1="44.0" x2="880" y2="44.0" stroke="#e5e5e5"/>
<text x="64" y="48.0" font-size="11" fill="#666" text-anchor="end">7407ms</text>
<text x="70.0" y="342" font-size="11" fill="#666" text-anchor="start">07-16 16:02</text>
<text x="488.1" y="342" font-size="11" fill="#666" text-anchor="middle">07-17 14:10</text>
<text x="880.0" y="342" font-size="11" fill="#666" text-anchor="end">07-17 19:46</text>
<polyline points="70.0,217.7 96.1,227.9 148.4,203.6 174.5,277.5 200.6,167.6 226.8,238.1 252.9,172.1 279.0,214.4 305.2,167.1 331.3,251.0 357.4,170.5 383.5,265.2 409.7,240.0 435.8,194.2 461.9,237.5 488.1,232.3 514.2,238.8 540.3,246.5 566.5,234.7 592.6,174.8 618.7,240.9 644.8,214.4 671.0,64.7 697.1,245.0 723.2,220.8 749.4,276.4 775.5,269.9 801.6,274.6 827.7,281.8 853.9,316.3 880.0,285.1" fill="none" stroke="#d62728" stroke-width="2"/>
<circle cx="70.0" cy="217.7" r="3" fill="#d62728"/>
<circle cx="96.1" cy="227.9" r="3" fill="#d62728"/>
<circle cx="148.4" cy="203.6" r="3" fill="#d62728"/>
<circle cx="174.5" cy="277.5" r="3" fill="#d62728"/>
<circle cx="200.6" cy="167.6" r="3" fill="#d62728"/>
<circle cx="226.8" cy="238.1" r="3" fill="#d62728"/>
<circle cx="252.9" cy="172.1" r="3" fill="#d62728"/>
<circle cx="279.0" cy="214.4" r="3" fill="#d62728"/>
<circle cx="305.2" cy="167.1" r="3" fill="#d62728"/>
<circle cx="331.3" cy="251.0" r="3" fill="#d62728"/>
<circle cx="357.4" cy="170.5" r="3" fill="#d62728"/>
<circle cx="383.5" cy="265.2" r="3" fill="#d62728"/>
<circle cx="409.7" cy="240.0" r="3" fill="#d62728"/>
<circle cx="435.8" cy="194.2" r="3" fill="#d62728"/>
<circle cx="461.9" cy="237.5" r="3" fill="#d62728"/>
<circle cx="488.1" cy="232.3" r="3" fill="#d62728"/>
<circle cx="514.2" cy="238.8" r="3" fill="#d62728"/>
<circle cx="540.3" cy="246.5" r="3" fill="#d62728"/>
<circle cx="566.5" cy="234.7" r="3" fill="#d62728"/>
<circle cx="592.6" cy="174.8" r="3" fill="#d62728"/>
<circle cx="618.7" cy="240.9" r="3" fill="#d62728"/>
<circle cx="644.8" cy="214.4" r="3" fill="#d62728"/>
<circle cx="671.0" cy="64.7" r="3" fill="#d62728"/>
<circle cx="697.1" cy="245.0" r="3" fill="#d62728"/>
<circle cx="723.2" cy="220.8" r="3" fill="#d62728"/>
<circle cx="749.4" cy="276.4" r="3" fill="#d62728"/>
<circle cx="775.5" cy="269.9" r="3" fill="#d62728"/>
<circle cx="801.6" cy="274.6" r="3" fill="#d62728"/>
<circle cx="827.7" cy="281.8" r="3" fill="#d62728"/>
<circle cx="853.9" cy="316.3" r="3" fill="#d62728"/>
<circle cx="880.0" cy="285.1" r="3" fill="#d62728"/>
<rect x="70.0" y="358" width="10" height="10" fill="#d62728"/>
<text x="84.0" y="367" font-size="11" fill="#333">first audio (e2e)</text>
<polyline points="305.2,215.3 409.7,199.1 435.8,224.4 461.9,176.9 488.1,267.6 514.2,239.5 540.3,283.5 566.5,244.5 592.6,260.4 618.7,246.2 644.8,245.6 671.0,201.1 697.1,299.9 723.2,252.0 749.4,317.9 775.5,317.8 801.6,317.5 827.7,318.0" fill="none" stroke="#1f77b4" stroke-width="2"/>
<circle cx="305.2" cy="215.3" r="3" fill="#1f77b4"/>
<circle cx="409.7" cy="199.1" r="3" fill="#1f77b4"/>
<circle cx="435.8" cy="224.4" r="3" fill="#1f77b4"/>
<circle cx="461.9" cy="176.9" r="3" fill="#1f77b4"/>
<circle cx="488.1" cy="267.6" r="3" fill="#1f77b4"/>
<circle cx="514.2" cy="239.5" r="3" fill="#1f77b4"/>
<circle cx="540.3" cy="283.5" r="3" fill="#1f77b4"/>
<circle cx="566.5" cy="244.5" r="3" fill="#1f77b4"/>
<circle cx="592.6" cy="260.4" r="3" fill="#1f77b4"/>
<circle cx="618.7" cy="246.2" r="3" fill="#1f77b4"/>
<circle cx="644.8" cy="245.6" r="3" fill="#1f77b4"/>
<circle cx="671.0" cy="201.1" r="3" fill="#1f77b4"/>
<circle cx="697.1" cy="299.9" r="3" fill="#1f77b4"/>
<circle cx="723.2" cy="252.0" r="3" fill="#1f77b4"/>
<circle cx="749.4" cy="317.9" r="3" fill="#1f77b4"/>
<circle cx="775.5" cy="317.8" r="3" fill="#1f77b4"/>
<circle cx="801.6" cy="317.5" r="3" fill="#1f77b4"/>
<circle cx="827.7" cy="318.0" r="3" fill="#1f77b4"/>
<rect x="205.0" y="358" width="10" height="10" fill="#1f77b4"/>
<text x="219.0" y="367" font-size="11" fill="#333">tts first chunk</text>
<polyline points="305.2,298.0 409.7,298.0 435.8,307.7 514.2,287.9 540.3,307.5 566.5,307.7 618.7,300.5 644.8,298.4 697.1,304.7 723.2,305.1 749.4,306.6 775.5,304.3 801.6,291.3" fill="none" stroke="#ff7f0e" stroke-width="2"/>
<circle cx="305.2" cy="298.0" r="3" fill="#ff7f0e"/>
<circle cx="409.7" cy="298.0" r="3" fill="#ff7f0e"/>
<circle cx="435.8" cy="307.7" r="3" fill="#ff7f0e"/>
<circle cx="514.2" cy="287.9" r="3" fill="#ff7f0e"/>
<circle cx="540.3" cy="307.5" r="3" fill="#ff7f0e"/>
<circle cx="566.5" cy="307.7" r="3" fill="#ff7f0e"/>
<circle cx="618.7" cy="300.5" r="3" fill="#ff7f0e"/>
<circle cx="644.8" cy="298.4" r="3" fill="#ff7f0e"/>
<circle cx="697.1" cy="304.7" r="3" fill="#ff7f0e"/>
<circle cx="723.2" cy="305.1" r="3" fill="#ff7f0e"/>
<circle cx="749.4" cy="306.6" r="3" fill="#ff7f0e"/>
<circle cx="775.5" cy="304.3" r="3" fill="#ff7f0e"/>
<circle cx="801.6" cy="291.3" r="3" fill="#ff7f0e"/>
<rect x="340.0" y="358" width="10" height="10" fill="#ff7f0e"/>
<text x="354.0" y="367" font-size="11" fill="#333">llm ttft</text>
<polyline points="70.0,297.1 96.1,301.1 148.4,298.1 174.5,298.0 200.6,303.1 252.9,274.4 279.0,281.5 305.2,241.9 409.7,243.2 435.8,286.5 461.9,268.6 488.1,306.2 514.2,280.2 540.3,306.0 566.5,297.3 592.6,269.3 618.7,299.0 644.8,267.5 671.0,275.1 697.1,303.3 723.2,253.3 749.4,280.5 775.5,282.8 801.6,272.0 827.7,296.7" fill="none" stroke="#2ca02c" stroke-width="2"/>
<circle cx="70.0" cy="297.1" r="3" fill="#2ca02c"/>
<circle cx="96.1" cy="301.1" r="3" fill="#2ca02c"/>
<circle cx="148.4" cy="298.1" r="3" fill="#2ca02c"/>
<circle cx="174.5" cy="298.0" r="3" fill="#2ca02c"/>
<circle cx="200.6" cy="303.1" r="3" fill="#2ca02c"/>
<circle cx="252.9" cy="274.4" r="3" fill="#2ca02c"/>
<circle cx="279.0" cy="281.5" r="3" fill="#2ca02c"/>
<circle cx="305.2" cy="241.9" r="3" fill="#2ca02c"/>
<circle cx="409.7" cy="243.2" r="3" fill="#2ca02c"/>
<circle cx="435.8" cy="286.5" r="3" fill="#2ca02c"/>
<circle cx="461.9" cy="268.6" r="3" fill="#2ca02c"/>
<circle cx="488.1" cy="306.2" r="3" fill="#2ca02c"/>
<circle cx="514.2" cy="280.2" r="3" fill="#2ca02c"/>
<circle cx="540.3" cy="306.0" r="3" fill="#2ca02c"/>
<circle cx="566.5" cy="297.3" r="3" fill="#2ca02c"/>
<circle cx="592.6" cy="269.3" r="3" fill="#2ca02c"/>
<circle cx="618.7" cy="299.0" r="3" fill="#2ca02c"/>
<circle cx="644.8" cy="267.5" r="3" fill="#2ca02c"/>
<circle cx="671.0" cy="275.1" r="3" fill="#2ca02c"/>
<circle cx="697.1" cy="303.3" r="3" fill="#2ca02c"/>
<circle cx="723.2" cy="253.3" r="3" fill="#2ca02c"/>
<circle cx="749.4" cy="280.5" r="3" fill="#2ca02c"/>
<circle cx="775.5" cy="282.8" r="3" fill="#2ca02c"/>
<circle cx="801.6" cy="272.0" r="3" fill="#2ca02c"/>
<circle cx="827.7" cy="296.7" r="3" fill="#2ca02c"/>
<rect x="475.0" y="358" width="10" height="10" fill="#2ca02c"/>
<text x="489.0" y="367" font-size="11" fill="#333">llm first sentence</text>
<polyline points="70.0,311.1 96.1,313.5 122.3,311.5 148.4,312.5 174.5,305.2 200.6,313.0 252.9,306.1 279.0,304.1 305.2,308.6 409.7,305.6 435.8,310.6 461.9,306.4 488.1,314.9 514.2,315.0 540.3,315.6 566.5,307.9 592.6,313.9 618.7,315.7 644.8,312.8 671.0,306.0 697.1,316.6 723.2,306.0 749.4,313.9 775.5,315.3 801.6,310.5 827.7,316.9" fill="none" stroke="#9467bd" stroke-width="2"/>
<circle cx="70.0" cy="311.1" r="3" fill="#9467bd"/>
<circle cx="96.1" cy="313.5" r="3" fill="#9467bd"/>
<circle cx="122.3" cy="311.5" r="3" fill="#9467bd"/>
<circle cx="148.4" cy="312.5" r="3" fill="#9467bd"/>
<circle cx="174.5" cy="305.2" r="3" fill="#9467bd"/>
<circle cx="200.6" cy="313.0" r="3" fill="#9467bd"/>
<circle cx="252.9" cy="306.1" r="3" fill="#9467bd"/>
<circle cx="279.0" cy="304.1" r="3" fill="#9467bd"/>
<circle cx="305.2" cy="308.6" r="3" fill="#9467bd"/>
<circle cx="409.7" cy="305.6" r="3" fill="#9467bd"/>
<circle cx="435.8" cy="310.6" r="3" fill="#9467bd"/>
<circle cx="461.9" cy="306.4" r="3" fill="#9467bd"/>
<circle cx="488.1" cy="314.9" r="3" fill="#9467bd"/>
<circle cx="514.2" cy="315.0" r="3" fill="#9467bd"/>
<circle cx="540.3" cy="315.6" r="3" fill="#9467bd"/>
<circle cx="566.5" cy="307.9" r="3" fill="#9467bd"/>
<circle cx="592.6" cy="313.9" r="3" fill="#9467bd"/>
<circle cx="618.7" cy="315.7" r="3" fill="#9467bd"/>
<circle cx="644.8" cy="312.8" r="3" fill="#9467bd"/>
<circle cx="671.0" cy="306.0" r="3" fill="#9467bd"/>
<circle cx="697.1" cy="316.6" r="3" fill="#9467bd"/>
<circle cx="723.2" cy="306.0" r="3" fill="#9467bd"/>
<circle cx="749.4" cy="313.9" r="3" fill="#9467bd"/>
<circle cx="775.5" cy="315.3" r="3" fill="#9467bd"/>
<circle cx="801.6" cy="310.5" r="3" fill="#9467bd"/>
<circle cx="827.7" cy="316.9" r="3" fill="#9467bd"/>
<rect x="610.0" y="358" width="10" height="10" fill="#9467bd"/>
<text x="624.0" y="367" font-size="11" fill="#333">lipsync first mouth</text>
<polyline points="305.2,318.5 409.7,314.7 435.8,318.1 461.9,318.0 488.1,318.8 514.2,312.5 540.3,318.8 566.5,314.5 592.6,318.9 618.7,318.7 644.8,311.9 671.0,318.2 697.1,318.5 723.2,311.1 749.4,317.5 775.5,317.9 801.6,316.7 827.7,318.9" fill="none" stroke="#8c564b" stroke-width="2"/>
<circle cx="305.2" cy="318.5" r="3" fill="#8c564b"/>
<circle cx="409.7" cy="314.7" r="3" fill="#8c564b"/>
<circle cx="435.8" cy="318.1" r="3" fill="#8c564b"/>
<circle cx="461.9" cy="318.0" r="3" fill="#8c564b"/>
<circle cx="488.1" cy="318.8" r="3" fill="#8c564b"/>
<circle cx="514.2" cy="312.5" r="3" fill="#8c564b"/>
<circle cx="540.3" cy="318.8" r="3" fill="#8c564b"/>
<circle cx="566.5" cy="314.5" r="3" fill="#8c564b"/>
<circle cx="592.6" cy="318.9" r="3" fill="#8c564b"/>
<circle cx="618.7" cy="318.7" r="3" fill="#8c564b"/>
<circle cx="644.8" cy="311.9" r="3" fill="#8c564b"/>
<circle cx="671.0" cy="318.2" r="3" fill="#8c564b"/>
<circle cx="697.1" cy="318.5" r="3" fill="#8c564b"/>
<circle cx="723.2" cy="311.1" r="3" fill="#8c564b"/>
<circle cx="749.4" cy="317.5" r="3" fill="#8c564b"/>
<circle cx="775.5" cy="317.9" r="3" fill="#8c564b"/>
<circle cx="801.6" cy="316.7" r="3" fill="#8c564b"/>
<circle cx="827.7" cy="318.9" r="3" fill="#8c564b"/>
<rect x="745.0" y="358" width="10" height="10" fill="#8c564b"/>
<text x="759.0" y="367" font-size="11" fill="#333">render tick p95</text>
</svg>
