<svg xmlns="http://www.w3.org/2000/svg" width="900" height="380" viewBox="0 0 900 380" font-family="sans-serif">
<rect width="900" height="380" fill="white"/>
<text x="70" y="24" font-size="16" fill="#333">Latency (ms, p50 unless noted) — lower is better</text>
<line x1="70" y1="324.0" x2="880" y2="324.0" stroke="#e5e5e5"/>
<text x="64" y="328.0" font-size="11" fill="#666" text-anchor="end">0ms</text>
<line x1="70" y1="268.0" x2="880" y2="268.0" stroke="#e5e5e5"/>
<text x="64" y="272.0" font-size="11" fill="#666" text-anchor="end">1481ms</text>
<line x1="70" y1="212.0" x2="880" y2="212.0" stroke="#e5e5e5"/>
<text x="64" y="216.0" font-size="11" fill="#666" text-anchor="end">2963ms</text>
<line x1="70" y1="156.0" x2="880" y2="156.0" stroke="#e5e5e5"/>
<text x="64" y="160.0" font-size="11" fill="#666" text-anchor="end">4444ms</text>
<line x1="70" y1="100.0" x2="880" y2="100.0" stroke="#e5e5e5"/>
<text x="64" y="104.0" font-size="11" fill="#666" text-anchor="end">5925ms</text>
<line x1="70" y1="44.0" x2="880" y2="44.0" stroke="#e5e5e5"/>
<text x="64" y="48.0" font-size="11" fill="#666" text-anchor="end">7407ms</text>
<text x="70.0" y="342" font-size="11" fill="#666" text-anchor="start">07-16 16:02</text>
<text x="483.6" y="342" font-size="11" fill="#666" text-anchor="middle">07-17 16:35</text>
<text x="880.0" y="342" font-size="11" fill="#666" text-anchor="end">07-17 22:28</text>
<polyline points="70.0,217.7 87.2,227.9 121.7,203.6 138.9,277.5 156.2,167.6 173.4,238.1 190.6,172.1 207.9,214.4 225.1,167.1 242.3,251.0 259.6,170.5 276.8,265.2 294.0,240.0 311.3,194.2 328.5,237.5 345.7,232.3 363.0,238.8 380.2,246.5 397.4,234.7 414.7,174.8 431.9,240.9 449.1,214.4 466.4,64.7 483.6,245.0 500.9,220.8 518.1,276.4 535.3,269.9 552.6,274.6 569.8,281.8 587.0,316.3 604.3,285.1 621.5,292.2 638.7,283.0 656.0,300.1 673.2,293.0 690.4,206.2 707.7,292.0 724.9,223.6 742.1,294.7 759.4,296.4 776.6,260.6 793.8,292.8 811.1,290.2 828.3,290.1 845.5,286.4 862.8,287.0 880.0,292.4" fill="none" stroke="#d62728" stroke-width="2"/>
<circle cx="70.0" cy="217.7" r="3" fill="#d62728"/>
<circle cx="87.2" cy="227.9" r="3" fill="#d62728"/>
<circle cx="121.7" cy="203.6" r="3" fill="#d62728"/>
<circle cx="138.9" cy="277.5" r="3" fill="#d62728"/>
<circle cx="156.2" cy="167.6" r="3" fill="#d62728"/>
<circle cx="173.4" cy="238.1" r="3" fill="#d62728"/>
<circle cx="190.6" cy="172.1" r="3" fill="#d62728"/>
<circle cx="207.9" cy="214.4" r="3" fill="#d62728"/>
<circle cx="225.1" cy="167.1" r="3" fill="#d62728"/>
<circle cx="242.3" cy="251.0" r="3" fill="#d62728"/>
<circle cx="259.6" cy="170.5" r="3" fill="#d62728"/>
<circle cx="276.8" cy="265.2" r="3" fill="#d62728"/>
<circle cx="294.0" cy="240.0" r="3" fill="#d62728"/>
<circle cx="311.3" cy="194.2" r="3" fill="#d62728"/>
<circle cx="328.5" cy="237.5" r="3" fill="#d62728"/>
<circle cx="345.7" cy="232.3" r="3" fill="#d62728"/>
<circle cx="363.0" cy="238.8" r="3" fill="#d62728"/>
<circle cx="380.2" cy="246.5" r="3" fill="#d62728"/>
<circle cx="397.4" cy="234.7" r="3" fill="#d62728"/>
<circle cx="414.7" cy="174.8" r="3" fill="#d62728"/>
<circle cx="431.9" cy="240.9" r="3" fill="#d62728"/>
<circle cx="449.1" cy="214.4" r="3" fill="#d62728"/>
<circle cx="466.4" cy="64.7" r="3" fill="#d62728"/>
<circle cx="483.6" cy="245.0" r="3" fill="#d62728"/>
<circle cx="500.9" cy="220.8" r="3" fill="#d62728"/>
<circle cx="518.1" cy="276.4" r="3" fill="#d62728"/>
<circle cx="535.3" cy="269.9" r="3" fill="#d62728"/>
<circle cx="552.6" cy="274.6" r="3" fill="#d62728"/>
<circle cx="569.8" cy="281.8" r="3" fill="#d62728"/>
<circle cx="587.0" cy="316.3" r="3" fill="#d62728"/>
<circle cx="604.3" cy="285.1" r="3" fill="#d62728"/>
<circle cx="621.5" cy="292.2" r="3" fill="#d62728"/>
<circle cx="638.7" cy="283.0" r="3" fill="#d62728"/>
<circle cx="656.0" cy="300.1" r="3" fill="#d62728"/>
<circle cx="673.2" cy="293.0" r="3" fill="#d62728"/>
<circle cx="690.4" cy="206.2" r="3" fill="#d62728"/>
<circle cx="707.7" cy="292.0" r="3" fill="#d62728"/>
<circle cx="724.9" cy="223.6" r="3" fill="#d62728"/>
<circle cx="742.1" cy="294.7" r="3" fill="#d62728"/>
<circle cx="759.4" cy="296.4" r="3" fill="#d62728"/>
<circle cx="776.6" cy="260.6" r="3" fill="#d62728"/>
<circle cx="793.8" cy="292.8" r="3" fill="#d62728"/>
<circle cx="811.1" cy="290.2" r="3" fill="#d62728"/>
<circle cx="828.3" cy="290.1" r="3" fill="#d62728"/>
<circle cx="845.5" cy="286.4" r="3" fill="#d62728"/>
<circle cx="862.8" cy="287.0" r="3" fill="#d62728"/>
<circle cx="880.0" cy="292.4" r="3" fill="#d62728"/>
<rect x="70.0" y="358" width="10" height="10" fill="#d62728"/>
<text x="84.0" y="367" font-size="11" fill="#333">first audio (e2e)</text>
<polyline points="225.1,215.3 294.0,199.1 311.3,224.4 328.5,176.9 345.7,267.6 363.0,239.5 380.2,283.5 397.4,244.5 414.7,260.4 431.9,246.2 449.1,245.6 466.4,201.1 483.6,299.9 500.9,252.0 518.1,317.9 535.3,317.8 552.6,317.5 569.8,318.0 621.5,318.3 638.7,317.4 656.0,317.8 673.2,318.6 690.4,317.8 707.7,318.2 724.9,317.3 742.1,317.7 759.4,319.0 776.6,318.6 793.8,317.0 811.1,317.8 828.3,318.5 845.5,317.4 862.8,317.7 880.0,317.1" fill="none" stroke="#1f77b4" stroke-width="2"/>
<circle cx="225.1" cy="215.3" r="3" fill="#1f77b4"/>
<circle cx="294.0" cy="199.1" r="3" fill="#1f77b4"/>
<circle cx="311.3" cy="224.4" r="3" fill="#1f77b4"/>
<circle cx="328.5" cy="176.9" r="3" fill="#1f77b4"/>
<circle cx="345.7" cy="267.6" r="3" fill="#1f77b4"/>
<circle cx="363.0" cy="239.5" r="3" fill="#1f77b4"/>
<circle cx="380.2" cy="283.5" r="3" fill="#1f77b4"/>
<circle cx="397.4" cy="244.5" r="3" fill="#1f77b4"/>
<circle cx="414.7" cy="260.4" r="3" fill="#1f77b4"/>
<circle cx="431.9" cy="246.2" r="3" fill="#1f77b4"/>
<circle cx="449.1" cy="245.6" r="3" fill="#1f77b4"/>
<circle cx="466.4" cy="201.1" r="3" fill="#1f77b4"/>
<circle cx="483.6" cy="299.9" r="3" fill="#1f77b4"/>
<circle cx="500.9" cy="252.0" r="3" fill="#1f77b4"/>
<circle cx="518.1" cy="317.9" r="3" fill="#1f77b4"/>
<circle cx="535.3" cy="317.8" r="3" fill="#1f77b4"/>
<circle cx="552.6" cy="317.5" r="3" fill="#1f77b4"/>
<circle cx="569.8" cy="318.0" r="3" fill="#1f77b4"/>
<circle cx="621.5" cy="318.3" r="3" fill="#1f77b4"/>
<circle cx="638.7" cy="317.4" r="3" fill="#1f77b4"/>
<circle cx="656.0" cy="317.8" r="3" fill="#1f77b4"/>
<circle cx="673.2" cy="318.6" r="3" fill="#1f77b4"/>
<circle cx="690.4" cy="317.8" r="3" fill="#1f77b4"/>
<circle cx="707.7" cy="318.2" r="3" fill="#1f77b4"/>
<circle cx="724.9" cy="317.3" r="3" fill="#1f77b4"/>
<circle cx="742.1" cy="317.7" r="3" fill="#1f77b4"/>
<circle cx="759.4" cy="319.0" r="3" fill="#1f77b4"/>
<circle cx="776.6" cy="318.6" r="3" fill="#1f77b4"/>
<circle cx="793.8" cy="317.0" r="3" fill="#1f77b4"/>
<circle cx="811.1" cy="317.8" r="3" fill="#1f77b4"/>
<circle cx="828.3" cy="318.5" r="3" fill="#1f77b4"/>
<circle cx="845.5" cy="317.4" r="3" fill="#1f77b4"/>
<circle cx="862.8" cy="317.7" r="3" fill="#1f77b4"/>
<circle cx="880.0" cy="317.1" r="3" fill="#1f77b4"/>
<rect x="205.0" y="358" width="10" height="10" fill="#1f77b4"/>
<text x="219.0" y="367" font-size="11" fill="#333">tts first chunk</text>
<polyline points="225.1,298.0 294.0,298.0 311.3,307.7 363.0,287.9 380.2,307.5 397.4,307.7 431.9,300.5 449.1,298.4 483.6,304.7 500.9,305.1 518.1,306.6 535.3,304.3 552.6,291.3 621.5,304.1 690.4,262.6 742.1,311.0 759.4,312.2 776.6,308.2 828.3,308.0" fill="none" stroke="#ff7f0e" stroke-width="2"/>
<circle cx="225.1" cy="298.0" r="3" fill="#ff7f0e"/>
<circle cx="294.0" cy="298.0" r="3" fill="#ff7f0e"/>
<circle cx="311.3" cy="307.7" r="3" fill="#ff7f0e"/>
<circle cx="363.0" cy="287.9" r="3" fill="#ff7f0e"/>
<circle cx="380.2" cy="307.5" r="3" fill="#ff7f0e"/>
<circle cx="397.4" cy="307.7" r="3" fill="#ff7f0e"/>
<circle cx="431.9" cy="300.5" r="3" fill="#ff7f0e"/>
<circle cx="449.1" cy="298.4" r="3" fill="#ff7f0e"/>
<circle cx="483.6" cy="304.7" r="3" fill="#ff7f0e"/>
<circle cx="500.9" cy="305.1" r="3" fill="#ff7f0e"/>
<circle cx="518.1" cy="306.6" r="3" fill="#ff7f0e"/>
<circle cx="535.3" cy="304.3" r="3" fill="#ff7f0e"/>
<circle cx="552.6" cy="291.3" r="3" fill="#ff7f0e"/>
<circle cx="621.5" cy="304.1" r="3" fill="#ff7f0e"/>
<circle cx="690.4" cy="262.6" r="3" fill="#ff7f0e"/>
<circle cx="742.1" cy="311.0" r="3" fill="#ff7f0e"/>
<circle cx="759.4" cy="312.2" r="3" fill="#ff7f0e"/>
<circle cx="776.6" cy="308.2" r="3" fill="#ff7f0e"/>
<circle cx="828.3" cy="308.0" r="3" fill="#ff7f0e"/>
<rect x="340.0" y="358" width="10" height="10" fill="#ff7f0e"/>
<text x="354.0" y="367" font-size="11" fill="#333">llm ttft</text>
<polyline points="70.0,297.1 87.2,301.1 121.7,298.1 138.9,298.0 156.2,303.1 190.6,274.4 207.9,281.5 225.1,241.9 294.0,243.2 311.3,286.5 328.5,268.6 345.7,306.2 363.0,280.2 380.2,306.0 397.4,297.3 414.7,269.3 431.9,299.0 449.1,267.5 466.4,275.1 483.6,303.3 500.9,253.3 518.1,280.5 535.3,282.8 552.6,272.0 569.8,296.7 621.5,299.6 638.7,301.6 656.0,312.5 673.2,300.5 690.4,169.3 707.7,296.2 724.9,240.3 742.1,307.0 759.4,310.0 776.6,275.8 793.8,305.7 811.1,304.6 828.3,303.7 845.5,297.4 862.8,297.4 880.0,306.8" fill="none" stroke="#2ca02c" stroke-width="2"/>
<circle cx="70.0" cy="297.1" r="3" fill="#2ca02c"/>
<circle cx="87.2" cy="301.1" r="3" fill="#2ca02c"/>
<circle cx="121.7" cy="298.1" r="3" fill="#2ca02c"/>
<circle cx="138.9" cy="298.0" r="3" fill="#2ca02c"/>
<circle cx="156.2" cy="303.1" r="3" fill="#2ca02c"/>
<circle cx="190.6" cy="274.4" r="3" fill="#2ca02c"/>
<circle cx="207.9" cy="281.5" r="3" fill="#2ca02c"/>
<circle cx="225.1" cy="241.9" r="3" fill="#2ca02c"/>
<circle cx="294.0" cy="243.2" r="3" fill="#2ca02c"/>
<circle cx="311.3" cy="286.5" r="3" fill="#2ca02c"/>
<circle cx="328.5" cy="268.6" r="3" fill="#2ca02c"/>
<circle cx="345.7" cy="306.2" r="3" fill="#2ca02c"/>
<circle cx="363.0" cy="280.2" r="3" fill="#2ca02c"/>
<circle cx="380.2" cy="306.0" r="3" fill="#2ca02c"/>
<circle cx="397.4" cy="297.3" r="3" fill="#2ca02c"/>
<circle cx="414.7" cy="269.3" r="3" fill="#2ca02c"/>
<circle cx="431.9" cy="299.0" r="3" fill="#2ca02c"/>
<circle cx="449.1" cy="267.5" r="3" fill="#2ca02c"/>
<circle cx="466.4" cy="275.1" r="3" fill="#2ca02c"/>
<circle cx="483.6" cy="303.3" r="3" fill="#2ca02c"/>
<circle cx="500.9" cy="253.3" r="3" fill="#2ca02c"/>
<circle cx="518.1" cy="280.5" r="3" fill="#2ca02c"/>
<circle cx="535.3" cy="282.8" r="3" fill="#2ca02c"/>
<circle cx="552.6" cy="272.0" r="3" fill="#2ca02c"/>
<circle cx="569.8" cy="296.7" r="3" fill="#2ca02c"/>
<circle cx="621.5" cy="299.6" r="3" fill="#2ca02c"/>
<circle cx="638.7" cy="301.6" r="3" fill="#2ca02c"/>
<circle cx="656.0" cy="312.5" r="3" fill="#2ca02c"/>
<circle cx="673.2" cy="300.5" r="3" fill="#2ca02c"/>
<circle cx="690.4" cy="169.3" r="3" fill="#2ca02c"/>
<circle cx="707.7" cy="296.2" r="3" fill="#2ca02c"/>
<circle cx="724.9" cy="240.3" r="3" fill="#2ca02c"/>
<circle cx="742.1" cy="307.0" r="3" fill="#2ca02c"/>
<circle cx="759.4" cy="310.0" r="3" fill="#2ca02c"/>
<circle cx="776.6" cy="275.8" r="3" fill="#2ca02c"/>
<circle cx="793.8" cy="305.7" r="3" fill="#2ca02c"/>
<circle cx="811.1" cy="304.6" r="3" fill="#2ca02c"/>
<circle cx="828.3" cy="303.7" r="3" fill="#2ca02c"/>
<circle cx="845.5" cy="297.4" r="3" fill="#2ca02c"/>
<circle cx="862.8" cy="297.4" r="3" fill="#2ca02c"/>
<circle cx="880.0" cy="306.8" r="3" fill="#2ca02c"/>
<rect x="475.0" y="358" width="10" height="10" fill="#2ca02c"/>
<text x="489.0" y="367" font-size="11" fill="#333">llm first sentence</text>
<polyline points="70.0,311.1 87.2,313.5 104.5,311.5 121.7,312.5 138.9,305.2 156.2,313.0 190.6,306.1 207.9,304.1 225.1,308.6 294.0,305.6 311.3,310.6 328.5,306.4 345.7,314.9 363.0,315.0 380.2,315.6 397.4,307.9 414.7,313.9 431.9,315.7 449.1,312.8 466.4,306.0 483.6,316.6 500.9,306.0 518.1,313.9 535.3,315.3 552.6,310.5 569.8,316.9 621.5,316.3 638.7,314.8 656.0,314.8 673.2,315.1 690.4,315.2 707.7,314.1 724.9,311.9 742.1,316.5 759.4,316.1 776.6,316.0 793.8,312.9 811.1,314.0 828.3,316.3 845.5,313.4 862.8,316.9 880.0,312.3" fill="none" stroke="#9467bd" stroke-width="2"/>
<circle cx="70.0" cy="311.1" r="3" fill="#9467bd"/>
<circle cx="87.2" cy="313.5" r="3" fill="#9467bd"/>
<circle cx="104.5" cy="311.5" r="3" fill="#9467bd"/>
<circle cx="121.7" cy="312.5" r="3" fill="#9467bd"/>
<circle cx="138.9" cy="305.2" r="3" fill="#9467bd"/>
<circle cx="156.2" cy="313.0" r="3" fill="#9467bd"/>
<circle cx="190.6" cy="306.1" r="3" fill="#9467bd"/>
<circle cx="207.9" cy="304.1" r="3" fill="#9467bd"/>
<circle cx="225.1" cy="308.6" r="3" fill="#9467bd"/>
<circle cx="294.0" cy="305.6" r="3" fill="#9467bd"/>
<circle cx="311.3" cy="310.6" r="3" fill="#9467bd"/>
<circle cx="328.5" cy="306.4" r="3" fill="#9467bd"/>
<circle cx="345.7" cy="314.9" r="3" fill="#9467bd"/>
<circle cx="363.0" cy="315.0" r="3" fill="#9467bd"/>
<circle cx="380.2" cy="315.6" r="3" fill="#9467bd"/>
<circle cx="397.4" cy="307.9" r="3" fill="#9467bd"/>
<circle cx="414.7" cy="313.9" r="3" fill="#9467bd"/>
<circle cx="431.9" cy="315.7" r="3" fill="#9467bd"/>
<circle cx="449.1" cy="312.8" r="3" fill="#9467bd"/>
<circle cx="466.4" cy="306.0" r="3" fill="#9467bd"/>
<circle cx="483.6" cy="316.6" r="3" fill="#9467bd"/>
<circle cx="500.9" cy="306.0" r="3" fill="#9467bd"/>
<circle cx="518.1" cy="313.9" r="3" fill="#9467bd"/>
<circle cx="535.3" cy="315.3" r="3" fill="#9467bd"/>
<circle cx="552.6" cy="310.5" r="3" fill="#9467bd"/>
<circle cx="569.8" cy="316.9" r="3" fill="#9467bd"/>
<circle cx="621.5" cy="316.3" r="3" fill="#9467bd"/>
<circle cx="638.7" cy="314.8" r="3" fill="#9467bd"/>
<circle cx="656.0" cy="314.8" r="3" fill="#9467bd"/>
<circle cx="673.2" cy="315.1" r="3" fill="#9467bd"/>
<circle cx="690.4" cy="315.2" r="3" fill="#9467bd"/>
<circle cx="707.7" cy="314.1" r="3" fill="#9467bd"/>
<circle cx="724.9" cy="311.9" r="3" fill="#9467bd"/>
<circle cx="742.1" cy="316.5" r="3" fill="#9467bd"/>
<circle cx="759.4" cy="316.1" r="3" fill="#9467bd"/>
<circle cx="776.6" cy="316.0" r="3" fill="#9467bd"/>
<circle cx="793.8" cy="312.9" r="3" fill="#9467bd"/>
<circle cx="811.1" cy="314.0" r="3" fill="#9467bd"/>
<circle cx="828.3" cy="316.3" r="3" fill="#9467bd"/>
<circle cx="845.5" cy="313.4" r="3" fill="#9467bd"/>
<circle cx="862.8" cy="316.9" r="3" fill="#9467bd"/>
<circle cx="880.0" cy="312.3" r="3" fill="#9467bd"/>
<rect x="610.0" y="358" width="10" height="10" fill="#9467bd"/>
<text x="624.0" y="367" font-size="11" fill="#333">lipsync first mouth</text>
<polyline points="225.1,318.5 294.0,314.7 311.3,318.1 328.5,318.0 345.7,318.8 363.0,312.5 380.2,318.8 397.4,314.5 414.7,318.9 431.9,318.7 449.1,311.9 466.4,318.2 483.6,318.5 500.9,311.1 518.1,317.5 535.3,317.9 552.6,316.7 569.8,318.9 621.5,318.7 638.7,318.6 656.0,318.2 673.2,318.2 690.4,318.6 707.7,317.8 724.9,318.8 742.1,318.3 759.4,318.3 776.6,319.3 793.8,315.9 811.1,318.6 828.3,319.7 845.5,317.7 862.8,319.3 880.0,319.1" fill="none" stroke="#8c564b" stroke-width="2"/>
<circle cx="225.1" cy="318.5" r="3" fill="#8c564b"/>
<circle cx="294.0" cy="314.7" r="3" fill="#8c564b"/>
<circle cx="311.3" cy="318.1" r="3" fill="#8c564b"/>
<circle cx="328.5" cy="318.0" r="3" fill="#8c564b"/>
<circle cx="345.7" cy="318.8" r="3" fill="#8c564b"/>
<circle cx="363.0" cy="312.5" r="3" fill="#8c564b"/>
<circle cx="380.2" cy="318.8" r="3" fill="#8c564b"/>
<circle cx="397.4" cy="314.5" r="3" fill="#8c564b"/>
<circle cx="414.7" cy="318.9" r="3" fill="#8c564b"/>
<circle cx="431.9" cy="318.7" r="3" fill="#8c564b"/>
<circle cx="449.1" cy="311.9" r="3" fill="#8c564b"/>
<circle cx="466.4" cy="318.2" r="3" fill="#8c564b"/>
<circle cx="483.6" cy="318.5" r="3" fill="#8c564b"/>
<circle cx="500.9" cy="311.1" r="3" fill="#8c564b"/>
<circle cx="518.1" cy="317.5" r="3" fill="#8c564b"/>
<circle cx="535.3" cy="317.9" r="3" fill="#8c564b"/>
<circle cx="552.6" cy="316.7" r="3" fill="#8c564b"/>
<circle cx="569.8" cy="318.9" r="3" fill="#8c564b"/>
<circle cx="621.5" cy="318.7" r="3" fill="#8c564b"/>
<circle cx="638.7" cy="318.6" r="3" fill="#8c564b"/>
<circle cx="656.0" cy="318.2" r="3" fill="#8c564b"/>
<circle cx="673.2" cy="318.2" r="3" fill="#8c564b"/>
<circle cx="690.4" cy="318.6" r="3" fill="#8c564b"/>
<circle cx="707.7" cy="317.8" r="3" fill="#8c564b"/>
<circle cx="724.9" cy="318.8" r="3" fill="#8c564b"/>
<circle cx="742.1" cy="318.3" r="3" fill="#8c564b"/>
<circle cx="759.4" cy="318.3" r="3" fill="#8c564b"/>
<circle cx="776.6" cy="319.3" r="3" fill="#8c564b"/>
<circle cx="793.8" cy="315.9" r="3" fill="#8c564b"/>
<circle cx="811.1" cy="318.6" r="3" fill="#8c564b"/>
<circle cx="828.3" cy="319.7" r="3" fill="#8c564b"/>
<circle cx="845.5" cy="317.7" r="3" fill="#8c564b"/>
<circle cx="862.8" cy="319.3" r="3" fill="#8c564b"/>
<circle cx="880.0" cy="319.1" r="3" fill="#8c564b"/>
<rect x="745.0" y="358" width="10" height="10" fill="#8c564b"/>
<text x="759.0" y="367" font-size="11" fill="#333">render tick p95</text>
</svg>
