<svg xmlns="http://www.w3.org/2000/svg" width="900" height="380" viewBox="0 0 900 380" font-family="sans-serif">
<rect width="900" height="380" fill="white"/>
<text x="70" y="24" font-size="16" fill="#333">Render loop per-frame cost (ms, p50 unless noted) — 25fps budget is 40ms</text>
<line x1="70" y1="324.0" x2="880" y2="324.0" stroke="#e5e5e5"/>
<text x="64" y="328.0" font-size="11" fill="#666" text-anchor="end">0ms</text>
<line x1="70" y1="268.0" x2="880" y2="268.0" stroke="#e5e5e5"/>
<text x="64" y="272.0" font-size="11" fill="#666" text-anchor="end">74ms</text>
<line x1="70" y1="212.0" x2="880" y2="212.0" stroke="#e5e5e5"/>
<text x="64" y="216.0" font-size="11" fill="#666" text-anchor="end">148ms</text>
<line x1="70" y1="156.0" x2="880" y2="156.0" stroke="#e5e5e5"/>
<text x="64" y="160.0" font-size="11" fill="#666" text-anchor="end">222ms</text>
<line x1="70" y1="100.0" x2="880" y2="100.0" stroke="#e5e5e5"/>
<text x="64" y="104.0" font-size="11" fill="#666" text-anchor="end">296ms</text>
<line x1="70" y1="44.0" x2="880" y2="44.0" stroke="#e5e5e5"/>
<text x="64" y="48.0" font-size="11" fill="#666" text-anchor="end">369ms</text>
<line x1="70" y1="293.7" x2="880" y2="293.7" stroke="#d62728" stroke-width="1.5" stroke-dasharray="6,4"/>
<text x="876" y="288.7" font-size="11" fill="#d62728" text-anchor="end">budget 40ms</text>
<text x="70.0" y="342" font-size="11" fill="#666" text-anchor="start">07-16 16:02</text>
<text x="475.0" y="342" font-size="11" fill="#666" text-anchor="middle">07-17 14:55</text>
<text x="880.0" y="342" font-size="11" fill="#666" text-anchor="end">07-17 20:21</text>
<polyline points="261.8,213.6 347.1,137.4 368.4,205.1 389.7,203.0 411.1,219.1 432.4,92.5 453.7,219.2 475.0,133.4 496.3,222.5 517.6,217.1 538.9,80.9 560.3,207.6 581.6,213.5 602.9,64.7 624.2,193.7 645.5,201.3 666.8,177.8 688.2,221.2 752.1,217.1 773.4,216.1 794.7,207.0 816.1,207.7 837.4,214.9 858.7,199.8 880.0,219.9" fill="none" stroke="#8c564b" stroke-width="2"/>
<circle cx="261.8" cy="213.6" r="3" fill="#8c564b"/>
<circle cx="347.1" cy="137.4" r="3" fill="#8c564b"/>
<circle cx="368.4" cy="205.1" r="3" fill="#8c564b"/>
<circle cx="389.7" cy="203.0" r="3" fill="#8c564b"/>
<circle cx="411.1" cy="219.1" r="3" fill="#8c564b"/>
<circle cx="432.4" cy="92.5" r="3" fill="#8c564b"/>
<circle cx="453.7" cy="219.2" r="3" fill="#8c564b"/>
<circle cx="475.0" cy="133.4" r="3" fill="#8c564b"/>
<circle cx="496.3" cy="222.5" r="3" fill="#8c564b"/>
<circle cx="517.6" cy="217.1" r="3" fill="#8c564b"/>
<circle cx="538.9" cy="80.9" r="3" fill="#8c564b"/>
<circle cx="560.3" cy="207.6" r="3" fill="#8c564b"/>
<circle cx="581.6" cy="213.5" r="3" fill="#8c564b"/>
<circle cx="602.9" cy="64.7" r="3" fill="#8c564b"/>
<circle cx="624.2" cy="193.7" r="3" fill="#8c564b"/>
<circle cx="645.5" cy="201.3" r="3" fill="#8c564b"/>
<circle cx="666.8" cy="177.8" r="3" fill="#8c564b"/>
<circle cx="688.2" cy="221.2" r="3" fill="#8c564b"/>
<circle cx="752.1" cy="217.1" r="3" fill="#8c564b"/>
<circle cx="773.4" cy="216.1" r="3" fill="#8c564b"/>
<circle cx="794.7" cy="207.0" r="3" fill="#8c564b"/>
<circle cx="816.1" cy="207.7" r="3" fill="#8c564b"/>
<circle cx="837.4" cy="214.9" r="3" fill="#8c564b"/>
<circle cx="858.7" cy="199.8" r="3" fill="#8c564b"/>
<circle cx="880.0" cy="219.9" r="3" fill="#8c564b"/>
<rect x="70.0" y="358" width="10" height="10" fill="#8c564b"/>
<text x="84.0" y="367" font-size="11" fill="#333">render tick (p95)</text>
<polyline points="368.4,270.7 389.7,273.5 411.1,278.0 432.4,274.7 453.7,274.6 475.0,277.4 496.3,278.8 517.6,272.2 538.9,271.0 560.3,275.1 581.6,272.7 602.9,273.7 624.2,273.8 645.5,274.2 666.8,269.0 688.2,278.3 752.1,273.6 773.4,277.7 794.7,274.1 816.1,274.4 837.4,273.8 858.7,272.2 880.0,276.3" fill="none" stroke="#1f77b4" stroke-width="2"/>
<circle cx="368.4" cy="270.7" r="3" fill="#1f77b4"/>
<circle cx="389.7" cy="273.5" r="3" fill="#1f77b4"/>
<circle cx="411.1" cy="278.0" r="3" fill="#1f77b4"/>
<circle cx="432.4" cy="274.7" r="3" fill="#1f77b4"/>
<circle cx="453.7" cy="274.6" r="3" fill="#1f77b4"/>
<circle cx="475.0" cy="277.4" r="3" fill="#1f77b4"/>
<circle cx="496.3" cy="278.8" r="3" fill="#1f77b4"/>
<circle cx="517.6" cy="272.2" r="3" fill="#1f77b4"/>
<circle cx="538.9" cy="271.0" r="3" fill="#1f77b4"/>
<circle cx="560.3" cy="275.1" r="3" fill="#1f77b4"/>
<circle cx="581.6" cy="272.7" r="3" fill="#1f77b4"/>
<circle cx="602.9" cy="273.7" r="3" fill="#1f77b4"/>
<circle cx="624.2" cy="273.8" r="3" fill="#1f77b4"/>
<circle cx="645.5" cy="274.2" r="3" fill="#1f77b4"/>
<circle cx="666.8" cy="269.0" r="3" fill="#1f77b4"/>
<circle cx="688.2" cy="278.3" r="3" fill="#1f77b4"/>
<circle cx="752.1" cy="273.6" r="3" fill="#1f77b4"/>
<circle cx="773.4" cy="277.7" r="3" fill="#1f77b4"/>
<circle cx="794.7" cy="274.1" r="3" fill="#1f77b4"/>
<circle cx="816.1" cy="274.4" r="3" fill="#1f77b4"/>
<circle cx="837.4" cy="273.8" r="3" fill="#1f77b4"/>
<circle cx="858.7" cy="272.2" r="3" fill="#1f77b4"/>
<circle cx="880.0" cy="276.3" r="3" fill="#1f77b4"/>
<rect x="340.0" y="358" width="10" height="10" fill="#1f77b4"/>
<text x="354.0" y="367" font-size="11" fill="#333">render mouth (wav2lip)</text>
<polyline points="368.4,299.0 389.7,302.7 411.1,304.1 432.4,302.4 453.7,301.0 475.0,304.1 496.3,304.4 517.6,298.5 538.9,303.3 560.3,303.2 581.6,302.4 602.9,301.3 624.2,303.2 645.5,304.0 666.8,301.1 688.2,304.4 752.1,302.9 773.4,303.5 794.7,301.9 816.1,301.6 837.4,302.2 858.7,301.3 880.0,303.1" fill="none" stroke="#2ca02c" stroke-width="2"/>
<circle cx="368.4" cy="299.0" r="3" fill="#2ca02c"/>
<circle cx="389.7" cy="302.7" r="3" fill="#2ca02c"/>
<circle cx="411.1" cy="304.1" r="3" fill="#2ca02c"/>
<circle cx="432.4" cy="302.4" r="3" fill="#2ca02c"/>
<circle cx="453.7" cy="301.0" r="3" fill="#2ca02c"/>
<circle cx="475.0" cy="304.1" r="3" fill="#2ca02c"/>
<circle cx="496.3" cy="304.4" r="3" fill="#2ca02c"/>
<circle cx="517.6" cy="298.5" r="3" fill="#2ca02c"/>
<circle cx="538.9" cy="303.3" r="3" fill="#2ca02c"/>
<circle cx="560.3" cy="303.2" r="3" fill="#2ca02c"/>
<circle cx="581.6" cy="302.4" r="3" fill="#2ca02c"/>
<circle cx="602.9" cy="301.3" r="3" fill="#2ca02c"/>
<circle cx="624.2" cy="303.2" r="3" fill="#2ca02c"/>
<circle cx="645.5" cy="304.0" r="3" fill="#2ca02c"/>
<circle cx="666.8" cy="301.1" r="3" fill="#2ca02c"/>
<circle cx="688.2" cy="304.4" r="3" fill="#2ca02c"/>
<circle cx="752.1" cy="302.9" r="3" fill="#2ca02c"/>
<circle cx="773.4" cy="303.5" r="3" fill="#2ca02c"/>
<circle cx="794.7" cy="301.9" r="3" fill="#2ca02c"/>
<circle cx="816.1" cy="301.6" r="3" fill="#2ca02c"/>
<circle cx="837.4" cy="302.2" r="3" fill="#2ca02c"/>
<circle cx="858.7" cy="301.3" r="3" fill="#2ca02c"/>
<circle cx="880.0" cy="303.1" r="3" fill="#2ca02c"/>
<rect x="610.0" y="358" width="10" height="10" fill="#2ca02c"/>
<text x="624.0" y="367" font-size="11" fill="#333">render compose (SkiaSharp)</text>
</svg>
