<svg xmlns="http://www.w3.org/2000/svg" width="900" height="380" viewBox="0 0 900 380" font-family="sans-serif">
<rect width="900" height="380" fill="white"/>
<text x="70" y="24" font-size="16" fill="#333">Render loop per-frame cost (ms, p50 unless noted) — 25fps budget is 40ms</text>
<line x1="70" y1="324.0" x2="880" y2="324.0" stroke="#e5e5e5"/>
<text x="64" y="328.0" font-size="11" fill="#666" text-anchor="end">0ms</text>
<line x1="70" y1="268.0" x2="880" y2="268.0" stroke="#e5e5e5"/>
<text x="64" y="272.0" font-size="11" fill="#666" text-anchor="end">74ms</text>
<line x1="70" y1="212.0" x2="880" y2="212.0" stroke="#e5e5e5"/>
<text x="64" y="216.0" font-size="11" fill="#666" text-anchor="end">148ms</text>
<line x1="70" y1="156.0" x2="880" y2="156.0" stroke="#e5e5e5"/>
<text x="64" y="160.0" font-size="11" fill="#666" text-anchor="end">222ms</text>
<line x1="70" y1="100.0" x2="880" y2="100.0" stroke="#e5e5e5"/>
<text x="64" y="104.0" font-size="11" fill="#666" text-anchor="end">296ms</text>
<line x1="70" y1="44.0" x2="880" y2="44.0" stroke="#e5e5e5"/>
<text x="64" y="48.0" font-size="11" fill="#666" text-anchor="end">369ms</text>
<line x1="70" y1="293.7" x2="880" y2="293.7" stroke="#d62728" stroke-width="1.5" stroke-dasharray="6,4"/>
<text x="876" y="288.7" font-size="11" fill="#d62728" text-anchor="end">budget 40ms</text>
<text x="70.0" y="342" font-size="11" fill="#666" text-anchor="start">07-16 16:02</text>
<text x="487.3" y="342" font-size="11" fill="#666" text-anchor="middle">07-17 14:26</text>
<text x="880.0" y="342" font-size="11" fill="#666" text-anchor="end">07-17 19:55</text>
<polyline points="290.9,213.6 389.1,137.4 413.6,205.1 438.2,203.0 462.7,219.1 487.3,92.5 511.8,219.2 536.4,133.4 560.9,222.5 585.5,217.1 610.0,80.9 634.5,207.6 659.1,213.5 683.6,64.7 708.2,193.7 732.7,201.3 757.3,177.8 781.8,221.2 855.5,217.1 880.0,216.1" fill="none" stroke="#8c564b" stroke-width="2"/>
<circle cx="290.9" cy="213.6" r="3" fill="#8c564b"/>
<circle cx="389.1" cy="137.4" r="3" fill="#8c564b"/>
<circle cx="413.6" cy="205.1" r="3" fill="#8c564b"/>
<circle cx="438.2" cy="203.0" r="3" fill="#8c564b"/>
<circle cx="462.7" cy="219.1" r="3" fill="#8c564b"/>
<circle cx="487.3" cy="92.5" r="3" fill="#8c564b"/>
<circle cx="511.8" cy="219.2" r="3" fill="#8c564b"/>
<circle cx="536.4" cy="133.4" r="3" fill="#8c564b"/>
<circle cx="560.9" cy="222.5" r="3" fill="#8c564b"/>
<circle cx="585.5" cy="217.1" r="3" fill="#8c564b"/>
<circle cx="610.0" cy="80.9" r="3" fill="#8c564b"/>
<circle cx="634.5" cy="207.6" r="3" fill="#8c564b"/>
<circle cx="659.1" cy="213.5" r="3" fill="#8c564b"/>
<circle cx="683.6" cy="64.7" r="3" fill="#8c564b"/>
<circle cx="708.2" cy="193.7" r="3" fill="#8c564b"/>
<circle cx="732.7" cy="201.3" r="3" fill="#8c564b"/>
<circle cx="757.3" cy="177.8" r="3" fill="#8c564b"/>
<circle cx="781.8" cy="221.2" r="3" fill="#8c564b"/>
<circle cx="855.5" cy="217.1" r="3" fill="#8c564b"/>
<circle cx="880.0" cy="216.1" r="3" fill="#8c564b"/>
<rect x="70.0" y="358" width="10" height="10" fill="#8c564b"/>
<text x="84.0" y="367" font-size="11" fill="#333">render tick (p95)</text>
<polyline points="413.6,270.7 438.2,273.5 462.7,278.0 487.3,274.7 511.8,274.6 536.4,277.4 560.9,278.8 585.5,272.2 610.0,271.0 634.5,275.1 659.1,272.7 683.6,273.7 708.2,273.8 732.7,274.2 757.3,269.0 781.8,278.3 855.5,273.6 880.0,277.7" fill="none" stroke="#1f77b4" stroke-width="2"/>
<circle cx="413.6" cy="270.7" r="3" fill="#1f77b4"/>
<circle cx="438.2" cy="273.5" r="3" fill="#1f77b4"/>
<circle cx="462.7" cy="278.0" r="3" fill="#1f77b4"/>
<circle cx="487.3" cy="274.7" r="3" fill="#1f77b4"/>
<circle cx="511.8" cy="274.6" r="3" fill="#1f77b4"/>
<circle cx="536.4" cy="277.4" r="3" fill="#1f77b4"/>
<circle cx="560.9" cy="278.8" r="3" fill="#1f77b4"/>
<circle cx="585.5" cy="272.2" r="3" fill="#1f77b4"/>
<circle cx="610.0" cy="271.0" r="3" fill="#1f77b4"/>
<circle cx="634.5" cy="275.1" r="3" fill="#1f77b4"/>
<circle cx="659.1" cy="272.7" r="3" fill="#1f77b4"/>
<circle cx="683.6" cy="273.7" r="3" fill="#1f77b4"/>
<circle cx="708.2" cy="273.8" r="3" fill="#1f77b4"/>
<circle cx="732.7" cy="274.2" r="3" fill="#1f77b4"/>
<circle cx="757.3" cy="269.0" r="3" fill="#1f77b4"/>
<circle cx="781.8" cy="278.3" r="3" fill="#1f77b4"/>
<circle cx="855.5" cy="273.6" r="3" fill="#1f77b4"/>
<circle cx="880.0" cy="277.7" r="3" fill="#1f77b4"/>
<rect x="340.0" y="358" width="10" height="10" fill="#1f77b4"/>
<text x="354.0" y="367" font-size="11" fill="#333">render mouth (wav2lip)</text>
<polyline points="413.6,299.0 438.2,302.7 462.7,304.1 487.3,302.4 511.8,301.0 536.4,304.1 560.9,304.4 585.5,298.5 610.0,303.3 634.5,303.2 659.1,302.4 683.6,301.3 708.2,303.2 732.7,304.0 757.3,301.1 781.8,304.4 855.5,302.9 880.0,303.5" fill="none" stroke="#2ca02c" stroke-width="2"/>
<circle cx="413.6" cy="299.0" r="3" fill="#2ca02c"/>
<circle cx="438.2" cy="302.7" r="3" fill="#2ca02c"/>
<circle cx="462.7" cy="304.1" r="3" fill="#2ca02c"/>
<circle cx="487.3" cy="302.4" r="3" fill="#2ca02c"/>
<circle cx="511.8" cy="301.0" r="3" fill="#2ca02c"/>
<circle cx="536.4" cy="304.1" r="3" fill="#2ca02c"/>
<circle cx="560.9" cy="304.4" r="3" fill="#2ca02c"/>
<circle cx="585.5" cy="298.5" r="3" fill="#2ca02c"/>
<circle cx="610.0" cy="303.3" r="3" fill="#2ca02c"/>
<circle cx="634.5" cy="303.2" r="3" fill="#2ca02c"/>
<circle cx="659.1" cy="302.4" r="3" fill="#2ca02c"/>
<circle cx="683.6" cy="301.3" r="3" fill="#2ca02c"/>
<circle cx="708.2" cy="303.2" r="3" fill="#2ca02c"/>
<circle cx="732.7" cy="304.0" r="3" fill="#2ca02c"/>
<circle cx="757.3" cy="301.1" r="3" fill="#2ca02c"/>
<circle cx="781.8" cy="304.4" r="3" fill="#2ca02c"/>
<circle cx="855.5" cy="302.9" r="3" fill="#2ca02c"/>
<circle cx="880.0" cy="303.5" r="3" fill="#2ca02c"/>
<rect x="610.0" y="358" width="10" height="10" fill="#2ca02c"/>
<text x="624.0" y="367" font-size="11" fill="#333">render compose (SkiaSharp)</text>
</svg>
