<svg xmlns="http://www.w3.org/2000/svg" width="900" height="380" viewBox="0 0 900 380" font-family="sans-serif">
<rect width="900" height="380" fill="white"/>
<text x="70" y="24" font-size="16" fill="#333">Render loop per-frame cost (ms, p50 unless noted) — 25fps budget is 40ms</text>
<line x1="70" y1="324.0" x2="880" y2="324.0" stroke="#e5e5e5"/>
<text x="64" y="328.0" font-size="11" fill="#666" text-anchor="end">0ms</text>
<line x1="70" y1="268.0" x2="880" y2="268.0" stroke="#e5e5e5"/>
<text x="64" y="272.0" font-size="11" fill="#666" text-anchor="end">74ms</text>
<line x1="70" y1="212.0" x2="880" y2="212.0" stroke="#e5e5e5"/>
<text x="64" y="216.0" font-size="11" fill="#666" text-anchor="end">148ms</text>
<line x1="70" y1="156.0" x2="880" y2="156.0" stroke="#e5e5e5"/>
<text x="64" y="160.0" font-size="11" fill="#666" text-anchor="end">222ms</text>
<line x1="70" y1="100.0" x2="880" y2="100.0" stroke="#e5e5e5"/>
<text x="64" y="104.0" font-size="11" fill="#666" text-anchor="end">296ms</text>
<line x1="70" y1="44.0" x2="880" y2="44.0" stroke="#e5e5e5"/>
<text x="64" y="48.0" font-size="11" fill="#666" text-anchor="end">369ms</text>
<line x1="70" y1="293.7" x2="880" y2="293.7" stroke="#d62728" stroke-width="1.5" stroke-dasharray="6,4"/>
<text x="876" y="288.7" font-size="11" fill="#d62728" text-anchor="end">budget 40ms</text>
<text x="70.0" y="342" font-size="11" fill="#666" text-anchor="start">07-16 16:02</text>
<text x="475.0" y="342" font-size="11" fill="#666" text-anchor="middle">07-17 18:46</text>
<text x="880.0" y="342" font-size="11" fill="#666" text-anchor="end">07-18 08:37</text>
<polyline points="210.2,213.6 272.5,137.4 288.1,205.1 303.7,203.0 319.2,219.1 334.8,92.5 350.4,219.2 366.0,133.4 381.5,222.5 397.1,217.1 412.7,80.9 428.3,207.6 443.8,213.5 459.4,64.7 475.0,193.7 490.6,201.3 506.2,177.8 521.7,221.2 568.5,217.1 584.0,216.1 599.6,207.0 615.2,207.7 630.8,214.9 646.3,199.8 661.9,219.9 677.5,209.6 693.1,210.6 708.7,229.5 724.2,162.0 739.8,215.8 755.4,236.9 771.0,198.5 786.5,230.6 802.1,225.5 817.7,251.0 833.3,250.8 848.8,208.3 864.4,225.5 880.0,220.7" fill="none" stroke="#8c564b" stroke-width="2"/>
<circle cx="210.2" cy="213.6" r="3" fill="#8c564b"/>
<circle cx="272.5" cy="137.4" r="3" fill="#8c564b"/>
<circle cx="288.1" cy="205.1" r="3" fill="#8c564b"/>
<circle cx="303.7" cy="203.0" r="3" fill="#8c564b"/>
<circle cx="319.2" cy="219.1" r="3" fill="#8c564b"/>
<circle cx="334.8" cy="92.5" r="3" fill="#8c564b"/>
<circle cx="350.4" cy="219.2" r="3" fill="#8c564b"/>
<circle cx="366.0" cy="133.4" r="3" fill="#8c564b"/>
<circle cx="381.5" cy="222.5" r="3" fill="#8c564b"/>
<circle cx="397.1" cy="217.1" r="3" fill="#8c564b"/>
<circle cx="412.7" cy="80.9" r="3" fill="#8c564b"/>
<circle cx="428.3" cy="207.6" r="3" fill="#8c564b"/>
<circle cx="443.8" cy="213.5" r="3" fill="#8c564b"/>
<circle cx="459.4" cy="64.7" r="3" fill="#8c564b"/>
<circle cx="475.0" cy="193.7" r="3" fill="#8c564b"/>
<circle cx="490.6" cy="201.3" r="3" fill="#8c564b"/>
<circle cx="506.2" cy="177.8" r="3" fill="#8c564b"/>
<circle cx="521.7" cy="221.2" r="3" fill="#8c564b"/>
<circle cx="568.5" cy="217.1" r="3" fill="#8c564b"/>
<circle cx="584.0" cy="216.1" r="3" fill="#8c564b"/>
<circle cx="599.6" cy="207.0" r="3" fill="#8c564b"/>
<circle cx="615.2" cy="207.7" r="3" fill="#8c564b"/>
<circle cx="630.8" cy="214.9" r="3" fill="#8c564b"/>
<circle cx="646.3" cy="199.8" r="3" fill="#8c564b"/>
<circle cx="661.9" cy="219.9" r="3" fill="#8c564b"/>
<circle cx="677.5" cy="209.6" r="3" fill="#8c564b"/>
<circle cx="693.1" cy="210.6" r="3" fill="#8c564b"/>
<circle cx="708.7" cy="229.5" r="3" fill="#8c564b"/>
<circle cx="724.2" cy="162.0" r="3" fill="#8c564b"/>
<circle cx="739.8" cy="215.8" r="3" fill="#8c564b"/>
<circle cx="755.4" cy="236.9" r="3" fill="#8c564b"/>
<circle cx="771.0" cy="198.5" r="3" fill="#8c564b"/>
<circle cx="786.5" cy="230.6" r="3" fill="#8c564b"/>
<circle cx="802.1" cy="225.5" r="3" fill="#8c564b"/>
<circle cx="817.7" cy="251.0" r="3" fill="#8c564b"/>
<circle cx="833.3" cy="250.8" r="3" fill="#8c564b"/>
<circle cx="848.8" cy="208.3" r="3" fill="#8c564b"/>
<circle cx="864.4" cy="225.5" r="3" fill="#8c564b"/>
<circle cx="880.0" cy="220.7" r="3" fill="#8c564b"/>
<rect x="70.0" y="358" width="10" height="10" fill="#8c564b"/>
<text x="84.0" y="367" font-size="11" fill="#333">render tick (p95)</text>
<polyline points="288.1,270.7 303.7,273.5 319.2,278.0 334.8,274.7 350.4,274.6 366.0,277.4 381.5,278.8 397.1,272.2 412.7,271.0 428.3,275.1 443.8,272.7 459.4,273.7 475.0,273.8 490.6,274.2 506.2,269.0 521.7,278.3 568.5,273.6 584.0,277.7 599.6,274.1 615.2,274.4 630.8,273.8 646.3,272.2 661.9,276.3 677.5,271.4 693.1,272.5 708.7,272.8 724.2,204.3 739.8,259.7 755.4,276.6 771.0,276.3 786.5,280.0 802.1,280.2 817.7,324.0 833.3,324.0 848.8,254.4 864.4,273.6 880.0,324.0" fill="none" stroke="#1f77b4" stroke-width="2"/>
<circle cx="288.1" cy="270.7" r="3" fill="#1f77b4"/>
<circle cx="303.7" cy="273.5" r="3" fill="#1f77b4"/>
<circle cx="319.2" cy="278.0" r="3" fill="#1f77b4"/>
<circle cx="334.8" cy="274.7" r="3" fill="#1f77b4"/>
<circle cx="350.4" cy="274.6" r="3" fill="#1f77b4"/>
<circle cx="366.0" cy="277.4" r="3" fill="#1f77b4"/>
<circle cx="381.5" cy="278.8" r="3" fill="#1f77b4"/>
<circle cx="397.1" cy="272.2" r="3" fill="#1f77b4"/>
<circle cx="412.7" cy="271.0" r="3" fill="#1f77b4"/>
<circle cx="428.3" cy="275.1" r="3" fill="#1f77b4"/>
<circle cx="443.8" cy="272.7" r="3" fill="#1f77b4"/>
<circle cx="459.4" cy="273.7" r="3" fill="#1f77b4"/>
<circle cx="475.0" cy="273.8" r="3" fill="#1f77b4"/>
<circle cx="490.6" cy="274.2" r="3" fill="#1f77b4"/>
<circle cx="506.2" cy="269.0" r="3" fill="#1f77b4"/>
<circle cx="521.7" cy="278.3" r="3" fill="#1f77b4"/>
<circle cx="568.5" cy="273.6" r="3" fill="#1f77b4"/>
<circle cx="584.0" cy="277.7" r="3" fill="#1f77b4"/>
<circle cx="599.6" cy="274.1" r="3" fill="#1f77b4"/>
<circle cx="615.2" cy="274.4" r="3" fill="#1f77b4"/>
<circle cx="630.8" cy="273.8" r="3" fill="#1f77b4"/>
<circle cx="646.3" cy="272.2" r="3" fill="#1f77b4"/>
<circle cx="661.9" cy="276.3" r="3" fill="#1f77b4"/>
<circle cx="677.5" cy="271.4" r="3" fill="#1f77b4"/>
<circle cx="693.1" cy="272.5" r="3" fill="#1f77b4"/>
<circle cx="708.7" cy="272.8" r="3" fill="#1f77b4"/>
<circle cx="724.2" cy="204.3" r="3" fill="#1f77b4"/>
<circle cx="739.8" cy="259.7" r="3" fill="#1f77b4"/>
<circle cx="755.4" cy="276.6" r="3" fill="#1f77b4"/>
<circle cx="771.0" cy="276.3" r="3" fill="#1f77b4"/>
<circle cx="786.5" cy="280.0" r="3" fill="#1f77b4"/>
<circle cx="802.1" cy="280.2" r="3" fill="#1f77b4"/>
<circle cx="817.7" cy="324.0" r="3" fill="#1f77b4"/>
<circle cx="833.3" cy="324.0" r="3" fill="#1f77b4"/>
<circle cx="848.8" cy="254.4" r="3" fill="#1f77b4"/>
<circle cx="864.4" cy="273.6" r="3" fill="#1f77b4"/>
<circle cx="880.0" cy="324.0" r="3" fill="#1f77b4"/>
<rect x="340.0" y="358" width="10" height="10" fill="#1f77b4"/>
<text x="354.0" y="367" font-size="11" fill="#333">render mouth (wav2lip)</text>
<polyline points="288.1,299.0 303.7,302.7 319.2,304.1 334.8,302.4 350.4,301.0 366.0,304.1 381.5,304.4 397.1,298.5 412.7,303.3 428.3,303.2 443.8,302.4 459.4,301.3 475.0,303.2 490.6,304.0 506.2,301.1 521.7,304.4 568.5,302.9 584.0,303.5 599.6,301.9 615.2,301.6 630.8,302.2 646.3,301.3 661.9,303.1 677.5,299.4 693.1,302.2 708.7,303.5 724.2,304.8 739.8,305.8 755.4,304.8 771.0,302.4 786.5,304.8 802.1,304.6 817.7,305.6 833.3,305.9 848.8,306.5 864.4,303.6 880.0,303.1" fill="none" stroke="#2ca02c" stroke-width="2"/>
<circle cx="288.1" cy="299.0" r="3" fill="#2ca02c"/>
<circle cx="303.7" cy="302.7" r="3" fill="#2ca02c"/>
<circle cx="319.2" cy="304.1" r="3" fill="#2ca02c"/>
<circle cx="334.8" cy="302.4" r="3" fill="#2ca02c"/>
<circle cx="350.4" cy="301.0" r="3" fill="#2ca02c"/>
<circle cx="366.0" cy="304.1" r="3" fill="#2ca02c"/>
<circle cx="381.5" cy="304.4" r="3" fill="#2ca02c"/>
<circle cx="397.1" cy="298.5" r="3" fill="#2ca02c"/>
<circle cx="412.7" cy="303.3" r="3" fill="#2ca02c"/>
<circle cx="428.3" cy="303.2" r="3" fill="#2ca02c"/>
<circle cx="443.8" cy="302.4" r="3" fill="#2ca02c"/>
<circle cx="459.4" cy="301.3" r="3" fill="#2ca02c"/>
<circle cx="475.0" cy="303.2" r="3" fill="#2ca02c"/>
<circle cx="490.6" cy="304.0" r="3" fill="#2ca02c"/>
<circle cx="506.2" cy="301.1" r="3" fill="#2ca02c"/>
<circle cx="521.7" cy="304.4" r="3" fill="#2ca02c"/>
<circle cx="568.5" cy="302.9" r="3" fill="#2ca02c"/>
<circle cx="584.0" cy="303.5" r="3" fill="#2ca02c"/>
<circle cx="599.6" cy="301.9" r="3" fill="#2ca02c"/>
<circle cx="615.2" cy="301.6" r="3" fill="#2ca02c"/>
<circle cx="630.8" cy="302.2" r="3" fill="#2ca02c"/>
<circle cx="646.3" cy="301.3" r="3" fill="#2ca02c"/>
<circle cx="661.9" cy="303.1" r="3" fill="#2ca02c"/>
<circle cx="677.5" cy="299.4" r="3" fill="#2ca02c"/>
<circle cx="693.1" cy="302.2" r="3" fill="#2ca02c"/>
<circle cx="708.7" cy="303.5" r="3" fill="#2ca02c"/>
<circle cx="724.2" cy="304.8" r="3" fill="#2ca02c"/>
<circle cx="739.8" cy="305.8" r="3" fill="#2ca02c"/>
<circle cx="755.4" cy="304.8" r="3" fill="#2ca02c"/>
<circle cx="771.0" cy="302.4" r="3" fill="#2ca02c"/>
<circle cx="786.5" cy="304.8" r="3" fill="#2ca02c"/>
<circle cx="802.1" cy="304.6" r="3" fill="#2ca02c"/>
<circle cx="817.7" cy="305.6" r="3" fill="#2ca02c"/>
<circle cx="833.3" cy="305.9" r="3" fill="#2ca02c"/>
<circle cx="848.8" cy="306.5" r="3" fill="#2ca02c"/>
<circle cx="864.4" cy="303.6" r="3" fill="#2ca02c"/>
<circle cx="880.0" cy="303.1" r="3" fill="#2ca02c"/>
<rect x="610.0" y="358" width="10" height="10" fill="#2ca02c"/>
<text x="624.0" y="367" font-size="11" fill="#333">render compose (SkiaSharp)</text>
</svg>
