<svg xmlns="http://www.w3.org/2000/svg" width="900" height="380" viewBox="0 0 900 380" font-family="sans-serif">
<rect width="900" height="380" fill="white"/>
<text x="70" y="24" font-size="16" fill="#333">Render loop per-frame cost (ms, p50 unless noted) — 25fps budget is 40ms</text>
<line x1="70" y1="324.0" x2="880" y2="324.0" stroke="#e5e5e5"/>
<text x="64" y="328.0" font-size="11" fill="#666" text-anchor="end">0ms</text>
<line x1="70" y1="268.0" x2="880" y2="268.0" stroke="#e5e5e5"/>
<text x="64" y="272.0" font-size="11" fill="#666" text-anchor="end">74ms</text>
<line x1="70" y1="212.0" x2="880" y2="212.0" stroke="#e5e5e5"/>
<text x="64" y="216.0" font-size="11" fill="#666" text-anchor="end">148ms</text>
<line x1="70" y1="156.0" x2="880" y2="156.0" stroke="#e5e5e5"/>
<text x="64" y="160.0" font-size="11" fill="#666" text-anchor="end">222ms</text>
<line x1="70" y1="100.0" x2="880" y2="100.0" stroke="#e5e5e5"/>
<text x="64" y="104.0" font-size="11" fill="#666" text-anchor="end">296ms</text>
<line x1="70" y1="44.0" x2="880" y2="44.0" stroke="#e5e5e5"/>
<text x="64" y="48.0" font-size="11" fill="#666" text-anchor="end">369ms</text>
<line x1="70" y1="293.7" x2="880" y2="293.7" stroke="#d62728" stroke-width="1.5" stroke-dasharray="6,4"/>
<text x="876" y="288.7" font-size="11" fill="#d62728" text-anchor="end">budget 40ms</text>
<text x="70.0" y="342" font-size="11" fill="#666" text-anchor="start">07-16 16:02</text>
<text x="482.4" y="342" font-size="11" fill="#666" text-anchor="middle">07-17 19:15</text>
<text x="880.0" y="342" font-size="11" fill="#666" text-anchor="end">07-18 10:28</text>
<polyline points="202.5,213.6 261.5,137.4 276.2,205.1 290.9,203.0 305.6,219.1 320.4,92.5 335.1,219.2 349.8,133.4 364.5,222.5 379.3,217.1 394.0,80.9 408.7,207.6 423.5,213.5 438.2,64.7 452.9,193.7 467.6,201.3 482.4,177.8 497.1,221.2 541.3,217.1 556.0,216.1 570.7,207.0 585.5,207.7 600.2,214.9 614.9,199.8 629.6,219.9 644.4,209.6 659.1,210.6 673.8,229.5 688.5,162.0 703.3,215.8 718.0,236.9 732.7,198.5 747.5,230.6 762.2,225.5 776.9,251.0 791.6,250.8 806.4,208.3 821.1,225.5 835.8,220.7 850.5,238.3 865.3,178.7 880.0,234.2" fill="none" stroke="#8c564b" stroke-width="2"/>
<circle cx="202.5" cy="213.6" r="3" fill="#8c564b"/>
<circle cx="261.5" cy="137.4" r="3" fill="#8c564b"/>
<circle cx="276.2" cy="205.1" r="3" fill="#8c564b"/>
<circle cx="290.9" cy="203.0" r="3" fill="#8c564b"/>
<circle cx="305.6" cy="219.1" r="3" fill="#8c564b"/>
<circle cx="320.4" cy="92.5" r="3" fill="#8c564b"/>
<circle cx="335.1" cy="219.2" r="3" fill="#8c564b"/>
<circle cx="349.8" cy="133.4" r="3" fill="#8c564b"/>
<circle cx="364.5" cy="222.5" r="3" fill="#8c564b"/>
<circle cx="379.3" cy="217.1" r="3" fill="#8c564b"/>
<circle cx="394.0" cy="80.9" r="3" fill="#8c564b"/>
<circle cx="408.7" cy="207.6" r="3" fill="#8c564b"/>
<circle cx="423.5" cy="213.5" r="3" fill="#8c564b"/>
<circle cx="438.2" cy="64.7" r="3" fill="#8c564b"/>
<circle cx="452.9" cy="193.7" r="3" fill="#8c564b"/>
<circle cx="467.6" cy="201.3" r="3" fill="#8c564b"/>
<circle cx="482.4" cy="177.8" r="3" fill="#8c564b"/>
<circle cx="497.1" cy="221.2" r="3" fill="#8c564b"/>
<circle cx="541.3" cy="217.1" r="3" fill="#8c564b"/>
<circle cx="556.0" cy="216.1" r="3" fill="#8c564b"/>
<circle cx="570.7" cy="207.0" r="3" fill="#8c564b"/>
<circle cx="585.5" cy="207.7" r="3" fill="#8c564b"/>
<circle cx="600.2" cy="214.9" r="3" fill="#8c564b"/>
<circle cx="614.9" cy="199.8" r="3" fill="#8c564b"/>
<circle cx="629.6" cy="219.9" r="3" fill="#8c564b"/>
<circle cx="644.4" cy="209.6" r="3" fill="#8c564b"/>
<circle cx="659.1" cy="210.6" r="3" fill="#8c564b"/>
<circle cx="673.8" cy="229.5" r="3" fill="#8c564b"/>
<circle cx="688.5" cy="162.0" r="3" fill="#8c564b"/>
<circle cx="703.3" cy="215.8" r="3" fill="#8c564b"/>
<circle cx="718.0" cy="236.9" r="3" fill="#8c564b"/>
<circle cx="732.7" cy="198.5" r="3" fill="#8c564b"/>
<circle cx="747.5" cy="230.6" r="3" fill="#8c564b"/>
<circle cx="762.2" cy="225.5" r="3" fill="#8c564b"/>
<circle cx="776.9" cy="251.0" r="3" fill="#8c564b"/>
<circle cx="791.6" cy="250.8" r="3" fill="#8c564b"/>
<circle cx="806.4" cy="208.3" r="3" fill="#8c564b"/>
<circle cx="821.1" cy="225.5" r="3" fill="#8c564b"/>
<circle cx="835.8" cy="220.7" r="3" fill="#8c564b"/>
<circle cx="850.5" cy="238.3" r="3" fill="#8c564b"/>
<circle cx="865.3" cy="178.7" r="3" fill="#8c564b"/>
<circle cx="880.0" cy="234.2" r="3" fill="#8c564b"/>
<rect x="70.0" y="358" width="10" height="10" fill="#8c564b"/>
<text x="84.0" y="367" font-size="11" fill="#333">render tick (p95)</text>
<polyline points="276.2,270.7 290.9,273.5 305.6,278.0 320.4,274.7 335.1,274.6 349.8,277.4 364.5,278.8 379.3,272.2 394.0,271.0 408.7,275.1 423.5,272.7 438.2,273.7 452.9,273.8 467.6,274.2 482.4,269.0 497.1,278.3 541.3,273.6 556.0,277.7 570.7,274.1 585.5,274.4 600.2,273.8 614.9,272.2 629.6,276.3 644.4,271.4 659.1,272.5 673.8,272.8 688.5,204.3 703.3,259.7 718.0,276.6 732.7,276.3 747.5,280.0 762.2,280.2 776.9,324.0 791.6,324.0 806.4,254.4 821.1,273.6 835.8,324.0 850.5,324.0 865.3,268.1 880.0,272.8" fill="none" stroke="#1f77b4" stroke-width="2"/>
<circle cx="276.2" cy="270.7" r="3" fill="#1f77b4"/>
<circle cx="290.9" cy="273.5" r="3" fill="#1f77b4"/>
<circle cx="305.6" cy="278.0" r="3" fill="#1f77b4"/>
<circle cx="320.4" cy="274.7" r="3" fill="#1f77b4"/>
<circle cx="335.1" cy="274.6" r="3" fill="#1f77b4"/>
<circle cx="349.8" cy="277.4" r="3" fill="#1f77b4"/>
<circle cx="364.5" cy="278.8" r="3" fill="#1f77b4"/>
<circle cx="379.3" cy="272.2" r="3" fill="#1f77b4"/>
<circle cx="394.0" cy="271.0" r="3" fill="#1f77b4"/>
<circle cx="408.7" cy="275.1" r="3" fill="#1f77b4"/>
<circle cx="423.5" cy="272.7" r="3" fill="#1f77b4"/>
<circle cx="438.2" cy="273.7" r="3" fill="#1f77b4"/>
<circle cx="452.9" cy="273.8" r="3" fill="#1f77b4"/>
<circle cx="467.6" cy="274.2" r="3" fill="#1f77b4"/>
<circle cx="482.4" cy="269.0" r="3" fill="#1f77b4"/>
<circle cx="497.1" cy="278.3" r="3" fill="#1f77b4"/>
<circle cx="541.3" cy="273.6" r="3" fill="#1f77b4"/>
<circle cx="556.0" cy="277.7" r="3" fill="#1f77b4"/>
<circle cx="570.7" cy="274.1" r="3" fill="#1f77b4"/>
<circle cx="585.5" cy="274.4" r="3" fill="#1f77b4"/>
<circle cx="600.2" cy="273.8" r="3" fill="#1f77b4"/>
<circle cx="614.9" cy="272.2" r="3" fill="#1f77b4"/>
<circle cx="629.6" cy="276.3" r="3" fill="#1f77b4"/>
<circle cx="644.4" cy="271.4" r="3" fill="#1f77b4"/>
<circle cx="659.1" cy="272.5" r="3" fill="#1f77b4"/>
<circle cx="673.8" cy="272.8" r="3" fill="#1f77b4"/>
<circle cx="688.5" cy="204.3" r="3" fill="#1f77b4"/>
<circle cx="703.3" cy="259.7" r="3" fill="#1f77b4"/>
<circle cx="718.0" cy="276.6" r="3" fill="#1f77b4"/>
<circle cx="732.7" cy="276.3" r="3" fill="#1f77b4"/>
<circle cx="747.5" cy="280.0" r="3" fill="#1f77b4"/>
<circle cx="762.2" cy="280.2" r="3" fill="#1f77b4"/>
<circle cx="776.9" cy="324.0" r="3" fill="#1f77b4"/>
<circle cx="791.6" cy="324.0" r="3" fill="#1f77b4"/>
<circle cx="806.4" cy="254.4" r="3" fill="#1f77b4"/>
<circle cx="821.1" cy="273.6" r="3" fill="#1f77b4"/>
<circle cx="835.8" cy="324.0" r="3" fill="#1f77b4"/>
<circle cx="850.5" cy="324.0" r="3" fill="#1f77b4"/>
<circle cx="865.3" cy="268.1" r="3" fill="#1f77b4"/>
<circle cx="880.0" cy="272.8" r="3" fill="#1f77b4"/>
<rect x="340.0" y="358" width="10" height="10" fill="#1f77b4"/>
<text x="354.0" y="367" font-size="11" fill="#333">render mouth (wav2lip)</text>
<polyline points="276.2,299.0 290.9,302.7 305.6,304.1 320.4,302.4 335.1,301.0 349.8,304.1 364.5,304.4 379.3,298.5 394.0,303.3 408.7,303.2 423.5,302.4 438.2,301.3 452.9,303.2 467.6,304.0 482.4,301.1 497.1,304.4 541.3,302.9 556.0,303.5 570.7,301.9 585.5,301.6 600.2,302.2 614.9,301.3 629.6,303.1 644.4,299.4 659.1,302.2 673.8,303.5 688.5,304.8 703.3,305.8 718.0,304.8 732.7,302.4 747.5,304.8 762.2,304.6 776.9,305.6 791.6,305.9 806.4,306.5 821.1,303.6 835.8,303.1 850.5,304.0 865.3,302.2 880.0,304.0" fill="none" stroke="#2ca02c" stroke-width="2"/>
<circle cx="276.2" cy="299.0" r="3" fill="#2ca02c"/>
<circle cx="290.9" cy="302.7" r="3" fill="#2ca02c"/>
<circle cx="305.6" cy="304.1" r="3" fill="#2ca02c"/>
<circle cx="320.4" cy="302.4" r="3" fill="#2ca02c"/>
<circle cx="335.1" cy="301.0" r="3" fill="#2ca02c"/>
<circle cx="349.8" cy="304.1" r="3" fill="#2ca02c"/>
<circle cx="364.5" cy="304.4" r="3" fill="#2ca02c"/>
<circle cx="379.3" cy="298.5" r="3" fill="#2ca02c"/>
<circle cx="394.0" cy="303.3" r="3" fill="#2ca02c"/>
<circle cx="408.7" cy="303.2" r="3" fill="#2ca02c"/>
<circle cx="423.5" cy="302.4" r="3" fill="#2ca02c"/>
<circle cx="438.2" cy="301.3" r="3" fill="#2ca02c"/>
<circle cx="452.9" cy="303.2" r="3" fill="#2ca02c"/>
<circle cx="467.6" cy="304.0" r="3" fill="#2ca02c"/>
<circle cx="482.4" cy="301.1" r="3" fill="#2ca02c"/>
<circle cx="497.1" cy="304.4" r="3" fill="#2ca02c"/>
<circle cx="541.3" cy="302.9" r="3" fill="#2ca02c"/>
<circle cx="556.0" cy="303.5" r="3" fill="#2ca02c"/>
<circle cx="570.7" cy="301.9" r="3" fill="#2ca02c"/>
<circle cx="585.5" cy="301.6" r="3" fill="#2ca02c"/>
<circle cx="600.2" cy="302.2" r="3" fill="#2ca02c"/>
<circle cx="614.9" cy="301.3" r="3" fill="#2ca02c"/>
<circle cx="629.6" cy="303.1" r="3" fill="#2ca02c"/>
<circle cx="644.4" cy="299.4" r="3" fill="#2ca02c"/>
<circle cx="659.1" cy="302.2" r="3" fill="#2ca02c"/>
<circle cx="673.8" cy="303.5" r="3" fill="#2ca02c"/>
<circle cx="688.5" cy="304.8" r="3" fill="#2ca02c"/>
<circle cx="703.3" cy="305.8" r="3" fill="#2ca02c"/>
<circle cx="718.0" cy="304.8" r="3" fill="#2ca02c"/>
<circle cx="732.7" cy="302.4" r="3" fill="#2ca02c"/>
<circle cx="747.5" cy="304.8" r="3" fill="#2ca02c"/>
<circle cx="762.2" cy="304.6" r="3" fill="#2ca02c"/>
<circle cx="776.9" cy="305.6" r="3" fill="#2ca02c"/>
<circle cx="791.6" cy="305.9" r="3" fill="#2ca02c"/>
<circle cx="806.4" cy="306.5" r="3" fill="#2ca02c"/>
<circle cx="821.1" cy="303.6" r="3" fill="#2ca02c"/>
<circle cx="835.8" cy="303.1" r="3" fill="#2ca02c"/>
<circle cx="850.5" cy="304.0" r="3" fill="#2ca02c"/>
<circle cx="865.3" cy="302.2" r="3" fill="#2ca02c"/>
<circle cx="880.0" cy="304.0" r="3" fill="#2ca02c"/>
<rect x="610.0" y="358" width="10" height="10" fill="#2ca02c"/>
<text x="624.0" y="367" font-size="11" fill="#333">render compose (SkiaSharp)</text>
</svg>
