<svg xmlns="http://www.w3.org/2000/svg" width="900" height="380" viewBox="0 0 900 380" font-family="sans-serif">
<rect width="900" height="380" fill="white"/>
<text x="70" y="24" font-size="16" fill="#333">Render loop per-frame cost (ms, p50 unless noted) — 25fps budget is 40ms</text>
<line x1="70" y1="324.0" x2="880" y2="324.0" stroke="#e5e5e5"/>
<text x="64" y="328.0" font-size="11" fill="#666" text-anchor="end">0ms</text>
<line x1="70" y1="268.0" x2="880" y2="268.0" stroke="#e5e5e5"/>
<text x="64" y="272.0" font-size="11" fill="#666" text-anchor="end">74ms</text>
<line x1="70" y1="212.0" x2="880" y2="212.0" stroke="#e5e5e5"/>
<text x="64" y="216.0" font-size="11" fill="#666" text-anchor="end">148ms</text>
<line x1="70" y1="156.0" x2="880" y2="156.0" stroke="#e5e5e5"/>
<text x="64" y="160.0" font-size="11" fill="#666" text-anchor="end">222ms</text>
<line x1="70" y1="100.0" x2="880" y2="100.0" stroke="#e5e5e5"/>
<text x="64" y="104.0" font-size="11" fill="#666" text-anchor="end">296ms</text>
<line x1="70" y1="44.0" x2="880" y2="44.0" stroke="#e5e5e5"/>
<text x="64" y="48.0" font-size="11" fill="#666" text-anchor="end">369ms</text>
<line x1="70" y1="293.7" x2="880" y2="293.7" stroke="#d62728" stroke-width="1.5" stroke-dasharray="6,4"/>
<text x="876" y="288.7" font-size="11" fill="#d62728" text-anchor="end">budget 40ms</text>
<text x="70.0" y="342" font-size="11" fill="#666" text-anchor="start">07-16 16:02</text>
<text x="485.4" y="342" font-size="11" fill="#666" text-anchor="middle">07-17 15:13</text>
<text x="880.0" y="342" font-size="11" fill="#666" text-anchor="end">07-17 20:27</text>
<polyline points="256.9,213.6 340.0,137.4 360.8,205.1 381.5,203.0 402.3,219.1 423.1,92.5 443.8,219.2 464.6,133.4 485.4,222.5 506.2,217.1 526.9,80.9 547.7,207.6 568.5,213.5 589.2,64.7 610.0,193.7 630.8,201.3 651.5,177.8 672.3,221.2 734.6,217.1 755.4,216.1 776.2,207.0 796.9,207.7 817.7,214.9 838.5,199.8 859.2,219.9 880.0,209.6" fill="none" stroke="#8c564b" stroke-width="2"/>
<circle cx="256.9" cy="213.6" r="3" fill="#8c564b"/>
<circle cx="340.0" cy="137.4" r="3" fill="#8c564b"/>
<circle cx="360.8" cy="205.1" r="3" fill="#8c564b"/>
<circle cx="381.5" cy="203.0" r="3" fill="#8c564b"/>
<circle cx="402.3" cy="219.1" r="3" fill="#8c564b"/>
<circle cx="423.1" cy="92.5" r="3" fill="#8c564b"/>
<circle cx="443.8" cy="219.2" r="3" fill="#8c564b"/>
<circle cx="464.6" cy="133.4" r="3" fill="#8c564b"/>
<circle cx="485.4" cy="222.5" r="3" fill="#8c564b"/>
<circle cx="506.2" cy="217.1" r="3" fill="#8c564b"/>
<circle cx="526.9" cy="80.9" r="3" fill="#8c564b"/>
<circle cx="547.7" cy="207.6" r="3" fill="#8c564b"/>
<circle cx="568.5" cy="213.5" r="3" fill="#8c564b"/>
<circle cx="589.2" cy="64.7" r="3" fill="#8c564b"/>
<circle cx="610.0" cy="193.7" r="3" fill="#8c564b"/>
<circle cx="630.8" cy="201.3" r="3" fill="#8c564b"/>
<circle cx="651.5" cy="177.8" r="3" fill="#8c564b"/>
<circle cx="672.3" cy="221.2" r="3" fill="#8c564b"/>
<circle cx="734.6" cy="217.1" r="3" fill="#8c564b"/>
<circle cx="755.4" cy="216.1" r="3" fill="#8c564b"/>
<circle cx="776.2" cy="207.0" r="3" fill="#8c564b"/>
<circle cx="796.9" cy="207.7" r="3" fill="#8c564b"/>
<circle cx="817.7" cy="214.9" r="3" fill="#8c564b"/>
<circle cx="838.5" cy="199.8" r="3" fill="#8c564b"/>
<circle cx="859.2" cy="219.9" r="3" fill="#8c564b"/>
<circle cx="880.0" cy="209.6" r="3" fill="#8c564b"/>
<rect x="70.0" y="358" width="10" height="10" fill="#8c564b"/>
<text x="84.0" y="367" font-size="11" fill="#333">render tick (p95)</text>
<polyline points="360.8,270.7 381.5,273.5 402.3,278.0 423.1,274.7 443.8,274.6 464.6,277.4 485.4,278.8 506.2,272.2 526.9,271.0 547.7,275.1 568.5,272.7 589.2,273.7 610.0,273.8 630.8,274.2 651.5,269.0 672.3,278.3 734.6,273.6 755.4,277.7 776.2,274.1 796.9,274.4 817.7,273.8 838.5,272.2 859.2,276.3 880.0,271.4" fill="none" stroke="#1f77b4" stroke-width="2"/>
<circle cx="360.8" cy="270.7" r="3" fill="#1f77b4"/>
<circle cx="381.5" cy="273.5" r="3" fill="#1f77b4"/>
<circle cx="402.3" cy="278.0" r="3" fill="#1f77b4"/>
<circle cx="423.1" cy="274.7" r="3" fill="#1f77b4"/>
<circle cx="443.8" cy="274.6" r="3" fill="#1f77b4"/>
<circle cx="464.6" cy="277.4" r="3" fill="#1f77b4"/>
<circle cx="485.4" cy="278.8" r="3" fill="#1f77b4"/>
<circle cx="506.2" cy="272.2" r="3" fill="#1f77b4"/>
<circle cx="526.9" cy="271.0" r="3" fill="#1f77b4"/>
<circle cx="547.7" cy="275.1" r="3" fill="#1f77b4"/>
<circle cx="568.5" cy="272.7" r="3" fill="#1f77b4"/>
<circle cx="589.2" cy="273.7" r="3" fill="#1f77b4"/>
<circle cx="610.0" cy="273.8" r="3" fill="#1f77b4"/>
<circle cx="630.8" cy="274.2" r="3" fill="#1f77b4"/>
<circle cx="651.5" cy="269.0" r="3" fill="#1f77b4"/>
<circle cx="672.3" cy="278.3" r="3" fill="#1f77b4"/>
<circle cx="734.6" cy="273.6" r="3" fill="#1f77b4"/>
<circle cx="755.4" cy="277.7" r="3" fill="#1f77b4"/>
<circle cx="776.2" cy="274.1" r="3" fill="#1f77b4"/>
<circle cx="796.9" cy="274.4" r="3" fill="#1f77b4"/>
<circle cx="817.7" cy="273.8" r="3" fill="#1f77b4"/>
<circle cx="838.5" cy="272.2" r="3" fill="#1f77b4"/>
<circle cx="859.2" cy="276.3" r="3" fill="#1f77b4"/>
<circle cx="880.0" cy="271.4" r="3" fill="#1f77b4"/>
<rect x="340.0" y="358" width="10" height="10" fill="#1f77b4"/>
<text x="354.0" y="367" font-size="11" fill="#333">render mouth (wav2lip)</text>
<polyline points="360.8,299.0 381.5,302.7 402.3,304.1 423.1,302.4 443.8,301.0 464.6,304.1 485.4,304.4 506.2,298.5 526.9,303.3 547.7,303.2 568.5,302.4 589.2,301.3 610.0,303.2 630.8,304.0 651.5,301.1 672.3,304.4 734.6,302.9 755.4,303.5 776.2,301.9 796.9,301.6 817.7,302.2 838.5,301.3 859.2,303.1 880.0,299.4" fill="none" stroke="#2ca02c" stroke-width="2"/>
<circle cx="360.8" cy="299.0" r="3" fill="#2ca02c"/>
<circle cx="381.5" cy="302.7" r="3" fill="#2ca02c"/>
<circle cx="402.3" cy="304.1" r="3" fill="#2ca02c"/>
<circle cx="423.1" cy="302.4" r="3" fill="#2ca02c"/>
<circle cx="443.8" cy="301.0" r="3" fill="#2ca02c"/>
<circle cx="464.6" cy="304.1" r="3" fill="#2ca02c"/>
<circle cx="485.4" cy="304.4" r="3" fill="#2ca02c"/>
<circle cx="506.2" cy="298.5" r="3" fill="#2ca02c"/>
<circle cx="526.9" cy="303.3" r="3" fill="#2ca02c"/>
<circle cx="547.7" cy="303.2" r="3" fill="#2ca02c"/>
<circle cx="568.5" cy="302.4" r="3" fill="#2ca02c"/>
<circle cx="589.2" cy="301.3" r="3" fill="#2ca02c"/>
<circle cx="610.0" cy="303.2" r="3" fill="#2ca02c"/>
<circle cx="630.8" cy="304.0" r="3" fill="#2ca02c"/>
<circle cx="651.5" cy="301.1" r="3" fill="#2ca02c"/>
<circle cx="672.3" cy="304.4" r="3" fill="#2ca02c"/>
<circle cx="734.6" cy="302.9" r="3" fill="#2ca02c"/>
<circle cx="755.4" cy="303.5" r="3" fill="#2ca02c"/>
<circle cx="776.2" cy="301.9" r="3" fill="#2ca02c"/>
<circle cx="796.9" cy="301.6" r="3" fill="#2ca02c"/>
<circle cx="817.7" cy="302.2" r="3" fill="#2ca02c"/>
<circle cx="838.5" cy="301.3" r="3" fill="#2ca02c"/>
<circle cx="859.2" cy="303.1" r="3" fill="#2ca02c"/>
<circle cx="880.0" cy="299.4" r="3" fill="#2ca02c"/>
<rect x="610.0" y="358" width="10" height="10" fill="#2ca02c"/>
<text x="624.0" y="367" font-size="11" fill="#333">render compose (SkiaSharp)</text>
</svg>
