<svg xmlns="http://www.w3.org/2000/svg" width="900" height="380" viewBox="0 0 900 380" font-family="sans-serif">
<rect width="900" height="380" fill="white"/>
<text x="70" y="24" font-size="16" fill="#333">Render loop per-frame cost (ms, p50 unless noted) — 25fps budget is 40ms</text>
<line x1="70" y1="324.0" x2="880" y2="324.0" stroke="#e5e5e5"/>
<text x="64" y="328.0" font-size="11" fill="#666" text-anchor="end">0ms</text>
<line x1="70" y1="268.0" x2="880" y2="268.0" stroke="#e5e5e5"/>
<text x="64" y="272.0" font-size="11" fill="#666" text-anchor="end">74ms</text>
<line x1="70" y1="212.0" x2="880" y2="212.0" stroke="#e5e5e5"/>
<text x="64" y="216.0" font-size="11" fill="#666" text-anchor="end">148ms</text>
<line x1="70" y1="156.0" x2="880" y2="156.0" stroke="#e5e5e5"/>
<text x="64" y="160.0" font-size="11" fill="#666" text-anchor="end">222ms</text>
<line x1="70" y1="100.0" x2="880" y2="100.0" stroke="#e5e5e5"/>
<text x="64" y="104.0" font-size="11" fill="#666" text-anchor="end">296ms</text>
<line x1="70" y1="44.0" x2="880" y2="44.0" stroke="#e5e5e5"/>
<text x="64" y="48.0" font-size="11" fill="#666" text-anchor="end">369ms</text>
<line x1="70" y1="293.7" x2="880" y2="293.7" stroke="#d62728" stroke-width="1.5" stroke-dasharray="6,4"/>
<text x="876" y="288.7" font-size="11" fill="#d62728" text-anchor="end">budget 40ms</text>
<text x="70.0" y="342" font-size="11" fill="#666" text-anchor="start">07-16 16:02</text>
<text x="483.3" y="342" font-size="11" fill="#666" text-anchor="middle">07-17 16:41</text>
<text x="880.0" y="342" font-size="11" fill="#666" text-anchor="end">07-17 22:45</text>
<polyline points="218.8,213.6 284.9,137.4 301.4,205.1 318.0,203.0 334.5,219.1 351.0,92.5 367.6,219.2 384.1,133.4 400.6,222.5 417.1,217.1 433.7,80.9 450.2,207.6 466.7,213.5 483.3,64.7 499.8,193.7 516.3,201.3 532.9,177.8 549.4,221.2 599.0,217.1 615.5,216.1 632.0,207.0 648.6,207.7 665.1,214.9 681.6,199.8 698.2,219.9 714.7,209.6 731.2,210.6 747.8,229.5 764.3,162.0 780.8,215.8 797.3,236.9 813.9,198.5 830.4,230.6 846.9,225.5 863.5,251.0 880.0,250.8" fill="none" stroke="#8c564b" stroke-width="2"/>
<circle cx="218.8" cy="213.6" r="3" fill="#8c564b"/>
<circle cx="284.9" cy="137.4" r="3" fill="#8c564b"/>
<circle cx="301.4" cy="205.1" r="3" fill="#8c564b"/>
<circle cx="318.0" cy="203.0" r="3" fill="#8c564b"/>
<circle cx="334.5" cy="219.1" r="3" fill="#8c564b"/>
<circle cx="351.0" cy="92.5" r="3" fill="#8c564b"/>
<circle cx="367.6" cy="219.2" r="3" fill="#8c564b"/>
<circle cx="384.1" cy="133.4" r="3" fill="#8c564b"/>
<circle cx="400.6" cy="222.5" r="3" fill="#8c564b"/>
<circle cx="417.1" cy="217.1" r="3" fill="#8c564b"/>
<circle cx="433.7" cy="80.9" r="3" fill="#8c564b"/>
<circle cx="450.2" cy="207.6" r="3" fill="#8c564b"/>
<circle cx="466.7" cy="213.5" r="3" fill="#8c564b"/>
<circle cx="483.3" cy="64.7" r="3" fill="#8c564b"/>
<circle cx="499.8" cy="193.7" r="3" fill="#8c564b"/>
<circle cx="516.3" cy="201.3" r="3" fill="#8c564b"/>
<circle cx="532.9" cy="177.8" r="3" fill="#8c564b"/>
<circle cx="549.4" cy="221.2" r="3" fill="#8c564b"/>
<circle cx="599.0" cy="217.1" r="3" fill="#8c564b"/>
<circle cx="615.5" cy="216.1" r="3" fill="#8c564b"/>
<circle cx="632.0" cy="207.0" r="3" fill="#8c564b"/>
<circle cx="648.6" cy="207.7" r="3" fill="#8c564b"/>
<circle cx="665.1" cy="214.9" r="3" fill="#8c564b"/>
<circle cx="681.6" cy="199.8" r="3" fill="#8c564b"/>
<circle cx="698.2" cy="219.9" r="3" fill="#8c564b"/>
<circle cx="714.7" cy="209.6" r="3" fill="#8c564b"/>
<circle cx="731.2" cy="210.6" r="3" fill="#8c564b"/>
<circle cx="747.8" cy="229.5" r="3" fill="#8c564b"/>
<circle cx="764.3" cy="162.0" r="3" fill="#8c564b"/>
<circle cx="780.8" cy="215.8" r="3" fill="#8c564b"/>
<circle cx="797.3" cy="236.9" r="3" fill="#8c564b"/>
<circle cx="813.9" cy="198.5" r="3" fill="#8c564b"/>
<circle cx="830.4" cy="230.6" r="3" fill="#8c564b"/>
<circle cx="846.9" cy="225.5" r="3" fill="#8c564b"/>
<circle cx="863.5" cy="251.0" r="3" fill="#8c564b"/>
<circle cx="880.0" cy="250.8" r="3" fill="#8c564b"/>
<rect x="70.0" y="358" width="10" height="10" fill="#8c564b"/>
<text x="84.0" y="367" font-size="11" fill="#333">render tick (p95)</text>
<polyline points="301.4,270.7 318.0,273.5 334.5,278.0 351.0,274.7 367.6,274.6 384.1,277.4 400.6,278.8 417.1,272.2 433.7,271.0 450.2,275.1 466.7,272.7 483.3,273.7 499.8,273.8 516.3,274.2 532.9,269.0 549.4,278.3 599.0,273.6 615.5,277.7 632.0,274.1 648.6,274.4 665.1,273.8 681.6,272.2 698.2,276.3 714.7,271.4 731.2,272.5 747.8,272.8 764.3,204.3 780.8,259.7 797.3,276.6 813.9,276.3 830.4,280.0 846.9,280.2 863.5,324.0 880.0,324.0" fill="none" stroke="#1f77b4" stroke-width="2"/>
<circle cx="301.4" cy="270.7" r="3" fill="#1f77b4"/>
<circle cx="318.0" cy="273.5" r="3" fill="#1f77b4"/>
<circle cx="334.5" cy="278.0" r="3" fill="#1f77b4"/>
<circle cx="351.0" cy="274.7" r="3" fill="#1f77b4"/>
<circle cx="367.6" cy="274.6" r="3" fill="#1f77b4"/>
<circle cx="384.1" cy="277.4" r="3" fill="#1f77b4"/>
<circle cx="400.6" cy="278.8" r="3" fill="#1f77b4"/>
<circle cx="417.1" cy="272.2" r="3" fill="#1f77b4"/>
<circle cx="433.7" cy="271.0" r="3" fill="#1f77b4"/>
<circle cx="450.2" cy="275.1" r="3" fill="#1f77b4"/>
<circle cx="466.7" cy="272.7" r="3" fill="#1f77b4"/>
<circle cx="483.3" cy="273.7" r="3" fill="#1f77b4"/>
<circle cx="499.8" cy="273.8" r="3" fill="#1f77b4"/>
<circle cx="516.3" cy="274.2" r="3" fill="#1f77b4"/>
<circle cx="532.9" cy="269.0" r="3" fill="#1f77b4"/>
<circle cx="549.4" cy="278.3" r="3" fill="#1f77b4"/>
<circle cx="599.0" cy="273.6" r="3" fill="#1f77b4"/>
<circle cx="615.5" cy="277.7" r="3" fill="#1f77b4"/>
<circle cx="632.0" cy="274.1" r="3" fill="#1f77b4"/>
<circle cx="648.6" cy="274.4" r="3" fill="#1f77b4"/>
<circle cx="665.1" cy="273.8" r="3" fill="#1f77b4"/>
<circle cx="681.6" cy="272.2" r="3" fill="#1f77b4"/>
<circle cx="698.2" cy="276.3" r="3" fill="#1f77b4"/>
<circle cx="714.7" cy="271.4" r="3" fill="#1f77b4"/>
<circle cx="731.2" cy="272.5" r="3" fill="#1f77b4"/>
<circle cx="747.8" cy="272.8" r="3" fill="#1f77b4"/>
<circle cx="764.3" cy="204.3" r="3" fill="#1f77b4"/>
<circle cx="780.8" cy="259.7" r="3" fill="#1f77b4"/>
<circle cx="797.3" cy="276.6" r="3" fill="#1f77b4"/>
<circle cx="813.9" cy="276.3" r="3" fill="#1f77b4"/>
<circle cx="830.4" cy="280.0" r="3" fill="#1f77b4"/>
<circle cx="846.9" cy="280.2" r="3" fill="#1f77b4"/>
<circle cx="863.5" cy="324.0" r="3" fill="#1f77b4"/>
<circle cx="880.0" cy="324.0" r="3" fill="#1f77b4"/>
<rect x="340.0" y="358" width="10" height="10" fill="#1f77b4"/>
<text x="354.0" y="367" font-size="11" fill="#333">render mouth (wav2lip)</text>
<polyline points="301.4,299.0 318.0,302.7 334.5,304.1 351.0,302.4 367.6,301.0 384.1,304.1 400.6,304.4 417.1,298.5 433.7,303.3 450.2,303.2 466.7,302.4 483.3,301.3 499.8,303.2 516.3,304.0 532.9,301.1 549.4,304.4 599.0,302.9 615.5,303.5 632.0,301.9 648.6,301.6 665.1,302.2 681.6,301.3 698.2,303.1 714.7,299.4 731.2,302.2 747.8,303.5 764.3,304.8 780.8,305.8 797.3,304.8 813.9,302.4 830.4,304.8 846.9,304.6 863.5,305.6 880.0,305.9" fill="none" stroke="#2ca02c" stroke-width="2"/>
<circle cx="301.4" cy="299.0" r="3" fill="#2ca02c"/>
<circle cx="318.0" cy="302.7" r="3" fill="#2ca02c"/>
<circle cx="334.5" cy="304.1" r="3" fill="#2ca02c"/>
<circle cx="351.0" cy="302.4" r="3" fill="#2ca02c"/>
<circle cx="367.6" cy="301.0" r="3" fill="#2ca02c"/>
<circle cx="384.1" cy="304.1" r="3" fill="#2ca02c"/>
<circle cx="400.6" cy="304.4" r="3" fill="#2ca02c"/>
<circle cx="417.1" cy="298.5" r="3" fill="#2ca02c"/>
<circle cx="433.7" cy="303.3" r="3" fill="#2ca02c"/>
<circle cx="450.2" cy="303.2" r="3" fill="#2ca02c"/>
<circle cx="466.7" cy="302.4" r="3" fill="#2ca02c"/>
<circle cx="483.3" cy="301.3" r="3" fill="#2ca02c"/>
<circle cx="499.8" cy="303.2" r="3" fill="#2ca02c"/>
<circle cx="516.3" cy="304.0" r="3" fill="#2ca02c"/>
<circle cx="532.9" cy="301.1" r="3" fill="#2ca02c"/>
<circle cx="549.4" cy="304.4" r="3" fill="#2ca02c"/>
<circle cx="599.0" cy="302.9" r="3" fill="#2ca02c"/>
<circle cx="615.5" cy="303.5" r="3" fill="#2ca02c"/>
<circle cx="632.0" cy="301.9" r="3" fill="#2ca02c"/>
<circle cx="648.6" cy="301.6" r="3" fill="#2ca02c"/>
<circle cx="665.1" cy="302.2" r="3" fill="#2ca02c"/>
<circle cx="681.6" cy="301.3" r="3" fill="#2ca02c"/>
<circle cx="698.2" cy="303.1" r="3" fill="#2ca02c"/>
<circle cx="714.7" cy="299.4" r="3" fill="#2ca02c"/>
<circle cx="731.2" cy="302.2" r="3" fill="#2ca02c"/>
<circle cx="747.8" cy="303.5" r="3" fill="#2ca02c"/>
<circle cx="764.3" cy="304.8" r="3" fill="#2ca02c"/>
<circle cx="780.8" cy="305.8" r="3" fill="#2ca02c"/>
<circle cx="797.3" cy="304.8" r="3" fill="#2ca02c"/>
<circle cx="813.9" cy="302.4" r="3" fill="#2ca02c"/>
<circle cx="830.4" cy="304.8" r="3" fill="#2ca02c"/>
<circle cx="846.9" cy="304.6" r="3" fill="#2ca02c"/>
<circle cx="863.5" cy="305.6" r="3" fill="#2ca02c"/>
<circle cx="880.0" cy="305.9" r="3" fill="#2ca02c"/>
<rect x="610.0" y="358" width="10" height="10" fill="#2ca02c"/>
<text x="624.0" y="367" font-size="11" fill="#333">render compose (SkiaSharp)</text>
</svg>
