<svg xmlns="http://www.w3.org/2000/svg" width="900" height="380" viewBox="0 0 900 380" font-family="sans-serif">
<rect width="900" height="380" fill="white"/>
<text x="70" y="24" font-size="16" fill="#333">Render loop per-frame cost (ms, p50 unless noted) — 25fps budget is 40ms</text>
<line x1="70" y1="324.0" x2="880" y2="324.0" stroke="#e5e5e5"/>
<text x="64" y="328.0" font-size="11" fill="#666" text-anchor="end">0ms</text>
<line x1="70" y1="268.0" x2="880" y2="268.0" stroke="#e5e5e5"/>
<text x="64" y="272.0" font-size="11" fill="#666" text-anchor="end">74ms</text>
<line x1="70" y1="212.0" x2="880" y2="212.0" stroke="#e5e5e5"/>
<text x="64" y="216.0" font-size="11" fill="#666" text-anchor="end">148ms</text>
<line x1="70" y1="156.0" x2="880" y2="156.0" stroke="#e5e5e5"/>
<text x="64" y="160.0" font-size="11" fill="#666" text-anchor="end">222ms</text>
<line x1="70" y1="100.0" x2="880" y2="100.0" stroke="#e5e5e5"/>
<text x="64" y="104.0" font-size="11" fill="#666" text-anchor="end">296ms</text>
<line x1="70" y1="44.0" x2="880" y2="44.0" stroke="#e5e5e5"/>
<text x="64" y="48.0" font-size="11" fill="#666" text-anchor="end">369ms</text>
<line x1="70" y1="293.7" x2="880" y2="293.7" stroke="#d62728" stroke-width="1.5" stroke-dasharray="6,4"/>
<text x="876" y="288.7" font-size="11" fill="#d62728" text-anchor="end">budget 40ms</text>
<text x="70.0" y="342" font-size="11" fill="#666" text-anchor="start">07-16 16:02</text>
<text x="475.0" y="342" font-size="11" fill="#666" text-anchor="middle">07-17 14:26</text>
<text x="880.0" y="342" font-size="11" fill="#666" text-anchor="end">07-17 20:02</text>
<polyline points="284.4,213.6 379.7,137.4 403.5,205.1 427.4,203.0 451.2,219.1 475.0,92.5 498.8,219.2 522.6,133.4 546.5,222.5 570.3,217.1 594.1,80.9 617.9,207.6 641.8,213.5 665.6,64.7 689.4,193.7 713.2,201.3 737.1,177.8 760.9,221.2 832.4,217.1 856.2,216.1 880.0,207.0" fill="none" stroke="#8c564b" stroke-width="2"/>
<circle cx="284.4" cy="213.6" r="3" fill="#8c564b"/>
<circle cx="379.7" cy="137.4" r="3" fill="#8c564b"/>
<circle cx="403.5" cy="205.1" r="3" fill="#8c564b"/>
<circle cx="427.4" cy="203.0" r="3" fill="#8c564b"/>
<circle cx="451.2" cy="219.1" r="3" fill="#8c564b"/>
<circle cx="475.0" cy="92.5" r="3" fill="#8c564b"/>
<circle cx="498.8" cy="219.2" r="3" fill="#8c564b"/>
<circle cx="522.6" cy="133.4" r="3" fill="#8c564b"/>
<circle cx="546.5" cy="222.5" r="3" fill="#8c564b"/>
<circle cx="570.3" cy="217.1" r="3" fill="#8c564b"/>
<circle cx="594.1" cy="80.9" r="3" fill="#8c564b"/>
<circle cx="617.9" cy="207.6" r="3" fill="#8c564b"/>
<circle cx="641.8" cy="213.5" r="3" fill="#8c564b"/>
<circle cx="665.6" cy="64.7" r="3" fill="#8c564b"/>
<circle cx="689.4" cy="193.7" r="3" fill="#8c564b"/>
<circle cx="713.2" cy="201.3" r="3" fill="#8c564b"/>
<circle cx="737.1" cy="177.8" r="3" fill="#8c564b"/>
<circle cx="760.9" cy="221.2" r="3" fill="#8c564b"/>
<circle cx="832.4" cy="217.1" r="3" fill="#8c564b"/>
<circle cx="856.2" cy="216.1" r="3" fill="#8c564b"/>
<circle cx="880.0" cy="207.0" r="3" fill="#8c564b"/>
<rect x="70.0" y="358" width="10" height="10" fill="#8c564b"/>
<text x="84.0" y="367" font-size="11" fill="#333">render tick (p95)</text>
<polyline points="403.5,270.7 427.4,273.5 451.2,278.0 475.0,274.7 498.8,274.6 522.6,277.4 546.5,278.8 570.3,272.2 594.1,271.0 617.9,275.1 641.8,272.7 665.6,273.7 689.4,273.8 713.2,274.2 737.1,269.0 760.9,278.3 832.4,273.6 856.2,277.7 880.0,274.1" fill="none" stroke="#1f77b4" stroke-width="2"/>
<circle cx="403.5" cy="270.7" r="3" fill="#1f77b4"/>
<circle cx="427.4" cy="273.5" r="3" fill="#1f77b4"/>
<circle cx="451.2" cy="278.0" r="3" fill="#1f77b4"/>
<circle cx="475.0" cy="274.7" r="3" fill="#1f77b4"/>
<circle cx="498.8" cy="274.6" r="3" fill="#1f77b4"/>
<circle cx="522.6" cy="277.4" r="3" fill="#1f77b4"/>
<circle cx="546.5" cy="278.8" r="3" fill="#1f77b4"/>
<circle cx="570.3" cy="272.2" r="3" fill="#1f77b4"/>
<circle cx="594.1" cy="271.0" r="3" fill="#1f77b4"/>
<circle cx="617.9" cy="275.1" r="3" fill="#1f77b4"/>
<circle cx="641.8" cy="272.7" r="3" fill="#1f77b4"/>
<circle cx="665.6" cy="273.7" r="3" fill="#1f77b4"/>
<circle cx="689.4" cy="273.8" r="3" fill="#1f77b4"/>
<circle cx="713.2" cy="274.2" r="3" fill="#1f77b4"/>
<circle cx="737.1" cy="269.0" r="3" fill="#1f77b4"/>
<circle cx="760.9" cy="278.3" r="3" fill="#1f77b4"/>
<circle cx="832.4" cy="273.6" r="3" fill="#1f77b4"/>
<circle cx="856.2" cy="277.7" r="3" fill="#1f77b4"/>
<circle cx="880.0" cy="274.1" r="3" fill="#1f77b4"/>
<rect x="340.0" y="358" width="10" height="10" fill="#1f77b4"/>
<text x="354.0" y="367" font-size="11" fill="#333">render mouth (wav2lip)</text>
<polyline points="403.5,299.0 427.4,302.7 451.2,304.1 475.0,302.4 498.8,301.0 522.6,304.1 546.5,304.4 570.3,298.5 594.1,303.3 617.9,303.2 641.8,302.4 665.6,301.3 689.4,303.2 713.2,304.0 737.1,301.1 760.9,304.4 832.4,302.9 856.2,303.5 880.0,301.9" fill="none" stroke="#2ca02c" stroke-width="2"/>
<circle cx="403.5" cy="299.0" r="3" fill="#2ca02c"/>
<circle cx="427.4" cy="302.7" r="3" fill="#2ca02c"/>
<circle cx="451.2" cy="304.1" r="3" fill="#2ca02c"/>
<circle cx="475.0" cy="302.4" r="3" fill="#2ca02c"/>
<circle cx="498.8" cy="301.0" r="3" fill="#2ca02c"/>
<circle cx="522.6" cy="304.1" r="3" fill="#2ca02c"/>
<circle cx="546.5" cy="304.4" r="3" fill="#2ca02c"/>
<circle cx="570.3" cy="298.5" r="3" fill="#2ca02c"/>
<circle cx="594.1" cy="303.3" r="3" fill="#2ca02c"/>
<circle cx="617.9" cy="303.2" r="3" fill="#2ca02c"/>
<circle cx="641.8" cy="302.4" r="3" fill="#2ca02c"/>
<circle cx="665.6" cy="301.3" r="3" fill="#2ca02c"/>
<circle cx="689.4" cy="303.2" r="3" fill="#2ca02c"/>
<circle cx="713.2" cy="304.0" r="3" fill="#2ca02c"/>
<circle cx="737.1" cy="301.1" r="3" fill="#2ca02c"/>
<circle cx="760.9" cy="304.4" r="3" fill="#2ca02c"/>
<circle cx="832.4" cy="302.9" r="3" fill="#2ca02c"/>
<circle cx="856.2" cy="303.5" r="3" fill="#2ca02c"/>
<circle cx="880.0" cy="301.9" r="3" fill="#2ca02c"/>
<rect x="610.0" y="358" width="10" height="10" fill="#2ca02c"/>
<text x="624.0" y="367" font-size="11" fill="#333">render compose (SkiaSharp)</text>
</svg>
