<svg xmlns="http://www.w3.org/2000/svg" width="900" height="380" viewBox="0 0 900 380" font-family="sans-serif">
<rect width="900" height="380" fill="white"/>
<text x="70" y="24" font-size="16" fill="#333">Render loop per-frame cost (ms, p50 unless noted) — 25fps budget is 40ms</text>
<line x1="70" y1="324.0" x2="880" y2="324.0" stroke="#e5e5e5"/>
<text x="64" y="328.0" font-size="11" fill="#666" text-anchor="end">0ms</text>
<line x1="70" y1="268.0" x2="880" y2="268.0" stroke="#e5e5e5"/>
<text x="64" y="272.0" font-size="11" fill="#666" text-anchor="end">74ms</text>
<line x1="70" y1="212.0" x2="880" y2="212.0" stroke="#e5e5e5"/>
<text x="64" y="216.0" font-size="11" fill="#666" text-anchor="end">148ms</text>
<line x1="70" y1="156.0" x2="880" y2="156.0" stroke="#e5e5e5"/>
<text x="64" y="160.0" font-size="11" fill="#666" text-anchor="end">222ms</text>
<line x1="70" y1="100.0" x2="880" y2="100.0" stroke="#e5e5e5"/>
<text x="64" y="104.0" font-size="11" fill="#666" text-anchor="end">296ms</text>
<line x1="70" y1="44.0" x2="880" y2="44.0" stroke="#e5e5e5"/>
<text x="64" y="48.0" font-size="11" fill="#666" text-anchor="end">369ms</text>
<line x1="70" y1="293.7" x2="880" y2="293.7" stroke="#d62728" stroke-width="1.5" stroke-dasharray="6,4"/>
<text x="876" y="288.7" font-size="11" fill="#d62728" text-anchor="end">budget 40ms</text>
<text x="70.0" y="342" font-size="11" fill="#666" text-anchor="start">07-16 16:02</text>
<text x="484.0" y="342" font-size="11" fill="#666" text-anchor="middle">07-17 16:30</text>
<text x="880.0" y="342" font-size="11" fill="#666" text-anchor="end">07-17 22:06</text>
<polyline points="232.0,213.6 304.0,137.4 322.0,205.1 340.0,203.0 358.0,219.1 376.0,92.5 394.0,219.2 412.0,133.4 430.0,222.5 448.0,217.1 466.0,80.9 484.0,207.6 502.0,213.5 520.0,64.7 538.0,193.7 556.0,201.3 574.0,177.8 592.0,221.2 646.0,217.1 664.0,216.1 682.0,207.0 700.0,207.7 718.0,214.9 736.0,199.8 754.0,219.9 772.0,209.6 790.0,210.6 808.0,229.5 826.0,162.0 844.0,215.8 862.0,236.9 880.0,198.5" fill="none" stroke="#8c564b" stroke-width="2"/>
<circle cx="232.0" cy="213.6" r="3" fill="#8c564b"/>
<circle cx="304.0" cy="137.4" r="3" fill="#8c564b"/>
<circle cx="322.0" cy="205.1" r="3" fill="#8c564b"/>
<circle cx="340.0" cy="203.0" r="3" fill="#8c564b"/>
<circle cx="358.0" cy="219.1" r="3" fill="#8c564b"/>
<circle cx="376.0" cy="92.5" r="3" fill="#8c564b"/>
<circle cx="394.0" cy="219.2" r="3" fill="#8c564b"/>
<circle cx="412.0" cy="133.4" r="3" fill="#8c564b"/>
<circle cx="430.0" cy="222.5" r="3" fill="#8c564b"/>
<circle cx="448.0" cy="217.1" r="3" fill="#8c564b"/>
<circle cx="466.0" cy="80.9" r="3" fill="#8c564b"/>
<circle cx="484.0" cy="207.6" r="3" fill="#8c564b"/>
<circle cx="502.0" cy="213.5" r="3" fill="#8c564b"/>
<circle cx="520.0" cy="64.7" r="3" fill="#8c564b"/>
<circle cx="538.0" cy="193.7" r="3" fill="#8c564b"/>
<circle cx="556.0" cy="201.3" r="3" fill="#8c564b"/>
<circle cx="574.0" cy="177.8" r="3" fill="#8c564b"/>
<circle cx="592.0" cy="221.2" r="3" fill="#8c564b"/>
<circle cx="646.0" cy="217.1" r="3" fill="#8c564b"/>
<circle cx="664.0" cy="216.1" r="3" fill="#8c564b"/>
<circle cx="682.0" cy="207.0" r="3" fill="#8c564b"/>
<circle cx="700.0" cy="207.7" r="3" fill="#8c564b"/>
<circle cx="718.0" cy="214.9" r="3" fill="#8c564b"/>
<circle cx="736.0" cy="199.8" r="3" fill="#8c564b"/>
<circle cx="754.0" cy="219.9" r="3" fill="#8c564b"/>
<circle cx="772.0" cy="209.6" r="3" fill="#8c564b"/>
<circle cx="790.0" cy="210.6" r="3" fill="#8c564b"/>
<circle cx="808.0" cy="229.5" r="3" fill="#8c564b"/>
<circle cx="826.0" cy="162.0" r="3" fill="#8c564b"/>
<circle cx="844.0" cy="215.8" r="3" fill="#8c564b"/>
<circle cx="862.0" cy="236.9" r="3" fill="#8c564b"/>
<circle cx="880.0" cy="198.5" r="3" fill="#8c564b"/>
<rect x="70.0" y="358" width="10" height="10" fill="#8c564b"/>
<text x="84.0" y="367" font-size="11" fill="#333">render tick (p95)</text>
<polyline points="322.0,270.7 340.0,273.5 358.0,278.0 376.0,274.7 394.0,274.6 412.0,277.4 430.0,278.8 448.0,272.2 466.0,271.0 484.0,275.1 502.0,272.7 520.0,273.7 538.0,273.8 556.0,274.2 574.0,269.0 592.0,278.3 646.0,273.6 664.0,277.7 682.0,274.1 700.0,274.4 718.0,273.8 736.0,272.2 754.0,276.3 772.0,271.4 790.0,272.5 808.0,272.8 826.0,204.3 844.0,259.7 862.0,276.6 880.0,276.3" fill="none" stroke="#1f77b4" stroke-width="2"/>
<circle cx="322.0" cy="270.7" r="3" fill="#1f77b4"/>
<circle cx="340.0" cy="273.5" r="3" fill="#1f77b4"/>
<circle cx="358.0" cy="278.0" r="3" fill="#1f77b4"/>
<circle cx="376.0" cy="274.7" r="3" fill="#1f77b4"/>
<circle cx="394.0" cy="274.6" r="3" fill="#1f77b4"/>
<circle cx="412.0" cy="277.4" r="3" fill="#1f77b4"/>
<circle cx="430.0" cy="278.8" r="3" fill="#1f77b4"/>
<circle cx="448.0" cy="272.2" r="3" fill="#1f77b4"/>
<circle cx="466.0" cy="271.0" r="3" fill="#1f77b4"/>
<circle cx="484.0" cy="275.1" r="3" fill="#1f77b4"/>
<circle cx="502.0" cy="272.7" r="3" fill="#1f77b4"/>
<circle cx="520.0" cy="273.7" r="3" fill="#1f77b4"/>
<circle cx="538.0" cy="273.8" r="3" fill="#1f77b4"/>
<circle cx="556.0" cy="274.2" r="3" fill="#1f77b4"/>
<circle cx="574.0" cy="269.0" r="3" fill="#1f77b4"/>
<circle cx="592.0" cy="278.3" r="3" fill="#1f77b4"/>
<circle cx="646.0" cy="273.6" r="3" fill="#1f77b4"/>
<circle cx="664.0" cy="277.7" r="3" fill="#1f77b4"/>
<circle cx="682.0" cy="274.1" r="3" fill="#1f77b4"/>
<circle cx="700.0" cy="274.4" r="3" fill="#1f77b4"/>
<circle cx="718.0" cy="273.8" r="3" fill="#1f77b4"/>
<circle cx="736.0" cy="272.2" r="3" fill="#1f77b4"/>
<circle cx="754.0" cy="276.3" r="3" fill="#1f77b4"/>
<circle cx="772.0" cy="271.4" r="3" fill="#1f77b4"/>
<circle cx="790.0" cy="272.5" r="3" fill="#1f77b4"/>
<circle cx="808.0" cy="272.8" r="3" fill="#1f77b4"/>
<circle cx="826.0" cy="204.3" r="3" fill="#1f77b4"/>
<circle cx="844.0" cy="259.7" r="3" fill="#1f77b4"/>
<circle cx="862.0" cy="276.6" r="3" fill="#1f77b4"/>
<circle cx="880.0" cy="276.3" r="3" fill="#1f77b4"/>
<rect x="340.0" y="358" width="10" height="10" fill="#1f77b4"/>
<text x="354.0" y="367" font-size="11" fill="#333">render mouth (wav2lip)</text>
<polyline points="322.0,299.0 340.0,302.7 358.0,304.1 376.0,302.4 394.0,301.0 412.0,304.1 430.0,304.4 448.0,298.5 466.0,303.3 484.0,303.2 502.0,302.4 520.0,301.3 538.0,303.2 556.0,304.0 574.0,301.1 592.0,304.4 646.0,302.9 664.0,303.5 682.0,301.9 700.0,301.6 718.0,302.2 736.0,301.3 754.0,303.1 772.0,299.4 790.0,302.2 808.0,303.5 826.0,304.8 844.0,305.8 862.0,304.8 880.0,302.4" fill="none" stroke="#2ca02c" stroke-width="2"/>
<circle cx="322.0" cy="299.0" r="3" fill="#2ca02c"/>
<circle cx="340.0" cy="302.7" r="3" fill="#2ca02c"/>
<circle cx="358.0" cy="304.1" r="3" fill="#2ca02c"/>
<circle cx="376.0" cy="302.4" r="3" fill="#2ca02c"/>
<circle cx="394.0" cy="301.0" r="3" fill="#2ca02c"/>
<circle cx="412.0" cy="304.1" r="3" fill="#2ca02c"/>
<circle cx="430.0" cy="304.4" r="3" fill="#2ca02c"/>
<circle cx="448.0" cy="298.5" r="3" fill="#2ca02c"/>
<circle cx="466.0" cy="303.3" r="3" fill="#2ca02c"/>
<circle cx="484.0" cy="303.2" r="3" fill="#2ca02c"/>
<circle cx="502.0" cy="302.4" r="3" fill="#2ca02c"/>
<circle cx="520.0" cy="301.3" r="3" fill="#2ca02c"/>
<circle cx="538.0" cy="303.2" r="3" fill="#2ca02c"/>
<circle cx="556.0" cy="304.0" r="3" fill="#2ca02c"/>
<circle cx="574.0" cy="301.1" r="3" fill="#2ca02c"/>
<circle cx="592.0" cy="304.4" r="3" fill="#2ca02c"/>
<circle cx="646.0" cy="302.9" r="3" fill="#2ca02c"/>
<circle cx="664.0" cy="303.5" r="3" fill="#2ca02c"/>
<circle cx="682.0" cy="301.9" r="3" fill="#2ca02c"/>
<circle cx="700.0" cy="301.6" r="3" fill="#2ca02c"/>
<circle cx="718.0" cy="302.2" r="3" fill="#2ca02c"/>
<circle cx="736.0" cy="301.3" r="3" fill="#2ca02c"/>
<circle cx="754.0" cy="303.1" r="3" fill="#2ca02c"/>
<circle cx="772.0" cy="299.4" r="3" fill="#2ca02c"/>
<circle cx="790.0" cy="302.2" r="3" fill="#2ca02c"/>
<circle cx="808.0" cy="303.5" r="3" fill="#2ca02c"/>
<circle cx="826.0" cy="304.8" r="3" fill="#2ca02c"/>
<circle cx="844.0" cy="305.8" r="3" fill="#2ca02c"/>
<circle cx="862.0" cy="304.8" r="3" fill="#2ca02c"/>
<circle cx="880.0" cy="302.4" r="3" fill="#2ca02c"/>
<rect x="610.0" y="358" width="10" height="10" fill="#2ca02c"/>
<text x="624.0" y="367" font-size="11" fill="#333">render compose (SkiaSharp)</text>
</svg>
