<svg xmlns="http://www.w3.org/2000/svg" width="900" height="380" viewBox="0 0 900 380" font-family="sans-serif">
<rect width="900" height="380" fill="white"/>
<text x="70" y="24" font-size="16" fill="#333">Render loop per-frame cost (ms, p50 unless noted) — 25fps budget is 40ms</text>
<line x1="70" y1="324.0" x2="880" y2="324.0" stroke="#e5e5e5"/>
<text x="64" y="328.0" font-size="11" fill="#666" text-anchor="end">0ms</text>
<line x1="70" y1="268.0" x2="880" y2="268.0" stroke="#e5e5e5"/>
<text x="64" y="272.0" font-size="11" fill="#666" text-anchor="end">74ms</text>
<line x1="70" y1="212.0" x2="880" y2="212.0" stroke="#e5e5e5"/>
<text x="64" y="216.0" font-size="11" fill="#666" text-anchor="end">148ms</text>
<line x1="70" y1="156.0" x2="880" y2="156.0" stroke="#e5e5e5"/>
<text x="64" y="160.0" font-size="11" fill="#666" text-anchor="end">222ms</text>
<line x1="70" y1="100.0" x2="880" y2="100.0" stroke="#e5e5e5"/>
<text x="64" y="104.0" font-size="11" fill="#666" text-anchor="end">296ms</text>
<line x1="70" y1="44.0" x2="880" y2="44.0" stroke="#e5e5e5"/>
<text x="64" y="48.0" font-size="11" fill="#666" text-anchor="end">369ms</text>
<line x1="70" y1="293.7" x2="880" y2="293.7" stroke="#d62728" stroke-width="1.5" stroke-dasharray="6,4"/>
<text x="876" y="288.7" font-size="11" fill="#d62728" text-anchor="end">budget 40ms</text>
<text x="70.0" y="342" font-size="11" fill="#666" text-anchor="start">07-16 16:02</text>
<text x="475.0" y="342" font-size="11" fill="#666" text-anchor="middle">07-17 16:41</text>
<text x="880.0" y="342" font-size="11" fill="#666" text-anchor="end">07-18 05:38</text>
<polyline points="215.8,213.6 280.6,137.4 296.8,205.1 313.0,203.0 329.2,219.1 345.4,92.5 361.6,219.2 377.8,133.4 394.0,222.5 410.2,217.1 426.4,80.9 442.6,207.6 458.8,213.5 475.0,64.7 491.2,193.7 507.4,201.3 523.6,177.8 539.8,221.2 588.4,217.1 604.6,216.1 620.8,207.0 637.0,207.7 653.2,214.9 669.4,199.8 685.6,219.9 701.8,209.6 718.0,210.6 734.2,229.5 750.4,162.0 766.6,215.8 782.8,236.9 799.0,198.5 815.2,230.6 831.4,225.5 847.6,251.0 863.8,250.8 880.0,208.3" fill="none" stroke="#8c564b" stroke-width="2"/>
<circle cx="215.8" cy="213.6" r="3" fill="#8c564b"/>
<circle cx="280.6" cy="137.4" r="3" fill="#8c564b"/>
<circle cx="296.8" cy="205.1" r="3" fill="#8c564b"/>
<circle cx="313.0" cy="203.0" r="3" fill="#8c564b"/>
<circle cx="329.2" cy="219.1" r="3" fill="#8c564b"/>
<circle cx="345.4" cy="92.5" r="3" fill="#8c564b"/>
<circle cx="361.6" cy="219.2" r="3" fill="#8c564b"/>
<circle cx="377.8" cy="133.4" r="3" fill="#8c564b"/>
<circle cx="394.0" cy="222.5" r="3" fill="#8c564b"/>
<circle cx="410.2" cy="217.1" r="3" fill="#8c564b"/>
<circle cx="426.4" cy="80.9" r="3" fill="#8c564b"/>
<circle cx="442.6" cy="207.6" r="3" fill="#8c564b"/>
<circle cx="458.8" cy="213.5" r="3" fill="#8c564b"/>
<circle cx="475.0" cy="64.7" r="3" fill="#8c564b"/>
<circle cx="491.2" cy="193.7" r="3" fill="#8c564b"/>
<circle cx="507.4" cy="201.3" r="3" fill="#8c564b"/>
<circle cx="523.6" cy="177.8" r="3" fill="#8c564b"/>
<circle cx="539.8" cy="221.2" r="3" fill="#8c564b"/>
<circle cx="588.4" cy="217.1" r="3" fill="#8c564b"/>
<circle cx="604.6" cy="216.1" r="3" fill="#8c564b"/>
<circle cx="620.8" cy="207.0" r="3" fill="#8c564b"/>
<circle cx="637.0" cy="207.7" r="3" fill="#8c564b"/>
<circle cx="653.2" cy="214.9" r="3" fill="#8c564b"/>
<circle cx="669.4" cy="199.8" r="3" fill="#8c564b"/>
<circle cx="685.6" cy="219.9" r="3" fill="#8c564b"/>
<circle cx="701.8" cy="209.6" r="3" fill="#8c564b"/>
<circle cx="718.0" cy="210.6" r="3" fill="#8c564b"/>
<circle cx="734.2" cy="229.5" r="3" fill="#8c564b"/>
<circle cx="750.4" cy="162.0" r="3" fill="#8c564b"/>
<circle cx="766.6" cy="215.8" r="3" fill="#8c564b"/>
<circle cx="782.8" cy="236.9" r="3" fill="#8c564b"/>
<circle cx="799.0" cy="198.5" r="3" fill="#8c564b"/>
<circle cx="815.2" cy="230.6" r="3" fill="#8c564b"/>
<circle cx="831.4" cy="225.5" r="3" fill="#8c564b"/>
<circle cx="847.6" cy="251.0" r="3" fill="#8c564b"/>
<circle cx="863.8" cy="250.8" r="3" fill="#8c564b"/>
<circle cx="880.0" cy="208.3" r="3" fill="#8c564b"/>
<rect x="70.0" y="358" width="10" height="10" fill="#8c564b"/>
<text x="84.0" y="367" font-size="11" fill="#333">render tick (p95)</text>
<polyline points="296.8,270.7 313.0,273.5 329.2,278.0 345.4,274.7 361.6,274.6 377.8,277.4 394.0,278.8 410.2,272.2 426.4,271.0 442.6,275.1 458.8,272.7 475.0,273.7 491.2,273.8 507.4,274.2 523.6,269.0 539.8,278.3 588.4,273.6 604.6,277.7 620.8,274.1 637.0,274.4 653.2,273.8 669.4,272.2 685.6,276.3 701.8,271.4 718.0,272.5 734.2,272.8 750.4,204.3 766.6,259.7 782.8,276.6 799.0,276.3 815.2,280.0 831.4,280.2 847.6,324.0 863.8,324.0 880.0,254.4" fill="none" stroke="#1f77b4" stroke-width="2"/>
<circle cx="296.8" cy="270.7" r="3" fill="#1f77b4"/>
<circle cx="313.0" cy="273.5" r="3" fill="#1f77b4"/>
<circle cx="329.2" cy="278.0" r="3" fill="#1f77b4"/>
<circle cx="345.4" cy="274.7" r="3" fill="#1f77b4"/>
<circle cx="361.6" cy="274.6" r="3" fill="#1f77b4"/>
<circle cx="377.8" cy="277.4" r="3" fill="#1f77b4"/>
<circle cx="394.0" cy="278.8" r="3" fill="#1f77b4"/>
<circle cx="410.2" cy="272.2" r="3" fill="#1f77b4"/>
<circle cx="426.4" cy="271.0" r="3" fill="#1f77b4"/>
<circle cx="442.6" cy="275.1" r="3" fill="#1f77b4"/>
<circle cx="458.8" cy="272.7" r="3" fill="#1f77b4"/>
<circle cx="475.0" cy="273.7" r="3" fill="#1f77b4"/>
<circle cx="491.2" cy="273.8" r="3" fill="#1f77b4"/>
<circle cx="507.4" cy="274.2" r="3" fill="#1f77b4"/>
<circle cx="523.6" cy="269.0" r="3" fill="#1f77b4"/>
<circle cx="539.8" cy="278.3" r="3" fill="#1f77b4"/>
<circle cx="588.4" cy="273.6" r="3" fill="#1f77b4"/>
<circle cx="604.6" cy="277.7" r="3" fill="#1f77b4"/>
<circle cx="620.8" cy="274.1" r="3" fill="#1f77b4"/>
<circle cx="637.0" cy="274.4" r="3" fill="#1f77b4"/>
<circle cx="653.2" cy="273.8" r="3" fill="#1f77b4"/>
<circle cx="669.4" cy="272.2" r="3" fill="#1f77b4"/>
<circle cx="685.6" cy="276.3" r="3" fill="#1f77b4"/>
<circle cx="701.8" cy="271.4" r="3" fill="#1f77b4"/>
<circle cx="718.0" cy="272.5" r="3" fill="#1f77b4"/>
<circle cx="734.2" cy="272.8" r="3" fill="#1f77b4"/>
<circle cx="750.4" cy="204.3" r="3" fill="#1f77b4"/>
<circle cx="766.6" cy="259.7" r="3" fill="#1f77b4"/>
<circle cx="782.8" cy="276.6" r="3" fill="#1f77b4"/>
<circle cx="799.0" cy="276.3" r="3" fill="#1f77b4"/>
<circle cx="815.2" cy="280.0" r="3" fill="#1f77b4"/>
<circle cx="831.4" cy="280.2" r="3" fill="#1f77b4"/>
<circle cx="847.6" cy="324.0" r="3" fill="#1f77b4"/>
<circle cx="863.8" cy="324.0" r="3" fill="#1f77b4"/>
<circle cx="880.0" cy="254.4" r="3" fill="#1f77b4"/>
<rect x="340.0" y="358" width="10" height="10" fill="#1f77b4"/>
<text x="354.0" y="367" font-size="11" fill="#333">render mouth (wav2lip)</text>
<polyline points="296.8,299.0 313.0,302.7 329.2,304.1 345.4,302.4 361.6,301.0 377.8,304.1 394.0,304.4 410.2,298.5 426.4,303.3 442.6,303.2 458.8,302.4 475.0,301.3 491.2,303.2 507.4,304.0 523.6,301.1 539.8,304.4 588.4,302.9 604.6,303.5 620.8,301.9 637.0,301.6 653.2,302.2 669.4,301.3 685.6,303.1 701.8,299.4 718.0,302.2 734.2,303.5 750.4,304.8 766.6,305.8 782.8,304.8 799.0,302.4 815.2,304.8 831.4,304.6 847.6,305.6 863.8,305.9 880.0,306.5" fill="none" stroke="#2ca02c" stroke-width="2"/>
<circle cx="296.8" cy="299.0" r="3" fill="#2ca02c"/>
<circle cx="313.0" cy="302.7" r="3" fill="#2ca02c"/>
<circle cx="329.2" cy="304.1" r="3" fill="#2ca02c"/>
<circle cx="345.4" cy="302.4" r="3" fill="#2ca02c"/>
<circle cx="361.6" cy="301.0" r="3" fill="#2ca02c"/>
<circle cx="377.8" cy="304.1" r="3" fill="#2ca02c"/>
<circle cx="394.0" cy="304.4" r="3" fill="#2ca02c"/>
<circle cx="410.2" cy="298.5" r="3" fill="#2ca02c"/>
<circle cx="426.4" cy="303.3" r="3" fill="#2ca02c"/>
<circle cx="442.6" cy="303.2" r="3" fill="#2ca02c"/>
<circle cx="458.8" cy="302.4" r="3" fill="#2ca02c"/>
<circle cx="475.0" cy="301.3" r="3" fill="#2ca02c"/>
<circle cx="491.2" cy="303.2" r="3" fill="#2ca02c"/>
<circle cx="507.4" cy="304.0" r="3" fill="#2ca02c"/>
<circle cx="523.6" cy="301.1" r="3" fill="#2ca02c"/>
<circle cx="539.8" cy="304.4" r="3" fill="#2ca02c"/>
<circle cx="588.4" cy="302.9" r="3" fill="#2ca02c"/>
<circle cx="604.6" cy="303.5" r="3" fill="#2ca02c"/>
<circle cx="620.8" cy="301.9" r="3" fill="#2ca02c"/>
<circle cx="637.0" cy="301.6" r="3" fill="#2ca02c"/>
<circle cx="653.2" cy="302.2" r="3" fill="#2ca02c"/>
<circle cx="669.4" cy="301.3" r="3" fill="#2ca02c"/>
<circle cx="685.6" cy="303.1" r="3" fill="#2ca02c"/>
<circle cx="701.8" cy="299.4" r="3" fill="#2ca02c"/>
<circle cx="718.0" cy="302.2" r="3" fill="#2ca02c"/>
<circle cx="734.2" cy="303.5" r="3" fill="#2ca02c"/>
<circle cx="750.4" cy="304.8" r="3" fill="#2ca02c"/>
<circle cx="766.6" cy="305.8" r="3" fill="#2ca02c"/>
<circle cx="782.8" cy="304.8" r="3" fill="#2ca02c"/>
<circle cx="799.0" cy="302.4" r="3" fill="#2ca02c"/>
<circle cx="815.2" cy="304.8" r="3" fill="#2ca02c"/>
<circle cx="831.4" cy="304.6" r="3" fill="#2ca02c"/>
<circle cx="847.6" cy="305.6" r="3" fill="#2ca02c"/>
<circle cx="863.8" cy="305.9" r="3" fill="#2ca02c"/>
<circle cx="880.0" cy="306.5" r="3" fill="#2ca02c"/>
<rect x="610.0" y="358" width="10" height="10" fill="#2ca02c"/>
<text x="624.0" y="367" font-size="11" fill="#333">render compose (SkiaSharp)</text>
</svg>
