<svg xmlns="http://www.w3.org/2000/svg" width="900" height="380" viewBox="0 0 900 380" font-family="sans-serif">
<rect width="900" height="380" fill="white"/>
<text x="70" y="24" font-size="16" fill="#333">Render loop per-frame cost (ms, p50 unless noted) — 25fps budget is 40ms</text>
<line x1="70" y1="324.0" x2="880" y2="324.0" stroke="#e5e5e5"/>
<text x="64" y="328.0" font-size="11" fill="#666" text-anchor="end">0ms</text>
<line x1="70" y1="268.0" x2="880" y2="268.0" stroke="#e5e5e5"/>
<text x="64" y="272.0" font-size="11" fill="#666" text-anchor="end">69ms</text>
<line x1="70" y1="212.0" x2="880" y2="212.0" stroke="#e5e5e5"/>
<text x="64" y="216.0" font-size="11" fill="#666" text-anchor="end">139ms</text>
<line x1="70" y1="156.0" x2="880" y2="156.0" stroke="#e5e5e5"/>
<text x="64" y="160.0" font-size="11" fill="#666" text-anchor="end">208ms</text>
<line x1="70" y1="100.0" x2="880" y2="100.0" stroke="#e5e5e5"/>
<text x="64" y="104.0" font-size="11" fill="#666" text-anchor="end">277ms</text>
<line x1="70" y1="44.0" x2="880" y2="44.0" stroke="#e5e5e5"/>
<text x="64" y="48.0" font-size="11" fill="#666" text-anchor="end">346ms</text>
<line x1="70" y1="291.7" x2="880" y2="291.7" stroke="#d62728" stroke-width="1.5" stroke-dasharray="6,4"/>
<text x="876" y="286.7" font-size="11" fill="#d62728" text-anchor="end">budget 40ms</text>
<text x="70.0" y="342" font-size="11" fill="#666" text-anchor="start">07-16 16:02</text>
<text x="475.0" y="342" font-size="11" fill="#666" text-anchor="middle">07-17 05:57</text>
<text x="880.0" y="342" font-size="11" fill="#666" text-anchor="end">07-17 16:35</text>
<polyline points="373.8,206.3 508.8,125.0 542.5,197.2 576.2,195.0 610.0,212.1 643.8,77.1 677.5,212.2 711.2,120.7 745.0,215.8 778.8,210.0 812.5,64.7 846.2,199.9 880.0,206.2" fill="none" stroke="#8c564b" stroke-width="2"/>
<circle cx="373.8" cy="206.3" r="3" fill="#8c564b"/>
<circle cx="508.8" cy="125.0" r="3" fill="#8c564b"/>
<circle cx="542.5" cy="197.2" r="3" fill="#8c564b"/>
<circle cx="576.2" cy="195.0" r="3" fill="#8c564b"/>
<circle cx="610.0" cy="212.1" r="3" fill="#8c564b"/>
<circle cx="643.8" cy="77.1" r="3" fill="#8c564b"/>
<circle cx="677.5" cy="212.2" r="3" fill="#8c564b"/>
<circle cx="711.2" cy="120.7" r="3" fill="#8c564b"/>
<circle cx="745.0" cy="215.8" r="3" fill="#8c564b"/>
<circle cx="778.8" cy="210.0" r="3" fill="#8c564b"/>
<circle cx="812.5" cy="64.7" r="3" fill="#8c564b"/>
<circle cx="846.2" cy="199.9" r="3" fill="#8c564b"/>
<circle cx="880.0" cy="206.2" r="3" fill="#8c564b"/>
<rect x="70.0" y="358" width="10" height="10" fill="#8c564b"/>
<text x="84.0" y="367" font-size="11" fill="#333">render tick (p95)</text>
<polyline points="542.5,267.2 576.2,270.1 610.0,274.9 643.8,271.4 677.5,271.3 711.2,274.3 745.0,275.8 778.8,268.8 812.5,267.4 846.2,271.9 880.0,269.3" fill="none" stroke="#1f77b4" stroke-width="2"/>
<circle cx="542.5" cy="267.2" r="3" fill="#1f77b4"/>
<circle cx="576.2" cy="270.1" r="3" fill="#1f77b4"/>
<circle cx="610.0" cy="274.9" r="3" fill="#1f77b4"/>
<circle cx="643.8" cy="271.4" r="3" fill="#1f77b4"/>
<circle cx="677.5" cy="271.3" r="3" fill="#1f77b4"/>
<circle cx="711.2" cy="274.3" r="3" fill="#1f77b4"/>
<circle cx="745.0" cy="275.8" r="3" fill="#1f77b4"/>
<circle cx="778.8" cy="268.8" r="3" fill="#1f77b4"/>
<circle cx="812.5" cy="267.4" r="3" fill="#1f77b4"/>
<circle cx="846.2" cy="271.9" r="3" fill="#1f77b4"/>
<circle cx="880.0" cy="269.3" r="3" fill="#1f77b4"/>
<rect x="340.0" y="358" width="10" height="10" fill="#1f77b4"/>
<text x="354.0" y="367" font-size="11" fill="#333">render mouth (wav2lip)</text>
<polyline points="542.5,297.3 576.2,301.3 610.0,302.8 643.8,301.0 677.5,299.4 711.2,302.8 745.0,303.1 778.8,296.8 812.5,301.9 846.2,301.9 880.0,301.0" fill="none" stroke="#2ca02c" stroke-width="2"/>
<circle cx="542.5" cy="297.3" r="3" fill="#2ca02c"/>
<circle cx="576.2" cy="301.3" r="3" fill="#2ca02c"/>
<circle cx="610.0" cy="302.8" r="3" fill="#2ca02c"/>
<circle cx="643.8" cy="301.0" r="3" fill="#2ca02c"/>
<circle cx="677.5" cy="299.4" r="3" fill="#2ca02c"/>
<circle cx="711.2" cy="302.8" r="3" fill="#2ca02c"/>
<circle cx="745.0" cy="303.1" r="3" fill="#2ca02c"/>
<circle cx="778.8" cy="296.8" r="3" fill="#2ca02c"/>
<circle cx="812.5" cy="301.9" r="3" fill="#2ca02c"/>
<circle cx="846.2" cy="301.9" r="3" fill="#2ca02c"/>
<circle cx="880.0" cy="301.0" r="3" fill="#2ca02c"/>
<rect x="610.0" y="358" width="10" height="10" fill="#2ca02c"/>
<text x="624.0" y="367" font-size="11" fill="#333">render compose (SkiaSharp)</text>
</svg>
