<svg xmlns="http://www.w3.org/2000/svg" width="900" height="380" viewBox="0 0 900 380" font-family="sans-serif">
<rect width="900" height="380" fill="white"/>
<text x="70" y="24" font-size="16" fill="#333">Render loop per-frame cost (ms, p50 unless noted) — 25fps budget is 40ms</text>
<line x1="70" y1="324.0" x2="880" y2="324.0" stroke="#e5e5e5"/>
<text x="64" y="328.0" font-size="11" fill="#666" text-anchor="end">0ms</text>
<line x1="70" y1="268.0" x2="880" y2="268.0" stroke="#e5e5e5"/>
<text x="64" y="272.0" font-size="11" fill="#666" text-anchor="end">74ms</text>
<line x1="70" y1="212.0" x2="880" y2="212.0" stroke="#e5e5e5"/>
<text x="64" y="216.0" font-size="11" fill="#666" text-anchor="end">148ms</text>
<line x1="70" y1="156.0" x2="880" y2="156.0" stroke="#e5e5e5"/>
<text x="64" y="160.0" font-size="11" fill="#666" text-anchor="end">222ms</text>
<line x1="70" y1="100.0" x2="880" y2="100.0" stroke="#e5e5e5"/>
<text x="64" y="104.0" font-size="11" fill="#666" text-anchor="end">296ms</text>
<line x1="70" y1="44.0" x2="880" y2="44.0" stroke="#e5e5e5"/>
<text x="64" y="48.0" font-size="11" fill="#666" text-anchor="end">369ms</text>
<line x1="70" y1="293.7" x2="880" y2="293.7" stroke="#d62728" stroke-width="1.5" stroke-dasharray="6,4"/>
<text x="876" y="288.7" font-size="11" fill="#d62728" text-anchor="end">budget 40ms</text>
<text x="70.0" y="342" font-size="11" fill="#666" text-anchor="start">07-16 16:02</text>
<text x="475.0" y="342" font-size="11" fill="#666" text-anchor="middle">07-17 15:13</text>
<text x="880.0" y="342" font-size="11" fill="#666" text-anchor="end">07-17 20:37</text>
<polyline points="252.2,213.6 333.2,137.4 353.5,205.1 373.8,203.0 394.0,219.1 414.2,92.5 434.5,219.2 454.8,133.4 475.0,222.5 495.2,217.1 515.5,80.9 535.8,207.6 556.0,213.5 576.2,64.7 596.5,193.7 616.8,201.3 637.0,177.8 657.2,221.2 718.0,217.1 738.2,216.1 758.5,207.0 778.8,207.7 799.0,214.9 819.2,199.8 839.5,219.9 859.8,209.6 880.0,210.6" fill="none" stroke="#8c564b" stroke-width="2"/>
<circle cx="252.2" cy="213.6" r="3" fill="#8c564b"/>
<circle cx="333.2" cy="137.4" r="3" fill="#8c564b"/>
<circle cx="353.5" cy="205.1" r="3" fill="#8c564b"/>
<circle cx="373.8" cy="203.0" r="3" fill="#8c564b"/>
<circle cx="394.0" cy="219.1" r="3" fill="#8c564b"/>
<circle cx="414.2" cy="92.5" r="3" fill="#8c564b"/>
<circle cx="434.5" cy="219.2" r="3" fill="#8c564b"/>
<circle cx="454.8" cy="133.4" r="3" fill="#8c564b"/>
<circle cx="475.0" cy="222.5" r="3" fill="#8c564b"/>
<circle cx="495.2" cy="217.1" r="3" fill="#8c564b"/>
<circle cx="515.5" cy="80.9" r="3" fill="#8c564b"/>
<circle cx="535.8" cy="207.6" r="3" fill="#8c564b"/>
<circle cx="556.0" cy="213.5" r="3" fill="#8c564b"/>
<circle cx="576.2" cy="64.7" r="3" fill="#8c564b"/>
<circle cx="596.5" cy="193.7" r="3" fill="#8c564b"/>
<circle cx="616.8" cy="201.3" r="3" fill="#8c564b"/>
<circle cx="637.0" cy="177.8" r="3" fill="#8c564b"/>
<circle cx="657.2" cy="221.2" r="3" fill="#8c564b"/>
<circle cx="718.0" cy="217.1" r="3" fill="#8c564b"/>
<circle cx="738.2" cy="216.1" r="3" fill="#8c564b"/>
<circle cx="758.5" cy="207.0" r="3" fill="#8c564b"/>
<circle cx="778.8" cy="207.7" r="3" fill="#8c564b"/>
<circle cx="799.0" cy="214.9" r="3" fill="#8c564b"/>
<circle cx="819.2" cy="199.8" r="3" fill="#8c564b"/>
<circle cx="839.5" cy="219.9" r="3" fill="#8c564b"/>
<circle cx="859.8" cy="209.6" r="3" fill="#8c564b"/>
<circle cx="880.0" cy="210.6" r="3" fill="#8c564b"/>
<rect x="70.0" y="358" width="10" height="10" fill="#8c564b"/>
<text x="84.0" y="367" font-size="11" fill="#333">render tick (p95)</text>
<polyline points="353.5,270.7 373.8,273.5 394.0,278.0 414.2,274.7 434.5,274.6 454.8,277.4 475.0,278.8 495.2,272.2 515.5,271.0 535.8,275.1 556.0,272.7 576.2,273.7 596.5,273.8 616.8,274.2 637.0,269.0 657.2,278.3 718.0,273.6 738.2,277.7 758.5,274.1 778.8,274.4 799.0,273.8 819.2,272.2 839.5,276.3 859.8,271.4 880.0,272.5" fill="none" stroke="#1f77b4" stroke-width="2"/>
<circle cx="353.5" cy="270.7" r="3" fill="#1f77b4"/>
<circle cx="373.8" cy="273.5" r="3" fill="#1f77b4"/>
<circle cx="394.0" cy="278.0" r="3" fill="#1f77b4"/>
<circle cx="414.2" cy="274.7" r="3" fill="#1f77b4"/>
<circle cx="434.5" cy="274.6" r="3" fill="#1f77b4"/>
<circle cx="454.8" cy="277.4" r="3" fill="#1f77b4"/>
<circle cx="475.0" cy="278.8" r="3" fill="#1f77b4"/>
<circle cx="495.2" cy="272.2" r="3" fill="#1f77b4"/>
<circle cx="515.5" cy="271.0" r="3" fill="#1f77b4"/>
<circle cx="535.8" cy="275.1" r="3" fill="#1f77b4"/>
<circle cx="556.0" cy="272.7" r="3" fill="#1f77b4"/>
<circle cx="576.2" cy="273.7" r="3" fill="#1f77b4"/>
<circle cx="596.5" cy="273.8" r="3" fill="#1f77b4"/>
<circle cx="616.8" cy="274.2" r="3" fill="#1f77b4"/>
<circle cx="637.0" cy="269.0" r="3" fill="#1f77b4"/>
<circle cx="657.2" cy="278.3" r="3" fill="#1f77b4"/>
<circle cx="718.0" cy="273.6" r="3" fill="#1f77b4"/>
<circle cx="738.2" cy="277.7" r="3" fill="#1f77b4"/>
<circle cx="758.5" cy="274.1" r="3" fill="#1f77b4"/>
<circle cx="778.8" cy="274.4" r="3" fill="#1f77b4"/>
<circle cx="799.0" cy="273.8" r="3" fill="#1f77b4"/>
<circle cx="819.2" cy="272.2" r="3" fill="#1f77b4"/>
<circle cx="839.5" cy="276.3" r="3" fill="#1f77b4"/>
<circle cx="859.8" cy="271.4" r="3" fill="#1f77b4"/>
<circle cx="880.0" cy="272.5" r="3" fill="#1f77b4"/>
<rect x="340.0" y="358" width="10" height="10" fill="#1f77b4"/>
<text x="354.0" y="367" font-size="11" fill="#333">render mouth (wav2lip)</text>
<polyline points="353.5,299.0 373.8,302.7 394.0,304.1 414.2,302.4 434.5,301.0 454.8,304.1 475.0,304.4 495.2,298.5 515.5,303.3 535.8,303.2 556.0,302.4 576.2,301.3 596.5,303.2 616.8,304.0 637.0,301.1 657.2,304.4 718.0,302.9 738.2,303.5 758.5,301.9 778.8,301.6 799.0,302.2 819.2,301.3 839.5,303.1 859.8,299.4 880.0,302.2" fill="none" stroke="#2ca02c" stroke-width="2"/>
<circle cx="353.5" cy="299.0" r="3" fill="#2ca02c"/>
<circle cx="373.8" cy="302.7" r="3" fill="#2ca02c"/>
<circle cx="394.0" cy="304.1" r="3" fill="#2ca02c"/>
<circle cx="414.2" cy="302.4" r="3" fill="#2ca02c"/>
<circle cx="434.5" cy="301.0" r="3" fill="#2ca02c"/>
<circle cx="454.8" cy="304.1" r="3" fill="#2ca02c"/>
<circle cx="475.0" cy="304.4" r="3" fill="#2ca02c"/>
<circle cx="495.2" cy="298.5" r="3" fill="#2ca02c"/>
<circle cx="515.5" cy="303.3" r="3" fill="#2ca02c"/>
<circle cx="535.8" cy="303.2" r="3" fill="#2ca02c"/>
<circle cx="556.0" cy="302.4" r="3" fill="#2ca02c"/>
<circle cx="576.2" cy="301.3" r="3" fill="#2ca02c"/>
<circle cx="596.5" cy="303.2" r="3" fill="#2ca02c"/>
<circle cx="616.8" cy="304.0" r="3" fill="#2ca02c"/>
<circle cx="637.0" cy="301.1" r="3" fill="#2ca02c"/>
<circle cx="657.2" cy="304.4" r="3" fill="#2ca02c"/>
<circle cx="718.0" cy="302.9" r="3" fill="#2ca02c"/>
<circle cx="738.2" cy="303.5" r="3" fill="#2ca02c"/>
<circle cx="758.5" cy="301.9" r="3" fill="#2ca02c"/>
<circle cx="778.8" cy="301.6" r="3" fill="#2ca02c"/>
<circle cx="799.0" cy="302.2" r="3" fill="#2ca02c"/>
<circle cx="819.2" cy="301.3" r="3" fill="#2ca02c"/>
<circle cx="839.5" cy="303.1" r="3" fill="#2ca02c"/>
<circle cx="859.8" cy="299.4" r="3" fill="#2ca02c"/>
<circle cx="880.0" cy="302.2" r="3" fill="#2ca02c"/>
<rect x="610.0" y="358" width="10" height="10" fill="#2ca02c"/>
<text x="624.0" y="367" font-size="11" fill="#333">render compose (SkiaSharp)</text>
</svg>
