<svg xmlns="http://www.w3.org/2000/svg" width="900" height="380" viewBox="0 0 900 380" font-family="sans-serif">
<rect width="900" height="380" fill="white"/>
<text x="70" y="24" font-size="16" fill="#333">Render loop per-frame cost (ms, p50 unless noted) — 25fps budget is 40ms</text>
<line x1="70" y1="324.0" x2="880" y2="324.0" stroke="#e5e5e5"/>
<text x="64" y="328.0" font-size="11" fill="#666" text-anchor="end">0ms</text>
<line x1="70" y1="268.0" x2="880" y2="268.0" stroke="#e5e5e5"/>
<text x="64" y="272.0" font-size="11" fill="#666" text-anchor="end">66ms</text>
<line x1="70" y1="212.0" x2="880" y2="212.0" stroke="#e5e5e5"/>
<text x="64" y="216.0" font-size="11" fill="#666" text-anchor="end">132ms</text>
<line x1="70" y1="156.0" x2="880" y2="156.0" stroke="#e5e5e5"/>
<text x="64" y="160.0" font-size="11" fill="#666" text-anchor="end">198ms</text>
<line x1="70" y1="100.0" x2="880" y2="100.0" stroke="#e5e5e5"/>
<text x="64" y="104.0" font-size="11" fill="#666" text-anchor="end">264ms</text>
<line x1="70" y1="44.0" x2="880" y2="44.0" stroke="#e5e5e5"/>
<text x="64" y="48.0" font-size="11" fill="#666" text-anchor="end">330ms</text>
<line x1="70" y1="290.1" x2="880" y2="290.1" stroke="#d62728" stroke-width="1.5" stroke-dasharray="6,4"/>
<text x="876" y="285.1" font-size="11" fill="#d62728" text-anchor="end">budget 40ms</text>
<text x="70.0" y="342" font-size="11" fill="#666" text-anchor="start">07-16 16:02</text>
<text x="475.0" y="342" font-size="11" fill="#666" text-anchor="middle">07-16 22:24</text>
<text x="880.0" y="342" font-size="11" fill="#666" text-anchor="end">07-17 14:39</text>
<polyline points="475.0,200.4 655.0,115.1 700.0,190.8 745.0,188.6 790.0,206.5 835.0,64.7 880.0,206.6" fill="none" stroke="#8c564b" stroke-width="2"/>
<circle cx="475.0" cy="200.4" r="3" fill="#8c564b"/>
<circle cx="655.0" cy="115.1" r="3" fill="#8c564b"/>
<circle cx="700.0" cy="190.8" r="3" fill="#8c564b"/>
<circle cx="745.0" cy="188.6" r="3" fill="#8c564b"/>
<circle cx="790.0" cy="206.5" r="3" fill="#8c564b"/>
<circle cx="835.0" cy="64.7" r="3" fill="#8c564b"/>
<circle cx="880.0" cy="206.6" r="3" fill="#8c564b"/>
<rect x="70.0" y="358" width="10" height="10" fill="#8c564b"/>
<text x="84.0" y="367" font-size="11" fill="#333">render tick (p95)</text>
<polyline points="700.0,264.3 745.0,267.4 790.0,272.5 835.0,268.8 880.0,268.7" fill="none" stroke="#1f77b4" stroke-width="2"/>
<circle cx="700.0" cy="264.3" r="3" fill="#1f77b4"/>
<circle cx="745.0" cy="267.4" r="3" fill="#1f77b4"/>
<circle cx="790.0" cy="272.5" r="3" fill="#1f77b4"/>
<circle cx="835.0" cy="268.8" r="3" fill="#1f77b4"/>
<circle cx="880.0" cy="268.7" r="3" fill="#1f77b4"/>
<rect x="340.0" y="358" width="10" height="10" fill="#1f77b4"/>
<text x="354.0" y="367" font-size="11" fill="#333">render mouth (wav2lip)</text>
<polyline points="700.0,296.0 745.0,300.2 790.0,301.8 835.0,299.8 880.0,298.2" fill="none" stroke="#2ca02c" stroke-width="2"/>
<circle cx="700.0" cy="296.0" r="3" fill="#2ca02c"/>
<circle cx="745.0" cy="300.2" r="3" fill="#2ca02c"/>
<circle cx="790.0" cy="301.8" r="3" fill="#2ca02c"/>
<circle cx="835.0" cy="299.8" r="3" fill="#2ca02c"/>
<circle cx="880.0" cy="298.2" r="3" fill="#2ca02c"/>
<rect x="610.0" y="358" width="10" height="10" fill="#2ca02c"/>
<text x="624.0" y="367" font-size="11" fill="#333">render compose (SkiaSharp)</text>
</svg>
