<svg xmlns="http://www.w3.org/2000/svg" width="900" height="380" viewBox="0 0 900 380" font-family="sans-serif">
<rect width="900" height="380" fill="white"/>
<text x="70" y="24" font-size="16" fill="#333">Render loop per-frame cost (ms, p50 unless noted) — 25fps budget is 40ms</text>
<line x1="70" y1="324.0" x2="880" y2="324.0" stroke="#e5e5e5"/>
<text x="64" y="328.0" font-size="11" fill="#666" text-anchor="end">0ms</text>
<line x1="70" y1="268.0" x2="880" y2="268.0" stroke="#e5e5e5"/>
<text x="64" y="272.0" font-size="11" fill="#666" text-anchor="end">74ms</text>
<line x1="70" y1="212.0" x2="880" y2="212.0" stroke="#e5e5e5"/>
<text x="64" y="216.0" font-size="11" fill="#666" text-anchor="end">148ms</text>
<line x1="70" y1="156.0" x2="880" y2="156.0" stroke="#e5e5e5"/>
<text x="64" y="160.0" font-size="11" fill="#666" text-anchor="end">222ms</text>
<line x1="70" y1="100.0" x2="880" y2="100.0" stroke="#e5e5e5"/>
<text x="64" y="104.0" font-size="11" fill="#666" text-anchor="end">296ms</text>
<line x1="70" y1="44.0" x2="880" y2="44.0" stroke="#e5e5e5"/>
<text x="64" y="48.0" font-size="11" fill="#666" text-anchor="end">369ms</text>
<line x1="70" y1="293.7" x2="880" y2="293.7" stroke="#d62728" stroke-width="1.5" stroke-dasharray="6,4"/>
<text x="876" y="288.7" font-size="11" fill="#d62728" text-anchor="end">budget 40ms</text>
<text x="70.0" y="342" font-size="11" fill="#666" text-anchor="start">07-16 16:02</text>
<text x="475.0" y="342" font-size="11" fill="#666" text-anchor="middle">07-17 08:17</text>
<text x="880.0" y="342" font-size="11" fill="#666" text-anchor="end">07-17 19:15</text>
<polyline points="330.4,213.6 446.1,137.4 475.0,205.1 503.9,203.0 532.9,219.1 561.8,92.5 590.7,219.2 619.6,133.4 648.6,222.5 677.5,217.1 706.4,80.9 735.4,207.6 764.3,213.5 793.2,64.7 822.1,193.7 851.1,201.3 880.0,177.8" fill="none" stroke="#8c564b" stroke-width="2"/>
<circle cx="330.4" cy="213.6" r="3" fill="#8c564b"/>
<circle cx="446.1" cy="137.4" r="3" fill="#8c564b"/>
<circle cx="475.0" cy="205.1" r="3" fill="#8c564b"/>
<circle cx="503.9" cy="203.0" r="3" fill="#8c564b"/>
<circle cx="532.9" cy="219.1" r="3" fill="#8c564b"/>
<circle cx="561.8" cy="92.5" r="3" fill="#8c564b"/>
<circle cx="590.7" cy="219.2" r="3" fill="#8c564b"/>
<circle cx="619.6" cy="133.4" r="3" fill="#8c564b"/>
<circle cx="648.6" cy="222.5" r="3" fill="#8c564b"/>
<circle cx="677.5" cy="217.1" r="3" fill="#8c564b"/>
<circle cx="706.4" cy="80.9" r="3" fill="#8c564b"/>
<circle cx="735.4" cy="207.6" r="3" fill="#8c564b"/>
<circle cx="764.3" cy="213.5" r="3" fill="#8c564b"/>
<circle cx="793.2" cy="64.7" r="3" fill="#8c564b"/>
<circle cx="822.1" cy="193.7" r="3" fill="#8c564b"/>
<circle cx="851.1" cy="201.3" r="3" fill="#8c564b"/>
<circle cx="880.0" cy="177.8" r="3" fill="#8c564b"/>
<rect x="70.0" y="358" width="10" height="10" fill="#8c564b"/>
<text x="84.0" y="367" font-size="11" fill="#333">render tick (p95)</text>
<polyline points="475.0,270.7 503.9,273.5 532.9,278.0 561.8,274.7 590.7,274.6 619.6,277.4 648.6,278.8 677.5,272.2 706.4,271.0 735.4,275.1 764.3,272.7 793.2,273.7 822.1,273.8 851.1,274.2 880.0,269.0" fill="none" stroke="#1f77b4" stroke-width="2"/>
<circle cx="475.0" cy="270.7" r="3" fill="#1f77b4"/>
<circle cx="503.9" cy="273.5" r="3" fill="#1f77b4"/>
<circle cx="532.9" cy="278.0" r="3" fill="#1f77b4"/>
<circle cx="561.8" cy="274.7" r="3" fill="#1f77b4"/>
<circle cx="590.7" cy="274.6" r="3" fill="#1f77b4"/>
<circle cx="619.6" cy="277.4" r="3" fill="#1f77b4"/>
<circle cx="648.6" cy="278.8" r="3" fill="#1f77b4"/>
<circle cx="677.5" cy="272.2" r="3" fill="#1f77b4"/>
<circle cx="706.4" cy="271.0" r="3" fill="#1f77b4"/>
<circle cx="735.4" cy="275.1" r="3" fill="#1f77b4"/>
<circle cx="764.3" cy="272.7" r="3" fill="#1f77b4"/>
<circle cx="793.2" cy="273.7" r="3" fill="#1f77b4"/>
<circle cx="822.1" cy="273.8" r="3" fill="#1f77b4"/>
<circle cx="851.1" cy="274.2" r="3" fill="#1f77b4"/>
<circle cx="880.0" cy="269.0" r="3" fill="#1f77b4"/>
<rect x="340.0" y="358" width="10" height="10" fill="#1f77b4"/>
<text x="354.0" y="367" font-size="11" fill="#333">render mouth (wav2lip)</text>
<polyline points="475.0,299.0 503.9,302.7 532.9,304.1 561.8,302.4 590.7,301.0 619.6,304.1 648.6,304.4 677.5,298.5 706.4,303.3 735.4,303.2 764.3,302.4 793.2,301.3 822.1,303.2 851.1,304.0 880.0,301.1" fill="none" stroke="#2ca02c" stroke-width="2"/>
<circle cx="475.0" cy="299.0" r="3" fill="#2ca02c"/>
<circle cx="503.9" cy="302.7" r="3" fill="#2ca02c"/>
<circle cx="532.9" cy="304.1" r="3" fill="#2ca02c"/>
<circle cx="561.8" cy="302.4" r="3" fill="#2ca02c"/>
<circle cx="590.7" cy="301.0" r="3" fill="#2ca02c"/>
<circle cx="619.6" cy="304.1" r="3" fill="#2ca02c"/>
<circle cx="648.6" cy="304.4" r="3" fill="#2ca02c"/>
<circle cx="677.5" cy="298.5" r="3" fill="#2ca02c"/>
<circle cx="706.4" cy="303.3" r="3" fill="#2ca02c"/>
<circle cx="735.4" cy="303.2" r="3" fill="#2ca02c"/>
<circle cx="764.3" cy="302.4" r="3" fill="#2ca02c"/>
<circle cx="793.2" cy="301.3" r="3" fill="#2ca02c"/>
<circle cx="822.1" cy="303.2" r="3" fill="#2ca02c"/>
<circle cx="851.1" cy="304.0" r="3" fill="#2ca02c"/>
<circle cx="880.0" cy="301.1" r="3" fill="#2ca02c"/>
<rect x="610.0" y="358" width="10" height="10" fill="#2ca02c"/>
<text x="624.0" y="367" font-size="11" fill="#333">render compose (SkiaSharp)</text>
</svg>
