<svg xmlns="http://www.w3.org/2000/svg" width="900" height="380" viewBox="0 0 900 380" font-family="sans-serif">
<rect width="900" height="380" fill="white"/>
<text x="70" y="24" font-size="16" fill="#333">Render loop per-frame cost (ms, p50 unless noted) — 25fps budget is 40ms</text>
<line x1="70" y1="324.0" x2="880" y2="324.0" stroke="#e5e5e5"/>
<text x="64" y="328.0" font-size="11" fill="#666" text-anchor="end">0ms</text>
<line x1="70" y1="268.0" x2="880" y2="268.0" stroke="#e5e5e5"/>
<text x="64" y="272.0" font-size="11" fill="#666" text-anchor="end">74ms</text>
<line x1="70" y1="212.0" x2="880" y2="212.0" stroke="#e5e5e5"/>
<text x="64" y="216.0" font-size="11" fill="#666" text-anchor="end">148ms</text>
<line x1="70" y1="156.0" x2="880" y2="156.0" stroke="#e5e5e5"/>
<text x="64" y="160.0" font-size="11" fill="#666" text-anchor="end">222ms</text>
<line x1="70" y1="100.0" x2="880" y2="100.0" stroke="#e5e5e5"/>
<text x="64" y="104.0" font-size="11" fill="#666" text-anchor="end">296ms</text>
<line x1="70" y1="44.0" x2="880" y2="44.0" stroke="#e5e5e5"/>
<text x="64" y="48.0" font-size="11" fill="#666" text-anchor="end">369ms</text>
<line x1="70" y1="293.7" x2="880" y2="293.7" stroke="#d62728" stroke-width="1.5" stroke-dasharray="6,4"/>
<text x="876" y="288.7" font-size="11" fill="#d62728" text-anchor="end">budget 40ms</text>
<text x="70.0" y="342" font-size="11" fill="#666" text-anchor="start">07-16 16:02</text>
<text x="475.0" y="342" font-size="11" fill="#666" text-anchor="middle">07-17 16:30</text>
<text x="880.0" y="342" font-size="11" fill="#666" text-anchor="end">07-17 22:11</text>
<polyline points="228.5,213.6 298.9,137.4 316.5,205.1 334.1,203.0 351.7,219.1 369.3,92.5 387.0,219.2 404.6,133.4 422.2,222.5 439.8,217.1 457.4,80.9 475.0,207.6 492.6,213.5 510.2,64.7 527.8,193.7 545.4,201.3 563.0,177.8 580.7,221.2 633.5,217.1 651.1,216.1 668.7,207.0 686.3,207.7 703.9,214.9 721.5,199.8 739.1,219.9 756.7,209.6 774.3,210.6 792.0,229.5 809.6,162.0 827.2,215.8 844.8,236.9 862.4,198.5 880.0,230.6" fill="none" stroke="#8c564b" stroke-width="2"/>
<circle cx="228.5" cy="213.6" r="3" fill="#8c564b"/>
<circle cx="298.9" cy="137.4" r="3" fill="#8c564b"/>
<circle cx="316.5" cy="205.1" r="3" fill="#8c564b"/>
<circle cx="334.1" cy="203.0" r="3" fill="#8c564b"/>
<circle cx="351.7" cy="219.1" r="3" fill="#8c564b"/>
<circle cx="369.3" cy="92.5" r="3" fill="#8c564b"/>
<circle cx="387.0" cy="219.2" r="3" fill="#8c564b"/>
<circle cx="404.6" cy="133.4" r="3" fill="#8c564b"/>
<circle cx="422.2" cy="222.5" r="3" fill="#8c564b"/>
<circle cx="439.8" cy="217.1" r="3" fill="#8c564b"/>
<circle cx="457.4" cy="80.9" r="3" fill="#8c564b"/>
<circle cx="475.0" cy="207.6" r="3" fill="#8c564b"/>
<circle cx="492.6" cy="213.5" r="3" fill="#8c564b"/>
<circle cx="510.2" cy="64.7" r="3" fill="#8c564b"/>
<circle cx="527.8" cy="193.7" r="3" fill="#8c564b"/>
<circle cx="545.4" cy="201.3" r="3" fill="#8c564b"/>
<circle cx="563.0" cy="177.8" r="3" fill="#8c564b"/>
<circle cx="580.7" cy="221.2" r="3" fill="#8c564b"/>
<circle cx="633.5" cy="217.1" r="3" fill="#8c564b"/>
<circle cx="651.1" cy="216.1" r="3" fill="#8c564b"/>
<circle cx="668.7" cy="207.0" r="3" fill="#8c564b"/>
<circle cx="686.3" cy="207.7" r="3" fill="#8c564b"/>
<circle cx="703.9" cy="214.9" r="3" fill="#8c564b"/>
<circle cx="721.5" cy="199.8" r="3" fill="#8c564b"/>
<circle cx="739.1" cy="219.9" r="3" fill="#8c564b"/>
<circle cx="756.7" cy="209.6" r="3" fill="#8c564b"/>
<circle cx="774.3" cy="210.6" r="3" fill="#8c564b"/>
<circle cx="792.0" cy="229.5" r="3" fill="#8c564b"/>
<circle cx="809.6" cy="162.0" r="3" fill="#8c564b"/>
<circle cx="827.2" cy="215.8" r="3" fill="#8c564b"/>
<circle cx="844.8" cy="236.9" r="3" fill="#8c564b"/>
<circle cx="862.4" cy="198.5" r="3" fill="#8c564b"/>
<circle cx="880.0" cy="230.6" r="3" fill="#8c564b"/>
<rect x="70.0" y="358" width="10" height="10" fill="#8c564b"/>
<text x="84.0" y="367" font-size="11" fill="#333">render tick (p95)</text>
<polyline points="316.5,270.7 334.1,273.5 351.7,278.0 369.3,274.7 387.0,274.6 404.6,277.4 422.2,278.8 439.8,272.2 457.4,271.0 475.0,275.1 492.6,272.7 510.2,273.7 527.8,273.8 545.4,274.2 563.0,269.0 580.7,278.3 633.5,273.6 651.1,277.7 668.7,274.1 686.3,274.4 703.9,273.8 721.5,272.2 739.1,276.3 756.7,271.4 774.3,272.5 792.0,272.8 809.6,204.3 827.2,259.7 844.8,276.6 862.4,276.3 880.0,280.0" fill="none" stroke="#1f77b4" stroke-width="2"/>
<circle cx="316.5" cy="270.7" r="3" fill="#1f77b4"/>
<circle cx="334.1" cy="273.5" r="3" fill="#1f77b4"/>
<circle cx="351.7" cy="278.0" r="3" fill="#1f77b4"/>
<circle cx="369.3" cy="274.7" r="3" fill="#1f77b4"/>
<circle cx="387.0" cy="274.6" r="3" fill="#1f77b4"/>
<circle cx="404.6" cy="277.4" r="3" fill="#1f77b4"/>
<circle cx="422.2" cy="278.8" r="3" fill="#1f77b4"/>
<circle cx="439.8" cy="272.2" r="3" fill="#1f77b4"/>
<circle cx="457.4" cy="271.0" r="3" fill="#1f77b4"/>
<circle cx="475.0" cy="275.1" r="3" fill="#1f77b4"/>
<circle cx="492.6" cy="272.7" r="3" fill="#1f77b4"/>
<circle cx="510.2" cy="273.7" r="3" fill="#1f77b4"/>
<circle cx="527.8" cy="273.8" r="3" fill="#1f77b4"/>
<circle cx="545.4" cy="274.2" r="3" fill="#1f77b4"/>
<circle cx="563.0" cy="269.0" r="3" fill="#1f77b4"/>
<circle cx="580.7" cy="278.3" r="3" fill="#1f77b4"/>
<circle cx="633.5" cy="273.6" r="3" fill="#1f77b4"/>
<circle cx="651.1" cy="277.7" r="3" fill="#1f77b4"/>
<circle cx="668.7" cy="274.1" r="3" fill="#1f77b4"/>
<circle cx="686.3" cy="274.4" r="3" fill="#1f77b4"/>
<circle cx="703.9" cy="273.8" r="3" fill="#1f77b4"/>
<circle cx="721.5" cy="272.2" r="3" fill="#1f77b4"/>
<circle cx="739.1" cy="276.3" r="3" fill="#1f77b4"/>
<circle cx="756.7" cy="271.4" r="3" fill="#1f77b4"/>
<circle cx="774.3" cy="272.5" r="3" fill="#1f77b4"/>
<circle cx="792.0" cy="272.8" r="3" fill="#1f77b4"/>
<circle cx="809.6" cy="204.3" r="3" fill="#1f77b4"/>
<circle cx="827.2" cy="259.7" r="3" fill="#1f77b4"/>
<circle cx="844.8" cy="276.6" r="3" fill="#1f77b4"/>
<circle cx="862.4" cy="276.3" r="3" fill="#1f77b4"/>
<circle cx="880.0" cy="280.0" r="3" fill="#1f77b4"/>
<rect x="340.0" y="358" width="10" height="10" fill="#1f77b4"/>
<text x="354.0" y="367" font-size="11" fill="#333">render mouth (wav2lip)</text>
<polyline points="316.5,299.0 334.1,302.7 351.7,304.1 369.3,302.4 387.0,301.0 404.6,304.1 422.2,304.4 439.8,298.5 457.4,303.3 475.0,303.2 492.6,302.4 510.2,301.3 527.8,303.2 545.4,304.0 563.0,301.1 580.7,304.4 633.5,302.9 651.1,303.5 668.7,301.9 686.3,301.6 703.9,302.2 721.5,301.3 739.1,303.1 756.7,299.4 774.3,302.2 792.0,303.5 809.6,304.8 827.2,305.8 844.8,304.8 862.4,302.4 880.0,304.8" fill="none" stroke="#2ca02c" stroke-width="2"/>
<circle cx="316.5" cy="299.0" r="3" fill="#2ca02c"/>
<circle cx="334.1" cy="302.7" r="3" fill="#2ca02c"/>
<circle cx="351.7" cy="304.1" r="3" fill="#2ca02c"/>
<circle cx="369.3" cy="302.4" r="3" fill="#2ca02c"/>
<circle cx="387.0" cy="301.0" r="3" fill="#2ca02c"/>
<circle cx="404.6" cy="304.1" r="3" fill="#2ca02c"/>
<circle cx="422.2" cy="304.4" r="3" fill="#2ca02c"/>
<circle cx="439.8" cy="298.5" r="3" fill="#2ca02c"/>
<circle cx="457.4" cy="303.3" r="3" fill="#2ca02c"/>
<circle cx="475.0" cy="303.2" r="3" fill="#2ca02c"/>
<circle cx="492.6" cy="302.4" r="3" fill="#2ca02c"/>
<circle cx="510.2" cy="301.3" r="3" fill="#2ca02c"/>
<circle cx="527.8" cy="303.2" r="3" fill="#2ca02c"/>
<circle cx="545.4" cy="304.0" r="3" fill="#2ca02c"/>
<circle cx="563.0" cy="301.1" r="3" fill="#2ca02c"/>
<circle cx="580.7" cy="304.4" r="3" fill="#2ca02c"/>
<circle cx="633.5" cy="302.9" r="3" fill="#2ca02c"/>
<circle cx="651.1" cy="303.5" r="3" fill="#2ca02c"/>
<circle cx="668.7" cy="301.9" r="3" fill="#2ca02c"/>
<circle cx="686.3" cy="301.6" r="3" fill="#2ca02c"/>
<circle cx="703.9" cy="302.2" r="3" fill="#2ca02c"/>
<circle cx="721.5" cy="301.3" r="3" fill="#2ca02c"/>
<circle cx="739.1" cy="303.1" r="3" fill="#2ca02c"/>
<circle cx="756.7" cy="299.4" r="3" fill="#2ca02c"/>
<circle cx="774.3" cy="302.2" r="3" fill="#2ca02c"/>
<circle cx="792.0" cy="303.5" r="3" fill="#2ca02c"/>
<circle cx="809.6" cy="304.8" r="3" fill="#2ca02c"/>
<circle cx="827.2" cy="305.8" r="3" fill="#2ca02c"/>
<circle cx="844.8" cy="304.8" r="3" fill="#2ca02c"/>
<circle cx="862.4" cy="302.4" r="3" fill="#2ca02c"/>
<circle cx="880.0" cy="304.8" r="3" fill="#2ca02c"/>
<rect x="610.0" y="358" width="10" height="10" fill="#2ca02c"/>
<text x="624.0" y="367" font-size="11" fill="#333">render compose (SkiaSharp)</text>
</svg>
