<svg xmlns="http://www.w3.org/2000/svg" width="900" height="380" viewBox="0 0 900 380" font-family="sans-serif">
<rect width="900" height="380" fill="white"/>
<text x="70" y="24" font-size="16" fill="#333">Render loop per-frame cost (ms, p50 unless noted) — 25fps budget is 40ms</text>
<line x1="70" y1="324.0" x2="880" y2="324.0" stroke="#e5e5e5"/>
<text x="64" y="328.0" font-size="11" fill="#666" text-anchor="end">0ms</text>
<line x1="70" y1="268.0" x2="880" y2="268.0" stroke="#e5e5e5"/>
<text x="64" y="272.0" font-size="11" fill="#666" text-anchor="end">74ms</text>
<line x1="70" y1="212.0" x2="880" y2="212.0" stroke="#e5e5e5"/>
<text x="64" y="216.0" font-size="11" fill="#666" text-anchor="end">148ms</text>
<line x1="70" y1="156.0" x2="880" y2="156.0" stroke="#e5e5e5"/>
<text x="64" y="160.0" font-size="11" fill="#666" text-anchor="end">222ms</text>
<line x1="70" y1="100.0" x2="880" y2="100.0" stroke="#e5e5e5"/>
<text x="64" y="104.0" font-size="11" fill="#666" text-anchor="end">296ms</text>
<line x1="70" y1="44.0" x2="880" y2="44.0" stroke="#e5e5e5"/>
<text x="64" y="48.0" font-size="11" fill="#666" text-anchor="end">369ms</text>
<line x1="70" y1="293.7" x2="880" y2="293.7" stroke="#d62728" stroke-width="1.5" stroke-dasharray="6,4"/>
<text x="876" y="288.7" font-size="11" fill="#d62728" text-anchor="end">budget 40ms</text>
<text x="70.0" y="342" font-size="11" fill="#666" text-anchor="start">07-16 16:02</text>
<text x="482.6" y="342" font-size="11" fill="#666" text-anchor="middle">07-17 19:01</text>
<text x="880.0" y="342" font-size="11" fill="#666" text-anchor="end">07-18 08:44</text>
<polyline points="207.5,213.6 268.7,137.4 284.0,205.1 299.2,203.0 314.5,219.1 329.8,92.5 345.1,219.2 360.4,133.4 375.7,222.5 390.9,217.1 406.2,80.9 421.5,207.6 436.8,213.5 452.1,64.7 467.4,193.7 482.6,201.3 497.9,177.8 513.2,221.2 559.1,217.1 574.3,216.1 589.6,207.0 604.9,207.7 620.2,214.9 635.5,199.8 650.8,219.9 666.0,209.6 681.3,210.6 696.6,229.5 711.9,162.0 727.2,215.8 742.5,236.9 757.7,198.5 773.0,230.6 788.3,225.5 803.6,251.0 818.9,250.8 834.2,208.3 849.4,225.5 864.7,220.7 880.0,238.3" fill="none" stroke="#8c564b" stroke-width="2"/>
<circle cx="207.5" cy="213.6" r="3" fill="#8c564b"/>
<circle cx="268.7" cy="137.4" r="3" fill="#8c564b"/>
<circle cx="284.0" cy="205.1" r="3" fill="#8c564b"/>
<circle cx="299.2" cy="203.0" r="3" fill="#8c564b"/>
<circle cx="314.5" cy="219.1" r="3" fill="#8c564b"/>
<circle cx="329.8" cy="92.5" r="3" fill="#8c564b"/>
<circle cx="345.1" cy="219.2" r="3" fill="#8c564b"/>
<circle cx="360.4" cy="133.4" r="3" fill="#8c564b"/>
<circle cx="375.7" cy="222.5" r="3" fill="#8c564b"/>
<circle cx="390.9" cy="217.1" r="3" fill="#8c564b"/>
<circle cx="406.2" cy="80.9" r="3" fill="#8c564b"/>
<circle cx="421.5" cy="207.6" r="3" fill="#8c564b"/>
<circle cx="436.8" cy="213.5" r="3" fill="#8c564b"/>
<circle cx="452.1" cy="64.7" r="3" fill="#8c564b"/>
<circle cx="467.4" cy="193.7" r="3" fill="#8c564b"/>
<circle cx="482.6" cy="201.3" r="3" fill="#8c564b"/>
<circle cx="497.9" cy="177.8" r="3" fill="#8c564b"/>
<circle cx="513.2" cy="221.2" r="3" fill="#8c564b"/>
<circle cx="559.1" cy="217.1" r="3" fill="#8c564b"/>
<circle cx="574.3" cy="216.1" r="3" fill="#8c564b"/>
<circle cx="589.6" cy="207.0" r="3" fill="#8c564b"/>
<circle cx="604.9" cy="207.7" r="3" fill="#8c564b"/>
<circle cx="620.2" cy="214.9" r="3" fill="#8c564b"/>
<circle cx="635.5" cy="199.8" r="3" fill="#8c564b"/>
<circle cx="650.8" cy="219.9" r="3" fill="#8c564b"/>
<circle cx="666.0" cy="209.6" r="3" fill="#8c564b"/>
<circle cx="681.3" cy="210.6" r="3" fill="#8c564b"/>
<circle cx="696.6" cy="229.5" r="3" fill="#8c564b"/>
<circle cx="711.9" cy="162.0" r="3" fill="#8c564b"/>
<circle cx="727.2" cy="215.8" r="3" fill="#8c564b"/>
<circle cx="742.5" cy="236.9" r="3" fill="#8c564b"/>
<circle cx="757.7" cy="198.5" r="3" fill="#8c564b"/>
<circle cx="773.0" cy="230.6" r="3" fill="#8c564b"/>
<circle cx="788.3" cy="225.5" r="3" fill="#8c564b"/>
<circle cx="803.6" cy="251.0" r="3" fill="#8c564b"/>
<circle cx="818.9" cy="250.8" r="3" fill="#8c564b"/>
<circle cx="834.2" cy="208.3" r="3" fill="#8c564b"/>
<circle cx="849.4" cy="225.5" r="3" fill="#8c564b"/>
<circle cx="864.7" cy="220.7" r="3" fill="#8c564b"/>
<circle cx="880.0" cy="238.3" r="3" fill="#8c564b"/>
<rect x="70.0" y="358" width="10" height="10" fill="#8c564b"/>
<text x="84.0" y="367" font-size="11" fill="#333">render tick (p95)</text>
<polyline points="284.0,270.7 299.2,273.5 314.5,278.0 329.8,274.7 345.1,274.6 360.4,277.4 375.7,278.8 390.9,272.2 406.2,271.0 421.5,275.1 436.8,272.7 452.1,273.7 467.4,273.8 482.6,274.2 497.9,269.0 513.2,278.3 559.1,273.6 574.3,277.7 589.6,274.1 604.9,274.4 620.2,273.8 635.5,272.2 650.8,276.3 666.0,271.4 681.3,272.5 696.6,272.8 711.9,204.3 727.2,259.7 742.5,276.6 757.7,276.3 773.0,280.0 788.3,280.2 803.6,324.0 818.9,324.0 834.2,254.4 849.4,273.6 864.7,324.0 880.0,324.0" fill="none" stroke="#1f77b4" stroke-width="2"/>
<circle cx="284.0" cy="270.7" r="3" fill="#1f77b4"/>
<circle cx="299.2" cy="273.5" r="3" fill="#1f77b4"/>
<circle cx="314.5" cy="278.0" r="3" fill="#1f77b4"/>
<circle cx="329.8" cy="274.7" r="3" fill="#1f77b4"/>
<circle cx="345.1" cy="274.6" r="3" fill="#1f77b4"/>
<circle cx="360.4" cy="277.4" r="3" fill="#1f77b4"/>
<circle cx="375.7" cy="278.8" r="3" fill="#1f77b4"/>
<circle cx="390.9" cy="272.2" r="3" fill="#1f77b4"/>
<circle cx="406.2" cy="271.0" r="3" fill="#1f77b4"/>
<circle cx="421.5" cy="275.1" r="3" fill="#1f77b4"/>
<circle cx="436.8" cy="272.7" r="3" fill="#1f77b4"/>
<circle cx="452.1" cy="273.7" r="3" fill="#1f77b4"/>
<circle cx="467.4" cy="273.8" r="3" fill="#1f77b4"/>
<circle cx="482.6" cy="274.2" r="3" fill="#1f77b4"/>
<circle cx="497.9" cy="269.0" r="3" fill="#1f77b4"/>
<circle cx="513.2" cy="278.3" r="3" fill="#1f77b4"/>
<circle cx="559.1" cy="273.6" r="3" fill="#1f77b4"/>
<circle cx="574.3" cy="277.7" r="3" fill="#1f77b4"/>
<circle cx="589.6" cy="274.1" r="3" fill="#1f77b4"/>
<circle cx="604.9" cy="274.4" r="3" fill="#1f77b4"/>
<circle cx="620.2" cy="273.8" r="3" fill="#1f77b4"/>
<circle cx="635.5" cy="272.2" r="3" fill="#1f77b4"/>
<circle cx="650.8" cy="276.3" r="3" fill="#1f77b4"/>
<circle cx="666.0" cy="271.4" r="3" fill="#1f77b4"/>
<circle cx="681.3" cy="272.5" r="3" fill="#1f77b4"/>
<circle cx="696.6" cy="272.8" r="3" fill="#1f77b4"/>
<circle cx="711.9" cy="204.3" r="3" fill="#1f77b4"/>
<circle cx="727.2" cy="259.7" r="3" fill="#1f77b4"/>
<circle cx="742.5" cy="276.6" r="3" fill="#1f77b4"/>
<circle cx="757.7" cy="276.3" r="3" fill="#1f77b4"/>
<circle cx="773.0" cy="280.0" r="3" fill="#1f77b4"/>
<circle cx="788.3" cy="280.2" r="3" fill="#1f77b4"/>
<circle cx="803.6" cy="324.0" r="3" fill="#1f77b4"/>
<circle cx="818.9" cy="324.0" r="3" fill="#1f77b4"/>
<circle cx="834.2" cy="254.4" r="3" fill="#1f77b4"/>
<circle cx="849.4" cy="273.6" r="3" fill="#1f77b4"/>
<circle cx="864.7" cy="324.0" r="3" fill="#1f77b4"/>
<circle cx="880.0" cy="324.0" r="3" fill="#1f77b4"/>
<rect x="340.0" y="358" width="10" height="10" fill="#1f77b4"/>
<text x="354.0" y="367" font-size="11" fill="#333">render mouth (wav2lip)</text>
<polyline points="284.0,299.0 299.2,302.7 314.5,304.1 329.8,302.4 345.1,301.0 360.4,304.1 375.7,304.4 390.9,298.5 406.2,303.3 421.5,303.2 436.8,302.4 452.1,301.3 467.4,303.2 482.6,304.0 497.9,301.1 513.2,304.4 559.1,302.9 574.3,303.5 589.6,301.9 604.9,301.6 620.2,302.2 635.5,301.3 650.8,303.1 666.0,299.4 681.3,302.2 696.6,303.5 711.9,304.8 727.2,305.8 742.5,304.8 757.7,302.4 773.0,304.8 788.3,304.6 803.6,305.6 818.9,305.9 834.2,306.5 849.4,303.6 864.7,303.1 880.0,304.0" fill="none" stroke="#2ca02c" stroke-width="2"/>
<circle cx="284.0" cy="299.0" r="3" fill="#2ca02c"/>
<circle cx="299.2" cy="302.7" r="3" fill="#2ca02c"/>
<circle cx="314.5" cy="304.1" r="3" fill="#2ca02c"/>
<circle cx="329.8" cy="302.4" r="3" fill="#2ca02c"/>
<circle cx="345.1" cy="301.0" r="3" fill="#2ca02c"/>
<circle cx="360.4" cy="304.1" r="3" fill="#2ca02c"/>
<circle cx="375.7" cy="304.4" r="3" fill="#2ca02c"/>
<circle cx="390.9" cy="298.5" r="3" fill="#2ca02c"/>
<circle cx="406.2" cy="303.3" r="3" fill="#2ca02c"/>
<circle cx="421.5" cy="303.2" r="3" fill="#2ca02c"/>
<circle cx="436.8" cy="302.4" r="3" fill="#2ca02c"/>
<circle cx="452.1" cy="301.3" r="3" fill="#2ca02c"/>
<circle cx="467.4" cy="303.2" r="3" fill="#2ca02c"/>
<circle cx="482.6" cy="304.0" r="3" fill="#2ca02c"/>
<circle cx="497.9" cy="301.1" r="3" fill="#2ca02c"/>
<circle cx="513.2" cy="304.4" r="3" fill="#2ca02c"/>
<circle cx="559.1" cy="302.9" r="3" fill="#2ca02c"/>
<circle cx="574.3" cy="303.5" r="3" fill="#2ca02c"/>
<circle cx="589.6" cy="301.9" r="3" fill="#2ca02c"/>
<circle cx="604.9" cy="301.6" r="3" fill="#2ca02c"/>
<circle cx="620.2" cy="302.2" r="3" fill="#2ca02c"/>
<circle cx="635.5" cy="301.3" r="3" fill="#2ca02c"/>
<circle cx="650.8" cy="303.1" r="3" fill="#2ca02c"/>
<circle cx="666.0" cy="299.4" r="3" fill="#2ca02c"/>
<circle cx="681.3" cy="302.2" r="3" fill="#2ca02c"/>
<circle cx="696.6" cy="303.5" r="3" fill="#2ca02c"/>
<circle cx="711.9" cy="304.8" r="3" fill="#2ca02c"/>
<circle cx="727.2" cy="305.8" r="3" fill="#2ca02c"/>
<circle cx="742.5" cy="304.8" r="3" fill="#2ca02c"/>
<circle cx="757.7" cy="302.4" r="3" fill="#2ca02c"/>
<circle cx="773.0" cy="304.8" r="3" fill="#2ca02c"/>
<circle cx="788.3" cy="304.6" r="3" fill="#2ca02c"/>
<circle cx="803.6" cy="305.6" r="3" fill="#2ca02c"/>
<circle cx="818.9" cy="305.9" r="3" fill="#2ca02c"/>
<circle cx="834.2" cy="306.5" r="3" fill="#2ca02c"/>
<circle cx="849.4" cy="303.6" r="3" fill="#2ca02c"/>
<circle cx="864.7" cy="303.1" r="3" fill="#2ca02c"/>
<circle cx="880.0" cy="304.0" r="3" fill="#2ca02c"/>
<rect x="610.0" y="358" width="10" height="10" fill="#2ca02c"/>
<text x="624.0" y="367" font-size="11" fill="#333">render compose (SkiaSharp)</text>
</svg>
