<svg xmlns="http://www.w3.org/2000/svg" width="900" height="380" viewBox="0 0 900 380" font-family="sans-serif">
<rect width="900" height="380" fill="white"/>
<text x="70" y="24" font-size="16" fill="#333">Render loop per-frame cost (ms, p50 unless noted) — 25fps budget is 40ms</text>
<line x1="70" y1="324.0" x2="880" y2="324.0" stroke="#e5e5e5"/>
<text x="64" y="328.0" font-size="11" fill="#666" text-anchor="end">0ms</text>
<line x1="70" y1="268.0" x2="880" y2="268.0" stroke="#e5e5e5"/>
<text x="64" y="272.0" font-size="11" fill="#666" text-anchor="end">74ms</text>
<line x1="70" y1="212.0" x2="880" y2="212.0" stroke="#e5e5e5"/>
<text x="64" y="216.0" font-size="11" fill="#666" text-anchor="end">148ms</text>
<line x1="70" y1="156.0" x2="880" y2="156.0" stroke="#e5e5e5"/>
<text x="64" y="160.0" font-size="11" fill="#666" text-anchor="end">222ms</text>
<line x1="70" y1="100.0" x2="880" y2="100.0" stroke="#e5e5e5"/>
<text x="64" y="104.0" font-size="11" fill="#666" text-anchor="end">296ms</text>
<line x1="70" y1="44.0" x2="880" y2="44.0" stroke="#e5e5e5"/>
<text x="64" y="48.0" font-size="11" fill="#666" text-anchor="end">369ms</text>
<line x1="70" y1="293.7" x2="880" y2="293.7" stroke="#d62728" stroke-width="1.5" stroke-dasharray="6,4"/>
<text x="876" y="288.7" font-size="11" fill="#d62728" text-anchor="end">budget 40ms</text>
<text x="70.0" y="342" font-size="11" fill="#666" text-anchor="start">07-16 16:02</text>
<text x="475.0" y="342" font-size="11" fill="#666" text-anchor="middle">07-17 13:17</text>
<text x="880.0" y="342" font-size="11" fill="#666" text-anchor="end">07-17 19:42</text>
<polyline points="313.0,213.6 421.0,137.4 448.0,205.1 475.0,203.0 502.0,219.1 529.0,92.5 556.0,219.2 583.0,133.4 610.0,222.5 637.0,217.1 664.0,80.9 691.0,207.6 718.0,213.5 745.0,64.7 772.0,193.7 799.0,201.3 826.0,177.8 853.0,221.2" fill="none" stroke="#8c564b" stroke-width="2"/>
<circle cx="313.0" cy="213.6" r="3" fill="#8c564b"/>
<circle cx="421.0" cy="137.4" r="3" fill="#8c564b"/>
<circle cx="448.0" cy="205.1" r="3" fill="#8c564b"/>
<circle cx="475.0" cy="203.0" r="3" fill="#8c564b"/>
<circle cx="502.0" cy="219.1" r="3" fill="#8c564b"/>
<circle cx="529.0" cy="92.5" r="3" fill="#8c564b"/>
<circle cx="556.0" cy="219.2" r="3" fill="#8c564b"/>
<circle cx="583.0" cy="133.4" r="3" fill="#8c564b"/>
<circle cx="610.0" cy="222.5" r="3" fill="#8c564b"/>
<circle cx="637.0" cy="217.1" r="3" fill="#8c564b"/>
<circle cx="664.0" cy="80.9" r="3" fill="#8c564b"/>
<circle cx="691.0" cy="207.6" r="3" fill="#8c564b"/>
<circle cx="718.0" cy="213.5" r="3" fill="#8c564b"/>
<circle cx="745.0" cy="64.7" r="3" fill="#8c564b"/>
<circle cx="772.0" cy="193.7" r="3" fill="#8c564b"/>
<circle cx="799.0" cy="201.3" r="3" fill="#8c564b"/>
<circle cx="826.0" cy="177.8" r="3" fill="#8c564b"/>
<circle cx="853.0" cy="221.2" r="3" fill="#8c564b"/>
<rect x="70.0" y="358" width="10" height="10" fill="#8c564b"/>
<text x="84.0" y="367" font-size="11" fill="#333">render tick (p95)</text>
<polyline points="448.0,270.7 475.0,273.5 502.0,278.0 529.0,274.7 556.0,274.6 583.0,277.4 610.0,278.8 637.0,272.2 664.0,271.0 691.0,275.1 718.0,272.7 745.0,273.7 772.0,273.8 799.0,274.2 826.0,269.0 853.0,278.3" fill="none" stroke="#1f77b4" stroke-width="2"/>
<circle cx="448.0" cy="270.7" r="3" fill="#1f77b4"/>
<circle cx="475.0" cy="273.5" r="3" fill="#1f77b4"/>
<circle cx="502.0" cy="278.0" r="3" fill="#1f77b4"/>
<circle cx="529.0" cy="274.7" r="3" fill="#1f77b4"/>
<circle cx="556.0" cy="274.6" r="3" fill="#1f77b4"/>
<circle cx="583.0" cy="277.4" r="3" fill="#1f77b4"/>
<circle cx="610.0" cy="278.8" r="3" fill="#1f77b4"/>
<circle cx="637.0" cy="272.2" r="3" fill="#1f77b4"/>
<circle cx="664.0" cy="271.0" r="3" fill="#1f77b4"/>
<circle cx="691.0" cy="275.1" r="3" fill="#1f77b4"/>
<circle cx="718.0" cy="272.7" r="3" fill="#1f77b4"/>
<circle cx="745.0" cy="273.7" r="3" fill="#1f77b4"/>
<circle cx="772.0" cy="273.8" r="3" fill="#1f77b4"/>
<circle cx="799.0" cy="274.2" r="3" fill="#1f77b4"/>
<circle cx="826.0" cy="269.0" r="3" fill="#1f77b4"/>
<circle cx="853.0" cy="278.3" r="3" fill="#1f77b4"/>
<rect x="340.0" y="358" width="10" height="10" fill="#1f77b4"/>
<text x="354.0" y="367" font-size="11" fill="#333">render mouth (wav2lip)</text>
<polyline points="448.0,299.0 475.0,302.7 502.0,304.1 529.0,302.4 556.0,301.0 583.0,304.1 610.0,304.4 637.0,298.5 664.0,303.3 691.0,303.2 718.0,302.4 745.0,301.3 772.0,303.2 799.0,304.0 826.0,301.1 853.0,304.4" fill="none" stroke="#2ca02c" stroke-width="2"/>
<circle cx="448.0" cy="299.0" r="3" fill="#2ca02c"/>
<circle cx="475.0" cy="302.7" r="3" fill="#2ca02c"/>
<circle cx="502.0" cy="304.1" r="3" fill="#2ca02c"/>
<circle cx="529.0" cy="302.4" r="3" fill="#2ca02c"/>
<circle cx="556.0" cy="301.0" r="3" fill="#2ca02c"/>
<circle cx="583.0" cy="304.1" r="3" fill="#2ca02c"/>
<circle cx="610.0" cy="304.4" r="3" fill="#2ca02c"/>
<circle cx="637.0" cy="298.5" r="3" fill="#2ca02c"/>
<circle cx="664.0" cy="303.3" r="3" fill="#2ca02c"/>
<circle cx="691.0" cy="303.2" r="3" fill="#2ca02c"/>
<circle cx="718.0" cy="302.4" r="3" fill="#2ca02c"/>
<circle cx="745.0" cy="301.3" r="3" fill="#2ca02c"/>
<circle cx="772.0" cy="303.2" r="3" fill="#2ca02c"/>
<circle cx="799.0" cy="304.0" r="3" fill="#2ca02c"/>
<circle cx="826.0" cy="301.1" r="3" fill="#2ca02c"/>
<circle cx="853.0" cy="304.4" r="3" fill="#2ca02c"/>
<rect x="610.0" y="358" width="10" height="10" fill="#2ca02c"/>
<text x="624.0" y="367" font-size="11" fill="#333">render compose (SkiaSharp)</text>
</svg>
