<svg xmlns="http://www.w3.org/2000/svg" width="900" height="380" viewBox="0 0 900 380" font-family="sans-serif">
<rect width="900" height="380" fill="white"/>
<text x="70" y="24" font-size="16" fill="#333">Render loop per-frame cost (ms, p50 unless noted) — 25fps budget is 40ms</text>
<line x1="70" y1="324.0" x2="880" y2="324.0" stroke="#e5e5e5"/>
<text x="64" y="328.0" font-size="11" fill="#666" text-anchor="end">0ms</text>
<line x1="70" y1="268.0" x2="880" y2="268.0" stroke="#e5e5e5"/>
<text x="64" y="272.0" font-size="11" fill="#666" text-anchor="end">66ms</text>
<line x1="70" y1="212.0" x2="880" y2="212.0" stroke="#e5e5e5"/>
<text x="64" y="216.0" font-size="11" fill="#666" text-anchor="end">132ms</text>
<line x1="70" y1="156.0" x2="880" y2="156.0" stroke="#e5e5e5"/>
<text x="64" y="160.0" font-size="11" fill="#666" text-anchor="end">198ms</text>
<line x1="70" y1="100.0" x2="880" y2="100.0" stroke="#e5e5e5"/>
<text x="64" y="104.0" font-size="11" fill="#666" text-anchor="end">264ms</text>
<line x1="70" y1="44.0" x2="880" y2="44.0" stroke="#e5e5e5"/>
<text x="64" y="48.0" font-size="11" fill="#666" text-anchor="end">330ms</text>
<line x1="70" y1="290.1" x2="880" y2="290.1" stroke="#d62728" stroke-width="1.5" stroke-dasharray="6,4"/>
<text x="876" y="285.1" font-size="11" fill="#d62728" text-anchor="end">budget 40ms</text>
<text x="70.0" y="342" font-size="11" fill="#666" text-anchor="start">07-16 16:02</text>
<text x="496.3" y="342" font-size="11" fill="#666" text-anchor="middle">07-16 22:30</text>
<text x="880.0" y="342" font-size="11" fill="#666" text-anchor="end">07-17 14:55</text>
<polyline points="453.7,200.4 624.2,115.1 666.8,190.8 709.5,188.6 752.1,206.5 794.7,64.7 837.4,206.6 880.0,110.6" fill="none" stroke="#8c564b" stroke-width="2"/>
<circle cx="453.7" cy="200.4" r="3" fill="#8c564b"/>
<circle cx="624.2" cy="115.1" r="3" fill="#8c564b"/>
<circle cx="666.8" cy="190.8" r="3" fill="#8c564b"/>
<circle cx="709.5" cy="188.6" r="3" fill="#8c564b"/>
<circle cx="752.1" cy="206.5" r="3" fill="#8c564b"/>
<circle cx="794.7" cy="64.7" r="3" fill="#8c564b"/>
<circle cx="837.4" cy="206.6" r="3" fill="#8c564b"/>
<circle cx="880.0" cy="110.6" r="3" fill="#8c564b"/>
<rect x="70.0" y="358" width="10" height="10" fill="#8c564b"/>
<text x="84.0" y="367" font-size="11" fill="#333">render tick (p95)</text>
<polyline points="666.8,264.3 709.5,267.4 752.1,272.5 794.7,268.8 837.4,268.7 880.0,271.8" fill="none" stroke="#1f77b4" stroke-width="2"/>
<circle cx="666.8" cy="264.3" r="3" fill="#1f77b4"/>
<circle cx="709.5" cy="267.4" r="3" fill="#1f77b4"/>
<circle cx="752.1" cy="272.5" r="3" fill="#1f77b4"/>
<circle cx="794.7" cy="268.8" r="3" fill="#1f77b4"/>
<circle cx="837.4" cy="268.7" r="3" fill="#1f77b4"/>
<circle cx="880.0" cy="271.8" r="3" fill="#1f77b4"/>
<rect x="340.0" y="358" width="10" height="10" fill="#1f77b4"/>
<text x="354.0" y="367" font-size="11" fill="#333">render mouth (wav2lip)</text>
<polyline points="666.8,296.0 709.5,300.2 752.1,301.8 794.7,299.8 837.4,298.2 880.0,301.8" fill="none" stroke="#2ca02c" stroke-width="2"/>
<circle cx="666.8" cy="296.0" r="3" fill="#2ca02c"/>
<circle cx="709.5" cy="300.2" r="3" fill="#2ca02c"/>
<circle cx="752.1" cy="301.8" r="3" fill="#2ca02c"/>
<circle cx="794.7" cy="299.8" r="3" fill="#2ca02c"/>
<circle cx="837.4" cy="298.2" r="3" fill="#2ca02c"/>
<circle cx="880.0" cy="301.8" r="3" fill="#2ca02c"/>
<rect x="610.0" y="358" width="10" height="10" fill="#2ca02c"/>
<text x="624.0" y="367" font-size="11" fill="#333">render compose (SkiaSharp)</text>
</svg>
