<svg xmlns="http://www.w3.org/2000/svg" width="900" height="380" viewBox="0 0 900 380" font-family="sans-serif">
<rect width="900" height="380" fill="white"/>
<text x="70" y="24" font-size="16" fill="#333">Render loop per-frame cost (ms, p50 unless noted) — 25fps budget is 40ms</text>
<line x1="70" y1="324.0" x2="880" y2="324.0" stroke="#e5e5e5"/>
<text x="64" y="328.0" font-size="11" fill="#666" text-anchor="end">0ms</text>
<line x1="70" y1="268.0" x2="880" y2="268.0" stroke="#e5e5e5"/>
<text x="64" y="272.0" font-size="11" fill="#666" text-anchor="end">74ms</text>
<line x1="70" y1="212.0" x2="880" y2="212.0" stroke="#e5e5e5"/>
<text x="64" y="216.0" font-size="11" fill="#666" text-anchor="end">148ms</text>
<line x1="70" y1="156.0" x2="880" y2="156.0" stroke="#e5e5e5"/>
<text x="64" y="160.0" font-size="11" fill="#666" text-anchor="end">222ms</text>
<line x1="70" y1="100.0" x2="880" y2="100.0" stroke="#e5e5e5"/>
<text x="64" y="104.0" font-size="11" fill="#666" text-anchor="end">296ms</text>
<line x1="70" y1="44.0" x2="880" y2="44.0" stroke="#e5e5e5"/>
<text x="64" y="48.0" font-size="11" fill="#666" text-anchor="end">369ms</text>
<line x1="70" y1="293.7" x2="880" y2="293.7" stroke="#d62728" stroke-width="1.5" stroke-dasharray="6,4"/>
<text x="876" y="288.7" font-size="11" fill="#d62728" text-anchor="end">budget 40ms</text>
<text x="70.0" y="342" font-size="11" fill="#666" text-anchor="start">07-16 16:02</text>
<text x="482.1" y="342" font-size="11" fill="#666" text-anchor="middle">07-17 19:27</text>
<text x="880.0" y="342" font-size="11" fill="#666" text-anchor="end">07-18 18:25</text>
<polyline points="197.9,213.6 254.7,137.4 268.9,205.1 283.2,203.0 297.4,219.1 311.6,92.5 325.8,219.2 340.0,133.4 354.2,222.5 368.4,217.1 382.6,80.9 396.8,207.6 411.1,213.5 425.3,64.7 439.5,193.7 453.7,201.3 467.9,177.8 482.1,221.2 524.7,217.1 538.9,216.1 553.2,207.0 567.4,207.7 581.6,214.9 595.8,199.8 610.0,219.9 624.2,209.6 638.4,210.6 652.6,229.5 666.8,162.0 681.1,215.8 695.3,236.9 709.5,198.5 723.7,230.6 737.9,225.5 752.1,251.0 766.3,250.8 780.5,208.3 794.7,225.5 808.9,220.7 823.2,238.3 837.4,178.7 851.6,234.2 865.8,237.8 880.0,220.8" fill="none" stroke="#8c564b" stroke-width="2"/>
<circle cx="197.9" cy="213.6" r="3" fill="#8c564b"/>
<circle cx="254.7" cy="137.4" r="3" fill="#8c564b"/>
<circle cx="268.9" cy="205.1" r="3" fill="#8c564b"/>
<circle cx="283.2" cy="203.0" r="3" fill="#8c564b"/>
<circle cx="297.4" cy="219.1" r="3" fill="#8c564b"/>
<circle cx="311.6" cy="92.5" r="3" fill="#8c564b"/>
<circle cx="325.8" cy="219.2" r="3" fill="#8c564b"/>
<circle cx="340.0" cy="133.4" r="3" fill="#8c564b"/>
<circle cx="354.2" cy="222.5" r="3" fill="#8c564b"/>
<circle cx="368.4" cy="217.1" r="3" fill="#8c564b"/>
<circle cx="382.6" cy="80.9" r="3" fill="#8c564b"/>
<circle cx="396.8" cy="207.6" r="3" fill="#8c564b"/>
<circle cx="411.1" cy="213.5" r="3" fill="#8c564b"/>
<circle cx="425.3" cy="64.7" r="3" fill="#8c564b"/>
<circle cx="439.5" cy="193.7" r="3" fill="#8c564b"/>
<circle cx="453.7" cy="201.3" r="3" fill="#8c564b"/>
<circle cx="467.9" cy="177.8" r="3" fill="#8c564b"/>
<circle cx="482.1" cy="221.2" r="3" fill="#8c564b"/>
<circle cx="524.7" cy="217.1" r="3" fill="#8c564b"/>
<circle cx="538.9" cy="216.1" r="3" fill="#8c564b"/>
<circle cx="553.2" cy="207.0" r="3" fill="#8c564b"/>
<circle cx="567.4" cy="207.7" r="3" fill="#8c564b"/>
<circle cx="581.6" cy="214.9" r="3" fill="#8c564b"/>
<circle cx="595.8" cy="199.8" r="3" fill="#8c564b"/>
<circle cx="610.0" cy="219.9" r="3" fill="#8c564b"/>
<circle cx="624.2" cy="209.6" r="3" fill="#8c564b"/>
<circle cx="638.4" cy="210.6" r="3" fill="#8c564b"/>
<circle cx="652.6" cy="229.5" r="3" fill="#8c564b"/>
<circle cx="666.8" cy="162.0" r="3" fill="#8c564b"/>
<circle cx="681.1" cy="215.8" r="3" fill="#8c564b"/>
<circle cx="695.3" cy="236.9" r="3" fill="#8c564b"/>
<circle cx="709.5" cy="198.5" r="3" fill="#8c564b"/>
<circle cx="723.7" cy="230.6" r="3" fill="#8c564b"/>
<circle cx="737.9" cy="225.5" r="3" fill="#8c564b"/>
<circle cx="752.1" cy="251.0" r="3" fill="#8c564b"/>
<circle cx="766.3" cy="250.8" r="3" fill="#8c564b"/>
<circle cx="780.5" cy="208.3" r="3" fill="#8c564b"/>
<circle cx="794.7" cy="225.5" r="3" fill="#8c564b"/>
<circle cx="808.9" cy="220.7" r="3" fill="#8c564b"/>
<circle cx="823.2" cy="238.3" r="3" fill="#8c564b"/>
<circle cx="837.4" cy="178.7" r="3" fill="#8c564b"/>
<circle cx="851.6" cy="234.2" r="3" fill="#8c564b"/>
<circle cx="865.8" cy="237.8" r="3" fill="#8c564b"/>
<circle cx="880.0" cy="220.8" r="3" fill="#8c564b"/>
<rect x="70.0" y="358" width="10" height="10" fill="#8c564b"/>
<text x="84.0" y="367" font-size="11" fill="#333">render tick (p95)</text>
<polyline points="268.9,270.7 283.2,273.5 297.4,278.0 311.6,274.7 325.8,274.6 340.0,277.4 354.2,278.8 368.4,272.2 382.6,271.0 396.8,275.1 411.1,272.7 425.3,273.7 439.5,273.8 453.7,274.2 467.9,269.0 482.1,278.3 524.7,273.6 538.9,277.7 553.2,274.1 567.4,274.4 581.6,273.8 595.8,272.2 610.0,276.3 624.2,271.4 638.4,272.5 652.6,272.8 666.8,204.3 681.1,259.7 695.3,276.6 709.5,276.3 723.7,280.0 737.9,280.2 752.1,324.0 766.3,324.0 780.5,254.4 794.7,273.6 808.9,324.0 823.2,324.0 837.4,268.1 851.6,272.8 865.8,324.0 880.0,270.7" fill="none" stroke="#1f77b4" stroke-width="2"/>
<circle cx="268.9" cy="270.7" r="3" fill="#1f77b4"/>
<circle cx="283.2" cy="273.5" r="3" fill="#1f77b4"/>
<circle cx="297.4" cy="278.0" r="3" fill="#1f77b4"/>
<circle cx="311.6" cy="274.7" r="3" fill="#1f77b4"/>
<circle cx="325.8" cy="274.6" r="3" fill="#1f77b4"/>
<circle cx="340.0" cy="277.4" r="3" fill="#1f77b4"/>
<circle cx="354.2" cy="278.8" r="3" fill="#1f77b4"/>
<circle cx="368.4" cy="272.2" r="3" fill="#1f77b4"/>
<circle cx="382.6" cy="271.0" r="3" fill="#1f77b4"/>
<circle cx="396.8" cy="275.1" r="3" fill="#1f77b4"/>
<circle cx="411.1" cy="272.7" r="3" fill="#1f77b4"/>
<circle cx="425.3" cy="273.7" r="3" fill="#1f77b4"/>
<circle cx="439.5" cy="273.8" r="3" fill="#1f77b4"/>
<circle cx="453.7" cy="274.2" r="3" fill="#1f77b4"/>
<circle cx="467.9" cy="269.0" r="3" fill="#1f77b4"/>
<circle cx="482.1" cy="278.3" r="3" fill="#1f77b4"/>
<circle cx="524.7" cy="273.6" r="3" fill="#1f77b4"/>
<circle cx="538.9" cy="277.7" r="3" fill="#1f77b4"/>
<circle cx="553.2" cy="274.1" r="3" fill="#1f77b4"/>
<circle cx="567.4" cy="274.4" r="3" fill="#1f77b4"/>
<circle cx="581.6" cy="273.8" r="3" fill="#1f77b4"/>
<circle cx="595.8" cy="272.2" r="3" fill="#1f77b4"/>
<circle cx="610.0" cy="276.3" r="3" fill="#1f77b4"/>
<circle cx="624.2" cy="271.4" r="3" fill="#1f77b4"/>
<circle cx="638.4" cy="272.5" r="3" fill="#1f77b4"/>
<circle cx="652.6" cy="272.8" r="3" fill="#1f77b4"/>
<circle cx="666.8" cy="204.3" r="3" fill="#1f77b4"/>
<circle cx="681.1" cy="259.7" r="3" fill="#1f77b4"/>
<circle cx="695.3" cy="276.6" r="3" fill="#1f77b4"/>
<circle cx="709.5" cy="276.3" r="3" fill="#1f77b4"/>
<circle cx="723.7" cy="280.0" r="3" fill="#1f77b4"/>
<circle cx="737.9" cy="280.2" r="3" fill="#1f77b4"/>
<circle cx="752.1" cy="324.0" r="3" fill="#1f77b4"/>
<circle cx="766.3" cy="324.0" r="3" fill="#1f77b4"/>
<circle cx="780.5" cy="254.4" r="3" fill="#1f77b4"/>
<circle cx="794.7" cy="273.6" r="3" fill="#1f77b4"/>
<circle cx="808.9" cy="324.0" r="3" fill="#1f77b4"/>
<circle cx="823.2" cy="324.0" r="3" fill="#1f77b4"/>
<circle cx="837.4" cy="268.1" r="3" fill="#1f77b4"/>
<circle cx="851.6" cy="272.8" r="3" fill="#1f77b4"/>
<circle cx="865.8" cy="324.0" r="3" fill="#1f77b4"/>
<circle cx="880.0" cy="270.7" r="3" fill="#1f77b4"/>
<rect x="340.0" y="358" width="10" height="10" fill="#1f77b4"/>
<text x="354.0" y="367" font-size="11" fill="#333">render mouth (wav2lip)</text>
<polyline points="268.9,299.0 283.2,302.7 297.4,304.1 311.6,302.4 325.8,301.0 340.0,304.1 354.2,304.4 368.4,298.5 382.6,303.3 396.8,303.2 411.1,302.4 425.3,301.3 439.5,303.2 453.7,304.0 467.9,301.1 482.1,304.4 524.7,302.9 538.9,303.5 553.2,301.9 567.4,301.6 581.6,302.2 595.8,301.3 610.0,303.1 624.2,299.4 638.4,302.2 652.6,303.5 666.8,304.8 681.1,305.8 695.3,304.8 709.5,302.4 723.7,304.8 737.9,304.6 752.1,305.6 766.3,305.9 780.5,306.5 794.7,303.6 808.9,303.1 823.2,304.0 837.4,302.2 851.6,304.0 865.8,303.7 880.0,303.2" fill="none" stroke="#2ca02c" stroke-width="2"/>
<circle cx="268.9" cy="299.0" r="3" fill="#2ca02c"/>
<circle cx="283.2" cy="302.7" r="3" fill="#2ca02c"/>
<circle cx="297.4" cy="304.1" r="3" fill="#2ca02c"/>
<circle cx="311.6" cy="302.4" r="3" fill="#2ca02c"/>
<circle cx="325.8" cy="301.0" r="3" fill="#2ca02c"/>
<circle cx="340.0" cy="304.1" r="3" fill="#2ca02c"/>
<circle cx="354.2" cy="304.4" r="3" fill="#2ca02c"/>
<circle cx="368.4" cy="298.5" r="3" fill="#2ca02c"/>
<circle cx="382.6" cy="303.3" r="3" fill="#2ca02c"/>
<circle cx="396.8" cy="303.2" r="3" fill="#2ca02c"/>
<circle cx="411.1" cy="302.4" r="3" fill="#2ca02c"/>
<circle cx="425.3" cy="301.3" r="3" fill="#2ca02c"/>
<circle cx="439.5" cy="303.2" r="3" fill="#2ca02c"/>
<circle cx="453.7" cy="304.0" r="3" fill="#2ca02c"/>
<circle cx="467.9" cy="301.1" r="3" fill="#2ca02c"/>
<circle cx="482.1" cy="304.4" r="3" fill="#2ca02c"/>
<circle cx="524.7" cy="302.9" r="3" fill="#2ca02c"/>
<circle cx="538.9" cy="303.5" r="3" fill="#2ca02c"/>
<circle cx="553.2" cy="301.9" r="3" fill="#2ca02c"/>
<circle cx="567.4" cy="301.6" r="3" fill="#2ca02c"/>
<circle cx="581.6" cy="302.2" r="3" fill="#2ca02c"/>
<circle cx="595.8" cy="301.3" r="3" fill="#2ca02c"/>
<circle cx="610.0" cy="303.1" r="3" fill="#2ca02c"/>
<circle cx="624.2" cy="299.4" r="3" fill="#2ca02c"/>
<circle cx="638.4" cy="302.2" r="3" fill="#2ca02c"/>
<circle cx="652.6" cy="303.5" r="3" fill="#2ca02c"/>
<circle cx="666.8" cy="304.8" r="3" fill="#2ca02c"/>
<circle cx="681.1" cy="305.8" r="3" fill="#2ca02c"/>
<circle cx="695.3" cy="304.8" r="3" fill="#2ca02c"/>
<circle cx="709.5" cy="302.4" r="3" fill="#2ca02c"/>
<circle cx="723.7" cy="304.8" r="3" fill="#2ca02c"/>
<circle cx="737.9" cy="304.6" r="3" fill="#2ca02c"/>
<circle cx="752.1" cy="305.6" r="3" fill="#2ca02c"/>
<circle cx="766.3" cy="305.9" r="3" fill="#2ca02c"/>
<circle cx="780.5" cy="306.5" r="3" fill="#2ca02c"/>
<circle cx="794.7" cy="303.6" r="3" fill="#2ca02c"/>
<circle cx="808.9" cy="303.1" r="3" fill="#2ca02c"/>
<circle cx="823.2" cy="304.0" r="3" fill="#2ca02c"/>
<circle cx="837.4" cy="302.2" r="3" fill="#2ca02c"/>
<circle cx="851.6" cy="304.0" r="3" fill="#2ca02c"/>
<circle cx="865.8" cy="303.7" r="3" fill="#2ca02c"/>
<circle cx="880.0" cy="303.2" r="3" fill="#2ca02c"/>
<rect x="610.0" y="358" width="10" height="10" fill="#2ca02c"/>
<text x="624.0" y="367" font-size="11" fill="#333">render compose (SkiaSharp)</text>
</svg>
