<svg xmlns="http://www.w3.org/2000/svg" width="900" height="380" viewBox="0 0 900 380" font-family="sans-serif">
<rect width="900" height="380" fill="white"/>
<text x="70" y="24" font-size="16" fill="#333">Render loop per-frame cost (ms, p50 unless noted) — 25fps budget is 40ms</text>
<line x1="70" y1="324.0" x2="880" y2="324.0" stroke="#e5e5e5"/>
<text x="64" y="328.0" font-size="11" fill="#666" text-anchor="end">0ms</text>
<line x1="70" y1="268.0" x2="880" y2="268.0" stroke="#e5e5e5"/>
<text x="64" y="272.0" font-size="11" fill="#666" text-anchor="end">74ms</text>
<line x1="70" y1="212.0" x2="880" y2="212.0" stroke="#e5e5e5"/>
<text x="64" y="216.0" font-size="11" fill="#666" text-anchor="end">148ms</text>
<line x1="70" y1="156.0" x2="880" y2="156.0" stroke="#e5e5e5"/>
<text x="64" y="160.0" font-size="11" fill="#666" text-anchor="end">222ms</text>
<line x1="70" y1="100.0" x2="880" y2="100.0" stroke="#e5e5e5"/>
<text x="64" y="104.0" font-size="11" fill="#666" text-anchor="end">296ms</text>
<line x1="70" y1="44.0" x2="880" y2="44.0" stroke="#e5e5e5"/>
<text x="64" y="48.0" font-size="11" fill="#666" text-anchor="end">369ms</text>
<line x1="70" y1="293.7" x2="880" y2="293.7" stroke="#d62728" stroke-width="1.5" stroke-dasharray="6,4"/>
<text x="876" y="288.7" font-size="11" fill="#d62728" text-anchor="end">budget 40ms</text>
<text x="70.0" y="342" font-size="11" fill="#666" text-anchor="start">07-16 16:02</text>
<text x="475.0" y="342" font-size="11" fill="#666" text-anchor="middle">07-17 16:35</text>
<text x="880.0" y="342" font-size="11" fill="#666" text-anchor="end">07-17 22:35</text>
<polyline points="221.9,213.6 289.4,137.4 306.2,205.1 323.1,203.0 340.0,219.1 356.9,92.5 373.8,219.2 390.6,133.4 407.5,222.5 424.4,217.1 441.2,80.9 458.1,207.6 475.0,213.5 491.9,64.7 508.8,193.7 525.6,201.3 542.5,177.8 559.4,221.2 610.0,217.1 626.9,216.1 643.8,207.0 660.6,207.7 677.5,214.9 694.4,199.8 711.2,219.9 728.1,209.6 745.0,210.6 761.9,229.5 778.8,162.0 795.6,215.8 812.5,236.9 829.4,198.5 846.2,230.6 863.1,225.5 880.0,251.0" fill="none" stroke="#8c564b" stroke-width="2"/>
<circle cx="221.9" cy="213.6" r="3" fill="#8c564b"/>
<circle cx="289.4" cy="137.4" r="3" fill="#8c564b"/>
<circle cx="306.2" cy="205.1" r="3" fill="#8c564b"/>
<circle cx="323.1" cy="203.0" r="3" fill="#8c564b"/>
<circle cx="340.0" cy="219.1" r="3" fill="#8c564b"/>
<circle cx="356.9" cy="92.5" r="3" fill="#8c564b"/>
<circle cx="373.8" cy="219.2" r="3" fill="#8c564b"/>
<circle cx="390.6" cy="133.4" r="3" fill="#8c564b"/>
<circle cx="407.5" cy="222.5" r="3" fill="#8c564b"/>
<circle cx="424.4" cy="217.1" r="3" fill="#8c564b"/>
<circle cx="441.2" cy="80.9" r="3" fill="#8c564b"/>
<circle cx="458.1" cy="207.6" r="3" fill="#8c564b"/>
<circle cx="475.0" cy="213.5" r="3" fill="#8c564b"/>
<circle cx="491.9" cy="64.7" r="3" fill="#8c564b"/>
<circle cx="508.8" cy="193.7" r="3" fill="#8c564b"/>
<circle cx="525.6" cy="201.3" r="3" fill="#8c564b"/>
<circle cx="542.5" cy="177.8" r="3" fill="#8c564b"/>
<circle cx="559.4" cy="221.2" r="3" fill="#8c564b"/>
<circle cx="610.0" cy="217.1" r="3" fill="#8c564b"/>
<circle cx="626.9" cy="216.1" r="3" fill="#8c564b"/>
<circle cx="643.8" cy="207.0" r="3" fill="#8c564b"/>
<circle cx="660.6" cy="207.7" r="3" fill="#8c564b"/>
<circle cx="677.5" cy="214.9" r="3" fill="#8c564b"/>
<circle cx="694.4" cy="199.8" r="3" fill="#8c564b"/>
<circle cx="711.2" cy="219.9" r="3" fill="#8c564b"/>
<circle cx="728.1" cy="209.6" r="3" fill="#8c564b"/>
<circle cx="745.0" cy="210.6" r="3" fill="#8c564b"/>
<circle cx="761.9" cy="229.5" r="3" fill="#8c564b"/>
<circle cx="778.8" cy="162.0" r="3" fill="#8c564b"/>
<circle cx="795.6" cy="215.8" r="3" fill="#8c564b"/>
<circle cx="812.5" cy="236.9" r="3" fill="#8c564b"/>
<circle cx="829.4" cy="198.5" r="3" fill="#8c564b"/>
<circle cx="846.2" cy="230.6" r="3" fill="#8c564b"/>
<circle cx="863.1" cy="225.5" r="3" fill="#8c564b"/>
<circle cx="880.0" cy="251.0" r="3" fill="#8c564b"/>
<rect x="70.0" y="358" width="10" height="10" fill="#8c564b"/>
<text x="84.0" y="367" font-size="11" fill="#333">render tick (p95)</text>
<polyline points="306.2,270.7 323.1,273.5 340.0,278.0 356.9,274.7 373.8,274.6 390.6,277.4 407.5,278.8 424.4,272.2 441.2,271.0 458.1,275.1 475.0,272.7 491.9,273.7 508.8,273.8 525.6,274.2 542.5,269.0 559.4,278.3 610.0,273.6 626.9,277.7 643.8,274.1 660.6,274.4 677.5,273.8 694.4,272.2 711.2,276.3 728.1,271.4 745.0,272.5 761.9,272.8 778.8,204.3 795.6,259.7 812.5,276.6 829.4,276.3 846.2,280.0 863.1,280.2 880.0,324.0" fill="none" stroke="#1f77b4" stroke-width="2"/>
<circle cx="306.2" cy="270.7" r="3" fill="#1f77b4"/>
<circle cx="323.1" cy="273.5" r="3" fill="#1f77b4"/>
<circle cx="340.0" cy="278.0" r="3" fill="#1f77b4"/>
<circle cx="356.9" cy="274.7" r="3" fill="#1f77b4"/>
<circle cx="373.8" cy="274.6" r="3" fill="#1f77b4"/>
<circle cx="390.6" cy="277.4" r="3" fill="#1f77b4"/>
<circle cx="407.5" cy="278.8" r="3" fill="#1f77b4"/>
<circle cx="424.4" cy="272.2" r="3" fill="#1f77b4"/>
<circle cx="441.2" cy="271.0" r="3" fill="#1f77b4"/>
<circle cx="458.1" cy="275.1" r="3" fill="#1f77b4"/>
<circle cx="475.0" cy="272.7" r="3" fill="#1f77b4"/>
<circle cx="491.9" cy="273.7" r="3" fill="#1f77b4"/>
<circle cx="508.8" cy="273.8" r="3" fill="#1f77b4"/>
<circle cx="525.6" cy="274.2" r="3" fill="#1f77b4"/>
<circle cx="542.5" cy="269.0" r="3" fill="#1f77b4"/>
<circle cx="559.4" cy="278.3" r="3" fill="#1f77b4"/>
<circle cx="610.0" cy="273.6" r="3" fill="#1f77b4"/>
<circle cx="626.9" cy="277.7" r="3" fill="#1f77b4"/>
<circle cx="643.8" cy="274.1" r="3" fill="#1f77b4"/>
<circle cx="660.6" cy="274.4" r="3" fill="#1f77b4"/>
<circle cx="677.5" cy="273.8" r="3" fill="#1f77b4"/>
<circle cx="694.4" cy="272.2" r="3" fill="#1f77b4"/>
<circle cx="711.2" cy="276.3" r="3" fill="#1f77b4"/>
<circle cx="728.1" cy="271.4" r="3" fill="#1f77b4"/>
<circle cx="745.0" cy="272.5" r="3" fill="#1f77b4"/>
<circle cx="761.9" cy="272.8" r="3" fill="#1f77b4"/>
<circle cx="778.8" cy="204.3" r="3" fill="#1f77b4"/>
<circle cx="795.6" cy="259.7" r="3" fill="#1f77b4"/>
<circle cx="812.5" cy="276.6" r="3" fill="#1f77b4"/>
<circle cx="829.4" cy="276.3" r="3" fill="#1f77b4"/>
<circle cx="846.2" cy="280.0" r="3" fill="#1f77b4"/>
<circle cx="863.1" cy="280.2" r="3" fill="#1f77b4"/>
<circle cx="880.0" cy="324.0" r="3" fill="#1f77b4"/>
<rect x="340.0" y="358" width="10" height="10" fill="#1f77b4"/>
<text x="354.0" y="367" font-size="11" fill="#333">render mouth (wav2lip)</text>
<polyline points="306.2,299.0 323.1,302.7 340.0,304.1 356.9,302.4 373.8,301.0 390.6,304.1 407.5,304.4 424.4,298.5 441.2,303.3 458.1,303.2 475.0,302.4 491.9,301.3 508.8,303.2 525.6,304.0 542.5,301.1 559.4,304.4 610.0,302.9 626.9,303.5 643.8,301.9 660.6,301.6 677.5,302.2 694.4,301.3 711.2,303.1 728.1,299.4 745.0,302.2 761.9,303.5 778.8,304.8 795.6,305.8 812.5,304.8 829.4,302.4 846.2,304.8 863.1,304.6 880.0,305.6" fill="none" stroke="#2ca02c" stroke-width="2"/>
<circle cx="306.2" cy="299.0" r="3" fill="#2ca02c"/>
<circle cx="323.1" cy="302.7" r="3" fill="#2ca02c"/>
<circle cx="340.0" cy="304.1" r="3" fill="#2ca02c"/>
<circle cx="356.9" cy="302.4" r="3" fill="#2ca02c"/>
<circle cx="373.8" cy="301.0" r="3" fill="#2ca02c"/>
<circle cx="390.6" cy="304.1" r="3" fill="#2ca02c"/>
<circle cx="407.5" cy="304.4" r="3" fill="#2ca02c"/>
<circle cx="424.4" cy="298.5" r="3" fill="#2ca02c"/>
<circle cx="441.2" cy="303.3" r="3" fill="#2ca02c"/>
<circle cx="458.1" cy="303.2" r="3" fill="#2ca02c"/>
<circle cx="475.0" cy="302.4" r="3" fill="#2ca02c"/>
<circle cx="491.9" cy="301.3" r="3" fill="#2ca02c"/>
<circle cx="508.8" cy="303.2" r="3" fill="#2ca02c"/>
<circle cx="525.6" cy="304.0" r="3" fill="#2ca02c"/>
<circle cx="542.5" cy="301.1" r="3" fill="#2ca02c"/>
<circle cx="559.4" cy="304.4" r="3" fill="#2ca02c"/>
<circle cx="610.0" cy="302.9" r="3" fill="#2ca02c"/>
<circle cx="626.9" cy="303.5" r="3" fill="#2ca02c"/>
<circle cx="643.8" cy="301.9" r="3" fill="#2ca02c"/>
<circle cx="660.6" cy="301.6" r="3" fill="#2ca02c"/>
<circle cx="677.5" cy="302.2" r="3" fill="#2ca02c"/>
<circle cx="694.4" cy="301.3" r="3" fill="#2ca02c"/>
<circle cx="711.2" cy="303.1" r="3" fill="#2ca02c"/>
<circle cx="728.1" cy="299.4" r="3" fill="#2ca02c"/>
<circle cx="745.0" cy="302.2" r="3" fill="#2ca02c"/>
<circle cx="761.9" cy="303.5" r="3" fill="#2ca02c"/>
<circle cx="778.8" cy="304.8" r="3" fill="#2ca02c"/>
<circle cx="795.6" cy="305.8" r="3" fill="#2ca02c"/>
<circle cx="812.5" cy="304.8" r="3" fill="#2ca02c"/>
<circle cx="829.4" cy="302.4" r="3" fill="#2ca02c"/>
<circle cx="846.2" cy="304.8" r="3" fill="#2ca02c"/>
<circle cx="863.1" cy="304.6" r="3" fill="#2ca02c"/>
<circle cx="880.0" cy="305.6" r="3" fill="#2ca02c"/>
<rect x="610.0" y="358" width="10" height="10" fill="#2ca02c"/>
<text x="624.0" y="367" font-size="11" fill="#333">render compose (SkiaSharp)</text>
</svg>
