<svg xmlns="http://www.w3.org/2000/svg" width="900" height="380" viewBox="0 0 900 380" font-family="sans-serif">
<rect width="900" height="380" fill="white"/>
<text x="70" y="24" font-size="16" fill="#333">Render loop per-frame cost (ms, p50 unless noted) — 25fps budget is 40ms</text>
<line x1="70" y1="324.0" x2="880" y2="324.0" stroke="#e5e5e5"/>
<text x="64" y="328.0" font-size="11" fill="#666" text-anchor="end">0ms</text>
<line x1="70" y1="268.0" x2="880" y2="268.0" stroke="#e5e5e5"/>
<text x="64" y="272.0" font-size="11" fill="#666" text-anchor="end">74ms</text>
<line x1="70" y1="212.0" x2="880" y2="212.0" stroke="#e5e5e5"/>
<text x="64" y="216.0" font-size="11" fill="#666" text-anchor="end">148ms</text>
<line x1="70" y1="156.0" x2="880" y2="156.0" stroke="#e5e5e5"/>
<text x="64" y="160.0" font-size="11" fill="#666" text-anchor="end">222ms</text>
<line x1="70" y1="100.0" x2="880" y2="100.0" stroke="#e5e5e5"/>
<text x="64" y="104.0" font-size="11" fill="#666" text-anchor="end">296ms</text>
<line x1="70" y1="44.0" x2="880" y2="44.0" stroke="#e5e5e5"/>
<text x="64" y="48.0" font-size="11" fill="#666" text-anchor="end">369ms</text>
<line x1="70" y1="293.7" x2="880" y2="293.7" stroke="#d62728" stroke-width="1.5" stroke-dasharray="6,4"/>
<text x="876" y="288.7" font-size="11" fill="#d62728" text-anchor="end">budget 40ms</text>
<text x="70.0" y="342" font-size="11" fill="#666" text-anchor="start">07-16 16:02</text>
<text x="475.0" y="342" font-size="11" fill="#666" text-anchor="middle">07-17 14:10</text>
<text x="880.0" y="342" font-size="11" fill="#666" text-anchor="end">07-17 19:51</text>
<polyline points="297.8,213.6 399.1,137.4 424.4,205.1 449.7,203.0 475.0,219.1 500.3,92.5 525.6,219.2 550.9,133.4 576.2,222.5 601.6,217.1 626.9,80.9 652.2,207.6 677.5,213.5 702.8,64.7 728.1,193.7 753.4,201.3 778.8,177.8 804.1,221.2 880.0,217.1" fill="none" stroke="#8c564b" stroke-width="2"/>
<circle cx="297.8" cy="213.6" r="3" fill="#8c564b"/>
<circle cx="399.1" cy="137.4" r="3" fill="#8c564b"/>
<circle cx="424.4" cy="205.1" r="3" fill="#8c564b"/>
<circle cx="449.7" cy="203.0" r="3" fill="#8c564b"/>
<circle cx="475.0" cy="219.1" r="3" fill="#8c564b"/>
<circle cx="500.3" cy="92.5" r="3" fill="#8c564b"/>
<circle cx="525.6" cy="219.2" r="3" fill="#8c564b"/>
<circle cx="550.9" cy="133.4" r="3" fill="#8c564b"/>
<circle cx="576.2" cy="222.5" r="3" fill="#8c564b"/>
<circle cx="601.6" cy="217.1" r="3" fill="#8c564b"/>
<circle cx="626.9" cy="80.9" r="3" fill="#8c564b"/>
<circle cx="652.2" cy="207.6" r="3" fill="#8c564b"/>
<circle cx="677.5" cy="213.5" r="3" fill="#8c564b"/>
<circle cx="702.8" cy="64.7" r="3" fill="#8c564b"/>
<circle cx="728.1" cy="193.7" r="3" fill="#8c564b"/>
<circle cx="753.4" cy="201.3" r="3" fill="#8c564b"/>
<circle cx="778.8" cy="177.8" r="3" fill="#8c564b"/>
<circle cx="804.1" cy="221.2" r="3" fill="#8c564b"/>
<circle cx="880.0" cy="217.1" r="3" fill="#8c564b"/>
<rect x="70.0" y="358" width="10" height="10" fill="#8c564b"/>
<text x="84.0" y="367" font-size="11" fill="#333">render tick (p95)</text>
<polyline points="424.4,270.7 449.7,273.5 475.0,278.0 500.3,274.7 525.6,274.6 550.9,277.4 576.2,278.8 601.6,272.2 626.9,271.0 652.2,275.1 677.5,272.7 702.8,273.7 728.1,273.8 753.4,274.2 778.8,269.0 804.1,278.3 880.0,273.6" fill="none" stroke="#1f77b4" stroke-width="2"/>
<circle cx="424.4" cy="270.7" r="3" fill="#1f77b4"/>
<circle cx="449.7" cy="273.5" r="3" fill="#1f77b4"/>
<circle cx="475.0" cy="278.0" r="3" fill="#1f77b4"/>
<circle cx="500.3" cy="274.7" r="3" fill="#1f77b4"/>
<circle cx="525.6" cy="274.6" r="3" fill="#1f77b4"/>
<circle cx="550.9" cy="277.4" r="3" fill="#1f77b4"/>
<circle cx="576.2" cy="278.8" r="3" fill="#1f77b4"/>
<circle cx="601.6" cy="272.2" r="3" fill="#1f77b4"/>
<circle cx="626.9" cy="271.0" r="3" fill="#1f77b4"/>
<circle cx="652.2" cy="275.1" r="3" fill="#1f77b4"/>
<circle cx="677.5" cy="272.7" r="3" fill="#1f77b4"/>
<circle cx="702.8" cy="273.7" r="3" fill="#1f77b4"/>
<circle cx="728.1" cy="273.8" r="3" fill="#1f77b4"/>
<circle cx="753.4" cy="274.2" r="3" fill="#1f77b4"/>
<circle cx="778.8" cy="269.0" r="3" fill="#1f77b4"/>
<circle cx="804.1" cy="278.3" r="3" fill="#1f77b4"/>
<circle cx="880.0" cy="273.6" r="3" fill="#1f77b4"/>
<rect x="340.0" y="358" width="10" height="10" fill="#1f77b4"/>
<text x="354.0" y="367" font-size="11" fill="#333">render mouth (wav2lip)</text>
<polyline points="424.4,299.0 449.7,302.7 475.0,304.1 500.3,302.4 525.6,301.0 550.9,304.1 576.2,304.4 601.6,298.5 626.9,303.3 652.2,303.2 677.5,302.4 702.8,301.3 728.1,303.2 753.4,304.0 778.8,301.1 804.1,304.4 880.0,302.9" fill="none" stroke="#2ca02c" stroke-width="2"/>
<circle cx="424.4" cy="299.0" r="3" fill="#2ca02c"/>
<circle cx="449.7" cy="302.7" r="3" fill="#2ca02c"/>
<circle cx="475.0" cy="304.1" r="3" fill="#2ca02c"/>
<circle cx="500.3" cy="302.4" r="3" fill="#2ca02c"/>
<circle cx="525.6" cy="301.0" r="3" fill="#2ca02c"/>
<circle cx="550.9" cy="304.1" r="3" fill="#2ca02c"/>
<circle cx="576.2" cy="304.4" r="3" fill="#2ca02c"/>
<circle cx="601.6" cy="298.5" r="3" fill="#2ca02c"/>
<circle cx="626.9" cy="303.3" r="3" fill="#2ca02c"/>
<circle cx="652.2" cy="303.2" r="3" fill="#2ca02c"/>
<circle cx="677.5" cy="302.4" r="3" fill="#2ca02c"/>
<circle cx="702.8" cy="301.3" r="3" fill="#2ca02c"/>
<circle cx="728.1" cy="303.2" r="3" fill="#2ca02c"/>
<circle cx="753.4" cy="304.0" r="3" fill="#2ca02c"/>
<circle cx="778.8" cy="301.1" r="3" fill="#2ca02c"/>
<circle cx="804.1" cy="304.4" r="3" fill="#2ca02c"/>
<circle cx="880.0" cy="302.9" r="3" fill="#2ca02c"/>
<rect x="610.0" y="358" width="10" height="10" fill="#2ca02c"/>
<text x="624.0" y="367" font-size="11" fill="#333">render compose (SkiaSharp)</text>
</svg>
