<svg xmlns="http://www.w3.org/2000/svg" width="900" height="380" viewBox="0 0 900 380" font-family="sans-serif">
<rect width="900" height="380" fill="white"/>
<text x="70" y="24" font-size="16" fill="#333">Render loop per-frame cost (ms, p50 unless noted) — 25fps budget is 40ms</text>
<line x1="70" y1="324.0" x2="880" y2="324.0" stroke="#e5e5e5"/>
<text x="64" y="328.0" font-size="11" fill="#666" text-anchor="end">0ms</text>
<line x1="70" y1="268.0" x2="880" y2="268.0" stroke="#e5e5e5"/>
<text x="64" y="272.0" font-size="11" fill="#666" text-anchor="end">74ms</text>
<line x1="70" y1="212.0" x2="880" y2="212.0" stroke="#e5e5e5"/>
<text x="64" y="216.0" font-size="11" fill="#666" text-anchor="end">148ms</text>
<line x1="70" y1="156.0" x2="880" y2="156.0" stroke="#e5e5e5"/>
<text x="64" y="160.0" font-size="11" fill="#666" text-anchor="end">222ms</text>
<line x1="70" y1="100.0" x2="880" y2="100.0" stroke="#e5e5e5"/>
<text x="64" y="104.0" font-size="11" fill="#666" text-anchor="end">296ms</text>
<line x1="70" y1="44.0" x2="880" y2="44.0" stroke="#e5e5e5"/>
<text x="64" y="48.0" font-size="11" fill="#666" text-anchor="end">369ms</text>
<line x1="70" y1="293.7" x2="880" y2="293.7" stroke="#d62728" stroke-width="1.5" stroke-dasharray="6,4"/>
<text x="876" y="288.7" font-size="11" fill="#d62728" text-anchor="end">budget 40ms</text>
<text x="70.0" y="342" font-size="11" fill="#666" text-anchor="start">07-16 16:02</text>
<text x="481.9" y="342" font-size="11" fill="#666" text-anchor="middle">07-17 19:42</text>
<text x="880.0" y="342" font-size="11" fill="#666" text-anchor="end">07-20 06:28</text>
<polyline points="193.6,213.6 248.5,137.4 262.2,205.1 275.9,203.0 289.7,219.1 303.4,92.5 317.1,219.2 330.8,133.4 344.6,222.5 358.3,217.1 372.0,80.9 385.8,207.6 399.5,213.5 413.2,64.7 426.9,193.7 440.7,201.3 454.4,177.8 468.1,221.2 509.3,217.1 523.1,216.1 536.8,207.0 550.5,207.7 564.2,214.9 578.0,199.8 591.7,219.9 605.4,209.6 619.2,210.6 632.9,229.5 646.6,162.0 660.3,215.8 674.1,236.9 687.8,198.5 701.5,230.6 715.3,225.5 729.0,251.0 742.7,250.8 756.4,208.3 770.2,225.5 783.9,220.7 797.6,238.3 811.4,178.7 825.1,234.2 838.8,237.8 852.5,220.8 866.3,207.2 880.0,207.7" fill="none" stroke="#8c564b" stroke-width="2"/>
<circle cx="193.6" cy="213.6" r="3" fill="#8c564b"/>
<circle cx="248.5" cy="137.4" r="3" fill="#8c564b"/>
<circle cx="262.2" cy="205.1" r="3" fill="#8c564b"/>
<circle cx="275.9" cy="203.0" r="3" fill="#8c564b"/>
<circle cx="289.7" cy="219.1" r="3" fill="#8c564b"/>
<circle cx="303.4" cy="92.5" r="3" fill="#8c564b"/>
<circle cx="317.1" cy="219.2" r="3" fill="#8c564b"/>
<circle cx="330.8" cy="133.4" r="3" fill="#8c564b"/>
<circle cx="344.6" cy="222.5" r="3" fill="#8c564b"/>
<circle cx="358.3" cy="217.1" r="3" fill="#8c564b"/>
<circle cx="372.0" cy="80.9" r="3" fill="#8c564b"/>
<circle cx="385.8" cy="207.6" r="3" fill="#8c564b"/>
<circle cx="399.5" cy="213.5" r="3" fill="#8c564b"/>
<circle cx="413.2" cy="64.7" r="3" fill="#8c564b"/>
<circle cx="426.9" cy="193.7" r="3" fill="#8c564b"/>
<circle cx="440.7" cy="201.3" r="3" fill="#8c564b"/>
<circle cx="454.4" cy="177.8" r="3" fill="#8c564b"/>
<circle cx="468.1" cy="221.2" r="3" fill="#8c564b"/>
<circle cx="509.3" cy="217.1" r="3" fill="#8c564b"/>
<circle cx="523.1" cy="216.1" r="3" fill="#8c564b"/>
<circle cx="536.8" cy="207.0" r="3" fill="#8c564b"/>
<circle cx="550.5" cy="207.7" r="3" fill="#8c564b"/>
<circle cx="564.2" cy="214.9" r="3" fill="#8c564b"/>
<circle cx="578.0" cy="199.8" r="3" fill="#8c564b"/>
<circle cx="591.7" cy="219.9" r="3" fill="#8c564b"/>
<circle cx="605.4" cy="209.6" r="3" fill="#8c564b"/>
<circle cx="619.2" cy="210.6" r="3" fill="#8c564b"/>
<circle cx="632.9" cy="229.5" r="3" fill="#8c564b"/>
<circle cx="646.6" cy="162.0" r="3" fill="#8c564b"/>
<circle cx="660.3" cy="215.8" r="3" fill="#8c564b"/>
<circle cx="674.1" cy="236.9" r="3" fill="#8c564b"/>
<circle cx="687.8" cy="198.5" r="3" fill="#8c564b"/>
<circle cx="701.5" cy="230.6" r="3" fill="#8c564b"/>
<circle cx="715.3" cy="225.5" r="3" fill="#8c564b"/>
<circle cx="729.0" cy="251.0" r="3" fill="#8c564b"/>
<circle cx="742.7" cy="250.8" r="3" fill="#8c564b"/>
<circle cx="756.4" cy="208.3" r="3" fill="#8c564b"/>
<circle cx="770.2" cy="225.5" r="3" fill="#8c564b"/>
<circle cx="783.9" cy="220.7" r="3" fill="#8c564b"/>
<circle cx="797.6" cy="238.3" r="3" fill="#8c564b"/>
<circle cx="811.4" cy="178.7" r="3" fill="#8c564b"/>
<circle cx="825.1" cy="234.2" r="3" fill="#8c564b"/>
<circle cx="838.8" cy="237.8" r="3" fill="#8c564b"/>
<circle cx="852.5" cy="220.8" r="3" fill="#8c564b"/>
<circle cx="866.3" cy="207.2" r="3" fill="#8c564b"/>
<circle cx="880.0" cy="207.7" r="3" fill="#8c564b"/>
<rect x="70.0" y="358" width="10" height="10" fill="#8c564b"/>
<text x="84.0" y="367" font-size="11" fill="#333">render tick (p95)</text>
<polyline points="262.2,270.7 275.9,273.5 289.7,278.0 303.4,274.7 317.1,274.6 330.8,277.4 344.6,278.8 358.3,272.2 372.0,271.0 385.8,275.1 399.5,272.7 413.2,273.7 426.9,273.8 440.7,274.2 454.4,269.0 468.1,278.3 509.3,273.6 523.1,277.7 536.8,274.1 550.5,274.4 564.2,273.8 578.0,272.2 591.7,276.3 605.4,271.4 619.2,272.5 632.9,272.8 646.6,204.3 660.3,259.7 674.1,276.6 687.8,276.3 701.5,280.0 715.3,280.2 729.0,324.0 742.7,324.0 756.4,254.4 770.2,273.6 783.9,324.0 797.6,324.0 811.4,268.1 825.1,272.8 838.8,324.0 852.5,270.7 866.3,249.6 880.0,253.6" fill="none" stroke="#1f77b4" stroke-width="2"/>
<circle cx="262.2" cy="270.7" r="3" fill="#1f77b4"/>
<circle cx="275.9" cy="273.5" r="3" fill="#1f77b4"/>
<circle cx="289.7" cy="278.0" r="3" fill="#1f77b4"/>
<circle cx="303.4" cy="274.7" r="3" fill="#1f77b4"/>
<circle cx="317.1" cy="274.6" r="3" fill="#1f77b4"/>
<circle cx="330.8" cy="277.4" r="3" fill="#1f77b4"/>
<circle cx="344.6" cy="278.8" r="3" fill="#1f77b4"/>
<circle cx="358.3" cy="272.2" r="3" fill="#1f77b4"/>
<circle cx="372.0" cy="271.0" r="3" fill="#1f77b4"/>
<circle cx="385.8" cy="275.1" r="3" fill="#1f77b4"/>
<circle cx="399.5" cy="272.7" r="3" fill="#1f77b4"/>
<circle cx="413.2" cy="273.7" r="3" fill="#1f77b4"/>
<circle cx="426.9" cy="273.8" r="3" fill="#1f77b4"/>
<circle cx="440.7" cy="274.2" r="3" fill="#1f77b4"/>
<circle cx="454.4" cy="269.0" r="3" fill="#1f77b4"/>
<circle cx="468.1" cy="278.3" r="3" fill="#1f77b4"/>
<circle cx="509.3" cy="273.6" r="3" fill="#1f77b4"/>
<circle cx="523.1" cy="277.7" r="3" fill="#1f77b4"/>
<circle cx="536.8" cy="274.1" r="3" fill="#1f77b4"/>
<circle cx="550.5" cy="274.4" r="3" fill="#1f77b4"/>
<circle cx="564.2" cy="273.8" r="3" fill="#1f77b4"/>
<circle cx="578.0" cy="272.2" r="3" fill="#1f77b4"/>
<circle cx="591.7" cy="276.3" r="3" fill="#1f77b4"/>
<circle cx="605.4" cy="271.4" r="3" fill="#1f77b4"/>
<circle cx="619.2" cy="272.5" r="3" fill="#1f77b4"/>
<circle cx="632.9" cy="272.8" r="3" fill="#1f77b4"/>
<circle cx="646.6" cy="204.3" r="3" fill="#1f77b4"/>
<circle cx="660.3" cy="259.7" r="3" fill="#1f77b4"/>
<circle cx="674.1" cy="276.6" r="3" fill="#1f77b4"/>
<circle cx="687.8" cy="276.3" r="3" fill="#1f77b4"/>
<circle cx="701.5" cy="280.0" r="3" fill="#1f77b4"/>
<circle cx="715.3" cy="280.2" r="3" fill="#1f77b4"/>
<circle cx="729.0" cy="324.0" r="3" fill="#1f77b4"/>
<circle cx="742.7" cy="324.0" r="3" fill="#1f77b4"/>
<circle cx="756.4" cy="254.4" r="3" fill="#1f77b4"/>
<circle cx="770.2" cy="273.6" r="3" fill="#1f77b4"/>
<circle cx="783.9" cy="324.0" r="3" fill="#1f77b4"/>
<circle cx="797.6" cy="324.0" r="3" fill="#1f77b4"/>
<circle cx="811.4" cy="268.1" r="3" fill="#1f77b4"/>
<circle cx="825.1" cy="272.8" r="3" fill="#1f77b4"/>
<circle cx="838.8" cy="324.0" r="3" fill="#1f77b4"/>
<circle cx="852.5" cy="270.7" r="3" fill="#1f77b4"/>
<circle cx="866.3" cy="249.6" r="3" fill="#1f77b4"/>
<circle cx="880.0" cy="253.6" r="3" fill="#1f77b4"/>
<rect x="340.0" y="358" width="10" height="10" fill="#1f77b4"/>
<text x="354.0" y="367" font-size="11" fill="#333">render mouth (wav2lip)</text>
<polyline points="262.2,299.0 275.9,302.7 289.7,304.1 303.4,302.4 317.1,301.0 330.8,304.1 344.6,304.4 358.3,298.5 372.0,303.3 385.8,303.2 399.5,302.4 413.2,301.3 426.9,303.2 440.7,304.0 454.4,301.1 468.1,304.4 509.3,302.9 523.1,303.5 536.8,301.9 550.5,301.6 564.2,302.2 578.0,301.3 591.7,303.1 605.4,299.4 619.2,302.2 632.9,303.5 646.6,304.8 660.3,305.8 674.1,304.8 687.8,302.4 701.5,304.8 715.3,304.6 729.0,305.6 742.7,305.9 756.4,306.5 770.2,303.6 783.9,303.1 797.6,304.0 811.4,302.2 825.1,304.0 838.8,303.7 852.5,303.2 866.3,305.7 880.0,306.1" fill="none" stroke="#2ca02c" stroke-width="2"/>
<circle cx="262.2" cy="299.0" r="3" fill="#2ca02c"/>
<circle cx="275.9" cy="302.7" r="3" fill="#2ca02c"/>
<circle cx="289.7" cy="304.1" r="3" fill="#2ca02c"/>
<circle cx="303.4" cy="302.4" r="3" fill="#2ca02c"/>
<circle cx="317.1" cy="301.0" r="3" fill="#2ca02c"/>
<circle cx="330.8" cy="304.1" r="3" fill="#2ca02c"/>
<circle cx="344.6" cy="304.4" r="3" fill="#2ca02c"/>
<circle cx="358.3" cy="298.5" r="3" fill="#2ca02c"/>
<circle cx="372.0" cy="303.3" r="3" fill="#2ca02c"/>
<circle cx="385.8" cy="303.2" r="3" fill="#2ca02c"/>
<circle cx="399.5" cy="302.4" r="3" fill="#2ca02c"/>
<circle cx="413.2" cy="301.3" r="3" fill="#2ca02c"/>
<circle cx="426.9" cy="303.2" r="3" fill="#2ca02c"/>
<circle cx="440.7" cy="304.0" r="3" fill="#2ca02c"/>
<circle cx="454.4" cy="301.1" r="3" fill="#2ca02c"/>
<circle cx="468.1" cy="304.4" r="3" fill="#2ca02c"/>
<circle cx="509.3" cy="302.9" r="3" fill="#2ca02c"/>
<circle cx="523.1" cy="303.5" r="3" fill="#2ca02c"/>
<circle cx="536.8" cy="301.9" r="3" fill="#2ca02c"/>
<circle cx="550.5" cy="301.6" r="3" fill="#2ca02c"/>
<circle cx="564.2" cy="302.2" r="3" fill="#2ca02c"/>
<circle cx="578.0" cy="301.3" r="3" fill="#2ca02c"/>
<circle cx="591.7" cy="303.1" r="3" fill="#2ca02c"/>
<circle cx="605.4" cy="299.4" r="3" fill="#2ca02c"/>
<circle cx="619.2" cy="302.2" r="3" fill="#2ca02c"/>
<circle cx="632.9" cy="303.5" r="3" fill="#2ca02c"/>
<circle cx="646.6" cy="304.8" r="3" fill="#2ca02c"/>
<circle cx="660.3" cy="305.8" r="3" fill="#2ca02c"/>
<circle cx="674.1" cy="304.8" r="3" fill="#2ca02c"/>
<circle cx="687.8" cy="302.4" r="3" fill="#2ca02c"/>
<circle cx="701.5" cy="304.8" r="3" fill="#2ca02c"/>
<circle cx="715.3" cy="304.6" r="3" fill="#2ca02c"/>
<circle cx="729.0" cy="305.6" r="3" fill="#2ca02c"/>
<circle cx="742.7" cy="305.9" r="3" fill="#2ca02c"/>
<circle cx="756.4" cy="306.5" r="3" fill="#2ca02c"/>
<circle cx="770.2" cy="303.6" r="3" fill="#2ca02c"/>
<circle cx="783.9" cy="303.1" r="3" fill="#2ca02c"/>
<circle cx="797.6" cy="304.0" r="3" fill="#2ca02c"/>
<circle cx="811.4" cy="302.2" r="3" fill="#2ca02c"/>
<circle cx="825.1" cy="304.0" r="3" fill="#2ca02c"/>
<circle cx="838.8" cy="303.7" r="3" fill="#2ca02c"/>
<circle cx="852.5" cy="303.2" r="3" fill="#2ca02c"/>
<circle cx="866.3" cy="305.7" r="3" fill="#2ca02c"/>
<circle cx="880.0" cy="306.1" r="3" fill="#2ca02c"/>
<rect x="610.0" y="358" width="10" height="10" fill="#2ca02c"/>
<text x="624.0" y="367" font-size="11" fill="#333">render compose (SkiaSharp)</text>
</svg>
