<svg xmlns="http://www.w3.org/2000/svg" width="900" height="380" viewBox="0 0 900 380" font-family="sans-serif">
<rect width="900" height="380" fill="white"/>
<text x="70" y="24" font-size="16" fill="#333">Render loop per-frame cost (ms, p50 unless noted) — 25fps budget is 40ms</text>
<line x1="70" y1="324.0" x2="880" y2="324.0" stroke="#e5e5e5"/>
<text x="64" y="328.0" font-size="11" fill="#666" text-anchor="end">0ms</text>
<line x1="70" y1="268.0" x2="880" y2="268.0" stroke="#e5e5e5"/>
<text x="64" y="272.0" font-size="11" fill="#666" text-anchor="end">74ms</text>
<line x1="70" y1="212.0" x2="880" y2="212.0" stroke="#e5e5e5"/>
<text x="64" y="216.0" font-size="11" fill="#666" text-anchor="end">148ms</text>
<line x1="70" y1="156.0" x2="880" y2="156.0" stroke="#e5e5e5"/>
<text x="64" y="160.0" font-size="11" fill="#666" text-anchor="end">222ms</text>
<line x1="70" y1="100.0" x2="880" y2="100.0" stroke="#e5e5e5"/>
<text x="64" y="104.0" font-size="11" fill="#666" text-anchor="end">296ms</text>
<line x1="70" y1="44.0" x2="880" y2="44.0" stroke="#e5e5e5"/>
<text x="64" y="48.0" font-size="11" fill="#666" text-anchor="end">369ms</text>
<line x1="70" y1="293.7" x2="880" y2="293.7" stroke="#d62728" stroke-width="1.5" stroke-dasharray="6,4"/>
<text x="876" y="288.7" font-size="11" fill="#d62728" text-anchor="end">budget 40ms</text>
<text x="70.0" y="342" font-size="11" fill="#666" text-anchor="start">07-16 16:02</text>
<text x="475.0" y="342" font-size="11" fill="#666" text-anchor="middle">07-17 07:53</text>
<text x="880.0" y="342" font-size="11" fill="#666" text-anchor="end">07-17 18:46</text>
<polyline points="350.4,213.6 475.0,137.4 506.2,205.1 537.3,203.0 568.5,219.1 599.6,92.5 630.8,219.2 661.9,133.4 693.1,222.5 724.2,217.1 755.4,80.9 786.5,207.6 817.7,213.5 848.8,64.7 880.0,193.7" fill="none" stroke="#8c564b" stroke-width="2"/>
<circle cx="350.4" cy="213.6" r="3" fill="#8c564b"/>
<circle cx="475.0" cy="137.4" r="3" fill="#8c564b"/>
<circle cx="506.2" cy="205.1" r="3" fill="#8c564b"/>
<circle cx="537.3" cy="203.0" r="3" fill="#8c564b"/>
<circle cx="568.5" cy="219.1" r="3" fill="#8c564b"/>
<circle cx="599.6" cy="92.5" r="3" fill="#8c564b"/>
<circle cx="630.8" cy="219.2" r="3" fill="#8c564b"/>
<circle cx="661.9" cy="133.4" r="3" fill="#8c564b"/>
<circle cx="693.1" cy="222.5" r="3" fill="#8c564b"/>
<circle cx="724.2" cy="217.1" r="3" fill="#8c564b"/>
<circle cx="755.4" cy="80.9" r="3" fill="#8c564b"/>
<circle cx="786.5" cy="207.6" r="3" fill="#8c564b"/>
<circle cx="817.7" cy="213.5" r="3" fill="#8c564b"/>
<circle cx="848.8" cy="64.7" r="3" fill="#8c564b"/>
<circle cx="880.0" cy="193.7" r="3" fill="#8c564b"/>
<rect x="70.0" y="358" width="10" height="10" fill="#8c564b"/>
<text x="84.0" y="367" font-size="11" fill="#333">render tick (p95)</text>
<polyline points="506.2,270.7 537.3,273.5 568.5,278.0 599.6,274.7 630.8,274.6 661.9,277.4 693.1,278.8 724.2,272.2 755.4,271.0 786.5,275.1 817.7,272.7 848.8,273.7 880.0,273.8" fill="none" stroke="#1f77b4" stroke-width="2"/>
<circle cx="506.2" cy="270.7" r="3" fill="#1f77b4"/>
<circle cx="537.3" cy="273.5" r="3" fill="#1f77b4"/>
<circle cx="568.5" cy="278.0" r="3" fill="#1f77b4"/>
<circle cx="599.6" cy="274.7" r="3" fill="#1f77b4"/>
<circle cx="630.8" cy="274.6" r="3" fill="#1f77b4"/>
<circle cx="661.9" cy="277.4" r="3" fill="#1f77b4"/>
<circle cx="693.1" cy="278.8" r="3" fill="#1f77b4"/>
<circle cx="724.2" cy="272.2" r="3" fill="#1f77b4"/>
<circle cx="755.4" cy="271.0" r="3" fill="#1f77b4"/>
<circle cx="786.5" cy="275.1" r="3" fill="#1f77b4"/>
<circle cx="817.7" cy="272.7" r="3" fill="#1f77b4"/>
<circle cx="848.8" cy="273.7" r="3" fill="#1f77b4"/>
<circle cx="880.0" cy="273.8" r="3" fill="#1f77b4"/>
<rect x="340.0" y="358" width="10" height="10" fill="#1f77b4"/>
<text x="354.0" y="367" font-size="11" fill="#333">render mouth (wav2lip)</text>
<polyline points="506.2,299.0 537.3,302.7 568.5,304.1 599.6,302.4 630.8,301.0 661.9,304.1 693.1,304.4 724.2,298.5 755.4,303.3 786.5,303.2 817.7,302.4 848.8,301.3 880.0,303.2" fill="none" stroke="#2ca02c" stroke-width="2"/>
<circle cx="506.2" cy="299.0" r="3" fill="#2ca02c"/>
<circle cx="537.3" cy="302.7" r="3" fill="#2ca02c"/>
<circle cx="568.5" cy="304.1" r="3" fill="#2ca02c"/>
<circle cx="599.6" cy="302.4" r="3" fill="#2ca02c"/>
<circle cx="630.8" cy="301.0" r="3" fill="#2ca02c"/>
<circle cx="661.9" cy="304.1" r="3" fill="#2ca02c"/>
<circle cx="693.1" cy="304.4" r="3" fill="#2ca02c"/>
<circle cx="724.2" cy="298.5" r="3" fill="#2ca02c"/>
<circle cx="755.4" cy="303.3" r="3" fill="#2ca02c"/>
<circle cx="786.5" cy="303.2" r="3" fill="#2ca02c"/>
<circle cx="817.7" cy="302.4" r="3" fill="#2ca02c"/>
<circle cx="848.8" cy="301.3" r="3" fill="#2ca02c"/>
<circle cx="880.0" cy="303.2" r="3" fill="#2ca02c"/>
<rect x="610.0" y="358" width="10" height="10" fill="#2ca02c"/>
<text x="624.0" y="367" font-size="11" fill="#333">render compose (SkiaSharp)</text>
</svg>
