<svg xmlns="http://www.w3.org/2000/svg" width="900" height="380" viewBox="0 0 900 380" font-family="sans-serif">
<rect width="900" height="380" fill="white"/>
<text x="70" y="24" font-size="16" fill="#333">Render loop per-frame cost (ms, p50 unless noted) — 25fps budget is 40ms</text>
<line x1="70" y1="324.0" x2="880" y2="324.0" stroke="#e5e5e5"/>
<text x="64" y="328.0" font-size="11" fill="#666" text-anchor="end">0ms</text>
<line x1="70" y1="268.0" x2="880" y2="268.0" stroke="#e5e5e5"/>
<text x="64" y="272.0" font-size="11" fill="#666" text-anchor="end">74ms</text>
<line x1="70" y1="212.0" x2="880" y2="212.0" stroke="#e5e5e5"/>
<text x="64" y="216.0" font-size="11" fill="#666" text-anchor="end">148ms</text>
<line x1="70" y1="156.0" x2="880" y2="156.0" stroke="#e5e5e5"/>
<text x="64" y="160.0" font-size="11" fill="#666" text-anchor="end">222ms</text>
<line x1="70" y1="100.0" x2="880" y2="100.0" stroke="#e5e5e5"/>
<text x="64" y="104.0" font-size="11" fill="#666" text-anchor="end">296ms</text>
<line x1="70" y1="44.0" x2="880" y2="44.0" stroke="#e5e5e5"/>
<text x="64" y="48.0" font-size="11" fill="#666" text-anchor="end">369ms</text>
<line x1="70" y1="293.7" x2="880" y2="293.7" stroke="#d62728" stroke-width="1.5" stroke-dasharray="6,4"/>
<text x="876" y="288.7" font-size="11" fill="#d62728" text-anchor="end">budget 40ms</text>
<text x="70.0" y="342" font-size="11" fill="#666" text-anchor="start">07-16 16:02</text>
<text x="489.0" y="342" font-size="11" fill="#666" text-anchor="middle">07-17 13:17</text>
<text x="880.0" y="342" font-size="11" fill="#666" text-anchor="end">07-17 19:27</text>
<polyline points="321.4,213.6 433.1,137.4 461.0,205.1 489.0,203.0 516.9,219.1 544.8,92.5 572.8,219.2 600.7,133.4 628.6,222.5 656.6,217.1 684.5,80.9 712.4,207.6 740.3,213.5 768.3,64.7 796.2,193.7 824.1,201.3 852.1,177.8 880.0,221.2" fill="none" stroke="#8c564b" stroke-width="2"/>
<circle cx="321.4" cy="213.6" r="3" fill="#8c564b"/>
<circle cx="433.1" cy="137.4" r="3" fill="#8c564b"/>
<circle cx="461.0" cy="205.1" r="3" fill="#8c564b"/>
<circle cx="489.0" cy="203.0" r="3" fill="#8c564b"/>
<circle cx="516.9" cy="219.1" r="3" fill="#8c564b"/>
<circle cx="544.8" cy="92.5" r="3" fill="#8c564b"/>
<circle cx="572.8" cy="219.2" r="3" fill="#8c564b"/>
<circle cx="600.7" cy="133.4" r="3" fill="#8c564b"/>
<circle cx="628.6" cy="222.5" r="3" fill="#8c564b"/>
<circle cx="656.6" cy="217.1" r="3" fill="#8c564b"/>
<circle cx="684.5" cy="80.9" r="3" fill="#8c564b"/>
<circle cx="712.4" cy="207.6" r="3" fill="#8c564b"/>
<circle cx="740.3" cy="213.5" r="3" fill="#8c564b"/>
<circle cx="768.3" cy="64.7" r="3" fill="#8c564b"/>
<circle cx="796.2" cy="193.7" r="3" fill="#8c564b"/>
<circle cx="824.1" cy="201.3" r="3" fill="#8c564b"/>
<circle cx="852.1" cy="177.8" r="3" fill="#8c564b"/>
<circle cx="880.0" cy="221.2" r="3" fill="#8c564b"/>
<rect x="70.0" y="358" width="10" height="10" fill="#8c564b"/>
<text x="84.0" y="367" font-size="11" fill="#333">render tick (p95)</text>
<polyline points="461.0,270.7 489.0,273.5 516.9,278.0 544.8,274.7 572.8,274.6 600.7,277.4 628.6,278.8 656.6,272.2 684.5,271.0 712.4,275.1 740.3,272.7 768.3,273.7 796.2,273.8 824.1,274.2 852.1,269.0 880.0,278.3" fill="none" stroke="#1f77b4" stroke-width="2"/>
<circle cx="461.0" cy="270.7" r="3" fill="#1f77b4"/>
<circle cx="489.0" cy="273.5" r="3" fill="#1f77b4"/>
<circle cx="516.9" cy="278.0" r="3" fill="#1f77b4"/>
<circle cx="544.8" cy="274.7" r="3" fill="#1f77b4"/>
<circle cx="572.8" cy="274.6" r="3" fill="#1f77b4"/>
<circle cx="600.7" cy="277.4" r="3" fill="#1f77b4"/>
<circle cx="628.6" cy="278.8" r="3" fill="#1f77b4"/>
<circle cx="656.6" cy="272.2" r="3" fill="#1f77b4"/>
<circle cx="684.5" cy="271.0" r="3" fill="#1f77b4"/>
<circle cx="712.4" cy="275.1" r="3" fill="#1f77b4"/>
<circle cx="740.3" cy="272.7" r="3" fill="#1f77b4"/>
<circle cx="768.3" cy="273.7" r="3" fill="#1f77b4"/>
<circle cx="796.2" cy="273.8" r="3" fill="#1f77b4"/>
<circle cx="824.1" cy="274.2" r="3" fill="#1f77b4"/>
<circle cx="852.1" cy="269.0" r="3" fill="#1f77b4"/>
<circle cx="880.0" cy="278.3" r="3" fill="#1f77b4"/>
<rect x="340.0" y="358" width="10" height="10" fill="#1f77b4"/>
<text x="354.0" y="367" font-size="11" fill="#333">render mouth (wav2lip)</text>
<polyline points="461.0,299.0 489.0,302.7 516.9,304.1 544.8,302.4 572.8,301.0 600.7,304.1 628.6,304.4 656.6,298.5 684.5,303.3 712.4,303.2 740.3,302.4 768.3,301.3 796.2,303.2 824.1,304.0 852.1,301.1 880.0,304.4" fill="none" stroke="#2ca02c" stroke-width="2"/>
<circle cx="461.0" cy="299.0" r="3" fill="#2ca02c"/>
<circle cx="489.0" cy="302.7" r="3" fill="#2ca02c"/>
<circle cx="516.9" cy="304.1" r="3" fill="#2ca02c"/>
<circle cx="544.8" cy="302.4" r="3" fill="#2ca02c"/>
<circle cx="572.8" cy="301.0" r="3" fill="#2ca02c"/>
<circle cx="600.7" cy="304.1" r="3" fill="#2ca02c"/>
<circle cx="628.6" cy="304.4" r="3" fill="#2ca02c"/>
<circle cx="656.6" cy="298.5" r="3" fill="#2ca02c"/>
<circle cx="684.5" cy="303.3" r="3" fill="#2ca02c"/>
<circle cx="712.4" cy="303.2" r="3" fill="#2ca02c"/>
<circle cx="740.3" cy="302.4" r="3" fill="#2ca02c"/>
<circle cx="768.3" cy="301.3" r="3" fill="#2ca02c"/>
<circle cx="796.2" cy="303.2" r="3" fill="#2ca02c"/>
<circle cx="824.1" cy="304.0" r="3" fill="#2ca02c"/>
<circle cx="852.1" cy="301.1" r="3" fill="#2ca02c"/>
<circle cx="880.0" cy="304.4" r="3" fill="#2ca02c"/>
<rect x="610.0" y="358" width="10" height="10" fill="#2ca02c"/>
<text x="624.0" y="367" font-size="11" fill="#333">render compose (SkiaSharp)</text>
</svg>
