<svg xmlns="http://www.w3.org/2000/svg" width="900" height="380" viewBox="0 0 900 380" font-family="sans-serif">
<rect width="900" height="380" fill="white"/>
<text x="70" y="24" font-size="16" fill="#333">Render loop per-frame cost (ms, p50 unless noted) — 25fps budget is 40ms</text>
<line x1="70" y1="324.0" x2="880" y2="324.0" stroke="#e5e5e5"/>
<text x="64" y="328.0" font-size="11" fill="#666" text-anchor="end">0ms</text>
<line x1="70" y1="268.0" x2="880" y2="268.0" stroke="#e5e5e5"/>
<text x="64" y="272.0" font-size="11" fill="#666" text-anchor="end">69ms</text>
<line x1="70" y1="212.0" x2="880" y2="212.0" stroke="#e5e5e5"/>
<text x="64" y="216.0" font-size="11" fill="#666" text-anchor="end">139ms</text>
<line x1="70" y1="156.0" x2="880" y2="156.0" stroke="#e5e5e5"/>
<text x="64" y="160.0" font-size="11" fill="#666" text-anchor="end">208ms</text>
<line x1="70" y1="100.0" x2="880" y2="100.0" stroke="#e5e5e5"/>
<text x="64" y="104.0" font-size="11" fill="#666" text-anchor="end">277ms</text>
<line x1="70" y1="44.0" x2="880" y2="44.0" stroke="#e5e5e5"/>
<text x="64" y="48.0" font-size="11" fill="#666" text-anchor="end">346ms</text>
<line x1="70" y1="291.7" x2="880" y2="291.7" stroke="#d62728" stroke-width="1.5" stroke-dasharray="6,4"/>
<text x="876" y="286.7" font-size="11" fill="#d62728" text-anchor="end">budget 40ms</text>
<text x="70.0" y="342" font-size="11" fill="#666" text-anchor="start">07-16 16:02</text>
<text x="475.0" y="342" font-size="11" fill="#666" text-anchor="middle">07-16 22:34</text>
<text x="880.0" y="342" font-size="11" fill="#666" text-anchor="end">07-17 15:23</text>
<polyline points="401.4,206.3 548.6,125.0 585.5,197.2 622.3,195.0 659.1,212.1 695.9,77.1 732.7,212.2 769.5,120.7 806.4,215.8 843.2,210.0 880.0,64.7" fill="none" stroke="#8c564b" stroke-width="2"/>
<circle cx="401.4" cy="206.3" r="3" fill="#8c564b"/>
<circle cx="548.6" cy="125.0" r="3" fill="#8c564b"/>
<circle cx="585.5" cy="197.2" r="3" fill="#8c564b"/>
<circle cx="622.3" cy="195.0" r="3" fill="#8c564b"/>
<circle cx="659.1" cy="212.1" r="3" fill="#8c564b"/>
<circle cx="695.9" cy="77.1" r="3" fill="#8c564b"/>
<circle cx="732.7" cy="212.2" r="3" fill="#8c564b"/>
<circle cx="769.5" cy="120.7" r="3" fill="#8c564b"/>
<circle cx="806.4" cy="215.8" r="3" fill="#8c564b"/>
<circle cx="843.2" cy="210.0" r="3" fill="#8c564b"/>
<circle cx="880.0" cy="64.7" r="3" fill="#8c564b"/>
<rect x="70.0" y="358" width="10" height="10" fill="#8c564b"/>
<text x="84.0" y="367" font-size="11" fill="#333">render tick (p95)</text>
<polyline points="585.5,267.2 622.3,270.1 659.1,274.9 695.9,271.4 732.7,271.3 769.5,274.3 806.4,275.8 843.2,268.8 880.0,267.4" fill="none" stroke="#1f77b4" stroke-width="2"/>
<circle cx="585.5" cy="267.2" r="3" fill="#1f77b4"/>
<circle cx="622.3" cy="270.1" r="3" fill="#1f77b4"/>
<circle cx="659.1" cy="274.9" r="3" fill="#1f77b4"/>
<circle cx="695.9" cy="271.4" r="3" fill="#1f77b4"/>
<circle cx="732.7" cy="271.3" r="3" fill="#1f77b4"/>
<circle cx="769.5" cy="274.3" r="3" fill="#1f77b4"/>
<circle cx="806.4" cy="275.8" r="3" fill="#1f77b4"/>
<circle cx="843.2" cy="268.8" r="3" fill="#1f77b4"/>
<circle cx="880.0" cy="267.4" r="3" fill="#1f77b4"/>
<rect x="340.0" y="358" width="10" height="10" fill="#1f77b4"/>
<text x="354.0" y="367" font-size="11" fill="#333">render mouth (wav2lip)</text>
<polyline points="585.5,297.3 622.3,301.3 659.1,302.8 695.9,301.0 732.7,299.4 769.5,302.8 806.4,303.1 843.2,296.8 880.0,301.9" fill="none" stroke="#2ca02c" stroke-width="2"/>
<circle cx="585.5" cy="297.3" r="3" fill="#2ca02c"/>
<circle cx="622.3" cy="301.3" r="3" fill="#2ca02c"/>
<circle cx="659.1" cy="302.8" r="3" fill="#2ca02c"/>
<circle cx="695.9" cy="301.0" r="3" fill="#2ca02c"/>
<circle cx="732.7" cy="299.4" r="3" fill="#2ca02c"/>
<circle cx="769.5" cy="302.8" r="3" fill="#2ca02c"/>
<circle cx="806.4" cy="303.1" r="3" fill="#2ca02c"/>
<circle cx="843.2" cy="296.8" r="3" fill="#2ca02c"/>
<circle cx="880.0" cy="301.9" r="3" fill="#2ca02c"/>
<rect x="610.0" y="358" width="10" height="10" fill="#2ca02c"/>
<text x="624.0" y="367" font-size="11" fill="#333">render compose (SkiaSharp)</text>
</svg>
