<svg xmlns="http://www.w3.org/2000/svg" width="900" height="380" viewBox="0 0 900 380" font-family="sans-serif">
<rect width="900" height="380" fill="white"/>
<text x="70" y="24" font-size="16" fill="#333">Render loop per-frame cost (ms, p50 unless noted) — 25fps budget is 40ms</text>
<line x1="70" y1="324.0" x2="880" y2="324.0" stroke="#e5e5e5"/>
<text x="64" y="328.0" font-size="11" fill="#666" text-anchor="end">0ms</text>
<line x1="70" y1="268.0" x2="880" y2="268.0" stroke="#e5e5e5"/>
<text x="64" y="272.0" font-size="11" fill="#666" text-anchor="end">74ms</text>
<line x1="70" y1="212.0" x2="880" y2="212.0" stroke="#e5e5e5"/>
<text x="64" y="216.0" font-size="11" fill="#666" text-anchor="end">148ms</text>
<line x1="70" y1="156.0" x2="880" y2="156.0" stroke="#e5e5e5"/>
<text x="64" y="160.0" font-size="11" fill="#666" text-anchor="end">222ms</text>
<line x1="70" y1="100.0" x2="880" y2="100.0" stroke="#e5e5e5"/>
<text x="64" y="104.0" font-size="11" fill="#666" text-anchor="end">296ms</text>
<line x1="70" y1="44.0" x2="880" y2="44.0" stroke="#e5e5e5"/>
<text x="64" y="48.0" font-size="11" fill="#666" text-anchor="end">369ms</text>
<line x1="70" y1="293.7" x2="880" y2="293.7" stroke="#d62728" stroke-width="1.5" stroke-dasharray="6,4"/>
<text x="876" y="288.7" font-size="11" fill="#d62728" text-anchor="end">budget 40ms</text>
<text x="70.0" y="342" font-size="11" fill="#666" text-anchor="start">07-16 16:02</text>
<text x="484.9" y="342" font-size="11" fill="#666" text-anchor="middle">07-17 15:18</text>
<text x="880.0" y="342" font-size="11" fill="#666" text-anchor="end">07-17 20:50</text>
<polyline points="247.8,213.6 326.8,137.4 346.6,205.1 366.3,203.0 386.1,219.1 405.9,92.5 425.6,219.2 445.4,133.4 465.1,222.5 484.9,217.1 504.6,80.9 524.4,207.6 544.1,213.5 563.9,64.7 583.7,193.7 603.4,201.3 623.2,177.8 642.9,221.2 702.2,217.1 722.0,216.1 741.7,207.0 761.5,207.7 781.2,214.9 801.0,199.8 820.7,219.9 840.5,209.6 860.2,210.6 880.0,229.5" fill="none" stroke="#8c564b" stroke-width="2"/>
<circle cx="247.8" cy="213.6" r="3" fill="#8c564b"/>
<circle cx="326.8" cy="137.4" r="3" fill="#8c564b"/>
<circle cx="346.6" cy="205.1" r="3" fill="#8c564b"/>
<circle cx="366.3" cy="203.0" r="3" fill="#8c564b"/>
<circle cx="386.1" cy="219.1" r="3" fill="#8c564b"/>
<circle cx="405.9" cy="92.5" r="3" fill="#8c564b"/>
<circle cx="425.6" cy="219.2" r="3" fill="#8c564b"/>
<circle cx="445.4" cy="133.4" r="3" fill="#8c564b"/>
<circle cx="465.1" cy="222.5" r="3" fill="#8c564b"/>
<circle cx="484.9" cy="217.1" r="3" fill="#8c564b"/>
<circle cx="504.6" cy="80.9" r="3" fill="#8c564b"/>
<circle cx="524.4" cy="207.6" r="3" fill="#8c564b"/>
<circle cx="544.1" cy="213.5" r="3" fill="#8c564b"/>
<circle cx="563.9" cy="64.7" r="3" fill="#8c564b"/>
<circle cx="583.7" cy="193.7" r="3" fill="#8c564b"/>
<circle cx="603.4" cy="201.3" r="3" fill="#8c564b"/>
<circle cx="623.2" cy="177.8" r="3" fill="#8c564b"/>
<circle cx="642.9" cy="221.2" r="3" fill="#8c564b"/>
<circle cx="702.2" cy="217.1" r="3" fill="#8c564b"/>
<circle cx="722.0" cy="216.1" r="3" fill="#8c564b"/>
<circle cx="741.7" cy="207.0" r="3" fill="#8c564b"/>
<circle cx="761.5" cy="207.7" r="3" fill="#8c564b"/>
<circle cx="781.2" cy="214.9" r="3" fill="#8c564b"/>
<circle cx="801.0" cy="199.8" r="3" fill="#8c564b"/>
<circle cx="820.7" cy="219.9" r="3" fill="#8c564b"/>
<circle cx="840.5" cy="209.6" r="3" fill="#8c564b"/>
<circle cx="860.2" cy="210.6" r="3" fill="#8c564b"/>
<circle cx="880.0" cy="229.5" r="3" fill="#8c564b"/>
<rect x="70.0" y="358" width="10" height="10" fill="#8c564b"/>
<text x="84.0" y="367" font-size="11" fill="#333">render tick (p95)</text>
<polyline points="346.6,270.7 366.3,273.5 386.1,278.0 405.9,274.7 425.6,274.6 445.4,277.4 465.1,278.8 484.9,272.2 504.6,271.0 524.4,275.1 544.1,272.7 563.9,273.7 583.7,273.8 603.4,274.2 623.2,269.0 642.9,278.3 702.2,273.6 722.0,277.7 741.7,274.1 761.5,274.4 781.2,273.8 801.0,272.2 820.7,276.3 840.5,271.4 860.2,272.5 880.0,272.8" fill="none" stroke="#1f77b4" stroke-width="2"/>
<circle cx="346.6" cy="270.7" r="3" fill="#1f77b4"/>
<circle cx="366.3" cy="273.5" r="3" fill="#1f77b4"/>
<circle cx="386.1" cy="278.0" r="3" fill="#1f77b4"/>
<circle cx="405.9" cy="274.7" r="3" fill="#1f77b4"/>
<circle cx="425.6" cy="274.6" r="3" fill="#1f77b4"/>
<circle cx="445.4" cy="277.4" r="3" fill="#1f77b4"/>
<circle cx="465.1" cy="278.8" r="3" fill="#1f77b4"/>
<circle cx="484.9" cy="272.2" r="3" fill="#1f77b4"/>
<circle cx="504.6" cy="271.0" r="3" fill="#1f77b4"/>
<circle cx="524.4" cy="275.1" r="3" fill="#1f77b4"/>
<circle cx="544.1" cy="272.7" r="3" fill="#1f77b4"/>
<circle cx="563.9" cy="273.7" r="3" fill="#1f77b4"/>
<circle cx="583.7" cy="273.8" r="3" fill="#1f77b4"/>
<circle cx="603.4" cy="274.2" r="3" fill="#1f77b4"/>
<circle cx="623.2" cy="269.0" r="3" fill="#1f77b4"/>
<circle cx="642.9" cy="278.3" r="3" fill="#1f77b4"/>
<circle cx="702.2" cy="273.6" r="3" fill="#1f77b4"/>
<circle cx="722.0" cy="277.7" r="3" fill="#1f77b4"/>
<circle cx="741.7" cy="274.1" r="3" fill="#1f77b4"/>
<circle cx="761.5" cy="274.4" r="3" fill="#1f77b4"/>
<circle cx="781.2" cy="273.8" r="3" fill="#1f77b4"/>
<circle cx="801.0" cy="272.2" r="3" fill="#1f77b4"/>
<circle cx="820.7" cy="276.3" r="3" fill="#1f77b4"/>
<circle cx="840.5" cy="271.4" r="3" fill="#1f77b4"/>
<circle cx="860.2" cy="272.5" r="3" fill="#1f77b4"/>
<circle cx="880.0" cy="272.8" r="3" fill="#1f77b4"/>
<rect x="340.0" y="358" width="10" height="10" fill="#1f77b4"/>
<text x="354.0" y="367" font-size="11" fill="#333">render mouth (wav2lip)</text>
<polyline points="346.6,299.0 366.3,302.7 386.1,304.1 405.9,302.4 425.6,301.0 445.4,304.1 465.1,304.4 484.9,298.5 504.6,303.3 524.4,303.2 544.1,302.4 563.9,301.3 583.7,303.2 603.4,304.0 623.2,301.1 642.9,304.4 702.2,302.9 722.0,303.5 741.7,301.9 761.5,301.6 781.2,302.2 801.0,301.3 820.7,303.1 840.5,299.4 860.2,302.2 880.0,303.5" fill="none" stroke="#2ca02c" stroke-width="2"/>
<circle cx="346.6" cy="299.0" r="3" fill="#2ca02c"/>
<circle cx="366.3" cy="302.7" r="3" fill="#2ca02c"/>
<circle cx="386.1" cy="304.1" r="3" fill="#2ca02c"/>
<circle cx="405.9" cy="302.4" r="3" fill="#2ca02c"/>
<circle cx="425.6" cy="301.0" r="3" fill="#2ca02c"/>
<circle cx="445.4" cy="304.1" r="3" fill="#2ca02c"/>
<circle cx="465.1" cy="304.4" r="3" fill="#2ca02c"/>
<circle cx="484.9" cy="298.5" r="3" fill="#2ca02c"/>
<circle cx="504.6" cy="303.3" r="3" fill="#2ca02c"/>
<circle cx="524.4" cy="303.2" r="3" fill="#2ca02c"/>
<circle cx="544.1" cy="302.4" r="3" fill="#2ca02c"/>
<circle cx="563.9" cy="301.3" r="3" fill="#2ca02c"/>
<circle cx="583.7" cy="303.2" r="3" fill="#2ca02c"/>
<circle cx="603.4" cy="304.0" r="3" fill="#2ca02c"/>
<circle cx="623.2" cy="301.1" r="3" fill="#2ca02c"/>
<circle cx="642.9" cy="304.4" r="3" fill="#2ca02c"/>
<circle cx="702.2" cy="302.9" r="3" fill="#2ca02c"/>
<circle cx="722.0" cy="303.5" r="3" fill="#2ca02c"/>
<circle cx="741.7" cy="301.9" r="3" fill="#2ca02c"/>
<circle cx="761.5" cy="301.6" r="3" fill="#2ca02c"/>
<circle cx="781.2" cy="302.2" r="3" fill="#2ca02c"/>
<circle cx="801.0" cy="301.3" r="3" fill="#2ca02c"/>
<circle cx="820.7" cy="303.1" r="3" fill="#2ca02c"/>
<circle cx="840.5" cy="299.4" r="3" fill="#2ca02c"/>
<circle cx="860.2" cy="302.2" r="3" fill="#2ca02c"/>
<circle cx="880.0" cy="303.5" r="3" fill="#2ca02c"/>
<rect x="610.0" y="358" width="10" height="10" fill="#2ca02c"/>
<text x="624.0" y="367" font-size="11" fill="#333">render compose (SkiaSharp)</text>
</svg>
