<svg xmlns="http://www.w3.org/2000/svg" width="900" height="380" viewBox="0 0 900 380" font-family="sans-serif">
<rect width="900" height="380" fill="white"/>
<text x="70" y="24" font-size="16" fill="#333">Render loop per-frame cost (ms, p50 unless noted) — 25fps budget is 40ms</text>
<line x1="70" y1="324.0" x2="880" y2="324.0" stroke="#e5e5e5"/>
<text x="64" y="328.0" font-size="11" fill="#666" text-anchor="end">0ms</text>
<line x1="70" y1="268.0" x2="880" y2="268.0" stroke="#e5e5e5"/>
<text x="64" y="272.0" font-size="11" fill="#666" text-anchor="end">74ms</text>
<line x1="70" y1="212.0" x2="880" y2="212.0" stroke="#e5e5e5"/>
<text x="64" y="216.0" font-size="11" fill="#666" text-anchor="end">148ms</text>
<line x1="70" y1="156.0" x2="880" y2="156.0" stroke="#e5e5e5"/>
<text x="64" y="160.0" font-size="11" fill="#666" text-anchor="end">222ms</text>
<line x1="70" y1="100.0" x2="880" y2="100.0" stroke="#e5e5e5"/>
<text x="64" y="104.0" font-size="11" fill="#666" text-anchor="end">296ms</text>
<line x1="70" y1="44.0" x2="880" y2="44.0" stroke="#e5e5e5"/>
<text x="64" y="48.0" font-size="11" fill="#666" text-anchor="end">369ms</text>
<line x1="70" y1="293.7" x2="880" y2="293.7" stroke="#d62728" stroke-width="1.5" stroke-dasharray="6,4"/>
<text x="876" y="288.7" font-size="11" fill="#d62728" text-anchor="end">budget 40ms</text>
<text x="70.0" y="342" font-size="11" fill="#666" text-anchor="start">07-16 16:02</text>
<text x="484.4" y="342" font-size="11" fill="#666" text-anchor="middle">07-17 15:23</text>
<text x="880.0" y="342" font-size="11" fill="#666" text-anchor="end">07-17 21:56</text>
<polyline points="239.5,213.6 314.9,137.4 333.7,205.1 352.6,203.0 371.4,219.1 390.2,92.5 409.1,219.2 427.9,133.4 446.7,222.5 465.6,217.1 484.4,80.9 503.3,207.6 522.1,213.5 540.9,64.7 559.8,193.7 578.6,201.3 597.4,177.8 616.3,221.2 672.8,217.1 691.6,216.1 710.5,207.0 729.3,207.7 748.1,214.9 767.0,199.8 785.8,219.9 804.7,209.6 823.5,210.6 842.3,229.5 861.2,162.0 880.0,215.8" fill="none" stroke="#8c564b" stroke-width="2"/>
<circle cx="239.5" cy="213.6" r="3" fill="#8c564b"/>
<circle cx="314.9" cy="137.4" r="3" fill="#8c564b"/>
<circle cx="333.7" cy="205.1" r="3" fill="#8c564b"/>
<circle cx="352.6" cy="203.0" r="3" fill="#8c564b"/>
<circle cx="371.4" cy="219.1" r="3" fill="#8c564b"/>
<circle cx="390.2" cy="92.5" r="3" fill="#8c564b"/>
<circle cx="409.1" cy="219.2" r="3" fill="#8c564b"/>
<circle cx="427.9" cy="133.4" r="3" fill="#8c564b"/>
<circle cx="446.7" cy="222.5" r="3" fill="#8c564b"/>
<circle cx="465.6" cy="217.1" r="3" fill="#8c564b"/>
<circle cx="484.4" cy="80.9" r="3" fill="#8c564b"/>
<circle cx="503.3" cy="207.6" r="3" fill="#8c564b"/>
<circle cx="522.1" cy="213.5" r="3" fill="#8c564b"/>
<circle cx="540.9" cy="64.7" r="3" fill="#8c564b"/>
<circle cx="559.8" cy="193.7" r="3" fill="#8c564b"/>
<circle cx="578.6" cy="201.3" r="3" fill="#8c564b"/>
<circle cx="597.4" cy="177.8" r="3" fill="#8c564b"/>
<circle cx="616.3" cy="221.2" r="3" fill="#8c564b"/>
<circle cx="672.8" cy="217.1" r="3" fill="#8c564b"/>
<circle cx="691.6" cy="216.1" r="3" fill="#8c564b"/>
<circle cx="710.5" cy="207.0" r="3" fill="#8c564b"/>
<circle cx="729.3" cy="207.7" r="3" fill="#8c564b"/>
<circle cx="748.1" cy="214.9" r="3" fill="#8c564b"/>
<circle cx="767.0" cy="199.8" r="3" fill="#8c564b"/>
<circle cx="785.8" cy="219.9" r="3" fill="#8c564b"/>
<circle cx="804.7" cy="209.6" r="3" fill="#8c564b"/>
<circle cx="823.5" cy="210.6" r="3" fill="#8c564b"/>
<circle cx="842.3" cy="229.5" r="3" fill="#8c564b"/>
<circle cx="861.2" cy="162.0" r="3" fill="#8c564b"/>
<circle cx="880.0" cy="215.8" r="3" fill="#8c564b"/>
<rect x="70.0" y="358" width="10" height="10" fill="#8c564b"/>
<text x="84.0" y="367" font-size="11" fill="#333">render tick (p95)</text>
<polyline points="333.7,270.7 352.6,273.5 371.4,278.0 390.2,274.7 409.1,274.6 427.9,277.4 446.7,278.8 465.6,272.2 484.4,271.0 503.3,275.1 522.1,272.7 540.9,273.7 559.8,273.8 578.6,274.2 597.4,269.0 616.3,278.3 672.8,273.6 691.6,277.7 710.5,274.1 729.3,274.4 748.1,273.8 767.0,272.2 785.8,276.3 804.7,271.4 823.5,272.5 842.3,272.8 861.2,204.3 880.0,259.7" fill="none" stroke="#1f77b4" stroke-width="2"/>
<circle cx="333.7" cy="270.7" r="3" fill="#1f77b4"/>
<circle cx="352.6" cy="273.5" r="3" fill="#1f77b4"/>
<circle cx="371.4" cy="278.0" r="3" fill="#1f77b4"/>
<circle cx="390.2" cy="274.7" r="3" fill="#1f77b4"/>
<circle cx="409.1" cy="274.6" r="3" fill="#1f77b4"/>
<circle cx="427.9" cy="277.4" r="3" fill="#1f77b4"/>
<circle cx="446.7" cy="278.8" r="3" fill="#1f77b4"/>
<circle cx="465.6" cy="272.2" r="3" fill="#1f77b4"/>
<circle cx="484.4" cy="271.0" r="3" fill="#1f77b4"/>
<circle cx="503.3" cy="275.1" r="3" fill="#1f77b4"/>
<circle cx="522.1" cy="272.7" r="3" fill="#1f77b4"/>
<circle cx="540.9" cy="273.7" r="3" fill="#1f77b4"/>
<circle cx="559.8" cy="273.8" r="3" fill="#1f77b4"/>
<circle cx="578.6" cy="274.2" r="3" fill="#1f77b4"/>
<circle cx="597.4" cy="269.0" r="3" fill="#1f77b4"/>
<circle cx="616.3" cy="278.3" r="3" fill="#1f77b4"/>
<circle cx="672.8" cy="273.6" r="3" fill="#1f77b4"/>
<circle cx="691.6" cy="277.7" r="3" fill="#1f77b4"/>
<circle cx="710.5" cy="274.1" r="3" fill="#1f77b4"/>
<circle cx="729.3" cy="274.4" r="3" fill="#1f77b4"/>
<circle cx="748.1" cy="273.8" r="3" fill="#1f77b4"/>
<circle cx="767.0" cy="272.2" r="3" fill="#1f77b4"/>
<circle cx="785.8" cy="276.3" r="3" fill="#1f77b4"/>
<circle cx="804.7" cy="271.4" r="3" fill="#1f77b4"/>
<circle cx="823.5" cy="272.5" r="3" fill="#1f77b4"/>
<circle cx="842.3" cy="272.8" r="3" fill="#1f77b4"/>
<circle cx="861.2" cy="204.3" r="3" fill="#1f77b4"/>
<circle cx="880.0" cy="259.7" r="3" fill="#1f77b4"/>
<rect x="340.0" y="358" width="10" height="10" fill="#1f77b4"/>
<text x="354.0" y="367" font-size="11" fill="#333">render mouth (wav2lip)</text>
<polyline points="333.7,299.0 352.6,302.7 371.4,304.1 390.2,302.4 409.1,301.0 427.9,304.1 446.7,304.4 465.6,298.5 484.4,303.3 503.3,303.2 522.1,302.4 540.9,301.3 559.8,303.2 578.6,304.0 597.4,301.1 616.3,304.4 672.8,302.9 691.6,303.5 710.5,301.9 729.3,301.6 748.1,302.2 767.0,301.3 785.8,303.1 804.7,299.4 823.5,302.2 842.3,303.5 861.2,304.8 880.0,305.8" fill="none" stroke="#2ca02c" stroke-width="2"/>
<circle cx="333.7" cy="299.0" r="3" fill="#2ca02c"/>
<circle cx="352.6" cy="302.7" r="3" fill="#2ca02c"/>
<circle cx="371.4" cy="304.1" r="3" fill="#2ca02c"/>
<circle cx="390.2" cy="302.4" r="3" fill="#2ca02c"/>
<circle cx="409.1" cy="301.0" r="3" fill="#2ca02c"/>
<circle cx="427.9" cy="304.1" r="3" fill="#2ca02c"/>
<circle cx="446.7" cy="304.4" r="3" fill="#2ca02c"/>
<circle cx="465.6" cy="298.5" r="3" fill="#2ca02c"/>
<circle cx="484.4" cy="303.3" r="3" fill="#2ca02c"/>
<circle cx="503.3" cy="303.2" r="3" fill="#2ca02c"/>
<circle cx="522.1" cy="302.4" r="3" fill="#2ca02c"/>
<circle cx="540.9" cy="301.3" r="3" fill="#2ca02c"/>
<circle cx="559.8" cy="303.2" r="3" fill="#2ca02c"/>
<circle cx="578.6" cy="304.0" r="3" fill="#2ca02c"/>
<circle cx="597.4" cy="301.1" r="3" fill="#2ca02c"/>
<circle cx="616.3" cy="304.4" r="3" fill="#2ca02c"/>
<circle cx="672.8" cy="302.9" r="3" fill="#2ca02c"/>
<circle cx="691.6" cy="303.5" r="3" fill="#2ca02c"/>
<circle cx="710.5" cy="301.9" r="3" fill="#2ca02c"/>
<circle cx="729.3" cy="301.6" r="3" fill="#2ca02c"/>
<circle cx="748.1" cy="302.2" r="3" fill="#2ca02c"/>
<circle cx="767.0" cy="301.3" r="3" fill="#2ca02c"/>
<circle cx="785.8" cy="303.1" r="3" fill="#2ca02c"/>
<circle cx="804.7" cy="299.4" r="3" fill="#2ca02c"/>
<circle cx="823.5" cy="302.2" r="3" fill="#2ca02c"/>
<circle cx="842.3" cy="303.5" r="3" fill="#2ca02c"/>
<circle cx="861.2" cy="304.8" r="3" fill="#2ca02c"/>
<circle cx="880.0" cy="305.8" r="3" fill="#2ca02c"/>
<rect x="610.0" y="358" width="10" height="10" fill="#2ca02c"/>
<text x="624.0" y="367" font-size="11" fill="#333">render compose (SkiaSharp)</text>
</svg>
