<svg xmlns="http://www.w3.org/2000/svg" width="900" height="380" viewBox="0 0 900 380" font-family="sans-serif">
<rect width="900" height="380" fill="white"/>
<text x="70" y="24" font-size="16" fill="#333">Render loop per-frame cost (ms, p50 unless noted) — 25fps budget is 40ms</text>
<line x1="70" y1="324.0" x2="880" y2="324.0" stroke="#e5e5e5"/>
<text x="64" y="328.0" font-size="11" fill="#666" text-anchor="end">0ms</text>
<line x1="70" y1="268.0" x2="880" y2="268.0" stroke="#e5e5e5"/>
<text x="64" y="272.0" font-size="11" fill="#666" text-anchor="end">74ms</text>
<line x1="70" y1="212.0" x2="880" y2="212.0" stroke="#e5e5e5"/>
<text x="64" y="216.0" font-size="11" fill="#666" text-anchor="end">148ms</text>
<line x1="70" y1="156.0" x2="880" y2="156.0" stroke="#e5e5e5"/>
<text x="64" y="160.0" font-size="11" fill="#666" text-anchor="end">222ms</text>
<line x1="70" y1="100.0" x2="880" y2="100.0" stroke="#e5e5e5"/>
<text x="64" y="104.0" font-size="11" fill="#666" text-anchor="end">296ms</text>
<line x1="70" y1="44.0" x2="880" y2="44.0" stroke="#e5e5e5"/>
<text x="64" y="48.0" font-size="11" fill="#666" text-anchor="end">369ms</text>
<line x1="70" y1="293.7" x2="880" y2="293.7" stroke="#d62728" stroke-width="1.5" stroke-dasharray="6,4"/>
<text x="876" y="288.7" font-size="11" fill="#d62728" text-anchor="end">budget 40ms</text>
<text x="70.0" y="342" font-size="11" fill="#666" text-anchor="start">07-16 16:02</text>
<text x="482.9" y="342" font-size="11" fill="#666" text-anchor="middle">07-17 18:46</text>
<text x="880.0" y="342" font-size="11" fill="#666" text-anchor="end">07-18 08:28</text>
<polyline points="212.9,213.6 276.5,137.4 292.4,205.1 308.2,203.0 324.1,219.1 340.0,92.5 355.9,219.2 371.8,133.4 387.6,222.5 403.5,217.1 419.4,80.9 435.3,207.6 451.2,213.5 467.1,64.7 482.9,193.7 498.8,201.3 514.7,177.8 530.6,221.2 578.2,217.1 594.1,216.1 610.0,207.0 625.9,207.7 641.8,214.9 657.6,199.8 673.5,219.9 689.4,209.6 705.3,210.6 721.2,229.5 737.1,162.0 752.9,215.8 768.8,236.9 784.7,198.5 800.6,230.6 816.5,225.5 832.4,251.0 848.2,250.8 864.1,208.3 880.0,225.5" fill="none" stroke="#8c564b" stroke-width="2"/>
<circle cx="212.9" cy="213.6" r="3" fill="#8c564b"/>
<circle cx="276.5" cy="137.4" r="3" fill="#8c564b"/>
<circle cx="292.4" cy="205.1" r="3" fill="#8c564b"/>
<circle cx="308.2" cy="203.0" r="3" fill="#8c564b"/>
<circle cx="324.1" cy="219.1" r="3" fill="#8c564b"/>
<circle cx="340.0" cy="92.5" r="3" fill="#8c564b"/>
<circle cx="355.9" cy="219.2" r="3" fill="#8c564b"/>
<circle cx="371.8" cy="133.4" r="3" fill="#8c564b"/>
<circle cx="387.6" cy="222.5" r="3" fill="#8c564b"/>
<circle cx="403.5" cy="217.1" r="3" fill="#8c564b"/>
<circle cx="419.4" cy="80.9" r="3" fill="#8c564b"/>
<circle cx="435.3" cy="207.6" r="3" fill="#8c564b"/>
<circle cx="451.2" cy="213.5" r="3" fill="#8c564b"/>
<circle cx="467.1" cy="64.7" r="3" fill="#8c564b"/>
<circle cx="482.9" cy="193.7" r="3" fill="#8c564b"/>
<circle cx="498.8" cy="201.3" r="3" fill="#8c564b"/>
<circle cx="514.7" cy="177.8" r="3" fill="#8c564b"/>
<circle cx="530.6" cy="221.2" r="3" fill="#8c564b"/>
<circle cx="578.2" cy="217.1" r="3" fill="#8c564b"/>
<circle cx="594.1" cy="216.1" r="3" fill="#8c564b"/>
<circle cx="610.0" cy="207.0" r="3" fill="#8c564b"/>
<circle cx="625.9" cy="207.7" r="3" fill="#8c564b"/>
<circle cx="641.8" cy="214.9" r="3" fill="#8c564b"/>
<circle cx="657.6" cy="199.8" r="3" fill="#8c564b"/>
<circle cx="673.5" cy="219.9" r="3" fill="#8c564b"/>
<circle cx="689.4" cy="209.6" r="3" fill="#8c564b"/>
<circle cx="705.3" cy="210.6" r="3" fill="#8c564b"/>
<circle cx="721.2" cy="229.5" r="3" fill="#8c564b"/>
<circle cx="737.1" cy="162.0" r="3" fill="#8c564b"/>
<circle cx="752.9" cy="215.8" r="3" fill="#8c564b"/>
<circle cx="768.8" cy="236.9" r="3" fill="#8c564b"/>
<circle cx="784.7" cy="198.5" r="3" fill="#8c564b"/>
<circle cx="800.6" cy="230.6" r="3" fill="#8c564b"/>
<circle cx="816.5" cy="225.5" r="3" fill="#8c564b"/>
<circle cx="832.4" cy="251.0" r="3" fill="#8c564b"/>
<circle cx="848.2" cy="250.8" r="3" fill="#8c564b"/>
<circle cx="864.1" cy="208.3" r="3" fill="#8c564b"/>
<circle cx="880.0" cy="225.5" r="3" fill="#8c564b"/>
<rect x="70.0" y="358" width="10" height="10" fill="#8c564b"/>
<text x="84.0" y="367" font-size="11" fill="#333">render tick (p95)</text>
<polyline points="292.4,270.7 308.2,273.5 324.1,278.0 340.0,274.7 355.9,274.6 371.8,277.4 387.6,278.8 403.5,272.2 419.4,271.0 435.3,275.1 451.2,272.7 467.1,273.7 482.9,273.8 498.8,274.2 514.7,269.0 530.6,278.3 578.2,273.6 594.1,277.7 610.0,274.1 625.9,274.4 641.8,273.8 657.6,272.2 673.5,276.3 689.4,271.4 705.3,272.5 721.2,272.8 737.1,204.3 752.9,259.7 768.8,276.6 784.7,276.3 800.6,280.0 816.5,280.2 832.4,324.0 848.2,324.0 864.1,254.4 880.0,273.6" fill="none" stroke="#1f77b4" stroke-width="2"/>
<circle cx="292.4" cy="270.7" r="3" fill="#1f77b4"/>
<circle cx="308.2" cy="273.5" r="3" fill="#1f77b4"/>
<circle cx="324.1" cy="278.0" r="3" fill="#1f77b4"/>
<circle cx="340.0" cy="274.7" r="3" fill="#1f77b4"/>
<circle cx="355.9" cy="274.6" r="3" fill="#1f77b4"/>
<circle cx="371.8" cy="277.4" r="3" fill="#1f77b4"/>
<circle cx="387.6" cy="278.8" r="3" fill="#1f77b4"/>
<circle cx="403.5" cy="272.2" r="3" fill="#1f77b4"/>
<circle cx="419.4" cy="271.0" r="3" fill="#1f77b4"/>
<circle cx="435.3" cy="275.1" r="3" fill="#1f77b4"/>
<circle cx="451.2" cy="272.7" r="3" fill="#1f77b4"/>
<circle cx="467.1" cy="273.7" r="3" fill="#1f77b4"/>
<circle cx="482.9" cy="273.8" r="3" fill="#1f77b4"/>
<circle cx="498.8" cy="274.2" r="3" fill="#1f77b4"/>
<circle cx="514.7" cy="269.0" r="3" fill="#1f77b4"/>
<circle cx="530.6" cy="278.3" r="3" fill="#1f77b4"/>
<circle cx="578.2" cy="273.6" r="3" fill="#1f77b4"/>
<circle cx="594.1" cy="277.7" r="3" fill="#1f77b4"/>
<circle cx="610.0" cy="274.1" r="3" fill="#1f77b4"/>
<circle cx="625.9" cy="274.4" r="3" fill="#1f77b4"/>
<circle cx="641.8" cy="273.8" r="3" fill="#1f77b4"/>
<circle cx="657.6" cy="272.2" r="3" fill="#1f77b4"/>
<circle cx="673.5" cy="276.3" r="3" fill="#1f77b4"/>
<circle cx="689.4" cy="271.4" r="3" fill="#1f77b4"/>
<circle cx="705.3" cy="272.5" r="3" fill="#1f77b4"/>
<circle cx="721.2" cy="272.8" r="3" fill="#1f77b4"/>
<circle cx="737.1" cy="204.3" r="3" fill="#1f77b4"/>
<circle cx="752.9" cy="259.7" r="3" fill="#1f77b4"/>
<circle cx="768.8" cy="276.6" r="3" fill="#1f77b4"/>
<circle cx="784.7" cy="276.3" r="3" fill="#1f77b4"/>
<circle cx="800.6" cy="280.0" r="3" fill="#1f77b4"/>
<circle cx="816.5" cy="280.2" r="3" fill="#1f77b4"/>
<circle cx="832.4" cy="324.0" r="3" fill="#1f77b4"/>
<circle cx="848.2" cy="324.0" r="3" fill="#1f77b4"/>
<circle cx="864.1" cy="254.4" r="3" fill="#1f77b4"/>
<circle cx="880.0" cy="273.6" r="3" fill="#1f77b4"/>
<rect x="340.0" y="358" width="10" height="10" fill="#1f77b4"/>
<text x="354.0" y="367" font-size="11" fill="#333">render mouth (wav2lip)</text>
<polyline points="292.4,299.0 308.2,302.7 324.1,304.1 340.0,302.4 355.9,301.0 371.8,304.1 387.6,304.4 403.5,298.5 419.4,303.3 435.3,303.2 451.2,302.4 467.1,301.3 482.9,303.2 498.8,304.0 514.7,301.1 530.6,304.4 578.2,302.9 594.1,303.5 610.0,301.9 625.9,301.6 641.8,302.2 657.6,301.3 673.5,303.1 689.4,299.4 705.3,302.2 721.2,303.5 737.1,304.8 752.9,305.8 768.8,304.8 784.7,302.4 800.6,304.8 816.5,304.6 832.4,305.6 848.2,305.9 864.1,306.5 880.0,303.6" fill="none" stroke="#2ca02c" stroke-width="2"/>
<circle cx="292.4" cy="299.0" r="3" fill="#2ca02c"/>
<circle cx="308.2" cy="302.7" r="3" fill="#2ca02c"/>
<circle cx="324.1" cy="304.1" r="3" fill="#2ca02c"/>
<circle cx="340.0" cy="302.4" r="3" fill="#2ca02c"/>
<circle cx="355.9" cy="301.0" r="3" fill="#2ca02c"/>
<circle cx="371.8" cy="304.1" r="3" fill="#2ca02c"/>
<circle cx="387.6" cy="304.4" r="3" fill="#2ca02c"/>
<circle cx="403.5" cy="298.5" r="3" fill="#2ca02c"/>
<circle cx="419.4" cy="303.3" r="3" fill="#2ca02c"/>
<circle cx="435.3" cy="303.2" r="3" fill="#2ca02c"/>
<circle cx="451.2" cy="302.4" r="3" fill="#2ca02c"/>
<circle cx="467.1" cy="301.3" r="3" fill="#2ca02c"/>
<circle cx="482.9" cy="303.2" r="3" fill="#2ca02c"/>
<circle cx="498.8" cy="304.0" r="3" fill="#2ca02c"/>
<circle cx="514.7" cy="301.1" r="3" fill="#2ca02c"/>
<circle cx="530.6" cy="304.4" r="3" fill="#2ca02c"/>
<circle cx="578.2" cy="302.9" r="3" fill="#2ca02c"/>
<circle cx="594.1" cy="303.5" r="3" fill="#2ca02c"/>
<circle cx="610.0" cy="301.9" r="3" fill="#2ca02c"/>
<circle cx="625.9" cy="301.6" r="3" fill="#2ca02c"/>
<circle cx="641.8" cy="302.2" r="3" fill="#2ca02c"/>
<circle cx="657.6" cy="301.3" r="3" fill="#2ca02c"/>
<circle cx="673.5" cy="303.1" r="3" fill="#2ca02c"/>
<circle cx="689.4" cy="299.4" r="3" fill="#2ca02c"/>
<circle cx="705.3" cy="302.2" r="3" fill="#2ca02c"/>
<circle cx="721.2" cy="303.5" r="3" fill="#2ca02c"/>
<circle cx="737.1" cy="304.8" r="3" fill="#2ca02c"/>
<circle cx="752.9" cy="305.8" r="3" fill="#2ca02c"/>
<circle cx="768.8" cy="304.8" r="3" fill="#2ca02c"/>
<circle cx="784.7" cy="302.4" r="3" fill="#2ca02c"/>
<circle cx="800.6" cy="304.8" r="3" fill="#2ca02c"/>
<circle cx="816.5" cy="304.6" r="3" fill="#2ca02c"/>
<circle cx="832.4" cy="305.6" r="3" fill="#2ca02c"/>
<circle cx="848.2" cy="305.9" r="3" fill="#2ca02c"/>
<circle cx="864.1" cy="306.5" r="3" fill="#2ca02c"/>
<circle cx="880.0" cy="303.6" r="3" fill="#2ca02c"/>
<rect x="610.0" y="358" width="10" height="10" fill="#2ca02c"/>
<text x="624.0" y="367" font-size="11" fill="#333">render compose (SkiaSharp)</text>
</svg>
