<svg xmlns="http://www.w3.org/2000/svg" width="900" height="380" viewBox="0 0 900 380" font-family="sans-serif">
<rect width="900" height="380" fill="white"/>
<text x="70" y="24" font-size="16" fill="#333">Render loop per-frame cost (ms, p50 unless noted) — 25fps budget is 40ms</text>
<line x1="70" y1="324.0" x2="880" y2="324.0" stroke="#e5e5e5"/>
<text x="64" y="328.0" font-size="11" fill="#666" text-anchor="end">0ms</text>
<line x1="70" y1="268.0" x2="880" y2="268.0" stroke="#e5e5e5"/>
<text x="64" y="272.0" font-size="11" fill="#666" text-anchor="end">74ms</text>
<line x1="70" y1="212.0" x2="880" y2="212.0" stroke="#e5e5e5"/>
<text x="64" y="216.0" font-size="11" fill="#666" text-anchor="end">148ms</text>
<line x1="70" y1="156.0" x2="880" y2="156.0" stroke="#e5e5e5"/>
<text x="64" y="160.0" font-size="11" fill="#666" text-anchor="end">222ms</text>
<line x1="70" y1="100.0" x2="880" y2="100.0" stroke="#e5e5e5"/>
<text x="64" y="104.0" font-size="11" fill="#666" text-anchor="end">296ms</text>
<line x1="70" y1="44.0" x2="880" y2="44.0" stroke="#e5e5e5"/>
<text x="64" y="48.0" font-size="11" fill="#666" text-anchor="end">369ms</text>
<line x1="70" y1="293.7" x2="880" y2="293.7" stroke="#d62728" stroke-width="1.5" stroke-dasharray="6,4"/>
<text x="876" y="288.7" font-size="11" fill="#d62728" text-anchor="end">budget 40ms</text>
<text x="70.0" y="342" font-size="11" fill="#666" text-anchor="start">07-16 16:02</text>
<text x="483.6" y="342" font-size="11" fill="#666" text-anchor="middle">07-17 16:35</text>
<text x="880.0" y="342" font-size="11" fill="#666" text-anchor="end">07-17 22:28</text>
<polyline points="225.1,213.6 294.0,137.4 311.3,205.1 328.5,203.0 345.7,219.1 363.0,92.5 380.2,219.2 397.4,133.4 414.7,222.5 431.9,217.1 449.1,80.9 466.4,207.6 483.6,213.5 500.9,64.7 518.1,193.7 535.3,201.3 552.6,177.8 569.8,221.2 621.5,217.1 638.7,216.1 656.0,207.0 673.2,207.7 690.4,214.9 707.7,199.8 724.9,219.9 742.1,209.6 759.4,210.6 776.6,229.5 793.8,162.0 811.1,215.8 828.3,236.9 845.5,198.5 862.8,230.6 880.0,225.5" fill="none" stroke="#8c564b" stroke-width="2"/>
<circle cx="225.1" cy="213.6" r="3" fill="#8c564b"/>
<circle cx="294.0" cy="137.4" r="3" fill="#8c564b"/>
<circle cx="311.3" cy="205.1" r="3" fill="#8c564b"/>
<circle cx="328.5" cy="203.0" r="3" fill="#8c564b"/>
<circle cx="345.7" cy="219.1" r="3" fill="#8c564b"/>
<circle cx="363.0" cy="92.5" r="3" fill="#8c564b"/>
<circle cx="380.2" cy="219.2" r="3" fill="#8c564b"/>
<circle cx="397.4" cy="133.4" r="3" fill="#8c564b"/>
<circle cx="414.7" cy="222.5" r="3" fill="#8c564b"/>
<circle cx="431.9" cy="217.1" r="3" fill="#8c564b"/>
<circle cx="449.1" cy="80.9" r="3" fill="#8c564b"/>
<circle cx="466.4" cy="207.6" r="3" fill="#8c564b"/>
<circle cx="483.6" cy="213.5" r="3" fill="#8c564b"/>
<circle cx="500.9" cy="64.7" r="3" fill="#8c564b"/>
<circle cx="518.1" cy="193.7" r="3" fill="#8c564b"/>
<circle cx="535.3" cy="201.3" r="3" fill="#8c564b"/>
<circle cx="552.6" cy="177.8" r="3" fill="#8c564b"/>
<circle cx="569.8" cy="221.2" r="3" fill="#8c564b"/>
<circle cx="621.5" cy="217.1" r="3" fill="#8c564b"/>
<circle cx="638.7" cy="216.1" r="3" fill="#8c564b"/>
<circle cx="656.0" cy="207.0" r="3" fill="#8c564b"/>
<circle cx="673.2" cy="207.7" r="3" fill="#8c564b"/>
<circle cx="690.4" cy="214.9" r="3" fill="#8c564b"/>
<circle cx="707.7" cy="199.8" r="3" fill="#8c564b"/>
<circle cx="724.9" cy="219.9" r="3" fill="#8c564b"/>
<circle cx="742.1" cy="209.6" r="3" fill="#8c564b"/>
<circle cx="759.4" cy="210.6" r="3" fill="#8c564b"/>
<circle cx="776.6" cy="229.5" r="3" fill="#8c564b"/>
<circle cx="793.8" cy="162.0" r="3" fill="#8c564b"/>
<circle cx="811.1" cy="215.8" r="3" fill="#8c564b"/>
<circle cx="828.3" cy="236.9" r="3" fill="#8c564b"/>
<circle cx="845.5" cy="198.5" r="3" fill="#8c564b"/>
<circle cx="862.8" cy="230.6" r="3" fill="#8c564b"/>
<circle cx="880.0" cy="225.5" r="3" fill="#8c564b"/>
<rect x="70.0" y="358" width="10" height="10" fill="#8c564b"/>
<text x="84.0" y="367" font-size="11" fill="#333">render tick (p95)</text>
<polyline points="311.3,270.7 328.5,273.5 345.7,278.0 363.0,274.7 380.2,274.6 397.4,277.4 414.7,278.8 431.9,272.2 449.1,271.0 466.4,275.1 483.6,272.7 500.9,273.7 518.1,273.8 535.3,274.2 552.6,269.0 569.8,278.3 621.5,273.6 638.7,277.7 656.0,274.1 673.2,274.4 690.4,273.8 707.7,272.2 724.9,276.3 742.1,271.4 759.4,272.5 776.6,272.8 793.8,204.3 811.1,259.7 828.3,276.6 845.5,276.3 862.8,280.0 880.0,280.2" fill="none" stroke="#1f77b4" stroke-width="2"/>
<circle cx="311.3" cy="270.7" r="3" fill="#1f77b4"/>
<circle cx="328.5" cy="273.5" r="3" fill="#1f77b4"/>
<circle cx="345.7" cy="278.0" r="3" fill="#1f77b4"/>
<circle cx="363.0" cy="274.7" r="3" fill="#1f77b4"/>
<circle cx="380.2" cy="274.6" r="3" fill="#1f77b4"/>
<circle cx="397.4" cy="277.4" r="3" fill="#1f77b4"/>
<circle cx="414.7" cy="278.8" r="3" fill="#1f77b4"/>
<circle cx="431.9" cy="272.2" r="3" fill="#1f77b4"/>
<circle cx="449.1" cy="271.0" r="3" fill="#1f77b4"/>
<circle cx="466.4" cy="275.1" r="3" fill="#1f77b4"/>
<circle cx="483.6" cy="272.7" r="3" fill="#1f77b4"/>
<circle cx="500.9" cy="273.7" r="3" fill="#1f77b4"/>
<circle cx="518.1" cy="273.8" r="3" fill="#1f77b4"/>
<circle cx="535.3" cy="274.2" r="3" fill="#1f77b4"/>
<circle cx="552.6" cy="269.0" r="3" fill="#1f77b4"/>
<circle cx="569.8" cy="278.3" r="3" fill="#1f77b4"/>
<circle cx="621.5" cy="273.6" r="3" fill="#1f77b4"/>
<circle cx="638.7" cy="277.7" r="3" fill="#1f77b4"/>
<circle cx="656.0" cy="274.1" r="3" fill="#1f77b4"/>
<circle cx="673.2" cy="274.4" r="3" fill="#1f77b4"/>
<circle cx="690.4" cy="273.8" r="3" fill="#1f77b4"/>
<circle cx="707.7" cy="272.2" r="3" fill="#1f77b4"/>
<circle cx="724.9" cy="276.3" r="3" fill="#1f77b4"/>
<circle cx="742.1" cy="271.4" r="3" fill="#1f77b4"/>
<circle cx="759.4" cy="272.5" r="3" fill="#1f77b4"/>
<circle cx="776.6" cy="272.8" r="3" fill="#1f77b4"/>
<circle cx="793.8" cy="204.3" r="3" fill="#1f77b4"/>
<circle cx="811.1" cy="259.7" r="3" fill="#1f77b4"/>
<circle cx="828.3" cy="276.6" r="3" fill="#1f77b4"/>
<circle cx="845.5" cy="276.3" r="3" fill="#1f77b4"/>
<circle cx="862.8" cy="280.0" r="3" fill="#1f77b4"/>
<circle cx="880.0" cy="280.2" r="3" fill="#1f77b4"/>
<rect x="340.0" y="358" width="10" height="10" fill="#1f77b4"/>
<text x="354.0" y="367" font-size="11" fill="#333">render mouth (wav2lip)</text>
<polyline points="311.3,299.0 328.5,302.7 345.7,304.1 363.0,302.4 380.2,301.0 397.4,304.1 414.7,304.4 431.9,298.5 449.1,303.3 466.4,303.2 483.6,302.4 500.9,301.3 518.1,303.2 535.3,304.0 552.6,301.1 569.8,304.4 621.5,302.9 638.7,303.5 656.0,301.9 673.2,301.6 690.4,302.2 707.7,301.3 724.9,303.1 742.1,299.4 759.4,302.2 776.6,303.5 793.8,304.8 811.1,305.8 828.3,304.8 845.5,302.4 862.8,304.8 880.0,304.6" fill="none" stroke="#2ca02c" stroke-width="2"/>
<circle cx="311.3" cy="299.0" r="3" fill="#2ca02c"/>
<circle cx="328.5" cy="302.7" r="3" fill="#2ca02c"/>
<circle cx="345.7" cy="304.1" r="3" fill="#2ca02c"/>
<circle cx="363.0" cy="302.4" r="3" fill="#2ca02c"/>
<circle cx="380.2" cy="301.0" r="3" fill="#2ca02c"/>
<circle cx="397.4" cy="304.1" r="3" fill="#2ca02c"/>
<circle cx="414.7" cy="304.4" r="3" fill="#2ca02c"/>
<circle cx="431.9" cy="298.5" r="3" fill="#2ca02c"/>
<circle cx="449.1" cy="303.3" r="3" fill="#2ca02c"/>
<circle cx="466.4" cy="303.2" r="3" fill="#2ca02c"/>
<circle cx="483.6" cy="302.4" r="3" fill="#2ca02c"/>
<circle cx="500.9" cy="301.3" r="3" fill="#2ca02c"/>
<circle cx="518.1" cy="303.2" r="3" fill="#2ca02c"/>
<circle cx="535.3" cy="304.0" r="3" fill="#2ca02c"/>
<circle cx="552.6" cy="301.1" r="3" fill="#2ca02c"/>
<circle cx="569.8" cy="304.4" r="3" fill="#2ca02c"/>
<circle cx="621.5" cy="302.9" r="3" fill="#2ca02c"/>
<circle cx="638.7" cy="303.5" r="3" fill="#2ca02c"/>
<circle cx="656.0" cy="301.9" r="3" fill="#2ca02c"/>
<circle cx="673.2" cy="301.6" r="3" fill="#2ca02c"/>
<circle cx="690.4" cy="302.2" r="3" fill="#2ca02c"/>
<circle cx="707.7" cy="301.3" r="3" fill="#2ca02c"/>
<circle cx="724.9" cy="303.1" r="3" fill="#2ca02c"/>
<circle cx="742.1" cy="299.4" r="3" fill="#2ca02c"/>
<circle cx="759.4" cy="302.2" r="3" fill="#2ca02c"/>
<circle cx="776.6" cy="303.5" r="3" fill="#2ca02c"/>
<circle cx="793.8" cy="304.8" r="3" fill="#2ca02c"/>
<circle cx="811.1" cy="305.8" r="3" fill="#2ca02c"/>
<circle cx="828.3" cy="304.8" r="3" fill="#2ca02c"/>
<circle cx="845.5" cy="302.4" r="3" fill="#2ca02c"/>
<circle cx="862.8" cy="304.8" r="3" fill="#2ca02c"/>
<circle cx="880.0" cy="304.6" r="3" fill="#2ca02c"/>
<rect x="610.0" y="358" width="10" height="10" fill="#2ca02c"/>
<text x="624.0" y="367" font-size="11" fill="#333">render compose (SkiaSharp)</text>
</svg>
