<svg xmlns="http://www.w3.org/2000/svg" width="900" height="380" viewBox="0 0 900 380" font-family="sans-serif">
<rect width="900" height="380" fill="white"/>
<text x="70" y="24" font-size="16" fill="#333">Render loop per-frame cost (ms, p50 unless noted) — 25fps budget is 40ms</text>
<line x1="70" y1="324.0" x2="880" y2="324.0" stroke="#e5e5e5"/>
<text x="64" y="328.0" font-size="11" fill="#666" text-anchor="end">0ms</text>
<line x1="70" y1="268.0" x2="880" y2="268.0" stroke="#e5e5e5"/>
<text x="64" y="272.0" font-size="11" fill="#666" text-anchor="end">74ms</text>
<line x1="70" y1="212.0" x2="880" y2="212.0" stroke="#e5e5e5"/>
<text x="64" y="216.0" font-size="11" fill="#666" text-anchor="end">148ms</text>
<line x1="70" y1="156.0" x2="880" y2="156.0" stroke="#e5e5e5"/>
<text x="64" y="160.0" font-size="11" fill="#666" text-anchor="end">222ms</text>
<line x1="70" y1="100.0" x2="880" y2="100.0" stroke="#e5e5e5"/>
<text x="64" y="104.0" font-size="11" fill="#666" text-anchor="end">296ms</text>
<line x1="70" y1="44.0" x2="880" y2="44.0" stroke="#e5e5e5"/>
<text x="64" y="48.0" font-size="11" fill="#666" text-anchor="end">369ms</text>
<line x1="70" y1="293.7" x2="880" y2="293.7" stroke="#d62728" stroke-width="1.5" stroke-dasharray="6,4"/>
<text x="876" y="288.7" font-size="11" fill="#d62728" text-anchor="end">budget 40ms</text>
<text x="70.0" y="342" font-size="11" fill="#666" text-anchor="start">07-16 16:02</text>
<text x="475.0" y="342" font-size="11" fill="#666" text-anchor="middle">07-17 19:15</text>
<text x="880.0" y="342" font-size="11" fill="#666" text-anchor="end">07-18 18:08</text>
<polyline points="200.2,213.6 258.0,137.4 272.5,205.1 287.0,203.0 301.4,219.1 315.9,92.5 330.4,219.2 344.8,133.4 359.3,222.5 373.8,217.1 388.2,80.9 402.7,207.6 417.1,213.5 431.6,64.7 446.1,193.7 460.5,201.3 475.0,177.8 489.5,221.2 532.9,217.1 547.3,216.1 561.8,207.0 576.2,207.7 590.7,214.9 605.2,199.8 619.6,219.9 634.1,209.6 648.6,210.6 663.0,229.5 677.5,162.0 692.0,215.8 706.4,236.9 720.9,198.5 735.4,230.6 749.8,225.5 764.3,251.0 778.8,250.8 793.2,208.3 807.7,225.5 822.1,220.7 836.6,238.3 851.1,178.7 865.5,234.2 880.0,237.8" fill="none" stroke="#8c564b" stroke-width="2"/>
<circle cx="200.2" cy="213.6" r="3" fill="#8c564b"/>
<circle cx="258.0" cy="137.4" r="3" fill="#8c564b"/>
<circle cx="272.5" cy="205.1" r="3" fill="#8c564b"/>
<circle cx="287.0" cy="203.0" r="3" fill="#8c564b"/>
<circle cx="301.4" cy="219.1" r="3" fill="#8c564b"/>
<circle cx="315.9" cy="92.5" r="3" fill="#8c564b"/>
<circle cx="330.4" cy="219.2" r="3" fill="#8c564b"/>
<circle cx="344.8" cy="133.4" r="3" fill="#8c564b"/>
<circle cx="359.3" cy="222.5" r="3" fill="#8c564b"/>
<circle cx="373.8" cy="217.1" r="3" fill="#8c564b"/>
<circle cx="388.2" cy="80.9" r="3" fill="#8c564b"/>
<circle cx="402.7" cy="207.6" r="3" fill="#8c564b"/>
<circle cx="417.1" cy="213.5" r="3" fill="#8c564b"/>
<circle cx="431.6" cy="64.7" r="3" fill="#8c564b"/>
<circle cx="446.1" cy="193.7" r="3" fill="#8c564b"/>
<circle cx="460.5" cy="201.3" r="3" fill="#8c564b"/>
<circle cx="475.0" cy="177.8" r="3" fill="#8c564b"/>
<circle cx="489.5" cy="221.2" r="3" fill="#8c564b"/>
<circle cx="532.9" cy="217.1" r="3" fill="#8c564b"/>
<circle cx="547.3" cy="216.1" r="3" fill="#8c564b"/>
<circle cx="561.8" cy="207.0" r="3" fill="#8c564b"/>
<circle cx="576.2" cy="207.7" r="3" fill="#8c564b"/>
<circle cx="590.7" cy="214.9" r="3" fill="#8c564b"/>
<circle cx="605.2" cy="199.8" r="3" fill="#8c564b"/>
<circle cx="619.6" cy="219.9" r="3" fill="#8c564b"/>
<circle cx="634.1" cy="209.6" r="3" fill="#8c564b"/>
<circle cx="648.6" cy="210.6" r="3" fill="#8c564b"/>
<circle cx="663.0" cy="229.5" r="3" fill="#8c564b"/>
<circle cx="677.5" cy="162.0" r="3" fill="#8c564b"/>
<circle cx="692.0" cy="215.8" r="3" fill="#8c564b"/>
<circle cx="706.4" cy="236.9" r="3" fill="#8c564b"/>
<circle cx="720.9" cy="198.5" r="3" fill="#8c564b"/>
<circle cx="735.4" cy="230.6" r="3" fill="#8c564b"/>
<circle cx="749.8" cy="225.5" r="3" fill="#8c564b"/>
<circle cx="764.3" cy="251.0" r="3" fill="#8c564b"/>
<circle cx="778.8" cy="250.8" r="3" fill="#8c564b"/>
<circle cx="793.2" cy="208.3" r="3" fill="#8c564b"/>
<circle cx="807.7" cy="225.5" r="3" fill="#8c564b"/>
<circle cx="822.1" cy="220.7" r="3" fill="#8c564b"/>
<circle cx="836.6" cy="238.3" r="3" fill="#8c564b"/>
<circle cx="851.1" cy="178.7" r="3" fill="#8c564b"/>
<circle cx="865.5" cy="234.2" r="3" fill="#8c564b"/>
<circle cx="880.0" cy="237.8" r="3" fill="#8c564b"/>
<rect x="70.0" y="358" width="10" height="10" fill="#8c564b"/>
<text x="84.0" y="367" font-size="11" fill="#333">render tick (p95)</text>
<polyline points="272.5,270.7 287.0,273.5 301.4,278.0 315.9,274.7 330.4,274.6 344.8,277.4 359.3,278.8 373.8,272.2 388.2,271.0 402.7,275.1 417.1,272.7 431.6,273.7 446.1,273.8 460.5,274.2 475.0,269.0 489.5,278.3 532.9,273.6 547.3,277.7 561.8,274.1 576.2,274.4 590.7,273.8 605.2,272.2 619.6,276.3 634.1,271.4 648.6,272.5 663.0,272.8 677.5,204.3 692.0,259.7 706.4,276.6 720.9,276.3 735.4,280.0 749.8,280.2 764.3,324.0 778.8,324.0 793.2,254.4 807.7,273.6 822.1,324.0 836.6,324.0 851.1,268.1 865.5,272.8 880.0,324.0" fill="none" stroke="#1f77b4" stroke-width="2"/>
<circle cx="272.5" cy="270.7" r="3" fill="#1f77b4"/>
<circle cx="287.0" cy="273.5" r="3" fill="#1f77b4"/>
<circle cx="301.4" cy="278.0" r="3" fill="#1f77b4"/>
<circle cx="315.9" cy="274.7" r="3" fill="#1f77b4"/>
<circle cx="330.4" cy="274.6" r="3" fill="#1f77b4"/>
<circle cx="344.8" cy="277.4" r="3" fill="#1f77b4"/>
<circle cx="359.3" cy="278.8" r="3" fill="#1f77b4"/>
<circle cx="373.8" cy="272.2" r="3" fill="#1f77b4"/>
<circle cx="388.2" cy="271.0" r="3" fill="#1f77b4"/>
<circle cx="402.7" cy="275.1" r="3" fill="#1f77b4"/>
<circle cx="417.1" cy="272.7" r="3" fill="#1f77b4"/>
<circle cx="431.6" cy="273.7" r="3" fill="#1f77b4"/>
<circle cx="446.1" cy="273.8" r="3" fill="#1f77b4"/>
<circle cx="460.5" cy="274.2" r="3" fill="#1f77b4"/>
<circle cx="475.0" cy="269.0" r="3" fill="#1f77b4"/>
<circle cx="489.5" cy="278.3" r="3" fill="#1f77b4"/>
<circle cx="532.9" cy="273.6" r="3" fill="#1f77b4"/>
<circle cx="547.3" cy="277.7" r="3" fill="#1f77b4"/>
<circle cx="561.8" cy="274.1" r="3" fill="#1f77b4"/>
<circle cx="576.2" cy="274.4" r="3" fill="#1f77b4"/>
<circle cx="590.7" cy="273.8" r="3" fill="#1f77b4"/>
<circle cx="605.2" cy="272.2" r="3" fill="#1f77b4"/>
<circle cx="619.6" cy="276.3" r="3" fill="#1f77b4"/>
<circle cx="634.1" cy="271.4" r="3" fill="#1f77b4"/>
<circle cx="648.6" cy="272.5" r="3" fill="#1f77b4"/>
<circle cx="663.0" cy="272.8" r="3" fill="#1f77b4"/>
<circle cx="677.5" cy="204.3" r="3" fill="#1f77b4"/>
<circle cx="692.0" cy="259.7" r="3" fill="#1f77b4"/>
<circle cx="706.4" cy="276.6" r="3" fill="#1f77b4"/>
<circle cx="720.9" cy="276.3" r="3" fill="#1f77b4"/>
<circle cx="735.4" cy="280.0" r="3" fill="#1f77b4"/>
<circle cx="749.8" cy="280.2" r="3" fill="#1f77b4"/>
<circle cx="764.3" cy="324.0" r="3" fill="#1f77b4"/>
<circle cx="778.8" cy="324.0" r="3" fill="#1f77b4"/>
<circle cx="793.2" cy="254.4" r="3" fill="#1f77b4"/>
<circle cx="807.7" cy="273.6" r="3" fill="#1f77b4"/>
<circle cx="822.1" cy="324.0" r="3" fill="#1f77b4"/>
<circle cx="836.6" cy="324.0" r="3" fill="#1f77b4"/>
<circle cx="851.1" cy="268.1" r="3" fill="#1f77b4"/>
<circle cx="865.5" cy="272.8" r="3" fill="#1f77b4"/>
<circle cx="880.0" cy="324.0" r="3" fill="#1f77b4"/>
<rect x="340.0" y="358" width="10" height="10" fill="#1f77b4"/>
<text x="354.0" y="367" font-size="11" fill="#333">render mouth (wav2lip)</text>
<polyline points="272.5,299.0 287.0,302.7 301.4,304.1 315.9,302.4 330.4,301.0 344.8,304.1 359.3,304.4 373.8,298.5 388.2,303.3 402.7,303.2 417.1,302.4 431.6,301.3 446.1,303.2 460.5,304.0 475.0,301.1 489.5,304.4 532.9,302.9 547.3,303.5 561.8,301.9 576.2,301.6 590.7,302.2 605.2,301.3 619.6,303.1 634.1,299.4 648.6,302.2 663.0,303.5 677.5,304.8 692.0,305.8 706.4,304.8 720.9,302.4 735.4,304.8 749.8,304.6 764.3,305.6 778.8,305.9 793.2,306.5 807.7,303.6 822.1,303.1 836.6,304.0 851.1,302.2 865.5,304.0 880.0,303.7" fill="none" stroke="#2ca02c" stroke-width="2"/>
<circle cx="272.5" cy="299.0" r="3" fill="#2ca02c"/>
<circle cx="287.0" cy="302.7" r="3" fill="#2ca02c"/>
<circle cx="301.4" cy="304.1" r="3" fill="#2ca02c"/>
<circle cx="315.9" cy="302.4" r="3" fill="#2ca02c"/>
<circle cx="330.4" cy="301.0" r="3" fill="#2ca02c"/>
<circle cx="344.8" cy="304.1" r="3" fill="#2ca02c"/>
<circle cx="359.3" cy="304.4" r="3" fill="#2ca02c"/>
<circle cx="373.8" cy="298.5" r="3" fill="#2ca02c"/>
<circle cx="388.2" cy="303.3" r="3" fill="#2ca02c"/>
<circle cx="402.7" cy="303.2" r="3" fill="#2ca02c"/>
<circle cx="417.1" cy="302.4" r="3" fill="#2ca02c"/>
<circle cx="431.6" cy="301.3" r="3" fill="#2ca02c"/>
<circle cx="446.1" cy="303.2" r="3" fill="#2ca02c"/>
<circle cx="460.5" cy="304.0" r="3" fill="#2ca02c"/>
<circle cx="475.0" cy="301.1" r="3" fill="#2ca02c"/>
<circle cx="489.5" cy="304.4" r="3" fill="#2ca02c"/>
<circle cx="532.9" cy="302.9" r="3" fill="#2ca02c"/>
<circle cx="547.3" cy="303.5" r="3" fill="#2ca02c"/>
<circle cx="561.8" cy="301.9" r="3" fill="#2ca02c"/>
<circle cx="576.2" cy="301.6" r="3" fill="#2ca02c"/>
<circle cx="590.7" cy="302.2" r="3" fill="#2ca02c"/>
<circle cx="605.2" cy="301.3" r="3" fill="#2ca02c"/>
<circle cx="619.6" cy="303.1" r="3" fill="#2ca02c"/>
<circle cx="634.1" cy="299.4" r="3" fill="#2ca02c"/>
<circle cx="648.6" cy="302.2" r="3" fill="#2ca02c"/>
<circle cx="663.0" cy="303.5" r="3" fill="#2ca02c"/>
<circle cx="677.5" cy="304.8" r="3" fill="#2ca02c"/>
<circle cx="692.0" cy="305.8" r="3" fill="#2ca02c"/>
<circle cx="706.4" cy="304.8" r="3" fill="#2ca02c"/>
<circle cx="720.9" cy="302.4" r="3" fill="#2ca02c"/>
<circle cx="735.4" cy="304.8" r="3" fill="#2ca02c"/>
<circle cx="749.8" cy="304.6" r="3" fill="#2ca02c"/>
<circle cx="764.3" cy="305.6" r="3" fill="#2ca02c"/>
<circle cx="778.8" cy="305.9" r="3" fill="#2ca02c"/>
<circle cx="793.2" cy="306.5" r="3" fill="#2ca02c"/>
<circle cx="807.7" cy="303.6" r="3" fill="#2ca02c"/>
<circle cx="822.1" cy="303.1" r="3" fill="#2ca02c"/>
<circle cx="836.6" cy="304.0" r="3" fill="#2ca02c"/>
<circle cx="851.1" cy="302.2" r="3" fill="#2ca02c"/>
<circle cx="865.5" cy="304.0" r="3" fill="#2ca02c"/>
<circle cx="880.0" cy="303.7" r="3" fill="#2ca02c"/>
<rect x="610.0" y="358" width="10" height="10" fill="#2ca02c"/>
<text x="624.0" y="367" font-size="11" fill="#333">render compose (SkiaSharp)</text>
</svg>
