<svg xmlns="http://www.w3.org/2000/svg" width="900" height="380" viewBox="0 0 900 380" font-family="sans-serif">
<rect width="900" height="380" fill="white"/>
<text x="70" y="24" font-size="16" fill="#333">Render loop per-frame cost (ms, p50 unless noted) — 25fps budget is 40ms</text>
<line x1="70" y1="324.0" x2="880" y2="324.0" stroke="#e5e5e5"/>
<text x="64" y="328.0" font-size="11" fill="#666" text-anchor="end">0ms</text>
<line x1="70" y1="268.0" x2="880" y2="268.0" stroke="#e5e5e5"/>
<text x="64" y="272.0" font-size="11" fill="#666" text-anchor="end">74ms</text>
<line x1="70" y1="212.0" x2="880" y2="212.0" stroke="#e5e5e5"/>
<text x="64" y="216.0" font-size="11" fill="#666" text-anchor="end">148ms</text>
<line x1="70" y1="156.0" x2="880" y2="156.0" stroke="#e5e5e5"/>
<text x="64" y="160.0" font-size="11" fill="#666" text-anchor="end">222ms</text>
<line x1="70" y1="100.0" x2="880" y2="100.0" stroke="#e5e5e5"/>
<text x="64" y="104.0" font-size="11" fill="#666" text-anchor="end">296ms</text>
<line x1="70" y1="44.0" x2="880" y2="44.0" stroke="#e5e5e5"/>
<text x="64" y="48.0" font-size="11" fill="#666" text-anchor="end">369ms</text>
<line x1="70" y1="293.7" x2="880" y2="293.7" stroke="#d62728" stroke-width="1.5" stroke-dasharray="6,4"/>
<text x="876" y="288.7" font-size="11" fill="#d62728" text-anchor="end">budget 40ms</text>
<text x="70.0" y="342" font-size="11" fill="#666" text-anchor="start">07-16 16:02</text>
<text x="475.0" y="342" font-size="11" fill="#666" text-anchor="middle">07-17 19:27</text>
<text x="880.0" y="342" font-size="11" fill="#666" text-anchor="end">07-19 06:11</text>
<polyline points="195.7,213.6 251.6,137.4 265.5,205.1 279.5,203.0 293.4,219.1 307.4,92.5 321.4,219.2 335.3,133.4 349.3,222.5 363.3,217.1 377.2,80.9 391.2,207.6 405.2,213.5 419.1,64.7 433.1,193.7 447.1,201.3 461.0,177.8 475.0,221.2 516.9,217.1 530.9,216.1 544.8,207.0 558.8,207.7 572.8,214.9 586.7,199.8 600.7,219.9 614.7,209.6 628.6,210.6 642.6,229.5 656.6,162.0 670.5,215.8 684.5,236.9 698.4,198.5 712.4,230.6 726.4,225.5 740.3,251.0 754.3,250.8 768.3,208.3 782.2,225.5 796.2,220.7 810.2,238.3 824.1,178.7 838.1,234.2 852.1,237.8 866.0,220.8 880.0,207.2" fill="none" stroke="#8c564b" stroke-width="2"/>
<circle cx="195.7" cy="213.6" r="3" fill="#8c564b"/>
<circle cx="251.6" cy="137.4" r="3" fill="#8c564b"/>
<circle cx="265.5" cy="205.1" r="3" fill="#8c564b"/>
<circle cx="279.5" cy="203.0" r="3" fill="#8c564b"/>
<circle cx="293.4" cy="219.1" r="3" fill="#8c564b"/>
<circle cx="307.4" cy="92.5" r="3" fill="#8c564b"/>
<circle cx="321.4" cy="219.2" r="3" fill="#8c564b"/>
<circle cx="335.3" cy="133.4" r="3" fill="#8c564b"/>
<circle cx="349.3" cy="222.5" r="3" fill="#8c564b"/>
<circle cx="363.3" cy="217.1" r="3" fill="#8c564b"/>
<circle cx="377.2" cy="80.9" r="3" fill="#8c564b"/>
<circle cx="391.2" cy="207.6" r="3" fill="#8c564b"/>
<circle cx="405.2" cy="213.5" r="3" fill="#8c564b"/>
<circle cx="419.1" cy="64.7" r="3" fill="#8c564b"/>
<circle cx="433.1" cy="193.7" r="3" fill="#8c564b"/>
<circle cx="447.1" cy="201.3" r="3" fill="#8c564b"/>
<circle cx="461.0" cy="177.8" r="3" fill="#8c564b"/>
<circle cx="475.0" cy="221.2" r="3" fill="#8c564b"/>
<circle cx="516.9" cy="217.1" r="3" fill="#8c564b"/>
<circle cx="530.9" cy="216.1" r="3" fill="#8c564b"/>
<circle cx="544.8" cy="207.0" r="3" fill="#8c564b"/>
<circle cx="558.8" cy="207.7" r="3" fill="#8c564b"/>
<circle cx="572.8" cy="214.9" r="3" fill="#8c564b"/>
<circle cx="586.7" cy="199.8" r="3" fill="#8c564b"/>
<circle cx="600.7" cy="219.9" r="3" fill="#8c564b"/>
<circle cx="614.7" cy="209.6" r="3" fill="#8c564b"/>
<circle cx="628.6" cy="210.6" r="3" fill="#8c564b"/>
<circle cx="642.6" cy="229.5" r="3" fill="#8c564b"/>
<circle cx="656.6" cy="162.0" r="3" fill="#8c564b"/>
<circle cx="670.5" cy="215.8" r="3" fill="#8c564b"/>
<circle cx="684.5" cy="236.9" r="3" fill="#8c564b"/>
<circle cx="698.4" cy="198.5" r="3" fill="#8c564b"/>
<circle cx="712.4" cy="230.6" r="3" fill="#8c564b"/>
<circle cx="726.4" cy="225.5" r="3" fill="#8c564b"/>
<circle cx="740.3" cy="251.0" r="3" fill="#8c564b"/>
<circle cx="754.3" cy="250.8" r="3" fill="#8c564b"/>
<circle cx="768.3" cy="208.3" r="3" fill="#8c564b"/>
<circle cx="782.2" cy="225.5" r="3" fill="#8c564b"/>
<circle cx="796.2" cy="220.7" r="3" fill="#8c564b"/>
<circle cx="810.2" cy="238.3" r="3" fill="#8c564b"/>
<circle cx="824.1" cy="178.7" r="3" fill="#8c564b"/>
<circle cx="838.1" cy="234.2" r="3" fill="#8c564b"/>
<circle cx="852.1" cy="237.8" r="3" fill="#8c564b"/>
<circle cx="866.0" cy="220.8" r="3" fill="#8c564b"/>
<circle cx="880.0" cy="207.2" r="3" fill="#8c564b"/>
<rect x="70.0" y="358" width="10" height="10" fill="#8c564b"/>
<text x="84.0" y="367" font-size="11" fill="#333">render tick (p95)</text>
<polyline points="265.5,270.7 279.5,273.5 293.4,278.0 307.4,274.7 321.4,274.6 335.3,277.4 349.3,278.8 363.3,272.2 377.2,271.0 391.2,275.1 405.2,272.7 419.1,273.7 433.1,273.8 447.1,274.2 461.0,269.0 475.0,278.3 516.9,273.6 530.9,277.7 544.8,274.1 558.8,274.4 572.8,273.8 586.7,272.2 600.7,276.3 614.7,271.4 628.6,272.5 642.6,272.8 656.6,204.3 670.5,259.7 684.5,276.6 698.4,276.3 712.4,280.0 726.4,280.2 740.3,324.0 754.3,324.0 768.3,254.4 782.2,273.6 796.2,324.0 810.2,324.0 824.1,268.1 838.1,272.8 852.1,324.0 866.0,270.7 880.0,249.6" fill="none" stroke="#1f77b4" stroke-width="2"/>
<circle cx="265.5" cy="270.7" r="3" fill="#1f77b4"/>
<circle cx="279.5" cy="273.5" r="3" fill="#1f77b4"/>
<circle cx="293.4" cy="278.0" r="3" fill="#1f77b4"/>
<circle cx="307.4" cy="274.7" r="3" fill="#1f77b4"/>
<circle cx="321.4" cy="274.6" r="3" fill="#1f77b4"/>
<circle cx="335.3" cy="277.4" r="3" fill="#1f77b4"/>
<circle cx="349.3" cy="278.8" r="3" fill="#1f77b4"/>
<circle cx="363.3" cy="272.2" r="3" fill="#1f77b4"/>
<circle cx="377.2" cy="271.0" r="3" fill="#1f77b4"/>
<circle cx="391.2" cy="275.1" r="3" fill="#1f77b4"/>
<circle cx="405.2" cy="272.7" r="3" fill="#1f77b4"/>
<circle cx="419.1" cy="273.7" r="3" fill="#1f77b4"/>
<circle cx="433.1" cy="273.8" r="3" fill="#1f77b4"/>
<circle cx="447.1" cy="274.2" r="3" fill="#1f77b4"/>
<circle cx="461.0" cy="269.0" r="3" fill="#1f77b4"/>
<circle cx="475.0" cy="278.3" r="3" fill="#1f77b4"/>
<circle cx="516.9" cy="273.6" r="3" fill="#1f77b4"/>
<circle cx="530.9" cy="277.7" r="3" fill="#1f77b4"/>
<circle cx="544.8" cy="274.1" r="3" fill="#1f77b4"/>
<circle cx="558.8" cy="274.4" r="3" fill="#1f77b4"/>
<circle cx="572.8" cy="273.8" r="3" fill="#1f77b4"/>
<circle cx="586.7" cy="272.2" r="3" fill="#1f77b4"/>
<circle cx="600.7" cy="276.3" r="3" fill="#1f77b4"/>
<circle cx="614.7" cy="271.4" r="3" fill="#1f77b4"/>
<circle cx="628.6" cy="272.5" r="3" fill="#1f77b4"/>
<circle cx="642.6" cy="272.8" r="3" fill="#1f77b4"/>
<circle cx="656.6" cy="204.3" r="3" fill="#1f77b4"/>
<circle cx="670.5" cy="259.7" r="3" fill="#1f77b4"/>
<circle cx="684.5" cy="276.6" r="3" fill="#1f77b4"/>
<circle cx="698.4" cy="276.3" r="3" fill="#1f77b4"/>
<circle cx="712.4" cy="280.0" r="3" fill="#1f77b4"/>
<circle cx="726.4" cy="280.2" r="3" fill="#1f77b4"/>
<circle cx="740.3" cy="324.0" r="3" fill="#1f77b4"/>
<circle cx="754.3" cy="324.0" r="3" fill="#1f77b4"/>
<circle cx="768.3" cy="254.4" r="3" fill="#1f77b4"/>
<circle cx="782.2" cy="273.6" r="3" fill="#1f77b4"/>
<circle cx="796.2" cy="324.0" r="3" fill="#1f77b4"/>
<circle cx="810.2" cy="324.0" r="3" fill="#1f77b4"/>
<circle cx="824.1" cy="268.1" r="3" fill="#1f77b4"/>
<circle cx="838.1" cy="272.8" r="3" fill="#1f77b4"/>
<circle cx="852.1" cy="324.0" r="3" fill="#1f77b4"/>
<circle cx="866.0" cy="270.7" r="3" fill="#1f77b4"/>
<circle cx="880.0" cy="249.6" r="3" fill="#1f77b4"/>
<rect x="340.0" y="358" width="10" height="10" fill="#1f77b4"/>
<text x="354.0" y="367" font-size="11" fill="#333">render mouth (wav2lip)</text>
<polyline points="265.5,299.0 279.5,302.7 293.4,304.1 307.4,302.4 321.4,301.0 335.3,304.1 349.3,304.4 363.3,298.5 377.2,303.3 391.2,303.2 405.2,302.4 419.1,301.3 433.1,303.2 447.1,304.0 461.0,301.1 475.0,304.4 516.9,302.9 530.9,303.5 544.8,301.9 558.8,301.6 572.8,302.2 586.7,301.3 600.7,303.1 614.7,299.4 628.6,302.2 642.6,303.5 656.6,304.8 670.5,305.8 684.5,304.8 698.4,302.4 712.4,304.8 726.4,304.6 740.3,305.6 754.3,305.9 768.3,306.5 782.2,303.6 796.2,303.1 810.2,304.0 824.1,302.2 838.1,304.0 852.1,303.7 866.0,303.2 880.0,305.7" fill="none" stroke="#2ca02c" stroke-width="2"/>
<circle cx="265.5" cy="299.0" r="3" fill="#2ca02c"/>
<circle cx="279.5" cy="302.7" r="3" fill="#2ca02c"/>
<circle cx="293.4" cy="304.1" r="3" fill="#2ca02c"/>
<circle cx="307.4" cy="302.4" r="3" fill="#2ca02c"/>
<circle cx="321.4" cy="301.0" r="3" fill="#2ca02c"/>
<circle cx="335.3" cy="304.1" r="3" fill="#2ca02c"/>
<circle cx="349.3" cy="304.4" r="3" fill="#2ca02c"/>
<circle cx="363.3" cy="298.5" r="3" fill="#2ca02c"/>
<circle cx="377.2" cy="303.3" r="3" fill="#2ca02c"/>
<circle cx="391.2" cy="303.2" r="3" fill="#2ca02c"/>
<circle cx="405.2" cy="302.4" r="3" fill="#2ca02c"/>
<circle cx="419.1" cy="301.3" r="3" fill="#2ca02c"/>
<circle cx="433.1" cy="303.2" r="3" fill="#2ca02c"/>
<circle cx="447.1" cy="304.0" r="3" fill="#2ca02c"/>
<circle cx="461.0" cy="301.1" r="3" fill="#2ca02c"/>
<circle cx="475.0" cy="304.4" r="3" fill="#2ca02c"/>
<circle cx="516.9" cy="302.9" r="3" fill="#2ca02c"/>
<circle cx="530.9" cy="303.5" r="3" fill="#2ca02c"/>
<circle cx="544.8" cy="301.9" r="3" fill="#2ca02c"/>
<circle cx="558.8" cy="301.6" r="3" fill="#2ca02c"/>
<circle cx="572.8" cy="302.2" r="3" fill="#2ca02c"/>
<circle cx="586.7" cy="301.3" r="3" fill="#2ca02c"/>
<circle cx="600.7" cy="303.1" r="3" fill="#2ca02c"/>
<circle cx="614.7" cy="299.4" r="3" fill="#2ca02c"/>
<circle cx="628.6" cy="302.2" r="3" fill="#2ca02c"/>
<circle cx="642.6" cy="303.5" r="3" fill="#2ca02c"/>
<circle cx="656.6" cy="304.8" r="3" fill="#2ca02c"/>
<circle cx="670.5" cy="305.8" r="3" fill="#2ca02c"/>
<circle cx="684.5" cy="304.8" r="3" fill="#2ca02c"/>
<circle cx="698.4" cy="302.4" r="3" fill="#2ca02c"/>
<circle cx="712.4" cy="304.8" r="3" fill="#2ca02c"/>
<circle cx="726.4" cy="304.6" r="3" fill="#2ca02c"/>
<circle cx="740.3" cy="305.6" r="3" fill="#2ca02c"/>
<circle cx="754.3" cy="305.9" r="3" fill="#2ca02c"/>
<circle cx="768.3" cy="306.5" r="3" fill="#2ca02c"/>
<circle cx="782.2" cy="303.6" r="3" fill="#2ca02c"/>
<circle cx="796.2" cy="303.1" r="3" fill="#2ca02c"/>
<circle cx="810.2" cy="304.0" r="3" fill="#2ca02c"/>
<circle cx="824.1" cy="302.2" r="3" fill="#2ca02c"/>
<circle cx="838.1" cy="304.0" r="3" fill="#2ca02c"/>
<circle cx="852.1" cy="303.7" r="3" fill="#2ca02c"/>
<circle cx="866.0" cy="303.2" r="3" fill="#2ca02c"/>
<circle cx="880.0" cy="305.7" r="3" fill="#2ca02c"/>
<rect x="610.0" y="358" width="10" height="10" fill="#2ca02c"/>
<text x="624.0" y="367" font-size="11" fill="#333">render compose (SkiaSharp)</text>
</svg>
