<svg xmlns="http://www.w3.org/2000/svg" width="900" height="380" viewBox="0 0 900 380" font-family="sans-serif">
<rect width="900" height="380" fill="white"/>
<text x="70" y="24" font-size="16" fill="#333">Render loop per-frame cost (ms, p50 unless noted) — 25fps budget is 40ms</text>
<line x1="70" y1="324.0" x2="880" y2="324.0" stroke="#e5e5e5"/>
<text x="64" y="328.0" font-size="11" fill="#666" text-anchor="end">0ms</text>
<line x1="70" y1="268.0" x2="880" y2="268.0" stroke="#e5e5e5"/>
<text x="64" y="272.0" font-size="11" fill="#666" text-anchor="end">74ms</text>
<line x1="70" y1="212.0" x2="880" y2="212.0" stroke="#e5e5e5"/>
<text x="64" y="216.0" font-size="11" fill="#666" text-anchor="end">148ms</text>
<line x1="70" y1="156.0" x2="880" y2="156.0" stroke="#e5e5e5"/>
<text x="64" y="160.0" font-size="11" fill="#666" text-anchor="end">222ms</text>
<line x1="70" y1="100.0" x2="880" y2="100.0" stroke="#e5e5e5"/>
<text x="64" y="104.0" font-size="11" fill="#666" text-anchor="end">296ms</text>
<line x1="70" y1="44.0" x2="880" y2="44.0" stroke="#e5e5e5"/>
<text x="64" y="48.0" font-size="11" fill="#666" text-anchor="end">369ms</text>
<line x1="70" y1="293.7" x2="880" y2="293.7" stroke="#d62728" stroke-width="1.5" stroke-dasharray="6,4"/>
<text x="876" y="288.7" font-size="11" fill="#d62728" text-anchor="end">budget 40ms</text>
<text x="70.0" y="342" font-size="11" fill="#666" text-anchor="start">07-16 16:02</text>
<text x="475.0" y="342" font-size="11" fill="#666" text-anchor="middle">07-17 19:01</text>
<text x="880.0" y="342" font-size="11" fill="#666" text-anchor="end">07-18 10:24</text>
<polyline points="205.0,213.6 265.0,137.4 280.0,205.1 295.0,203.0 310.0,219.1 325.0,92.5 340.0,219.2 355.0,133.4 370.0,222.5 385.0,217.1 400.0,80.9 415.0,207.6 430.0,213.5 445.0,64.7 460.0,193.7 475.0,201.3 490.0,177.8 505.0,221.2 550.0,217.1 565.0,216.1 580.0,207.0 595.0,207.7 610.0,214.9 625.0,199.8 640.0,219.9 655.0,209.6 670.0,210.6 685.0,229.5 700.0,162.0 715.0,215.8 730.0,236.9 745.0,198.5 760.0,230.6 775.0,225.5 790.0,251.0 805.0,250.8 820.0,208.3 835.0,225.5 850.0,220.7 865.0,238.3 880.0,178.7" fill="none" stroke="#8c564b" stroke-width="2"/>
<circle cx="205.0" cy="213.6" r="3" fill="#8c564b"/>
<circle cx="265.0" cy="137.4" r="3" fill="#8c564b"/>
<circle cx="280.0" cy="205.1" r="3" fill="#8c564b"/>
<circle cx="295.0" cy="203.0" r="3" fill="#8c564b"/>
<circle cx="310.0" cy="219.1" r="3" fill="#8c564b"/>
<circle cx="325.0" cy="92.5" r="3" fill="#8c564b"/>
<circle cx="340.0" cy="219.2" r="3" fill="#8c564b"/>
<circle cx="355.0" cy="133.4" r="3" fill="#8c564b"/>
<circle cx="370.0" cy="222.5" r="3" fill="#8c564b"/>
<circle cx="385.0" cy="217.1" r="3" fill="#8c564b"/>
<circle cx="400.0" cy="80.9" r="3" fill="#8c564b"/>
<circle cx="415.0" cy="207.6" r="3" fill="#8c564b"/>
<circle cx="430.0" cy="213.5" r="3" fill="#8c564b"/>
<circle cx="445.0" cy="64.7" r="3" fill="#8c564b"/>
<circle cx="460.0" cy="193.7" r="3" fill="#8c564b"/>
<circle cx="475.0" cy="201.3" r="3" fill="#8c564b"/>
<circle cx="490.0" cy="177.8" r="3" fill="#8c564b"/>
<circle cx="505.0" cy="221.2" r="3" fill="#8c564b"/>
<circle cx="550.0" cy="217.1" r="3" fill="#8c564b"/>
<circle cx="565.0" cy="216.1" r="3" fill="#8c564b"/>
<circle cx="580.0" cy="207.0" r="3" fill="#8c564b"/>
<circle cx="595.0" cy="207.7" r="3" fill="#8c564b"/>
<circle cx="610.0" cy="214.9" r="3" fill="#8c564b"/>
<circle cx="625.0" cy="199.8" r="3" fill="#8c564b"/>
<circle cx="640.0" cy="219.9" r="3" fill="#8c564b"/>
<circle cx="655.0" cy="209.6" r="3" fill="#8c564b"/>
<circle cx="670.0" cy="210.6" r="3" fill="#8c564b"/>
<circle cx="685.0" cy="229.5" r="3" fill="#8c564b"/>
<circle cx="700.0" cy="162.0" r="3" fill="#8c564b"/>
<circle cx="715.0" cy="215.8" r="3" fill="#8c564b"/>
<circle cx="730.0" cy="236.9" r="3" fill="#8c564b"/>
<circle cx="745.0" cy="198.5" r="3" fill="#8c564b"/>
<circle cx="760.0" cy="230.6" r="3" fill="#8c564b"/>
<circle cx="775.0" cy="225.5" r="3" fill="#8c564b"/>
<circle cx="790.0" cy="251.0" r="3" fill="#8c564b"/>
<circle cx="805.0" cy="250.8" r="3" fill="#8c564b"/>
<circle cx="820.0" cy="208.3" r="3" fill="#8c564b"/>
<circle cx="835.0" cy="225.5" r="3" fill="#8c564b"/>
<circle cx="850.0" cy="220.7" r="3" fill="#8c564b"/>
<circle cx="865.0" cy="238.3" r="3" fill="#8c564b"/>
<circle cx="880.0" cy="178.7" r="3" fill="#8c564b"/>
<rect x="70.0" y="358" width="10" height="10" fill="#8c564b"/>
<text x="84.0" y="367" font-size="11" fill="#333">render tick (p95)</text>
<polyline points="280.0,270.7 295.0,273.5 310.0,278.0 325.0,274.7 340.0,274.6 355.0,277.4 370.0,278.8 385.0,272.2 400.0,271.0 415.0,275.1 430.0,272.7 445.0,273.7 460.0,273.8 475.0,274.2 490.0,269.0 505.0,278.3 550.0,273.6 565.0,277.7 580.0,274.1 595.0,274.4 610.0,273.8 625.0,272.2 640.0,276.3 655.0,271.4 670.0,272.5 685.0,272.8 700.0,204.3 715.0,259.7 730.0,276.6 745.0,276.3 760.0,280.0 775.0,280.2 790.0,324.0 805.0,324.0 820.0,254.4 835.0,273.6 850.0,324.0 865.0,324.0 880.0,268.1" fill="none" stroke="#1f77b4" stroke-width="2"/>
<circle cx="280.0" cy="270.7" r="3" fill="#1f77b4"/>
<circle cx="295.0" cy="273.5" r="3" fill="#1f77b4"/>
<circle cx="310.0" cy="278.0" r="3" fill="#1f77b4"/>
<circle cx="325.0" cy="274.7" r="3" fill="#1f77b4"/>
<circle cx="340.0" cy="274.6" r="3" fill="#1f77b4"/>
<circle cx="355.0" cy="277.4" r="3" fill="#1f77b4"/>
<circle cx="370.0" cy="278.8" r="3" fill="#1f77b4"/>
<circle cx="385.0" cy="272.2" r="3" fill="#1f77b4"/>
<circle cx="400.0" cy="271.0" r="3" fill="#1f77b4"/>
<circle cx="415.0" cy="275.1" r="3" fill="#1f77b4"/>
<circle cx="430.0" cy="272.7" r="3" fill="#1f77b4"/>
<circle cx="445.0" cy="273.7" r="3" fill="#1f77b4"/>
<circle cx="460.0" cy="273.8" r="3" fill="#1f77b4"/>
<circle cx="475.0" cy="274.2" r="3" fill="#1f77b4"/>
<circle cx="490.0" cy="269.0" r="3" fill="#1f77b4"/>
<circle cx="505.0" cy="278.3" r="3" fill="#1f77b4"/>
<circle cx="550.0" cy="273.6" r="3" fill="#1f77b4"/>
<circle cx="565.0" cy="277.7" r="3" fill="#1f77b4"/>
<circle cx="580.0" cy="274.1" r="3" fill="#1f77b4"/>
<circle cx="595.0" cy="274.4" r="3" fill="#1f77b4"/>
<circle cx="610.0" cy="273.8" r="3" fill="#1f77b4"/>
<circle cx="625.0" cy="272.2" r="3" fill="#1f77b4"/>
<circle cx="640.0" cy="276.3" r="3" fill="#1f77b4"/>
<circle cx="655.0" cy="271.4" r="3" fill="#1f77b4"/>
<circle cx="670.0" cy="272.5" r="3" fill="#1f77b4"/>
<circle cx="685.0" cy="272.8" r="3" fill="#1f77b4"/>
<circle cx="700.0" cy="204.3" r="3" fill="#1f77b4"/>
<circle cx="715.0" cy="259.7" r="3" fill="#1f77b4"/>
<circle cx="730.0" cy="276.6" r="3" fill="#1f77b4"/>
<circle cx="745.0" cy="276.3" r="3" fill="#1f77b4"/>
<circle cx="760.0" cy="280.0" r="3" fill="#1f77b4"/>
<circle cx="775.0" cy="280.2" r="3" fill="#1f77b4"/>
<circle cx="790.0" cy="324.0" r="3" fill="#1f77b4"/>
<circle cx="805.0" cy="324.0" r="3" fill="#1f77b4"/>
<circle cx="820.0" cy="254.4" r="3" fill="#1f77b4"/>
<circle cx="835.0" cy="273.6" r="3" fill="#1f77b4"/>
<circle cx="850.0" cy="324.0" r="3" fill="#1f77b4"/>
<circle cx="865.0" cy="324.0" r="3" fill="#1f77b4"/>
<circle cx="880.0" cy="268.1" r="3" fill="#1f77b4"/>
<rect x="340.0" y="358" width="10" height="10" fill="#1f77b4"/>
<text x="354.0" y="367" font-size="11" fill="#333">render mouth (wav2lip)</text>
<polyline points="280.0,299.0 295.0,302.7 310.0,304.1 325.0,302.4 340.0,301.0 355.0,304.1 370.0,304.4 385.0,298.5 400.0,303.3 415.0,303.2 430.0,302.4 445.0,301.3 460.0,303.2 475.0,304.0 490.0,301.1 505.0,304.4 550.0,302.9 565.0,303.5 580.0,301.9 595.0,301.6 610.0,302.2 625.0,301.3 640.0,303.1 655.0,299.4 670.0,302.2 685.0,303.5 700.0,304.8 715.0,305.8 730.0,304.8 745.0,302.4 760.0,304.8 775.0,304.6 790.0,305.6 805.0,305.9 820.0,306.5 835.0,303.6 850.0,303.1 865.0,304.0 880.0,302.2" fill="none" stroke="#2ca02c" stroke-width="2"/>
<circle cx="280.0" cy="299.0" r="3" fill="#2ca02c"/>
<circle cx="295.0" cy="302.7" r="3" fill="#2ca02c"/>
<circle cx="310.0" cy="304.1" r="3" fill="#2ca02c"/>
<circle cx="325.0" cy="302.4" r="3" fill="#2ca02c"/>
<circle cx="340.0" cy="301.0" r="3" fill="#2ca02c"/>
<circle cx="355.0" cy="304.1" r="3" fill="#2ca02c"/>
<circle cx="370.0" cy="304.4" r="3" fill="#2ca02c"/>
<circle cx="385.0" cy="298.5" r="3" fill="#2ca02c"/>
<circle cx="400.0" cy="303.3" r="3" fill="#2ca02c"/>
<circle cx="415.0" cy="303.2" r="3" fill="#2ca02c"/>
<circle cx="430.0" cy="302.4" r="3" fill="#2ca02c"/>
<circle cx="445.0" cy="301.3" r="3" fill="#2ca02c"/>
<circle cx="460.0" cy="303.2" r="3" fill="#2ca02c"/>
<circle cx="475.0" cy="304.0" r="3" fill="#2ca02c"/>
<circle cx="490.0" cy="301.1" r="3" fill="#2ca02c"/>
<circle cx="505.0" cy="304.4" r="3" fill="#2ca02c"/>
<circle cx="550.0" cy="302.9" r="3" fill="#2ca02c"/>
<circle cx="565.0" cy="303.5" r="3" fill="#2ca02c"/>
<circle cx="580.0" cy="301.9" r="3" fill="#2ca02c"/>
<circle cx="595.0" cy="301.6" r="3" fill="#2ca02c"/>
<circle cx="610.0" cy="302.2" r="3" fill="#2ca02c"/>
<circle cx="625.0" cy="301.3" r="3" fill="#2ca02c"/>
<circle cx="640.0" cy="303.1" r="3" fill="#2ca02c"/>
<circle cx="655.0" cy="299.4" r="3" fill="#2ca02c"/>
<circle cx="670.0" cy="302.2" r="3" fill="#2ca02c"/>
<circle cx="685.0" cy="303.5" r="3" fill="#2ca02c"/>
<circle cx="700.0" cy="304.8" r="3" fill="#2ca02c"/>
<circle cx="715.0" cy="305.8" r="3" fill="#2ca02c"/>
<circle cx="730.0" cy="304.8" r="3" fill="#2ca02c"/>
<circle cx="745.0" cy="302.4" r="3" fill="#2ca02c"/>
<circle cx="760.0" cy="304.8" r="3" fill="#2ca02c"/>
<circle cx="775.0" cy="304.6" r="3" fill="#2ca02c"/>
<circle cx="790.0" cy="305.6" r="3" fill="#2ca02c"/>
<circle cx="805.0" cy="305.9" r="3" fill="#2ca02c"/>
<circle cx="820.0" cy="306.5" r="3" fill="#2ca02c"/>
<circle cx="835.0" cy="303.6" r="3" fill="#2ca02c"/>
<circle cx="850.0" cy="303.1" r="3" fill="#2ca02c"/>
<circle cx="865.0" cy="304.0" r="3" fill="#2ca02c"/>
<circle cx="880.0" cy="302.2" r="3" fill="#2ca02c"/>
<rect x="610.0" y="358" width="10" height="10" fill="#2ca02c"/>
<text x="624.0" y="367" font-size="11" fill="#333">render compose (SkiaSharp)</text>
</svg>
