<svg xmlns="http://www.w3.org/2000/svg" width="900" height="380" viewBox="0 0 900 380" font-family="sans-serif">
<rect width="900" height="380" fill="white"/>
<text x="70" y="24" font-size="16" fill="#333">Browser-observed WebRTC latency (ms, p50) — lower is better</text>
<line x1="70" y1="324.0" x2="880" y2="324.0" stroke="#e5e5e5"/>
<text x="64" y="328.0" font-size="11" fill="#666" text-anchor="end">0ms</text>
<line x1="70" y1="268.0" x2="880" y2="268.0" stroke="#e5e5e5"/>
<text x="64" y="272.0" font-size="11" fill="#666" text-anchor="end">2305ms</text>
<line x1="70" y1="212.0" x2="880" y2="212.0" stroke="#e5e5e5"/>
<text x="64" y="216.0" font-size="11" fill="#666" text-anchor="end">4609ms</text>
<line x1="70" y1="156.0" x2="880" y2="156.0" stroke="#e5e5e5"/>
<text x="64" y="160.0" font-size="11" fill="#666" text-anchor="end">6914ms</text>
<line x1="70" y1="100.0" x2="880" y2="100.0" stroke="#e5e5e5"/>
<text x="64" y="104.0" font-size="11" fill="#666" text-anchor="end">9219ms</text>
<line x1="70" y1="44.0" x2="880" y2="44.0" stroke="#e5e5e5"/>
<text x="64" y="48.0" font-size="11" fill="#666" text-anchor="end">11523ms</text>
<text x="70.0" y="342" font-size="11" fill="#666" text-anchor="start">07-16 22:20</text>
<text x="484.9" y="342" font-size="11" fill="#666" text-anchor="middle">07-17 20:04</text>
<text x="880.0" y="342" font-size="11" fill="#666" text-anchor="end">07-18 10:26</text>
<polyline points="70.0,286.6 89.8,283.0 109.5,286.3 129.3,285.6 149.0,282.6 168.8,288.2 188.5,285.3 208.3,283.7 228.0,287.3 247.8,287.2 267.6,289.4 287.3,287.2 307.1,284.5 326.8,295.8 346.6,298.9 366.3,295.9 386.1,297.1 405.9,299.0 425.6,294.2 445.4,303.9 465.1,305.8 484.9,302.6 504.6,306.9 524.4,295.9 544.1,303.4 563.9,304.4 583.7,303.2 603.4,306.1 623.2,303.7 642.9,305.2 662.7,302.0 682.4,306.2 702.2,305.3 722.0,305.1 741.7,301.3 761.5,313.8 781.2,312.7 801.0,301.4 820.7,301.9 840.5,300.0 860.2,313.8 880.0,303.6" fill="none" stroke="#4c78a8" stroke-width="2"/>
<circle cx="70.0" cy="286.6" r="3" fill="#4c78a8"/>
<circle cx="89.8" cy="283.0" r="3" fill="#4c78a8"/>
<circle cx="109.5" cy="286.3" r="3" fill="#4c78a8"/>
<circle cx="129.3" cy="285.6" r="3" fill="#4c78a8"/>
<circle cx="149.0" cy="282.6" r="3" fill="#4c78a8"/>
<circle cx="168.8" cy="288.2" r="3" fill="#4c78a8"/>
<circle cx="188.5" cy="285.3" r="3" fill="#4c78a8"/>
<circle cx="208.3" cy="283.7" r="3" fill="#4c78a8"/>
<circle cx="228.0" cy="287.3" r="3" fill="#4c78a8"/>
<circle cx="247.8" cy="287.2" r="3" fill="#4c78a8"/>
<circle cx="267.6" cy="289.4" r="3" fill="#4c78a8"/>
<circle cx="287.3" cy="287.2" r="3" fill="#4c78a8"/>
<circle cx="307.1" cy="284.5" r="3" fill="#4c78a8"/>
<circle cx="326.8" cy="295.8" r="3" fill="#4c78a8"/>
<circle cx="346.6" cy="298.9" r="3" fill="#4c78a8"/>
<circle cx="366.3" cy="295.9" r="3" fill="#4c78a8"/>
<circle cx="386.1" cy="297.1" r="3" fill="#4c78a8"/>
<circle cx="405.9" cy="299.0" r="3" fill="#4c78a8"/>
<circle cx="425.6" cy="294.2" r="3" fill="#4c78a8"/>
<circle cx="445.4" cy="303.9" r="3" fill="#4c78a8"/>
<circle cx="465.1" cy="305.8" r="3" fill="#4c78a8"/>
<circle cx="484.9" cy="302.6" r="3" fill="#4c78a8"/>
<circle cx="504.6" cy="306.9" r="3" fill="#4c78a8"/>
<circle cx="524.4" cy="295.9" r="3" fill="#4c78a8"/>
<circle cx="544.1" cy="303.4" r="3" fill="#4c78a8"/>
<circle cx="563.9" cy="304.4" r="3" fill="#4c78a8"/>
<circle cx="583.7" cy="303.2" r="3" fill="#4c78a8"/>
<circle cx="603.4" cy="306.1" r="3" fill="#4c78a8"/>
<circle cx="623.2" cy="303.7" r="3" fill="#4c78a8"/>
<circle cx="642.9" cy="305.2" r="3" fill="#4c78a8"/>
<circle cx="662.7" cy="302.0" r="3" fill="#4c78a8"/>
<circle cx="682.4" cy="306.2" r="3" fill="#4c78a8"/>
<circle cx="702.2" cy="305.3" r="3" fill="#4c78a8"/>
<circle cx="722.0" cy="305.1" r="3" fill="#4c78a8"/>
<circle cx="741.7" cy="301.3" r="3" fill="#4c78a8"/>
<circle cx="761.5" cy="313.8" r="3" fill="#4c78a8"/>
<circle cx="781.2" cy="312.7" r="3" fill="#4c78a8"/>
<circle cx="801.0" cy="301.4" r="3" fill="#4c78a8"/>
<circle cx="820.7" cy="301.9" r="3" fill="#4c78a8"/>
<circle cx="840.5" cy="300.0" r="3" fill="#4c78a8"/>
<circle cx="860.2" cy="313.8" r="3" fill="#4c78a8"/>
<circle cx="880.0" cy="303.6" r="3" fill="#4c78a8"/>
<rect x="70.0" y="358" width="10" height="10" fill="#4c78a8"/>
<text x="84.0" y="367" font-size="11" fill="#333">STT final</text>
<polyline points="70.0,279.7 89.8,272.0 109.5,276.8 129.3,276.8 149.0,271.5 168.8,273.1 188.5,274.7 208.3,266.2 228.0,276.2 247.8,271.8 267.6,273.2 287.3,276.7 307.1,273.0 326.8,287.5 346.6,288.1 366.3,277.4 386.1,283.6 405.9,287.3 425.6,284.1 445.4,295.0 465.1,294.7 484.9,296.8 504.6,290.6 524.4,235.7 544.1,287.8 563.9,295.2 583.7,291.0 603.4,295.8 623.2,293.3 642.9,288.3 662.7,280.2 682.4,297.5 702.2,290.9 722.0,297.0 741.7,289.8 761.5,304.9 781.2,300.8 801.0,286.0 820.7,291.4 840.5,293.9 860.2,298.3 880.0,295.8" fill="none" stroke="#59a14f" stroke-width="2"/>
<circle cx="70.0" cy="279.7" r="3" fill="#59a14f"/>
<circle cx="89.8" cy="272.0" r="3" fill="#59a14f"/>
<circle cx="109.5" cy="276.8" r="3" fill="#59a14f"/>
<circle cx="129.3" cy="276.8" r="3" fill="#59a14f"/>
<circle cx="149.0" cy="271.5" r="3" fill="#59a14f"/>
<circle cx="168.8" cy="273.1" r="3" fill="#59a14f"/>
<circle cx="188.5" cy="274.7" r="3" fill="#59a14f"/>
<circle cx="208.3" cy="266.2" r="3" fill="#59a14f"/>
<circle cx="228.0" cy="276.2" r="3" fill="#59a14f"/>
<circle cx="247.8" cy="271.8" r="3" fill="#59a14f"/>
<circle cx="267.6" cy="273.2" r="3" fill="#59a14f"/>
<circle cx="287.3" cy="276.7" r="3" fill="#59a14f"/>
<circle cx="307.1" cy="273.0" r="3" fill="#59a14f"/>
<circle cx="326.8" cy="287.5" r="3" fill="#59a14f"/>
<circle cx="346.6" cy="288.1" r="3" fill="#59a14f"/>
<circle cx="366.3" cy="277.4" r="3" fill="#59a14f"/>
<circle cx="386.1" cy="283.6" r="3" fill="#59a14f"/>
<circle cx="405.9" cy="287.3" r="3" fill="#59a14f"/>
<circle cx="425.6" cy="284.1" r="3" fill="#59a14f"/>
<circle cx="445.4" cy="295.0" r="3" fill="#59a14f"/>
<circle cx="465.1" cy="294.7" r="3" fill="#59a14f"/>
<circle cx="484.9" cy="296.8" r="3" fill="#59a14f"/>
<circle cx="504.6" cy="290.6" r="3" fill="#59a14f"/>
<circle cx="524.4" cy="235.7" r="3" fill="#59a14f"/>
<circle cx="544.1" cy="287.8" r="3" fill="#59a14f"/>
<circle cx="563.9" cy="295.2" r="3" fill="#59a14f"/>
<circle cx="583.7" cy="291.0" r="3" fill="#59a14f"/>
<circle cx="603.4" cy="295.8" r="3" fill="#59a14f"/>
<circle cx="623.2" cy="293.3" r="3" fill="#59a14f"/>
<circle cx="642.9" cy="288.3" r="3" fill="#59a14f"/>
<circle cx="662.7" cy="280.2" r="3" fill="#59a14f"/>
<circle cx="682.4" cy="297.5" r="3" fill="#59a14f"/>
<circle cx="702.2" cy="290.9" r="3" fill="#59a14f"/>
<circle cx="722.0" cy="297.0" r="3" fill="#59a14f"/>
<circle cx="741.7" cy="289.8" r="3" fill="#59a14f"/>
<circle cx="761.5" cy="304.9" r="3" fill="#59a14f"/>
<circle cx="781.2" cy="300.8" r="3" fill="#59a14f"/>
<circle cx="801.0" cy="286.0" r="3" fill="#59a14f"/>
<circle cx="820.7" cy="291.4" r="3" fill="#59a14f"/>
<circle cx="840.5" cy="293.9" r="3" fill="#59a14f"/>
<circle cx="860.2" cy="298.3" r="3" fill="#59a14f"/>
<circle cx="880.0" cy="295.8" r="3" fill="#59a14f"/>
<rect x="232.0" y="358" width="10" height="10" fill="#59a14f"/>
<text x="246.0" y="367" font-size="11" fill="#333">LLM first token</text>
<polyline points="70.0,93.7 89.8,161.7 109.5,197.4 129.3,213.5 149.0,236.3 168.8,260.6 188.5,213.4 208.3,191.1 228.0,216.8 247.8,228.5 267.6,191.6 287.3,253.8 307.1,205.2 326.8,270.8 346.6,269.3 366.3,248.4 386.1,269.3 405.9,272.7 425.6,267.4 445.4,282.0 465.1,283.9 484.9,286.8 504.6,272.5 524.4,64.7 544.1,268.8 563.9,275.7 583.7,278.6 603.4,281.5 623.2,283.9 642.9,275.7 662.7,264.5 682.4,286.3 702.2,278.6 722.0,281.0 741.7,271.8 761.5,294.1 781.2,287.8 801.0,262.0 820.7,274.7 840.5,286.3 860.2,282.9 880.0,287.8" fill="none" stroke="#e15759" stroke-width="2"/>
<circle cx="70.0" cy="93.7" r="3" fill="#e15759"/>
<circle cx="89.8" cy="161.7" r="3" fill="#e15759"/>
<circle cx="109.5" cy="197.4" r="3" fill="#e15759"/>
<circle cx="129.3" cy="213.5" r="3" fill="#e15759"/>
<circle cx="149.0" cy="236.3" r="3" fill="#e15759"/>
<circle cx="168.8" cy="260.6" r="3" fill="#e15759"/>
<circle cx="188.5" cy="213.4" r="3" fill="#e15759"/>
<circle cx="208.3" cy="191.1" r="3" fill="#e15759"/>
<circle cx="228.0" cy="216.8" r="3" fill="#e15759"/>
<circle cx="247.8" cy="228.5" r="3" fill="#e15759"/>
<circle cx="267.6" cy="191.6" r="3" fill="#e15759"/>
<circle cx="287.3" cy="253.8" r="3" fill="#e15759"/>
<circle cx="307.1" cy="205.2" r="3" fill="#e15759"/>
<circle cx="326.8" cy="270.8" r="3" fill="#e15759"/>
<circle cx="346.6" cy="269.3" r="3" fill="#e15759"/>
<circle cx="366.3" cy="248.4" r="3" fill="#e15759"/>
<circle cx="386.1" cy="269.3" r="3" fill="#e15759"/>
<circle cx="405.9" cy="272.7" r="3" fill="#e15759"/>
<circle cx="425.6" cy="267.4" r="3" fill="#e15759"/>
<circle cx="445.4" cy="282.0" r="3" fill="#e15759"/>
<circle cx="465.1" cy="283.9" r="3" fill="#e15759"/>
<circle cx="484.9" cy="286.8" r="3" fill="#e15759"/>
<circle cx="504.6" cy="272.5" r="3" fill="#e15759"/>
<circle cx="524.4" cy="64.7" r="3" fill="#e15759"/>
<circle cx="544.1" cy="268.8" r="3" fill="#e15759"/>
<circle cx="563.9" cy="275.7" r="3" fill="#e15759"/>
<circle cx="583.7" cy="278.6" r="3" fill="#e15759"/>
<circle cx="603.4" cy="281.5" r="3" fill="#e15759"/>
<circle cx="623.2" cy="283.9" r="3" fill="#e15759"/>
<circle cx="642.9" cy="275.7" r="3" fill="#e15759"/>
<circle cx="662.7" cy="264.5" r="3" fill="#e15759"/>
<circle cx="682.4" cy="286.3" r="3" fill="#e15759"/>
<circle cx="702.2" cy="278.6" r="3" fill="#e15759"/>
<circle cx="722.0" cy="281.0" r="3" fill="#e15759"/>
<circle cx="741.7" cy="271.8" r="3" fill="#e15759"/>
<circle cx="761.5" cy="294.1" r="3" fill="#e15759"/>
<circle cx="781.2" cy="287.8" r="3" fill="#e15759"/>
<circle cx="801.0" cy="262.0" r="3" fill="#e15759"/>
<circle cx="820.7" cy="274.7" r="3" fill="#e15759"/>
<circle cx="840.5" cy="286.3" r="3" fill="#e15759"/>
<circle cx="860.2" cy="282.9" r="3" fill="#e15759"/>
<circle cx="880.0" cy="287.8" r="3" fill="#e15759"/>
<rect x="394.0" y="358" width="10" height="10" fill="#e15759"/>
<text x="408.0" y="367" font-size="11" fill="#333">received audio</text>
<polyline points="70.0,313.8 89.8,316.9 109.5,315.6 129.3,316.4 149.0,312.7 168.8,320.5 188.5,306.6 208.3,315.1 228.0,317.8 247.8,309.6 267.6,317.4 287.3,319.3 307.1,310.8 326.8,317.9 346.6,313.7 366.3,311.5 386.1,313.9 405.9,315.8 425.6,312.3 445.4,317.7 465.1,316.9 484.9,318.4 504.6,315.2 524.4,317.0 544.1,319.2 563.9,315.3 583.7,319.4 603.4,319.4 623.2,318.9 642.9,310.1 662.7,311.8 682.4,319.8 702.2,318.0 722.0,315.2 741.7,314.7 761.5,320.7 781.2,320.6 801.0,316.9 820.7,316.3 840.5,321.2 860.2,320.4 880.0,321.2" fill="none" stroke="#b279a2" stroke-width="2"/>
<circle cx="70.0" cy="313.8" r="3" fill="#b279a2"/>
<circle cx="89.8" cy="316.9" r="3" fill="#b279a2"/>
<circle cx="109.5" cy="315.6" r="3" fill="#b279a2"/>
<circle cx="129.3" cy="316.4" r="3" fill="#b279a2"/>
<circle cx="149.0" cy="312.7" r="3" fill="#b279a2"/>
<circle cx="168.8" cy="320.5" r="3" fill="#b279a2"/>
<circle cx="188.5" cy="306.6" r="3" fill="#b279a2"/>
<circle cx="208.3" cy="315.1" r="3" fill="#b279a2"/>
<circle cx="228.0" cy="317.8" r="3" fill="#b279a2"/>
<circle cx="247.8" cy="309.6" r="3" fill="#b279a2"/>
<circle cx="267.6" cy="317.4" r="3" fill="#b279a2"/>
<circle cx="287.3" cy="319.3" r="3" fill="#b279a2"/>
<circle cx="307.1" cy="310.8" r="3" fill="#b279a2"/>
<circle cx="326.8" cy="317.9" r="3" fill="#b279a2"/>
<circle cx="346.6" cy="313.7" r="3" fill="#b279a2"/>
<circle cx="366.3" cy="311.5" r="3" fill="#b279a2"/>
<circle cx="386.1" cy="313.9" r="3" fill="#b279a2"/>
<circle cx="405.9" cy="315.8" r="3" fill="#b279a2"/>
<circle cx="425.6" cy="312.3" r="3" fill="#b279a2"/>
<circle cx="445.4" cy="317.7" r="3" fill="#b279a2"/>
<circle cx="465.1" cy="316.9" r="3" fill="#b279a2"/>
<circle cx="484.9" cy="318.4" r="3" fill="#b279a2"/>
<circle cx="504.6" cy="315.2" r="3" fill="#b279a2"/>
<circle cx="524.4" cy="317.0" r="3" fill="#b279a2"/>
<circle cx="544.1" cy="319.2" r="3" fill="#b279a2"/>
<circle cx="563.9" cy="315.3" r="3" fill="#b279a2"/>
<circle cx="583.7" cy="319.4" r="3" fill="#b279a2"/>
<circle cx="603.4" cy="319.4" r="3" fill="#b279a2"/>
<circle cx="623.2" cy="318.9" r="3" fill="#b279a2"/>
<circle cx="642.9" cy="310.1" r="3" fill="#b279a2"/>
<circle cx="662.7" cy="311.8" r="3" fill="#b279a2"/>
<circle cx="682.4" cy="319.8" r="3" fill="#b279a2"/>
<circle cx="702.2" cy="318.0" r="3" fill="#b279a2"/>
<circle cx="722.0" cy="315.2" r="3" fill="#b279a2"/>
<circle cx="741.7" cy="314.7" r="3" fill="#b279a2"/>
<circle cx="761.5" cy="320.7" r="3" fill="#b279a2"/>
<circle cx="781.2" cy="320.6" r="3" fill="#b279a2"/>
<circle cx="801.0" cy="316.9" r="3" fill="#b279a2"/>
<circle cx="820.7" cy="316.3" r="3" fill="#b279a2"/>
<circle cx="840.5" cy="321.2" r="3" fill="#b279a2"/>
<circle cx="860.2" cy="320.4" r="3" fill="#b279a2"/>
<circle cx="880.0" cy="321.2" r="3" fill="#b279a2"/>
<rect x="556.0" y="358" width="10" height="10" fill="#b279a2"/>
<text x="570.0" y="367" font-size="11" fill="#333">received mouth</text>
<rect x="718.0" y="358" width="10" height="10" fill="#ff7f0e"/>
<text x="732.0" y="367" font-size="11" fill="#333">server A/V offset</text>
</svg>
