<svg xmlns="http://www.w3.org/2000/svg" width="900" height="380" viewBox="0 0 900 380" font-family="sans-serif">
<rect width="900" height="380" fill="white"/>
<text x="70" y="24" font-size="16" fill="#333">Browser-observed WebRTC latency (ms, p50) — lower is better</text>
<line x1="70" y1="324.0" x2="880" y2="324.0" stroke="#e5e5e5"/>
<text x="64" y="328.0" font-size="11" fill="#666" text-anchor="end">0ms</text>
<line x1="70" y1="268.0" x2="880" y2="268.0" stroke="#e5e5e5"/>
<text x="64" y="272.0" font-size="11" fill="#666" text-anchor="end">2047ms</text>
<line x1="70" y1="212.0" x2="880" y2="212.0" stroke="#e5e5e5"/>
<text x="64" y="216.0" font-size="11" fill="#666" text-anchor="end">4095ms</text>
<line x1="70" y1="156.0" x2="880" y2="156.0" stroke="#e5e5e5"/>
<text x="64" y="160.0" font-size="11" fill="#666" text-anchor="end">6142ms</text>
<line x1="70" y1="100.0" x2="880" y2="100.0" stroke="#e5e5e5"/>
<text x="64" y="104.0" font-size="11" fill="#666" text-anchor="end">8190ms</text>
<line x1="70" y1="44.0" x2="880" y2="44.0" stroke="#e5e5e5"/>
<text x="64" y="48.0" font-size="11" fill="#666" text-anchor="end">10237ms</text>
<text x="70.0" y="342" font-size="11" fill="#666" text-anchor="start">07-16 22:20</text>
<text x="520.0" y="342" font-size="11" fill="#666" text-anchor="middle">07-17 14:43</text>
<text x="880.0" y="342" font-size="11" fill="#666" text-anchor="end">07-17 15:26</text>
<polyline points="70.0,281.9 160.0,277.8 250.0,281.6 340.0,280.8 430.0,277.4 520.0,283.7 610.0,280.4 700.0,278.6 790.0,282.7 880.0,282.6" fill="none" stroke="#4c78a8" stroke-width="2"/>
<circle cx="70.0" cy="281.9" r="3" fill="#4c78a8"/>
<circle cx="160.0" cy="277.8" r="3" fill="#4c78a8"/>
<circle cx="250.0" cy="281.6" r="3" fill="#4c78a8"/>
<circle cx="340.0" cy="280.8" r="3" fill="#4c78a8"/>
<circle cx="430.0" cy="277.4" r="3" fill="#4c78a8"/>
<circle cx="520.0" cy="283.7" r="3" fill="#4c78a8"/>
<circle cx="610.0" cy="280.4" r="3" fill="#4c78a8"/>
<circle cx="700.0" cy="278.6" r="3" fill="#4c78a8"/>
<circle cx="790.0" cy="282.7" r="3" fill="#4c78a8"/>
<circle cx="880.0" cy="282.6" r="3" fill="#4c78a8"/>
<rect x="70.0" y="358" width="10" height="10" fill="#4c78a8"/>
<text x="84.0" y="367" font-size="11" fill="#333">STT final</text>
<polyline points="70.0,274.2 160.0,265.5 250.0,270.9 340.0,270.9 430.0,264.9 520.0,266.7 610.0,268.5 700.0,258.9 790.0,270.2 880.0,265.3" fill="none" stroke="#59a14f" stroke-width="2"/>
<circle cx="70.0" cy="274.2" r="3" fill="#59a14f"/>
<circle cx="160.0" cy="265.5" r="3" fill="#59a14f"/>
<circle cx="250.0" cy="270.9" r="3" fill="#59a14f"/>
<circle cx="340.0" cy="270.9" r="3" fill="#59a14f"/>
<circle cx="430.0" cy="264.9" r="3" fill="#59a14f"/>
<circle cx="520.0" cy="266.7" r="3" fill="#59a14f"/>
<circle cx="610.0" cy="268.5" r="3" fill="#59a14f"/>
<circle cx="700.0" cy="258.9" r="3" fill="#59a14f"/>
<circle cx="790.0" cy="270.2" r="3" fill="#59a14f"/>
<circle cx="880.0" cy="265.3" r="3" fill="#59a14f"/>
<rect x="232.0" y="358" width="10" height="10" fill="#59a14f"/>
<text x="246.0" y="367" font-size="11" fill="#333">LLM first token</text>
<polyline points="70.0,64.7 160.0,141.3 250.0,181.5 340.0,199.6 430.0,225.3 520.0,252.6 610.0,199.5 700.0,174.4 790.0,203.4 880.0,216.5" fill="none" stroke="#e15759" stroke-width="2"/>
<circle cx="70.0" cy="64.7" r="3" fill="#e15759"/>
<circle cx="160.0" cy="141.3" r="3" fill="#e15759"/>
<circle cx="250.0" cy="181.5" r="3" fill="#e15759"/>
<circle cx="340.0" cy="199.6" r="3" fill="#e15759"/>
<circle cx="430.0" cy="225.3" r="3" fill="#e15759"/>
<circle cx="520.0" cy="252.6" r="3" fill="#e15759"/>
<circle cx="610.0" cy="199.5" r="3" fill="#e15759"/>
<circle cx="700.0" cy="174.4" r="3" fill="#e15759"/>
<circle cx="790.0" cy="203.4" r="3" fill="#e15759"/>
<circle cx="880.0" cy="216.5" r="3" fill="#e15759"/>
<rect x="394.0" y="358" width="10" height="10" fill="#e15759"/>
<text x="408.0" y="367" font-size="11" fill="#333">received audio</text>
<polyline points="70.0,312.5 160.0,316.0 250.0,314.6 340.0,315.4 430.0,311.2 520.0,320.1 610.0,304.4 700.0,313.9 790.0,317.1 880.0,307.8" fill="none" stroke="#b279a2" stroke-width="2"/>
<circle cx="70.0" cy="312.5" r="3" fill="#b279a2"/>
<circle cx="160.0" cy="316.0" r="3" fill="#b279a2"/>
<circle cx="250.0" cy="314.6" r="3" fill="#b279a2"/>
<circle cx="340.0" cy="315.4" r="3" fill="#b279a2"/>
<circle cx="430.0" cy="311.2" r="3" fill="#b279a2"/>
<circle cx="520.0" cy="320.1" r="3" fill="#b279a2"/>
<circle cx="610.0" cy="304.4" r="3" fill="#b279a2"/>
<circle cx="700.0" cy="313.9" r="3" fill="#b279a2"/>
<circle cx="790.0" cy="317.1" r="3" fill="#b279a2"/>
<circle cx="880.0" cy="307.8" r="3" fill="#b279a2"/>
<rect x="556.0" y="358" width="10" height="10" fill="#b279a2"/>
<text x="570.0" y="367" font-size="11" fill="#333">received mouth</text>
<rect x="718.0" y="358" width="10" height="10" fill="#ff7f0e"/>
<text x="732.0" y="367" font-size="11" fill="#333">server A/V offset</text>
</svg>
