<svg xmlns="http://www.w3.org/2000/svg" width="900" height="380" viewBox="0 0 900 380" font-family="sans-serif">
<rect width="900" height="380" fill="white"/>
<text x="70" y="24" font-size="16" fill="#333">Browser-observed WebRTC latency (ms, p50) — lower is better</text>
<line x1="70" y1="324.0" x2="880" y2="324.0" stroke="#e5e5e5"/>
<text x="64" y="328.0" font-size="11" fill="#666" text-anchor="end">0ms</text>
<line x1="70" y1="268.0" x2="880" y2="268.0" stroke="#e5e5e5"/>
<text x="64" y="272.0" font-size="11" fill="#666" text-anchor="end">2047ms</text>
<line x1="70" y1="212.0" x2="880" y2="212.0" stroke="#e5e5e5"/>
<text x="64" y="216.0" font-size="11" fill="#666" text-anchor="end">4095ms</text>
<line x1="70" y1="156.0" x2="880" y2="156.0" stroke="#e5e5e5"/>
<text x="64" y="160.0" font-size="11" fill="#666" text-anchor="end">6142ms</text>
<line x1="70" y1="100.0" x2="880" y2="100.0" stroke="#e5e5e5"/>
<text x="64" y="104.0" font-size="11" fill="#666" text-anchor="end">8190ms</text>
<line x1="70" y1="44.0" x2="880" y2="44.0" stroke="#e5e5e5"/>
<text x="64" y="48.0" font-size="11" fill="#666" text-anchor="end">10237ms</text>
<text x="70.0" y="342" font-size="11" fill="#666" text-anchor="start">07-16 22:20</text>
<text x="496.3" y="342" font-size="11" fill="#666" text-anchor="middle">07-17 16:33</text>
<text x="880.0" y="342" font-size="11" fill="#666" text-anchor="end">07-17 19:53</text>
<polyline points="70.0,281.9 112.6,277.8 155.3,281.6 197.9,280.8 240.5,277.4 283.2,283.7 325.8,280.4 368.4,278.6 411.1,282.7 453.7,282.6 496.3,285.1 538.9,282.6 581.6,279.5 624.2,292.3 666.8,295.7 709.5,292.4 752.1,293.8 794.7,295.8 837.4,290.4 880.0,301.4" fill="none" stroke="#4c78a8" stroke-width="2"/>
<circle cx="70.0" cy="281.9" r="3" fill="#4c78a8"/>
<circle cx="112.6" cy="277.8" r="3" fill="#4c78a8"/>
<circle cx="155.3" cy="281.6" r="3" fill="#4c78a8"/>
<circle cx="197.9" cy="280.8" r="3" fill="#4c78a8"/>
<circle cx="240.5" cy="277.4" r="3" fill="#4c78a8"/>
<circle cx="283.2" cy="283.7" r="3" fill="#4c78a8"/>
<circle cx="325.8" cy="280.4" r="3" fill="#4c78a8"/>
<circle cx="368.4" cy="278.6" r="3" fill="#4c78a8"/>
<circle cx="411.1" cy="282.7" r="3" fill="#4c78a8"/>
<circle cx="453.7" cy="282.6" r="3" fill="#4c78a8"/>
<circle cx="496.3" cy="285.1" r="3" fill="#4c78a8"/>
<circle cx="538.9" cy="282.6" r="3" fill="#4c78a8"/>
<circle cx="581.6" cy="279.5" r="3" fill="#4c78a8"/>
<circle cx="624.2" cy="292.3" r="3" fill="#4c78a8"/>
<circle cx="666.8" cy="295.7" r="3" fill="#4c78a8"/>
<circle cx="709.5" cy="292.4" r="3" fill="#4c78a8"/>
<circle cx="752.1" cy="293.8" r="3" fill="#4c78a8"/>
<circle cx="794.7" cy="295.8" r="3" fill="#4c78a8"/>
<circle cx="837.4" cy="290.4" r="3" fill="#4c78a8"/>
<circle cx="880.0" cy="301.4" r="3" fill="#4c78a8"/>
<rect x="70.0" y="358" width="10" height="10" fill="#4c78a8"/>
<text x="84.0" y="367" font-size="11" fill="#333">STT final</text>
<polyline points="70.0,274.2 112.6,265.5 155.3,270.9 197.9,270.9 240.5,264.9 283.2,266.7 325.8,268.5 368.4,258.9 411.1,270.2 453.7,265.3 496.3,266.8 538.9,270.8 581.6,266.6 624.2,282.9 666.8,283.6 709.5,271.5 752.1,278.5 794.7,282.7 837.4,279.1 880.0,291.3" fill="none" stroke="#59a14f" stroke-width="2"/>
<circle cx="70.0" cy="274.2" r="3" fill="#59a14f"/>
<circle cx="112.6" cy="265.5" r="3" fill="#59a14f"/>
<circle cx="155.3" cy="270.9" r="3" fill="#59a14f"/>
<circle cx="197.9" cy="270.9" r="3" fill="#59a14f"/>
<circle cx="240.5" cy="264.9" r="3" fill="#59a14f"/>
<circle cx="283.2" cy="266.7" r="3" fill="#59a14f"/>
<circle cx="325.8" cy="268.5" r="3" fill="#59a14f"/>
<circle cx="368.4" cy="258.9" r="3" fill="#59a14f"/>
<circle cx="411.1" cy="270.2" r="3" fill="#59a14f"/>
<circle cx="453.7" cy="265.3" r="3" fill="#59a14f"/>
<circle cx="496.3" cy="266.8" r="3" fill="#59a14f"/>
<circle cx="538.9" cy="270.8" r="3" fill="#59a14f"/>
<circle cx="581.6" cy="266.6" r="3" fill="#59a14f"/>
<circle cx="624.2" cy="282.9" r="3" fill="#59a14f"/>
<circle cx="666.8" cy="283.6" r="3" fill="#59a14f"/>
<circle cx="709.5" cy="271.5" r="3" fill="#59a14f"/>
<circle cx="752.1" cy="278.5" r="3" fill="#59a14f"/>
<circle cx="794.7" cy="282.7" r="3" fill="#59a14f"/>
<circle cx="837.4" cy="279.1" r="3" fill="#59a14f"/>
<circle cx="880.0" cy="291.3" r="3" fill="#59a14f"/>
<rect x="232.0" y="358" width="10" height="10" fill="#59a14f"/>
<text x="246.0" y="367" font-size="11" fill="#333">LLM first token</text>
<polyline points="70.0,64.7 112.6,141.3 155.3,181.5 197.9,199.6 240.5,225.3 283.2,252.6 325.8,199.5 368.4,174.4 411.1,203.4 453.7,216.5 496.3,175.0 538.9,245.0 581.6,190.3 624.2,264.1 666.8,262.5 709.5,239.0 752.1,262.5 794.7,266.3 837.4,260.3 880.0,276.7" fill="none" stroke="#e15759" stroke-width="2"/>
<circle cx="70.0" cy="64.7" r="3" fill="#e15759"/>
<circle cx="112.6" cy="141.3" r="3" fill="#e15759"/>
<circle cx="155.3" cy="181.5" r="3" fill="#e15759"/>
<circle cx="197.9" cy="199.6" r="3" fill="#e15759"/>
<circle cx="240.5" cy="225.3" r="3" fill="#e15759"/>
<circle cx="283.2" cy="252.6" r="3" fill="#e15759"/>
<circle cx="325.8" cy="199.5" r="3" fill="#e15759"/>
<circle cx="368.4" cy="174.4" r="3" fill="#e15759"/>
<circle cx="411.1" cy="203.4" r="3" fill="#e15759"/>
<circle cx="453.7" cy="216.5" r="3" fill="#e15759"/>
<circle cx="496.3" cy="175.0" r="3" fill="#e15759"/>
<circle cx="538.9" cy="245.0" r="3" fill="#e15759"/>
<circle cx="581.6" cy="190.3" r="3" fill="#e15759"/>
<circle cx="624.2" cy="264.1" r="3" fill="#e15759"/>
<circle cx="666.8" cy="262.5" r="3" fill="#e15759"/>
<circle cx="709.5" cy="239.0" r="3" fill="#e15759"/>
<circle cx="752.1" cy="262.5" r="3" fill="#e15759"/>
<circle cx="794.7" cy="266.3" r="3" fill="#e15759"/>
<circle cx="837.4" cy="260.3" r="3" fill="#e15759"/>
<circle cx="880.0" cy="276.7" r="3" fill="#e15759"/>
<rect x="394.0" y="358" width="10" height="10" fill="#e15759"/>
<text x="408.0" y="367" font-size="11" fill="#333">received audio</text>
<polyline points="70.0,312.5 112.6,316.0 155.3,314.6 197.9,315.4 240.5,311.2 283.2,320.1 325.8,304.4 368.4,313.9 411.1,317.1 453.7,307.8 496.3,316.6 538.9,318.8 581.6,309.2 624.2,317.1 666.8,312.4 709.5,309.9 752.1,312.6 794.7,314.7 837.4,310.8 880.0,316.9" fill="none" stroke="#b279a2" stroke-width="2"/>
<circle cx="70.0" cy="312.5" r="3" fill="#b279a2"/>
<circle cx="112.6" cy="316.0" r="3" fill="#b279a2"/>
<circle cx="155.3" cy="314.6" r="3" fill="#b279a2"/>
<circle cx="197.9" cy="315.4" r="3" fill="#b279a2"/>
<circle cx="240.5" cy="311.2" r="3" fill="#b279a2"/>
<circle cx="283.2" cy="320.1" r="3" fill="#b279a2"/>
<circle cx="325.8" cy="304.4" r="3" fill="#b279a2"/>
<circle cx="368.4" cy="313.9" r="3" fill="#b279a2"/>
<circle cx="411.1" cy="317.1" r="3" fill="#b279a2"/>
<circle cx="453.7" cy="307.8" r="3" fill="#b279a2"/>
<circle cx="496.3" cy="316.6" r="3" fill="#b279a2"/>
<circle cx="538.9" cy="318.8" r="3" fill="#b279a2"/>
<circle cx="581.6" cy="309.2" r="3" fill="#b279a2"/>
<circle cx="624.2" cy="317.1" r="3" fill="#b279a2"/>
<circle cx="666.8" cy="312.4" r="3" fill="#b279a2"/>
<circle cx="709.5" cy="309.9" r="3" fill="#b279a2"/>
<circle cx="752.1" cy="312.6" r="3" fill="#b279a2"/>
<circle cx="794.7" cy="314.7" r="3" fill="#b279a2"/>
<circle cx="837.4" cy="310.8" r="3" fill="#b279a2"/>
<circle cx="880.0" cy="316.9" r="3" fill="#b279a2"/>
<rect x="556.0" y="358" width="10" height="10" fill="#b279a2"/>
<text x="570.0" y="367" font-size="11" fill="#333">received mouth</text>
<rect x="718.0" y="358" width="10" height="10" fill="#ff7f0e"/>
<text x="732.0" y="367" font-size="11" fill="#333">server A/V offset</text>
</svg>
