<svg xmlns="http://www.w3.org/2000/svg" width="900" height="380" viewBox="0 0 900 380" font-family="sans-serif">
<rect width="900" height="380" fill="white"/>
<text x="70" y="24" font-size="16" fill="#333">Browser-observed WebRTC latency (ms, p50) — lower is better</text>
<line x1="70" y1="324.0" x2="880" y2="324.0" stroke="#e5e5e5"/>
<text x="64" y="328.0" font-size="11" fill="#666" text-anchor="end">0ms</text>
<line x1="70" y1="268.0" x2="880" y2="268.0" stroke="#e5e5e5"/>
<text x="64" y="272.0" font-size="11" fill="#666" text-anchor="end">2305ms</text>
<line x1="70" y1="212.0" x2="880" y2="212.0" stroke="#e5e5e5"/>
<text x="64" y="216.0" font-size="11" fill="#666" text-anchor="end">4609ms</text>
<line x1="70" y1="156.0" x2="880" y2="156.0" stroke="#e5e5e5"/>
<text x="64" y="160.0" font-size="11" fill="#666" text-anchor="end">6914ms</text>
<line x1="70" y1="100.0" x2="880" y2="100.0" stroke="#e5e5e5"/>
<text x="64" y="104.0" font-size="11" fill="#666" text-anchor="end">9219ms</text>
<line x1="70" y1="44.0" x2="880" y2="44.0" stroke="#e5e5e5"/>
<text x="64" y="48.0" font-size="11" fill="#666" text-anchor="end">11523ms</text>
<text x="70.0" y="342" font-size="11" fill="#666" text-anchor="start">07-16 22:20</text>
<text x="475.0" y="342" font-size="11" fill="#666" text-anchor="middle">07-17 19:57</text>
<text x="880.0" y="342" font-size="11" fill="#666" text-anchor="end">07-18 08:47</text>
<polyline points="70.0,286.6 90.2,283.0 110.5,286.3 130.8,285.6 151.0,282.6 171.2,288.2 191.5,285.3 211.8,283.7 232.0,287.3 252.2,287.2 272.5,289.4 292.8,287.2 313.0,284.5 333.2,295.8 353.5,298.9 373.8,295.9 394.0,297.1 414.2,299.0 434.5,294.2 454.8,303.9 475.0,305.8 495.2,302.6 515.5,306.9 535.8,295.9 556.0,303.4 576.2,304.4 596.5,303.2 616.8,306.1 637.0,303.7 657.2,305.2 677.5,302.0 697.8,306.2 718.0,305.3 738.2,305.1 758.5,301.3 778.8,313.8 799.0,312.7 819.2,301.4 839.5,301.9 859.8,300.0 880.0,313.8" fill="none" stroke="#4c78a8" stroke-width="2"/>
<circle cx="70.0" cy="286.6" r="3" fill="#4c78a8"/>
<circle cx="90.2" cy="283.0" r="3" fill="#4c78a8"/>
<circle cx="110.5" cy="286.3" r="3" fill="#4c78a8"/>
<circle cx="130.8" cy="285.6" r="3" fill="#4c78a8"/>
<circle cx="151.0" cy="282.6" r="3" fill="#4c78a8"/>
<circle cx="171.2" cy="288.2" r="3" fill="#4c78a8"/>
<circle cx="191.5" cy="285.3" r="3" fill="#4c78a8"/>
<circle cx="211.8" cy="283.7" r="3" fill="#4c78a8"/>
<circle cx="232.0" cy="287.3" r="3" fill="#4c78a8"/>
<circle cx="252.2" cy="287.2" r="3" fill="#4c78a8"/>
<circle cx="272.5" cy="289.4" r="3" fill="#4c78a8"/>
<circle cx="292.8" cy="287.2" r="3" fill="#4c78a8"/>
<circle cx="313.0" cy="284.5" r="3" fill="#4c78a8"/>
<circle cx="333.2" cy="295.8" r="3" fill="#4c78a8"/>
<circle cx="353.5" cy="298.9" r="3" fill="#4c78a8"/>
<circle cx="373.8" cy="295.9" r="3" fill="#4c78a8"/>
<circle cx="394.0" cy="297.1" r="3" fill="#4c78a8"/>
<circle cx="414.2" cy="299.0" r="3" fill="#4c78a8"/>
<circle cx="434.5" cy="294.2" r="3" fill="#4c78a8"/>
<circle cx="454.8" cy="303.9" r="3" fill="#4c78a8"/>
<circle cx="475.0" cy="305.8" r="3" fill="#4c78a8"/>
<circle cx="495.2" cy="302.6" r="3" fill="#4c78a8"/>
<circle cx="515.5" cy="306.9" r="3" fill="#4c78a8"/>
<circle cx="535.8" cy="295.9" r="3" fill="#4c78a8"/>
<circle cx="556.0" cy="303.4" r="3" fill="#4c78a8"/>
<circle cx="576.2" cy="304.4" r="3" fill="#4c78a8"/>
<circle cx="596.5" cy="303.2" r="3" fill="#4c78a8"/>
<circle cx="616.8" cy="306.1" r="3" fill="#4c78a8"/>
<circle cx="637.0" cy="303.7" r="3" fill="#4c78a8"/>
<circle cx="657.2" cy="305.2" r="3" fill="#4c78a8"/>
<circle cx="677.5" cy="302.0" r="3" fill="#4c78a8"/>
<circle cx="697.8" cy="306.2" r="3" fill="#4c78a8"/>
<circle cx="718.0" cy="305.3" r="3" fill="#4c78a8"/>
<circle cx="738.2" cy="305.1" r="3" fill="#4c78a8"/>
<circle cx="758.5" cy="301.3" r="3" fill="#4c78a8"/>
<circle cx="778.8" cy="313.8" r="3" fill="#4c78a8"/>
<circle cx="799.0" cy="312.7" r="3" fill="#4c78a8"/>
<circle cx="819.2" cy="301.4" r="3" fill="#4c78a8"/>
<circle cx="839.5" cy="301.9" r="3" fill="#4c78a8"/>
<circle cx="859.8" cy="300.0" r="3" fill="#4c78a8"/>
<circle cx="880.0" cy="313.8" r="3" fill="#4c78a8"/>
<rect x="70.0" y="358" width="10" height="10" fill="#4c78a8"/>
<text x="84.0" y="367" font-size="11" fill="#333">STT final</text>
<polyline points="70.0,279.7 90.2,272.0 110.5,276.8 130.8,276.8 151.0,271.5 171.2,273.1 191.5,274.7 211.8,266.2 232.0,276.2 252.2,271.8 272.5,273.2 292.8,276.7 313.0,273.0 333.2,287.5 353.5,288.1 373.8,277.4 394.0,283.6 414.2,287.3 434.5,284.1 454.8,295.0 475.0,294.7 495.2,296.8 515.5,290.6 535.8,235.7 556.0,287.8 576.2,295.2 596.5,291.0 616.8,295.8 637.0,293.3 657.2,288.3 677.5,280.2 697.8,297.5 718.0,290.9 738.2,297.0 758.5,289.8 778.8,304.9 799.0,300.8 819.2,286.0 839.5,291.4 859.8,293.9 880.0,298.3" fill="none" stroke="#59a14f" stroke-width="2"/>
<circle cx="70.0" cy="279.7" r="3" fill="#59a14f"/>
<circle cx="90.2" cy="272.0" r="3" fill="#59a14f"/>
<circle cx="110.5" cy="276.8" r="3" fill="#59a14f"/>
<circle cx="130.8" cy="276.8" r="3" fill="#59a14f"/>
<circle cx="151.0" cy="271.5" r="3" fill="#59a14f"/>
<circle cx="171.2" cy="273.1" r="3" fill="#59a14f"/>
<circle cx="191.5" cy="274.7" r="3" fill="#59a14f"/>
<circle cx="211.8" cy="266.2" r="3" fill="#59a14f"/>
<circle cx="232.0" cy="276.2" r="3" fill="#59a14f"/>
<circle cx="252.2" cy="271.8" r="3" fill="#59a14f"/>
<circle cx="272.5" cy="273.2" r="3" fill="#59a14f"/>
<circle cx="292.8" cy="276.7" r="3" fill="#59a14f"/>
<circle cx="313.0" cy="273.0" r="3" fill="#59a14f"/>
<circle cx="333.2" cy="287.5" r="3" fill="#59a14f"/>
<circle cx="353.5" cy="288.1" r="3" fill="#59a14f"/>
<circle cx="373.8" cy="277.4" r="3" fill="#59a14f"/>
<circle cx="394.0" cy="283.6" r="3" fill="#59a14f"/>
<circle cx="414.2" cy="287.3" r="3" fill="#59a14f"/>
<circle cx="434.5" cy="284.1" r="3" fill="#59a14f"/>
<circle cx="454.8" cy="295.0" r="3" fill="#59a14f"/>
<circle cx="475.0" cy="294.7" r="3" fill="#59a14f"/>
<circle cx="495.2" cy="296.8" r="3" fill="#59a14f"/>
<circle cx="515.5" cy="290.6" r="3" fill="#59a14f"/>
<circle cx="535.8" cy="235.7" r="3" fill="#59a14f"/>
<circle cx="556.0" cy="287.8" r="3" fill="#59a14f"/>
<circle cx="576.2" cy="295.2" r="3" fill="#59a14f"/>
<circle cx="596.5" cy="291.0" r="3" fill="#59a14f"/>
<circle cx="616.8" cy="295.8" r="3" fill="#59a14f"/>
<circle cx="637.0" cy="293.3" r="3" fill="#59a14f"/>
<circle cx="657.2" cy="288.3" r="3" fill="#59a14f"/>
<circle cx="677.5" cy="280.2" r="3" fill="#59a14f"/>
<circle cx="697.8" cy="297.5" r="3" fill="#59a14f"/>
<circle cx="718.0" cy="290.9" r="3" fill="#59a14f"/>
<circle cx="738.2" cy="297.0" r="3" fill="#59a14f"/>
<circle cx="758.5" cy="289.8" r="3" fill="#59a14f"/>
<circle cx="778.8" cy="304.9" r="3" fill="#59a14f"/>
<circle cx="799.0" cy="300.8" r="3" fill="#59a14f"/>
<circle cx="819.2" cy="286.0" r="3" fill="#59a14f"/>
<circle cx="839.5" cy="291.4" r="3" fill="#59a14f"/>
<circle cx="859.8" cy="293.9" r="3" fill="#59a14f"/>
<circle cx="880.0" cy="298.3" r="3" fill="#59a14f"/>
<rect x="232.0" y="358" width="10" height="10" fill="#59a14f"/>
<text x="246.0" y="367" font-size="11" fill="#333">LLM first token</text>
<polyline points="70.0,93.7 90.2,161.7 110.5,197.4 130.8,213.5 151.0,236.3 171.2,260.6 191.5,213.4 211.8,191.1 232.0,216.8 252.2,228.5 272.5,191.6 292.8,253.8 313.0,205.2 333.2,270.8 353.5,269.3 373.8,248.4 394.0,269.3 414.2,272.7 434.5,267.4 454.8,282.0 475.0,283.9 495.2,286.8 515.5,272.5 535.8,64.7 556.0,268.8 576.2,275.7 596.5,278.6 616.8,281.5 637.0,283.9 657.2,275.7 677.5,264.5 697.8,286.3 718.0,278.6 738.2,281.0 758.5,271.8 778.8,294.1 799.0,287.8 819.2,262.0 839.5,274.7 859.8,286.3 880.0,282.9" fill="none" stroke="#e15759" stroke-width="2"/>
<circle cx="70.0" cy="93.7" r="3" fill="#e15759"/>
<circle cx="90.2" cy="161.7" r="3" fill="#e15759"/>
<circle cx="110.5" cy="197.4" r="3" fill="#e15759"/>
<circle cx="130.8" cy="213.5" r="3" fill="#e15759"/>
<circle cx="151.0" cy="236.3" r="3" fill="#e15759"/>
<circle cx="171.2" cy="260.6" r="3" fill="#e15759"/>
<circle cx="191.5" cy="213.4" r="3" fill="#e15759"/>
<circle cx="211.8" cy="191.1" r="3" fill="#e15759"/>
<circle cx="232.0" cy="216.8" r="3" fill="#e15759"/>
<circle cx="252.2" cy="228.5" r="3" fill="#e15759"/>
<circle cx="272.5" cy="191.6" r="3" fill="#e15759"/>
<circle cx="292.8" cy="253.8" r="3" fill="#e15759"/>
<circle cx="313.0" cy="205.2" r="3" fill="#e15759"/>
<circle cx="333.2" cy="270.8" r="3" fill="#e15759"/>
<circle cx="353.5" cy="269.3" r="3" fill="#e15759"/>
<circle cx="373.8" cy="248.4" r="3" fill="#e15759"/>
<circle cx="394.0" cy="269.3" r="3" fill="#e15759"/>
<circle cx="414.2" cy="272.7" r="3" fill="#e15759"/>
<circle cx="434.5" cy="267.4" r="3" fill="#e15759"/>
<circle cx="454.8" cy="282.0" r="3" fill="#e15759"/>
<circle cx="475.0" cy="283.9" r="3" fill="#e15759"/>
<circle cx="495.2" cy="286.8" r="3" fill="#e15759"/>
<circle cx="515.5" cy="272.5" r="3" fill="#e15759"/>
<circle cx="535.8" cy="64.7" r="3" fill="#e15759"/>
<circle cx="556.0" cy="268.8" r="3" fill="#e15759"/>
<circle cx="576.2" cy="275.7" r="3" fill="#e15759"/>
<circle cx="596.5" cy="278.6" r="3" fill="#e15759"/>
<circle cx="616.8" cy="281.5" r="3" fill="#e15759"/>
<circle cx="637.0" cy="283.9" r="3" fill="#e15759"/>
<circle cx="657.2" cy="275.7" r="3" fill="#e15759"/>
<circle cx="677.5" cy="264.5" r="3" fill="#e15759"/>
<circle cx="697.8" cy="286.3" r="3" fill="#e15759"/>
<circle cx="718.0" cy="278.6" r="3" fill="#e15759"/>
<circle cx="738.2" cy="281.0" r="3" fill="#e15759"/>
<circle cx="758.5" cy="271.8" r="3" fill="#e15759"/>
<circle cx="778.8" cy="294.1" r="3" fill="#e15759"/>
<circle cx="799.0" cy="287.8" r="3" fill="#e15759"/>
<circle cx="819.2" cy="262.0" r="3" fill="#e15759"/>
<circle cx="839.5" cy="274.7" r="3" fill="#e15759"/>
<circle cx="859.8" cy="286.3" r="3" fill="#e15759"/>
<circle cx="880.0" cy="282.9" r="3" fill="#e15759"/>
<rect x="394.0" y="358" width="10" height="10" fill="#e15759"/>
<text x="408.0" y="367" font-size="11" fill="#333">received audio</text>
<polyline points="70.0,313.8 90.2,316.9 110.5,315.6 130.8,316.4 151.0,312.7 171.2,320.5 191.5,306.6 211.8,315.1 232.0,317.8 252.2,309.6 272.5,317.4 292.8,319.3 313.0,310.8 333.2,317.9 353.5,313.7 373.8,311.5 394.0,313.9 414.2,315.8 434.5,312.3 454.8,317.7 475.0,316.9 495.2,318.4 515.5,315.2 535.8,317.0 556.0,319.2 576.2,315.3 596.5,319.4 616.8,319.4 637.0,318.9 657.2,310.1 677.5,311.8 697.8,319.8 718.0,318.0 738.2,315.2 758.5,314.7 778.8,320.7 799.0,320.6 819.2,316.9 839.5,316.3 859.8,321.2 880.0,320.4" fill="none" stroke="#b279a2" stroke-width="2"/>
<circle cx="70.0" cy="313.8" r="3" fill="#b279a2"/>
<circle cx="90.2" cy="316.9" r="3" fill="#b279a2"/>
<circle cx="110.5" cy="315.6" r="3" fill="#b279a2"/>
<circle cx="130.8" cy="316.4" r="3" fill="#b279a2"/>
<circle cx="151.0" cy="312.7" r="3" fill="#b279a2"/>
<circle cx="171.2" cy="320.5" r="3" fill="#b279a2"/>
<circle cx="191.5" cy="306.6" r="3" fill="#b279a2"/>
<circle cx="211.8" cy="315.1" r="3" fill="#b279a2"/>
<circle cx="232.0" cy="317.8" r="3" fill="#b279a2"/>
<circle cx="252.2" cy="309.6" r="3" fill="#b279a2"/>
<circle cx="272.5" cy="317.4" r="3" fill="#b279a2"/>
<circle cx="292.8" cy="319.3" r="3" fill="#b279a2"/>
<circle cx="313.0" cy="310.8" r="3" fill="#b279a2"/>
<circle cx="333.2" cy="317.9" r="3" fill="#b279a2"/>
<circle cx="353.5" cy="313.7" r="3" fill="#b279a2"/>
<circle cx="373.8" cy="311.5" r="3" fill="#b279a2"/>
<circle cx="394.0" cy="313.9" r="3" fill="#b279a2"/>
<circle cx="414.2" cy="315.8" r="3" fill="#b279a2"/>
<circle cx="434.5" cy="312.3" r="3" fill="#b279a2"/>
<circle cx="454.8" cy="317.7" r="3" fill="#b279a2"/>
<circle cx="475.0" cy="316.9" r="3" fill="#b279a2"/>
<circle cx="495.2" cy="318.4" r="3" fill="#b279a2"/>
<circle cx="515.5" cy="315.2" r="3" fill="#b279a2"/>
<circle cx="535.8" cy="317.0" r="3" fill="#b279a2"/>
<circle cx="556.0" cy="319.2" r="3" fill="#b279a2"/>
<circle cx="576.2" cy="315.3" r="3" fill="#b279a2"/>
<circle cx="596.5" cy="319.4" r="3" fill="#b279a2"/>
<circle cx="616.8" cy="319.4" r="3" fill="#b279a2"/>
<circle cx="637.0" cy="318.9" r="3" fill="#b279a2"/>
<circle cx="657.2" cy="310.1" r="3" fill="#b279a2"/>
<circle cx="677.5" cy="311.8" r="3" fill="#b279a2"/>
<circle cx="697.8" cy="319.8" r="3" fill="#b279a2"/>
<circle cx="718.0" cy="318.0" r="3" fill="#b279a2"/>
<circle cx="738.2" cy="315.2" r="3" fill="#b279a2"/>
<circle cx="758.5" cy="314.7" r="3" fill="#b279a2"/>
<circle cx="778.8" cy="320.7" r="3" fill="#b279a2"/>
<circle cx="799.0" cy="320.6" r="3" fill="#b279a2"/>
<circle cx="819.2" cy="316.9" r="3" fill="#b279a2"/>
<circle cx="839.5" cy="316.3" r="3" fill="#b279a2"/>
<circle cx="859.8" cy="321.2" r="3" fill="#b279a2"/>
<circle cx="880.0" cy="320.4" r="3" fill="#b279a2"/>
<rect x="556.0" y="358" width="10" height="10" fill="#b279a2"/>
<text x="570.0" y="367" font-size="11" fill="#333">received mouth</text>
<rect x="718.0" y="358" width="10" height="10" fill="#ff7f0e"/>
<text x="732.0" y="367" font-size="11" fill="#333">server A/V offset</text>
</svg>
