<svg xmlns="http://www.w3.org/2000/svg" width="900" height="380" viewBox="0 0 900 380" font-family="sans-serif">
<rect width="900" height="380" fill="white"/>
<text x="70" y="24" font-size="16" fill="#333">Browser-observed WebRTC latency (ms, p50) — lower is better</text>
<line x1="70" y1="324.0" x2="880" y2="324.0" stroke="#e5e5e5"/>
<text x="64" y="328.0" font-size="11" fill="#666" text-anchor="end">0ms</text>
<line x1="70" y1="268.0" x2="880" y2="268.0" stroke="#e5e5e5"/>
<text x="64" y="272.0" font-size="11" fill="#666" text-anchor="end">2305ms</text>
<line x1="70" y1="212.0" x2="880" y2="212.0" stroke="#e5e5e5"/>
<text x="64" y="216.0" font-size="11" fill="#666" text-anchor="end">4609ms</text>
<line x1="70" y1="156.0" x2="880" y2="156.0" stroke="#e5e5e5"/>
<text x="64" y="160.0" font-size="11" fill="#666" text-anchor="end">6914ms</text>
<line x1="70" y1="100.0" x2="880" y2="100.0" stroke="#e5e5e5"/>
<text x="64" y="104.0" font-size="11" fill="#666" text-anchor="end">9219ms</text>
<line x1="70" y1="44.0" x2="880" y2="44.0" stroke="#e5e5e5"/>
<text x="64" y="48.0" font-size="11" fill="#666" text-anchor="end">11523ms</text>
<text x="70.0" y="342" font-size="11" fill="#666" text-anchor="start">07-16 22:20</text>
<text x="475.0" y="342" font-size="11" fill="#666" text-anchor="middle">07-17 19:44</text>
<text x="880.0" y="342" font-size="11" fill="#666" text-anchor="end">07-17 22:30</text>
<polyline points="70.0,286.6 93.8,283.0 117.6,286.3 141.5,285.6 165.3,282.6 189.1,288.2 212.9,285.3 236.8,283.7 260.6,287.3 284.4,287.2 308.2,289.4 332.1,287.2 355.9,284.5 379.7,295.8 403.5,298.9 427.4,295.9 451.2,297.1 475.0,299.0 498.8,294.2 522.6,303.9 546.5,305.8 570.3,302.6 594.1,306.9 617.9,295.9 641.8,303.4 665.6,304.4 689.4,303.2 713.2,306.1 737.1,303.7 760.9,305.2 784.7,302.0 808.5,306.2 832.4,305.3 856.2,305.1 880.0,301.3" fill="none" stroke="#4c78a8" stroke-width="2"/>
<circle cx="70.0" cy="286.6" r="3" fill="#4c78a8"/>
<circle cx="93.8" cy="283.0" r="3" fill="#4c78a8"/>
<circle cx="117.6" cy="286.3" r="3" fill="#4c78a8"/>
<circle cx="141.5" cy="285.6" r="3" fill="#4c78a8"/>
<circle cx="165.3" cy="282.6" r="3" fill="#4c78a8"/>
<circle cx="189.1" cy="288.2" r="3" fill="#4c78a8"/>
<circle cx="212.9" cy="285.3" r="3" fill="#4c78a8"/>
<circle cx="236.8" cy="283.7" r="3" fill="#4c78a8"/>
<circle cx="260.6" cy="287.3" r="3" fill="#4c78a8"/>
<circle cx="284.4" cy="287.2" r="3" fill="#4c78a8"/>
<circle cx="308.2" cy="289.4" r="3" fill="#4c78a8"/>
<circle cx="332.1" cy="287.2" r="3" fill="#4c78a8"/>
<circle cx="355.9" cy="284.5" r="3" fill="#4c78a8"/>
<circle cx="379.7" cy="295.8" r="3" fill="#4c78a8"/>
<circle cx="403.5" cy="298.9" r="3" fill="#4c78a8"/>
<circle cx="427.4" cy="295.9" r="3" fill="#4c78a8"/>
<circle cx="451.2" cy="297.1" r="3" fill="#4c78a8"/>
<circle cx="475.0" cy="299.0" r="3" fill="#4c78a8"/>
<circle cx="498.8" cy="294.2" r="3" fill="#4c78a8"/>
<circle cx="522.6" cy="303.9" r="3" fill="#4c78a8"/>
<circle cx="546.5" cy="305.8" r="3" fill="#4c78a8"/>
<circle cx="570.3" cy="302.6" r="3" fill="#4c78a8"/>
<circle cx="594.1" cy="306.9" r="3" fill="#4c78a8"/>
<circle cx="617.9" cy="295.9" r="3" fill="#4c78a8"/>
<circle cx="641.8" cy="303.4" r="3" fill="#4c78a8"/>
<circle cx="665.6" cy="304.4" r="3" fill="#4c78a8"/>
<circle cx="689.4" cy="303.2" r="3" fill="#4c78a8"/>
<circle cx="713.2" cy="306.1" r="3" fill="#4c78a8"/>
<circle cx="737.1" cy="303.7" r="3" fill="#4c78a8"/>
<circle cx="760.9" cy="305.2" r="3" fill="#4c78a8"/>
<circle cx="784.7" cy="302.0" r="3" fill="#4c78a8"/>
<circle cx="808.5" cy="306.2" r="3" fill="#4c78a8"/>
<circle cx="832.4" cy="305.3" r="3" fill="#4c78a8"/>
<circle cx="856.2" cy="305.1" r="3" fill="#4c78a8"/>
<circle cx="880.0" cy="301.3" r="3" fill="#4c78a8"/>
<rect x="70.0" y="358" width="10" height="10" fill="#4c78a8"/>
<text x="84.0" y="367" font-size="11" fill="#333">STT final</text>
<polyline points="70.0,279.7 93.8,272.0 117.6,276.8 141.5,276.8 165.3,271.5 189.1,273.1 212.9,274.7 236.8,266.2 260.6,276.2 284.4,271.8 308.2,273.2 332.1,276.7 355.9,273.0 379.7,287.5 403.5,288.1 427.4,277.4 451.2,283.6 475.0,287.3 498.8,284.1 522.6,295.0 546.5,294.7 570.3,296.8 594.1,290.6 617.9,235.7 641.8,287.8 665.6,295.2 689.4,291.0 713.2,295.8 737.1,293.3 760.9,288.3 784.7,280.2 808.5,297.5 832.4,290.9 856.2,297.0 880.0,289.8" fill="none" stroke="#59a14f" stroke-width="2"/>
<circle cx="70.0" cy="279.7" r="3" fill="#59a14f"/>
<circle cx="93.8" cy="272.0" r="3" fill="#59a14f"/>
<circle cx="117.6" cy="276.8" r="3" fill="#59a14f"/>
<circle cx="141.5" cy="276.8" r="3" fill="#59a14f"/>
<circle cx="165.3" cy="271.5" r="3" fill="#59a14f"/>
<circle cx="189.1" cy="273.1" r="3" fill="#59a14f"/>
<circle cx="212.9" cy="274.7" r="3" fill="#59a14f"/>
<circle cx="236.8" cy="266.2" r="3" fill="#59a14f"/>
<circle cx="260.6" cy="276.2" r="3" fill="#59a14f"/>
<circle cx="284.4" cy="271.8" r="3" fill="#59a14f"/>
<circle cx="308.2" cy="273.2" r="3" fill="#59a14f"/>
<circle cx="332.1" cy="276.7" r="3" fill="#59a14f"/>
<circle cx="355.9" cy="273.0" r="3" fill="#59a14f"/>
<circle cx="379.7" cy="287.5" r="3" fill="#59a14f"/>
<circle cx="403.5" cy="288.1" r="3" fill="#59a14f"/>
<circle cx="427.4" cy="277.4" r="3" fill="#59a14f"/>
<circle cx="451.2" cy="283.6" r="3" fill="#59a14f"/>
<circle cx="475.0" cy="287.3" r="3" fill="#59a14f"/>
<circle cx="498.8" cy="284.1" r="3" fill="#59a14f"/>
<circle cx="522.6" cy="295.0" r="3" fill="#59a14f"/>
<circle cx="546.5" cy="294.7" r="3" fill="#59a14f"/>
<circle cx="570.3" cy="296.8" r="3" fill="#59a14f"/>
<circle cx="594.1" cy="290.6" r="3" fill="#59a14f"/>
<circle cx="617.9" cy="235.7" r="3" fill="#59a14f"/>
<circle cx="641.8" cy="287.8" r="3" fill="#59a14f"/>
<circle cx="665.6" cy="295.2" r="3" fill="#59a14f"/>
<circle cx="689.4" cy="291.0" r="3" fill="#59a14f"/>
<circle cx="713.2" cy="295.8" r="3" fill="#59a14f"/>
<circle cx="737.1" cy="293.3" r="3" fill="#59a14f"/>
<circle cx="760.9" cy="288.3" r="3" fill="#59a14f"/>
<circle cx="784.7" cy="280.2" r="3" fill="#59a14f"/>
<circle cx="808.5" cy="297.5" r="3" fill="#59a14f"/>
<circle cx="832.4" cy="290.9" r="3" fill="#59a14f"/>
<circle cx="856.2" cy="297.0" r="3" fill="#59a14f"/>
<circle cx="880.0" cy="289.8" r="3" fill="#59a14f"/>
<rect x="232.0" y="358" width="10" height="10" fill="#59a14f"/>
<text x="246.0" y="367" font-size="11" fill="#333">LLM first token</text>
<polyline points="70.0,93.7 93.8,161.7 117.6,197.4 141.5,213.5 165.3,236.3 189.1,260.6 212.9,213.4 236.8,191.1 260.6,216.8 284.4,228.5 308.2,191.6 332.1,253.8 355.9,205.2 379.7,270.8 403.5,269.3 427.4,248.4 451.2,269.3 475.0,272.7 498.8,267.4 522.6,282.0 546.5,283.9 570.3,286.8 594.1,272.5 617.9,64.7 641.8,268.8 665.6,275.7 689.4,278.6 713.2,281.5 737.1,283.9 760.9,275.7 784.7,264.5 808.5,286.3 832.4,278.6 856.2,281.0 880.0,271.8" fill="none" stroke="#e15759" stroke-width="2"/>
<circle cx="70.0" cy="93.7" r="3" fill="#e15759"/>
<circle cx="93.8" cy="161.7" r="3" fill="#e15759"/>
<circle cx="117.6" cy="197.4" r="3" fill="#e15759"/>
<circle cx="141.5" cy="213.5" r="3" fill="#e15759"/>
<circle cx="165.3" cy="236.3" r="3" fill="#e15759"/>
<circle cx="189.1" cy="260.6" r="3" fill="#e15759"/>
<circle cx="212.9" cy="213.4" r="3" fill="#e15759"/>
<circle cx="236.8" cy="191.1" r="3" fill="#e15759"/>
<circle cx="260.6" cy="216.8" r="3" fill="#e15759"/>
<circle cx="284.4" cy="228.5" r="3" fill="#e15759"/>
<circle cx="308.2" cy="191.6" r="3" fill="#e15759"/>
<circle cx="332.1" cy="253.8" r="3" fill="#e15759"/>
<circle cx="355.9" cy="205.2" r="3" fill="#e15759"/>
<circle cx="379.7" cy="270.8" r="3" fill="#e15759"/>
<circle cx="403.5" cy="269.3" r="3" fill="#e15759"/>
<circle cx="427.4" cy="248.4" r="3" fill="#e15759"/>
<circle cx="451.2" cy="269.3" r="3" fill="#e15759"/>
<circle cx="475.0" cy="272.7" r="3" fill="#e15759"/>
<circle cx="498.8" cy="267.4" r="3" fill="#e15759"/>
<circle cx="522.6" cy="282.0" r="3" fill="#e15759"/>
<circle cx="546.5" cy="283.9" r="3" fill="#e15759"/>
<circle cx="570.3" cy="286.8" r="3" fill="#e15759"/>
<circle cx="594.1" cy="272.5" r="3" fill="#e15759"/>
<circle cx="617.9" cy="64.7" r="3" fill="#e15759"/>
<circle cx="641.8" cy="268.8" r="3" fill="#e15759"/>
<circle cx="665.6" cy="275.7" r="3" fill="#e15759"/>
<circle cx="689.4" cy="278.6" r="3" fill="#e15759"/>
<circle cx="713.2" cy="281.5" r="3" fill="#e15759"/>
<circle cx="737.1" cy="283.9" r="3" fill="#e15759"/>
<circle cx="760.9" cy="275.7" r="3" fill="#e15759"/>
<circle cx="784.7" cy="264.5" r="3" fill="#e15759"/>
<circle cx="808.5" cy="286.3" r="3" fill="#e15759"/>
<circle cx="832.4" cy="278.6" r="3" fill="#e15759"/>
<circle cx="856.2" cy="281.0" r="3" fill="#e15759"/>
<circle cx="880.0" cy="271.8" r="3" fill="#e15759"/>
<rect x="394.0" y="358" width="10" height="10" fill="#e15759"/>
<text x="408.0" y="367" font-size="11" fill="#333">received audio</text>
<polyline points="70.0,313.8 93.8,316.9 117.6,315.6 141.5,316.4 165.3,312.7 189.1,320.5 212.9,306.6 236.8,315.1 260.6,317.8 284.4,309.6 308.2,317.4 332.1,319.3 355.9,310.8 379.7,317.9 403.5,313.7 427.4,311.5 451.2,313.9 475.0,315.8 498.8,312.3 522.6,317.7 546.5,316.9 570.3,318.4 594.1,315.2 617.9,317.0 641.8,319.2 665.6,315.3 689.4,319.4 713.2,319.4 737.1,318.9 760.9,310.1 784.7,311.8 808.5,319.8 832.4,318.0 856.2,315.2 880.0,314.7" fill="none" stroke="#b279a2" stroke-width="2"/>
<circle cx="70.0" cy="313.8" r="3" fill="#b279a2"/>
<circle cx="93.8" cy="316.9" r="3" fill="#b279a2"/>
<circle cx="117.6" cy="315.6" r="3" fill="#b279a2"/>
<circle cx="141.5" cy="316.4" r="3" fill="#b279a2"/>
<circle cx="165.3" cy="312.7" r="3" fill="#b279a2"/>
<circle cx="189.1" cy="320.5" r="3" fill="#b279a2"/>
<circle cx="212.9" cy="306.6" r="3" fill="#b279a2"/>
<circle cx="236.8" cy="315.1" r="3" fill="#b279a2"/>
<circle cx="260.6" cy="317.8" r="3" fill="#b279a2"/>
<circle cx="284.4" cy="309.6" r="3" fill="#b279a2"/>
<circle cx="308.2" cy="317.4" r="3" fill="#b279a2"/>
<circle cx="332.1" cy="319.3" r="3" fill="#b279a2"/>
<circle cx="355.9" cy="310.8" r="3" fill="#b279a2"/>
<circle cx="379.7" cy="317.9" r="3" fill="#b279a2"/>
<circle cx="403.5" cy="313.7" r="3" fill="#b279a2"/>
<circle cx="427.4" cy="311.5" r="3" fill="#b279a2"/>
<circle cx="451.2" cy="313.9" r="3" fill="#b279a2"/>
<circle cx="475.0" cy="315.8" r="3" fill="#b279a2"/>
<circle cx="498.8" cy="312.3" r="3" fill="#b279a2"/>
<circle cx="522.6" cy="317.7" r="3" fill="#b279a2"/>
<circle cx="546.5" cy="316.9" r="3" fill="#b279a2"/>
<circle cx="570.3" cy="318.4" r="3" fill="#b279a2"/>
<circle cx="594.1" cy="315.2" r="3" fill="#b279a2"/>
<circle cx="617.9" cy="317.0" r="3" fill="#b279a2"/>
<circle cx="641.8" cy="319.2" r="3" fill="#b279a2"/>
<circle cx="665.6" cy="315.3" r="3" fill="#b279a2"/>
<circle cx="689.4" cy="319.4" r="3" fill="#b279a2"/>
<circle cx="713.2" cy="319.4" r="3" fill="#b279a2"/>
<circle cx="737.1" cy="318.9" r="3" fill="#b279a2"/>
<circle cx="760.9" cy="310.1" r="3" fill="#b279a2"/>
<circle cx="784.7" cy="311.8" r="3" fill="#b279a2"/>
<circle cx="808.5" cy="319.8" r="3" fill="#b279a2"/>
<circle cx="832.4" cy="318.0" r="3" fill="#b279a2"/>
<circle cx="856.2" cy="315.2" r="3" fill="#b279a2"/>
<circle cx="880.0" cy="314.7" r="3" fill="#b279a2"/>
<rect x="556.0" y="358" width="10" height="10" fill="#b279a2"/>
<text x="570.0" y="367" font-size="11" fill="#333">received mouth</text>
<rect x="718.0" y="358" width="10" height="10" fill="#ff7f0e"/>
<text x="732.0" y="367" font-size="11" fill="#333">server A/V offset</text>
</svg>
