<svg xmlns="http://www.w3.org/2000/svg" width="900" height="380" viewBox="0 0 900 380" font-family="sans-serif">
<rect width="900" height="380" fill="white"/>
<text x="70" y="24" font-size="16" fill="#333">Browser-observed WebRTC latency (ms, p50) — lower is better</text>
<line x1="70" y1="324.0" x2="880" y2="324.0" stroke="#e5e5e5"/>
<text x="64" y="328.0" font-size="11" fill="#666" text-anchor="end">0ms</text>
<line x1="70" y1="268.0" x2="880" y2="268.0" stroke="#e5e5e5"/>
<text x="64" y="272.0" font-size="11" fill="#666" text-anchor="end">2305ms</text>
<line x1="70" y1="212.0" x2="880" y2="212.0" stroke="#e5e5e5"/>
<text x="64" y="216.0" font-size="11" fill="#666" text-anchor="end">4609ms</text>
<line x1="70" y1="156.0" x2="880" y2="156.0" stroke="#e5e5e5"/>
<text x="64" y="160.0" font-size="11" fill="#666" text-anchor="end">6914ms</text>
<line x1="70" y1="100.0" x2="880" y2="100.0" stroke="#e5e5e5"/>
<text x="64" y="104.0" font-size="11" fill="#666" text-anchor="end">9219ms</text>
<line x1="70" y1="44.0" x2="880" y2="44.0" stroke="#e5e5e5"/>
<text x="64" y="48.0" font-size="11" fill="#666" text-anchor="end">11523ms</text>
<text x="70.0" y="342" font-size="11" fill="#666" text-anchor="start">07-16 22:20</text>
<text x="489.0" y="342" font-size="11" fill="#666" text-anchor="middle">07-17 19:17</text>
<text x="880.0" y="342" font-size="11" fill="#666" text-anchor="end">07-17 21:52</text>
<polyline points="70.0,286.6 97.9,283.0 125.9,286.3 153.8,285.6 181.7,282.6 209.7,288.2 237.6,285.3 265.5,283.7 293.4,287.3 321.4,287.2 349.3,289.4 377.2,287.2 405.2,284.5 433.1,295.8 461.0,298.9 489.0,295.9 516.9,297.1 544.8,299.0 572.8,294.2 600.7,303.9 628.6,305.8 656.6,302.6 684.5,306.9 712.4,295.9 740.3,303.4 768.3,304.4 796.2,303.2 824.1,306.1 852.1,303.7 880.0,305.2" fill="none" stroke="#4c78a8" stroke-width="2"/>
<circle cx="70.0" cy="286.6" r="3" fill="#4c78a8"/>
<circle cx="97.9" cy="283.0" r="3" fill="#4c78a8"/>
<circle cx="125.9" cy="286.3" r="3" fill="#4c78a8"/>
<circle cx="153.8" cy="285.6" r="3" fill="#4c78a8"/>
<circle cx="181.7" cy="282.6" r="3" fill="#4c78a8"/>
<circle cx="209.7" cy="288.2" r="3" fill="#4c78a8"/>
<circle cx="237.6" cy="285.3" r="3" fill="#4c78a8"/>
<circle cx="265.5" cy="283.7" r="3" fill="#4c78a8"/>
<circle cx="293.4" cy="287.3" r="3" fill="#4c78a8"/>
<circle cx="321.4" cy="287.2" r="3" fill="#4c78a8"/>
<circle cx="349.3" cy="289.4" r="3" fill="#4c78a8"/>
<circle cx="377.2" cy="287.2" r="3" fill="#4c78a8"/>
<circle cx="405.2" cy="284.5" r="3" fill="#4c78a8"/>
<circle cx="433.1" cy="295.8" r="3" fill="#4c78a8"/>
<circle cx="461.0" cy="298.9" r="3" fill="#4c78a8"/>
<circle cx="489.0" cy="295.9" r="3" fill="#4c78a8"/>
<circle cx="516.9" cy="297.1" r="3" fill="#4c78a8"/>
<circle cx="544.8" cy="299.0" r="3" fill="#4c78a8"/>
<circle cx="572.8" cy="294.2" r="3" fill="#4c78a8"/>
<circle cx="600.7" cy="303.9" r="3" fill="#4c78a8"/>
<circle cx="628.6" cy="305.8" r="3" fill="#4c78a8"/>
<circle cx="656.6" cy="302.6" r="3" fill="#4c78a8"/>
<circle cx="684.5" cy="306.9" r="3" fill="#4c78a8"/>
<circle cx="712.4" cy="295.9" r="3" fill="#4c78a8"/>
<circle cx="740.3" cy="303.4" r="3" fill="#4c78a8"/>
<circle cx="768.3" cy="304.4" r="3" fill="#4c78a8"/>
<circle cx="796.2" cy="303.2" r="3" fill="#4c78a8"/>
<circle cx="824.1" cy="306.1" r="3" fill="#4c78a8"/>
<circle cx="852.1" cy="303.7" r="3" fill="#4c78a8"/>
<circle cx="880.0" cy="305.2" r="3" fill="#4c78a8"/>
<rect x="70.0" y="358" width="10" height="10" fill="#4c78a8"/>
<text x="84.0" y="367" font-size="11" fill="#333">STT final</text>
<polyline points="70.0,279.7 97.9,272.0 125.9,276.8 153.8,276.8 181.7,271.5 209.7,273.1 237.6,274.7 265.5,266.2 293.4,276.2 321.4,271.8 349.3,273.2 377.2,276.7 405.2,273.0 433.1,287.5 461.0,288.1 489.0,277.4 516.9,283.6 544.8,287.3 572.8,284.1 600.7,295.0 628.6,294.7 656.6,296.8 684.5,290.6 712.4,235.7 740.3,287.8 768.3,295.2 796.2,291.0 824.1,295.8 852.1,293.3 880.0,288.3" fill="none" stroke="#59a14f" stroke-width="2"/>
<circle cx="70.0" cy="279.7" r="3" fill="#59a14f"/>
<circle cx="97.9" cy="272.0" r="3" fill="#59a14f"/>
<circle cx="125.9" cy="276.8" r="3" fill="#59a14f"/>
<circle cx="153.8" cy="276.8" r="3" fill="#59a14f"/>
<circle cx="181.7" cy="271.5" r="3" fill="#59a14f"/>
<circle cx="209.7" cy="273.1" r="3" fill="#59a14f"/>
<circle cx="237.6" cy="274.7" r="3" fill="#59a14f"/>
<circle cx="265.5" cy="266.2" r="3" fill="#59a14f"/>
<circle cx="293.4" cy="276.2" r="3" fill="#59a14f"/>
<circle cx="321.4" cy="271.8" r="3" fill="#59a14f"/>
<circle cx="349.3" cy="273.2" r="3" fill="#59a14f"/>
<circle cx="377.2" cy="276.7" r="3" fill="#59a14f"/>
<circle cx="405.2" cy="273.0" r="3" fill="#59a14f"/>
<circle cx="433.1" cy="287.5" r="3" fill="#59a14f"/>
<circle cx="461.0" cy="288.1" r="3" fill="#59a14f"/>
<circle cx="489.0" cy="277.4" r="3" fill="#59a14f"/>
<circle cx="516.9" cy="283.6" r="3" fill="#59a14f"/>
<circle cx="544.8" cy="287.3" r="3" fill="#59a14f"/>
<circle cx="572.8" cy="284.1" r="3" fill="#59a14f"/>
<circle cx="600.7" cy="295.0" r="3" fill="#59a14f"/>
<circle cx="628.6" cy="294.7" r="3" fill="#59a14f"/>
<circle cx="656.6" cy="296.8" r="3" fill="#59a14f"/>
<circle cx="684.5" cy="290.6" r="3" fill="#59a14f"/>
<circle cx="712.4" cy="235.7" r="3" fill="#59a14f"/>
<circle cx="740.3" cy="287.8" r="3" fill="#59a14f"/>
<circle cx="768.3" cy="295.2" r="3" fill="#59a14f"/>
<circle cx="796.2" cy="291.0" r="3" fill="#59a14f"/>
<circle cx="824.1" cy="295.8" r="3" fill="#59a14f"/>
<circle cx="852.1" cy="293.3" r="3" fill="#59a14f"/>
<circle cx="880.0" cy="288.3" r="3" fill="#59a14f"/>
<rect x="232.0" y="358" width="10" height="10" fill="#59a14f"/>
<text x="246.0" y="367" font-size="11" fill="#333">LLM first token</text>
<polyline points="70.0,93.7 97.9,161.7 125.9,197.4 153.8,213.5 181.7,236.3 209.7,260.6 237.6,213.4 265.5,191.1 293.4,216.8 321.4,228.5 349.3,191.6 377.2,253.8 405.2,205.2 433.1,270.8 461.0,269.3 489.0,248.4 516.9,269.3 544.8,272.7 572.8,267.4 600.7,282.0 628.6,283.9 656.6,286.8 684.5,272.5 712.4,64.7 740.3,268.8 768.3,275.7 796.2,278.6 824.1,281.5 852.1,283.9 880.0,275.7" fill="none" stroke="#e15759" stroke-width="2"/>
<circle cx="70.0" cy="93.7" r="3" fill="#e15759"/>
<circle cx="97.9" cy="161.7" r="3" fill="#e15759"/>
<circle cx="125.9" cy="197.4" r="3" fill="#e15759"/>
<circle cx="153.8" cy="213.5" r="3" fill="#e15759"/>
<circle cx="181.7" cy="236.3" r="3" fill="#e15759"/>
<circle cx="209.7" cy="260.6" r="3" fill="#e15759"/>
<circle cx="237.6" cy="213.4" r="3" fill="#e15759"/>
<circle cx="265.5" cy="191.1" r="3" fill="#e15759"/>
<circle cx="293.4" cy="216.8" r="3" fill="#e15759"/>
<circle cx="321.4" cy="228.5" r="3" fill="#e15759"/>
<circle cx="349.3" cy="191.6" r="3" fill="#e15759"/>
<circle cx="377.2" cy="253.8" r="3" fill="#e15759"/>
<circle cx="405.2" cy="205.2" r="3" fill="#e15759"/>
<circle cx="433.1" cy="270.8" r="3" fill="#e15759"/>
<circle cx="461.0" cy="269.3" r="3" fill="#e15759"/>
<circle cx="489.0" cy="248.4" r="3" fill="#e15759"/>
<circle cx="516.9" cy="269.3" r="3" fill="#e15759"/>
<circle cx="544.8" cy="272.7" r="3" fill="#e15759"/>
<circle cx="572.8" cy="267.4" r="3" fill="#e15759"/>
<circle cx="600.7" cy="282.0" r="3" fill="#e15759"/>
<circle cx="628.6" cy="283.9" r="3" fill="#e15759"/>
<circle cx="656.6" cy="286.8" r="3" fill="#e15759"/>
<circle cx="684.5" cy="272.5" r="3" fill="#e15759"/>
<circle cx="712.4" cy="64.7" r="3" fill="#e15759"/>
<circle cx="740.3" cy="268.8" r="3" fill="#e15759"/>
<circle cx="768.3" cy="275.7" r="3" fill="#e15759"/>
<circle cx="796.2" cy="278.6" r="3" fill="#e15759"/>
<circle cx="824.1" cy="281.5" r="3" fill="#e15759"/>
<circle cx="852.1" cy="283.9" r="3" fill="#e15759"/>
<circle cx="880.0" cy="275.7" r="3" fill="#e15759"/>
<rect x="394.0" y="358" width="10" height="10" fill="#e15759"/>
<text x="408.0" y="367" font-size="11" fill="#333">received audio</text>
<polyline points="70.0,313.8 97.9,316.9 125.9,315.6 153.8,316.4 181.7,312.7 209.7,320.5 237.6,306.6 265.5,315.1 293.4,317.8 321.4,309.6 349.3,317.4 377.2,319.3 405.2,310.8 433.1,317.9 461.0,313.7 489.0,311.5 516.9,313.9 544.8,315.8 572.8,312.3 600.7,317.7 628.6,316.9 656.6,318.4 684.5,315.2 712.4,317.0 740.3,319.2 768.3,315.3 796.2,319.4 824.1,319.4 852.1,318.9 880.0,310.1" fill="none" stroke="#b279a2" stroke-width="2"/>
<circle cx="70.0" cy="313.8" r="3" fill="#b279a2"/>
<circle cx="97.9" cy="316.9" r="3" fill="#b279a2"/>
<circle cx="125.9" cy="315.6" r="3" fill="#b279a2"/>
<circle cx="153.8" cy="316.4" r="3" fill="#b279a2"/>
<circle cx="181.7" cy="312.7" r="3" fill="#b279a2"/>
<circle cx="209.7" cy="320.5" r="3" fill="#b279a2"/>
<circle cx="237.6" cy="306.6" r="3" fill="#b279a2"/>
<circle cx="265.5" cy="315.1" r="3" fill="#b279a2"/>
<circle cx="293.4" cy="317.8" r="3" fill="#b279a2"/>
<circle cx="321.4" cy="309.6" r="3" fill="#b279a2"/>
<circle cx="349.3" cy="317.4" r="3" fill="#b279a2"/>
<circle cx="377.2" cy="319.3" r="3" fill="#b279a2"/>
<circle cx="405.2" cy="310.8" r="3" fill="#b279a2"/>
<circle cx="433.1" cy="317.9" r="3" fill="#b279a2"/>
<circle cx="461.0" cy="313.7" r="3" fill="#b279a2"/>
<circle cx="489.0" cy="311.5" r="3" fill="#b279a2"/>
<circle cx="516.9" cy="313.9" r="3" fill="#b279a2"/>
<circle cx="544.8" cy="315.8" r="3" fill="#b279a2"/>
<circle cx="572.8" cy="312.3" r="3" fill="#b279a2"/>
<circle cx="600.7" cy="317.7" r="3" fill="#b279a2"/>
<circle cx="628.6" cy="316.9" r="3" fill="#b279a2"/>
<circle cx="656.6" cy="318.4" r="3" fill="#b279a2"/>
<circle cx="684.5" cy="315.2" r="3" fill="#b279a2"/>
<circle cx="712.4" cy="317.0" r="3" fill="#b279a2"/>
<circle cx="740.3" cy="319.2" r="3" fill="#b279a2"/>
<circle cx="768.3" cy="315.3" r="3" fill="#b279a2"/>
<circle cx="796.2" cy="319.4" r="3" fill="#b279a2"/>
<circle cx="824.1" cy="319.4" r="3" fill="#b279a2"/>
<circle cx="852.1" cy="318.9" r="3" fill="#b279a2"/>
<circle cx="880.0" cy="310.1" r="3" fill="#b279a2"/>
<rect x="556.0" y="358" width="10" height="10" fill="#b279a2"/>
<text x="570.0" y="367" font-size="11" fill="#333">received mouth</text>
<rect x="718.0" y="358" width="10" height="10" fill="#ff7f0e"/>
<text x="732.0" y="367" font-size="11" fill="#333">server A/V offset</text>
</svg>
