<svg xmlns="http://www.w3.org/2000/svg" width="900" height="380" viewBox="0 0 900 380" font-family="sans-serif">
<rect width="900" height="380" fill="white"/>
<text x="70" y="24" font-size="16" fill="#333">Browser-observed WebRTC latency (ms, p50) — lower is better</text>
<line x1="70" y1="324.0" x2="880" y2="324.0" stroke="#e5e5e5"/>
<text x="64" y="328.0" font-size="11" fill="#666" text-anchor="end">0ms</text>
<line x1="70" y1="268.0" x2="880" y2="268.0" stroke="#e5e5e5"/>
<text x="64" y="272.0" font-size="11" fill="#666" text-anchor="end">2047ms</text>
<line x1="70" y1="212.0" x2="880" y2="212.0" stroke="#e5e5e5"/>
<text x="64" y="216.0" font-size="11" fill="#666" text-anchor="end">4095ms</text>
<line x1="70" y1="156.0" x2="880" y2="156.0" stroke="#e5e5e5"/>
<text x="64" y="160.0" font-size="11" fill="#666" text-anchor="end">6142ms</text>
<line x1="70" y1="100.0" x2="880" y2="100.0" stroke="#e5e5e5"/>
<text x="64" y="104.0" font-size="11" fill="#666" text-anchor="end">8190ms</text>
<line x1="70" y1="44.0" x2="880" y2="44.0" stroke="#e5e5e5"/>
<text x="64" y="48.0" font-size="11" fill="#666" text-anchor="end">10237ms</text>
<text x="70.0" y="342" font-size="11" fill="#666" text-anchor="start">07-16 22:20</text>
<text x="475.0" y="342" font-size="11" fill="#666" text-anchor="middle">07-17 14:57</text>
<text x="880.0" y="342" font-size="11" fill="#666" text-anchor="end">07-17 16:43</text>
<polyline points="70.0,281.9 137.5,277.8 205.0,281.6 272.5,280.8 340.0,277.4 407.5,283.7 475.0,280.4 542.5,278.6 610.0,282.7 677.5,282.6 745.0,285.1 812.5,282.6 880.0,279.5" fill="none" stroke="#4c78a8" stroke-width="2"/>
<circle cx="70.0" cy="281.9" r="3" fill="#4c78a8"/>
<circle cx="137.5" cy="277.8" r="3" fill="#4c78a8"/>
<circle cx="205.0" cy="281.6" r="3" fill="#4c78a8"/>
<circle cx="272.5" cy="280.8" r="3" fill="#4c78a8"/>
<circle cx="340.0" cy="277.4" r="3" fill="#4c78a8"/>
<circle cx="407.5" cy="283.7" r="3" fill="#4c78a8"/>
<circle cx="475.0" cy="280.4" r="3" fill="#4c78a8"/>
<circle cx="542.5" cy="278.6" r="3" fill="#4c78a8"/>
<circle cx="610.0" cy="282.7" r="3" fill="#4c78a8"/>
<circle cx="677.5" cy="282.6" r="3" fill="#4c78a8"/>
<circle cx="745.0" cy="285.1" r="3" fill="#4c78a8"/>
<circle cx="812.5" cy="282.6" r="3" fill="#4c78a8"/>
<circle cx="880.0" cy="279.5" r="3" fill="#4c78a8"/>
<rect x="70.0" y="358" width="10" height="10" fill="#4c78a8"/>
<text x="84.0" y="367" font-size="11" fill="#333">STT final</text>
<polyline points="70.0,274.2 137.5,265.5 205.0,270.9 272.5,270.9 340.0,264.9 407.5,266.7 475.0,268.5 542.5,258.9 610.0,270.2 677.5,265.3 745.0,266.8 812.5,270.8 880.0,266.6" fill="none" stroke="#59a14f" stroke-width="2"/>
<circle cx="70.0" cy="274.2" r="3" fill="#59a14f"/>
<circle cx="137.5" cy="265.5" r="3" fill="#59a14f"/>
<circle cx="205.0" cy="270.9" r="3" fill="#59a14f"/>
<circle cx="272.5" cy="270.9" r="3" fill="#59a14f"/>
<circle cx="340.0" cy="264.9" r="3" fill="#59a14f"/>
<circle cx="407.5" cy="266.7" r="3" fill="#59a14f"/>
<circle cx="475.0" cy="268.5" r="3" fill="#59a14f"/>
<circle cx="542.5" cy="258.9" r="3" fill="#59a14f"/>
<circle cx="610.0" cy="270.2" r="3" fill="#59a14f"/>
<circle cx="677.5" cy="265.3" r="3" fill="#59a14f"/>
<circle cx="745.0" cy="266.8" r="3" fill="#59a14f"/>
<circle cx="812.5" cy="270.8" r="3" fill="#59a14f"/>
<circle cx="880.0" cy="266.6" r="3" fill="#59a14f"/>
<rect x="232.0" y="358" width="10" height="10" fill="#59a14f"/>
<text x="246.0" y="367" font-size="11" fill="#333">LLM first token</text>
<polyline points="70.0,64.7 137.5,141.3 205.0,181.5 272.5,199.6 340.0,225.3 407.5,252.6 475.0,199.5 542.5,174.4 610.0,203.4 677.5,216.5 745.0,175.0 812.5,245.0 880.0,190.3" fill="none" stroke="#e15759" stroke-width="2"/>
<circle cx="70.0" cy="64.7" r="3" fill="#e15759"/>
<circle cx="137.5" cy="141.3" r="3" fill="#e15759"/>
<circle cx="205.0" cy="181.5" r="3" fill="#e15759"/>
<circle cx="272.5" cy="199.6" r="3" fill="#e15759"/>
<circle cx="340.0" cy="225.3" r="3" fill="#e15759"/>
<circle cx="407.5" cy="252.6" r="3" fill="#e15759"/>
<circle cx="475.0" cy="199.5" r="3" fill="#e15759"/>
<circle cx="542.5" cy="174.4" r="3" fill="#e15759"/>
<circle cx="610.0" cy="203.4" r="3" fill="#e15759"/>
<circle cx="677.5" cy="216.5" r="3" fill="#e15759"/>
<circle cx="745.0" cy="175.0" r="3" fill="#e15759"/>
<circle cx="812.5" cy="245.0" r="3" fill="#e15759"/>
<circle cx="880.0" cy="190.3" r="3" fill="#e15759"/>
<rect x="394.0" y="358" width="10" height="10" fill="#e15759"/>
<text x="408.0" y="367" font-size="11" fill="#333">received audio</text>
<polyline points="70.0,312.5 137.5,316.0 205.0,314.6 272.5,315.4 340.0,311.2 407.5,320.1 475.0,304.4 542.5,313.9 610.0,317.1 677.5,307.8 745.0,316.6 812.5,318.8 880.0,309.2" fill="none" stroke="#b279a2" stroke-width="2"/>
<circle cx="70.0" cy="312.5" r="3" fill="#b279a2"/>
<circle cx="137.5" cy="316.0" r="3" fill="#b279a2"/>
<circle cx="205.0" cy="314.6" r="3" fill="#b279a2"/>
<circle cx="272.5" cy="315.4" r="3" fill="#b279a2"/>
<circle cx="340.0" cy="311.2" r="3" fill="#b279a2"/>
<circle cx="407.5" cy="320.1" r="3" fill="#b279a2"/>
<circle cx="475.0" cy="304.4" r="3" fill="#b279a2"/>
<circle cx="542.5" cy="313.9" r="3" fill="#b279a2"/>
<circle cx="610.0" cy="317.1" r="3" fill="#b279a2"/>
<circle cx="677.5" cy="307.8" r="3" fill="#b279a2"/>
<circle cx="745.0" cy="316.6" r="3" fill="#b279a2"/>
<circle cx="812.5" cy="318.8" r="3" fill="#b279a2"/>
<circle cx="880.0" cy="309.2" r="3" fill="#b279a2"/>
<rect x="556.0" y="358" width="10" height="10" fill="#b279a2"/>
<text x="570.0" y="367" font-size="11" fill="#333">received mouth</text>
<rect x="718.0" y="358" width="10" height="10" fill="#ff7f0e"/>
<text x="732.0" y="367" font-size="11" fill="#333">server A/V offset</text>
</svg>
