<svg xmlns="http://www.w3.org/2000/svg" width="900" height="380" viewBox="0 0 900 380" font-family="sans-serif">
<rect width="900" height="380" fill="white"/>
<text x="70" y="24" font-size="16" fill="#333">Browser-observed WebRTC latency (ms, p50) — lower is better</text>
<line x1="70" y1="324.0" x2="880" y2="324.0" stroke="#e5e5e5"/>
<text x="64" y="328.0" font-size="11" fill="#666" text-anchor="end">0ms</text>
<line x1="70" y1="268.0" x2="880" y2="268.0" stroke="#e5e5e5"/>
<text x="64" y="272.0" font-size="11" fill="#666" text-anchor="end">2305ms</text>
<line x1="70" y1="212.0" x2="880" y2="212.0" stroke="#e5e5e5"/>
<text x="64" y="216.0" font-size="11" fill="#666" text-anchor="end">4609ms</text>
<line x1="70" y1="156.0" x2="880" y2="156.0" stroke="#e5e5e5"/>
<text x="64" y="160.0" font-size="11" fill="#666" text-anchor="end">6914ms</text>
<line x1="70" y1="100.0" x2="880" y2="100.0" stroke="#e5e5e5"/>
<text x="64" y="104.0" font-size="11" fill="#666" text-anchor="end">9219ms</text>
<line x1="70" y1="44.0" x2="880" y2="44.0" stroke="#e5e5e5"/>
<text x="64" y="48.0" font-size="11" fill="#666" text-anchor="end">11523ms</text>
<text x="70.0" y="342" font-size="11" fill="#666" text-anchor="start">07-16 22:20</text>
<text x="475.0" y="342" font-size="11" fill="#666" text-anchor="middle">07-17 19:53</text>
<text x="880.0" y="342" font-size="11" fill="#666" text-anchor="end">07-18 08:30</text>
<polyline points="70.0,286.6 91.3,283.0 112.6,286.3 133.9,285.6 155.3,282.6 176.6,288.2 197.9,285.3 219.2,283.7 240.5,287.3 261.8,287.2 283.2,289.4 304.5,287.2 325.8,284.5 347.1,295.8 368.4,298.9 389.7,295.9 411.1,297.1 432.4,299.0 453.7,294.2 475.0,303.9 496.3,305.8 517.6,302.6 538.9,306.9 560.3,295.9 581.6,303.4 602.9,304.4 624.2,303.2 645.5,306.1 666.8,303.7 688.2,305.2 709.5,302.0 730.8,306.2 752.1,305.3 773.4,305.1 794.7,301.3 816.1,313.8 837.4,312.7 858.7,301.4 880.0,301.9" fill="none" stroke="#4c78a8" stroke-width="2"/>
<circle cx="70.0" cy="286.6" r="3" fill="#4c78a8"/>
<circle cx="91.3" cy="283.0" r="3" fill="#4c78a8"/>
<circle cx="112.6" cy="286.3" r="3" fill="#4c78a8"/>
<circle cx="133.9" cy="285.6" r="3" fill="#4c78a8"/>
<circle cx="155.3" cy="282.6" r="3" fill="#4c78a8"/>
<circle cx="176.6" cy="288.2" r="3" fill="#4c78a8"/>
<circle cx="197.9" cy="285.3" r="3" fill="#4c78a8"/>
<circle cx="219.2" cy="283.7" r="3" fill="#4c78a8"/>
<circle cx="240.5" cy="287.3" r="3" fill="#4c78a8"/>
<circle cx="261.8" cy="287.2" r="3" fill="#4c78a8"/>
<circle cx="283.2" cy="289.4" r="3" fill="#4c78a8"/>
<circle cx="304.5" cy="287.2" r="3" fill="#4c78a8"/>
<circle cx="325.8" cy="284.5" r="3" fill="#4c78a8"/>
<circle cx="347.1" cy="295.8" r="3" fill="#4c78a8"/>
<circle cx="368.4" cy="298.9" r="3" fill="#4c78a8"/>
<circle cx="389.7" cy="295.9" r="3" fill="#4c78a8"/>
<circle cx="411.1" cy="297.1" r="3" fill="#4c78a8"/>
<circle cx="432.4" cy="299.0" r="3" fill="#4c78a8"/>
<circle cx="453.7" cy="294.2" r="3" fill="#4c78a8"/>
<circle cx="475.0" cy="303.9" r="3" fill="#4c78a8"/>
<circle cx="496.3" cy="305.8" r="3" fill="#4c78a8"/>
<circle cx="517.6" cy="302.6" r="3" fill="#4c78a8"/>
<circle cx="538.9" cy="306.9" r="3" fill="#4c78a8"/>
<circle cx="560.3" cy="295.9" r="3" fill="#4c78a8"/>
<circle cx="581.6" cy="303.4" r="3" fill="#4c78a8"/>
<circle cx="602.9" cy="304.4" r="3" fill="#4c78a8"/>
<circle cx="624.2" cy="303.2" r="3" fill="#4c78a8"/>
<circle cx="645.5" cy="306.1" r="3" fill="#4c78a8"/>
<circle cx="666.8" cy="303.7" r="3" fill="#4c78a8"/>
<circle cx="688.2" cy="305.2" r="3" fill="#4c78a8"/>
<circle cx="709.5" cy="302.0" r="3" fill="#4c78a8"/>
<circle cx="730.8" cy="306.2" r="3" fill="#4c78a8"/>
<circle cx="752.1" cy="305.3" r="3" fill="#4c78a8"/>
<circle cx="773.4" cy="305.1" r="3" fill="#4c78a8"/>
<circle cx="794.7" cy="301.3" r="3" fill="#4c78a8"/>
<circle cx="816.1" cy="313.8" r="3" fill="#4c78a8"/>
<circle cx="837.4" cy="312.7" r="3" fill="#4c78a8"/>
<circle cx="858.7" cy="301.4" r="3" fill="#4c78a8"/>
<circle cx="880.0" cy="301.9" r="3" fill="#4c78a8"/>
<rect x="70.0" y="358" width="10" height="10" fill="#4c78a8"/>
<text x="84.0" y="367" font-size="11" fill="#333">STT final</text>
<polyline points="70.0,279.7 91.3,272.0 112.6,276.8 133.9,276.8 155.3,271.5 176.6,273.1 197.9,274.7 219.2,266.2 240.5,276.2 261.8,271.8 283.2,273.2 304.5,276.7 325.8,273.0 347.1,287.5 368.4,288.1 389.7,277.4 411.1,283.6 432.4,287.3 453.7,284.1 475.0,295.0 496.3,294.7 517.6,296.8 538.9,290.6 560.3,235.7 581.6,287.8 602.9,295.2 624.2,291.0 645.5,295.8 666.8,293.3 688.2,288.3 709.5,280.2 730.8,297.5 752.1,290.9 773.4,297.0 794.7,289.8 816.1,304.9 837.4,300.8 858.7,286.0 880.0,291.4" fill="none" stroke="#59a14f" stroke-width="2"/>
<circle cx="70.0" cy="279.7" r="3" fill="#59a14f"/>
<circle cx="91.3" cy="272.0" r="3" fill="#59a14f"/>
<circle cx="112.6" cy="276.8" r="3" fill="#59a14f"/>
<circle cx="133.9" cy="276.8" r="3" fill="#59a14f"/>
<circle cx="155.3" cy="271.5" r="3" fill="#59a14f"/>
<circle cx="176.6" cy="273.1" r="3" fill="#59a14f"/>
<circle cx="197.9" cy="274.7" r="3" fill="#59a14f"/>
<circle cx="219.2" cy="266.2" r="3" fill="#59a14f"/>
<circle cx="240.5" cy="276.2" r="3" fill="#59a14f"/>
<circle cx="261.8" cy="271.8" r="3" fill="#59a14f"/>
<circle cx="283.2" cy="273.2" r="3" fill="#59a14f"/>
<circle cx="304.5" cy="276.7" r="3" fill="#59a14f"/>
<circle cx="325.8" cy="273.0" r="3" fill="#59a14f"/>
<circle cx="347.1" cy="287.5" r="3" fill="#59a14f"/>
<circle cx="368.4" cy="288.1" r="3" fill="#59a14f"/>
<circle cx="389.7" cy="277.4" r="3" fill="#59a14f"/>
<circle cx="411.1" cy="283.6" r="3" fill="#59a14f"/>
<circle cx="432.4" cy="287.3" r="3" fill="#59a14f"/>
<circle cx="453.7" cy="284.1" r="3" fill="#59a14f"/>
<circle cx="475.0" cy="295.0" r="3" fill="#59a14f"/>
<circle cx="496.3" cy="294.7" r="3" fill="#59a14f"/>
<circle cx="517.6" cy="296.8" r="3" fill="#59a14f"/>
<circle cx="538.9" cy="290.6" r="3" fill="#59a14f"/>
<circle cx="560.3" cy="235.7" r="3" fill="#59a14f"/>
<circle cx="581.6" cy="287.8" r="3" fill="#59a14f"/>
<circle cx="602.9" cy="295.2" r="3" fill="#59a14f"/>
<circle cx="624.2" cy="291.0" r="3" fill="#59a14f"/>
<circle cx="645.5" cy="295.8" r="3" fill="#59a14f"/>
<circle cx="666.8" cy="293.3" r="3" fill="#59a14f"/>
<circle cx="688.2" cy="288.3" r="3" fill="#59a14f"/>
<circle cx="709.5" cy="280.2" r="3" fill="#59a14f"/>
<circle cx="730.8" cy="297.5" r="3" fill="#59a14f"/>
<circle cx="752.1" cy="290.9" r="3" fill="#59a14f"/>
<circle cx="773.4" cy="297.0" r="3" fill="#59a14f"/>
<circle cx="794.7" cy="289.8" r="3" fill="#59a14f"/>
<circle cx="816.1" cy="304.9" r="3" fill="#59a14f"/>
<circle cx="837.4" cy="300.8" r="3" fill="#59a14f"/>
<circle cx="858.7" cy="286.0" r="3" fill="#59a14f"/>
<circle cx="880.0" cy="291.4" r="3" fill="#59a14f"/>
<rect x="232.0" y="358" width="10" height="10" fill="#59a14f"/>
<text x="246.0" y="367" font-size="11" fill="#333">LLM first token</text>
<polyline points="70.0,93.7 91.3,161.7 112.6,197.4 133.9,213.5 155.3,236.3 176.6,260.6 197.9,213.4 219.2,191.1 240.5,216.8 261.8,228.5 283.2,191.6 304.5,253.8 325.8,205.2 347.1,270.8 368.4,269.3 389.7,248.4 411.1,269.3 432.4,272.7 453.7,267.4 475.0,282.0 496.3,283.9 517.6,286.8 538.9,272.5 560.3,64.7 581.6,268.8 602.9,275.7 624.2,278.6 645.5,281.5 666.8,283.9 688.2,275.7 709.5,264.5 730.8,286.3 752.1,278.6 773.4,281.0 794.7,271.8 816.1,294.1 837.4,287.8 858.7,262.0 880.0,274.7" fill="none" stroke="#e15759" stroke-width="2"/>
<circle cx="70.0" cy="93.7" r="3" fill="#e15759"/>
<circle cx="91.3" cy="161.7" r="3" fill="#e15759"/>
<circle cx="112.6" cy="197.4" r="3" fill="#e15759"/>
<circle cx="133.9" cy="213.5" r="3" fill="#e15759"/>
<circle cx="155.3" cy="236.3" r="3" fill="#e15759"/>
<circle cx="176.6" cy="260.6" r="3" fill="#e15759"/>
<circle cx="197.9" cy="213.4" r="3" fill="#e15759"/>
<circle cx="219.2" cy="191.1" r="3" fill="#e15759"/>
<circle cx="240.5" cy="216.8" r="3" fill="#e15759"/>
<circle cx="261.8" cy="228.5" r="3" fill="#e15759"/>
<circle cx="283.2" cy="191.6" r="3" fill="#e15759"/>
<circle cx="304.5" cy="253.8" r="3" fill="#e15759"/>
<circle cx="325.8" cy="205.2" r="3" fill="#e15759"/>
<circle cx="347.1" cy="270.8" r="3" fill="#e15759"/>
<circle cx="368.4" cy="269.3" r="3" fill="#e15759"/>
<circle cx="389.7" cy="248.4" r="3" fill="#e15759"/>
<circle cx="411.1" cy="269.3" r="3" fill="#e15759"/>
<circle cx="432.4" cy="272.7" r="3" fill="#e15759"/>
<circle cx="453.7" cy="267.4" r="3" fill="#e15759"/>
<circle cx="475.0" cy="282.0" r="3" fill="#e15759"/>
<circle cx="496.3" cy="283.9" r="3" fill="#e15759"/>
<circle cx="517.6" cy="286.8" r="3" fill="#e15759"/>
<circle cx="538.9" cy="272.5" r="3" fill="#e15759"/>
<circle cx="560.3" cy="64.7" r="3" fill="#e15759"/>
<circle cx="581.6" cy="268.8" r="3" fill="#e15759"/>
<circle cx="602.9" cy="275.7" r="3" fill="#e15759"/>
<circle cx="624.2" cy="278.6" r="3" fill="#e15759"/>
<circle cx="645.5" cy="281.5" r="3" fill="#e15759"/>
<circle cx="666.8" cy="283.9" r="3" fill="#e15759"/>
<circle cx="688.2" cy="275.7" r="3" fill="#e15759"/>
<circle cx="709.5" cy="264.5" r="3" fill="#e15759"/>
<circle cx="730.8" cy="286.3" r="3" fill="#e15759"/>
<circle cx="752.1" cy="278.6" r="3" fill="#e15759"/>
<circle cx="773.4" cy="281.0" r="3" fill="#e15759"/>
<circle cx="794.7" cy="271.8" r="3" fill="#e15759"/>
<circle cx="816.1" cy="294.1" r="3" fill="#e15759"/>
<circle cx="837.4" cy="287.8" r="3" fill="#e15759"/>
<circle cx="858.7" cy="262.0" r="3" fill="#e15759"/>
<circle cx="880.0" cy="274.7" r="3" fill="#e15759"/>
<rect x="394.0" y="358" width="10" height="10" fill="#e15759"/>
<text x="408.0" y="367" font-size="11" fill="#333">received audio</text>
<polyline points="70.0,313.8 91.3,316.9 112.6,315.6 133.9,316.4 155.3,312.7 176.6,320.5 197.9,306.6 219.2,315.1 240.5,317.8 261.8,309.6 283.2,317.4 304.5,319.3 325.8,310.8 347.1,317.9 368.4,313.7 389.7,311.5 411.1,313.9 432.4,315.8 453.7,312.3 475.0,317.7 496.3,316.9 517.6,318.4 538.9,315.2 560.3,317.0 581.6,319.2 602.9,315.3 624.2,319.4 645.5,319.4 666.8,318.9 688.2,310.1 709.5,311.8 730.8,319.8 752.1,318.0 773.4,315.2 794.7,314.7 816.1,320.7 837.4,320.6 858.7,316.9 880.0,316.3" fill="none" stroke="#b279a2" stroke-width="2"/>
<circle cx="70.0" cy="313.8" r="3" fill="#b279a2"/>
<circle cx="91.3" cy="316.9" r="3" fill="#b279a2"/>
<circle cx="112.6" cy="315.6" r="3" fill="#b279a2"/>
<circle cx="133.9" cy="316.4" r="3" fill="#b279a2"/>
<circle cx="155.3" cy="312.7" r="3" fill="#b279a2"/>
<circle cx="176.6" cy="320.5" r="3" fill="#b279a2"/>
<circle cx="197.9" cy="306.6" r="3" fill="#b279a2"/>
<circle cx="219.2" cy="315.1" r="3" fill="#b279a2"/>
<circle cx="240.5" cy="317.8" r="3" fill="#b279a2"/>
<circle cx="261.8" cy="309.6" r="3" fill="#b279a2"/>
<circle cx="283.2" cy="317.4" r="3" fill="#b279a2"/>
<circle cx="304.5" cy="319.3" r="3" fill="#b279a2"/>
<circle cx="325.8" cy="310.8" r="3" fill="#b279a2"/>
<circle cx="347.1" cy="317.9" r="3" fill="#b279a2"/>
<circle cx="368.4" cy="313.7" r="3" fill="#b279a2"/>
<circle cx="389.7" cy="311.5" r="3" fill="#b279a2"/>
<circle cx="411.1" cy="313.9" r="3" fill="#b279a2"/>
<circle cx="432.4" cy="315.8" r="3" fill="#b279a2"/>
<circle cx="453.7" cy="312.3" r="3" fill="#b279a2"/>
<circle cx="475.0" cy="317.7" r="3" fill="#b279a2"/>
<circle cx="496.3" cy="316.9" r="3" fill="#b279a2"/>
<circle cx="517.6" cy="318.4" r="3" fill="#b279a2"/>
<circle cx="538.9" cy="315.2" r="3" fill="#b279a2"/>
<circle cx="560.3" cy="317.0" r="3" fill="#b279a2"/>
<circle cx="581.6" cy="319.2" r="3" fill="#b279a2"/>
<circle cx="602.9" cy="315.3" r="3" fill="#b279a2"/>
<circle cx="624.2" cy="319.4" r="3" fill="#b279a2"/>
<circle cx="645.5" cy="319.4" r="3" fill="#b279a2"/>
<circle cx="666.8" cy="318.9" r="3" fill="#b279a2"/>
<circle cx="688.2" cy="310.1" r="3" fill="#b279a2"/>
<circle cx="709.5" cy="311.8" r="3" fill="#b279a2"/>
<circle cx="730.8" cy="319.8" r="3" fill="#b279a2"/>
<circle cx="752.1" cy="318.0" r="3" fill="#b279a2"/>
<circle cx="773.4" cy="315.2" r="3" fill="#b279a2"/>
<circle cx="794.7" cy="314.7" r="3" fill="#b279a2"/>
<circle cx="816.1" cy="320.7" r="3" fill="#b279a2"/>
<circle cx="837.4" cy="320.6" r="3" fill="#b279a2"/>
<circle cx="858.7" cy="316.9" r="3" fill="#b279a2"/>
<circle cx="880.0" cy="316.3" r="3" fill="#b279a2"/>
<rect x="556.0" y="358" width="10" height="10" fill="#b279a2"/>
<text x="570.0" y="367" font-size="11" fill="#333">received mouth</text>
<rect x="718.0" y="358" width="10" height="10" fill="#ff7f0e"/>
<text x="732.0" y="367" font-size="11" fill="#333">server A/V offset</text>
</svg>
