<svg xmlns="http://www.w3.org/2000/svg" width="900" height="380" viewBox="0 0 900 380" font-family="sans-serif">
<rect width="900" height="380" fill="white"/>
<text x="70" y="24" font-size="16" fill="#333">Browser-observed WebRTC latency (ms, p50) — lower is better</text>
<line x1="70" y1="324.0" x2="880" y2="324.0" stroke="#e5e5e5"/>
<text x="64" y="328.0" font-size="11" fill="#666" text-anchor="end">0ms</text>
<line x1="70" y1="268.0" x2="880" y2="268.0" stroke="#e5e5e5"/>
<text x="64" y="272.0" font-size="11" fill="#666" text-anchor="end">2305ms</text>
<line x1="70" y1="212.0" x2="880" y2="212.0" stroke="#e5e5e5"/>
<text x="64" y="216.0" font-size="11" fill="#666" text-anchor="end">4609ms</text>
<line x1="70" y1="156.0" x2="880" y2="156.0" stroke="#e5e5e5"/>
<text x="64" y="160.0" font-size="11" fill="#666" text-anchor="end">6914ms</text>
<line x1="70" y1="100.0" x2="880" y2="100.0" stroke="#e5e5e5"/>
<text x="64" y="104.0" font-size="11" fill="#666" text-anchor="end">9219ms</text>
<line x1="70" y1="44.0" x2="880" y2="44.0" stroke="#e5e5e5"/>
<text x="64" y="48.0" font-size="11" fill="#666" text-anchor="end">11523ms</text>
<text x="70.0" y="342" font-size="11" fill="#666" text-anchor="start">07-16 22:20</text>
<text x="485.4" y="342" font-size="11" fill="#666" text-anchor="middle">07-17 19:57</text>
<text x="880.0" y="342" font-size="11" fill="#666" text-anchor="end">07-18 08:39</text>
<polyline points="70.0,286.6 90.8,283.0 111.5,286.3 132.3,285.6 153.1,282.6 173.8,288.2 194.6,285.3 215.4,283.7 236.2,287.3 256.9,287.2 277.7,289.4 298.5,287.2 319.2,284.5 340.0,295.8 360.8,298.9 381.5,295.9 402.3,297.1 423.1,299.0 443.8,294.2 464.6,303.9 485.4,305.8 506.2,302.6 526.9,306.9 547.7,295.9 568.5,303.4 589.2,304.4 610.0,303.2 630.8,306.1 651.5,303.7 672.3,305.2 693.1,302.0 713.8,306.2 734.6,305.3 755.4,305.1 776.2,301.3 796.9,313.8 817.7,312.7 838.5,301.4 859.2,301.9 880.0,300.0" fill="none" stroke="#4c78a8" stroke-width="2"/>
<circle cx="70.0" cy="286.6" r="3" fill="#4c78a8"/>
<circle cx="90.8" cy="283.0" r="3" fill="#4c78a8"/>
<circle cx="111.5" cy="286.3" r="3" fill="#4c78a8"/>
<circle cx="132.3" cy="285.6" r="3" fill="#4c78a8"/>
<circle cx="153.1" cy="282.6" r="3" fill="#4c78a8"/>
<circle cx="173.8" cy="288.2" r="3" fill="#4c78a8"/>
<circle cx="194.6" cy="285.3" r="3" fill="#4c78a8"/>
<circle cx="215.4" cy="283.7" r="3" fill="#4c78a8"/>
<circle cx="236.2" cy="287.3" r="3" fill="#4c78a8"/>
<circle cx="256.9" cy="287.2" r="3" fill="#4c78a8"/>
<circle cx="277.7" cy="289.4" r="3" fill="#4c78a8"/>
<circle cx="298.5" cy="287.2" r="3" fill="#4c78a8"/>
<circle cx="319.2" cy="284.5" r="3" fill="#4c78a8"/>
<circle cx="340.0" cy="295.8" r="3" fill="#4c78a8"/>
<circle cx="360.8" cy="298.9" r="3" fill="#4c78a8"/>
<circle cx="381.5" cy="295.9" r="3" fill="#4c78a8"/>
<circle cx="402.3" cy="297.1" r="3" fill="#4c78a8"/>
<circle cx="423.1" cy="299.0" r="3" fill="#4c78a8"/>
<circle cx="443.8" cy="294.2" r="3" fill="#4c78a8"/>
<circle cx="464.6" cy="303.9" r="3" fill="#4c78a8"/>
<circle cx="485.4" cy="305.8" r="3" fill="#4c78a8"/>
<circle cx="506.2" cy="302.6" r="3" fill="#4c78a8"/>
<circle cx="526.9" cy="306.9" r="3" fill="#4c78a8"/>
<circle cx="547.7" cy="295.9" r="3" fill="#4c78a8"/>
<circle cx="568.5" cy="303.4" r="3" fill="#4c78a8"/>
<circle cx="589.2" cy="304.4" r="3" fill="#4c78a8"/>
<circle cx="610.0" cy="303.2" r="3" fill="#4c78a8"/>
<circle cx="630.8" cy="306.1" r="3" fill="#4c78a8"/>
<circle cx="651.5" cy="303.7" r="3" fill="#4c78a8"/>
<circle cx="672.3" cy="305.2" r="3" fill="#4c78a8"/>
<circle cx="693.1" cy="302.0" r="3" fill="#4c78a8"/>
<circle cx="713.8" cy="306.2" r="3" fill="#4c78a8"/>
<circle cx="734.6" cy="305.3" r="3" fill="#4c78a8"/>
<circle cx="755.4" cy="305.1" r="3" fill="#4c78a8"/>
<circle cx="776.2" cy="301.3" r="3" fill="#4c78a8"/>
<circle cx="796.9" cy="313.8" r="3" fill="#4c78a8"/>
<circle cx="817.7" cy="312.7" r="3" fill="#4c78a8"/>
<circle cx="838.5" cy="301.4" r="3" fill="#4c78a8"/>
<circle cx="859.2" cy="301.9" r="3" fill="#4c78a8"/>
<circle cx="880.0" cy="300.0" r="3" fill="#4c78a8"/>
<rect x="70.0" y="358" width="10" height="10" fill="#4c78a8"/>
<text x="84.0" y="367" font-size="11" fill="#333">STT final</text>
<polyline points="70.0,279.7 90.8,272.0 111.5,276.8 132.3,276.8 153.1,271.5 173.8,273.1 194.6,274.7 215.4,266.2 236.2,276.2 256.9,271.8 277.7,273.2 298.5,276.7 319.2,273.0 340.0,287.5 360.8,288.1 381.5,277.4 402.3,283.6 423.1,287.3 443.8,284.1 464.6,295.0 485.4,294.7 506.2,296.8 526.9,290.6 547.7,235.7 568.5,287.8 589.2,295.2 610.0,291.0 630.8,295.8 651.5,293.3 672.3,288.3 693.1,280.2 713.8,297.5 734.6,290.9 755.4,297.0 776.2,289.8 796.9,304.9 817.7,300.8 838.5,286.0 859.2,291.4 880.0,293.9" fill="none" stroke="#59a14f" stroke-width="2"/>
<circle cx="70.0" cy="279.7" r="3" fill="#59a14f"/>
<circle cx="90.8" cy="272.0" r="3" fill="#59a14f"/>
<circle cx="111.5" cy="276.8" r="3" fill="#59a14f"/>
<circle cx="132.3" cy="276.8" r="3" fill="#59a14f"/>
<circle cx="153.1" cy="271.5" r="3" fill="#59a14f"/>
<circle cx="173.8" cy="273.1" r="3" fill="#59a14f"/>
<circle cx="194.6" cy="274.7" r="3" fill="#59a14f"/>
<circle cx="215.4" cy="266.2" r="3" fill="#59a14f"/>
<circle cx="236.2" cy="276.2" r="3" fill="#59a14f"/>
<circle cx="256.9" cy="271.8" r="3" fill="#59a14f"/>
<circle cx="277.7" cy="273.2" r="3" fill="#59a14f"/>
<circle cx="298.5" cy="276.7" r="3" fill="#59a14f"/>
<circle cx="319.2" cy="273.0" r="3" fill="#59a14f"/>
<circle cx="340.0" cy="287.5" r="3" fill="#59a14f"/>
<circle cx="360.8" cy="288.1" r="3" fill="#59a14f"/>
<circle cx="381.5" cy="277.4" r="3" fill="#59a14f"/>
<circle cx="402.3" cy="283.6" r="3" fill="#59a14f"/>
<circle cx="423.1" cy="287.3" r="3" fill="#59a14f"/>
<circle cx="443.8" cy="284.1" r="3" fill="#59a14f"/>
<circle cx="464.6" cy="295.0" r="3" fill="#59a14f"/>
<circle cx="485.4" cy="294.7" r="3" fill="#59a14f"/>
<circle cx="506.2" cy="296.8" r="3" fill="#59a14f"/>
<circle cx="526.9" cy="290.6" r="3" fill="#59a14f"/>
<circle cx="547.7" cy="235.7" r="3" fill="#59a14f"/>
<circle cx="568.5" cy="287.8" r="3" fill="#59a14f"/>
<circle cx="589.2" cy="295.2" r="3" fill="#59a14f"/>
<circle cx="610.0" cy="291.0" r="3" fill="#59a14f"/>
<circle cx="630.8" cy="295.8" r="3" fill="#59a14f"/>
<circle cx="651.5" cy="293.3" r="3" fill="#59a14f"/>
<circle cx="672.3" cy="288.3" r="3" fill="#59a14f"/>
<circle cx="693.1" cy="280.2" r="3" fill="#59a14f"/>
<circle cx="713.8" cy="297.5" r="3" fill="#59a14f"/>
<circle cx="734.6" cy="290.9" r="3" fill="#59a14f"/>
<circle cx="755.4" cy="297.0" r="3" fill="#59a14f"/>
<circle cx="776.2" cy="289.8" r="3" fill="#59a14f"/>
<circle cx="796.9" cy="304.9" r="3" fill="#59a14f"/>
<circle cx="817.7" cy="300.8" r="3" fill="#59a14f"/>
<circle cx="838.5" cy="286.0" r="3" fill="#59a14f"/>
<circle cx="859.2" cy="291.4" r="3" fill="#59a14f"/>
<circle cx="880.0" cy="293.9" r="3" fill="#59a14f"/>
<rect x="232.0" y="358" width="10" height="10" fill="#59a14f"/>
<text x="246.0" y="367" font-size="11" fill="#333">LLM first token</text>
<polyline points="70.0,93.7 90.8,161.7 111.5,197.4 132.3,213.5 153.1,236.3 173.8,260.6 194.6,213.4 215.4,191.1 236.2,216.8 256.9,228.5 277.7,191.6 298.5,253.8 319.2,205.2 340.0,270.8 360.8,269.3 381.5,248.4 402.3,269.3 423.1,272.7 443.8,267.4 464.6,282.0 485.4,283.9 506.2,286.8 526.9,272.5 547.7,64.7 568.5,268.8 589.2,275.7 610.0,278.6 630.8,281.5 651.5,283.9 672.3,275.7 693.1,264.5 713.8,286.3 734.6,278.6 755.4,281.0 776.2,271.8 796.9,294.1 817.7,287.8 838.5,262.0 859.2,274.7 880.0,286.3" fill="none" stroke="#e15759" stroke-width="2"/>
<circle cx="70.0" cy="93.7" r="3" fill="#e15759"/>
<circle cx="90.8" cy="161.7" r="3" fill="#e15759"/>
<circle cx="111.5" cy="197.4" r="3" fill="#e15759"/>
<circle cx="132.3" cy="213.5" r="3" fill="#e15759"/>
<circle cx="153.1" cy="236.3" r="3" fill="#e15759"/>
<circle cx="173.8" cy="260.6" r="3" fill="#e15759"/>
<circle cx="194.6" cy="213.4" r="3" fill="#e15759"/>
<circle cx="215.4" cy="191.1" r="3" fill="#e15759"/>
<circle cx="236.2" cy="216.8" r="3" fill="#e15759"/>
<circle cx="256.9" cy="228.5" r="3" fill="#e15759"/>
<circle cx="277.7" cy="191.6" r="3" fill="#e15759"/>
<circle cx="298.5" cy="253.8" r="3" fill="#e15759"/>
<circle cx="319.2" cy="205.2" r="3" fill="#e15759"/>
<circle cx="340.0" cy="270.8" r="3" fill="#e15759"/>
<circle cx="360.8" cy="269.3" r="3" fill="#e15759"/>
<circle cx="381.5" cy="248.4" r="3" fill="#e15759"/>
<circle cx="402.3" cy="269.3" r="3" fill="#e15759"/>
<circle cx="423.1" cy="272.7" r="3" fill="#e15759"/>
<circle cx="443.8" cy="267.4" r="3" fill="#e15759"/>
<circle cx="464.6" cy="282.0" r="3" fill="#e15759"/>
<circle cx="485.4" cy="283.9" r="3" fill="#e15759"/>
<circle cx="506.2" cy="286.8" r="3" fill="#e15759"/>
<circle cx="526.9" cy="272.5" r="3" fill="#e15759"/>
<circle cx="547.7" cy="64.7" r="3" fill="#e15759"/>
<circle cx="568.5" cy="268.8" r="3" fill="#e15759"/>
<circle cx="589.2" cy="275.7" r="3" fill="#e15759"/>
<circle cx="610.0" cy="278.6" r="3" fill="#e15759"/>
<circle cx="630.8" cy="281.5" r="3" fill="#e15759"/>
<circle cx="651.5" cy="283.9" r="3" fill="#e15759"/>
<circle cx="672.3" cy="275.7" r="3" fill="#e15759"/>
<circle cx="693.1" cy="264.5" r="3" fill="#e15759"/>
<circle cx="713.8" cy="286.3" r="3" fill="#e15759"/>
<circle cx="734.6" cy="278.6" r="3" fill="#e15759"/>
<circle cx="755.4" cy="281.0" r="3" fill="#e15759"/>
<circle cx="776.2" cy="271.8" r="3" fill="#e15759"/>
<circle cx="796.9" cy="294.1" r="3" fill="#e15759"/>
<circle cx="817.7" cy="287.8" r="3" fill="#e15759"/>
<circle cx="838.5" cy="262.0" r="3" fill="#e15759"/>
<circle cx="859.2" cy="274.7" r="3" fill="#e15759"/>
<circle cx="880.0" cy="286.3" r="3" fill="#e15759"/>
<rect x="394.0" y="358" width="10" height="10" fill="#e15759"/>
<text x="408.0" y="367" font-size="11" fill="#333">received audio</text>
<polyline points="70.0,313.8 90.8,316.9 111.5,315.6 132.3,316.4 153.1,312.7 173.8,320.5 194.6,306.6 215.4,315.1 236.2,317.8 256.9,309.6 277.7,317.4 298.5,319.3 319.2,310.8 340.0,317.9 360.8,313.7 381.5,311.5 402.3,313.9 423.1,315.8 443.8,312.3 464.6,317.7 485.4,316.9 506.2,318.4 526.9,315.2 547.7,317.0 568.5,319.2 589.2,315.3 610.0,319.4 630.8,319.4 651.5,318.9 672.3,310.1 693.1,311.8 713.8,319.8 734.6,318.0 755.4,315.2 776.2,314.7 796.9,320.7 817.7,320.6 838.5,316.9 859.2,316.3 880.0,321.2" fill="none" stroke="#b279a2" stroke-width="2"/>
<circle cx="70.0" cy="313.8" r="3" fill="#b279a2"/>
<circle cx="90.8" cy="316.9" r="3" fill="#b279a2"/>
<circle cx="111.5" cy="315.6" r="3" fill="#b279a2"/>
<circle cx="132.3" cy="316.4" r="3" fill="#b279a2"/>
<circle cx="153.1" cy="312.7" r="3" fill="#b279a2"/>
<circle cx="173.8" cy="320.5" r="3" fill="#b279a2"/>
<circle cx="194.6" cy="306.6" r="3" fill="#b279a2"/>
<circle cx="215.4" cy="315.1" r="3" fill="#b279a2"/>
<circle cx="236.2" cy="317.8" r="3" fill="#b279a2"/>
<circle cx="256.9" cy="309.6" r="3" fill="#b279a2"/>
<circle cx="277.7" cy="317.4" r="3" fill="#b279a2"/>
<circle cx="298.5" cy="319.3" r="3" fill="#b279a2"/>
<circle cx="319.2" cy="310.8" r="3" fill="#b279a2"/>
<circle cx="340.0" cy="317.9" r="3" fill="#b279a2"/>
<circle cx="360.8" cy="313.7" r="3" fill="#b279a2"/>
<circle cx="381.5" cy="311.5" r="3" fill="#b279a2"/>
<circle cx="402.3" cy="313.9" r="3" fill="#b279a2"/>
<circle cx="423.1" cy="315.8" r="3" fill="#b279a2"/>
<circle cx="443.8" cy="312.3" r="3" fill="#b279a2"/>
<circle cx="464.6" cy="317.7" r="3" fill="#b279a2"/>
<circle cx="485.4" cy="316.9" r="3" fill="#b279a2"/>
<circle cx="506.2" cy="318.4" r="3" fill="#b279a2"/>
<circle cx="526.9" cy="315.2" r="3" fill="#b279a2"/>
<circle cx="547.7" cy="317.0" r="3" fill="#b279a2"/>
<circle cx="568.5" cy="319.2" r="3" fill="#b279a2"/>
<circle cx="589.2" cy="315.3" r="3" fill="#b279a2"/>
<circle cx="610.0" cy="319.4" r="3" fill="#b279a2"/>
<circle cx="630.8" cy="319.4" r="3" fill="#b279a2"/>
<circle cx="651.5" cy="318.9" r="3" fill="#b279a2"/>
<circle cx="672.3" cy="310.1" r="3" fill="#b279a2"/>
<circle cx="693.1" cy="311.8" r="3" fill="#b279a2"/>
<circle cx="713.8" cy="319.8" r="3" fill="#b279a2"/>
<circle cx="734.6" cy="318.0" r="3" fill="#b279a2"/>
<circle cx="755.4" cy="315.2" r="3" fill="#b279a2"/>
<circle cx="776.2" cy="314.7" r="3" fill="#b279a2"/>
<circle cx="796.9" cy="320.7" r="3" fill="#b279a2"/>
<circle cx="817.7" cy="320.6" r="3" fill="#b279a2"/>
<circle cx="838.5" cy="316.9" r="3" fill="#b279a2"/>
<circle cx="859.2" cy="316.3" r="3" fill="#b279a2"/>
<circle cx="880.0" cy="321.2" r="3" fill="#b279a2"/>
<rect x="556.0" y="358" width="10" height="10" fill="#b279a2"/>
<text x="570.0" y="367" font-size="11" fill="#333">received mouth</text>
<rect x="718.0" y="358" width="10" height="10" fill="#ff7f0e"/>
<text x="732.0" y="367" font-size="11" fill="#333">server A/V offset</text>
</svg>
