<svg xmlns="http://www.w3.org/2000/svg" width="900" height="380" viewBox="0 0 900 380" font-family="sans-serif">
<rect width="900" height="380" fill="white"/>
<text x="70" y="24" font-size="16" fill="#333">Browser-observed WebRTC latency (ms, p50) — lower is better</text>
<line x1="70" y1="324.0" x2="880" y2="324.0" stroke="#e5e5e5"/>
<text x="64" y="328.0" font-size="11" fill="#666" text-anchor="end">0ms</text>
<line x1="70" y1="268.0" x2="880" y2="268.0" stroke="#e5e5e5"/>
<text x="64" y="272.0" font-size="11" fill="#666" text-anchor="end">2047ms</text>
<line x1="70" y1="212.0" x2="880" y2="212.0" stroke="#e5e5e5"/>
<text x="64" y="216.0" font-size="11" fill="#666" text-anchor="end">4095ms</text>
<line x1="70" y1="156.0" x2="880" y2="156.0" stroke="#e5e5e5"/>
<text x="64" y="160.0" font-size="11" fill="#666" text-anchor="end">6142ms</text>
<line x1="70" y1="100.0" x2="880" y2="100.0" stroke="#e5e5e5"/>
<text x="64" y="104.0" font-size="11" fill="#666" text-anchor="end">8190ms</text>
<line x1="70" y1="44.0" x2="880" y2="44.0" stroke="#e5e5e5"/>
<text x="64" y="48.0" font-size="11" fill="#666" text-anchor="end">10237ms</text>
<text x="70.0" y="342" font-size="11" fill="#666" text-anchor="start">07-16 22:20</text>
<text x="494.3" y="342" font-size="11" fill="#666" text-anchor="middle">07-17 16:39</text>
<text x="880.0" y="342" font-size="11" fill="#666" text-anchor="end">07-17 20:04</text>
<polyline points="70.0,281.9 108.6,277.8 147.1,281.6 185.7,280.8 224.3,277.4 262.9,283.7 301.4,280.4 340.0,278.6 378.6,282.7 417.1,282.6 455.7,285.1 494.3,282.6 532.9,279.5 571.4,292.3 610.0,295.7 648.6,292.4 687.1,293.8 725.7,295.8 764.3,290.4 802.9,301.4 841.4,303.5 880.0,299.9" fill="none" stroke="#4c78a8" stroke-width="2"/>
<circle cx="70.0" cy="281.9" r="3" fill="#4c78a8"/>
<circle cx="108.6" cy="277.8" r="3" fill="#4c78a8"/>
<circle cx="147.1" cy="281.6" r="3" fill="#4c78a8"/>
<circle cx="185.7" cy="280.8" r="3" fill="#4c78a8"/>
<circle cx="224.3" cy="277.4" r="3" fill="#4c78a8"/>
<circle cx="262.9" cy="283.7" r="3" fill="#4c78a8"/>
<circle cx="301.4" cy="280.4" r="3" fill="#4c78a8"/>
<circle cx="340.0" cy="278.6" r="3" fill="#4c78a8"/>
<circle cx="378.6" cy="282.7" r="3" fill="#4c78a8"/>
<circle cx="417.1" cy="282.6" r="3" fill="#4c78a8"/>
<circle cx="455.7" cy="285.1" r="3" fill="#4c78a8"/>
<circle cx="494.3" cy="282.6" r="3" fill="#4c78a8"/>
<circle cx="532.9" cy="279.5" r="3" fill="#4c78a8"/>
<circle cx="571.4" cy="292.3" r="3" fill="#4c78a8"/>
<circle cx="610.0" cy="295.7" r="3" fill="#4c78a8"/>
<circle cx="648.6" cy="292.4" r="3" fill="#4c78a8"/>
<circle cx="687.1" cy="293.8" r="3" fill="#4c78a8"/>
<circle cx="725.7" cy="295.8" r="3" fill="#4c78a8"/>
<circle cx="764.3" cy="290.4" r="3" fill="#4c78a8"/>
<circle cx="802.9" cy="301.4" r="3" fill="#4c78a8"/>
<circle cx="841.4" cy="303.5" r="3" fill="#4c78a8"/>
<circle cx="880.0" cy="299.9" r="3" fill="#4c78a8"/>
<rect x="70.0" y="358" width="10" height="10" fill="#4c78a8"/>
<text x="84.0" y="367" font-size="11" fill="#333">STT final</text>
<polyline points="70.0,274.2 108.6,265.5 147.1,270.9 185.7,270.9 224.3,264.9 262.9,266.7 301.4,268.5 340.0,258.9 378.6,270.2 417.1,265.3 455.7,266.8 494.3,270.8 532.9,266.6 571.4,282.9 610.0,283.6 648.6,271.5 687.1,278.5 725.7,282.7 764.3,279.1 802.9,291.3 841.4,291.0 880.0,293.4" fill="none" stroke="#59a14f" stroke-width="2"/>
<circle cx="70.0" cy="274.2" r="3" fill="#59a14f"/>
<circle cx="108.6" cy="265.5" r="3" fill="#59a14f"/>
<circle cx="147.1" cy="270.9" r="3" fill="#59a14f"/>
<circle cx="185.7" cy="270.9" r="3" fill="#59a14f"/>
<circle cx="224.3" cy="264.9" r="3" fill="#59a14f"/>
<circle cx="262.9" cy="266.7" r="3" fill="#59a14f"/>
<circle cx="301.4" cy="268.5" r="3" fill="#59a14f"/>
<circle cx="340.0" cy="258.9" r="3" fill="#59a14f"/>
<circle cx="378.6" cy="270.2" r="3" fill="#59a14f"/>
<circle cx="417.1" cy="265.3" r="3" fill="#59a14f"/>
<circle cx="455.7" cy="266.8" r="3" fill="#59a14f"/>
<circle cx="494.3" cy="270.8" r="3" fill="#59a14f"/>
<circle cx="532.9" cy="266.6" r="3" fill="#59a14f"/>
<circle cx="571.4" cy="282.9" r="3" fill="#59a14f"/>
<circle cx="610.0" cy="283.6" r="3" fill="#59a14f"/>
<circle cx="648.6" cy="271.5" r="3" fill="#59a14f"/>
<circle cx="687.1" cy="278.5" r="3" fill="#59a14f"/>
<circle cx="725.7" cy="282.7" r="3" fill="#59a14f"/>
<circle cx="764.3" cy="279.1" r="3" fill="#59a14f"/>
<circle cx="802.9" cy="291.3" r="3" fill="#59a14f"/>
<circle cx="841.4" cy="291.0" r="3" fill="#59a14f"/>
<circle cx="880.0" cy="293.4" r="3" fill="#59a14f"/>
<rect x="232.0" y="358" width="10" height="10" fill="#59a14f"/>
<text x="246.0" y="367" font-size="11" fill="#333">LLM first token</text>
<polyline points="70.0,64.7 108.6,141.3 147.1,181.5 185.7,199.6 224.3,225.3 262.9,252.6 301.4,199.5 340.0,174.4 378.6,203.4 417.1,216.5 455.7,175.0 494.3,245.0 532.9,190.3 571.4,264.1 610.0,262.5 648.6,239.0 687.1,262.5 725.7,266.3 764.3,260.3 802.9,276.7 841.4,278.9 880.0,282.2" fill="none" stroke="#e15759" stroke-width="2"/>
<circle cx="70.0" cy="64.7" r="3" fill="#e15759"/>
<circle cx="108.6" cy="141.3" r="3" fill="#e15759"/>
<circle cx="147.1" cy="181.5" r="3" fill="#e15759"/>
<circle cx="185.7" cy="199.6" r="3" fill="#e15759"/>
<circle cx="224.3" cy="225.3" r="3" fill="#e15759"/>
<circle cx="262.9" cy="252.6" r="3" fill="#e15759"/>
<circle cx="301.4" cy="199.5" r="3" fill="#e15759"/>
<circle cx="340.0" cy="174.4" r="3" fill="#e15759"/>
<circle cx="378.6" cy="203.4" r="3" fill="#e15759"/>
<circle cx="417.1" cy="216.5" r="3" fill="#e15759"/>
<circle cx="455.7" cy="175.0" r="3" fill="#e15759"/>
<circle cx="494.3" cy="245.0" r="3" fill="#e15759"/>
<circle cx="532.9" cy="190.3" r="3" fill="#e15759"/>
<circle cx="571.4" cy="264.1" r="3" fill="#e15759"/>
<circle cx="610.0" cy="262.5" r="3" fill="#e15759"/>
<circle cx="648.6" cy="239.0" r="3" fill="#e15759"/>
<circle cx="687.1" cy="262.5" r="3" fill="#e15759"/>
<circle cx="725.7" cy="266.3" r="3" fill="#e15759"/>
<circle cx="764.3" cy="260.3" r="3" fill="#e15759"/>
<circle cx="802.9" cy="276.7" r="3" fill="#e15759"/>
<circle cx="841.4" cy="278.9" r="3" fill="#e15759"/>
<circle cx="880.0" cy="282.2" r="3" fill="#e15759"/>
<rect x="394.0" y="358" width="10" height="10" fill="#e15759"/>
<text x="408.0" y="367" font-size="11" fill="#333">received audio</text>
<polyline points="70.0,312.5 108.6,316.0 147.1,314.6 185.7,315.4 224.3,311.2 262.9,320.1 301.4,304.4 340.0,313.9 378.6,317.1 417.1,307.8 455.7,316.6 494.3,318.8 532.9,309.2 571.4,317.1 610.0,312.4 648.6,309.9 687.1,312.6 725.7,314.7 764.3,310.8 802.9,316.9 841.4,316.1 880.0,317.7" fill="none" stroke="#b279a2" stroke-width="2"/>
<circle cx="70.0" cy="312.5" r="3" fill="#b279a2"/>
<circle cx="108.6" cy="316.0" r="3" fill="#b279a2"/>
<circle cx="147.1" cy="314.6" r="3" fill="#b279a2"/>
<circle cx="185.7" cy="315.4" r="3" fill="#b279a2"/>
<circle cx="224.3" cy="311.2" r="3" fill="#b279a2"/>
<circle cx="262.9" cy="320.1" r="3" fill="#b279a2"/>
<circle cx="301.4" cy="304.4" r="3" fill="#b279a2"/>
<circle cx="340.0" cy="313.9" r="3" fill="#b279a2"/>
<circle cx="378.6" cy="317.1" r="3" fill="#b279a2"/>
<circle cx="417.1" cy="307.8" r="3" fill="#b279a2"/>
<circle cx="455.7" cy="316.6" r="3" fill="#b279a2"/>
<circle cx="494.3" cy="318.8" r="3" fill="#b279a2"/>
<circle cx="532.9" cy="309.2" r="3" fill="#b279a2"/>
<circle cx="571.4" cy="317.1" r="3" fill="#b279a2"/>
<circle cx="610.0" cy="312.4" r="3" fill="#b279a2"/>
<circle cx="648.6" cy="309.9" r="3" fill="#b279a2"/>
<circle cx="687.1" cy="312.6" r="3" fill="#b279a2"/>
<circle cx="725.7" cy="314.7" r="3" fill="#b279a2"/>
<circle cx="764.3" cy="310.8" r="3" fill="#b279a2"/>
<circle cx="802.9" cy="316.9" r="3" fill="#b279a2"/>
<circle cx="841.4" cy="316.1" r="3" fill="#b279a2"/>
<circle cx="880.0" cy="317.7" r="3" fill="#b279a2"/>
<rect x="556.0" y="358" width="10" height="10" fill="#b279a2"/>
<text x="570.0" y="367" font-size="11" fill="#333">received mouth</text>
<rect x="718.0" y="358" width="10" height="10" fill="#ff7f0e"/>
<text x="732.0" y="367" font-size="11" fill="#333">server A/V offset</text>
</svg>
