<svg xmlns="http://www.w3.org/2000/svg" width="900" height="380" viewBox="0 0 900 380" font-family="sans-serif">
<rect width="900" height="380" fill="white"/>
<text x="70" y="24" font-size="16" fill="#333">Browser-observed WebRTC latency (ms, p50) — lower is better</text>
<line x1="70" y1="324.0" x2="880" y2="324.0" stroke="#e5e5e5"/>
<text x="64" y="328.0" font-size="11" fill="#666" text-anchor="end">0ms</text>
<line x1="70" y1="268.0" x2="880" y2="268.0" stroke="#e5e5e5"/>
<text x="64" y="272.0" font-size="11" fill="#666" text-anchor="end">2305ms</text>
<line x1="70" y1="212.0" x2="880" y2="212.0" stroke="#e5e5e5"/>
<text x="64" y="216.0" font-size="11" fill="#666" text-anchor="end">4609ms</text>
<line x1="70" y1="156.0" x2="880" y2="156.0" stroke="#e5e5e5"/>
<text x="64" y="160.0" font-size="11" fill="#666" text-anchor="end">6914ms</text>
<line x1="70" y1="100.0" x2="880" y2="100.0" stroke="#e5e5e5"/>
<text x="64" y="104.0" font-size="11" fill="#666" text-anchor="end">9219ms</text>
<line x1="70" y1="44.0" x2="880" y2="44.0" stroke="#e5e5e5"/>
<text x="64" y="48.0" font-size="11" fill="#666" text-anchor="end">11523ms</text>
<text x="70.0" y="342" font-size="11" fill="#666" text-anchor="start">07-16 22:20</text>
<text x="475.0" y="342" font-size="11" fill="#666" text-anchor="middle">07-17 19:03</text>
<text x="880.0" y="342" font-size="11" fill="#666" text-anchor="end">07-17 20:53</text>
<polyline points="70.0,286.6 98.9,283.0 127.9,286.3 156.8,285.6 185.7,282.6 214.6,288.2 243.6,285.3 272.5,283.7 301.4,287.3 330.4,287.2 359.3,289.4 388.2,287.2 417.1,284.5 446.1,295.8 475.0,298.9 503.9,295.9 532.9,297.1 561.8,299.0 590.7,294.2 619.6,303.9 648.6,305.8 677.5,302.6 706.4,306.9 735.4,295.9 764.3,303.4 793.2,304.4 822.1,303.2 851.1,306.1 880.0,303.7" fill="none" stroke="#4c78a8" stroke-width="2"/>
<circle cx="70.0" cy="286.6" r="3" fill="#4c78a8"/>
<circle cx="98.9" cy="283.0" r="3" fill="#4c78a8"/>
<circle cx="127.9" cy="286.3" r="3" fill="#4c78a8"/>
<circle cx="156.8" cy="285.6" r="3" fill="#4c78a8"/>
<circle cx="185.7" cy="282.6" r="3" fill="#4c78a8"/>
<circle cx="214.6" cy="288.2" r="3" fill="#4c78a8"/>
<circle cx="243.6" cy="285.3" r="3" fill="#4c78a8"/>
<circle cx="272.5" cy="283.7" r="3" fill="#4c78a8"/>
<circle cx="301.4" cy="287.3" r="3" fill="#4c78a8"/>
<circle cx="330.4" cy="287.2" r="3" fill="#4c78a8"/>
<circle cx="359.3" cy="289.4" r="3" fill="#4c78a8"/>
<circle cx="388.2" cy="287.2" r="3" fill="#4c78a8"/>
<circle cx="417.1" cy="284.5" r="3" fill="#4c78a8"/>
<circle cx="446.1" cy="295.8" r="3" fill="#4c78a8"/>
<circle cx="475.0" cy="298.9" r="3" fill="#4c78a8"/>
<circle cx="503.9" cy="295.9" r="3" fill="#4c78a8"/>
<circle cx="532.9" cy="297.1" r="3" fill="#4c78a8"/>
<circle cx="561.8" cy="299.0" r="3" fill="#4c78a8"/>
<circle cx="590.7" cy="294.2" r="3" fill="#4c78a8"/>
<circle cx="619.6" cy="303.9" r="3" fill="#4c78a8"/>
<circle cx="648.6" cy="305.8" r="3" fill="#4c78a8"/>
<circle cx="677.5" cy="302.6" r="3" fill="#4c78a8"/>
<circle cx="706.4" cy="306.9" r="3" fill="#4c78a8"/>
<circle cx="735.4" cy="295.9" r="3" fill="#4c78a8"/>
<circle cx="764.3" cy="303.4" r="3" fill="#4c78a8"/>
<circle cx="793.2" cy="304.4" r="3" fill="#4c78a8"/>
<circle cx="822.1" cy="303.2" r="3" fill="#4c78a8"/>
<circle cx="851.1" cy="306.1" r="3" fill="#4c78a8"/>
<circle cx="880.0" cy="303.7" r="3" fill="#4c78a8"/>
<rect x="70.0" y="358" width="10" height="10" fill="#4c78a8"/>
<text x="84.0" y="367" font-size="11" fill="#333">STT final</text>
<polyline points="70.0,279.7 98.9,272.0 127.9,276.8 156.8,276.8 185.7,271.5 214.6,273.1 243.6,274.7 272.5,266.2 301.4,276.2 330.4,271.8 359.3,273.2 388.2,276.7 417.1,273.0 446.1,287.5 475.0,288.1 503.9,277.4 532.9,283.6 561.8,287.3 590.7,284.1 619.6,295.0 648.6,294.7 677.5,296.8 706.4,290.6 735.4,235.7 764.3,287.8 793.2,295.2 822.1,291.0 851.1,295.8 880.0,293.3" fill="none" stroke="#59a14f" stroke-width="2"/>
<circle cx="70.0" cy="279.7" r="3" fill="#59a14f"/>
<circle cx="98.9" cy="272.0" r="3" fill="#59a14f"/>
<circle cx="127.9" cy="276.8" r="3" fill="#59a14f"/>
<circle cx="156.8" cy="276.8" r="3" fill="#59a14f"/>
<circle cx="185.7" cy="271.5" r="3" fill="#59a14f"/>
<circle cx="214.6" cy="273.1" r="3" fill="#59a14f"/>
<circle cx="243.6" cy="274.7" r="3" fill="#59a14f"/>
<circle cx="272.5" cy="266.2" r="3" fill="#59a14f"/>
<circle cx="301.4" cy="276.2" r="3" fill="#59a14f"/>
<circle cx="330.4" cy="271.8" r="3" fill="#59a14f"/>
<circle cx="359.3" cy="273.2" r="3" fill="#59a14f"/>
<circle cx="388.2" cy="276.7" r="3" fill="#59a14f"/>
<circle cx="417.1" cy="273.0" r="3" fill="#59a14f"/>
<circle cx="446.1" cy="287.5" r="3" fill="#59a14f"/>
<circle cx="475.0" cy="288.1" r="3" fill="#59a14f"/>
<circle cx="503.9" cy="277.4" r="3" fill="#59a14f"/>
<circle cx="532.9" cy="283.6" r="3" fill="#59a14f"/>
<circle cx="561.8" cy="287.3" r="3" fill="#59a14f"/>
<circle cx="590.7" cy="284.1" r="3" fill="#59a14f"/>
<circle cx="619.6" cy="295.0" r="3" fill="#59a14f"/>
<circle cx="648.6" cy="294.7" r="3" fill="#59a14f"/>
<circle cx="677.5" cy="296.8" r="3" fill="#59a14f"/>
<circle cx="706.4" cy="290.6" r="3" fill="#59a14f"/>
<circle cx="735.4" cy="235.7" r="3" fill="#59a14f"/>
<circle cx="764.3" cy="287.8" r="3" fill="#59a14f"/>
<circle cx="793.2" cy="295.2" r="3" fill="#59a14f"/>
<circle cx="822.1" cy="291.0" r="3" fill="#59a14f"/>
<circle cx="851.1" cy="295.8" r="3" fill="#59a14f"/>
<circle cx="880.0" cy="293.3" r="3" fill="#59a14f"/>
<rect x="232.0" y="358" width="10" height="10" fill="#59a14f"/>
<text x="246.0" y="367" font-size="11" fill="#333">LLM first token</text>
<polyline points="70.0,93.7 98.9,161.7 127.9,197.4 156.8,213.5 185.7,236.3 214.6,260.6 243.6,213.4 272.5,191.1 301.4,216.8 330.4,228.5 359.3,191.6 388.2,253.8 417.1,205.2 446.1,270.8 475.0,269.3 503.9,248.4 532.9,269.3 561.8,272.7 590.7,267.4 619.6,282.0 648.6,283.9 677.5,286.8 706.4,272.5 735.4,64.7 764.3,268.8 793.2,275.7 822.1,278.6 851.1,281.5 880.0,283.9" fill="none" stroke="#e15759" stroke-width="2"/>
<circle cx="70.0" cy="93.7" r="3" fill="#e15759"/>
<circle cx="98.9" cy="161.7" r="3" fill="#e15759"/>
<circle cx="127.9" cy="197.4" r="3" fill="#e15759"/>
<circle cx="156.8" cy="213.5" r="3" fill="#e15759"/>
<circle cx="185.7" cy="236.3" r="3" fill="#e15759"/>
<circle cx="214.6" cy="260.6" r="3" fill="#e15759"/>
<circle cx="243.6" cy="213.4" r="3" fill="#e15759"/>
<circle cx="272.5" cy="191.1" r="3" fill="#e15759"/>
<circle cx="301.4" cy="216.8" r="3" fill="#e15759"/>
<circle cx="330.4" cy="228.5" r="3" fill="#e15759"/>
<circle cx="359.3" cy="191.6" r="3" fill="#e15759"/>
<circle cx="388.2" cy="253.8" r="3" fill="#e15759"/>
<circle cx="417.1" cy="205.2" r="3" fill="#e15759"/>
<circle cx="446.1" cy="270.8" r="3" fill="#e15759"/>
<circle cx="475.0" cy="269.3" r="3" fill="#e15759"/>
<circle cx="503.9" cy="248.4" r="3" fill="#e15759"/>
<circle cx="532.9" cy="269.3" r="3" fill="#e15759"/>
<circle cx="561.8" cy="272.7" r="3" fill="#e15759"/>
<circle cx="590.7" cy="267.4" r="3" fill="#e15759"/>
<circle cx="619.6" cy="282.0" r="3" fill="#e15759"/>
<circle cx="648.6" cy="283.9" r="3" fill="#e15759"/>
<circle cx="677.5" cy="286.8" r="3" fill="#e15759"/>
<circle cx="706.4" cy="272.5" r="3" fill="#e15759"/>
<circle cx="735.4" cy="64.7" r="3" fill="#e15759"/>
<circle cx="764.3" cy="268.8" r="3" fill="#e15759"/>
<circle cx="793.2" cy="275.7" r="3" fill="#e15759"/>
<circle cx="822.1" cy="278.6" r="3" fill="#e15759"/>
<circle cx="851.1" cy="281.5" r="3" fill="#e15759"/>
<circle cx="880.0" cy="283.9" r="3" fill="#e15759"/>
<rect x="394.0" y="358" width="10" height="10" fill="#e15759"/>
<text x="408.0" y="367" font-size="11" fill="#333">received audio</text>
<polyline points="70.0,313.8 98.9,316.9 127.9,315.6 156.8,316.4 185.7,312.7 214.6,320.5 243.6,306.6 272.5,315.1 301.4,317.8 330.4,309.6 359.3,317.4 388.2,319.3 417.1,310.8 446.1,317.9 475.0,313.7 503.9,311.5 532.9,313.9 561.8,315.8 590.7,312.3 619.6,317.7 648.6,316.9 677.5,318.4 706.4,315.2 735.4,317.0 764.3,319.2 793.2,315.3 822.1,319.4 851.1,319.4 880.0,318.9" fill="none" stroke="#b279a2" stroke-width="2"/>
<circle cx="70.0" cy="313.8" r="3" fill="#b279a2"/>
<circle cx="98.9" cy="316.9" r="3" fill="#b279a2"/>
<circle cx="127.9" cy="315.6" r="3" fill="#b279a2"/>
<circle cx="156.8" cy="316.4" r="3" fill="#b279a2"/>
<circle cx="185.7" cy="312.7" r="3" fill="#b279a2"/>
<circle cx="214.6" cy="320.5" r="3" fill="#b279a2"/>
<circle cx="243.6" cy="306.6" r="3" fill="#b279a2"/>
<circle cx="272.5" cy="315.1" r="3" fill="#b279a2"/>
<circle cx="301.4" cy="317.8" r="3" fill="#b279a2"/>
<circle cx="330.4" cy="309.6" r="3" fill="#b279a2"/>
<circle cx="359.3" cy="317.4" r="3" fill="#b279a2"/>
<circle cx="388.2" cy="319.3" r="3" fill="#b279a2"/>
<circle cx="417.1" cy="310.8" r="3" fill="#b279a2"/>
<circle cx="446.1" cy="317.9" r="3" fill="#b279a2"/>
<circle cx="475.0" cy="313.7" r="3" fill="#b279a2"/>
<circle cx="503.9" cy="311.5" r="3" fill="#b279a2"/>
<circle cx="532.9" cy="313.9" r="3" fill="#b279a2"/>
<circle cx="561.8" cy="315.8" r="3" fill="#b279a2"/>
<circle cx="590.7" cy="312.3" r="3" fill="#b279a2"/>
<circle cx="619.6" cy="317.7" r="3" fill="#b279a2"/>
<circle cx="648.6" cy="316.9" r="3" fill="#b279a2"/>
<circle cx="677.5" cy="318.4" r="3" fill="#b279a2"/>
<circle cx="706.4" cy="315.2" r="3" fill="#b279a2"/>
<circle cx="735.4" cy="317.0" r="3" fill="#b279a2"/>
<circle cx="764.3" cy="319.2" r="3" fill="#b279a2"/>
<circle cx="793.2" cy="315.3" r="3" fill="#b279a2"/>
<circle cx="822.1" cy="319.4" r="3" fill="#b279a2"/>
<circle cx="851.1" cy="319.4" r="3" fill="#b279a2"/>
<circle cx="880.0" cy="318.9" r="3" fill="#b279a2"/>
<rect x="556.0" y="358" width="10" height="10" fill="#b279a2"/>
<text x="570.0" y="367" font-size="11" fill="#333">received mouth</text>
<rect x="718.0" y="358" width="10" height="10" fill="#ff7f0e"/>
<text x="732.0" y="367" font-size="11" fill="#333">server A/V offset</text>
</svg>
