<svg xmlns="http://www.w3.org/2000/svg" width="900" height="380" viewBox="0 0 900 380" font-family="sans-serif">
<rect width="900" height="380" fill="white"/>
<text x="70" y="24" font-size="16" fill="#333">Browser-observed WebRTC latency (ms, p50) — lower is better</text>
<line x1="70" y1="324.0" x2="880" y2="324.0" stroke="#e5e5e5"/>
<text x="64" y="328.0" font-size="11" fill="#666" text-anchor="end">0ms</text>
<line x1="70" y1="268.0" x2="880" y2="268.0" stroke="#e5e5e5"/>
<text x="64" y="272.0" font-size="11" fill="#666" text-anchor="end">2305ms</text>
<line x1="70" y1="212.0" x2="880" y2="212.0" stroke="#e5e5e5"/>
<text x="64" y="216.0" font-size="11" fill="#666" text-anchor="end">4609ms</text>
<line x1="70" y1="156.0" x2="880" y2="156.0" stroke="#e5e5e5"/>
<text x="64" y="160.0" font-size="11" fill="#666" text-anchor="end">6914ms</text>
<line x1="70" y1="100.0" x2="880" y2="100.0" stroke="#e5e5e5"/>
<text x="64" y="104.0" font-size="11" fill="#666" text-anchor="end">9219ms</text>
<line x1="70" y1="44.0" x2="880" y2="44.0" stroke="#e5e5e5"/>
<text x="64" y="48.0" font-size="11" fill="#666" text-anchor="end">11523ms</text>
<text x="70.0" y="342" font-size="11" fill="#666" text-anchor="start">07-16 22:20</text>
<text x="475.0" y="342" font-size="11" fill="#666" text-anchor="middle">07-17 19:17</text>
<text x="880.0" y="342" font-size="11" fill="#666" text-anchor="end">07-17 21:59</text>
<polyline points="70.0,286.6 97.0,283.0 124.0,286.3 151.0,285.6 178.0,282.6 205.0,288.2 232.0,285.3 259.0,283.7 286.0,287.3 313.0,287.2 340.0,289.4 367.0,287.2 394.0,284.5 421.0,295.8 448.0,298.9 475.0,295.9 502.0,297.1 529.0,299.0 556.0,294.2 583.0,303.9 610.0,305.8 637.0,302.6 664.0,306.9 691.0,295.9 718.0,303.4 745.0,304.4 772.0,303.2 799.0,306.1 826.0,303.7 853.0,305.2 880.0,302.0" fill="none" stroke="#4c78a8" stroke-width="2"/>
<circle cx="70.0" cy="286.6" r="3" fill="#4c78a8"/>
<circle cx="97.0" cy="283.0" r="3" fill="#4c78a8"/>
<circle cx="124.0" cy="286.3" r="3" fill="#4c78a8"/>
<circle cx="151.0" cy="285.6" r="3" fill="#4c78a8"/>
<circle cx="178.0" cy="282.6" r="3" fill="#4c78a8"/>
<circle cx="205.0" cy="288.2" r="3" fill="#4c78a8"/>
<circle cx="232.0" cy="285.3" r="3" fill="#4c78a8"/>
<circle cx="259.0" cy="283.7" r="3" fill="#4c78a8"/>
<circle cx="286.0" cy="287.3" r="3" fill="#4c78a8"/>
<circle cx="313.0" cy="287.2" r="3" fill="#4c78a8"/>
<circle cx="340.0" cy="289.4" r="3" fill="#4c78a8"/>
<circle cx="367.0" cy="287.2" r="3" fill="#4c78a8"/>
<circle cx="394.0" cy="284.5" r="3" fill="#4c78a8"/>
<circle cx="421.0" cy="295.8" r="3" fill="#4c78a8"/>
<circle cx="448.0" cy="298.9" r="3" fill="#4c78a8"/>
<circle cx="475.0" cy="295.9" r="3" fill="#4c78a8"/>
<circle cx="502.0" cy="297.1" r="3" fill="#4c78a8"/>
<circle cx="529.0" cy="299.0" r="3" fill="#4c78a8"/>
<circle cx="556.0" cy="294.2" r="3" fill="#4c78a8"/>
<circle cx="583.0" cy="303.9" r="3" fill="#4c78a8"/>
<circle cx="610.0" cy="305.8" r="3" fill="#4c78a8"/>
<circle cx="637.0" cy="302.6" r="3" fill="#4c78a8"/>
<circle cx="664.0" cy="306.9" r="3" fill="#4c78a8"/>
<circle cx="691.0" cy="295.9" r="3" fill="#4c78a8"/>
<circle cx="718.0" cy="303.4" r="3" fill="#4c78a8"/>
<circle cx="745.0" cy="304.4" r="3" fill="#4c78a8"/>
<circle cx="772.0" cy="303.2" r="3" fill="#4c78a8"/>
<circle cx="799.0" cy="306.1" r="3" fill="#4c78a8"/>
<circle cx="826.0" cy="303.7" r="3" fill="#4c78a8"/>
<circle cx="853.0" cy="305.2" r="3" fill="#4c78a8"/>
<circle cx="880.0" cy="302.0" r="3" fill="#4c78a8"/>
<rect x="70.0" y="358" width="10" height="10" fill="#4c78a8"/>
<text x="84.0" y="367" font-size="11" fill="#333">STT final</text>
<polyline points="70.0,279.7 97.0,272.0 124.0,276.8 151.0,276.8 178.0,271.5 205.0,273.1 232.0,274.7 259.0,266.2 286.0,276.2 313.0,271.8 340.0,273.2 367.0,276.7 394.0,273.0 421.0,287.5 448.0,288.1 475.0,277.4 502.0,283.6 529.0,287.3 556.0,284.1 583.0,295.0 610.0,294.7 637.0,296.8 664.0,290.6 691.0,235.7 718.0,287.8 745.0,295.2 772.0,291.0 799.0,295.8 826.0,293.3 853.0,288.3 880.0,280.2" fill="none" stroke="#59a14f" stroke-width="2"/>
<circle cx="70.0" cy="279.7" r="3" fill="#59a14f"/>
<circle cx="97.0" cy="272.0" r="3" fill="#59a14f"/>
<circle cx="124.0" cy="276.8" r="3" fill="#59a14f"/>
<circle cx="151.0" cy="276.8" r="3" fill="#59a14f"/>
<circle cx="178.0" cy="271.5" r="3" fill="#59a14f"/>
<circle cx="205.0" cy="273.1" r="3" fill="#59a14f"/>
<circle cx="232.0" cy="274.7" r="3" fill="#59a14f"/>
<circle cx="259.0" cy="266.2" r="3" fill="#59a14f"/>
<circle cx="286.0" cy="276.2" r="3" fill="#59a14f"/>
<circle cx="313.0" cy="271.8" r="3" fill="#59a14f"/>
<circle cx="340.0" cy="273.2" r="3" fill="#59a14f"/>
<circle cx="367.0" cy="276.7" r="3" fill="#59a14f"/>
<circle cx="394.0" cy="273.0" r="3" fill="#59a14f"/>
<circle cx="421.0" cy="287.5" r="3" fill="#59a14f"/>
<circle cx="448.0" cy="288.1" r="3" fill="#59a14f"/>
<circle cx="475.0" cy="277.4" r="3" fill="#59a14f"/>
<circle cx="502.0" cy="283.6" r="3" fill="#59a14f"/>
<circle cx="529.0" cy="287.3" r="3" fill="#59a14f"/>
<circle cx="556.0" cy="284.1" r="3" fill="#59a14f"/>
<circle cx="583.0" cy="295.0" r="3" fill="#59a14f"/>
<circle cx="610.0" cy="294.7" r="3" fill="#59a14f"/>
<circle cx="637.0" cy="296.8" r="3" fill="#59a14f"/>
<circle cx="664.0" cy="290.6" r="3" fill="#59a14f"/>
<circle cx="691.0" cy="235.7" r="3" fill="#59a14f"/>
<circle cx="718.0" cy="287.8" r="3" fill="#59a14f"/>
<circle cx="745.0" cy="295.2" r="3" fill="#59a14f"/>
<circle cx="772.0" cy="291.0" r="3" fill="#59a14f"/>
<circle cx="799.0" cy="295.8" r="3" fill="#59a14f"/>
<circle cx="826.0" cy="293.3" r="3" fill="#59a14f"/>
<circle cx="853.0" cy="288.3" r="3" fill="#59a14f"/>
<circle cx="880.0" cy="280.2" r="3" fill="#59a14f"/>
<rect x="232.0" y="358" width="10" height="10" fill="#59a14f"/>
<text x="246.0" y="367" font-size="11" fill="#333">LLM first token</text>
<polyline points="70.0,93.7 97.0,161.7 124.0,197.4 151.0,213.5 178.0,236.3 205.0,260.6 232.0,213.4 259.0,191.1 286.0,216.8 313.0,228.5 340.0,191.6 367.0,253.8 394.0,205.2 421.0,270.8 448.0,269.3 475.0,248.4 502.0,269.3 529.0,272.7 556.0,267.4 583.0,282.0 610.0,283.9 637.0,286.8 664.0,272.5 691.0,64.7 718.0,268.8 745.0,275.7 772.0,278.6 799.0,281.5 826.0,283.9 853.0,275.7 880.0,264.5" fill="none" stroke="#e15759" stroke-width="2"/>
<circle cx="70.0" cy="93.7" r="3" fill="#e15759"/>
<circle cx="97.0" cy="161.7" r="3" fill="#e15759"/>
<circle cx="124.0" cy="197.4" r="3" fill="#e15759"/>
<circle cx="151.0" cy="213.5" r="3" fill="#e15759"/>
<circle cx="178.0" cy="236.3" r="3" fill="#e15759"/>
<circle cx="205.0" cy="260.6" r="3" fill="#e15759"/>
<circle cx="232.0" cy="213.4" r="3" fill="#e15759"/>
<circle cx="259.0" cy="191.1" r="3" fill="#e15759"/>
<circle cx="286.0" cy="216.8" r="3" fill="#e15759"/>
<circle cx="313.0" cy="228.5" r="3" fill="#e15759"/>
<circle cx="340.0" cy="191.6" r="3" fill="#e15759"/>
<circle cx="367.0" cy="253.8" r="3" fill="#e15759"/>
<circle cx="394.0" cy="205.2" r="3" fill="#e15759"/>
<circle cx="421.0" cy="270.8" r="3" fill="#e15759"/>
<circle cx="448.0" cy="269.3" r="3" fill="#e15759"/>
<circle cx="475.0" cy="248.4" r="3" fill="#e15759"/>
<circle cx="502.0" cy="269.3" r="3" fill="#e15759"/>
<circle cx="529.0" cy="272.7" r="3" fill="#e15759"/>
<circle cx="556.0" cy="267.4" r="3" fill="#e15759"/>
<circle cx="583.0" cy="282.0" r="3" fill="#e15759"/>
<circle cx="610.0" cy="283.9" r="3" fill="#e15759"/>
<circle cx="637.0" cy="286.8" r="3" fill="#e15759"/>
<circle cx="664.0" cy="272.5" r="3" fill="#e15759"/>
<circle cx="691.0" cy="64.7" r="3" fill="#e15759"/>
<circle cx="718.0" cy="268.8" r="3" fill="#e15759"/>
<circle cx="745.0" cy="275.7" r="3" fill="#e15759"/>
<circle cx="772.0" cy="278.6" r="3" fill="#e15759"/>
<circle cx="799.0" cy="281.5" r="3" fill="#e15759"/>
<circle cx="826.0" cy="283.9" r="3" fill="#e15759"/>
<circle cx="853.0" cy="275.7" r="3" fill="#e15759"/>
<circle cx="880.0" cy="264.5" r="3" fill="#e15759"/>
<rect x="394.0" y="358" width="10" height="10" fill="#e15759"/>
<text x="408.0" y="367" font-size="11" fill="#333">received audio</text>
<polyline points="70.0,313.8 97.0,316.9 124.0,315.6 151.0,316.4 178.0,312.7 205.0,320.5 232.0,306.6 259.0,315.1 286.0,317.8 313.0,309.6 340.0,317.4 367.0,319.3 394.0,310.8 421.0,317.9 448.0,313.7 475.0,311.5 502.0,313.9 529.0,315.8 556.0,312.3 583.0,317.7 610.0,316.9 637.0,318.4 664.0,315.2 691.0,317.0 718.0,319.2 745.0,315.3 772.0,319.4 799.0,319.4 826.0,318.9 853.0,310.1 880.0,311.8" fill="none" stroke="#b279a2" stroke-width="2"/>
<circle cx="70.0" cy="313.8" r="3" fill="#b279a2"/>
<circle cx="97.0" cy="316.9" r="3" fill="#b279a2"/>
<circle cx="124.0" cy="315.6" r="3" fill="#b279a2"/>
<circle cx="151.0" cy="316.4" r="3" fill="#b279a2"/>
<circle cx="178.0" cy="312.7" r="3" fill="#b279a2"/>
<circle cx="205.0" cy="320.5" r="3" fill="#b279a2"/>
<circle cx="232.0" cy="306.6" r="3" fill="#b279a2"/>
<circle cx="259.0" cy="315.1" r="3" fill="#b279a2"/>
<circle cx="286.0" cy="317.8" r="3" fill="#b279a2"/>
<circle cx="313.0" cy="309.6" r="3" fill="#b279a2"/>
<circle cx="340.0" cy="317.4" r="3" fill="#b279a2"/>
<circle cx="367.0" cy="319.3" r="3" fill="#b279a2"/>
<circle cx="394.0" cy="310.8" r="3" fill="#b279a2"/>
<circle cx="421.0" cy="317.9" r="3" fill="#b279a2"/>
<circle cx="448.0" cy="313.7" r="3" fill="#b279a2"/>
<circle cx="475.0" cy="311.5" r="3" fill="#b279a2"/>
<circle cx="502.0" cy="313.9" r="3" fill="#b279a2"/>
<circle cx="529.0" cy="315.8" r="3" fill="#b279a2"/>
<circle cx="556.0" cy="312.3" r="3" fill="#b279a2"/>
<circle cx="583.0" cy="317.7" r="3" fill="#b279a2"/>
<circle cx="610.0" cy="316.9" r="3" fill="#b279a2"/>
<circle cx="637.0" cy="318.4" r="3" fill="#b279a2"/>
<circle cx="664.0" cy="315.2" r="3" fill="#b279a2"/>
<circle cx="691.0" cy="317.0" r="3" fill="#b279a2"/>
<circle cx="718.0" cy="319.2" r="3" fill="#b279a2"/>
<circle cx="745.0" cy="315.3" r="3" fill="#b279a2"/>
<circle cx="772.0" cy="319.4" r="3" fill="#b279a2"/>
<circle cx="799.0" cy="319.4" r="3" fill="#b279a2"/>
<circle cx="826.0" cy="318.9" r="3" fill="#b279a2"/>
<circle cx="853.0" cy="310.1" r="3" fill="#b279a2"/>
<circle cx="880.0" cy="311.8" r="3" fill="#b279a2"/>
<rect x="556.0" y="358" width="10" height="10" fill="#b279a2"/>
<text x="570.0" y="367" font-size="11" fill="#333">received mouth</text>
<rect x="718.0" y="358" width="10" height="10" fill="#ff7f0e"/>
<text x="732.0" y="367" font-size="11" fill="#333">server A/V offset</text>
</svg>
