<svg xmlns="http://www.w3.org/2000/svg" width="900" height="380" viewBox="0 0 900 380" font-family="sans-serif">
<rect width="900" height="380" fill="white"/>
<text x="70" y="24" font-size="16" fill="#333">Browser-observed WebRTC latency (ms, p50) — lower is better</text>
<line x1="70" y1="324.0" x2="880" y2="324.0" stroke="#e5e5e5"/>
<text x="64" y="328.0" font-size="11" fill="#666" text-anchor="end">0ms</text>
<line x1="70" y1="268.0" x2="880" y2="268.0" stroke="#e5e5e5"/>
<text x="64" y="272.0" font-size="11" fill="#666" text-anchor="end">2305ms</text>
<line x1="70" y1="212.0" x2="880" y2="212.0" stroke="#e5e5e5"/>
<text x="64" y="216.0" font-size="11" fill="#666" text-anchor="end">4609ms</text>
<line x1="70" y1="156.0" x2="880" y2="156.0" stroke="#e5e5e5"/>
<text x="64" y="160.0" font-size="11" fill="#666" text-anchor="end">6914ms</text>
<line x1="70" y1="100.0" x2="880" y2="100.0" stroke="#e5e5e5"/>
<text x="64" y="104.0" font-size="11" fill="#666" text-anchor="end">9219ms</text>
<line x1="70" y1="44.0" x2="880" y2="44.0" stroke="#e5e5e5"/>
<text x="64" y="48.0" font-size="11" fill="#666" text-anchor="end">11523ms</text>
<text x="70.0" y="342" font-size="11" fill="#666" text-anchor="start">07-16 22:20</text>
<text x="475.0" y="342" font-size="11" fill="#666" text-anchor="middle">07-17 19:30</text>
<text x="880.0" y="342" font-size="11" fill="#666" text-anchor="end">07-17 22:09</text>
<polyline points="70.0,286.6 95.3,283.0 120.6,286.3 145.9,285.6 171.2,282.6 196.6,288.2 221.9,285.3 247.2,283.7 272.5,287.3 297.8,287.2 323.1,289.4 348.4,287.2 373.8,284.5 399.1,295.8 424.4,298.9 449.7,295.9 475.0,297.1 500.3,299.0 525.6,294.2 550.9,303.9 576.2,305.8 601.6,302.6 626.9,306.9 652.2,295.9 677.5,303.4 702.8,304.4 728.1,303.2 753.4,306.1 778.8,303.7 804.1,305.2 829.4,302.0 854.7,306.2 880.0,305.3" fill="none" stroke="#4c78a8" stroke-width="2"/>
<circle cx="70.0" cy="286.6" r="3" fill="#4c78a8"/>
<circle cx="95.3" cy="283.0" r="3" fill="#4c78a8"/>
<circle cx="120.6" cy="286.3" r="3" fill="#4c78a8"/>
<circle cx="145.9" cy="285.6" r="3" fill="#4c78a8"/>
<circle cx="171.2" cy="282.6" r="3" fill="#4c78a8"/>
<circle cx="196.6" cy="288.2" r="3" fill="#4c78a8"/>
<circle cx="221.9" cy="285.3" r="3" fill="#4c78a8"/>
<circle cx="247.2" cy="283.7" r="3" fill="#4c78a8"/>
<circle cx="272.5" cy="287.3" r="3" fill="#4c78a8"/>
<circle cx="297.8" cy="287.2" r="3" fill="#4c78a8"/>
<circle cx="323.1" cy="289.4" r="3" fill="#4c78a8"/>
<circle cx="348.4" cy="287.2" r="3" fill="#4c78a8"/>
<circle cx="373.8" cy="284.5" r="3" fill="#4c78a8"/>
<circle cx="399.1" cy="295.8" r="3" fill="#4c78a8"/>
<circle cx="424.4" cy="298.9" r="3" fill="#4c78a8"/>
<circle cx="449.7" cy="295.9" r="3" fill="#4c78a8"/>
<circle cx="475.0" cy="297.1" r="3" fill="#4c78a8"/>
<circle cx="500.3" cy="299.0" r="3" fill="#4c78a8"/>
<circle cx="525.6" cy="294.2" r="3" fill="#4c78a8"/>
<circle cx="550.9" cy="303.9" r="3" fill="#4c78a8"/>
<circle cx="576.2" cy="305.8" r="3" fill="#4c78a8"/>
<circle cx="601.6" cy="302.6" r="3" fill="#4c78a8"/>
<circle cx="626.9" cy="306.9" r="3" fill="#4c78a8"/>
<circle cx="652.2" cy="295.9" r="3" fill="#4c78a8"/>
<circle cx="677.5" cy="303.4" r="3" fill="#4c78a8"/>
<circle cx="702.8" cy="304.4" r="3" fill="#4c78a8"/>
<circle cx="728.1" cy="303.2" r="3" fill="#4c78a8"/>
<circle cx="753.4" cy="306.1" r="3" fill="#4c78a8"/>
<circle cx="778.8" cy="303.7" r="3" fill="#4c78a8"/>
<circle cx="804.1" cy="305.2" r="3" fill="#4c78a8"/>
<circle cx="829.4" cy="302.0" r="3" fill="#4c78a8"/>
<circle cx="854.7" cy="306.2" r="3" fill="#4c78a8"/>
<circle cx="880.0" cy="305.3" r="3" fill="#4c78a8"/>
<rect x="70.0" y="358" width="10" height="10" fill="#4c78a8"/>
<text x="84.0" y="367" font-size="11" fill="#333">STT final</text>
<polyline points="70.0,279.7 95.3,272.0 120.6,276.8 145.9,276.8 171.2,271.5 196.6,273.1 221.9,274.7 247.2,266.2 272.5,276.2 297.8,271.8 323.1,273.2 348.4,276.7 373.8,273.0 399.1,287.5 424.4,288.1 449.7,277.4 475.0,283.6 500.3,287.3 525.6,284.1 550.9,295.0 576.2,294.7 601.6,296.8 626.9,290.6 652.2,235.7 677.5,287.8 702.8,295.2 728.1,291.0 753.4,295.8 778.8,293.3 804.1,288.3 829.4,280.2 854.7,297.5 880.0,290.9" fill="none" stroke="#59a14f" stroke-width="2"/>
<circle cx="70.0" cy="279.7" r="3" fill="#59a14f"/>
<circle cx="95.3" cy="272.0" r="3" fill="#59a14f"/>
<circle cx="120.6" cy="276.8" r="3" fill="#59a14f"/>
<circle cx="145.9" cy="276.8" r="3" fill="#59a14f"/>
<circle cx="171.2" cy="271.5" r="3" fill="#59a14f"/>
<circle cx="196.6" cy="273.1" r="3" fill="#59a14f"/>
<circle cx="221.9" cy="274.7" r="3" fill="#59a14f"/>
<circle cx="247.2" cy="266.2" r="3" fill="#59a14f"/>
<circle cx="272.5" cy="276.2" r="3" fill="#59a14f"/>
<circle cx="297.8" cy="271.8" r="3" fill="#59a14f"/>
<circle cx="323.1" cy="273.2" r="3" fill="#59a14f"/>
<circle cx="348.4" cy="276.7" r="3" fill="#59a14f"/>
<circle cx="373.8" cy="273.0" r="3" fill="#59a14f"/>
<circle cx="399.1" cy="287.5" r="3" fill="#59a14f"/>
<circle cx="424.4" cy="288.1" r="3" fill="#59a14f"/>
<circle cx="449.7" cy="277.4" r="3" fill="#59a14f"/>
<circle cx="475.0" cy="283.6" r="3" fill="#59a14f"/>
<circle cx="500.3" cy="287.3" r="3" fill="#59a14f"/>
<circle cx="525.6" cy="284.1" r="3" fill="#59a14f"/>
<circle cx="550.9" cy="295.0" r="3" fill="#59a14f"/>
<circle cx="576.2" cy="294.7" r="3" fill="#59a14f"/>
<circle cx="601.6" cy="296.8" r="3" fill="#59a14f"/>
<circle cx="626.9" cy="290.6" r="3" fill="#59a14f"/>
<circle cx="652.2" cy="235.7" r="3" fill="#59a14f"/>
<circle cx="677.5" cy="287.8" r="3" fill="#59a14f"/>
<circle cx="702.8" cy="295.2" r="3" fill="#59a14f"/>
<circle cx="728.1" cy="291.0" r="3" fill="#59a14f"/>
<circle cx="753.4" cy="295.8" r="3" fill="#59a14f"/>
<circle cx="778.8" cy="293.3" r="3" fill="#59a14f"/>
<circle cx="804.1" cy="288.3" r="3" fill="#59a14f"/>
<circle cx="829.4" cy="280.2" r="3" fill="#59a14f"/>
<circle cx="854.7" cy="297.5" r="3" fill="#59a14f"/>
<circle cx="880.0" cy="290.9" r="3" fill="#59a14f"/>
<rect x="232.0" y="358" width="10" height="10" fill="#59a14f"/>
<text x="246.0" y="367" font-size="11" fill="#333">LLM first token</text>
<polyline points="70.0,93.7 95.3,161.7 120.6,197.4 145.9,213.5 171.2,236.3 196.6,260.6 221.9,213.4 247.2,191.1 272.5,216.8 297.8,228.5 323.1,191.6 348.4,253.8 373.8,205.2 399.1,270.8 424.4,269.3 449.7,248.4 475.0,269.3 500.3,272.7 525.6,267.4 550.9,282.0 576.2,283.9 601.6,286.8 626.9,272.5 652.2,64.7 677.5,268.8 702.8,275.7 728.1,278.6 753.4,281.5 778.8,283.9 804.1,275.7 829.4,264.5 854.7,286.3 880.0,278.6" fill="none" stroke="#e15759" stroke-width="2"/>
<circle cx="70.0" cy="93.7" r="3" fill="#e15759"/>
<circle cx="95.3" cy="161.7" r="3" fill="#e15759"/>
<circle cx="120.6" cy="197.4" r="3" fill="#e15759"/>
<circle cx="145.9" cy="213.5" r="3" fill="#e15759"/>
<circle cx="171.2" cy="236.3" r="3" fill="#e15759"/>
<circle cx="196.6" cy="260.6" r="3" fill="#e15759"/>
<circle cx="221.9" cy="213.4" r="3" fill="#e15759"/>
<circle cx="247.2" cy="191.1" r="3" fill="#e15759"/>
<circle cx="272.5" cy="216.8" r="3" fill="#e15759"/>
<circle cx="297.8" cy="228.5" r="3" fill="#e15759"/>
<circle cx="323.1" cy="191.6" r="3" fill="#e15759"/>
<circle cx="348.4" cy="253.8" r="3" fill="#e15759"/>
<circle cx="373.8" cy="205.2" r="3" fill="#e15759"/>
<circle cx="399.1" cy="270.8" r="3" fill="#e15759"/>
<circle cx="424.4" cy="269.3" r="3" fill="#e15759"/>
<circle cx="449.7" cy="248.4" r="3" fill="#e15759"/>
<circle cx="475.0" cy="269.3" r="3" fill="#e15759"/>
<circle cx="500.3" cy="272.7" r="3" fill="#e15759"/>
<circle cx="525.6" cy="267.4" r="3" fill="#e15759"/>
<circle cx="550.9" cy="282.0" r="3" fill="#e15759"/>
<circle cx="576.2" cy="283.9" r="3" fill="#e15759"/>
<circle cx="601.6" cy="286.8" r="3" fill="#e15759"/>
<circle cx="626.9" cy="272.5" r="3" fill="#e15759"/>
<circle cx="652.2" cy="64.7" r="3" fill="#e15759"/>
<circle cx="677.5" cy="268.8" r="3" fill="#e15759"/>
<circle cx="702.8" cy="275.7" r="3" fill="#e15759"/>
<circle cx="728.1" cy="278.6" r="3" fill="#e15759"/>
<circle cx="753.4" cy="281.5" r="3" fill="#e15759"/>
<circle cx="778.8" cy="283.9" r="3" fill="#e15759"/>
<circle cx="804.1" cy="275.7" r="3" fill="#e15759"/>
<circle cx="829.4" cy="264.5" r="3" fill="#e15759"/>
<circle cx="854.7" cy="286.3" r="3" fill="#e15759"/>
<circle cx="880.0" cy="278.6" r="3" fill="#e15759"/>
<rect x="394.0" y="358" width="10" height="10" fill="#e15759"/>
<text x="408.0" y="367" font-size="11" fill="#333">received audio</text>
<polyline points="70.0,313.8 95.3,316.9 120.6,315.6 145.9,316.4 171.2,312.7 196.6,320.5 221.9,306.6 247.2,315.1 272.5,317.8 297.8,309.6 323.1,317.4 348.4,319.3 373.8,310.8 399.1,317.9 424.4,313.7 449.7,311.5 475.0,313.9 500.3,315.8 525.6,312.3 550.9,317.7 576.2,316.9 601.6,318.4 626.9,315.2 652.2,317.0 677.5,319.2 702.8,315.3 728.1,319.4 753.4,319.4 778.8,318.9 804.1,310.1 829.4,311.8 854.7,319.8 880.0,318.0" fill="none" stroke="#b279a2" stroke-width="2"/>
<circle cx="70.0" cy="313.8" r="3" fill="#b279a2"/>
<circle cx="95.3" cy="316.9" r="3" fill="#b279a2"/>
<circle cx="120.6" cy="315.6" r="3" fill="#b279a2"/>
<circle cx="145.9" cy="316.4" r="3" fill="#b279a2"/>
<circle cx="171.2" cy="312.7" r="3" fill="#b279a2"/>
<circle cx="196.6" cy="320.5" r="3" fill="#b279a2"/>
<circle cx="221.9" cy="306.6" r="3" fill="#b279a2"/>
<circle cx="247.2" cy="315.1" r="3" fill="#b279a2"/>
<circle cx="272.5" cy="317.8" r="3" fill="#b279a2"/>
<circle cx="297.8" cy="309.6" r="3" fill="#b279a2"/>
<circle cx="323.1" cy="317.4" r="3" fill="#b279a2"/>
<circle cx="348.4" cy="319.3" r="3" fill="#b279a2"/>
<circle cx="373.8" cy="310.8" r="3" fill="#b279a2"/>
<circle cx="399.1" cy="317.9" r="3" fill="#b279a2"/>
<circle cx="424.4" cy="313.7" r="3" fill="#b279a2"/>
<circle cx="449.7" cy="311.5" r="3" fill="#b279a2"/>
<circle cx="475.0" cy="313.9" r="3" fill="#b279a2"/>
<circle cx="500.3" cy="315.8" r="3" fill="#b279a2"/>
<circle cx="525.6" cy="312.3" r="3" fill="#b279a2"/>
<circle cx="550.9" cy="317.7" r="3" fill="#b279a2"/>
<circle cx="576.2" cy="316.9" r="3" fill="#b279a2"/>
<circle cx="601.6" cy="318.4" r="3" fill="#b279a2"/>
<circle cx="626.9" cy="315.2" r="3" fill="#b279a2"/>
<circle cx="652.2" cy="317.0" r="3" fill="#b279a2"/>
<circle cx="677.5" cy="319.2" r="3" fill="#b279a2"/>
<circle cx="702.8" cy="315.3" r="3" fill="#b279a2"/>
<circle cx="728.1" cy="319.4" r="3" fill="#b279a2"/>
<circle cx="753.4" cy="319.4" r="3" fill="#b279a2"/>
<circle cx="778.8" cy="318.9" r="3" fill="#b279a2"/>
<circle cx="804.1" cy="310.1" r="3" fill="#b279a2"/>
<circle cx="829.4" cy="311.8" r="3" fill="#b279a2"/>
<circle cx="854.7" cy="319.8" r="3" fill="#b279a2"/>
<circle cx="880.0" cy="318.0" r="3" fill="#b279a2"/>
<rect x="556.0" y="358" width="10" height="10" fill="#b279a2"/>
<text x="570.0" y="367" font-size="11" fill="#333">received mouth</text>
<rect x="718.0" y="358" width="10" height="10" fill="#ff7f0e"/>
<text x="732.0" y="367" font-size="11" fill="#333">server A/V offset</text>
</svg>
