<svg xmlns="http://www.w3.org/2000/svg" width="900" height="380" viewBox="0 0 900 380" font-family="sans-serif">
<rect width="900" height="380" fill="white"/>
<text x="70" y="24" font-size="16" fill="#333">Browser-observed WebRTC latency (ms, p50) — lower is better</text>
<line x1="70" y1="324.0" x2="880" y2="324.0" stroke="#e5e5e5"/>
<text x="64" y="328.0" font-size="11" fill="#666" text-anchor="end">0ms</text>
<line x1="70" y1="268.0" x2="880" y2="268.0" stroke="#e5e5e5"/>
<text x="64" y="272.0" font-size="11" fill="#666" text-anchor="end">2305ms</text>
<line x1="70" y1="212.0" x2="880" y2="212.0" stroke="#e5e5e5"/>
<text x="64" y="216.0" font-size="11" fill="#666" text-anchor="end">4609ms</text>
<line x1="70" y1="156.0" x2="880" y2="156.0" stroke="#e5e5e5"/>
<text x="64" y="160.0" font-size="11" fill="#666" text-anchor="end">6914ms</text>
<line x1="70" y1="100.0" x2="880" y2="100.0" stroke="#e5e5e5"/>
<text x="64" y="104.0" font-size="11" fill="#666" text-anchor="end">9219ms</text>
<line x1="70" y1="44.0" x2="880" y2="44.0" stroke="#e5e5e5"/>
<text x="64" y="48.0" font-size="11" fill="#666" text-anchor="end">11523ms</text>
<text x="70.0" y="342" font-size="11" fill="#666" text-anchor="start">07-16 22:20</text>
<text x="475.0" y="342" font-size="11" fill="#666" text-anchor="middle">07-17 19:48</text>
<text x="880.0" y="342" font-size="11" fill="#666" text-anchor="end">07-17 22:48</text>
<polyline points="70.0,286.6 92.5,283.0 115.0,286.3 137.5,285.6 160.0,282.6 182.5,288.2 205.0,285.3 227.5,283.7 250.0,287.3 272.5,287.2 295.0,289.4 317.5,287.2 340.0,284.5 362.5,295.8 385.0,298.9 407.5,295.9 430.0,297.1 452.5,299.0 475.0,294.2 497.5,303.9 520.0,305.8 542.5,302.6 565.0,306.9 587.5,295.9 610.0,303.4 632.5,304.4 655.0,303.2 677.5,306.1 700.0,303.7 722.5,305.2 745.0,302.0 767.5,306.2 790.0,305.3 812.5,305.1 835.0,301.3 857.5,313.8 880.0,312.7" fill="none" stroke="#4c78a8" stroke-width="2"/>
<circle cx="70.0" cy="286.6" r="3" fill="#4c78a8"/>
<circle cx="92.5" cy="283.0" r="3" fill="#4c78a8"/>
<circle cx="115.0" cy="286.3" r="3" fill="#4c78a8"/>
<circle cx="137.5" cy="285.6" r="3" fill="#4c78a8"/>
<circle cx="160.0" cy="282.6" r="3" fill="#4c78a8"/>
<circle cx="182.5" cy="288.2" r="3" fill="#4c78a8"/>
<circle cx="205.0" cy="285.3" r="3" fill="#4c78a8"/>
<circle cx="227.5" cy="283.7" r="3" fill="#4c78a8"/>
<circle cx="250.0" cy="287.3" r="3" fill="#4c78a8"/>
<circle cx="272.5" cy="287.2" r="3" fill="#4c78a8"/>
<circle cx="295.0" cy="289.4" r="3" fill="#4c78a8"/>
<circle cx="317.5" cy="287.2" r="3" fill="#4c78a8"/>
<circle cx="340.0" cy="284.5" r="3" fill="#4c78a8"/>
<circle cx="362.5" cy="295.8" r="3" fill="#4c78a8"/>
<circle cx="385.0" cy="298.9" r="3" fill="#4c78a8"/>
<circle cx="407.5" cy="295.9" r="3" fill="#4c78a8"/>
<circle cx="430.0" cy="297.1" r="3" fill="#4c78a8"/>
<circle cx="452.5" cy="299.0" r="3" fill="#4c78a8"/>
<circle cx="475.0" cy="294.2" r="3" fill="#4c78a8"/>
<circle cx="497.5" cy="303.9" r="3" fill="#4c78a8"/>
<circle cx="520.0" cy="305.8" r="3" fill="#4c78a8"/>
<circle cx="542.5" cy="302.6" r="3" fill="#4c78a8"/>
<circle cx="565.0" cy="306.9" r="3" fill="#4c78a8"/>
<circle cx="587.5" cy="295.9" r="3" fill="#4c78a8"/>
<circle cx="610.0" cy="303.4" r="3" fill="#4c78a8"/>
<circle cx="632.5" cy="304.4" r="3" fill="#4c78a8"/>
<circle cx="655.0" cy="303.2" r="3" fill="#4c78a8"/>
<circle cx="677.5" cy="306.1" r="3" fill="#4c78a8"/>
<circle cx="700.0" cy="303.7" r="3" fill="#4c78a8"/>
<circle cx="722.5" cy="305.2" r="3" fill="#4c78a8"/>
<circle cx="745.0" cy="302.0" r="3" fill="#4c78a8"/>
<circle cx="767.5" cy="306.2" r="3" fill="#4c78a8"/>
<circle cx="790.0" cy="305.3" r="3" fill="#4c78a8"/>
<circle cx="812.5" cy="305.1" r="3" fill="#4c78a8"/>
<circle cx="835.0" cy="301.3" r="3" fill="#4c78a8"/>
<circle cx="857.5" cy="313.8" r="3" fill="#4c78a8"/>
<circle cx="880.0" cy="312.7" r="3" fill="#4c78a8"/>
<rect x="70.0" y="358" width="10" height="10" fill="#4c78a8"/>
<text x="84.0" y="367" font-size="11" fill="#333">STT final</text>
<polyline points="70.0,279.7 92.5,272.0 115.0,276.8 137.5,276.8 160.0,271.5 182.5,273.1 205.0,274.7 227.5,266.2 250.0,276.2 272.5,271.8 295.0,273.2 317.5,276.7 340.0,273.0 362.5,287.5 385.0,288.1 407.5,277.4 430.0,283.6 452.5,287.3 475.0,284.1 497.5,295.0 520.0,294.7 542.5,296.8 565.0,290.6 587.5,235.7 610.0,287.8 632.5,295.2 655.0,291.0 677.5,295.8 700.0,293.3 722.5,288.3 745.0,280.2 767.5,297.5 790.0,290.9 812.5,297.0 835.0,289.8 857.5,304.9 880.0,300.8" fill="none" stroke="#59a14f" stroke-width="2"/>
<circle cx="70.0" cy="279.7" r="3" fill="#59a14f"/>
<circle cx="92.5" cy="272.0" r="3" fill="#59a14f"/>
<circle cx="115.0" cy="276.8" r="3" fill="#59a14f"/>
<circle cx="137.5" cy="276.8" r="3" fill="#59a14f"/>
<circle cx="160.0" cy="271.5" r="3" fill="#59a14f"/>
<circle cx="182.5" cy="273.1" r="3" fill="#59a14f"/>
<circle cx="205.0" cy="274.7" r="3" fill="#59a14f"/>
<circle cx="227.5" cy="266.2" r="3" fill="#59a14f"/>
<circle cx="250.0" cy="276.2" r="3" fill="#59a14f"/>
<circle cx="272.5" cy="271.8" r="3" fill="#59a14f"/>
<circle cx="295.0" cy="273.2" r="3" fill="#59a14f"/>
<circle cx="317.5" cy="276.7" r="3" fill="#59a14f"/>
<circle cx="340.0" cy="273.0" r="3" fill="#59a14f"/>
<circle cx="362.5" cy="287.5" r="3" fill="#59a14f"/>
<circle cx="385.0" cy="288.1" r="3" fill="#59a14f"/>
<circle cx="407.5" cy="277.4" r="3" fill="#59a14f"/>
<circle cx="430.0" cy="283.6" r="3" fill="#59a14f"/>
<circle cx="452.5" cy="287.3" r="3" fill="#59a14f"/>
<circle cx="475.0" cy="284.1" r="3" fill="#59a14f"/>
<circle cx="497.5" cy="295.0" r="3" fill="#59a14f"/>
<circle cx="520.0" cy="294.7" r="3" fill="#59a14f"/>
<circle cx="542.5" cy="296.8" r="3" fill="#59a14f"/>
<circle cx="565.0" cy="290.6" r="3" fill="#59a14f"/>
<circle cx="587.5" cy="235.7" r="3" fill="#59a14f"/>
<circle cx="610.0" cy="287.8" r="3" fill="#59a14f"/>
<circle cx="632.5" cy="295.2" r="3" fill="#59a14f"/>
<circle cx="655.0" cy="291.0" r="3" fill="#59a14f"/>
<circle cx="677.5" cy="295.8" r="3" fill="#59a14f"/>
<circle cx="700.0" cy="293.3" r="3" fill="#59a14f"/>
<circle cx="722.5" cy="288.3" r="3" fill="#59a14f"/>
<circle cx="745.0" cy="280.2" r="3" fill="#59a14f"/>
<circle cx="767.5" cy="297.5" r="3" fill="#59a14f"/>
<circle cx="790.0" cy="290.9" r="3" fill="#59a14f"/>
<circle cx="812.5" cy="297.0" r="3" fill="#59a14f"/>
<circle cx="835.0" cy="289.8" r="3" fill="#59a14f"/>
<circle cx="857.5" cy="304.9" r="3" fill="#59a14f"/>
<circle cx="880.0" cy="300.8" r="3" fill="#59a14f"/>
<rect x="232.0" y="358" width="10" height="10" fill="#59a14f"/>
<text x="246.0" y="367" font-size="11" fill="#333">LLM first token</text>
<polyline points="70.0,93.7 92.5,161.7 115.0,197.4 137.5,213.5 160.0,236.3 182.5,260.6 205.0,213.4 227.5,191.1 250.0,216.8 272.5,228.5 295.0,191.6 317.5,253.8 340.0,205.2 362.5,270.8 385.0,269.3 407.5,248.4 430.0,269.3 452.5,272.7 475.0,267.4 497.5,282.0 520.0,283.9 542.5,286.8 565.0,272.5 587.5,64.7 610.0,268.8 632.5,275.7 655.0,278.6 677.5,281.5 700.0,283.9 722.5,275.7 745.0,264.5 767.5,286.3 790.0,278.6 812.5,281.0 835.0,271.8 857.5,294.1 880.0,287.8" fill="none" stroke="#e15759" stroke-width="2"/>
<circle cx="70.0" cy="93.7" r="3" fill="#e15759"/>
<circle cx="92.5" cy="161.7" r="3" fill="#e15759"/>
<circle cx="115.0" cy="197.4" r="3" fill="#e15759"/>
<circle cx="137.5" cy="213.5" r="3" fill="#e15759"/>
<circle cx="160.0" cy="236.3" r="3" fill="#e15759"/>
<circle cx="182.5" cy="260.6" r="3" fill="#e15759"/>
<circle cx="205.0" cy="213.4" r="3" fill="#e15759"/>
<circle cx="227.5" cy="191.1" r="3" fill="#e15759"/>
<circle cx="250.0" cy="216.8" r="3" fill="#e15759"/>
<circle cx="272.5" cy="228.5" r="3" fill="#e15759"/>
<circle cx="295.0" cy="191.6" r="3" fill="#e15759"/>
<circle cx="317.5" cy="253.8" r="3" fill="#e15759"/>
<circle cx="340.0" cy="205.2" r="3" fill="#e15759"/>
<circle cx="362.5" cy="270.8" r="3" fill="#e15759"/>
<circle cx="385.0" cy="269.3" r="3" fill="#e15759"/>
<circle cx="407.5" cy="248.4" r="3" fill="#e15759"/>
<circle cx="430.0" cy="269.3" r="3" fill="#e15759"/>
<circle cx="452.5" cy="272.7" r="3" fill="#e15759"/>
<circle cx="475.0" cy="267.4" r="3" fill="#e15759"/>
<circle cx="497.5" cy="282.0" r="3" fill="#e15759"/>
<circle cx="520.0" cy="283.9" r="3" fill="#e15759"/>
<circle cx="542.5" cy="286.8" r="3" fill="#e15759"/>
<circle cx="565.0" cy="272.5" r="3" fill="#e15759"/>
<circle cx="587.5" cy="64.7" r="3" fill="#e15759"/>
<circle cx="610.0" cy="268.8" r="3" fill="#e15759"/>
<circle cx="632.5" cy="275.7" r="3" fill="#e15759"/>
<circle cx="655.0" cy="278.6" r="3" fill="#e15759"/>
<circle cx="677.5" cy="281.5" r="3" fill="#e15759"/>
<circle cx="700.0" cy="283.9" r="3" fill="#e15759"/>
<circle cx="722.5" cy="275.7" r="3" fill="#e15759"/>
<circle cx="745.0" cy="264.5" r="3" fill="#e15759"/>
<circle cx="767.5" cy="286.3" r="3" fill="#e15759"/>
<circle cx="790.0" cy="278.6" r="3" fill="#e15759"/>
<circle cx="812.5" cy="281.0" r="3" fill="#e15759"/>
<circle cx="835.0" cy="271.8" r="3" fill="#e15759"/>
<circle cx="857.5" cy="294.1" r="3" fill="#e15759"/>
<circle cx="880.0" cy="287.8" r="3" fill="#e15759"/>
<rect x="394.0" y="358" width="10" height="10" fill="#e15759"/>
<text x="408.0" y="367" font-size="11" fill="#333">received audio</text>
<polyline points="70.0,313.8 92.5,316.9 115.0,315.6 137.5,316.4 160.0,312.7 182.5,320.5 205.0,306.6 227.5,315.1 250.0,317.8 272.5,309.6 295.0,317.4 317.5,319.3 340.0,310.8 362.5,317.9 385.0,313.7 407.5,311.5 430.0,313.9 452.5,315.8 475.0,312.3 497.5,317.7 520.0,316.9 542.5,318.4 565.0,315.2 587.5,317.0 610.0,319.2 632.5,315.3 655.0,319.4 677.5,319.4 700.0,318.9 722.5,310.1 745.0,311.8 767.5,319.8 790.0,318.0 812.5,315.2 835.0,314.7 857.5,320.7 880.0,320.6" fill="none" stroke="#b279a2" stroke-width="2"/>
<circle cx="70.0" cy="313.8" r="3" fill="#b279a2"/>
<circle cx="92.5" cy="316.9" r="3" fill="#b279a2"/>
<circle cx="115.0" cy="315.6" r="3" fill="#b279a2"/>
<circle cx="137.5" cy="316.4" r="3" fill="#b279a2"/>
<circle cx="160.0" cy="312.7" r="3" fill="#b279a2"/>
<circle cx="182.5" cy="320.5" r="3" fill="#b279a2"/>
<circle cx="205.0" cy="306.6" r="3" fill="#b279a2"/>
<circle cx="227.5" cy="315.1" r="3" fill="#b279a2"/>
<circle cx="250.0" cy="317.8" r="3" fill="#b279a2"/>
<circle cx="272.5" cy="309.6" r="3" fill="#b279a2"/>
<circle cx="295.0" cy="317.4" r="3" fill="#b279a2"/>
<circle cx="317.5" cy="319.3" r="3" fill="#b279a2"/>
<circle cx="340.0" cy="310.8" r="3" fill="#b279a2"/>
<circle cx="362.5" cy="317.9" r="3" fill="#b279a2"/>
<circle cx="385.0" cy="313.7" r="3" fill="#b279a2"/>
<circle cx="407.5" cy="311.5" r="3" fill="#b279a2"/>
<circle cx="430.0" cy="313.9" r="3" fill="#b279a2"/>
<circle cx="452.5" cy="315.8" r="3" fill="#b279a2"/>
<circle cx="475.0" cy="312.3" r="3" fill="#b279a2"/>
<circle cx="497.5" cy="317.7" r="3" fill="#b279a2"/>
<circle cx="520.0" cy="316.9" r="3" fill="#b279a2"/>
<circle cx="542.5" cy="318.4" r="3" fill="#b279a2"/>
<circle cx="565.0" cy="315.2" r="3" fill="#b279a2"/>
<circle cx="587.5" cy="317.0" r="3" fill="#b279a2"/>
<circle cx="610.0" cy="319.2" r="3" fill="#b279a2"/>
<circle cx="632.5" cy="315.3" r="3" fill="#b279a2"/>
<circle cx="655.0" cy="319.4" r="3" fill="#b279a2"/>
<circle cx="677.5" cy="319.4" r="3" fill="#b279a2"/>
<circle cx="700.0" cy="318.9" r="3" fill="#b279a2"/>
<circle cx="722.5" cy="310.1" r="3" fill="#b279a2"/>
<circle cx="745.0" cy="311.8" r="3" fill="#b279a2"/>
<circle cx="767.5" cy="319.8" r="3" fill="#b279a2"/>
<circle cx="790.0" cy="318.0" r="3" fill="#b279a2"/>
<circle cx="812.5" cy="315.2" r="3" fill="#b279a2"/>
<circle cx="835.0" cy="314.7" r="3" fill="#b279a2"/>
<circle cx="857.5" cy="320.7" r="3" fill="#b279a2"/>
<circle cx="880.0" cy="320.6" r="3" fill="#b279a2"/>
<rect x="556.0" y="358" width="10" height="10" fill="#b279a2"/>
<text x="570.0" y="367" font-size="11" fill="#333">received mouth</text>
<rect x="718.0" y="358" width="10" height="10" fill="#ff7f0e"/>
<text x="732.0" y="367" font-size="11" fill="#333">server A/V offset</text>
</svg>
