<svg xmlns="http://www.w3.org/2000/svg" width="900" height="380" viewBox="0 0 900 380" font-family="sans-serif">
<rect width="900" height="380" fill="white"/>
<text x="70" y="24" font-size="16" fill="#333">Browser-observed WebRTC latency (ms, p50) — lower is better</text>
<line x1="70" y1="324.0" x2="880" y2="324.0" stroke="#e5e5e5"/>
<text x="64" y="328.0" font-size="11" fill="#666" text-anchor="end">0ms</text>
<line x1="70" y1="268.0" x2="880" y2="268.0" stroke="#e5e5e5"/>
<text x="64" y="272.0" font-size="11" fill="#666" text-anchor="end">2047ms</text>
<line x1="70" y1="212.0" x2="880" y2="212.0" stroke="#e5e5e5"/>
<text x="64" y="216.0" font-size="11" fill="#666" text-anchor="end">4095ms</text>
<line x1="70" y1="156.0" x2="880" y2="156.0" stroke="#e5e5e5"/>
<text x="64" y="160.0" font-size="11" fill="#666" text-anchor="end">6142ms</text>
<line x1="70" y1="100.0" x2="880" y2="100.0" stroke="#e5e5e5"/>
<text x="64" y="104.0" font-size="11" fill="#666" text-anchor="end">8190ms</text>
<line x1="70" y1="44.0" x2="880" y2="44.0" stroke="#e5e5e5"/>
<text x="64" y="48.0" font-size="11" fill="#666" text-anchor="end">10237ms</text>
<text x="70.0" y="342" font-size="11" fill="#666" text-anchor="start">07-16 22:20</text>
<text x="475.0" y="342" font-size="11" fill="#666" text-anchor="middle">07-17 16:39</text>
<text x="880.0" y="342" font-size="11" fill="#666" text-anchor="end">07-17 20:08</text>
<polyline points="70.0,281.9 106.8,277.8 143.6,281.6 180.5,280.8 217.3,277.4 254.1,283.7 290.9,280.4 327.7,278.6 364.5,282.7 401.4,282.6 438.2,285.1 475.0,282.6 511.8,279.5 548.6,292.3 585.5,295.7 622.3,292.4 659.1,293.8 695.9,295.8 732.7,290.4 769.5,301.4 806.4,303.5 843.2,299.9 880.0,304.7" fill="none" stroke="#4c78a8" stroke-width="2"/>
<circle cx="70.0" cy="281.9" r="3" fill="#4c78a8"/>
<circle cx="106.8" cy="277.8" r="3" fill="#4c78a8"/>
<circle cx="143.6" cy="281.6" r="3" fill="#4c78a8"/>
<circle cx="180.5" cy="280.8" r="3" fill="#4c78a8"/>
<circle cx="217.3" cy="277.4" r="3" fill="#4c78a8"/>
<circle cx="254.1" cy="283.7" r="3" fill="#4c78a8"/>
<circle cx="290.9" cy="280.4" r="3" fill="#4c78a8"/>
<circle cx="327.7" cy="278.6" r="3" fill="#4c78a8"/>
<circle cx="364.5" cy="282.7" r="3" fill="#4c78a8"/>
<circle cx="401.4" cy="282.6" r="3" fill="#4c78a8"/>
<circle cx="438.2" cy="285.1" r="3" fill="#4c78a8"/>
<circle cx="475.0" cy="282.6" r="3" fill="#4c78a8"/>
<circle cx="511.8" cy="279.5" r="3" fill="#4c78a8"/>
<circle cx="548.6" cy="292.3" r="3" fill="#4c78a8"/>
<circle cx="585.5" cy="295.7" r="3" fill="#4c78a8"/>
<circle cx="622.3" cy="292.4" r="3" fill="#4c78a8"/>
<circle cx="659.1" cy="293.8" r="3" fill="#4c78a8"/>
<circle cx="695.9" cy="295.8" r="3" fill="#4c78a8"/>
<circle cx="732.7" cy="290.4" r="3" fill="#4c78a8"/>
<circle cx="769.5" cy="301.4" r="3" fill="#4c78a8"/>
<circle cx="806.4" cy="303.5" r="3" fill="#4c78a8"/>
<circle cx="843.2" cy="299.9" r="3" fill="#4c78a8"/>
<circle cx="880.0" cy="304.7" r="3" fill="#4c78a8"/>
<rect x="70.0" y="358" width="10" height="10" fill="#4c78a8"/>
<text x="84.0" y="367" font-size="11" fill="#333">STT final</text>
<polyline points="70.0,274.2 106.8,265.5 143.6,270.9 180.5,270.9 217.3,264.9 254.1,266.7 290.9,268.5 327.7,258.9 364.5,270.2 401.4,265.3 438.2,266.8 475.0,270.8 511.8,266.6 548.6,282.9 585.5,283.6 622.3,271.5 659.1,278.5 695.9,282.7 732.7,279.1 769.5,291.3 806.4,291.0 843.2,293.4 880.0,286.5" fill="none" stroke="#59a14f" stroke-width="2"/>
<circle cx="70.0" cy="274.2" r="3" fill="#59a14f"/>
<circle cx="106.8" cy="265.5" r="3" fill="#59a14f"/>
<circle cx="143.6" cy="270.9" r="3" fill="#59a14f"/>
<circle cx="180.5" cy="270.9" r="3" fill="#59a14f"/>
<circle cx="217.3" cy="264.9" r="3" fill="#59a14f"/>
<circle cx="254.1" cy="266.7" r="3" fill="#59a14f"/>
<circle cx="290.9" cy="268.5" r="3" fill="#59a14f"/>
<circle cx="327.7" cy="258.9" r="3" fill="#59a14f"/>
<circle cx="364.5" cy="270.2" r="3" fill="#59a14f"/>
<circle cx="401.4" cy="265.3" r="3" fill="#59a14f"/>
<circle cx="438.2" cy="266.8" r="3" fill="#59a14f"/>
<circle cx="475.0" cy="270.8" r="3" fill="#59a14f"/>
<circle cx="511.8" cy="266.6" r="3" fill="#59a14f"/>
<circle cx="548.6" cy="282.9" r="3" fill="#59a14f"/>
<circle cx="585.5" cy="283.6" r="3" fill="#59a14f"/>
<circle cx="622.3" cy="271.5" r="3" fill="#59a14f"/>
<circle cx="659.1" cy="278.5" r="3" fill="#59a14f"/>
<circle cx="695.9" cy="282.7" r="3" fill="#59a14f"/>
<circle cx="732.7" cy="279.1" r="3" fill="#59a14f"/>
<circle cx="769.5" cy="291.3" r="3" fill="#59a14f"/>
<circle cx="806.4" cy="291.0" r="3" fill="#59a14f"/>
<circle cx="843.2" cy="293.4" r="3" fill="#59a14f"/>
<circle cx="880.0" cy="286.5" r="3" fill="#59a14f"/>
<rect x="232.0" y="358" width="10" height="10" fill="#59a14f"/>
<text x="246.0" y="367" font-size="11" fill="#333">LLM first token</text>
<polyline points="70.0,64.7 106.8,141.3 143.6,181.5 180.5,199.6 217.3,225.3 254.1,252.6 290.9,199.5 327.7,174.4 364.5,203.4 401.4,216.5 438.2,175.0 475.0,245.0 511.8,190.3 548.6,264.1 585.5,262.5 622.3,239.0 659.1,262.5 695.9,266.3 732.7,260.3 769.5,276.7 806.4,278.9 843.2,282.2 880.0,266.0" fill="none" stroke="#e15759" stroke-width="2"/>
<circle cx="70.0" cy="64.7" r="3" fill="#e15759"/>
<circle cx="106.8" cy="141.3" r="3" fill="#e15759"/>
<circle cx="143.6" cy="181.5" r="3" fill="#e15759"/>
<circle cx="180.5" cy="199.6" r="3" fill="#e15759"/>
<circle cx="217.3" cy="225.3" r="3" fill="#e15759"/>
<circle cx="254.1" cy="252.6" r="3" fill="#e15759"/>
<circle cx="290.9" cy="199.5" r="3" fill="#e15759"/>
<circle cx="327.7" cy="174.4" r="3" fill="#e15759"/>
<circle cx="364.5" cy="203.4" r="3" fill="#e15759"/>
<circle cx="401.4" cy="216.5" r="3" fill="#e15759"/>
<circle cx="438.2" cy="175.0" r="3" fill="#e15759"/>
<circle cx="475.0" cy="245.0" r="3" fill="#e15759"/>
<circle cx="511.8" cy="190.3" r="3" fill="#e15759"/>
<circle cx="548.6" cy="264.1" r="3" fill="#e15759"/>
<circle cx="585.5" cy="262.5" r="3" fill="#e15759"/>
<circle cx="622.3" cy="239.0" r="3" fill="#e15759"/>
<circle cx="659.1" cy="262.5" r="3" fill="#e15759"/>
<circle cx="695.9" cy="266.3" r="3" fill="#e15759"/>
<circle cx="732.7" cy="260.3" r="3" fill="#e15759"/>
<circle cx="769.5" cy="276.7" r="3" fill="#e15759"/>
<circle cx="806.4" cy="278.9" r="3" fill="#e15759"/>
<circle cx="843.2" cy="282.2" r="3" fill="#e15759"/>
<circle cx="880.0" cy="266.0" r="3" fill="#e15759"/>
<rect x="394.0" y="358" width="10" height="10" fill="#e15759"/>
<text x="408.0" y="367" font-size="11" fill="#333">received audio</text>
<polyline points="70.0,312.5 106.8,316.0 143.6,314.6 180.5,315.4 217.3,311.2 254.1,320.1 290.9,304.4 327.7,313.9 364.5,317.1 401.4,307.8 438.2,316.6 475.0,318.8 511.8,309.2 548.6,317.1 585.5,312.4 622.3,309.9 659.1,312.6 695.9,314.7 732.7,310.8 769.5,316.9 806.4,316.1 843.2,317.7 880.0,314.1" fill="none" stroke="#b279a2" stroke-width="2"/>
<circle cx="70.0" cy="312.5" r="3" fill="#b279a2"/>
<circle cx="106.8" cy="316.0" r="3" fill="#b279a2"/>
<circle cx="143.6" cy="314.6" r="3" fill="#b279a2"/>
<circle cx="180.5" cy="315.4" r="3" fill="#b279a2"/>
<circle cx="217.3" cy="311.2" r="3" fill="#b279a2"/>
<circle cx="254.1" cy="320.1" r="3" fill="#b279a2"/>
<circle cx="290.9" cy="304.4" r="3" fill="#b279a2"/>
<circle cx="327.7" cy="313.9" r="3" fill="#b279a2"/>
<circle cx="364.5" cy="317.1" r="3" fill="#b279a2"/>
<circle cx="401.4" cy="307.8" r="3" fill="#b279a2"/>
<circle cx="438.2" cy="316.6" r="3" fill="#b279a2"/>
<circle cx="475.0" cy="318.8" r="3" fill="#b279a2"/>
<circle cx="511.8" cy="309.2" r="3" fill="#b279a2"/>
<circle cx="548.6" cy="317.1" r="3" fill="#b279a2"/>
<circle cx="585.5" cy="312.4" r="3" fill="#b279a2"/>
<circle cx="622.3" cy="309.9" r="3" fill="#b279a2"/>
<circle cx="659.1" cy="312.6" r="3" fill="#b279a2"/>
<circle cx="695.9" cy="314.7" r="3" fill="#b279a2"/>
<circle cx="732.7" cy="310.8" r="3" fill="#b279a2"/>
<circle cx="769.5" cy="316.9" r="3" fill="#b279a2"/>
<circle cx="806.4" cy="316.1" r="3" fill="#b279a2"/>
<circle cx="843.2" cy="317.7" r="3" fill="#b279a2"/>
<circle cx="880.0" cy="314.1" r="3" fill="#b279a2"/>
<rect x="556.0" y="358" width="10" height="10" fill="#b279a2"/>
<text x="570.0" y="367" font-size="11" fill="#333">received mouth</text>
<rect x="718.0" y="358" width="10" height="10" fill="#ff7f0e"/>
<text x="732.0" y="367" font-size="11" fill="#333">server A/V offset</text>
</svg>
