<svg xmlns="http://www.w3.org/2000/svg" width="900" height="380" viewBox="0 0 900 380" font-family="sans-serif">
<rect width="900" height="380" fill="white"/>
<text x="70" y="24" font-size="16" fill="#333">Browser-observed WebRTC latency (ms, p50) — lower is better</text>
<line x1="70" y1="324.0" x2="880" y2="324.0" stroke="#e5e5e5"/>
<text x="64" y="328.0" font-size="11" fill="#666" text-anchor="end">0ms</text>
<line x1="70" y1="268.0" x2="880" y2="268.0" stroke="#e5e5e5"/>
<text x="64" y="272.0" font-size="11" fill="#666" text-anchor="end">2305ms</text>
<line x1="70" y1="212.0" x2="880" y2="212.0" stroke="#e5e5e5"/>
<text x="64" y="216.0" font-size="11" fill="#666" text-anchor="end">4609ms</text>
<line x1="70" y1="156.0" x2="880" y2="156.0" stroke="#e5e5e5"/>
<text x="64" y="160.0" font-size="11" fill="#666" text-anchor="end">6914ms</text>
<line x1="70" y1="100.0" x2="880" y2="100.0" stroke="#e5e5e5"/>
<text x="64" y="104.0" font-size="11" fill="#666" text-anchor="end">9219ms</text>
<line x1="70" y1="44.0" x2="880" y2="44.0" stroke="#e5e5e5"/>
<text x="64" y="48.0" font-size="11" fill="#666" text-anchor="end">11523ms</text>
<text x="70.0" y="342" font-size="11" fill="#666" text-anchor="start">07-16 22:20</text>
<text x="484.0" y="342" font-size="11" fill="#666" text-anchor="middle">07-17 20:14</text>
<text x="880.0" y="342" font-size="11" fill="#666" text-anchor="end">07-19 06:14</text>
<polyline points="70.0,286.6 88.0,283.0 106.0,286.3 124.0,285.6 142.0,282.6 160.0,288.2 178.0,285.3 196.0,283.7 214.0,287.3 232.0,287.2 250.0,289.4 268.0,287.2 286.0,284.5 304.0,295.8 322.0,298.9 340.0,295.9 358.0,297.1 376.0,299.0 394.0,294.2 412.0,303.9 430.0,305.8 448.0,302.6 466.0,306.9 484.0,295.9 502.0,303.4 520.0,304.4 538.0,303.2 556.0,306.1 574.0,303.7 592.0,305.2 610.0,302.0 628.0,306.2 646.0,305.3 664.0,305.1 682.0,301.3 700.0,313.8 718.0,312.7 736.0,301.4 754.0,301.9 772.0,300.0 790.0,313.8 808.0,303.6 826.0,300.9 844.0,313.3 862.0,301.3 880.0,301.4" fill="none" stroke="#4c78a8" stroke-width="2"/>
<circle cx="70.0" cy="286.6" r="3" fill="#4c78a8"/>
<circle cx="88.0" cy="283.0" r="3" fill="#4c78a8"/>
<circle cx="106.0" cy="286.3" r="3" fill="#4c78a8"/>
<circle cx="124.0" cy="285.6" r="3" fill="#4c78a8"/>
<circle cx="142.0" cy="282.6" r="3" fill="#4c78a8"/>
<circle cx="160.0" cy="288.2" r="3" fill="#4c78a8"/>
<circle cx="178.0" cy="285.3" r="3" fill="#4c78a8"/>
<circle cx="196.0" cy="283.7" r="3" fill="#4c78a8"/>
<circle cx="214.0" cy="287.3" r="3" fill="#4c78a8"/>
<circle cx="232.0" cy="287.2" r="3" fill="#4c78a8"/>
<circle cx="250.0" cy="289.4" r="3" fill="#4c78a8"/>
<circle cx="268.0" cy="287.2" r="3" fill="#4c78a8"/>
<circle cx="286.0" cy="284.5" r="3" fill="#4c78a8"/>
<circle cx="304.0" cy="295.8" r="3" fill="#4c78a8"/>
<circle cx="322.0" cy="298.9" r="3" fill="#4c78a8"/>
<circle cx="340.0" cy="295.9" r="3" fill="#4c78a8"/>
<circle cx="358.0" cy="297.1" r="3" fill="#4c78a8"/>
<circle cx="376.0" cy="299.0" r="3" fill="#4c78a8"/>
<circle cx="394.0" cy="294.2" r="3" fill="#4c78a8"/>
<circle cx="412.0" cy="303.9" r="3" fill="#4c78a8"/>
<circle cx="430.0" cy="305.8" r="3" fill="#4c78a8"/>
<circle cx="448.0" cy="302.6" r="3" fill="#4c78a8"/>
<circle cx="466.0" cy="306.9" r="3" fill="#4c78a8"/>
<circle cx="484.0" cy="295.9" r="3" fill="#4c78a8"/>
<circle cx="502.0" cy="303.4" r="3" fill="#4c78a8"/>
<circle cx="520.0" cy="304.4" r="3" fill="#4c78a8"/>
<circle cx="538.0" cy="303.2" r="3" fill="#4c78a8"/>
<circle cx="556.0" cy="306.1" r="3" fill="#4c78a8"/>
<circle cx="574.0" cy="303.7" r="3" fill="#4c78a8"/>
<circle cx="592.0" cy="305.2" r="3" fill="#4c78a8"/>
<circle cx="610.0" cy="302.0" r="3" fill="#4c78a8"/>
<circle cx="628.0" cy="306.2" r="3" fill="#4c78a8"/>
<circle cx="646.0" cy="305.3" r="3" fill="#4c78a8"/>
<circle cx="664.0" cy="305.1" r="3" fill="#4c78a8"/>
<circle cx="682.0" cy="301.3" r="3" fill="#4c78a8"/>
<circle cx="700.0" cy="313.8" r="3" fill="#4c78a8"/>
<circle cx="718.0" cy="312.7" r="3" fill="#4c78a8"/>
<circle cx="736.0" cy="301.4" r="3" fill="#4c78a8"/>
<circle cx="754.0" cy="301.9" r="3" fill="#4c78a8"/>
<circle cx="772.0" cy="300.0" r="3" fill="#4c78a8"/>
<circle cx="790.0" cy="313.8" r="3" fill="#4c78a8"/>
<circle cx="808.0" cy="303.6" r="3" fill="#4c78a8"/>
<circle cx="826.0" cy="300.9" r="3" fill="#4c78a8"/>
<circle cx="844.0" cy="313.3" r="3" fill="#4c78a8"/>
<circle cx="862.0" cy="301.3" r="3" fill="#4c78a8"/>
<circle cx="880.0" cy="301.4" r="3" fill="#4c78a8"/>
<rect x="70.0" y="358" width="10" height="10" fill="#4c78a8"/>
<text x="84.0" y="367" font-size="11" fill="#333">STT final</text>
<polyline points="70.0,279.7 88.0,272.0 106.0,276.8 124.0,276.8 142.0,271.5 160.0,273.1 178.0,274.7 196.0,266.2 214.0,276.2 232.0,271.8 250.0,273.2 268.0,276.7 286.0,273.0 304.0,287.5 322.0,288.1 340.0,277.4 358.0,283.6 376.0,287.3 394.0,284.1 412.0,295.0 430.0,294.7 448.0,296.8 466.0,290.6 484.0,235.7 502.0,287.8 520.0,295.2 538.0,291.0 556.0,295.8 574.0,293.3 592.0,288.3 610.0,280.2 628.0,297.5 646.0,290.9 664.0,297.0 682.0,289.8 700.0,304.9 718.0,300.8 736.0,286.0 754.0,291.4 772.0,293.9 790.0,298.3 808.0,295.8 826.0,289.1 844.0,304.7 862.0,284.4 880.0,287.4" fill="none" stroke="#59a14f" stroke-width="2"/>
<circle cx="70.0" cy="279.7" r="3" fill="#59a14f"/>
<circle cx="88.0" cy="272.0" r="3" fill="#59a14f"/>
<circle cx="106.0" cy="276.8" r="3" fill="#59a14f"/>
<circle cx="124.0" cy="276.8" r="3" fill="#59a14f"/>
<circle cx="142.0" cy="271.5" r="3" fill="#59a14f"/>
<circle cx="160.0" cy="273.1" r="3" fill="#59a14f"/>
<circle cx="178.0" cy="274.7" r="3" fill="#59a14f"/>
<circle cx="196.0" cy="266.2" r="3" fill="#59a14f"/>
<circle cx="214.0" cy="276.2" r="3" fill="#59a14f"/>
<circle cx="232.0" cy="271.8" r="3" fill="#59a14f"/>
<circle cx="250.0" cy="273.2" r="3" fill="#59a14f"/>
<circle cx="268.0" cy="276.7" r="3" fill="#59a14f"/>
<circle cx="286.0" cy="273.0" r="3" fill="#59a14f"/>
<circle cx="304.0" cy="287.5" r="3" fill="#59a14f"/>
<circle cx="322.0" cy="288.1" r="3" fill="#59a14f"/>
<circle cx="340.0" cy="277.4" r="3" fill="#59a14f"/>
<circle cx="358.0" cy="283.6" r="3" fill="#59a14f"/>
<circle cx="376.0" cy="287.3" r="3" fill="#59a14f"/>
<circle cx="394.0" cy="284.1" r="3" fill="#59a14f"/>
<circle cx="412.0" cy="295.0" r="3" fill="#59a14f"/>
<circle cx="430.0" cy="294.7" r="3" fill="#59a14f"/>
<circle cx="448.0" cy="296.8" r="3" fill="#59a14f"/>
<circle cx="466.0" cy="290.6" r="3" fill="#59a14f"/>
<circle cx="484.0" cy="235.7" r="3" fill="#59a14f"/>
<circle cx="502.0" cy="287.8" r="3" fill="#59a14f"/>
<circle cx="520.0" cy="295.2" r="3" fill="#59a14f"/>
<circle cx="538.0" cy="291.0" r="3" fill="#59a14f"/>
<circle cx="556.0" cy="295.8" r="3" fill="#59a14f"/>
<circle cx="574.0" cy="293.3" r="3" fill="#59a14f"/>
<circle cx="592.0" cy="288.3" r="3" fill="#59a14f"/>
<circle cx="610.0" cy="280.2" r="3" fill="#59a14f"/>
<circle cx="628.0" cy="297.5" r="3" fill="#59a14f"/>
<circle cx="646.0" cy="290.9" r="3" fill="#59a14f"/>
<circle cx="664.0" cy="297.0" r="3" fill="#59a14f"/>
<circle cx="682.0" cy="289.8" r="3" fill="#59a14f"/>
<circle cx="700.0" cy="304.9" r="3" fill="#59a14f"/>
<circle cx="718.0" cy="300.8" r="3" fill="#59a14f"/>
<circle cx="736.0" cy="286.0" r="3" fill="#59a14f"/>
<circle cx="754.0" cy="291.4" r="3" fill="#59a14f"/>
<circle cx="772.0" cy="293.9" r="3" fill="#59a14f"/>
<circle cx="790.0" cy="298.3" r="3" fill="#59a14f"/>
<circle cx="808.0" cy="295.8" r="3" fill="#59a14f"/>
<circle cx="826.0" cy="289.1" r="3" fill="#59a14f"/>
<circle cx="844.0" cy="304.7" r="3" fill="#59a14f"/>
<circle cx="862.0" cy="284.4" r="3" fill="#59a14f"/>
<circle cx="880.0" cy="287.4" r="3" fill="#59a14f"/>
<rect x="232.0" y="358" width="10" height="10" fill="#59a14f"/>
<text x="246.0" y="367" font-size="11" fill="#333">LLM first token</text>
<polyline points="70.0,93.7 88.0,161.7 106.0,197.4 124.0,213.5 142.0,236.3 160.0,260.6 178.0,213.4 196.0,191.1 214.0,216.8 232.0,228.5 250.0,191.6 268.0,253.8 286.0,205.2 304.0,270.8 322.0,269.3 340.0,248.4 358.0,269.3 376.0,272.7 394.0,267.4 412.0,282.0 430.0,283.9 448.0,286.8 466.0,272.5 484.0,64.7 502.0,268.8 520.0,275.7 538.0,278.6 556.0,281.5 574.0,283.9 592.0,275.7 610.0,264.5 628.0,286.3 646.0,278.6 664.0,281.0 682.0,271.8 700.0,294.1 718.0,287.8 736.0,262.0 754.0,274.7 772.0,286.3 790.0,282.9 808.0,287.8 826.0,276.2 844.0,292.7 862.0,268.9 880.0,265.5" fill="none" stroke="#e15759" stroke-width="2"/>
<circle cx="70.0" cy="93.7" r="3" fill="#e15759"/>
<circle cx="88.0" cy="161.7" r="3" fill="#e15759"/>
<circle cx="106.0" cy="197.4" r="3" fill="#e15759"/>
<circle cx="124.0" cy="213.5" r="3" fill="#e15759"/>
<circle cx="142.0" cy="236.3" r="3" fill="#e15759"/>
<circle cx="160.0" cy="260.6" r="3" fill="#e15759"/>
<circle cx="178.0" cy="213.4" r="3" fill="#e15759"/>
<circle cx="196.0" cy="191.1" r="3" fill="#e15759"/>
<circle cx="214.0" cy="216.8" r="3" fill="#e15759"/>
<circle cx="232.0" cy="228.5" r="3" fill="#e15759"/>
<circle cx="250.0" cy="191.6" r="3" fill="#e15759"/>
<circle cx="268.0" cy="253.8" r="3" fill="#e15759"/>
<circle cx="286.0" cy="205.2" r="3" fill="#e15759"/>
<circle cx="304.0" cy="270.8" r="3" fill="#e15759"/>
<circle cx="322.0" cy="269.3" r="3" fill="#e15759"/>
<circle cx="340.0" cy="248.4" r="3" fill="#e15759"/>
<circle cx="358.0" cy="269.3" r="3" fill="#e15759"/>
<circle cx="376.0" cy="272.7" r="3" fill="#e15759"/>
<circle cx="394.0" cy="267.4" r="3" fill="#e15759"/>
<circle cx="412.0" cy="282.0" r="3" fill="#e15759"/>
<circle cx="430.0" cy="283.9" r="3" fill="#e15759"/>
<circle cx="448.0" cy="286.8" r="3" fill="#e15759"/>
<circle cx="466.0" cy="272.5" r="3" fill="#e15759"/>
<circle cx="484.0" cy="64.7" r="3" fill="#e15759"/>
<circle cx="502.0" cy="268.8" r="3" fill="#e15759"/>
<circle cx="520.0" cy="275.7" r="3" fill="#e15759"/>
<circle cx="538.0" cy="278.6" r="3" fill="#e15759"/>
<circle cx="556.0" cy="281.5" r="3" fill="#e15759"/>
<circle cx="574.0" cy="283.9" r="3" fill="#e15759"/>
<circle cx="592.0" cy="275.7" r="3" fill="#e15759"/>
<circle cx="610.0" cy="264.5" r="3" fill="#e15759"/>
<circle cx="628.0" cy="286.3" r="3" fill="#e15759"/>
<circle cx="646.0" cy="278.6" r="3" fill="#e15759"/>
<circle cx="664.0" cy="281.0" r="3" fill="#e15759"/>
<circle cx="682.0" cy="271.8" r="3" fill="#e15759"/>
<circle cx="700.0" cy="294.1" r="3" fill="#e15759"/>
<circle cx="718.0" cy="287.8" r="3" fill="#e15759"/>
<circle cx="736.0" cy="262.0" r="3" fill="#e15759"/>
<circle cx="754.0" cy="274.7" r="3" fill="#e15759"/>
<circle cx="772.0" cy="286.3" r="3" fill="#e15759"/>
<circle cx="790.0" cy="282.9" r="3" fill="#e15759"/>
<circle cx="808.0" cy="287.8" r="3" fill="#e15759"/>
<circle cx="826.0" cy="276.2" r="3" fill="#e15759"/>
<circle cx="844.0" cy="292.7" r="3" fill="#e15759"/>
<circle cx="862.0" cy="268.9" r="3" fill="#e15759"/>
<circle cx="880.0" cy="265.5" r="3" fill="#e15759"/>
<rect x="394.0" y="358" width="10" height="10" fill="#e15759"/>
<text x="408.0" y="367" font-size="11" fill="#333">received audio</text>
<polyline points="70.0,313.8 88.0,316.9 106.0,315.6 124.0,316.4 142.0,312.7 160.0,320.5 178.0,306.6 196.0,315.1 214.0,317.8 232.0,309.6 250.0,317.4 268.0,319.3 286.0,310.8 304.0,317.9 322.0,313.7 340.0,311.5 358.0,313.9 376.0,315.8 394.0,312.3 412.0,317.7 430.0,316.9 448.0,318.4 466.0,315.2 484.0,317.0 502.0,319.2 520.0,315.3 538.0,319.4 556.0,319.4 574.0,318.9 592.0,310.1 610.0,311.8 628.0,319.8 646.0,318.0 664.0,315.2 682.0,314.7 700.0,320.7 718.0,320.6 736.0,316.9 754.0,316.3 772.0,321.2 790.0,320.4 808.0,321.2 826.0,319.7 844.0,320.8 862.0,316.5 880.0,316.8" fill="none" stroke="#b279a2" stroke-width="2"/>
<circle cx="70.0" cy="313.8" r="3" fill="#b279a2"/>
<circle cx="88.0" cy="316.9" r="3" fill="#b279a2"/>
<circle cx="106.0" cy="315.6" r="3" fill="#b279a2"/>
<circle cx="124.0" cy="316.4" r="3" fill="#b279a2"/>
<circle cx="142.0" cy="312.7" r="3" fill="#b279a2"/>
<circle cx="160.0" cy="320.5" r="3" fill="#b279a2"/>
<circle cx="178.0" cy="306.6" r="3" fill="#b279a2"/>
<circle cx="196.0" cy="315.1" r="3" fill="#b279a2"/>
<circle cx="214.0" cy="317.8" r="3" fill="#b279a2"/>
<circle cx="232.0" cy="309.6" r="3" fill="#b279a2"/>
<circle cx="250.0" cy="317.4" r="3" fill="#b279a2"/>
<circle cx="268.0" cy="319.3" r="3" fill="#b279a2"/>
<circle cx="286.0" cy="310.8" r="3" fill="#b279a2"/>
<circle cx="304.0" cy="317.9" r="3" fill="#b279a2"/>
<circle cx="322.0" cy="313.7" r="3" fill="#b279a2"/>
<circle cx="340.0" cy="311.5" r="3" fill="#b279a2"/>
<circle cx="358.0" cy="313.9" r="3" fill="#b279a2"/>
<circle cx="376.0" cy="315.8" r="3" fill="#b279a2"/>
<circle cx="394.0" cy="312.3" r="3" fill="#b279a2"/>
<circle cx="412.0" cy="317.7" r="3" fill="#b279a2"/>
<circle cx="430.0" cy="316.9" r="3" fill="#b279a2"/>
<circle cx="448.0" cy="318.4" r="3" fill="#b279a2"/>
<circle cx="466.0" cy="315.2" r="3" fill="#b279a2"/>
<circle cx="484.0" cy="317.0" r="3" fill="#b279a2"/>
<circle cx="502.0" cy="319.2" r="3" fill="#b279a2"/>
<circle cx="520.0" cy="315.3" r="3" fill="#b279a2"/>
<circle cx="538.0" cy="319.4" r="3" fill="#b279a2"/>
<circle cx="556.0" cy="319.4" r="3" fill="#b279a2"/>
<circle cx="574.0" cy="318.9" r="3" fill="#b279a2"/>
<circle cx="592.0" cy="310.1" r="3" fill="#b279a2"/>
<circle cx="610.0" cy="311.8" r="3" fill="#b279a2"/>
<circle cx="628.0" cy="319.8" r="3" fill="#b279a2"/>
<circle cx="646.0" cy="318.0" r="3" fill="#b279a2"/>
<circle cx="664.0" cy="315.2" r="3" fill="#b279a2"/>
<circle cx="682.0" cy="314.7" r="3" fill="#b279a2"/>
<circle cx="700.0" cy="320.7" r="3" fill="#b279a2"/>
<circle cx="718.0" cy="320.6" r="3" fill="#b279a2"/>
<circle cx="736.0" cy="316.9" r="3" fill="#b279a2"/>
<circle cx="754.0" cy="316.3" r="3" fill="#b279a2"/>
<circle cx="772.0" cy="321.2" r="3" fill="#b279a2"/>
<circle cx="790.0" cy="320.4" r="3" fill="#b279a2"/>
<circle cx="808.0" cy="321.2" r="3" fill="#b279a2"/>
<circle cx="826.0" cy="319.7" r="3" fill="#b279a2"/>
<circle cx="844.0" cy="320.8" r="3" fill="#b279a2"/>
<circle cx="862.0" cy="316.5" r="3" fill="#b279a2"/>
<circle cx="880.0" cy="316.8" r="3" fill="#b279a2"/>
<rect x="556.0" y="358" width="10" height="10" fill="#b279a2"/>
<text x="570.0" y="367" font-size="11" fill="#333">received mouth</text>
<rect x="718.0" y="358" width="10" height="10" fill="#ff7f0e"/>
<text x="732.0" y="367" font-size="11" fill="#333">server A/V offset</text>
</svg>
