<svg xmlns="http://www.w3.org/2000/svg" width="900" height="380" viewBox="0 0 900 380" font-family="sans-serif">
<rect width="900" height="380" fill="white"/>
<text x="70" y="24" font-size="16" fill="#333">Browser-observed WebRTC latency (ms, p50) — lower is better</text>
<line x1="70" y1="324.0" x2="880" y2="324.0" stroke="#e5e5e5"/>
<text x="64" y="328.0" font-size="11" fill="#666" text-anchor="end">0ms</text>
<line x1="70" y1="268.0" x2="880" y2="268.0" stroke="#e5e5e5"/>
<text x="64" y="272.0" font-size="11" fill="#666" text-anchor="end">2305ms</text>
<line x1="70" y1="212.0" x2="880" y2="212.0" stroke="#e5e5e5"/>
<text x="64" y="216.0" font-size="11" fill="#666" text-anchor="end">4609ms</text>
<line x1="70" y1="156.0" x2="880" y2="156.0" stroke="#e5e5e5"/>
<text x="64" y="160.0" font-size="11" fill="#666" text-anchor="end">6914ms</text>
<line x1="70" y1="100.0" x2="880" y2="100.0" stroke="#e5e5e5"/>
<text x="64" y="104.0" font-size="11" fill="#666" text-anchor="end">9219ms</text>
<line x1="70" y1="44.0" x2="880" y2="44.0" stroke="#e5e5e5"/>
<text x="64" y="48.0" font-size="11" fill="#666" text-anchor="end">11523ms</text>
<text x="70.0" y="342" font-size="11" fill="#666" text-anchor="start">07-16 22:20</text>
<text x="475.0" y="342" font-size="11" fill="#666" text-anchor="middle">07-17 20:04</text>
<text x="880.0" y="342" font-size="11" fill="#666" text-anchor="end">07-18 10:31</text>
<polyline points="70.0,286.6 89.3,283.0 108.6,286.3 127.9,285.6 147.1,282.6 166.4,288.2 185.7,285.3 205.0,283.7 224.3,287.3 243.6,287.2 262.9,289.4 282.1,287.2 301.4,284.5 320.7,295.8 340.0,298.9 359.3,295.9 378.6,297.1 397.9,299.0 417.1,294.2 436.4,303.9 455.7,305.8 475.0,302.6 494.3,306.9 513.6,295.9 532.9,303.4 552.1,304.4 571.4,303.2 590.7,306.1 610.0,303.7 629.3,305.2 648.6,302.0 667.9,306.2 687.1,305.3 706.4,305.1 725.7,301.3 745.0,313.8 764.3,312.7 783.6,301.4 802.9,301.9 822.1,300.0 841.4,313.8 860.7,303.6 880.0,300.9" fill="none" stroke="#4c78a8" stroke-width="2"/>
<circle cx="70.0" cy="286.6" r="3" fill="#4c78a8"/>
<circle cx="89.3" cy="283.0" r="3" fill="#4c78a8"/>
<circle cx="108.6" cy="286.3" r="3" fill="#4c78a8"/>
<circle cx="127.9" cy="285.6" r="3" fill="#4c78a8"/>
<circle cx="147.1" cy="282.6" r="3" fill="#4c78a8"/>
<circle cx="166.4" cy="288.2" r="3" fill="#4c78a8"/>
<circle cx="185.7" cy="285.3" r="3" fill="#4c78a8"/>
<circle cx="205.0" cy="283.7" r="3" fill="#4c78a8"/>
<circle cx="224.3" cy="287.3" r="3" fill="#4c78a8"/>
<circle cx="243.6" cy="287.2" r="3" fill="#4c78a8"/>
<circle cx="262.9" cy="289.4" r="3" fill="#4c78a8"/>
<circle cx="282.1" cy="287.2" r="3" fill="#4c78a8"/>
<circle cx="301.4" cy="284.5" r="3" fill="#4c78a8"/>
<circle cx="320.7" cy="295.8" r="3" fill="#4c78a8"/>
<circle cx="340.0" cy="298.9" r="3" fill="#4c78a8"/>
<circle cx="359.3" cy="295.9" r="3" fill="#4c78a8"/>
<circle cx="378.6" cy="297.1" r="3" fill="#4c78a8"/>
<circle cx="397.9" cy="299.0" r="3" fill="#4c78a8"/>
<circle cx="417.1" cy="294.2" r="3" fill="#4c78a8"/>
<circle cx="436.4" cy="303.9" r="3" fill="#4c78a8"/>
<circle cx="455.7" cy="305.8" r="3" fill="#4c78a8"/>
<circle cx="475.0" cy="302.6" r="3" fill="#4c78a8"/>
<circle cx="494.3" cy="306.9" r="3" fill="#4c78a8"/>
<circle cx="513.6" cy="295.9" r="3" fill="#4c78a8"/>
<circle cx="532.9" cy="303.4" r="3" fill="#4c78a8"/>
<circle cx="552.1" cy="304.4" r="3" fill="#4c78a8"/>
<circle cx="571.4" cy="303.2" r="3" fill="#4c78a8"/>
<circle cx="590.7" cy="306.1" r="3" fill="#4c78a8"/>
<circle cx="610.0" cy="303.7" r="3" fill="#4c78a8"/>
<circle cx="629.3" cy="305.2" r="3" fill="#4c78a8"/>
<circle cx="648.6" cy="302.0" r="3" fill="#4c78a8"/>
<circle cx="667.9" cy="306.2" r="3" fill="#4c78a8"/>
<circle cx="687.1" cy="305.3" r="3" fill="#4c78a8"/>
<circle cx="706.4" cy="305.1" r="3" fill="#4c78a8"/>
<circle cx="725.7" cy="301.3" r="3" fill="#4c78a8"/>
<circle cx="745.0" cy="313.8" r="3" fill="#4c78a8"/>
<circle cx="764.3" cy="312.7" r="3" fill="#4c78a8"/>
<circle cx="783.6" cy="301.4" r="3" fill="#4c78a8"/>
<circle cx="802.9" cy="301.9" r="3" fill="#4c78a8"/>
<circle cx="822.1" cy="300.0" r="3" fill="#4c78a8"/>
<circle cx="841.4" cy="313.8" r="3" fill="#4c78a8"/>
<circle cx="860.7" cy="303.6" r="3" fill="#4c78a8"/>
<circle cx="880.0" cy="300.9" r="3" fill="#4c78a8"/>
<rect x="70.0" y="358" width="10" height="10" fill="#4c78a8"/>
<text x="84.0" y="367" font-size="11" fill="#333">STT final</text>
<polyline points="70.0,279.7 89.3,272.0 108.6,276.8 127.9,276.8 147.1,271.5 166.4,273.1 185.7,274.7 205.0,266.2 224.3,276.2 243.6,271.8 262.9,273.2 282.1,276.7 301.4,273.0 320.7,287.5 340.0,288.1 359.3,277.4 378.6,283.6 397.9,287.3 417.1,284.1 436.4,295.0 455.7,294.7 475.0,296.8 494.3,290.6 513.6,235.7 532.9,287.8 552.1,295.2 571.4,291.0 590.7,295.8 610.0,293.3 629.3,288.3 648.6,280.2 667.9,297.5 687.1,290.9 706.4,297.0 725.7,289.8 745.0,304.9 764.3,300.8 783.6,286.0 802.9,291.4 822.1,293.9 841.4,298.3 860.7,295.8 880.0,289.1" fill="none" stroke="#59a14f" stroke-width="2"/>
<circle cx="70.0" cy="279.7" r="3" fill="#59a14f"/>
<circle cx="89.3" cy="272.0" r="3" fill="#59a14f"/>
<circle cx="108.6" cy="276.8" r="3" fill="#59a14f"/>
<circle cx="127.9" cy="276.8" r="3" fill="#59a14f"/>
<circle cx="147.1" cy="271.5" r="3" fill="#59a14f"/>
<circle cx="166.4" cy="273.1" r="3" fill="#59a14f"/>
<circle cx="185.7" cy="274.7" r="3" fill="#59a14f"/>
<circle cx="205.0" cy="266.2" r="3" fill="#59a14f"/>
<circle cx="224.3" cy="276.2" r="3" fill="#59a14f"/>
<circle cx="243.6" cy="271.8" r="3" fill="#59a14f"/>
<circle cx="262.9" cy="273.2" r="3" fill="#59a14f"/>
<circle cx="282.1" cy="276.7" r="3" fill="#59a14f"/>
<circle cx="301.4" cy="273.0" r="3" fill="#59a14f"/>
<circle cx="320.7" cy="287.5" r="3" fill="#59a14f"/>
<circle cx="340.0" cy="288.1" r="3" fill="#59a14f"/>
<circle cx="359.3" cy="277.4" r="3" fill="#59a14f"/>
<circle cx="378.6" cy="283.6" r="3" fill="#59a14f"/>
<circle cx="397.9" cy="287.3" r="3" fill="#59a14f"/>
<circle cx="417.1" cy="284.1" r="3" fill="#59a14f"/>
<circle cx="436.4" cy="295.0" r="3" fill="#59a14f"/>
<circle cx="455.7" cy="294.7" r="3" fill="#59a14f"/>
<circle cx="475.0" cy="296.8" r="3" fill="#59a14f"/>
<circle cx="494.3" cy="290.6" r="3" fill="#59a14f"/>
<circle cx="513.6" cy="235.7" r="3" fill="#59a14f"/>
<circle cx="532.9" cy="287.8" r="3" fill="#59a14f"/>
<circle cx="552.1" cy="295.2" r="3" fill="#59a14f"/>
<circle cx="571.4" cy="291.0" r="3" fill="#59a14f"/>
<circle cx="590.7" cy="295.8" r="3" fill="#59a14f"/>
<circle cx="610.0" cy="293.3" r="3" fill="#59a14f"/>
<circle cx="629.3" cy="288.3" r="3" fill="#59a14f"/>
<circle cx="648.6" cy="280.2" r="3" fill="#59a14f"/>
<circle cx="667.9" cy="297.5" r="3" fill="#59a14f"/>
<circle cx="687.1" cy="290.9" r="3" fill="#59a14f"/>
<circle cx="706.4" cy="297.0" r="3" fill="#59a14f"/>
<circle cx="725.7" cy="289.8" r="3" fill="#59a14f"/>
<circle cx="745.0" cy="304.9" r="3" fill="#59a14f"/>
<circle cx="764.3" cy="300.8" r="3" fill="#59a14f"/>
<circle cx="783.6" cy="286.0" r="3" fill="#59a14f"/>
<circle cx="802.9" cy="291.4" r="3" fill="#59a14f"/>
<circle cx="822.1" cy="293.9" r="3" fill="#59a14f"/>
<circle cx="841.4" cy="298.3" r="3" fill="#59a14f"/>
<circle cx="860.7" cy="295.8" r="3" fill="#59a14f"/>
<circle cx="880.0" cy="289.1" r="3" fill="#59a14f"/>
<rect x="232.0" y="358" width="10" height="10" fill="#59a14f"/>
<text x="246.0" y="367" font-size="11" fill="#333">LLM first token</text>
<polyline points="70.0,93.7 89.3,161.7 108.6,197.4 127.9,213.5 147.1,236.3 166.4,260.6 185.7,213.4 205.0,191.1 224.3,216.8 243.6,228.5 262.9,191.6 282.1,253.8 301.4,205.2 320.7,270.8 340.0,269.3 359.3,248.4 378.6,269.3 397.9,272.7 417.1,267.4 436.4,282.0 455.7,283.9 475.0,286.8 494.3,272.5 513.6,64.7 532.9,268.8 552.1,275.7 571.4,278.6 590.7,281.5 610.0,283.9 629.3,275.7 648.6,264.5 667.9,286.3 687.1,278.6 706.4,281.0 725.7,271.8 745.0,294.1 764.3,287.8 783.6,262.0 802.9,274.7 822.1,286.3 841.4,282.9 860.7,287.8 880.0,276.2" fill="none" stroke="#e15759" stroke-width="2"/>
<circle cx="70.0" cy="93.7" r="3" fill="#e15759"/>
<circle cx="89.3" cy="161.7" r="3" fill="#e15759"/>
<circle cx="108.6" cy="197.4" r="3" fill="#e15759"/>
<circle cx="127.9" cy="213.5" r="3" fill="#e15759"/>
<circle cx="147.1" cy="236.3" r="3" fill="#e15759"/>
<circle cx="166.4" cy="260.6" r="3" fill="#e15759"/>
<circle cx="185.7" cy="213.4" r="3" fill="#e15759"/>
<circle cx="205.0" cy="191.1" r="3" fill="#e15759"/>
<circle cx="224.3" cy="216.8" r="3" fill="#e15759"/>
<circle cx="243.6" cy="228.5" r="3" fill="#e15759"/>
<circle cx="262.9" cy="191.6" r="3" fill="#e15759"/>
<circle cx="282.1" cy="253.8" r="3" fill="#e15759"/>
<circle cx="301.4" cy="205.2" r="3" fill="#e15759"/>
<circle cx="320.7" cy="270.8" r="3" fill="#e15759"/>
<circle cx="340.0" cy="269.3" r="3" fill="#e15759"/>
<circle cx="359.3" cy="248.4" r="3" fill="#e15759"/>
<circle cx="378.6" cy="269.3" r="3" fill="#e15759"/>
<circle cx="397.9" cy="272.7" r="3" fill="#e15759"/>
<circle cx="417.1" cy="267.4" r="3" fill="#e15759"/>
<circle cx="436.4" cy="282.0" r="3" fill="#e15759"/>
<circle cx="455.7" cy="283.9" r="3" fill="#e15759"/>
<circle cx="475.0" cy="286.8" r="3" fill="#e15759"/>
<circle cx="494.3" cy="272.5" r="3" fill="#e15759"/>
<circle cx="513.6" cy="64.7" r="3" fill="#e15759"/>
<circle cx="532.9" cy="268.8" r="3" fill="#e15759"/>
<circle cx="552.1" cy="275.7" r="3" fill="#e15759"/>
<circle cx="571.4" cy="278.6" r="3" fill="#e15759"/>
<circle cx="590.7" cy="281.5" r="3" fill="#e15759"/>
<circle cx="610.0" cy="283.9" r="3" fill="#e15759"/>
<circle cx="629.3" cy="275.7" r="3" fill="#e15759"/>
<circle cx="648.6" cy="264.5" r="3" fill="#e15759"/>
<circle cx="667.9" cy="286.3" r="3" fill="#e15759"/>
<circle cx="687.1" cy="278.6" r="3" fill="#e15759"/>
<circle cx="706.4" cy="281.0" r="3" fill="#e15759"/>
<circle cx="725.7" cy="271.8" r="3" fill="#e15759"/>
<circle cx="745.0" cy="294.1" r="3" fill="#e15759"/>
<circle cx="764.3" cy="287.8" r="3" fill="#e15759"/>
<circle cx="783.6" cy="262.0" r="3" fill="#e15759"/>
<circle cx="802.9" cy="274.7" r="3" fill="#e15759"/>
<circle cx="822.1" cy="286.3" r="3" fill="#e15759"/>
<circle cx="841.4" cy="282.9" r="3" fill="#e15759"/>
<circle cx="860.7" cy="287.8" r="3" fill="#e15759"/>
<circle cx="880.0" cy="276.2" r="3" fill="#e15759"/>
<rect x="394.0" y="358" width="10" height="10" fill="#e15759"/>
<text x="408.0" y="367" font-size="11" fill="#333">received audio</text>
<polyline points="70.0,313.8 89.3,316.9 108.6,315.6 127.9,316.4 147.1,312.7 166.4,320.5 185.7,306.6 205.0,315.1 224.3,317.8 243.6,309.6 262.9,317.4 282.1,319.3 301.4,310.8 320.7,317.9 340.0,313.7 359.3,311.5 378.6,313.9 397.9,315.8 417.1,312.3 436.4,317.7 455.7,316.9 475.0,318.4 494.3,315.2 513.6,317.0 532.9,319.2 552.1,315.3 571.4,319.4 590.7,319.4 610.0,318.9 629.3,310.1 648.6,311.8 667.9,319.8 687.1,318.0 706.4,315.2 725.7,314.7 745.0,320.7 764.3,320.6 783.6,316.9 802.9,316.3 822.1,321.2 841.4,320.4 860.7,321.2 880.0,319.7" fill="none" stroke="#b279a2" stroke-width="2"/>
<circle cx="70.0" cy="313.8" r="3" fill="#b279a2"/>
<circle cx="89.3" cy="316.9" r="3" fill="#b279a2"/>
<circle cx="108.6" cy="315.6" r="3" fill="#b279a2"/>
<circle cx="127.9" cy="316.4" r="3" fill="#b279a2"/>
<circle cx="147.1" cy="312.7" r="3" fill="#b279a2"/>
<circle cx="166.4" cy="320.5" r="3" fill="#b279a2"/>
<circle cx="185.7" cy="306.6" r="3" fill="#b279a2"/>
<circle cx="205.0" cy="315.1" r="3" fill="#b279a2"/>
<circle cx="224.3" cy="317.8" r="3" fill="#b279a2"/>
<circle cx="243.6" cy="309.6" r="3" fill="#b279a2"/>
<circle cx="262.9" cy="317.4" r="3" fill="#b279a2"/>
<circle cx="282.1" cy="319.3" r="3" fill="#b279a2"/>
<circle cx="301.4" cy="310.8" r="3" fill="#b279a2"/>
<circle cx="320.7" cy="317.9" r="3" fill="#b279a2"/>
<circle cx="340.0" cy="313.7" r="3" fill="#b279a2"/>
<circle cx="359.3" cy="311.5" r="3" fill="#b279a2"/>
<circle cx="378.6" cy="313.9" r="3" fill="#b279a2"/>
<circle cx="397.9" cy="315.8" r="3" fill="#b279a2"/>
<circle cx="417.1" cy="312.3" r="3" fill="#b279a2"/>
<circle cx="436.4" cy="317.7" r="3" fill="#b279a2"/>
<circle cx="455.7" cy="316.9" r="3" fill="#b279a2"/>
<circle cx="475.0" cy="318.4" r="3" fill="#b279a2"/>
<circle cx="494.3" cy="315.2" r="3" fill="#b279a2"/>
<circle cx="513.6" cy="317.0" r="3" fill="#b279a2"/>
<circle cx="532.9" cy="319.2" r="3" fill="#b279a2"/>
<circle cx="552.1" cy="315.3" r="3" fill="#b279a2"/>
<circle cx="571.4" cy="319.4" r="3" fill="#b279a2"/>
<circle cx="590.7" cy="319.4" r="3" fill="#b279a2"/>
<circle cx="610.0" cy="318.9" r="3" fill="#b279a2"/>
<circle cx="629.3" cy="310.1" r="3" fill="#b279a2"/>
<circle cx="648.6" cy="311.8" r="3" fill="#b279a2"/>
<circle cx="667.9" cy="319.8" r="3" fill="#b279a2"/>
<circle cx="687.1" cy="318.0" r="3" fill="#b279a2"/>
<circle cx="706.4" cy="315.2" r="3" fill="#b279a2"/>
<circle cx="725.7" cy="314.7" r="3" fill="#b279a2"/>
<circle cx="745.0" cy="320.7" r="3" fill="#b279a2"/>
<circle cx="764.3" cy="320.6" r="3" fill="#b279a2"/>
<circle cx="783.6" cy="316.9" r="3" fill="#b279a2"/>
<circle cx="802.9" cy="316.3" r="3" fill="#b279a2"/>
<circle cx="822.1" cy="321.2" r="3" fill="#b279a2"/>
<circle cx="841.4" cy="320.4" r="3" fill="#b279a2"/>
<circle cx="860.7" cy="321.2" r="3" fill="#b279a2"/>
<circle cx="880.0" cy="319.7" r="3" fill="#b279a2"/>
<rect x="556.0" y="358" width="10" height="10" fill="#b279a2"/>
<text x="570.0" y="367" font-size="11" fill="#333">received mouth</text>
<rect x="718.0" y="358" width="10" height="10" fill="#ff7f0e"/>
<text x="732.0" y="367" font-size="11" fill="#333">server A/V offset</text>
</svg>
