<svg xmlns="http://www.w3.org/2000/svg" width="900" height="380" viewBox="0 0 900 380" font-family="sans-serif">
<rect width="900" height="380" fill="white"/>
<text x="70" y="24" font-size="16" fill="#333">Browser-observed WebRTC latency (ms, p50) — lower is better</text>
<line x1="70" y1="324.0" x2="880" y2="324.0" stroke="#e5e5e5"/>
<text x="64" y="328.0" font-size="11" fill="#666" text-anchor="end">0ms</text>
<line x1="70" y1="268.0" x2="880" y2="268.0" stroke="#e5e5e5"/>
<text x="64" y="272.0" font-size="11" fill="#666" text-anchor="end">2047ms</text>
<line x1="70" y1="212.0" x2="880" y2="212.0" stroke="#e5e5e5"/>
<text x="64" y="216.0" font-size="11" fill="#666" text-anchor="end">4095ms</text>
<line x1="70" y1="156.0" x2="880" y2="156.0" stroke="#e5e5e5"/>
<text x="64" y="160.0" font-size="11" fill="#666" text-anchor="end">6142ms</text>
<line x1="70" y1="100.0" x2="880" y2="100.0" stroke="#e5e5e5"/>
<text x="64" y="104.0" font-size="11" fill="#666" text-anchor="end">8190ms</text>
<line x1="70" y1="44.0" x2="880" y2="44.0" stroke="#e5e5e5"/>
<text x="64" y="48.0" font-size="11" fill="#666" text-anchor="end">10237ms</text>
<text x="70.0" y="342" font-size="11" fill="#666" text-anchor="start">07-16 22:20</text>
<text x="511.8" y="342" font-size="11" fill="#666" text-anchor="middle">07-17 14:57</text>
<text x="880.0" y="342" font-size="11" fill="#666" text-anchor="end">07-17 16:39</text>
<polyline points="70.0,281.9 143.6,277.8 217.3,281.6 290.9,280.8 364.5,277.4 438.2,283.7 511.8,280.4 585.5,278.6 659.1,282.7 732.7,282.6 806.4,285.1 880.0,282.6" fill="none" stroke="#4c78a8" stroke-width="2"/>
<circle cx="70.0" cy="281.9" r="3" fill="#4c78a8"/>
<circle cx="143.6" cy="277.8" r="3" fill="#4c78a8"/>
<circle cx="217.3" cy="281.6" r="3" fill="#4c78a8"/>
<circle cx="290.9" cy="280.8" r="3" fill="#4c78a8"/>
<circle cx="364.5" cy="277.4" r="3" fill="#4c78a8"/>
<circle cx="438.2" cy="283.7" r="3" fill="#4c78a8"/>
<circle cx="511.8" cy="280.4" r="3" fill="#4c78a8"/>
<circle cx="585.5" cy="278.6" r="3" fill="#4c78a8"/>
<circle cx="659.1" cy="282.7" r="3" fill="#4c78a8"/>
<circle cx="732.7" cy="282.6" r="3" fill="#4c78a8"/>
<circle cx="806.4" cy="285.1" r="3" fill="#4c78a8"/>
<circle cx="880.0" cy="282.6" r="3" fill="#4c78a8"/>
<rect x="70.0" y="358" width="10" height="10" fill="#4c78a8"/>
<text x="84.0" y="367" font-size="11" fill="#333">STT final</text>
<polyline points="70.0,274.2 143.6,265.5 217.3,270.9 290.9,270.9 364.5,264.9 438.2,266.7 511.8,268.5 585.5,258.9 659.1,270.2 732.7,265.3 806.4,266.8 880.0,270.8" fill="none" stroke="#59a14f" stroke-width="2"/>
<circle cx="70.0" cy="274.2" r="3" fill="#59a14f"/>
<circle cx="143.6" cy="265.5" r="3" fill="#59a14f"/>
<circle cx="217.3" cy="270.9" r="3" fill="#59a14f"/>
<circle cx="290.9" cy="270.9" r="3" fill="#59a14f"/>
<circle cx="364.5" cy="264.9" r="3" fill="#59a14f"/>
<circle cx="438.2" cy="266.7" r="3" fill="#59a14f"/>
<circle cx="511.8" cy="268.5" r="3" fill="#59a14f"/>
<circle cx="585.5" cy="258.9" r="3" fill="#59a14f"/>
<circle cx="659.1" cy="270.2" r="3" fill="#59a14f"/>
<circle cx="732.7" cy="265.3" r="3" fill="#59a14f"/>
<circle cx="806.4" cy="266.8" r="3" fill="#59a14f"/>
<circle cx="880.0" cy="270.8" r="3" fill="#59a14f"/>
<rect x="232.0" y="358" width="10" height="10" fill="#59a14f"/>
<text x="246.0" y="367" font-size="11" fill="#333">LLM first token</text>
<polyline points="70.0,64.7 143.6,141.3 217.3,181.5 290.9,199.6 364.5,225.3 438.2,252.6 511.8,199.5 585.5,174.4 659.1,203.4 732.7,216.5 806.4,175.0 880.0,245.0" fill="none" stroke="#e15759" stroke-width="2"/>
<circle cx="70.0" cy="64.7" r="3" fill="#e15759"/>
<circle cx="143.6" cy="141.3" r="3" fill="#e15759"/>
<circle cx="217.3" cy="181.5" r="3" fill="#e15759"/>
<circle cx="290.9" cy="199.6" r="3" fill="#e15759"/>
<circle cx="364.5" cy="225.3" r="3" fill="#e15759"/>
<circle cx="438.2" cy="252.6" r="3" fill="#e15759"/>
<circle cx="511.8" cy="199.5" r="3" fill="#e15759"/>
<circle cx="585.5" cy="174.4" r="3" fill="#e15759"/>
<circle cx="659.1" cy="203.4" r="3" fill="#e15759"/>
<circle cx="732.7" cy="216.5" r="3" fill="#e15759"/>
<circle cx="806.4" cy="175.0" r="3" fill="#e15759"/>
<circle cx="880.0" cy="245.0" r="3" fill="#e15759"/>
<rect x="394.0" y="358" width="10" height="10" fill="#e15759"/>
<text x="408.0" y="367" font-size="11" fill="#333">received audio</text>
<polyline points="70.0,312.5 143.6,316.0 217.3,314.6 290.9,315.4 364.5,311.2 438.2,320.1 511.8,304.4 585.5,313.9 659.1,317.1 732.7,307.8 806.4,316.6 880.0,318.8" fill="none" stroke="#b279a2" stroke-width="2"/>
<circle cx="70.0" cy="312.5" r="3" fill="#b279a2"/>
<circle cx="143.6" cy="316.0" r="3" fill="#b279a2"/>
<circle cx="217.3" cy="314.6" r="3" fill="#b279a2"/>
<circle cx="290.9" cy="315.4" r="3" fill="#b279a2"/>
<circle cx="364.5" cy="311.2" r="3" fill="#b279a2"/>
<circle cx="438.2" cy="320.1" r="3" fill="#b279a2"/>
<circle cx="511.8" cy="304.4" r="3" fill="#b279a2"/>
<circle cx="585.5" cy="313.9" r="3" fill="#b279a2"/>
<circle cx="659.1" cy="317.1" r="3" fill="#b279a2"/>
<circle cx="732.7" cy="307.8" r="3" fill="#b279a2"/>
<circle cx="806.4" cy="316.6" r="3" fill="#b279a2"/>
<circle cx="880.0" cy="318.8" r="3" fill="#b279a2"/>
<rect x="556.0" y="358" width="10" height="10" fill="#b279a2"/>
<text x="570.0" y="367" font-size="11" fill="#333">received mouth</text>
<rect x="718.0" y="358" width="10" height="10" fill="#ff7f0e"/>
<text x="732.0" y="367" font-size="11" fill="#333">server A/V offset</text>
</svg>
