<svg xmlns="http://www.w3.org/2000/svg" width="900" height="380" viewBox="0 0 900 380" font-family="sans-serif">
<rect width="900" height="380" fill="white"/>
<text x="70" y="24" font-size="16" fill="#333">Browser-observed WebRTC latency (ms, p50) — lower is better</text>
<line x1="70" y1="324.0" x2="880" y2="324.0" stroke="#e5e5e5"/>
<text x="64" y="328.0" font-size="11" fill="#666" text-anchor="end">0ms</text>
<line x1="70" y1="268.0" x2="880" y2="268.0" stroke="#e5e5e5"/>
<text x="64" y="272.0" font-size="11" fill="#666" text-anchor="end">2305ms</text>
<line x1="70" y1="212.0" x2="880" y2="212.0" stroke="#e5e5e5"/>
<text x="64" y="216.0" font-size="11" fill="#666" text-anchor="end">4609ms</text>
<line x1="70" y1="156.0" x2="880" y2="156.0" stroke="#e5e5e5"/>
<text x="64" y="160.0" font-size="11" fill="#666" text-anchor="end">6914ms</text>
<line x1="70" y1="100.0" x2="880" y2="100.0" stroke="#e5e5e5"/>
<text x="64" y="104.0" font-size="11" fill="#666" text-anchor="end">9219ms</text>
<line x1="70" y1="44.0" x2="880" y2="44.0" stroke="#e5e5e5"/>
<text x="64" y="48.0" font-size="11" fill="#666" text-anchor="end">11523ms</text>
<text x="70.0" y="342" font-size="11" fill="#666" text-anchor="start">07-16 22:20</text>
<text x="492.6" y="342" font-size="11" fill="#666" text-anchor="middle">07-17 16:43</text>
<text x="880.0" y="342" font-size="11" fill="#666" text-anchor="end">07-17 20:14</text>
<polyline points="70.0,286.6 105.2,283.0 140.4,286.3 175.7,285.6 210.9,282.6 246.1,288.2 281.3,285.3 316.5,283.7 351.7,287.3 387.0,287.2 422.2,289.4 457.4,287.2 492.6,284.5 527.8,295.8 563.0,298.9 598.3,295.9 633.5,297.1 668.7,299.0 703.9,294.2 739.1,303.9 774.3,305.8 809.6,302.6 844.8,306.9 880.0,295.9" fill="none" stroke="#4c78a8" stroke-width="2"/>
<circle cx="70.0" cy="286.6" r="3" fill="#4c78a8"/>
<circle cx="105.2" cy="283.0" r="3" fill="#4c78a8"/>
<circle cx="140.4" cy="286.3" r="3" fill="#4c78a8"/>
<circle cx="175.7" cy="285.6" r="3" fill="#4c78a8"/>
<circle cx="210.9" cy="282.6" r="3" fill="#4c78a8"/>
<circle cx="246.1" cy="288.2" r="3" fill="#4c78a8"/>
<circle cx="281.3" cy="285.3" r="3" fill="#4c78a8"/>
<circle cx="316.5" cy="283.7" r="3" fill="#4c78a8"/>
<circle cx="351.7" cy="287.3" r="3" fill="#4c78a8"/>
<circle cx="387.0" cy="287.2" r="3" fill="#4c78a8"/>
<circle cx="422.2" cy="289.4" r="3" fill="#4c78a8"/>
<circle cx="457.4" cy="287.2" r="3" fill="#4c78a8"/>
<circle cx="492.6" cy="284.5" r="3" fill="#4c78a8"/>
<circle cx="527.8" cy="295.8" r="3" fill="#4c78a8"/>
<circle cx="563.0" cy="298.9" r="3" fill="#4c78a8"/>
<circle cx="598.3" cy="295.9" r="3" fill="#4c78a8"/>
<circle cx="633.5" cy="297.1" r="3" fill="#4c78a8"/>
<circle cx="668.7" cy="299.0" r="3" fill="#4c78a8"/>
<circle cx="703.9" cy="294.2" r="3" fill="#4c78a8"/>
<circle cx="739.1" cy="303.9" r="3" fill="#4c78a8"/>
<circle cx="774.3" cy="305.8" r="3" fill="#4c78a8"/>
<circle cx="809.6" cy="302.6" r="3" fill="#4c78a8"/>
<circle cx="844.8" cy="306.9" r="3" fill="#4c78a8"/>
<circle cx="880.0" cy="295.9" r="3" fill="#4c78a8"/>
<rect x="70.0" y="358" width="10" height="10" fill="#4c78a8"/>
<text x="84.0" y="367" font-size="11" fill="#333">STT final</text>
<polyline points="70.0,279.7 105.2,272.0 140.4,276.8 175.7,276.8 210.9,271.5 246.1,273.1 281.3,274.7 316.5,266.2 351.7,276.2 387.0,271.8 422.2,273.2 457.4,276.7 492.6,273.0 527.8,287.5 563.0,288.1 598.3,277.4 633.5,283.6 668.7,287.3 703.9,284.1 739.1,295.0 774.3,294.7 809.6,296.8 844.8,290.6 880.0,235.7" fill="none" stroke="#59a14f" stroke-width="2"/>
<circle cx="70.0" cy="279.7" r="3" fill="#59a14f"/>
<circle cx="105.2" cy="272.0" r="3" fill="#59a14f"/>
<circle cx="140.4" cy="276.8" r="3" fill="#59a14f"/>
<circle cx="175.7" cy="276.8" r="3" fill="#59a14f"/>
<circle cx="210.9" cy="271.5" r="3" fill="#59a14f"/>
<circle cx="246.1" cy="273.1" r="3" fill="#59a14f"/>
<circle cx="281.3" cy="274.7" r="3" fill="#59a14f"/>
<circle cx="316.5" cy="266.2" r="3" fill="#59a14f"/>
<circle cx="351.7" cy="276.2" r="3" fill="#59a14f"/>
<circle cx="387.0" cy="271.8" r="3" fill="#59a14f"/>
<circle cx="422.2" cy="273.2" r="3" fill="#59a14f"/>
<circle cx="457.4" cy="276.7" r="3" fill="#59a14f"/>
<circle cx="492.6" cy="273.0" r="3" fill="#59a14f"/>
<circle cx="527.8" cy="287.5" r="3" fill="#59a14f"/>
<circle cx="563.0" cy="288.1" r="3" fill="#59a14f"/>
<circle cx="598.3" cy="277.4" r="3" fill="#59a14f"/>
<circle cx="633.5" cy="283.6" r="3" fill="#59a14f"/>
<circle cx="668.7" cy="287.3" r="3" fill="#59a14f"/>
<circle cx="703.9" cy="284.1" r="3" fill="#59a14f"/>
<circle cx="739.1" cy="295.0" r="3" fill="#59a14f"/>
<circle cx="774.3" cy="294.7" r="3" fill="#59a14f"/>
<circle cx="809.6" cy="296.8" r="3" fill="#59a14f"/>
<circle cx="844.8" cy="290.6" r="3" fill="#59a14f"/>
<circle cx="880.0" cy="235.7" r="3" fill="#59a14f"/>
<rect x="232.0" y="358" width="10" height="10" fill="#59a14f"/>
<text x="246.0" y="367" font-size="11" fill="#333">LLM first token</text>
<polyline points="70.0,93.7 105.2,161.7 140.4,197.4 175.7,213.5 210.9,236.3 246.1,260.6 281.3,213.4 316.5,191.1 351.7,216.8 387.0,228.5 422.2,191.6 457.4,253.8 492.6,205.2 527.8,270.8 563.0,269.3 598.3,248.4 633.5,269.3 668.7,272.7 703.9,267.4 739.1,282.0 774.3,283.9 809.6,286.8 844.8,272.5 880.0,64.7" fill="none" stroke="#e15759" stroke-width="2"/>
<circle cx="70.0" cy="93.7" r="3" fill="#e15759"/>
<circle cx="105.2" cy="161.7" r="3" fill="#e15759"/>
<circle cx="140.4" cy="197.4" r="3" fill="#e15759"/>
<circle cx="175.7" cy="213.5" r="3" fill="#e15759"/>
<circle cx="210.9" cy="236.3" r="3" fill="#e15759"/>
<circle cx="246.1" cy="260.6" r="3" fill="#e15759"/>
<circle cx="281.3" cy="213.4" r="3" fill="#e15759"/>
<circle cx="316.5" cy="191.1" r="3" fill="#e15759"/>
<circle cx="351.7" cy="216.8" r="3" fill="#e15759"/>
<circle cx="387.0" cy="228.5" r="3" fill="#e15759"/>
<circle cx="422.2" cy="191.6" r="3" fill="#e15759"/>
<circle cx="457.4" cy="253.8" r="3" fill="#e15759"/>
<circle cx="492.6" cy="205.2" r="3" fill="#e15759"/>
<circle cx="527.8" cy="270.8" r="3" fill="#e15759"/>
<circle cx="563.0" cy="269.3" r="3" fill="#e15759"/>
<circle cx="598.3" cy="248.4" r="3" fill="#e15759"/>
<circle cx="633.5" cy="269.3" r="3" fill="#e15759"/>
<circle cx="668.7" cy="272.7" r="3" fill="#e15759"/>
<circle cx="703.9" cy="267.4" r="3" fill="#e15759"/>
<circle cx="739.1" cy="282.0" r="3" fill="#e15759"/>
<circle cx="774.3" cy="283.9" r="3" fill="#e15759"/>
<circle cx="809.6" cy="286.8" r="3" fill="#e15759"/>
<circle cx="844.8" cy="272.5" r="3" fill="#e15759"/>
<circle cx="880.0" cy="64.7" r="3" fill="#e15759"/>
<rect x="394.0" y="358" width="10" height="10" fill="#e15759"/>
<text x="408.0" y="367" font-size="11" fill="#333">received audio</text>
<polyline points="70.0,313.8 105.2,316.9 140.4,315.6 175.7,316.4 210.9,312.7 246.1,320.5 281.3,306.6 316.5,315.1 351.7,317.8 387.0,309.6 422.2,317.4 457.4,319.3 492.6,310.8 527.8,317.9 563.0,313.7 598.3,311.5 633.5,313.9 668.7,315.8 703.9,312.3 739.1,317.7 774.3,316.9 809.6,318.4 844.8,315.2 880.0,317.0" fill="none" stroke="#b279a2" stroke-width="2"/>
<circle cx="70.0" cy="313.8" r="3" fill="#b279a2"/>
<circle cx="105.2" cy="316.9" r="3" fill="#b279a2"/>
<circle cx="140.4" cy="315.6" r="3" fill="#b279a2"/>
<circle cx="175.7" cy="316.4" r="3" fill="#b279a2"/>
<circle cx="210.9" cy="312.7" r="3" fill="#b279a2"/>
<circle cx="246.1" cy="320.5" r="3" fill="#b279a2"/>
<circle cx="281.3" cy="306.6" r="3" fill="#b279a2"/>
<circle cx="316.5" cy="315.1" r="3" fill="#b279a2"/>
<circle cx="351.7" cy="317.8" r="3" fill="#b279a2"/>
<circle cx="387.0" cy="309.6" r="3" fill="#b279a2"/>
<circle cx="422.2" cy="317.4" r="3" fill="#b279a2"/>
<circle cx="457.4" cy="319.3" r="3" fill="#b279a2"/>
<circle cx="492.6" cy="310.8" r="3" fill="#b279a2"/>
<circle cx="527.8" cy="317.9" r="3" fill="#b279a2"/>
<circle cx="563.0" cy="313.7" r="3" fill="#b279a2"/>
<circle cx="598.3" cy="311.5" r="3" fill="#b279a2"/>
<circle cx="633.5" cy="313.9" r="3" fill="#b279a2"/>
<circle cx="668.7" cy="315.8" r="3" fill="#b279a2"/>
<circle cx="703.9" cy="312.3" r="3" fill="#b279a2"/>
<circle cx="739.1" cy="317.7" r="3" fill="#b279a2"/>
<circle cx="774.3" cy="316.9" r="3" fill="#b279a2"/>
<circle cx="809.6" cy="318.4" r="3" fill="#b279a2"/>
<circle cx="844.8" cy="315.2" r="3" fill="#b279a2"/>
<circle cx="880.0" cy="317.0" r="3" fill="#b279a2"/>
<rect x="556.0" y="358" width="10" height="10" fill="#b279a2"/>
<text x="570.0" y="367" font-size="11" fill="#333">received mouth</text>
<rect x="718.0" y="358" width="10" height="10" fill="#ff7f0e"/>
<text x="732.0" y="367" font-size="11" fill="#333">server A/V offset</text>
</svg>
