<svg xmlns="http://www.w3.org/2000/svg" width="900" height="380" viewBox="0 0 900 380" font-family="sans-serif">
<rect width="900" height="380" fill="white"/>
<text x="70" y="24" font-size="16" fill="#333">Browser-observed WebRTC latency (ms, p50) — lower is better</text>
<line x1="70" y1="324.0" x2="880" y2="324.0" stroke="#e5e5e5"/>
<text x="64" y="328.0" font-size="11" fill="#666" text-anchor="end">0ms</text>
<line x1="70" y1="268.0" x2="880" y2="268.0" stroke="#e5e5e5"/>
<text x="64" y="272.0" font-size="11" fill="#666" text-anchor="end">2305ms</text>
<line x1="70" y1="212.0" x2="880" y2="212.0" stroke="#e5e5e5"/>
<text x="64" y="216.0" font-size="11" fill="#666" text-anchor="end">4609ms</text>
<line x1="70" y1="156.0" x2="880" y2="156.0" stroke="#e5e5e5"/>
<text x="64" y="160.0" font-size="11" fill="#666" text-anchor="end">6914ms</text>
<line x1="70" y1="100.0" x2="880" y2="100.0" stroke="#e5e5e5"/>
<text x="64" y="104.0" font-size="11" fill="#666" text-anchor="end">9219ms</text>
<line x1="70" y1="44.0" x2="880" y2="44.0" stroke="#e5e5e5"/>
<text x="64" y="48.0" font-size="11" fill="#666" text-anchor="end">11523ms</text>
<text x="70.0" y="342" font-size="11" fill="#666" text-anchor="start">07-16 22:20</text>
<text x="488.1" y="342" font-size="11" fill="#666" text-anchor="middle">07-17 19:30</text>
<text x="880.0" y="342" font-size="11" fill="#666" text-anchor="end">07-17 22:04</text>
<polyline points="70.0,286.6 96.1,283.0 122.3,286.3 148.4,285.6 174.5,282.6 200.6,288.2 226.8,285.3 252.9,283.7 279.0,287.3 305.2,287.2 331.3,289.4 357.4,287.2 383.5,284.5 409.7,295.8 435.8,298.9 461.9,295.9 488.1,297.1 514.2,299.0 540.3,294.2 566.5,303.9 592.6,305.8 618.7,302.6 644.8,306.9 671.0,295.9 697.1,303.4 723.2,304.4 749.4,303.2 775.5,306.1 801.6,303.7 827.7,305.2 853.9,302.0 880.0,306.2" fill="none" stroke="#4c78a8" stroke-width="2"/>
<circle cx="70.0" cy="286.6" r="3" fill="#4c78a8"/>
<circle cx="96.1" cy="283.0" r="3" fill="#4c78a8"/>
<circle cx="122.3" cy="286.3" r="3" fill="#4c78a8"/>
<circle cx="148.4" cy="285.6" r="3" fill="#4c78a8"/>
<circle cx="174.5" cy="282.6" r="3" fill="#4c78a8"/>
<circle cx="200.6" cy="288.2" r="3" fill="#4c78a8"/>
<circle cx="226.8" cy="285.3" r="3" fill="#4c78a8"/>
<circle cx="252.9" cy="283.7" r="3" fill="#4c78a8"/>
<circle cx="279.0" cy="287.3" r="3" fill="#4c78a8"/>
<circle cx="305.2" cy="287.2" r="3" fill="#4c78a8"/>
<circle cx="331.3" cy="289.4" r="3" fill="#4c78a8"/>
<circle cx="357.4" cy="287.2" r="3" fill="#4c78a8"/>
<circle cx="383.5" cy="284.5" r="3" fill="#4c78a8"/>
<circle cx="409.7" cy="295.8" r="3" fill="#4c78a8"/>
<circle cx="435.8" cy="298.9" r="3" fill="#4c78a8"/>
<circle cx="461.9" cy="295.9" r="3" fill="#4c78a8"/>
<circle cx="488.1" cy="297.1" r="3" fill="#4c78a8"/>
<circle cx="514.2" cy="299.0" r="3" fill="#4c78a8"/>
<circle cx="540.3" cy="294.2" r="3" fill="#4c78a8"/>
<circle cx="566.5" cy="303.9" r="3" fill="#4c78a8"/>
<circle cx="592.6" cy="305.8" r="3" fill="#4c78a8"/>
<circle cx="618.7" cy="302.6" r="3" fill="#4c78a8"/>
<circle cx="644.8" cy="306.9" r="3" fill="#4c78a8"/>
<circle cx="671.0" cy="295.9" r="3" fill="#4c78a8"/>
<circle cx="697.1" cy="303.4" r="3" fill="#4c78a8"/>
<circle cx="723.2" cy="304.4" r="3" fill="#4c78a8"/>
<circle cx="749.4" cy="303.2" r="3" fill="#4c78a8"/>
<circle cx="775.5" cy="306.1" r="3" fill="#4c78a8"/>
<circle cx="801.6" cy="303.7" r="3" fill="#4c78a8"/>
<circle cx="827.7" cy="305.2" r="3" fill="#4c78a8"/>
<circle cx="853.9" cy="302.0" r="3" fill="#4c78a8"/>
<circle cx="880.0" cy="306.2" r="3" fill="#4c78a8"/>
<rect x="70.0" y="358" width="10" height="10" fill="#4c78a8"/>
<text x="84.0" y="367" font-size="11" fill="#333">STT final</text>
<polyline points="70.0,279.7 96.1,272.0 122.3,276.8 148.4,276.8 174.5,271.5 200.6,273.1 226.8,274.7 252.9,266.2 279.0,276.2 305.2,271.8 331.3,273.2 357.4,276.7 383.5,273.0 409.7,287.5 435.8,288.1 461.9,277.4 488.1,283.6 514.2,287.3 540.3,284.1 566.5,295.0 592.6,294.7 618.7,296.8 644.8,290.6 671.0,235.7 697.1,287.8 723.2,295.2 749.4,291.0 775.5,295.8 801.6,293.3 827.7,288.3 853.9,280.2 880.0,297.5" fill="none" stroke="#59a14f" stroke-width="2"/>
<circle cx="70.0" cy="279.7" r="3" fill="#59a14f"/>
<circle cx="96.1" cy="272.0" r="3" fill="#59a14f"/>
<circle cx="122.3" cy="276.8" r="3" fill="#59a14f"/>
<circle cx="148.4" cy="276.8" r="3" fill="#59a14f"/>
<circle cx="174.5" cy="271.5" r="3" fill="#59a14f"/>
<circle cx="200.6" cy="273.1" r="3" fill="#59a14f"/>
<circle cx="226.8" cy="274.7" r="3" fill="#59a14f"/>
<circle cx="252.9" cy="266.2" r="3" fill="#59a14f"/>
<circle cx="279.0" cy="276.2" r="3" fill="#59a14f"/>
<circle cx="305.2" cy="271.8" r="3" fill="#59a14f"/>
<circle cx="331.3" cy="273.2" r="3" fill="#59a14f"/>
<circle cx="357.4" cy="276.7" r="3" fill="#59a14f"/>
<circle cx="383.5" cy="273.0" r="3" fill="#59a14f"/>
<circle cx="409.7" cy="287.5" r="3" fill="#59a14f"/>
<circle cx="435.8" cy="288.1" r="3" fill="#59a14f"/>
<circle cx="461.9" cy="277.4" r="3" fill="#59a14f"/>
<circle cx="488.1" cy="283.6" r="3" fill="#59a14f"/>
<circle cx="514.2" cy="287.3" r="3" fill="#59a14f"/>
<circle cx="540.3" cy="284.1" r="3" fill="#59a14f"/>
<circle cx="566.5" cy="295.0" r="3" fill="#59a14f"/>
<circle cx="592.6" cy="294.7" r="3" fill="#59a14f"/>
<circle cx="618.7" cy="296.8" r="3" fill="#59a14f"/>
<circle cx="644.8" cy="290.6" r="3" fill="#59a14f"/>
<circle cx="671.0" cy="235.7" r="3" fill="#59a14f"/>
<circle cx="697.1" cy="287.8" r="3" fill="#59a14f"/>
<circle cx="723.2" cy="295.2" r="3" fill="#59a14f"/>
<circle cx="749.4" cy="291.0" r="3" fill="#59a14f"/>
<circle cx="775.5" cy="295.8" r="3" fill="#59a14f"/>
<circle cx="801.6" cy="293.3" r="3" fill="#59a14f"/>
<circle cx="827.7" cy="288.3" r="3" fill="#59a14f"/>
<circle cx="853.9" cy="280.2" r="3" fill="#59a14f"/>
<circle cx="880.0" cy="297.5" r="3" fill="#59a14f"/>
<rect x="232.0" y="358" width="10" height="10" fill="#59a14f"/>
<text x="246.0" y="367" font-size="11" fill="#333">LLM first token</text>
<polyline points="70.0,93.7 96.1,161.7 122.3,197.4 148.4,213.5 174.5,236.3 200.6,260.6 226.8,213.4 252.9,191.1 279.0,216.8 305.2,228.5 331.3,191.6 357.4,253.8 383.5,205.2 409.7,270.8 435.8,269.3 461.9,248.4 488.1,269.3 514.2,272.7 540.3,267.4 566.5,282.0 592.6,283.9 618.7,286.8 644.8,272.5 671.0,64.7 697.1,268.8 723.2,275.7 749.4,278.6 775.5,281.5 801.6,283.9 827.7,275.7 853.9,264.5 880.0,286.3" fill="none" stroke="#e15759" stroke-width="2"/>
<circle cx="70.0" cy="93.7" r="3" fill="#e15759"/>
<circle cx="96.1" cy="161.7" r="3" fill="#e15759"/>
<circle cx="122.3" cy="197.4" r="3" fill="#e15759"/>
<circle cx="148.4" cy="213.5" r="3" fill="#e15759"/>
<circle cx="174.5" cy="236.3" r="3" fill="#e15759"/>
<circle cx="200.6" cy="260.6" r="3" fill="#e15759"/>
<circle cx="226.8" cy="213.4" r="3" fill="#e15759"/>
<circle cx="252.9" cy="191.1" r="3" fill="#e15759"/>
<circle cx="279.0" cy="216.8" r="3" fill="#e15759"/>
<circle cx="305.2" cy="228.5" r="3" fill="#e15759"/>
<circle cx="331.3" cy="191.6" r="3" fill="#e15759"/>
<circle cx="357.4" cy="253.8" r="3" fill="#e15759"/>
<circle cx="383.5" cy="205.2" r="3" fill="#e15759"/>
<circle cx="409.7" cy="270.8" r="3" fill="#e15759"/>
<circle cx="435.8" cy="269.3" r="3" fill="#e15759"/>
<circle cx="461.9" cy="248.4" r="3" fill="#e15759"/>
<circle cx="488.1" cy="269.3" r="3" fill="#e15759"/>
<circle cx="514.2" cy="272.7" r="3" fill="#e15759"/>
<circle cx="540.3" cy="267.4" r="3" fill="#e15759"/>
<circle cx="566.5" cy="282.0" r="3" fill="#e15759"/>
<circle cx="592.6" cy="283.9" r="3" fill="#e15759"/>
<circle cx="618.7" cy="286.8" r="3" fill="#e15759"/>
<circle cx="644.8" cy="272.5" r="3" fill="#e15759"/>
<circle cx="671.0" cy="64.7" r="3" fill="#e15759"/>
<circle cx="697.1" cy="268.8" r="3" fill="#e15759"/>
<circle cx="723.2" cy="275.7" r="3" fill="#e15759"/>
<circle cx="749.4" cy="278.6" r="3" fill="#e15759"/>
<circle cx="775.5" cy="281.5" r="3" fill="#e15759"/>
<circle cx="801.6" cy="283.9" r="3" fill="#e15759"/>
<circle cx="827.7" cy="275.7" r="3" fill="#e15759"/>
<circle cx="853.9" cy="264.5" r="3" fill="#e15759"/>
<circle cx="880.0" cy="286.3" r="3" fill="#e15759"/>
<rect x="394.0" y="358" width="10" height="10" fill="#e15759"/>
<text x="408.0" y="367" font-size="11" fill="#333">received audio</text>
<polyline points="70.0,313.8 96.1,316.9 122.3,315.6 148.4,316.4 174.5,312.7 200.6,320.5 226.8,306.6 252.9,315.1 279.0,317.8 305.2,309.6 331.3,317.4 357.4,319.3 383.5,310.8 409.7,317.9 435.8,313.7 461.9,311.5 488.1,313.9 514.2,315.8 540.3,312.3 566.5,317.7 592.6,316.9 618.7,318.4 644.8,315.2 671.0,317.0 697.1,319.2 723.2,315.3 749.4,319.4 775.5,319.4 801.6,318.9 827.7,310.1 853.9,311.8 880.0,319.8" fill="none" stroke="#b279a2" stroke-width="2"/>
<circle cx="70.0" cy="313.8" r="3" fill="#b279a2"/>
<circle cx="96.1" cy="316.9" r="3" fill="#b279a2"/>
<circle cx="122.3" cy="315.6" r="3" fill="#b279a2"/>
<circle cx="148.4" cy="316.4" r="3" fill="#b279a2"/>
<circle cx="174.5" cy="312.7" r="3" fill="#b279a2"/>
<circle cx="200.6" cy="320.5" r="3" fill="#b279a2"/>
<circle cx="226.8" cy="306.6" r="3" fill="#b279a2"/>
<circle cx="252.9" cy="315.1" r="3" fill="#b279a2"/>
<circle cx="279.0" cy="317.8" r="3" fill="#b279a2"/>
<circle cx="305.2" cy="309.6" r="3" fill="#b279a2"/>
<circle cx="331.3" cy="317.4" r="3" fill="#b279a2"/>
<circle cx="357.4" cy="319.3" r="3" fill="#b279a2"/>
<circle cx="383.5" cy="310.8" r="3" fill="#b279a2"/>
<circle cx="409.7" cy="317.9" r="3" fill="#b279a2"/>
<circle cx="435.8" cy="313.7" r="3" fill="#b279a2"/>
<circle cx="461.9" cy="311.5" r="3" fill="#b279a2"/>
<circle cx="488.1" cy="313.9" r="3" fill="#b279a2"/>
<circle cx="514.2" cy="315.8" r="3" fill="#b279a2"/>
<circle cx="540.3" cy="312.3" r="3" fill="#b279a2"/>
<circle cx="566.5" cy="317.7" r="3" fill="#b279a2"/>
<circle cx="592.6" cy="316.9" r="3" fill="#b279a2"/>
<circle cx="618.7" cy="318.4" r="3" fill="#b279a2"/>
<circle cx="644.8" cy="315.2" r="3" fill="#b279a2"/>
<circle cx="671.0" cy="317.0" r="3" fill="#b279a2"/>
<circle cx="697.1" cy="319.2" r="3" fill="#b279a2"/>
<circle cx="723.2" cy="315.3" r="3" fill="#b279a2"/>
<circle cx="749.4" cy="319.4" r="3" fill="#b279a2"/>
<circle cx="775.5" cy="319.4" r="3" fill="#b279a2"/>
<circle cx="801.6" cy="318.9" r="3" fill="#b279a2"/>
<circle cx="827.7" cy="310.1" r="3" fill="#b279a2"/>
<circle cx="853.9" cy="311.8" r="3" fill="#b279a2"/>
<circle cx="880.0" cy="319.8" r="3" fill="#b279a2"/>
<rect x="556.0" y="358" width="10" height="10" fill="#b279a2"/>
<text x="570.0" y="367" font-size="11" fill="#333">received mouth</text>
<rect x="718.0" y="358" width="10" height="10" fill="#ff7f0e"/>
<text x="732.0" y="367" font-size="11" fill="#333">server A/V offset</text>
</svg>
