<svg xmlns="http://www.w3.org/2000/svg" width="900" height="380" viewBox="0 0 900 380" font-family="sans-serif">
<rect width="900" height="380" fill="white"/>
<text x="70" y="24" font-size="16" fill="#333">Browser-observed WebRTC latency (ms, p50) — lower is better</text>
<line x1="70" y1="324.0" x2="880" y2="324.0" stroke="#e5e5e5"/>
<text x="64" y="328.0" font-size="11" fill="#666" text-anchor="end">0ms</text>
<line x1="70" y1="268.0" x2="880" y2="268.0" stroke="#e5e5e5"/>
<text x="64" y="272.0" font-size="11" fill="#666" text-anchor="end">2047ms</text>
<line x1="70" y1="212.0" x2="880" y2="212.0" stroke="#e5e5e5"/>
<text x="64" y="216.0" font-size="11" fill="#666" text-anchor="end">4095ms</text>
<line x1="70" y1="156.0" x2="880" y2="156.0" stroke="#e5e5e5"/>
<text x="64" y="160.0" font-size="11" fill="#666" text-anchor="end">6142ms</text>
<line x1="70" y1="100.0" x2="880" y2="100.0" stroke="#e5e5e5"/>
<text x="64" y="104.0" font-size="11" fill="#666" text-anchor="end">8190ms</text>
<line x1="70" y1="44.0" x2="880" y2="44.0" stroke="#e5e5e5"/>
<text x="64" y="48.0" font-size="11" fill="#666" text-anchor="end">10237ms</text>
<text x="70.0" y="342" font-size="11" fill="#666" text-anchor="start">07-16 22:20</text>
<text x="506.2" y="342" font-size="11" fill="#666" text-anchor="middle">07-17 15:16</text>
<text x="880.0" y="342" font-size="11" fill="#666" text-anchor="end">07-17 18:48</text>
<polyline points="70.0,281.9 132.3,277.8 194.6,281.6 256.9,280.8 319.2,277.4 381.5,283.7 443.8,280.4 506.2,278.6 568.5,282.7 630.8,282.6 693.1,285.1 755.4,282.6 817.7,279.5 880.0,292.3" fill="none" stroke="#4c78a8" stroke-width="2"/>
<circle cx="70.0" cy="281.9" r="3" fill="#4c78a8"/>
<circle cx="132.3" cy="277.8" r="3" fill="#4c78a8"/>
<circle cx="194.6" cy="281.6" r="3" fill="#4c78a8"/>
<circle cx="256.9" cy="280.8" r="3" fill="#4c78a8"/>
<circle cx="319.2" cy="277.4" r="3" fill="#4c78a8"/>
<circle cx="381.5" cy="283.7" r="3" fill="#4c78a8"/>
<circle cx="443.8" cy="280.4" r="3" fill="#4c78a8"/>
<circle cx="506.2" cy="278.6" r="3" fill="#4c78a8"/>
<circle cx="568.5" cy="282.7" r="3" fill="#4c78a8"/>
<circle cx="630.8" cy="282.6" r="3" fill="#4c78a8"/>
<circle cx="693.1" cy="285.1" r="3" fill="#4c78a8"/>
<circle cx="755.4" cy="282.6" r="3" fill="#4c78a8"/>
<circle cx="817.7" cy="279.5" r="3" fill="#4c78a8"/>
<circle cx="880.0" cy="292.3" r="3" fill="#4c78a8"/>
<rect x="70.0" y="358" width="10" height="10" fill="#4c78a8"/>
<text x="84.0" y="367" font-size="11" fill="#333">STT final</text>
<polyline points="70.0,274.2 132.3,265.5 194.6,270.9 256.9,270.9 319.2,264.9 381.5,266.7 443.8,268.5 506.2,258.9 568.5,270.2 630.8,265.3 693.1,266.8 755.4,270.8 817.7,266.6 880.0,282.9" fill="none" stroke="#59a14f" stroke-width="2"/>
<circle cx="70.0" cy="274.2" r="3" fill="#59a14f"/>
<circle cx="132.3" cy="265.5" r="3" fill="#59a14f"/>
<circle cx="194.6" cy="270.9" r="3" fill="#59a14f"/>
<circle cx="256.9" cy="270.9" r="3" fill="#59a14f"/>
<circle cx="319.2" cy="264.9" r="3" fill="#59a14f"/>
<circle cx="381.5" cy="266.7" r="3" fill="#59a14f"/>
<circle cx="443.8" cy="268.5" r="3" fill="#59a14f"/>
<circle cx="506.2" cy="258.9" r="3" fill="#59a14f"/>
<circle cx="568.5" cy="270.2" r="3" fill="#59a14f"/>
<circle cx="630.8" cy="265.3" r="3" fill="#59a14f"/>
<circle cx="693.1" cy="266.8" r="3" fill="#59a14f"/>
<circle cx="755.4" cy="270.8" r="3" fill="#59a14f"/>
<circle cx="817.7" cy="266.6" r="3" fill="#59a14f"/>
<circle cx="880.0" cy="282.9" r="3" fill="#59a14f"/>
<rect x="232.0" y="358" width="10" height="10" fill="#59a14f"/>
<text x="246.0" y="367" font-size="11" fill="#333">LLM first token</text>
<polyline points="70.0,64.7 132.3,141.3 194.6,181.5 256.9,199.6 319.2,225.3 381.5,252.6 443.8,199.5 506.2,174.4 568.5,203.4 630.8,216.5 693.1,175.0 755.4,245.0 817.7,190.3 880.0,264.1" fill="none" stroke="#e15759" stroke-width="2"/>
<circle cx="70.0" cy="64.7" r="3" fill="#e15759"/>
<circle cx="132.3" cy="141.3" r="3" fill="#e15759"/>
<circle cx="194.6" cy="181.5" r="3" fill="#e15759"/>
<circle cx="256.9" cy="199.6" r="3" fill="#e15759"/>
<circle cx="319.2" cy="225.3" r="3" fill="#e15759"/>
<circle cx="381.5" cy="252.6" r="3" fill="#e15759"/>
<circle cx="443.8" cy="199.5" r="3" fill="#e15759"/>
<circle cx="506.2" cy="174.4" r="3" fill="#e15759"/>
<circle cx="568.5" cy="203.4" r="3" fill="#e15759"/>
<circle cx="630.8" cy="216.5" r="3" fill="#e15759"/>
<circle cx="693.1" cy="175.0" r="3" fill="#e15759"/>
<circle cx="755.4" cy="245.0" r="3" fill="#e15759"/>
<circle cx="817.7" cy="190.3" r="3" fill="#e15759"/>
<circle cx="880.0" cy="264.1" r="3" fill="#e15759"/>
<rect x="394.0" y="358" width="10" height="10" fill="#e15759"/>
<text x="408.0" y="367" font-size="11" fill="#333">received audio</text>
<polyline points="70.0,312.5 132.3,316.0 194.6,314.6 256.9,315.4 319.2,311.2 381.5,320.1 443.8,304.4 506.2,313.9 568.5,317.1 630.8,307.8 693.1,316.6 755.4,318.8 817.7,309.2 880.0,317.1" fill="none" stroke="#b279a2" stroke-width="2"/>
<circle cx="70.0" cy="312.5" r="3" fill="#b279a2"/>
<circle cx="132.3" cy="316.0" r="3" fill="#b279a2"/>
<circle cx="194.6" cy="314.6" r="3" fill="#b279a2"/>
<circle cx="256.9" cy="315.4" r="3" fill="#b279a2"/>
<circle cx="319.2" cy="311.2" r="3" fill="#b279a2"/>
<circle cx="381.5" cy="320.1" r="3" fill="#b279a2"/>
<circle cx="443.8" cy="304.4" r="3" fill="#b279a2"/>
<circle cx="506.2" cy="313.9" r="3" fill="#b279a2"/>
<circle cx="568.5" cy="317.1" r="3" fill="#b279a2"/>
<circle cx="630.8" cy="307.8" r="3" fill="#b279a2"/>
<circle cx="693.1" cy="316.6" r="3" fill="#b279a2"/>
<circle cx="755.4" cy="318.8" r="3" fill="#b279a2"/>
<circle cx="817.7" cy="309.2" r="3" fill="#b279a2"/>
<circle cx="880.0" cy="317.1" r="3" fill="#b279a2"/>
<rect x="556.0" y="358" width="10" height="10" fill="#b279a2"/>
<text x="570.0" y="367" font-size="11" fill="#333">received mouth</text>
<rect x="718.0" y="358" width="10" height="10" fill="#ff7f0e"/>
<text x="732.0" y="367" font-size="11" fill="#333">server A/V offset</text>
</svg>
