<svg xmlns="http://www.w3.org/2000/svg" width="900" height="380" viewBox="0 0 900 380" font-family="sans-serif">
<rect width="900" height="380" fill="white"/>
<text x="70" y="24" font-size="16" fill="#333">Browser-observed WebRTC latency (ms, p50) — lower is better</text>
<line x1="70" y1="324.0" x2="880" y2="324.0" stroke="#e5e5e5"/>
<text x="64" y="328.0" font-size="11" fill="#666" text-anchor="end">0ms</text>
<line x1="70" y1="268.0" x2="880" y2="268.0" stroke="#e5e5e5"/>
<text x="64" y="272.0" font-size="11" fill="#666" text-anchor="end">2305ms</text>
<line x1="70" y1="212.0" x2="880" y2="212.0" stroke="#e5e5e5"/>
<text x="64" y="216.0" font-size="11" fill="#666" text-anchor="end">4609ms</text>
<line x1="70" y1="156.0" x2="880" y2="156.0" stroke="#e5e5e5"/>
<text x="64" y="160.0" font-size="11" fill="#666" text-anchor="end">6914ms</text>
<line x1="70" y1="100.0" x2="880" y2="100.0" stroke="#e5e5e5"/>
<text x="64" y="104.0" font-size="11" fill="#666" text-anchor="end">9219ms</text>
<line x1="70" y1="44.0" x2="880" y2="44.0" stroke="#e5e5e5"/>
<text x="64" y="48.0" font-size="11" fill="#666" text-anchor="end">11523ms</text>
<text x="70.0" y="342" font-size="11" fill="#666" text-anchor="start">07-16 22:20</text>
<text x="486.6" y="342" font-size="11" fill="#666" text-anchor="middle">07-17 19:48</text>
<text x="880.0" y="342" font-size="11" fill="#666" text-anchor="end">07-17 22:38</text>
<polyline points="70.0,286.6 93.1,283.0 116.3,286.3 139.4,285.6 162.6,282.6 185.7,288.2 208.9,285.3 232.0,283.7 255.1,287.3 278.3,287.2 301.4,289.4 324.6,287.2 347.7,284.5 370.9,295.8 394.0,298.9 417.1,295.9 440.3,297.1 463.4,299.0 486.6,294.2 509.7,303.9 532.9,305.8 556.0,302.6 579.1,306.9 602.3,295.9 625.4,303.4 648.6,304.4 671.7,303.2 694.9,306.1 718.0,303.7 741.1,305.2 764.3,302.0 787.4,306.2 810.6,305.3 833.7,305.1 856.9,301.3 880.0,313.8" fill="none" stroke="#4c78a8" stroke-width="2"/>
<circle cx="70.0" cy="286.6" r="3" fill="#4c78a8"/>
<circle cx="93.1" cy="283.0" r="3" fill="#4c78a8"/>
<circle cx="116.3" cy="286.3" r="3" fill="#4c78a8"/>
<circle cx="139.4" cy="285.6" r="3" fill="#4c78a8"/>
<circle cx="162.6" cy="282.6" r="3" fill="#4c78a8"/>
<circle cx="185.7" cy="288.2" r="3" fill="#4c78a8"/>
<circle cx="208.9" cy="285.3" r="3" fill="#4c78a8"/>
<circle cx="232.0" cy="283.7" r="3" fill="#4c78a8"/>
<circle cx="255.1" cy="287.3" r="3" fill="#4c78a8"/>
<circle cx="278.3" cy="287.2" r="3" fill="#4c78a8"/>
<circle cx="301.4" cy="289.4" r="3" fill="#4c78a8"/>
<circle cx="324.6" cy="287.2" r="3" fill="#4c78a8"/>
<circle cx="347.7" cy="284.5" r="3" fill="#4c78a8"/>
<circle cx="370.9" cy="295.8" r="3" fill="#4c78a8"/>
<circle cx="394.0" cy="298.9" r="3" fill="#4c78a8"/>
<circle cx="417.1" cy="295.9" r="3" fill="#4c78a8"/>
<circle cx="440.3" cy="297.1" r="3" fill="#4c78a8"/>
<circle cx="463.4" cy="299.0" r="3" fill="#4c78a8"/>
<circle cx="486.6" cy="294.2" r="3" fill="#4c78a8"/>
<circle cx="509.7" cy="303.9" r="3" fill="#4c78a8"/>
<circle cx="532.9" cy="305.8" r="3" fill="#4c78a8"/>
<circle cx="556.0" cy="302.6" r="3" fill="#4c78a8"/>
<circle cx="579.1" cy="306.9" r="3" fill="#4c78a8"/>
<circle cx="602.3" cy="295.9" r="3" fill="#4c78a8"/>
<circle cx="625.4" cy="303.4" r="3" fill="#4c78a8"/>
<circle cx="648.6" cy="304.4" r="3" fill="#4c78a8"/>
<circle cx="671.7" cy="303.2" r="3" fill="#4c78a8"/>
<circle cx="694.9" cy="306.1" r="3" fill="#4c78a8"/>
<circle cx="718.0" cy="303.7" r="3" fill="#4c78a8"/>
<circle cx="741.1" cy="305.2" r="3" fill="#4c78a8"/>
<circle cx="764.3" cy="302.0" r="3" fill="#4c78a8"/>
<circle cx="787.4" cy="306.2" r="3" fill="#4c78a8"/>
<circle cx="810.6" cy="305.3" r="3" fill="#4c78a8"/>
<circle cx="833.7" cy="305.1" r="3" fill="#4c78a8"/>
<circle cx="856.9" cy="301.3" r="3" fill="#4c78a8"/>
<circle cx="880.0" cy="313.8" r="3" fill="#4c78a8"/>
<rect x="70.0" y="358" width="10" height="10" fill="#4c78a8"/>
<text x="84.0" y="367" font-size="11" fill="#333">STT final</text>
<polyline points="70.0,279.7 93.1,272.0 116.3,276.8 139.4,276.8 162.6,271.5 185.7,273.1 208.9,274.7 232.0,266.2 255.1,276.2 278.3,271.8 301.4,273.2 324.6,276.7 347.7,273.0 370.9,287.5 394.0,288.1 417.1,277.4 440.3,283.6 463.4,287.3 486.6,284.1 509.7,295.0 532.9,294.7 556.0,296.8 579.1,290.6 602.3,235.7 625.4,287.8 648.6,295.2 671.7,291.0 694.9,295.8 718.0,293.3 741.1,288.3 764.3,280.2 787.4,297.5 810.6,290.9 833.7,297.0 856.9,289.8 880.0,304.9" fill="none" stroke="#59a14f" stroke-width="2"/>
<circle cx="70.0" cy="279.7" r="3" fill="#59a14f"/>
<circle cx="93.1" cy="272.0" r="3" fill="#59a14f"/>
<circle cx="116.3" cy="276.8" r="3" fill="#59a14f"/>
<circle cx="139.4" cy="276.8" r="3" fill="#59a14f"/>
<circle cx="162.6" cy="271.5" r="3" fill="#59a14f"/>
<circle cx="185.7" cy="273.1" r="3" fill="#59a14f"/>
<circle cx="208.9" cy="274.7" r="3" fill="#59a14f"/>
<circle cx="232.0" cy="266.2" r="3" fill="#59a14f"/>
<circle cx="255.1" cy="276.2" r="3" fill="#59a14f"/>
<circle cx="278.3" cy="271.8" r="3" fill="#59a14f"/>
<circle cx="301.4" cy="273.2" r="3" fill="#59a14f"/>
<circle cx="324.6" cy="276.7" r="3" fill="#59a14f"/>
<circle cx="347.7" cy="273.0" r="3" fill="#59a14f"/>
<circle cx="370.9" cy="287.5" r="3" fill="#59a14f"/>
<circle cx="394.0" cy="288.1" r="3" fill="#59a14f"/>
<circle cx="417.1" cy="277.4" r="3" fill="#59a14f"/>
<circle cx="440.3" cy="283.6" r="3" fill="#59a14f"/>
<circle cx="463.4" cy="287.3" r="3" fill="#59a14f"/>
<circle cx="486.6" cy="284.1" r="3" fill="#59a14f"/>
<circle cx="509.7" cy="295.0" r="3" fill="#59a14f"/>
<circle cx="532.9" cy="294.7" r="3" fill="#59a14f"/>
<circle cx="556.0" cy="296.8" r="3" fill="#59a14f"/>
<circle cx="579.1" cy="290.6" r="3" fill="#59a14f"/>
<circle cx="602.3" cy="235.7" r="3" fill="#59a14f"/>
<circle cx="625.4" cy="287.8" r="3" fill="#59a14f"/>
<circle cx="648.6" cy="295.2" r="3" fill="#59a14f"/>
<circle cx="671.7" cy="291.0" r="3" fill="#59a14f"/>
<circle cx="694.9" cy="295.8" r="3" fill="#59a14f"/>
<circle cx="718.0" cy="293.3" r="3" fill="#59a14f"/>
<circle cx="741.1" cy="288.3" r="3" fill="#59a14f"/>
<circle cx="764.3" cy="280.2" r="3" fill="#59a14f"/>
<circle cx="787.4" cy="297.5" r="3" fill="#59a14f"/>
<circle cx="810.6" cy="290.9" r="3" fill="#59a14f"/>
<circle cx="833.7" cy="297.0" r="3" fill="#59a14f"/>
<circle cx="856.9" cy="289.8" r="3" fill="#59a14f"/>
<circle cx="880.0" cy="304.9" r="3" fill="#59a14f"/>
<rect x="232.0" y="358" width="10" height="10" fill="#59a14f"/>
<text x="246.0" y="367" font-size="11" fill="#333">LLM first token</text>
<polyline points="70.0,93.7 93.1,161.7 116.3,197.4 139.4,213.5 162.6,236.3 185.7,260.6 208.9,213.4 232.0,191.1 255.1,216.8 278.3,228.5 301.4,191.6 324.6,253.8 347.7,205.2 370.9,270.8 394.0,269.3 417.1,248.4 440.3,269.3 463.4,272.7 486.6,267.4 509.7,282.0 532.9,283.9 556.0,286.8 579.1,272.5 602.3,64.7 625.4,268.8 648.6,275.7 671.7,278.6 694.9,281.5 718.0,283.9 741.1,275.7 764.3,264.5 787.4,286.3 810.6,278.6 833.7,281.0 856.9,271.8 880.0,294.1" fill="none" stroke="#e15759" stroke-width="2"/>
<circle cx="70.0" cy="93.7" r="3" fill="#e15759"/>
<circle cx="93.1" cy="161.7" r="3" fill="#e15759"/>
<circle cx="116.3" cy="197.4" r="3" fill="#e15759"/>
<circle cx="139.4" cy="213.5" r="3" fill="#e15759"/>
<circle cx="162.6" cy="236.3" r="3" fill="#e15759"/>
<circle cx="185.7" cy="260.6" r="3" fill="#e15759"/>
<circle cx="208.9" cy="213.4" r="3" fill="#e15759"/>
<circle cx="232.0" cy="191.1" r="3" fill="#e15759"/>
<circle cx="255.1" cy="216.8" r="3" fill="#e15759"/>
<circle cx="278.3" cy="228.5" r="3" fill="#e15759"/>
<circle cx="301.4" cy="191.6" r="3" fill="#e15759"/>
<circle cx="324.6" cy="253.8" r="3" fill="#e15759"/>
<circle cx="347.7" cy="205.2" r="3" fill="#e15759"/>
<circle cx="370.9" cy="270.8" r="3" fill="#e15759"/>
<circle cx="394.0" cy="269.3" r="3" fill="#e15759"/>
<circle cx="417.1" cy="248.4" r="3" fill="#e15759"/>
<circle cx="440.3" cy="269.3" r="3" fill="#e15759"/>
<circle cx="463.4" cy="272.7" r="3" fill="#e15759"/>
<circle cx="486.6" cy="267.4" r="3" fill="#e15759"/>
<circle cx="509.7" cy="282.0" r="3" fill="#e15759"/>
<circle cx="532.9" cy="283.9" r="3" fill="#e15759"/>
<circle cx="556.0" cy="286.8" r="3" fill="#e15759"/>
<circle cx="579.1" cy="272.5" r="3" fill="#e15759"/>
<circle cx="602.3" cy="64.7" r="3" fill="#e15759"/>
<circle cx="625.4" cy="268.8" r="3" fill="#e15759"/>
<circle cx="648.6" cy="275.7" r="3" fill="#e15759"/>
<circle cx="671.7" cy="278.6" r="3" fill="#e15759"/>
<circle cx="694.9" cy="281.5" r="3" fill="#e15759"/>
<circle cx="718.0" cy="283.9" r="3" fill="#e15759"/>
<circle cx="741.1" cy="275.7" r="3" fill="#e15759"/>
<circle cx="764.3" cy="264.5" r="3" fill="#e15759"/>
<circle cx="787.4" cy="286.3" r="3" fill="#e15759"/>
<circle cx="810.6" cy="278.6" r="3" fill="#e15759"/>
<circle cx="833.7" cy="281.0" r="3" fill="#e15759"/>
<circle cx="856.9" cy="271.8" r="3" fill="#e15759"/>
<circle cx="880.0" cy="294.1" r="3" fill="#e15759"/>
<rect x="394.0" y="358" width="10" height="10" fill="#e15759"/>
<text x="408.0" y="367" font-size="11" fill="#333">received audio</text>
<polyline points="70.0,313.8 93.1,316.9 116.3,315.6 139.4,316.4 162.6,312.7 185.7,320.5 208.9,306.6 232.0,315.1 255.1,317.8 278.3,309.6 301.4,317.4 324.6,319.3 347.7,310.8 370.9,317.9 394.0,313.7 417.1,311.5 440.3,313.9 463.4,315.8 486.6,312.3 509.7,317.7 532.9,316.9 556.0,318.4 579.1,315.2 602.3,317.0 625.4,319.2 648.6,315.3 671.7,319.4 694.9,319.4 718.0,318.9 741.1,310.1 764.3,311.8 787.4,319.8 810.6,318.0 833.7,315.2 856.9,314.7 880.0,320.7" fill="none" stroke="#b279a2" stroke-width="2"/>
<circle cx="70.0" cy="313.8" r="3" fill="#b279a2"/>
<circle cx="93.1" cy="316.9" r="3" fill="#b279a2"/>
<circle cx="116.3" cy="315.6" r="3" fill="#b279a2"/>
<circle cx="139.4" cy="316.4" r="3" fill="#b279a2"/>
<circle cx="162.6" cy="312.7" r="3" fill="#b279a2"/>
<circle cx="185.7" cy="320.5" r="3" fill="#b279a2"/>
<circle cx="208.9" cy="306.6" r="3" fill="#b279a2"/>
<circle cx="232.0" cy="315.1" r="3" fill="#b279a2"/>
<circle cx="255.1" cy="317.8" r="3" fill="#b279a2"/>
<circle cx="278.3" cy="309.6" r="3" fill="#b279a2"/>
<circle cx="301.4" cy="317.4" r="3" fill="#b279a2"/>
<circle cx="324.6" cy="319.3" r="3" fill="#b279a2"/>
<circle cx="347.7" cy="310.8" r="3" fill="#b279a2"/>
<circle cx="370.9" cy="317.9" r="3" fill="#b279a2"/>
<circle cx="394.0" cy="313.7" r="3" fill="#b279a2"/>
<circle cx="417.1" cy="311.5" r="3" fill="#b279a2"/>
<circle cx="440.3" cy="313.9" r="3" fill="#b279a2"/>
<circle cx="463.4" cy="315.8" r="3" fill="#b279a2"/>
<circle cx="486.6" cy="312.3" r="3" fill="#b279a2"/>
<circle cx="509.7" cy="317.7" r="3" fill="#b279a2"/>
<circle cx="532.9" cy="316.9" r="3" fill="#b279a2"/>
<circle cx="556.0" cy="318.4" r="3" fill="#b279a2"/>
<circle cx="579.1" cy="315.2" r="3" fill="#b279a2"/>
<circle cx="602.3" cy="317.0" r="3" fill="#b279a2"/>
<circle cx="625.4" cy="319.2" r="3" fill="#b279a2"/>
<circle cx="648.6" cy="315.3" r="3" fill="#b279a2"/>
<circle cx="671.7" cy="319.4" r="3" fill="#b279a2"/>
<circle cx="694.9" cy="319.4" r="3" fill="#b279a2"/>
<circle cx="718.0" cy="318.9" r="3" fill="#b279a2"/>
<circle cx="741.1" cy="310.1" r="3" fill="#b279a2"/>
<circle cx="764.3" cy="311.8" r="3" fill="#b279a2"/>
<circle cx="787.4" cy="319.8" r="3" fill="#b279a2"/>
<circle cx="810.6" cy="318.0" r="3" fill="#b279a2"/>
<circle cx="833.7" cy="315.2" r="3" fill="#b279a2"/>
<circle cx="856.9" cy="314.7" r="3" fill="#b279a2"/>
<circle cx="880.0" cy="320.7" r="3" fill="#b279a2"/>
<rect x="556.0" y="358" width="10" height="10" fill="#b279a2"/>
<text x="570.0" y="367" font-size="11" fill="#333">received mouth</text>
<rect x="718.0" y="358" width="10" height="10" fill="#ff7f0e"/>
<text x="732.0" y="367" font-size="11" fill="#333">server A/V offset</text>
</svg>
