<svg xmlns="http://www.w3.org/2000/svg" width="900" height="380" viewBox="0 0 900 380" font-family="sans-serif">
<rect width="900" height="380" fill="white"/>
<text x="70" y="24" font-size="16" fill="#333">Browser-observed WebRTC latency (ms, p50) — lower is better</text>
<line x1="70" y1="324.0" x2="880" y2="324.0" stroke="#e5e5e5"/>
<text x="64" y="328.0" font-size="11" fill="#666" text-anchor="end">0ms</text>
<line x1="70" y1="268.0" x2="880" y2="268.0" stroke="#e5e5e5"/>
<text x="64" y="272.0" font-size="11" fill="#666" text-anchor="end">2305ms</text>
<line x1="70" y1="212.0" x2="880" y2="212.0" stroke="#e5e5e5"/>
<text x="64" y="216.0" font-size="11" fill="#666" text-anchor="end">4609ms</text>
<line x1="70" y1="156.0" x2="880" y2="156.0" stroke="#e5e5e5"/>
<text x="64" y="160.0" font-size="11" fill="#666" text-anchor="end">6914ms</text>
<line x1="70" y1="100.0" x2="880" y2="100.0" stroke="#e5e5e5"/>
<text x="64" y="104.0" font-size="11" fill="#666" text-anchor="end">9219ms</text>
<line x1="70" y1="44.0" x2="880" y2="44.0" stroke="#e5e5e5"/>
<text x="64" y="48.0" font-size="11" fill="#666" text-anchor="end">11523ms</text>
<text x="70.0" y="342" font-size="11" fill="#666" text-anchor="start">07-16 22:20</text>
<text x="475.0" y="342" font-size="11" fill="#666" text-anchor="middle">07-17 20:14</text>
<text x="880.0" y="342" font-size="11" fill="#666" text-anchor="end">07-20 06:30</text>
<polyline points="70.0,286.6 87.6,283.0 105.2,286.3 122.8,285.6 140.4,282.6 158.0,288.2 175.7,285.3 193.3,283.7 210.9,287.3 228.5,287.2 246.1,289.4 263.7,287.2 281.3,284.5 298.9,295.8 316.5,298.9 334.1,295.9 351.7,297.1 369.3,299.0 387.0,294.2 404.6,303.9 422.2,305.8 439.8,302.6 457.4,306.9 475.0,295.9 492.6,303.4 510.2,304.4 527.8,303.2 545.4,306.1 563.0,303.7 580.7,305.2 598.3,302.0 615.9,306.2 633.5,305.3 651.1,305.1 668.7,301.3 686.3,313.8 703.9,312.7 721.5,301.4 739.1,301.9 756.7,300.0 774.3,313.8 792.0,303.6 809.6,300.9 827.2,313.3 844.8,301.3 862.4,301.4 880.0,297.4" fill="none" stroke="#4c78a8" stroke-width="2"/>
<circle cx="70.0" cy="286.6" r="3" fill="#4c78a8"/>
<circle cx="87.6" cy="283.0" r="3" fill="#4c78a8"/>
<circle cx="105.2" cy="286.3" r="3" fill="#4c78a8"/>
<circle cx="122.8" cy="285.6" r="3" fill="#4c78a8"/>
<circle cx="140.4" cy="282.6" r="3" fill="#4c78a8"/>
<circle cx="158.0" cy="288.2" r="3" fill="#4c78a8"/>
<circle cx="175.7" cy="285.3" r="3" fill="#4c78a8"/>
<circle cx="193.3" cy="283.7" r="3" fill="#4c78a8"/>
<circle cx="210.9" cy="287.3" r="3" fill="#4c78a8"/>
<circle cx="228.5" cy="287.2" r="3" fill="#4c78a8"/>
<circle cx="246.1" cy="289.4" r="3" fill="#4c78a8"/>
<circle cx="263.7" cy="287.2" r="3" fill="#4c78a8"/>
<circle cx="281.3" cy="284.5" r="3" fill="#4c78a8"/>
<circle cx="298.9" cy="295.8" r="3" fill="#4c78a8"/>
<circle cx="316.5" cy="298.9" r="3" fill="#4c78a8"/>
<circle cx="334.1" cy="295.9" r="3" fill="#4c78a8"/>
<circle cx="351.7" cy="297.1" r="3" fill="#4c78a8"/>
<circle cx="369.3" cy="299.0" r="3" fill="#4c78a8"/>
<circle cx="387.0" cy="294.2" r="3" fill="#4c78a8"/>
<circle cx="404.6" cy="303.9" r="3" fill="#4c78a8"/>
<circle cx="422.2" cy="305.8" r="3" fill="#4c78a8"/>
<circle cx="439.8" cy="302.6" r="3" fill="#4c78a8"/>
<circle cx="457.4" cy="306.9" r="3" fill="#4c78a8"/>
<circle cx="475.0" cy="295.9" r="3" fill="#4c78a8"/>
<circle cx="492.6" cy="303.4" r="3" fill="#4c78a8"/>
<circle cx="510.2" cy="304.4" r="3" fill="#4c78a8"/>
<circle cx="527.8" cy="303.2" r="3" fill="#4c78a8"/>
<circle cx="545.4" cy="306.1" r="3" fill="#4c78a8"/>
<circle cx="563.0" cy="303.7" r="3" fill="#4c78a8"/>
<circle cx="580.7" cy="305.2" r="3" fill="#4c78a8"/>
<circle cx="598.3" cy="302.0" r="3" fill="#4c78a8"/>
<circle cx="615.9" cy="306.2" r="3" fill="#4c78a8"/>
<circle cx="633.5" cy="305.3" r="3" fill="#4c78a8"/>
<circle cx="651.1" cy="305.1" r="3" fill="#4c78a8"/>
<circle cx="668.7" cy="301.3" r="3" fill="#4c78a8"/>
<circle cx="686.3" cy="313.8" r="3" fill="#4c78a8"/>
<circle cx="703.9" cy="312.7" r="3" fill="#4c78a8"/>
<circle cx="721.5" cy="301.4" r="3" fill="#4c78a8"/>
<circle cx="739.1" cy="301.9" r="3" fill="#4c78a8"/>
<circle cx="756.7" cy="300.0" r="3" fill="#4c78a8"/>
<circle cx="774.3" cy="313.8" r="3" fill="#4c78a8"/>
<circle cx="792.0" cy="303.6" r="3" fill="#4c78a8"/>
<circle cx="809.6" cy="300.9" r="3" fill="#4c78a8"/>
<circle cx="827.2" cy="313.3" r="3" fill="#4c78a8"/>
<circle cx="844.8" cy="301.3" r="3" fill="#4c78a8"/>
<circle cx="862.4" cy="301.4" r="3" fill="#4c78a8"/>
<circle cx="880.0" cy="297.4" r="3" fill="#4c78a8"/>
<rect x="70.0" y="358" width="10" height="10" fill="#4c78a8"/>
<text x="84.0" y="367" font-size="11" fill="#333">STT final</text>
<polyline points="70.0,279.7 87.6,272.0 105.2,276.8 122.8,276.8 140.4,271.5 158.0,273.1 175.7,274.7 193.3,266.2 210.9,276.2 228.5,271.8 246.1,273.2 263.7,276.7 281.3,273.0 298.9,287.5 316.5,288.1 334.1,277.4 351.7,283.6 369.3,287.3 387.0,284.1 404.6,295.0 422.2,294.7 439.8,296.8 457.4,290.6 475.0,235.7 492.6,287.8 510.2,295.2 527.8,291.0 545.4,295.8 563.0,293.3 580.7,288.3 598.3,280.2 615.9,297.5 633.5,290.9 651.1,297.0 668.7,289.8 686.3,304.9 703.9,300.8 721.5,286.0 739.1,291.4 756.7,293.9 774.3,298.3 792.0,295.8 809.6,289.1 827.2,304.7 844.8,284.4 862.4,287.4 880.0,286.2" fill="none" stroke="#59a14f" stroke-width="2"/>
<circle cx="70.0" cy="279.7" r="3" fill="#59a14f"/>
<circle cx="87.6" cy="272.0" r="3" fill="#59a14f"/>
<circle cx="105.2" cy="276.8" r="3" fill="#59a14f"/>
<circle cx="122.8" cy="276.8" r="3" fill="#59a14f"/>
<circle cx="140.4" cy="271.5" r="3" fill="#59a14f"/>
<circle cx="158.0" cy="273.1" r="3" fill="#59a14f"/>
<circle cx="175.7" cy="274.7" r="3" fill="#59a14f"/>
<circle cx="193.3" cy="266.2" r="3" fill="#59a14f"/>
<circle cx="210.9" cy="276.2" r="3" fill="#59a14f"/>
<circle cx="228.5" cy="271.8" r="3" fill="#59a14f"/>
<circle cx="246.1" cy="273.2" r="3" fill="#59a14f"/>
<circle cx="263.7" cy="276.7" r="3" fill="#59a14f"/>
<circle cx="281.3" cy="273.0" r="3" fill="#59a14f"/>
<circle cx="298.9" cy="287.5" r="3" fill="#59a14f"/>
<circle cx="316.5" cy="288.1" r="3" fill="#59a14f"/>
<circle cx="334.1" cy="277.4" r="3" fill="#59a14f"/>
<circle cx="351.7" cy="283.6" r="3" fill="#59a14f"/>
<circle cx="369.3" cy="287.3" r="3" fill="#59a14f"/>
<circle cx="387.0" cy="284.1" r="3" fill="#59a14f"/>
<circle cx="404.6" cy="295.0" r="3" fill="#59a14f"/>
<circle cx="422.2" cy="294.7" r="3" fill="#59a14f"/>
<circle cx="439.8" cy="296.8" r="3" fill="#59a14f"/>
<circle cx="457.4" cy="290.6" r="3" fill="#59a14f"/>
<circle cx="475.0" cy="235.7" r="3" fill="#59a14f"/>
<circle cx="492.6" cy="287.8" r="3" fill="#59a14f"/>
<circle cx="510.2" cy="295.2" r="3" fill="#59a14f"/>
<circle cx="527.8" cy="291.0" r="3" fill="#59a14f"/>
<circle cx="545.4" cy="295.8" r="3" fill="#59a14f"/>
<circle cx="563.0" cy="293.3" r="3" fill="#59a14f"/>
<circle cx="580.7" cy="288.3" r="3" fill="#59a14f"/>
<circle cx="598.3" cy="280.2" r="3" fill="#59a14f"/>
<circle cx="615.9" cy="297.5" r="3" fill="#59a14f"/>
<circle cx="633.5" cy="290.9" r="3" fill="#59a14f"/>
<circle cx="651.1" cy="297.0" r="3" fill="#59a14f"/>
<circle cx="668.7" cy="289.8" r="3" fill="#59a14f"/>
<circle cx="686.3" cy="304.9" r="3" fill="#59a14f"/>
<circle cx="703.9" cy="300.8" r="3" fill="#59a14f"/>
<circle cx="721.5" cy="286.0" r="3" fill="#59a14f"/>
<circle cx="739.1" cy="291.4" r="3" fill="#59a14f"/>
<circle cx="756.7" cy="293.9" r="3" fill="#59a14f"/>
<circle cx="774.3" cy="298.3" r="3" fill="#59a14f"/>
<circle cx="792.0" cy="295.8" r="3" fill="#59a14f"/>
<circle cx="809.6" cy="289.1" r="3" fill="#59a14f"/>
<circle cx="827.2" cy="304.7" r="3" fill="#59a14f"/>
<circle cx="844.8" cy="284.4" r="3" fill="#59a14f"/>
<circle cx="862.4" cy="287.4" r="3" fill="#59a14f"/>
<circle cx="880.0" cy="286.2" r="3" fill="#59a14f"/>
<rect x="232.0" y="358" width="10" height="10" fill="#59a14f"/>
<text x="246.0" y="367" font-size="11" fill="#333">LLM first token</text>
<polyline points="70.0,93.7 87.6,161.7 105.2,197.4 122.8,213.5 140.4,236.3 158.0,260.6 175.7,213.4 193.3,191.1 210.9,216.8 228.5,228.5 246.1,191.6 263.7,253.8 281.3,205.2 298.9,270.8 316.5,269.3 334.1,248.4 351.7,269.3 369.3,272.7 387.0,267.4 404.6,282.0 422.2,283.9 439.8,286.8 457.4,272.5 475.0,64.7 492.6,268.8 510.2,275.7 527.8,278.6 545.4,281.5 563.0,283.9 580.7,275.7 598.3,264.5 615.9,286.3 633.5,278.6 651.1,281.0 668.7,271.8 686.3,294.1 703.9,287.8 721.5,262.0 739.1,274.7 756.7,286.3 774.3,282.9 792.0,287.8 809.6,276.2 827.2,292.7 844.8,268.9 862.4,265.5 880.0,260.6" fill="none" stroke="#e15759" stroke-width="2"/>
<circle cx="70.0" cy="93.7" r="3" fill="#e15759"/>
<circle cx="87.6" cy="161.7" r="3" fill="#e15759"/>
<circle cx="105.2" cy="197.4" r="3" fill="#e15759"/>
<circle cx="122.8" cy="213.5" r="3" fill="#e15759"/>
<circle cx="140.4" cy="236.3" r="3" fill="#e15759"/>
<circle cx="158.0" cy="260.6" r="3" fill="#e15759"/>
<circle cx="175.7" cy="213.4" r="3" fill="#e15759"/>
<circle cx="193.3" cy="191.1" r="3" fill="#e15759"/>
<circle cx="210.9" cy="216.8" r="3" fill="#e15759"/>
<circle cx="228.5" cy="228.5" r="3" fill="#e15759"/>
<circle cx="246.1" cy="191.6" r="3" fill="#e15759"/>
<circle cx="263.7" cy="253.8" r="3" fill="#e15759"/>
<circle cx="281.3" cy="205.2" r="3" fill="#e15759"/>
<circle cx="298.9" cy="270.8" r="3" fill="#e15759"/>
<circle cx="316.5" cy="269.3" r="3" fill="#e15759"/>
<circle cx="334.1" cy="248.4" r="3" fill="#e15759"/>
<circle cx="351.7" cy="269.3" r="3" fill="#e15759"/>
<circle cx="369.3" cy="272.7" r="3" fill="#e15759"/>
<circle cx="387.0" cy="267.4" r="3" fill="#e15759"/>
<circle cx="404.6" cy="282.0" r="3" fill="#e15759"/>
<circle cx="422.2" cy="283.9" r="3" fill="#e15759"/>
<circle cx="439.8" cy="286.8" r="3" fill="#e15759"/>
<circle cx="457.4" cy="272.5" r="3" fill="#e15759"/>
<circle cx="475.0" cy="64.7" r="3" fill="#e15759"/>
<circle cx="492.6" cy="268.8" r="3" fill="#e15759"/>
<circle cx="510.2" cy="275.7" r="3" fill="#e15759"/>
<circle cx="527.8" cy="278.6" r="3" fill="#e15759"/>
<circle cx="545.4" cy="281.5" r="3" fill="#e15759"/>
<circle cx="563.0" cy="283.9" r="3" fill="#e15759"/>
<circle cx="580.7" cy="275.7" r="3" fill="#e15759"/>
<circle cx="598.3" cy="264.5" r="3" fill="#e15759"/>
<circle cx="615.9" cy="286.3" r="3" fill="#e15759"/>
<circle cx="633.5" cy="278.6" r="3" fill="#e15759"/>
<circle cx="651.1" cy="281.0" r="3" fill="#e15759"/>
<circle cx="668.7" cy="271.8" r="3" fill="#e15759"/>
<circle cx="686.3" cy="294.1" r="3" fill="#e15759"/>
<circle cx="703.9" cy="287.8" r="3" fill="#e15759"/>
<circle cx="721.5" cy="262.0" r="3" fill="#e15759"/>
<circle cx="739.1" cy="274.7" r="3" fill="#e15759"/>
<circle cx="756.7" cy="286.3" r="3" fill="#e15759"/>
<circle cx="774.3" cy="282.9" r="3" fill="#e15759"/>
<circle cx="792.0" cy="287.8" r="3" fill="#e15759"/>
<circle cx="809.6" cy="276.2" r="3" fill="#e15759"/>
<circle cx="827.2" cy="292.7" r="3" fill="#e15759"/>
<circle cx="844.8" cy="268.9" r="3" fill="#e15759"/>
<circle cx="862.4" cy="265.5" r="3" fill="#e15759"/>
<circle cx="880.0" cy="260.6" r="3" fill="#e15759"/>
<rect x="394.0" y="358" width="10" height="10" fill="#e15759"/>
<text x="408.0" y="367" font-size="11" fill="#333">received audio</text>
<polyline points="70.0,313.8 87.6,316.9 105.2,315.6 122.8,316.4 140.4,312.7 158.0,320.5 175.7,306.6 193.3,315.1 210.9,317.8 228.5,309.6 246.1,317.4 263.7,319.3 281.3,310.8 298.9,317.9 316.5,313.7 334.1,311.5 351.7,313.9 369.3,315.8 387.0,312.3 404.6,317.7 422.2,316.9 439.8,318.4 457.4,315.2 475.0,317.0 492.6,319.2 510.2,315.3 527.8,319.4 545.4,319.4 563.0,318.9 580.7,310.1 598.3,311.8 615.9,319.8 633.5,318.0 651.1,315.2 668.7,314.7 686.3,320.7 703.9,320.6 721.5,316.9 739.1,316.3 756.7,321.2 774.3,320.4 792.0,321.2 809.6,319.7 827.2,320.8 844.8,316.5 862.4,316.8 880.0,315.2" fill="none" stroke="#b279a2" stroke-width="2"/>
<circle cx="70.0" cy="313.8" r="3" fill="#b279a2"/>
<circle cx="87.6" cy="316.9" r="3" fill="#b279a2"/>
<circle cx="105.2" cy="315.6" r="3" fill="#b279a2"/>
<circle cx="122.8" cy="316.4" r="3" fill="#b279a2"/>
<circle cx="140.4" cy="312.7" r="3" fill="#b279a2"/>
<circle cx="158.0" cy="320.5" r="3" fill="#b279a2"/>
<circle cx="175.7" cy="306.6" r="3" fill="#b279a2"/>
<circle cx="193.3" cy="315.1" r="3" fill="#b279a2"/>
<circle cx="210.9" cy="317.8" r="3" fill="#b279a2"/>
<circle cx="228.5" cy="309.6" r="3" fill="#b279a2"/>
<circle cx="246.1" cy="317.4" r="3" fill="#b279a2"/>
<circle cx="263.7" cy="319.3" r="3" fill="#b279a2"/>
<circle cx="281.3" cy="310.8" r="3" fill="#b279a2"/>
<circle cx="298.9" cy="317.9" r="3" fill="#b279a2"/>
<circle cx="316.5" cy="313.7" r="3" fill="#b279a2"/>
<circle cx="334.1" cy="311.5" r="3" fill="#b279a2"/>
<circle cx="351.7" cy="313.9" r="3" fill="#b279a2"/>
<circle cx="369.3" cy="315.8" r="3" fill="#b279a2"/>
<circle cx="387.0" cy="312.3" r="3" fill="#b279a2"/>
<circle cx="404.6" cy="317.7" r="3" fill="#b279a2"/>
<circle cx="422.2" cy="316.9" r="3" fill="#b279a2"/>
<circle cx="439.8" cy="318.4" r="3" fill="#b279a2"/>
<circle cx="457.4" cy="315.2" r="3" fill="#b279a2"/>
<circle cx="475.0" cy="317.0" r="3" fill="#b279a2"/>
<circle cx="492.6" cy="319.2" r="3" fill="#b279a2"/>
<circle cx="510.2" cy="315.3" r="3" fill="#b279a2"/>
<circle cx="527.8" cy="319.4" r="3" fill="#b279a2"/>
<circle cx="545.4" cy="319.4" r="3" fill="#b279a2"/>
<circle cx="563.0" cy="318.9" r="3" fill="#b279a2"/>
<circle cx="580.7" cy="310.1" r="3" fill="#b279a2"/>
<circle cx="598.3" cy="311.8" r="3" fill="#b279a2"/>
<circle cx="615.9" cy="319.8" r="3" fill="#b279a2"/>
<circle cx="633.5" cy="318.0" r="3" fill="#b279a2"/>
<circle cx="651.1" cy="315.2" r="3" fill="#b279a2"/>
<circle cx="668.7" cy="314.7" r="3" fill="#b279a2"/>
<circle cx="686.3" cy="320.7" r="3" fill="#b279a2"/>
<circle cx="703.9" cy="320.6" r="3" fill="#b279a2"/>
<circle cx="721.5" cy="316.9" r="3" fill="#b279a2"/>
<circle cx="739.1" cy="316.3" r="3" fill="#b279a2"/>
<circle cx="756.7" cy="321.2" r="3" fill="#b279a2"/>
<circle cx="774.3" cy="320.4" r="3" fill="#b279a2"/>
<circle cx="792.0" cy="321.2" r="3" fill="#b279a2"/>
<circle cx="809.6" cy="319.7" r="3" fill="#b279a2"/>
<circle cx="827.2" cy="320.8" r="3" fill="#b279a2"/>
<circle cx="844.8" cy="316.5" r="3" fill="#b279a2"/>
<circle cx="862.4" cy="316.8" r="3" fill="#b279a2"/>
<circle cx="880.0" cy="315.2" r="3" fill="#b279a2"/>
<rect x="556.0" y="358" width="10" height="10" fill="#b279a2"/>
<text x="570.0" y="367" font-size="11" fill="#333">received mouth</text>
<rect x="718.0" y="358" width="10" height="10" fill="#ff7f0e"/>
<text x="732.0" y="367" font-size="11" fill="#333">server A/V offset</text>
</svg>
