<svg xmlns="http://www.w3.org/2000/svg" width="900" height="380" viewBox="0 0 900 380" font-family="sans-serif">
<rect width="900" height="380" fill="white"/>
<text x="70" y="24" font-size="16" fill="#333">Browser-observed WebRTC latency (ms, p50) — lower is better</text>
<line x1="70" y1="324.0" x2="880" y2="324.0" stroke="#e5e5e5"/>
<text x="64" y="328.0" font-size="11" fill="#666" text-anchor="end">0ms</text>
<line x1="70" y1="268.0" x2="880" y2="268.0" stroke="#e5e5e5"/>
<text x="64" y="272.0" font-size="11" fill="#666" text-anchor="end">2047ms</text>
<line x1="70" y1="212.0" x2="880" y2="212.0" stroke="#e5e5e5"/>
<text x="64" y="216.0" font-size="11" fill="#666" text-anchor="end">4095ms</text>
<line x1="70" y1="156.0" x2="880" y2="156.0" stroke="#e5e5e5"/>
<text x="64" y="160.0" font-size="11" fill="#666" text-anchor="end">6142ms</text>
<line x1="70" y1="100.0" x2="880" y2="100.0" stroke="#e5e5e5"/>
<text x="64" y="104.0" font-size="11" fill="#666" text-anchor="end">8190ms</text>
<line x1="70" y1="44.0" x2="880" y2="44.0" stroke="#e5e5e5"/>
<text x="64" y="48.0" font-size="11" fill="#666" text-anchor="end">10237ms</text>
<text x="70.0" y="342" font-size="11" fill="#666" text-anchor="start">07-16 22:20</text>
<text x="475.0" y="342" font-size="11" fill="#666" text-anchor="middle">07-17 16:33</text>
<text x="880.0" y="342" font-size="11" fill="#666" text-anchor="end">07-17 19:57</text>
<polyline points="70.0,281.9 110.5,277.8 151.0,281.6 191.5,280.8 232.0,277.4 272.5,283.7 313.0,280.4 353.5,278.6 394.0,282.7 434.5,282.6 475.0,285.1 515.5,282.6 556.0,279.5 596.5,292.3 637.0,295.7 677.5,292.4 718.0,293.8 758.5,295.8 799.0,290.4 839.5,301.4 880.0,303.5" fill="none" stroke="#4c78a8" stroke-width="2"/>
<circle cx="70.0" cy="281.9" r="3" fill="#4c78a8"/>
<circle cx="110.5" cy="277.8" r="3" fill="#4c78a8"/>
<circle cx="151.0" cy="281.6" r="3" fill="#4c78a8"/>
<circle cx="191.5" cy="280.8" r="3" fill="#4c78a8"/>
<circle cx="232.0" cy="277.4" r="3" fill="#4c78a8"/>
<circle cx="272.5" cy="283.7" r="3" fill="#4c78a8"/>
<circle cx="313.0" cy="280.4" r="3" fill="#4c78a8"/>
<circle cx="353.5" cy="278.6" r="3" fill="#4c78a8"/>
<circle cx="394.0" cy="282.7" r="3" fill="#4c78a8"/>
<circle cx="434.5" cy="282.6" r="3" fill="#4c78a8"/>
<circle cx="475.0" cy="285.1" r="3" fill="#4c78a8"/>
<circle cx="515.5" cy="282.6" r="3" fill="#4c78a8"/>
<circle cx="556.0" cy="279.5" r="3" fill="#4c78a8"/>
<circle cx="596.5" cy="292.3" r="3" fill="#4c78a8"/>
<circle cx="637.0" cy="295.7" r="3" fill="#4c78a8"/>
<circle cx="677.5" cy="292.4" r="3" fill="#4c78a8"/>
<circle cx="718.0" cy="293.8" r="3" fill="#4c78a8"/>
<circle cx="758.5" cy="295.8" r="3" fill="#4c78a8"/>
<circle cx="799.0" cy="290.4" r="3" fill="#4c78a8"/>
<circle cx="839.5" cy="301.4" r="3" fill="#4c78a8"/>
<circle cx="880.0" cy="303.5" r="3" fill="#4c78a8"/>
<rect x="70.0" y="358" width="10" height="10" fill="#4c78a8"/>
<text x="84.0" y="367" font-size="11" fill="#333">STT final</text>
<polyline points="70.0,274.2 110.5,265.5 151.0,270.9 191.5,270.9 232.0,264.9 272.5,266.7 313.0,268.5 353.5,258.9 394.0,270.2 434.5,265.3 475.0,266.8 515.5,270.8 556.0,266.6 596.5,282.9 637.0,283.6 677.5,271.5 718.0,278.5 758.5,282.7 799.0,279.1 839.5,291.3 880.0,291.0" fill="none" stroke="#59a14f" stroke-width="2"/>
<circle cx="70.0" cy="274.2" r="3" fill="#59a14f"/>
<circle cx="110.5" cy="265.5" r="3" fill="#59a14f"/>
<circle cx="151.0" cy="270.9" r="3" fill="#59a14f"/>
<circle cx="191.5" cy="270.9" r="3" fill="#59a14f"/>
<circle cx="232.0" cy="264.9" r="3" fill="#59a14f"/>
<circle cx="272.5" cy="266.7" r="3" fill="#59a14f"/>
<circle cx="313.0" cy="268.5" r="3" fill="#59a14f"/>
<circle cx="353.5" cy="258.9" r="3" fill="#59a14f"/>
<circle cx="394.0" cy="270.2" r="3" fill="#59a14f"/>
<circle cx="434.5" cy="265.3" r="3" fill="#59a14f"/>
<circle cx="475.0" cy="266.8" r="3" fill="#59a14f"/>
<circle cx="515.5" cy="270.8" r="3" fill="#59a14f"/>
<circle cx="556.0" cy="266.6" r="3" fill="#59a14f"/>
<circle cx="596.5" cy="282.9" r="3" fill="#59a14f"/>
<circle cx="637.0" cy="283.6" r="3" fill="#59a14f"/>
<circle cx="677.5" cy="271.5" r="3" fill="#59a14f"/>
<circle cx="718.0" cy="278.5" r="3" fill="#59a14f"/>
<circle cx="758.5" cy="282.7" r="3" fill="#59a14f"/>
<circle cx="799.0" cy="279.1" r="3" fill="#59a14f"/>
<circle cx="839.5" cy="291.3" r="3" fill="#59a14f"/>
<circle cx="880.0" cy="291.0" r="3" fill="#59a14f"/>
<rect x="232.0" y="358" width="10" height="10" fill="#59a14f"/>
<text x="246.0" y="367" font-size="11" fill="#333">LLM first token</text>
<polyline points="70.0,64.7 110.5,141.3 151.0,181.5 191.5,199.6 232.0,225.3 272.5,252.6 313.0,199.5 353.5,174.4 394.0,203.4 434.5,216.5 475.0,175.0 515.5,245.0 556.0,190.3 596.5,264.1 637.0,262.5 677.5,239.0 718.0,262.5 758.5,266.3 799.0,260.3 839.5,276.7 880.0,278.9" fill="none" stroke="#e15759" stroke-width="2"/>
<circle cx="70.0" cy="64.7" r="3" fill="#e15759"/>
<circle cx="110.5" cy="141.3" r="3" fill="#e15759"/>
<circle cx="151.0" cy="181.5" r="3" fill="#e15759"/>
<circle cx="191.5" cy="199.6" r="3" fill="#e15759"/>
<circle cx="232.0" cy="225.3" r="3" fill="#e15759"/>
<circle cx="272.5" cy="252.6" r="3" fill="#e15759"/>
<circle cx="313.0" cy="199.5" r="3" fill="#e15759"/>
<circle cx="353.5" cy="174.4" r="3" fill="#e15759"/>
<circle cx="394.0" cy="203.4" r="3" fill="#e15759"/>
<circle cx="434.5" cy="216.5" r="3" fill="#e15759"/>
<circle cx="475.0" cy="175.0" r="3" fill="#e15759"/>
<circle cx="515.5" cy="245.0" r="3" fill="#e15759"/>
<circle cx="556.0" cy="190.3" r="3" fill="#e15759"/>
<circle cx="596.5" cy="264.1" r="3" fill="#e15759"/>
<circle cx="637.0" cy="262.5" r="3" fill="#e15759"/>
<circle cx="677.5" cy="239.0" r="3" fill="#e15759"/>
<circle cx="718.0" cy="262.5" r="3" fill="#e15759"/>
<circle cx="758.5" cy="266.3" r="3" fill="#e15759"/>
<circle cx="799.0" cy="260.3" r="3" fill="#e15759"/>
<circle cx="839.5" cy="276.7" r="3" fill="#e15759"/>
<circle cx="880.0" cy="278.9" r="3" fill="#e15759"/>
<rect x="394.0" y="358" width="10" height="10" fill="#e15759"/>
<text x="408.0" y="367" font-size="11" fill="#333">received audio</text>
<polyline points="70.0,312.5 110.5,316.0 151.0,314.6 191.5,315.4 232.0,311.2 272.5,320.1 313.0,304.4 353.5,313.9 394.0,317.1 434.5,307.8 475.0,316.6 515.5,318.8 556.0,309.2 596.5,317.1 637.0,312.4 677.5,309.9 718.0,312.6 758.5,314.7 799.0,310.8 839.5,316.9 880.0,316.1" fill="none" stroke="#b279a2" stroke-width="2"/>
<circle cx="70.0" cy="312.5" r="3" fill="#b279a2"/>
<circle cx="110.5" cy="316.0" r="3" fill="#b279a2"/>
<circle cx="151.0" cy="314.6" r="3" fill="#b279a2"/>
<circle cx="191.5" cy="315.4" r="3" fill="#b279a2"/>
<circle cx="232.0" cy="311.2" r="3" fill="#b279a2"/>
<circle cx="272.5" cy="320.1" r="3" fill="#b279a2"/>
<circle cx="313.0" cy="304.4" r="3" fill="#b279a2"/>
<circle cx="353.5" cy="313.9" r="3" fill="#b279a2"/>
<circle cx="394.0" cy="317.1" r="3" fill="#b279a2"/>
<circle cx="434.5" cy="307.8" r="3" fill="#b279a2"/>
<circle cx="475.0" cy="316.6" r="3" fill="#b279a2"/>
<circle cx="515.5" cy="318.8" r="3" fill="#b279a2"/>
<circle cx="556.0" cy="309.2" r="3" fill="#b279a2"/>
<circle cx="596.5" cy="317.1" r="3" fill="#b279a2"/>
<circle cx="637.0" cy="312.4" r="3" fill="#b279a2"/>
<circle cx="677.5" cy="309.9" r="3" fill="#b279a2"/>
<circle cx="718.0" cy="312.6" r="3" fill="#b279a2"/>
<circle cx="758.5" cy="314.7" r="3" fill="#b279a2"/>
<circle cx="799.0" cy="310.8" r="3" fill="#b279a2"/>
<circle cx="839.5" cy="316.9" r="3" fill="#b279a2"/>
<circle cx="880.0" cy="316.1" r="3" fill="#b279a2"/>
<rect x="556.0" y="358" width="10" height="10" fill="#b279a2"/>
<text x="570.0" y="367" font-size="11" fill="#333">received mouth</text>
<rect x="718.0" y="358" width="10" height="10" fill="#ff7f0e"/>
<text x="732.0" y="367" font-size="11" fill="#333">server A/V offset</text>
</svg>
