<svg xmlns="http://www.w3.org/2000/svg" width="900" height="380" viewBox="0 0 900 380" font-family="sans-serif">
<rect width="900" height="380" fill="white"/>
<text x="70" y="24" font-size="16" fill="#333">Browser-observed WebRTC latency (ms, p50) — lower is better</text>
<line x1="70" y1="324.0" x2="880" y2="324.0" stroke="#e5e5e5"/>
<text x="64" y="328.0" font-size="11" fill="#666" text-anchor="end">0ms</text>
<line x1="70" y1="268.0" x2="880" y2="268.0" stroke="#e5e5e5"/>
<text x="64" y="272.0" font-size="11" fill="#666" text-anchor="end">2047ms</text>
<line x1="70" y1="212.0" x2="880" y2="212.0" stroke="#e5e5e5"/>
<text x="64" y="216.0" font-size="11" fill="#666" text-anchor="end">4095ms</text>
<line x1="70" y1="156.0" x2="880" y2="156.0" stroke="#e5e5e5"/>
<text x="64" y="160.0" font-size="11" fill="#666" text-anchor="end">6142ms</text>
<line x1="70" y1="100.0" x2="880" y2="100.0" stroke="#e5e5e5"/>
<text x="64" y="104.0" font-size="11" fill="#666" text-anchor="end">8190ms</text>
<line x1="70" y1="44.0" x2="880" y2="44.0" stroke="#e5e5e5"/>
<text x="64" y="48.0" font-size="11" fill="#666" text-anchor="end">10237ms</text>
<text x="70.0" y="342" font-size="11" fill="#666" text-anchor="start">07-16 22:20</text>
<text x="498.8" y="342" font-size="11" fill="#666" text-anchor="middle">07-17 15:26</text>
<text x="880.0" y="342" font-size="11" fill="#666" text-anchor="end">07-17 19:44</text>
<polyline points="70.0,281.9 117.6,277.8 165.3,281.6 212.9,280.8 260.6,277.4 308.2,283.7 355.9,280.4 403.5,278.6 451.2,282.7 498.8,282.6 546.5,285.1 594.1,282.6 641.8,279.5 689.4,292.3 737.1,295.7 784.7,292.4 832.4,293.8 880.0,295.8" fill="none" stroke="#4c78a8" stroke-width="2"/>
<circle cx="70.0" cy="281.9" r="3" fill="#4c78a8"/>
<circle cx="117.6" cy="277.8" r="3" fill="#4c78a8"/>
<circle cx="165.3" cy="281.6" r="3" fill="#4c78a8"/>
<circle cx="212.9" cy="280.8" r="3" fill="#4c78a8"/>
<circle cx="260.6" cy="277.4" r="3" fill="#4c78a8"/>
<circle cx="308.2" cy="283.7" r="3" fill="#4c78a8"/>
<circle cx="355.9" cy="280.4" r="3" fill="#4c78a8"/>
<circle cx="403.5" cy="278.6" r="3" fill="#4c78a8"/>
<circle cx="451.2" cy="282.7" r="3" fill="#4c78a8"/>
<circle cx="498.8" cy="282.6" r="3" fill="#4c78a8"/>
<circle cx="546.5" cy="285.1" r="3" fill="#4c78a8"/>
<circle cx="594.1" cy="282.6" r="3" fill="#4c78a8"/>
<circle cx="641.8" cy="279.5" r="3" fill="#4c78a8"/>
<circle cx="689.4" cy="292.3" r="3" fill="#4c78a8"/>
<circle cx="737.1" cy="295.7" r="3" fill="#4c78a8"/>
<circle cx="784.7" cy="292.4" r="3" fill="#4c78a8"/>
<circle cx="832.4" cy="293.8" r="3" fill="#4c78a8"/>
<circle cx="880.0" cy="295.8" r="3" fill="#4c78a8"/>
<rect x="70.0" y="358" width="10" height="10" fill="#4c78a8"/>
<text x="84.0" y="367" font-size="11" fill="#333">STT final</text>
<polyline points="70.0,274.2 117.6,265.5 165.3,270.9 212.9,270.9 260.6,264.9 308.2,266.7 355.9,268.5 403.5,258.9 451.2,270.2 498.8,265.3 546.5,266.8 594.1,270.8 641.8,266.6 689.4,282.9 737.1,283.6 784.7,271.5 832.4,278.5 880.0,282.7" fill="none" stroke="#59a14f" stroke-width="2"/>
<circle cx="70.0" cy="274.2" r="3" fill="#59a14f"/>
<circle cx="117.6" cy="265.5" r="3" fill="#59a14f"/>
<circle cx="165.3" cy="270.9" r="3" fill="#59a14f"/>
<circle cx="212.9" cy="270.9" r="3" fill="#59a14f"/>
<circle cx="260.6" cy="264.9" r="3" fill="#59a14f"/>
<circle cx="308.2" cy="266.7" r="3" fill="#59a14f"/>
<circle cx="355.9" cy="268.5" r="3" fill="#59a14f"/>
<circle cx="403.5" cy="258.9" r="3" fill="#59a14f"/>
<circle cx="451.2" cy="270.2" r="3" fill="#59a14f"/>
<circle cx="498.8" cy="265.3" r="3" fill="#59a14f"/>
<circle cx="546.5" cy="266.8" r="3" fill="#59a14f"/>
<circle cx="594.1" cy="270.8" r="3" fill="#59a14f"/>
<circle cx="641.8" cy="266.6" r="3" fill="#59a14f"/>
<circle cx="689.4" cy="282.9" r="3" fill="#59a14f"/>
<circle cx="737.1" cy="283.6" r="3" fill="#59a14f"/>
<circle cx="784.7" cy="271.5" r="3" fill="#59a14f"/>
<circle cx="832.4" cy="278.5" r="3" fill="#59a14f"/>
<circle cx="880.0" cy="282.7" r="3" fill="#59a14f"/>
<rect x="232.0" y="358" width="10" height="10" fill="#59a14f"/>
<text x="246.0" y="367" font-size="11" fill="#333">LLM first token</text>
<polyline points="70.0,64.7 117.6,141.3 165.3,181.5 212.9,199.6 260.6,225.3 308.2,252.6 355.9,199.5 403.5,174.4 451.2,203.4 498.8,216.5 546.5,175.0 594.1,245.0 641.8,190.3 689.4,264.1 737.1,262.5 784.7,239.0 832.4,262.5 880.0,266.3" fill="none" stroke="#e15759" stroke-width="2"/>
<circle cx="70.0" cy="64.7" r="3" fill="#e15759"/>
<circle cx="117.6" cy="141.3" r="3" fill="#e15759"/>
<circle cx="165.3" cy="181.5" r="3" fill="#e15759"/>
<circle cx="212.9" cy="199.6" r="3" fill="#e15759"/>
<circle cx="260.6" cy="225.3" r="3" fill="#e15759"/>
<circle cx="308.2" cy="252.6" r="3" fill="#e15759"/>
<circle cx="355.9" cy="199.5" r="3" fill="#e15759"/>
<circle cx="403.5" cy="174.4" r="3" fill="#e15759"/>
<circle cx="451.2" cy="203.4" r="3" fill="#e15759"/>
<circle cx="498.8" cy="216.5" r="3" fill="#e15759"/>
<circle cx="546.5" cy="175.0" r="3" fill="#e15759"/>
<circle cx="594.1" cy="245.0" r="3" fill="#e15759"/>
<circle cx="641.8" cy="190.3" r="3" fill="#e15759"/>
<circle cx="689.4" cy="264.1" r="3" fill="#e15759"/>
<circle cx="737.1" cy="262.5" r="3" fill="#e15759"/>
<circle cx="784.7" cy="239.0" r="3" fill="#e15759"/>
<circle cx="832.4" cy="262.5" r="3" fill="#e15759"/>
<circle cx="880.0" cy="266.3" r="3" fill="#e15759"/>
<rect x="394.0" y="358" width="10" height="10" fill="#e15759"/>
<text x="408.0" y="367" font-size="11" fill="#333">received audio</text>
<polyline points="70.0,312.5 117.6,316.0 165.3,314.6 212.9,315.4 260.6,311.2 308.2,320.1 355.9,304.4 403.5,313.9 451.2,317.1 498.8,307.8 546.5,316.6 594.1,318.8 641.8,309.2 689.4,317.1 737.1,312.4 784.7,309.9 832.4,312.6 880.0,314.7" fill="none" stroke="#b279a2" stroke-width="2"/>
<circle cx="70.0" cy="312.5" r="3" fill="#b279a2"/>
<circle cx="117.6" cy="316.0" r="3" fill="#b279a2"/>
<circle cx="165.3" cy="314.6" r="3" fill="#b279a2"/>
<circle cx="212.9" cy="315.4" r="3" fill="#b279a2"/>
<circle cx="260.6" cy="311.2" r="3" fill="#b279a2"/>
<circle cx="308.2" cy="320.1" r="3" fill="#b279a2"/>
<circle cx="355.9" cy="304.4" r="3" fill="#b279a2"/>
<circle cx="403.5" cy="313.9" r="3" fill="#b279a2"/>
<circle cx="451.2" cy="317.1" r="3" fill="#b279a2"/>
<circle cx="498.8" cy="307.8" r="3" fill="#b279a2"/>
<circle cx="546.5" cy="316.6" r="3" fill="#b279a2"/>
<circle cx="594.1" cy="318.8" r="3" fill="#b279a2"/>
<circle cx="641.8" cy="309.2" r="3" fill="#b279a2"/>
<circle cx="689.4" cy="317.1" r="3" fill="#b279a2"/>
<circle cx="737.1" cy="312.4" r="3" fill="#b279a2"/>
<circle cx="784.7" cy="309.9" r="3" fill="#b279a2"/>
<circle cx="832.4" cy="312.6" r="3" fill="#b279a2"/>
<circle cx="880.0" cy="314.7" r="3" fill="#b279a2"/>
<rect x="556.0" y="358" width="10" height="10" fill="#b279a2"/>
<text x="570.0" y="367" font-size="11" fill="#333">received mouth</text>
<rect x="718.0" y="358" width="10" height="10" fill="#ff7f0e"/>
<text x="732.0" y="367" font-size="11" fill="#333">server A/V offset</text>
</svg>
