<svg xmlns="http://www.w3.org/2000/svg" width="900" height="380" viewBox="0 0 900 380" font-family="sans-serif">
<rect width="900" height="380" fill="white"/>
<text x="70" y="24" font-size="16" fill="#333">Browser-observed WebRTC latency (ms, p50) — lower is better</text>
<line x1="70" y1="324.0" x2="880" y2="324.0" stroke="#e5e5e5"/>
<text x="64" y="328.0" font-size="11" fill="#666" text-anchor="end">0ms</text>
<line x1="70" y1="268.0" x2="880" y2="268.0" stroke="#e5e5e5"/>
<text x="64" y="272.0" font-size="11" fill="#666" text-anchor="end">2305ms</text>
<line x1="70" y1="212.0" x2="880" y2="212.0" stroke="#e5e5e5"/>
<text x="64" y="216.0" font-size="11" fill="#666" text-anchor="end">4609ms</text>
<line x1="70" y1="156.0" x2="880" y2="156.0" stroke="#e5e5e5"/>
<text x="64" y="160.0" font-size="11" fill="#666" text-anchor="end">6914ms</text>
<line x1="70" y1="100.0" x2="880" y2="100.0" stroke="#e5e5e5"/>
<text x="64" y="104.0" font-size="11" fill="#666" text-anchor="end">9219ms</text>
<line x1="70" y1="44.0" x2="880" y2="44.0" stroke="#e5e5e5"/>
<text x="64" y="48.0" font-size="11" fill="#666" text-anchor="end">11523ms</text>
<text x="70.0" y="342" font-size="11" fill="#666" text-anchor="start">07-16 22:20</text>
<text x="485.9" y="342" font-size="11" fill="#666" text-anchor="middle">07-17 19:53</text>
<text x="880.0" y="342" font-size="11" fill="#666" text-anchor="end">07-18 05:40</text>
<polyline points="70.0,286.6 91.9,283.0 113.8,286.3 135.7,285.6 157.6,282.6 179.5,288.2 201.4,285.3 223.2,283.7 245.1,287.3 267.0,287.2 288.9,289.4 310.8,287.2 332.7,284.5 354.6,295.8 376.5,298.9 398.4,295.9 420.3,297.1 442.2,299.0 464.1,294.2 485.9,303.9 507.8,305.8 529.7,302.6 551.6,306.9 573.5,295.9 595.4,303.4 617.3,304.4 639.2,303.2 661.1,306.1 683.0,303.7 704.9,305.2 726.8,302.0 748.6,306.2 770.5,305.3 792.4,305.1 814.3,301.3 836.2,313.8 858.1,312.7 880.0,301.4" fill="none" stroke="#4c78a8" stroke-width="2"/>
<circle cx="70.0" cy="286.6" r="3" fill="#4c78a8"/>
<circle cx="91.9" cy="283.0" r="3" fill="#4c78a8"/>
<circle cx="113.8" cy="286.3" r="3" fill="#4c78a8"/>
<circle cx="135.7" cy="285.6" r="3" fill="#4c78a8"/>
<circle cx="157.6" cy="282.6" r="3" fill="#4c78a8"/>
<circle cx="179.5" cy="288.2" r="3" fill="#4c78a8"/>
<circle cx="201.4" cy="285.3" r="3" fill="#4c78a8"/>
<circle cx="223.2" cy="283.7" r="3" fill="#4c78a8"/>
<circle cx="245.1" cy="287.3" r="3" fill="#4c78a8"/>
<circle cx="267.0" cy="287.2" r="3" fill="#4c78a8"/>
<circle cx="288.9" cy="289.4" r="3" fill="#4c78a8"/>
<circle cx="310.8" cy="287.2" r="3" fill="#4c78a8"/>
<circle cx="332.7" cy="284.5" r="3" fill="#4c78a8"/>
<circle cx="354.6" cy="295.8" r="3" fill="#4c78a8"/>
<circle cx="376.5" cy="298.9" r="3" fill="#4c78a8"/>
<circle cx="398.4" cy="295.9" r="3" fill="#4c78a8"/>
<circle cx="420.3" cy="297.1" r="3" fill="#4c78a8"/>
<circle cx="442.2" cy="299.0" r="3" fill="#4c78a8"/>
<circle cx="464.1" cy="294.2" r="3" fill="#4c78a8"/>
<circle cx="485.9" cy="303.9" r="3" fill="#4c78a8"/>
<circle cx="507.8" cy="305.8" r="3" fill="#4c78a8"/>
<circle cx="529.7" cy="302.6" r="3" fill="#4c78a8"/>
<circle cx="551.6" cy="306.9" r="3" fill="#4c78a8"/>
<circle cx="573.5" cy="295.9" r="3" fill="#4c78a8"/>
<circle cx="595.4" cy="303.4" r="3" fill="#4c78a8"/>
<circle cx="617.3" cy="304.4" r="3" fill="#4c78a8"/>
<circle cx="639.2" cy="303.2" r="3" fill="#4c78a8"/>
<circle cx="661.1" cy="306.1" r="3" fill="#4c78a8"/>
<circle cx="683.0" cy="303.7" r="3" fill="#4c78a8"/>
<circle cx="704.9" cy="305.2" r="3" fill="#4c78a8"/>
<circle cx="726.8" cy="302.0" r="3" fill="#4c78a8"/>
<circle cx="748.6" cy="306.2" r="3" fill="#4c78a8"/>
<circle cx="770.5" cy="305.3" r="3" fill="#4c78a8"/>
<circle cx="792.4" cy="305.1" r="3" fill="#4c78a8"/>
<circle cx="814.3" cy="301.3" r="3" fill="#4c78a8"/>
<circle cx="836.2" cy="313.8" r="3" fill="#4c78a8"/>
<circle cx="858.1" cy="312.7" r="3" fill="#4c78a8"/>
<circle cx="880.0" cy="301.4" r="3" fill="#4c78a8"/>
<rect x="70.0" y="358" width="10" height="10" fill="#4c78a8"/>
<text x="84.0" y="367" font-size="11" fill="#333">STT final</text>
<polyline points="70.0,279.7 91.9,272.0 113.8,276.8 135.7,276.8 157.6,271.5 179.5,273.1 201.4,274.7 223.2,266.2 245.1,276.2 267.0,271.8 288.9,273.2 310.8,276.7 332.7,273.0 354.6,287.5 376.5,288.1 398.4,277.4 420.3,283.6 442.2,287.3 464.1,284.1 485.9,295.0 507.8,294.7 529.7,296.8 551.6,290.6 573.5,235.7 595.4,287.8 617.3,295.2 639.2,291.0 661.1,295.8 683.0,293.3 704.9,288.3 726.8,280.2 748.6,297.5 770.5,290.9 792.4,297.0 814.3,289.8 836.2,304.9 858.1,300.8 880.0,286.0" fill="none" stroke="#59a14f" stroke-width="2"/>
<circle cx="70.0" cy="279.7" r="3" fill="#59a14f"/>
<circle cx="91.9" cy="272.0" r="3" fill="#59a14f"/>
<circle cx="113.8" cy="276.8" r="3" fill="#59a14f"/>
<circle cx="135.7" cy="276.8" r="3" fill="#59a14f"/>
<circle cx="157.6" cy="271.5" r="3" fill="#59a14f"/>
<circle cx="179.5" cy="273.1" r="3" fill="#59a14f"/>
<circle cx="201.4" cy="274.7" r="3" fill="#59a14f"/>
<circle cx="223.2" cy="266.2" r="3" fill="#59a14f"/>
<circle cx="245.1" cy="276.2" r="3" fill="#59a14f"/>
<circle cx="267.0" cy="271.8" r="3" fill="#59a14f"/>
<circle cx="288.9" cy="273.2" r="3" fill="#59a14f"/>
<circle cx="310.8" cy="276.7" r="3" fill="#59a14f"/>
<circle cx="332.7" cy="273.0" r="3" fill="#59a14f"/>
<circle cx="354.6" cy="287.5" r="3" fill="#59a14f"/>
<circle cx="376.5" cy="288.1" r="3" fill="#59a14f"/>
<circle cx="398.4" cy="277.4" r="3" fill="#59a14f"/>
<circle cx="420.3" cy="283.6" r="3" fill="#59a14f"/>
<circle cx="442.2" cy="287.3" r="3" fill="#59a14f"/>
<circle cx="464.1" cy="284.1" r="3" fill="#59a14f"/>
<circle cx="485.9" cy="295.0" r="3" fill="#59a14f"/>
<circle cx="507.8" cy="294.7" r="3" fill="#59a14f"/>
<circle cx="529.7" cy="296.8" r="3" fill="#59a14f"/>
<circle cx="551.6" cy="290.6" r="3" fill="#59a14f"/>
<circle cx="573.5" cy="235.7" r="3" fill="#59a14f"/>
<circle cx="595.4" cy="287.8" r="3" fill="#59a14f"/>
<circle cx="617.3" cy="295.2" r="3" fill="#59a14f"/>
<circle cx="639.2" cy="291.0" r="3" fill="#59a14f"/>
<circle cx="661.1" cy="295.8" r="3" fill="#59a14f"/>
<circle cx="683.0" cy="293.3" r="3" fill="#59a14f"/>
<circle cx="704.9" cy="288.3" r="3" fill="#59a14f"/>
<circle cx="726.8" cy="280.2" r="3" fill="#59a14f"/>
<circle cx="748.6" cy="297.5" r="3" fill="#59a14f"/>
<circle cx="770.5" cy="290.9" r="3" fill="#59a14f"/>
<circle cx="792.4" cy="297.0" r="3" fill="#59a14f"/>
<circle cx="814.3" cy="289.8" r="3" fill="#59a14f"/>
<circle cx="836.2" cy="304.9" r="3" fill="#59a14f"/>
<circle cx="858.1" cy="300.8" r="3" fill="#59a14f"/>
<circle cx="880.0" cy="286.0" r="3" fill="#59a14f"/>
<rect x="232.0" y="358" width="10" height="10" fill="#59a14f"/>
<text x="246.0" y="367" font-size="11" fill="#333">LLM first token</text>
<polyline points="70.0,93.7 91.9,161.7 113.8,197.4 135.7,213.5 157.6,236.3 179.5,260.6 201.4,213.4 223.2,191.1 245.1,216.8 267.0,228.5 288.9,191.6 310.8,253.8 332.7,205.2 354.6,270.8 376.5,269.3 398.4,248.4 420.3,269.3 442.2,272.7 464.1,267.4 485.9,282.0 507.8,283.9 529.7,286.8 551.6,272.5 573.5,64.7 595.4,268.8 617.3,275.7 639.2,278.6 661.1,281.5 683.0,283.9 704.9,275.7 726.8,264.5 748.6,286.3 770.5,278.6 792.4,281.0 814.3,271.8 836.2,294.1 858.1,287.8 880.0,262.0" fill="none" stroke="#e15759" stroke-width="2"/>
<circle cx="70.0" cy="93.7" r="3" fill="#e15759"/>
<circle cx="91.9" cy="161.7" r="3" fill="#e15759"/>
<circle cx="113.8" cy="197.4" r="3" fill="#e15759"/>
<circle cx="135.7" cy="213.5" r="3" fill="#e15759"/>
<circle cx="157.6" cy="236.3" r="3" fill="#e15759"/>
<circle cx="179.5" cy="260.6" r="3" fill="#e15759"/>
<circle cx="201.4" cy="213.4" r="3" fill="#e15759"/>
<circle cx="223.2" cy="191.1" r="3" fill="#e15759"/>
<circle cx="245.1" cy="216.8" r="3" fill="#e15759"/>
<circle cx="267.0" cy="228.5" r="3" fill="#e15759"/>
<circle cx="288.9" cy="191.6" r="3" fill="#e15759"/>
<circle cx="310.8" cy="253.8" r="3" fill="#e15759"/>
<circle cx="332.7" cy="205.2" r="3" fill="#e15759"/>
<circle cx="354.6" cy="270.8" r="3" fill="#e15759"/>
<circle cx="376.5" cy="269.3" r="3" fill="#e15759"/>
<circle cx="398.4" cy="248.4" r="3" fill="#e15759"/>
<circle cx="420.3" cy="269.3" r="3" fill="#e15759"/>
<circle cx="442.2" cy="272.7" r="3" fill="#e15759"/>
<circle cx="464.1" cy="267.4" r="3" fill="#e15759"/>
<circle cx="485.9" cy="282.0" r="3" fill="#e15759"/>
<circle cx="507.8" cy="283.9" r="3" fill="#e15759"/>
<circle cx="529.7" cy="286.8" r="3" fill="#e15759"/>
<circle cx="551.6" cy="272.5" r="3" fill="#e15759"/>
<circle cx="573.5" cy="64.7" r="3" fill="#e15759"/>
<circle cx="595.4" cy="268.8" r="3" fill="#e15759"/>
<circle cx="617.3" cy="275.7" r="3" fill="#e15759"/>
<circle cx="639.2" cy="278.6" r="3" fill="#e15759"/>
<circle cx="661.1" cy="281.5" r="3" fill="#e15759"/>
<circle cx="683.0" cy="283.9" r="3" fill="#e15759"/>
<circle cx="704.9" cy="275.7" r="3" fill="#e15759"/>
<circle cx="726.8" cy="264.5" r="3" fill="#e15759"/>
<circle cx="748.6" cy="286.3" r="3" fill="#e15759"/>
<circle cx="770.5" cy="278.6" r="3" fill="#e15759"/>
<circle cx="792.4" cy="281.0" r="3" fill="#e15759"/>
<circle cx="814.3" cy="271.8" r="3" fill="#e15759"/>
<circle cx="836.2" cy="294.1" r="3" fill="#e15759"/>
<circle cx="858.1" cy="287.8" r="3" fill="#e15759"/>
<circle cx="880.0" cy="262.0" r="3" fill="#e15759"/>
<rect x="394.0" y="358" width="10" height="10" fill="#e15759"/>
<text x="408.0" y="367" font-size="11" fill="#333">received audio</text>
<polyline points="70.0,313.8 91.9,316.9 113.8,315.6 135.7,316.4 157.6,312.7 179.5,320.5 201.4,306.6 223.2,315.1 245.1,317.8 267.0,309.6 288.9,317.4 310.8,319.3 332.7,310.8 354.6,317.9 376.5,313.7 398.4,311.5 420.3,313.9 442.2,315.8 464.1,312.3 485.9,317.7 507.8,316.9 529.7,318.4 551.6,315.2 573.5,317.0 595.4,319.2 617.3,315.3 639.2,319.4 661.1,319.4 683.0,318.9 704.9,310.1 726.8,311.8 748.6,319.8 770.5,318.0 792.4,315.2 814.3,314.7 836.2,320.7 858.1,320.6 880.0,316.9" fill="none" stroke="#b279a2" stroke-width="2"/>
<circle cx="70.0" cy="313.8" r="3" fill="#b279a2"/>
<circle cx="91.9" cy="316.9" r="3" fill="#b279a2"/>
<circle cx="113.8" cy="315.6" r="3" fill="#b279a2"/>
<circle cx="135.7" cy="316.4" r="3" fill="#b279a2"/>
<circle cx="157.6" cy="312.7" r="3" fill="#b279a2"/>
<circle cx="179.5" cy="320.5" r="3" fill="#b279a2"/>
<circle cx="201.4" cy="306.6" r="3" fill="#b279a2"/>
<circle cx="223.2" cy="315.1" r="3" fill="#b279a2"/>
<circle cx="245.1" cy="317.8" r="3" fill="#b279a2"/>
<circle cx="267.0" cy="309.6" r="3" fill="#b279a2"/>
<circle cx="288.9" cy="317.4" r="3" fill="#b279a2"/>
<circle cx="310.8" cy="319.3" r="3" fill="#b279a2"/>
<circle cx="332.7" cy="310.8" r="3" fill="#b279a2"/>
<circle cx="354.6" cy="317.9" r="3" fill="#b279a2"/>
<circle cx="376.5" cy="313.7" r="3" fill="#b279a2"/>
<circle cx="398.4" cy="311.5" r="3" fill="#b279a2"/>
<circle cx="420.3" cy="313.9" r="3" fill="#b279a2"/>
<circle cx="442.2" cy="315.8" r="3" fill="#b279a2"/>
<circle cx="464.1" cy="312.3" r="3" fill="#b279a2"/>
<circle cx="485.9" cy="317.7" r="3" fill="#b279a2"/>
<circle cx="507.8" cy="316.9" r="3" fill="#b279a2"/>
<circle cx="529.7" cy="318.4" r="3" fill="#b279a2"/>
<circle cx="551.6" cy="315.2" r="3" fill="#b279a2"/>
<circle cx="573.5" cy="317.0" r="3" fill="#b279a2"/>
<circle cx="595.4" cy="319.2" r="3" fill="#b279a2"/>
<circle cx="617.3" cy="315.3" r="3" fill="#b279a2"/>
<circle cx="639.2" cy="319.4" r="3" fill="#b279a2"/>
<circle cx="661.1" cy="319.4" r="3" fill="#b279a2"/>
<circle cx="683.0" cy="318.9" r="3" fill="#b279a2"/>
<circle cx="704.9" cy="310.1" r="3" fill="#b279a2"/>
<circle cx="726.8" cy="311.8" r="3" fill="#b279a2"/>
<circle cx="748.6" cy="319.8" r="3" fill="#b279a2"/>
<circle cx="770.5" cy="318.0" r="3" fill="#b279a2"/>
<circle cx="792.4" cy="315.2" r="3" fill="#b279a2"/>
<circle cx="814.3" cy="314.7" r="3" fill="#b279a2"/>
<circle cx="836.2" cy="320.7" r="3" fill="#b279a2"/>
<circle cx="858.1" cy="320.6" r="3" fill="#b279a2"/>
<circle cx="880.0" cy="316.9" r="3" fill="#b279a2"/>
<rect x="556.0" y="358" width="10" height="10" fill="#b279a2"/>
<text x="570.0" y="367" font-size="11" fill="#333">received mouth</text>
<rect x="718.0" y="358" width="10" height="10" fill="#ff7f0e"/>
<text x="732.0" y="367" font-size="11" fill="#333">server A/V offset</text>
</svg>
