<svg xmlns="http://www.w3.org/2000/svg" width="900" height="380" viewBox="0 0 900 380" font-family="sans-serif">
<rect width="900" height="380" fill="white"/>
<text x="70" y="24" font-size="16" fill="#333">Browser-observed WebRTC latency (ms, p50) — lower is better</text>
<line x1="70" y1="324.0" x2="880" y2="324.0" stroke="#e5e5e5"/>
<text x="64" y="328.0" font-size="11" fill="#666" text-anchor="end">0ms</text>
<line x1="70" y1="268.0" x2="880" y2="268.0" stroke="#e5e5e5"/>
<text x="64" y="272.0" font-size="11" fill="#666" text-anchor="end">2305ms</text>
<line x1="70" y1="212.0" x2="880" y2="212.0" stroke="#e5e5e5"/>
<text x="64" y="216.0" font-size="11" fill="#666" text-anchor="end">4609ms</text>
<line x1="70" y1="156.0" x2="880" y2="156.0" stroke="#e5e5e5"/>
<text x="64" y="160.0" font-size="11" fill="#666" text-anchor="end">6914ms</text>
<line x1="70" y1="100.0" x2="880" y2="100.0" stroke="#e5e5e5"/>
<text x="64" y="104.0" font-size="11" fill="#666" text-anchor="end">9219ms</text>
<line x1="70" y1="44.0" x2="880" y2="44.0" stroke="#e5e5e5"/>
<text x="64" y="48.0" font-size="11" fill="#666" text-anchor="end">11523ms</text>
<text x="70.0" y="342" font-size="11" fill="#666" text-anchor="start">07-16 22:20</text>
<text x="487.3" y="342" font-size="11" fill="#666" text-anchor="middle">07-17 19:44</text>
<text x="880.0" y="342" font-size="11" fill="#666" text-anchor="end">07-17 22:14</text>
<polyline points="70.0,286.6 94.5,283.0 119.1,286.3 143.6,285.6 168.2,282.6 192.7,288.2 217.3,285.3 241.8,283.7 266.4,287.3 290.9,287.2 315.5,289.4 340.0,287.2 364.5,284.5 389.1,295.8 413.6,298.9 438.2,295.9 462.7,297.1 487.3,299.0 511.8,294.2 536.4,303.9 560.9,305.8 585.5,302.6 610.0,306.9 634.5,295.9 659.1,303.4 683.6,304.4 708.2,303.2 732.7,306.1 757.3,303.7 781.8,305.2 806.4,302.0 830.9,306.2 855.5,305.3 880.0,305.1" fill="none" stroke="#4c78a8" stroke-width="2"/>
<circle cx="70.0" cy="286.6" r="3" fill="#4c78a8"/>
<circle cx="94.5" cy="283.0" r="3" fill="#4c78a8"/>
<circle cx="119.1" cy="286.3" r="3" fill="#4c78a8"/>
<circle cx="143.6" cy="285.6" r="3" fill="#4c78a8"/>
<circle cx="168.2" cy="282.6" r="3" fill="#4c78a8"/>
<circle cx="192.7" cy="288.2" r="3" fill="#4c78a8"/>
<circle cx="217.3" cy="285.3" r="3" fill="#4c78a8"/>
<circle cx="241.8" cy="283.7" r="3" fill="#4c78a8"/>
<circle cx="266.4" cy="287.3" r="3" fill="#4c78a8"/>
<circle cx="290.9" cy="287.2" r="3" fill="#4c78a8"/>
<circle cx="315.5" cy="289.4" r="3" fill="#4c78a8"/>
<circle cx="340.0" cy="287.2" r="3" fill="#4c78a8"/>
<circle cx="364.5" cy="284.5" r="3" fill="#4c78a8"/>
<circle cx="389.1" cy="295.8" r="3" fill="#4c78a8"/>
<circle cx="413.6" cy="298.9" r="3" fill="#4c78a8"/>
<circle cx="438.2" cy="295.9" r="3" fill="#4c78a8"/>
<circle cx="462.7" cy="297.1" r="3" fill="#4c78a8"/>
<circle cx="487.3" cy="299.0" r="3" fill="#4c78a8"/>
<circle cx="511.8" cy="294.2" r="3" fill="#4c78a8"/>
<circle cx="536.4" cy="303.9" r="3" fill="#4c78a8"/>
<circle cx="560.9" cy="305.8" r="3" fill="#4c78a8"/>
<circle cx="585.5" cy="302.6" r="3" fill="#4c78a8"/>
<circle cx="610.0" cy="306.9" r="3" fill="#4c78a8"/>
<circle cx="634.5" cy="295.9" r="3" fill="#4c78a8"/>
<circle cx="659.1" cy="303.4" r="3" fill="#4c78a8"/>
<circle cx="683.6" cy="304.4" r="3" fill="#4c78a8"/>
<circle cx="708.2" cy="303.2" r="3" fill="#4c78a8"/>
<circle cx="732.7" cy="306.1" r="3" fill="#4c78a8"/>
<circle cx="757.3" cy="303.7" r="3" fill="#4c78a8"/>
<circle cx="781.8" cy="305.2" r="3" fill="#4c78a8"/>
<circle cx="806.4" cy="302.0" r="3" fill="#4c78a8"/>
<circle cx="830.9" cy="306.2" r="3" fill="#4c78a8"/>
<circle cx="855.5" cy="305.3" r="3" fill="#4c78a8"/>
<circle cx="880.0" cy="305.1" r="3" fill="#4c78a8"/>
<rect x="70.0" y="358" width="10" height="10" fill="#4c78a8"/>
<text x="84.0" y="367" font-size="11" fill="#333">STT final</text>
<polyline points="70.0,279.7 94.5,272.0 119.1,276.8 143.6,276.8 168.2,271.5 192.7,273.1 217.3,274.7 241.8,266.2 266.4,276.2 290.9,271.8 315.5,273.2 340.0,276.7 364.5,273.0 389.1,287.5 413.6,288.1 438.2,277.4 462.7,283.6 487.3,287.3 511.8,284.1 536.4,295.0 560.9,294.7 585.5,296.8 610.0,290.6 634.5,235.7 659.1,287.8 683.6,295.2 708.2,291.0 732.7,295.8 757.3,293.3 781.8,288.3 806.4,280.2 830.9,297.5 855.5,290.9 880.0,297.0" fill="none" stroke="#59a14f" stroke-width="2"/>
<circle cx="70.0" cy="279.7" r="3" fill="#59a14f"/>
<circle cx="94.5" cy="272.0" r="3" fill="#59a14f"/>
<circle cx="119.1" cy="276.8" r="3" fill="#59a14f"/>
<circle cx="143.6" cy="276.8" r="3" fill="#59a14f"/>
<circle cx="168.2" cy="271.5" r="3" fill="#59a14f"/>
<circle cx="192.7" cy="273.1" r="3" fill="#59a14f"/>
<circle cx="217.3" cy="274.7" r="3" fill="#59a14f"/>
<circle cx="241.8" cy="266.2" r="3" fill="#59a14f"/>
<circle cx="266.4" cy="276.2" r="3" fill="#59a14f"/>
<circle cx="290.9" cy="271.8" r="3" fill="#59a14f"/>
<circle cx="315.5" cy="273.2" r="3" fill="#59a14f"/>
<circle cx="340.0" cy="276.7" r="3" fill="#59a14f"/>
<circle cx="364.5" cy="273.0" r="3" fill="#59a14f"/>
<circle cx="389.1" cy="287.5" r="3" fill="#59a14f"/>
<circle cx="413.6" cy="288.1" r="3" fill="#59a14f"/>
<circle cx="438.2" cy="277.4" r="3" fill="#59a14f"/>
<circle cx="462.7" cy="283.6" r="3" fill="#59a14f"/>
<circle cx="487.3" cy="287.3" r="3" fill="#59a14f"/>
<circle cx="511.8" cy="284.1" r="3" fill="#59a14f"/>
<circle cx="536.4" cy="295.0" r="3" fill="#59a14f"/>
<circle cx="560.9" cy="294.7" r="3" fill="#59a14f"/>
<circle cx="585.5" cy="296.8" r="3" fill="#59a14f"/>
<circle cx="610.0" cy="290.6" r="3" fill="#59a14f"/>
<circle cx="634.5" cy="235.7" r="3" fill="#59a14f"/>
<circle cx="659.1" cy="287.8" r="3" fill="#59a14f"/>
<circle cx="683.6" cy="295.2" r="3" fill="#59a14f"/>
<circle cx="708.2" cy="291.0" r="3" fill="#59a14f"/>
<circle cx="732.7" cy="295.8" r="3" fill="#59a14f"/>
<circle cx="757.3" cy="293.3" r="3" fill="#59a14f"/>
<circle cx="781.8" cy="288.3" r="3" fill="#59a14f"/>
<circle cx="806.4" cy="280.2" r="3" fill="#59a14f"/>
<circle cx="830.9" cy="297.5" r="3" fill="#59a14f"/>
<circle cx="855.5" cy="290.9" r="3" fill="#59a14f"/>
<circle cx="880.0" cy="297.0" r="3" fill="#59a14f"/>
<rect x="232.0" y="358" width="10" height="10" fill="#59a14f"/>
<text x="246.0" y="367" font-size="11" fill="#333">LLM first token</text>
<polyline points="70.0,93.7 94.5,161.7 119.1,197.4 143.6,213.5 168.2,236.3 192.7,260.6 217.3,213.4 241.8,191.1 266.4,216.8 290.9,228.5 315.5,191.6 340.0,253.8 364.5,205.2 389.1,270.8 413.6,269.3 438.2,248.4 462.7,269.3 487.3,272.7 511.8,267.4 536.4,282.0 560.9,283.9 585.5,286.8 610.0,272.5 634.5,64.7 659.1,268.8 683.6,275.7 708.2,278.6 732.7,281.5 757.3,283.9 781.8,275.7 806.4,264.5 830.9,286.3 855.5,278.6 880.0,281.0" fill="none" stroke="#e15759" stroke-width="2"/>
<circle cx="70.0" cy="93.7" r="3" fill="#e15759"/>
<circle cx="94.5" cy="161.7" r="3" fill="#e15759"/>
<circle cx="119.1" cy="197.4" r="3" fill="#e15759"/>
<circle cx="143.6" cy="213.5" r="3" fill="#e15759"/>
<circle cx="168.2" cy="236.3" r="3" fill="#e15759"/>
<circle cx="192.7" cy="260.6" r="3" fill="#e15759"/>
<circle cx="217.3" cy="213.4" r="3" fill="#e15759"/>
<circle cx="241.8" cy="191.1" r="3" fill="#e15759"/>
<circle cx="266.4" cy="216.8" r="3" fill="#e15759"/>
<circle cx="290.9" cy="228.5" r="3" fill="#e15759"/>
<circle cx="315.5" cy="191.6" r="3" fill="#e15759"/>
<circle cx="340.0" cy="253.8" r="3" fill="#e15759"/>
<circle cx="364.5" cy="205.2" r="3" fill="#e15759"/>
<circle cx="389.1" cy="270.8" r="3" fill="#e15759"/>
<circle cx="413.6" cy="269.3" r="3" fill="#e15759"/>
<circle cx="438.2" cy="248.4" r="3" fill="#e15759"/>
<circle cx="462.7" cy="269.3" r="3" fill="#e15759"/>
<circle cx="487.3" cy="272.7" r="3" fill="#e15759"/>
<circle cx="511.8" cy="267.4" r="3" fill="#e15759"/>
<circle cx="536.4" cy="282.0" r="3" fill="#e15759"/>
<circle cx="560.9" cy="283.9" r="3" fill="#e15759"/>
<circle cx="585.5" cy="286.8" r="3" fill="#e15759"/>
<circle cx="610.0" cy="272.5" r="3" fill="#e15759"/>
<circle cx="634.5" cy="64.7" r="3" fill="#e15759"/>
<circle cx="659.1" cy="268.8" r="3" fill="#e15759"/>
<circle cx="683.6" cy="275.7" r="3" fill="#e15759"/>
<circle cx="708.2" cy="278.6" r="3" fill="#e15759"/>
<circle cx="732.7" cy="281.5" r="3" fill="#e15759"/>
<circle cx="757.3" cy="283.9" r="3" fill="#e15759"/>
<circle cx="781.8" cy="275.7" r="3" fill="#e15759"/>
<circle cx="806.4" cy="264.5" r="3" fill="#e15759"/>
<circle cx="830.9" cy="286.3" r="3" fill="#e15759"/>
<circle cx="855.5" cy="278.6" r="3" fill="#e15759"/>
<circle cx="880.0" cy="281.0" r="3" fill="#e15759"/>
<rect x="394.0" y="358" width="10" height="10" fill="#e15759"/>
<text x="408.0" y="367" font-size="11" fill="#333">received audio</text>
<polyline points="70.0,313.8 94.5,316.9 119.1,315.6 143.6,316.4 168.2,312.7 192.7,320.5 217.3,306.6 241.8,315.1 266.4,317.8 290.9,309.6 315.5,317.4 340.0,319.3 364.5,310.8 389.1,317.9 413.6,313.7 438.2,311.5 462.7,313.9 487.3,315.8 511.8,312.3 536.4,317.7 560.9,316.9 585.5,318.4 610.0,315.2 634.5,317.0 659.1,319.2 683.6,315.3 708.2,319.4 732.7,319.4 757.3,318.9 781.8,310.1 806.4,311.8 830.9,319.8 855.5,318.0 880.0,315.2" fill="none" stroke="#b279a2" stroke-width="2"/>
<circle cx="70.0" cy="313.8" r="3" fill="#b279a2"/>
<circle cx="94.5" cy="316.9" r="3" fill="#b279a2"/>
<circle cx="119.1" cy="315.6" r="3" fill="#b279a2"/>
<circle cx="143.6" cy="316.4" r="3" fill="#b279a2"/>
<circle cx="168.2" cy="312.7" r="3" fill="#b279a2"/>
<circle cx="192.7" cy="320.5" r="3" fill="#b279a2"/>
<circle cx="217.3" cy="306.6" r="3" fill="#b279a2"/>
<circle cx="241.8" cy="315.1" r="3" fill="#b279a2"/>
<circle cx="266.4" cy="317.8" r="3" fill="#b279a2"/>
<circle cx="290.9" cy="309.6" r="3" fill="#b279a2"/>
<circle cx="315.5" cy="317.4" r="3" fill="#b279a2"/>
<circle cx="340.0" cy="319.3" r="3" fill="#b279a2"/>
<circle cx="364.5" cy="310.8" r="3" fill="#b279a2"/>
<circle cx="389.1" cy="317.9" r="3" fill="#b279a2"/>
<circle cx="413.6" cy="313.7" r="3" fill="#b279a2"/>
<circle cx="438.2" cy="311.5" r="3" fill="#b279a2"/>
<circle cx="462.7" cy="313.9" r="3" fill="#b279a2"/>
<circle cx="487.3" cy="315.8" r="3" fill="#b279a2"/>
<circle cx="511.8" cy="312.3" r="3" fill="#b279a2"/>
<circle cx="536.4" cy="317.7" r="3" fill="#b279a2"/>
<circle cx="560.9" cy="316.9" r="3" fill="#b279a2"/>
<circle cx="585.5" cy="318.4" r="3" fill="#b279a2"/>
<circle cx="610.0" cy="315.2" r="3" fill="#b279a2"/>
<circle cx="634.5" cy="317.0" r="3" fill="#b279a2"/>
<circle cx="659.1" cy="319.2" r="3" fill="#b279a2"/>
<circle cx="683.6" cy="315.3" r="3" fill="#b279a2"/>
<circle cx="708.2" cy="319.4" r="3" fill="#b279a2"/>
<circle cx="732.7" cy="319.4" r="3" fill="#b279a2"/>
<circle cx="757.3" cy="318.9" r="3" fill="#b279a2"/>
<circle cx="781.8" cy="310.1" r="3" fill="#b279a2"/>
<circle cx="806.4" cy="311.8" r="3" fill="#b279a2"/>
<circle cx="830.9" cy="319.8" r="3" fill="#b279a2"/>
<circle cx="855.5" cy="318.0" r="3" fill="#b279a2"/>
<circle cx="880.0" cy="315.2" r="3" fill="#b279a2"/>
<rect x="556.0" y="358" width="10" height="10" fill="#b279a2"/>
<text x="570.0" y="367" font-size="11" fill="#333">received mouth</text>
<rect x="718.0" y="358" width="10" height="10" fill="#ff7f0e"/>
<text x="732.0" y="367" font-size="11" fill="#333">server A/V offset</text>
</svg>
