<svg xmlns="http://www.w3.org/2000/svg" width="900" height="380" viewBox="0 0 900 380" font-family="sans-serif">
<rect width="900" height="380" fill="white"/>
<text x="70" y="24" font-size="16" fill="#333">Browser-observed WebRTC latency (ms, p50) — lower is better</text>
<line x1="70" y1="324.0" x2="880" y2="324.0" stroke="#e5e5e5"/>
<text x="64" y="328.0" font-size="11" fill="#666" text-anchor="end">0ms</text>
<line x1="70" y1="268.0" x2="880" y2="268.0" stroke="#e5e5e5"/>
<text x="64" y="272.0" font-size="11" fill="#666" text-anchor="end">2305ms</text>
<line x1="70" y1="212.0" x2="880" y2="212.0" stroke="#e5e5e5"/>
<text x="64" y="216.0" font-size="11" fill="#666" text-anchor="end">4609ms</text>
<line x1="70" y1="156.0" x2="880" y2="156.0" stroke="#e5e5e5"/>
<text x="64" y="160.0" font-size="11" fill="#666" text-anchor="end">6914ms</text>
<line x1="70" y1="100.0" x2="880" y2="100.0" stroke="#e5e5e5"/>
<text x="64" y="104.0" font-size="11" fill="#666" text-anchor="end">9219ms</text>
<line x1="70" y1="44.0" x2="880" y2="44.0" stroke="#e5e5e5"/>
<text x="64" y="48.0" font-size="11" fill="#666" text-anchor="end">11523ms</text>
<text x="70.0" y="342" font-size="11" fill="#666" text-anchor="start">07-16 22:20</text>
<text x="475.0" y="342" font-size="11" fill="#666" text-anchor="middle">07-17 20:08</text>
<text x="880.0" y="342" font-size="11" fill="#666" text-anchor="end">07-18 18:27</text>
<polyline points="70.0,286.6 88.4,283.0 106.8,286.3 125.2,285.6 143.6,282.6 162.0,288.2 180.5,285.3 198.9,283.7 217.3,287.3 235.7,287.2 254.1,289.4 272.5,287.2 290.9,284.5 309.3,295.8 327.7,298.9 346.1,295.9 364.5,297.1 383.0,299.0 401.4,294.2 419.8,303.9 438.2,305.8 456.6,302.6 475.0,306.9 493.4,295.9 511.8,303.4 530.2,304.4 548.6,303.2 567.0,306.1 585.5,303.7 603.9,305.2 622.3,302.0 640.7,306.2 659.1,305.3 677.5,305.1 695.9,301.3 714.3,313.8 732.7,312.7 751.1,301.4 769.5,301.9 788.0,300.0 806.4,313.8 824.8,303.6 843.2,300.9 861.6,313.3 880.0,301.3" fill="none" stroke="#4c78a8" stroke-width="2"/>
<circle cx="70.0" cy="286.6" r="3" fill="#4c78a8"/>
<circle cx="88.4" cy="283.0" r="3" fill="#4c78a8"/>
<circle cx="106.8" cy="286.3" r="3" fill="#4c78a8"/>
<circle cx="125.2" cy="285.6" r="3" fill="#4c78a8"/>
<circle cx="143.6" cy="282.6" r="3" fill="#4c78a8"/>
<circle cx="162.0" cy="288.2" r="3" fill="#4c78a8"/>
<circle cx="180.5" cy="285.3" r="3" fill="#4c78a8"/>
<circle cx="198.9" cy="283.7" r="3" fill="#4c78a8"/>
<circle cx="217.3" cy="287.3" r="3" fill="#4c78a8"/>
<circle cx="235.7" cy="287.2" r="3" fill="#4c78a8"/>
<circle cx="254.1" cy="289.4" r="3" fill="#4c78a8"/>
<circle cx="272.5" cy="287.2" r="3" fill="#4c78a8"/>
<circle cx="290.9" cy="284.5" r="3" fill="#4c78a8"/>
<circle cx="309.3" cy="295.8" r="3" fill="#4c78a8"/>
<circle cx="327.7" cy="298.9" r="3" fill="#4c78a8"/>
<circle cx="346.1" cy="295.9" r="3" fill="#4c78a8"/>
<circle cx="364.5" cy="297.1" r="3" fill="#4c78a8"/>
<circle cx="383.0" cy="299.0" r="3" fill="#4c78a8"/>
<circle cx="401.4" cy="294.2" r="3" fill="#4c78a8"/>
<circle cx="419.8" cy="303.9" r="3" fill="#4c78a8"/>
<circle cx="438.2" cy="305.8" r="3" fill="#4c78a8"/>
<circle cx="456.6" cy="302.6" r="3" fill="#4c78a8"/>
<circle cx="475.0" cy="306.9" r="3" fill="#4c78a8"/>
<circle cx="493.4" cy="295.9" r="3" fill="#4c78a8"/>
<circle cx="511.8" cy="303.4" r="3" fill="#4c78a8"/>
<circle cx="530.2" cy="304.4" r="3" fill="#4c78a8"/>
<circle cx="548.6" cy="303.2" r="3" fill="#4c78a8"/>
<circle cx="567.0" cy="306.1" r="3" fill="#4c78a8"/>
<circle cx="585.5" cy="303.7" r="3" fill="#4c78a8"/>
<circle cx="603.9" cy="305.2" r="3" fill="#4c78a8"/>
<circle cx="622.3" cy="302.0" r="3" fill="#4c78a8"/>
<circle cx="640.7" cy="306.2" r="3" fill="#4c78a8"/>
<circle cx="659.1" cy="305.3" r="3" fill="#4c78a8"/>
<circle cx="677.5" cy="305.1" r="3" fill="#4c78a8"/>
<circle cx="695.9" cy="301.3" r="3" fill="#4c78a8"/>
<circle cx="714.3" cy="313.8" r="3" fill="#4c78a8"/>
<circle cx="732.7" cy="312.7" r="3" fill="#4c78a8"/>
<circle cx="751.1" cy="301.4" r="3" fill="#4c78a8"/>
<circle cx="769.5" cy="301.9" r="3" fill="#4c78a8"/>
<circle cx="788.0" cy="300.0" r="3" fill="#4c78a8"/>
<circle cx="806.4" cy="313.8" r="3" fill="#4c78a8"/>
<circle cx="824.8" cy="303.6" r="3" fill="#4c78a8"/>
<circle cx="843.2" cy="300.9" r="3" fill="#4c78a8"/>
<circle cx="861.6" cy="313.3" r="3" fill="#4c78a8"/>
<circle cx="880.0" cy="301.3" r="3" fill="#4c78a8"/>
<rect x="70.0" y="358" width="10" height="10" fill="#4c78a8"/>
<text x="84.0" y="367" font-size="11" fill="#333">STT final</text>
<polyline points="70.0,279.7 88.4,272.0 106.8,276.8 125.2,276.8 143.6,271.5 162.0,273.1 180.5,274.7 198.9,266.2 217.3,276.2 235.7,271.8 254.1,273.2 272.5,276.7 290.9,273.0 309.3,287.5 327.7,288.1 346.1,277.4 364.5,283.6 383.0,287.3 401.4,284.1 419.8,295.0 438.2,294.7 456.6,296.8 475.0,290.6 493.4,235.7 511.8,287.8 530.2,295.2 548.6,291.0 567.0,295.8 585.5,293.3 603.9,288.3 622.3,280.2 640.7,297.5 659.1,290.9 677.5,297.0 695.9,289.8 714.3,304.9 732.7,300.8 751.1,286.0 769.5,291.4 788.0,293.9 806.4,298.3 824.8,295.8 843.2,289.1 861.6,304.7 880.0,284.4" fill="none" stroke="#59a14f" stroke-width="2"/>
<circle cx="70.0" cy="279.7" r="3" fill="#59a14f"/>
<circle cx="88.4" cy="272.0" r="3" fill="#59a14f"/>
<circle cx="106.8" cy="276.8" r="3" fill="#59a14f"/>
<circle cx="125.2" cy="276.8" r="3" fill="#59a14f"/>
<circle cx="143.6" cy="271.5" r="3" fill="#59a14f"/>
<circle cx="162.0" cy="273.1" r="3" fill="#59a14f"/>
<circle cx="180.5" cy="274.7" r="3" fill="#59a14f"/>
<circle cx="198.9" cy="266.2" r="3" fill="#59a14f"/>
<circle cx="217.3" cy="276.2" r="3" fill="#59a14f"/>
<circle cx="235.7" cy="271.8" r="3" fill="#59a14f"/>
<circle cx="254.1" cy="273.2" r="3" fill="#59a14f"/>
<circle cx="272.5" cy="276.7" r="3" fill="#59a14f"/>
<circle cx="290.9" cy="273.0" r="3" fill="#59a14f"/>
<circle cx="309.3" cy="287.5" r="3" fill="#59a14f"/>
<circle cx="327.7" cy="288.1" r="3" fill="#59a14f"/>
<circle cx="346.1" cy="277.4" r="3" fill="#59a14f"/>
<circle cx="364.5" cy="283.6" r="3" fill="#59a14f"/>
<circle cx="383.0" cy="287.3" r="3" fill="#59a14f"/>
<circle cx="401.4" cy="284.1" r="3" fill="#59a14f"/>
<circle cx="419.8" cy="295.0" r="3" fill="#59a14f"/>
<circle cx="438.2" cy="294.7" r="3" fill="#59a14f"/>
<circle cx="456.6" cy="296.8" r="3" fill="#59a14f"/>
<circle cx="475.0" cy="290.6" r="3" fill="#59a14f"/>
<circle cx="493.4" cy="235.7" r="3" fill="#59a14f"/>
<circle cx="511.8" cy="287.8" r="3" fill="#59a14f"/>
<circle cx="530.2" cy="295.2" r="3" fill="#59a14f"/>
<circle cx="548.6" cy="291.0" r="3" fill="#59a14f"/>
<circle cx="567.0" cy="295.8" r="3" fill="#59a14f"/>
<circle cx="585.5" cy="293.3" r="3" fill="#59a14f"/>
<circle cx="603.9" cy="288.3" r="3" fill="#59a14f"/>
<circle cx="622.3" cy="280.2" r="3" fill="#59a14f"/>
<circle cx="640.7" cy="297.5" r="3" fill="#59a14f"/>
<circle cx="659.1" cy="290.9" r="3" fill="#59a14f"/>
<circle cx="677.5" cy="297.0" r="3" fill="#59a14f"/>
<circle cx="695.9" cy="289.8" r="3" fill="#59a14f"/>
<circle cx="714.3" cy="304.9" r="3" fill="#59a14f"/>
<circle cx="732.7" cy="300.8" r="3" fill="#59a14f"/>
<circle cx="751.1" cy="286.0" r="3" fill="#59a14f"/>
<circle cx="769.5" cy="291.4" r="3" fill="#59a14f"/>
<circle cx="788.0" cy="293.9" r="3" fill="#59a14f"/>
<circle cx="806.4" cy="298.3" r="3" fill="#59a14f"/>
<circle cx="824.8" cy="295.8" r="3" fill="#59a14f"/>
<circle cx="843.2" cy="289.1" r="3" fill="#59a14f"/>
<circle cx="861.6" cy="304.7" r="3" fill="#59a14f"/>
<circle cx="880.0" cy="284.4" r="3" fill="#59a14f"/>
<rect x="232.0" y="358" width="10" height="10" fill="#59a14f"/>
<text x="246.0" y="367" font-size="11" fill="#333">LLM first token</text>
<polyline points="70.0,93.7 88.4,161.7 106.8,197.4 125.2,213.5 143.6,236.3 162.0,260.6 180.5,213.4 198.9,191.1 217.3,216.8 235.7,228.5 254.1,191.6 272.5,253.8 290.9,205.2 309.3,270.8 327.7,269.3 346.1,248.4 364.5,269.3 383.0,272.7 401.4,267.4 419.8,282.0 438.2,283.9 456.6,286.8 475.0,272.5 493.4,64.7 511.8,268.8 530.2,275.7 548.6,278.6 567.0,281.5 585.5,283.9 603.9,275.7 622.3,264.5 640.7,286.3 659.1,278.6 677.5,281.0 695.9,271.8 714.3,294.1 732.7,287.8 751.1,262.0 769.5,274.7 788.0,286.3 806.4,282.9 824.8,287.8 843.2,276.2 861.6,292.7 880.0,268.9" fill="none" stroke="#e15759" stroke-width="2"/>
<circle cx="70.0" cy="93.7" r="3" fill="#e15759"/>
<circle cx="88.4" cy="161.7" r="3" fill="#e15759"/>
<circle cx="106.8" cy="197.4" r="3" fill="#e15759"/>
<circle cx="125.2" cy="213.5" r="3" fill="#e15759"/>
<circle cx="143.6" cy="236.3" r="3" fill="#e15759"/>
<circle cx="162.0" cy="260.6" r="3" fill="#e15759"/>
<circle cx="180.5" cy="213.4" r="3" fill="#e15759"/>
<circle cx="198.9" cy="191.1" r="3" fill="#e15759"/>
<circle cx="217.3" cy="216.8" r="3" fill="#e15759"/>
<circle cx="235.7" cy="228.5" r="3" fill="#e15759"/>
<circle cx="254.1" cy="191.6" r="3" fill="#e15759"/>
<circle cx="272.5" cy="253.8" r="3" fill="#e15759"/>
<circle cx="290.9" cy="205.2" r="3" fill="#e15759"/>
<circle cx="309.3" cy="270.8" r="3" fill="#e15759"/>
<circle cx="327.7" cy="269.3" r="3" fill="#e15759"/>
<circle cx="346.1" cy="248.4" r="3" fill="#e15759"/>
<circle cx="364.5" cy="269.3" r="3" fill="#e15759"/>
<circle cx="383.0" cy="272.7" r="3" fill="#e15759"/>
<circle cx="401.4" cy="267.4" r="3" fill="#e15759"/>
<circle cx="419.8" cy="282.0" r="3" fill="#e15759"/>
<circle cx="438.2" cy="283.9" r="3" fill="#e15759"/>
<circle cx="456.6" cy="286.8" r="3" fill="#e15759"/>
<circle cx="475.0" cy="272.5" r="3" fill="#e15759"/>
<circle cx="493.4" cy="64.7" r="3" fill="#e15759"/>
<circle cx="511.8" cy="268.8" r="3" fill="#e15759"/>
<circle cx="530.2" cy="275.7" r="3" fill="#e15759"/>
<circle cx="548.6" cy="278.6" r="3" fill="#e15759"/>
<circle cx="567.0" cy="281.5" r="3" fill="#e15759"/>
<circle cx="585.5" cy="283.9" r="3" fill="#e15759"/>
<circle cx="603.9" cy="275.7" r="3" fill="#e15759"/>
<circle cx="622.3" cy="264.5" r="3" fill="#e15759"/>
<circle cx="640.7" cy="286.3" r="3" fill="#e15759"/>
<circle cx="659.1" cy="278.6" r="3" fill="#e15759"/>
<circle cx="677.5" cy="281.0" r="3" fill="#e15759"/>
<circle cx="695.9" cy="271.8" r="3" fill="#e15759"/>
<circle cx="714.3" cy="294.1" r="3" fill="#e15759"/>
<circle cx="732.7" cy="287.8" r="3" fill="#e15759"/>
<circle cx="751.1" cy="262.0" r="3" fill="#e15759"/>
<circle cx="769.5" cy="274.7" r="3" fill="#e15759"/>
<circle cx="788.0" cy="286.3" r="3" fill="#e15759"/>
<circle cx="806.4" cy="282.9" r="3" fill="#e15759"/>
<circle cx="824.8" cy="287.8" r="3" fill="#e15759"/>
<circle cx="843.2" cy="276.2" r="3" fill="#e15759"/>
<circle cx="861.6" cy="292.7" r="3" fill="#e15759"/>
<circle cx="880.0" cy="268.9" r="3" fill="#e15759"/>
<rect x="394.0" y="358" width="10" height="10" fill="#e15759"/>
<text x="408.0" y="367" font-size="11" fill="#333">received audio</text>
<polyline points="70.0,313.8 88.4,316.9 106.8,315.6 125.2,316.4 143.6,312.7 162.0,320.5 180.5,306.6 198.9,315.1 217.3,317.8 235.7,309.6 254.1,317.4 272.5,319.3 290.9,310.8 309.3,317.9 327.7,313.7 346.1,311.5 364.5,313.9 383.0,315.8 401.4,312.3 419.8,317.7 438.2,316.9 456.6,318.4 475.0,315.2 493.4,317.0 511.8,319.2 530.2,315.3 548.6,319.4 567.0,319.4 585.5,318.9 603.9,310.1 622.3,311.8 640.7,319.8 659.1,318.0 677.5,315.2 695.9,314.7 714.3,320.7 732.7,320.6 751.1,316.9 769.5,316.3 788.0,321.2 806.4,320.4 824.8,321.2 843.2,319.7 861.6,320.8 880.0,316.5" fill="none" stroke="#b279a2" stroke-width="2"/>
<circle cx="70.0" cy="313.8" r="3" fill="#b279a2"/>
<circle cx="88.4" cy="316.9" r="3" fill="#b279a2"/>
<circle cx="106.8" cy="315.6" r="3" fill="#b279a2"/>
<circle cx="125.2" cy="316.4" r="3" fill="#b279a2"/>
<circle cx="143.6" cy="312.7" r="3" fill="#b279a2"/>
<circle cx="162.0" cy="320.5" r="3" fill="#b279a2"/>
<circle cx="180.5" cy="306.6" r="3" fill="#b279a2"/>
<circle cx="198.9" cy="315.1" r="3" fill="#b279a2"/>
<circle cx="217.3" cy="317.8" r="3" fill="#b279a2"/>
<circle cx="235.7" cy="309.6" r="3" fill="#b279a2"/>
<circle cx="254.1" cy="317.4" r="3" fill="#b279a2"/>
<circle cx="272.5" cy="319.3" r="3" fill="#b279a2"/>
<circle cx="290.9" cy="310.8" r="3" fill="#b279a2"/>
<circle cx="309.3" cy="317.9" r="3" fill="#b279a2"/>
<circle cx="327.7" cy="313.7" r="3" fill="#b279a2"/>
<circle cx="346.1" cy="311.5" r="3" fill="#b279a2"/>
<circle cx="364.5" cy="313.9" r="3" fill="#b279a2"/>
<circle cx="383.0" cy="315.8" r="3" fill="#b279a2"/>
<circle cx="401.4" cy="312.3" r="3" fill="#b279a2"/>
<circle cx="419.8" cy="317.7" r="3" fill="#b279a2"/>
<circle cx="438.2" cy="316.9" r="3" fill="#b279a2"/>
<circle cx="456.6" cy="318.4" r="3" fill="#b279a2"/>
<circle cx="475.0" cy="315.2" r="3" fill="#b279a2"/>
<circle cx="493.4" cy="317.0" r="3" fill="#b279a2"/>
<circle cx="511.8" cy="319.2" r="3" fill="#b279a2"/>
<circle cx="530.2" cy="315.3" r="3" fill="#b279a2"/>
<circle cx="548.6" cy="319.4" r="3" fill="#b279a2"/>
<circle cx="567.0" cy="319.4" r="3" fill="#b279a2"/>
<circle cx="585.5" cy="318.9" r="3" fill="#b279a2"/>
<circle cx="603.9" cy="310.1" r="3" fill="#b279a2"/>
<circle cx="622.3" cy="311.8" r="3" fill="#b279a2"/>
<circle cx="640.7" cy="319.8" r="3" fill="#b279a2"/>
<circle cx="659.1" cy="318.0" r="3" fill="#b279a2"/>
<circle cx="677.5" cy="315.2" r="3" fill="#b279a2"/>
<circle cx="695.9" cy="314.7" r="3" fill="#b279a2"/>
<circle cx="714.3" cy="320.7" r="3" fill="#b279a2"/>
<circle cx="732.7" cy="320.6" r="3" fill="#b279a2"/>
<circle cx="751.1" cy="316.9" r="3" fill="#b279a2"/>
<circle cx="769.5" cy="316.3" r="3" fill="#b279a2"/>
<circle cx="788.0" cy="321.2" r="3" fill="#b279a2"/>
<circle cx="806.4" cy="320.4" r="3" fill="#b279a2"/>
<circle cx="824.8" cy="321.2" r="3" fill="#b279a2"/>
<circle cx="843.2" cy="319.7" r="3" fill="#b279a2"/>
<circle cx="861.6" cy="320.8" r="3" fill="#b279a2"/>
<circle cx="880.0" cy="316.5" r="3" fill="#b279a2"/>
<rect x="556.0" y="358" width="10" height="10" fill="#b279a2"/>
<text x="570.0" y="367" font-size="11" fill="#333">received mouth</text>
<rect x="718.0" y="358" width="10" height="10" fill="#ff7f0e"/>
<text x="732.0" y="367" font-size="11" fill="#333">server A/V offset</text>
</svg>
