<svg xmlns="http://www.w3.org/2000/svg" width="900" height="380" viewBox="0 0 900 380" font-family="sans-serif">
<rect width="900" height="380" fill="white"/>
<text x="70" y="24" font-size="16" fill="#333">Browser-observed WebRTC latency (ms, p50) — lower is better</text>
<line x1="70" y1="324.0" x2="880" y2="324.0" stroke="#e5e5e5"/>
<text x="64" y="328.0" font-size="11" fill="#666" text-anchor="end">0ms</text>
<line x1="70" y1="268.0" x2="880" y2="268.0" stroke="#e5e5e5"/>
<text x="64" y="272.0" font-size="11" fill="#666" text-anchor="end">2305ms</text>
<line x1="70" y1="212.0" x2="880" y2="212.0" stroke="#e5e5e5"/>
<text x="64" y="216.0" font-size="11" fill="#666" text-anchor="end">4609ms</text>
<line x1="70" y1="156.0" x2="880" y2="156.0" stroke="#e5e5e5"/>
<text x="64" y="160.0" font-size="11" fill="#666" text-anchor="end">6914ms</text>
<line x1="70" y1="100.0" x2="880" y2="100.0" stroke="#e5e5e5"/>
<text x="64" y="104.0" font-size="11" fill="#666" text-anchor="end">9219ms</text>
<line x1="70" y1="44.0" x2="880" y2="44.0" stroke="#e5e5e5"/>
<text x="64" y="48.0" font-size="11" fill="#666" text-anchor="end">11523ms</text>
<text x="70.0" y="342" font-size="11" fill="#666" text-anchor="start">07-16 22:20</text>
<text x="484.4" y="342" font-size="11" fill="#666" text-anchor="middle">07-17 20:08</text>
<text x="880.0" y="342" font-size="11" fill="#666" text-anchor="end">07-18 18:11</text>
<polyline points="70.0,286.6 88.8,283.0 107.7,286.3 126.5,285.6 145.3,282.6 164.2,288.2 183.0,285.3 201.9,283.7 220.7,287.3 239.5,287.2 258.4,289.4 277.2,287.2 296.0,284.5 314.9,295.8 333.7,298.9 352.6,295.9 371.4,297.1 390.2,299.0 409.1,294.2 427.9,303.9 446.7,305.8 465.6,302.6 484.4,306.9 503.3,295.9 522.1,303.4 540.9,304.4 559.8,303.2 578.6,306.1 597.4,303.7 616.3,305.2 635.1,302.0 654.0,306.2 672.8,305.3 691.6,305.1 710.5,301.3 729.3,313.8 748.1,312.7 767.0,301.4 785.8,301.9 804.7,300.0 823.5,313.8 842.3,303.6 861.2,300.9 880.0,313.3" fill="none" stroke="#4c78a8" stroke-width="2"/>
<circle cx="70.0" cy="286.6" r="3" fill="#4c78a8"/>
<circle cx="88.8" cy="283.0" r="3" fill="#4c78a8"/>
<circle cx="107.7" cy="286.3" r="3" fill="#4c78a8"/>
<circle cx="126.5" cy="285.6" r="3" fill="#4c78a8"/>
<circle cx="145.3" cy="282.6" r="3" fill="#4c78a8"/>
<circle cx="164.2" cy="288.2" r="3" fill="#4c78a8"/>
<circle cx="183.0" cy="285.3" r="3" fill="#4c78a8"/>
<circle cx="201.9" cy="283.7" r="3" fill="#4c78a8"/>
<circle cx="220.7" cy="287.3" r="3" fill="#4c78a8"/>
<circle cx="239.5" cy="287.2" r="3" fill="#4c78a8"/>
<circle cx="258.4" cy="289.4" r="3" fill="#4c78a8"/>
<circle cx="277.2" cy="287.2" r="3" fill="#4c78a8"/>
<circle cx="296.0" cy="284.5" r="3" fill="#4c78a8"/>
<circle cx="314.9" cy="295.8" r="3" fill="#4c78a8"/>
<circle cx="333.7" cy="298.9" r="3" fill="#4c78a8"/>
<circle cx="352.6" cy="295.9" r="3" fill="#4c78a8"/>
<circle cx="371.4" cy="297.1" r="3" fill="#4c78a8"/>
<circle cx="390.2" cy="299.0" r="3" fill="#4c78a8"/>
<circle cx="409.1" cy="294.2" r="3" fill="#4c78a8"/>
<circle cx="427.9" cy="303.9" r="3" fill="#4c78a8"/>
<circle cx="446.7" cy="305.8" r="3" fill="#4c78a8"/>
<circle cx="465.6" cy="302.6" r="3" fill="#4c78a8"/>
<circle cx="484.4" cy="306.9" r="3" fill="#4c78a8"/>
<circle cx="503.3" cy="295.9" r="3" fill="#4c78a8"/>
<circle cx="522.1" cy="303.4" r="3" fill="#4c78a8"/>
<circle cx="540.9" cy="304.4" r="3" fill="#4c78a8"/>
<circle cx="559.8" cy="303.2" r="3" fill="#4c78a8"/>
<circle cx="578.6" cy="306.1" r="3" fill="#4c78a8"/>
<circle cx="597.4" cy="303.7" r="3" fill="#4c78a8"/>
<circle cx="616.3" cy="305.2" r="3" fill="#4c78a8"/>
<circle cx="635.1" cy="302.0" r="3" fill="#4c78a8"/>
<circle cx="654.0" cy="306.2" r="3" fill="#4c78a8"/>
<circle cx="672.8" cy="305.3" r="3" fill="#4c78a8"/>
<circle cx="691.6" cy="305.1" r="3" fill="#4c78a8"/>
<circle cx="710.5" cy="301.3" r="3" fill="#4c78a8"/>
<circle cx="729.3" cy="313.8" r="3" fill="#4c78a8"/>
<circle cx="748.1" cy="312.7" r="3" fill="#4c78a8"/>
<circle cx="767.0" cy="301.4" r="3" fill="#4c78a8"/>
<circle cx="785.8" cy="301.9" r="3" fill="#4c78a8"/>
<circle cx="804.7" cy="300.0" r="3" fill="#4c78a8"/>
<circle cx="823.5" cy="313.8" r="3" fill="#4c78a8"/>
<circle cx="842.3" cy="303.6" r="3" fill="#4c78a8"/>
<circle cx="861.2" cy="300.9" r="3" fill="#4c78a8"/>
<circle cx="880.0" cy="313.3" r="3" fill="#4c78a8"/>
<rect x="70.0" y="358" width="10" height="10" fill="#4c78a8"/>
<text x="84.0" y="367" font-size="11" fill="#333">STT final</text>
<polyline points="70.0,279.7 88.8,272.0 107.7,276.8 126.5,276.8 145.3,271.5 164.2,273.1 183.0,274.7 201.9,266.2 220.7,276.2 239.5,271.8 258.4,273.2 277.2,276.7 296.0,273.0 314.9,287.5 333.7,288.1 352.6,277.4 371.4,283.6 390.2,287.3 409.1,284.1 427.9,295.0 446.7,294.7 465.6,296.8 484.4,290.6 503.3,235.7 522.1,287.8 540.9,295.2 559.8,291.0 578.6,295.8 597.4,293.3 616.3,288.3 635.1,280.2 654.0,297.5 672.8,290.9 691.6,297.0 710.5,289.8 729.3,304.9 748.1,300.8 767.0,286.0 785.8,291.4 804.7,293.9 823.5,298.3 842.3,295.8 861.2,289.1 880.0,304.7" fill="none" stroke="#59a14f" stroke-width="2"/>
<circle cx="70.0" cy="279.7" r="3" fill="#59a14f"/>
<circle cx="88.8" cy="272.0" r="3" fill="#59a14f"/>
<circle cx="107.7" cy="276.8" r="3" fill="#59a14f"/>
<circle cx="126.5" cy="276.8" r="3" fill="#59a14f"/>
<circle cx="145.3" cy="271.5" r="3" fill="#59a14f"/>
<circle cx="164.2" cy="273.1" r="3" fill="#59a14f"/>
<circle cx="183.0" cy="274.7" r="3" fill="#59a14f"/>
<circle cx="201.9" cy="266.2" r="3" fill="#59a14f"/>
<circle cx="220.7" cy="276.2" r="3" fill="#59a14f"/>
<circle cx="239.5" cy="271.8" r="3" fill="#59a14f"/>
<circle cx="258.4" cy="273.2" r="3" fill="#59a14f"/>
<circle cx="277.2" cy="276.7" r="3" fill="#59a14f"/>
<circle cx="296.0" cy="273.0" r="3" fill="#59a14f"/>
<circle cx="314.9" cy="287.5" r="3" fill="#59a14f"/>
<circle cx="333.7" cy="288.1" r="3" fill="#59a14f"/>
<circle cx="352.6" cy="277.4" r="3" fill="#59a14f"/>
<circle cx="371.4" cy="283.6" r="3" fill="#59a14f"/>
<circle cx="390.2" cy="287.3" r="3" fill="#59a14f"/>
<circle cx="409.1" cy="284.1" r="3" fill="#59a14f"/>
<circle cx="427.9" cy="295.0" r="3" fill="#59a14f"/>
<circle cx="446.7" cy="294.7" r="3" fill="#59a14f"/>
<circle cx="465.6" cy="296.8" r="3" fill="#59a14f"/>
<circle cx="484.4" cy="290.6" r="3" fill="#59a14f"/>
<circle cx="503.3" cy="235.7" r="3" fill="#59a14f"/>
<circle cx="522.1" cy="287.8" r="3" fill="#59a14f"/>
<circle cx="540.9" cy="295.2" r="3" fill="#59a14f"/>
<circle cx="559.8" cy="291.0" r="3" fill="#59a14f"/>
<circle cx="578.6" cy="295.8" r="3" fill="#59a14f"/>
<circle cx="597.4" cy="293.3" r="3" fill="#59a14f"/>
<circle cx="616.3" cy="288.3" r="3" fill="#59a14f"/>
<circle cx="635.1" cy="280.2" r="3" fill="#59a14f"/>
<circle cx="654.0" cy="297.5" r="3" fill="#59a14f"/>
<circle cx="672.8" cy="290.9" r="3" fill="#59a14f"/>
<circle cx="691.6" cy="297.0" r="3" fill="#59a14f"/>
<circle cx="710.5" cy="289.8" r="3" fill="#59a14f"/>
<circle cx="729.3" cy="304.9" r="3" fill="#59a14f"/>
<circle cx="748.1" cy="300.8" r="3" fill="#59a14f"/>
<circle cx="767.0" cy="286.0" r="3" fill="#59a14f"/>
<circle cx="785.8" cy="291.4" r="3" fill="#59a14f"/>
<circle cx="804.7" cy="293.9" r="3" fill="#59a14f"/>
<circle cx="823.5" cy="298.3" r="3" fill="#59a14f"/>
<circle cx="842.3" cy="295.8" r="3" fill="#59a14f"/>
<circle cx="861.2" cy="289.1" r="3" fill="#59a14f"/>
<circle cx="880.0" cy="304.7" r="3" fill="#59a14f"/>
<rect x="232.0" y="358" width="10" height="10" fill="#59a14f"/>
<text x="246.0" y="367" font-size="11" fill="#333">LLM first token</text>
<polyline points="70.0,93.7 88.8,161.7 107.7,197.4 126.5,213.5 145.3,236.3 164.2,260.6 183.0,213.4 201.9,191.1 220.7,216.8 239.5,228.5 258.4,191.6 277.2,253.8 296.0,205.2 314.9,270.8 333.7,269.3 352.6,248.4 371.4,269.3 390.2,272.7 409.1,267.4 427.9,282.0 446.7,283.9 465.6,286.8 484.4,272.5 503.3,64.7 522.1,268.8 540.9,275.7 559.8,278.6 578.6,281.5 597.4,283.9 616.3,275.7 635.1,264.5 654.0,286.3 672.8,278.6 691.6,281.0 710.5,271.8 729.3,294.1 748.1,287.8 767.0,262.0 785.8,274.7 804.7,286.3 823.5,282.9 842.3,287.8 861.2,276.2 880.0,292.7" fill="none" stroke="#e15759" stroke-width="2"/>
<circle cx="70.0" cy="93.7" r="3" fill="#e15759"/>
<circle cx="88.8" cy="161.7" r="3" fill="#e15759"/>
<circle cx="107.7" cy="197.4" r="3" fill="#e15759"/>
<circle cx="126.5" cy="213.5" r="3" fill="#e15759"/>
<circle cx="145.3" cy="236.3" r="3" fill="#e15759"/>
<circle cx="164.2" cy="260.6" r="3" fill="#e15759"/>
<circle cx="183.0" cy="213.4" r="3" fill="#e15759"/>
<circle cx="201.9" cy="191.1" r="3" fill="#e15759"/>
<circle cx="220.7" cy="216.8" r="3" fill="#e15759"/>
<circle cx="239.5" cy="228.5" r="3" fill="#e15759"/>
<circle cx="258.4" cy="191.6" r="3" fill="#e15759"/>
<circle cx="277.2" cy="253.8" r="3" fill="#e15759"/>
<circle cx="296.0" cy="205.2" r="3" fill="#e15759"/>
<circle cx="314.9" cy="270.8" r="3" fill="#e15759"/>
<circle cx="333.7" cy="269.3" r="3" fill="#e15759"/>
<circle cx="352.6" cy="248.4" r="3" fill="#e15759"/>
<circle cx="371.4" cy="269.3" r="3" fill="#e15759"/>
<circle cx="390.2" cy="272.7" r="3" fill="#e15759"/>
<circle cx="409.1" cy="267.4" r="3" fill="#e15759"/>
<circle cx="427.9" cy="282.0" r="3" fill="#e15759"/>
<circle cx="446.7" cy="283.9" r="3" fill="#e15759"/>
<circle cx="465.6" cy="286.8" r="3" fill="#e15759"/>
<circle cx="484.4" cy="272.5" r="3" fill="#e15759"/>
<circle cx="503.3" cy="64.7" r="3" fill="#e15759"/>
<circle cx="522.1" cy="268.8" r="3" fill="#e15759"/>
<circle cx="540.9" cy="275.7" r="3" fill="#e15759"/>
<circle cx="559.8" cy="278.6" r="3" fill="#e15759"/>
<circle cx="578.6" cy="281.5" r="3" fill="#e15759"/>
<circle cx="597.4" cy="283.9" r="3" fill="#e15759"/>
<circle cx="616.3" cy="275.7" r="3" fill="#e15759"/>
<circle cx="635.1" cy="264.5" r="3" fill="#e15759"/>
<circle cx="654.0" cy="286.3" r="3" fill="#e15759"/>
<circle cx="672.8" cy="278.6" r="3" fill="#e15759"/>
<circle cx="691.6" cy="281.0" r="3" fill="#e15759"/>
<circle cx="710.5" cy="271.8" r="3" fill="#e15759"/>
<circle cx="729.3" cy="294.1" r="3" fill="#e15759"/>
<circle cx="748.1" cy="287.8" r="3" fill="#e15759"/>
<circle cx="767.0" cy="262.0" r="3" fill="#e15759"/>
<circle cx="785.8" cy="274.7" r="3" fill="#e15759"/>
<circle cx="804.7" cy="286.3" r="3" fill="#e15759"/>
<circle cx="823.5" cy="282.9" r="3" fill="#e15759"/>
<circle cx="842.3" cy="287.8" r="3" fill="#e15759"/>
<circle cx="861.2" cy="276.2" r="3" fill="#e15759"/>
<circle cx="880.0" cy="292.7" r="3" fill="#e15759"/>
<rect x="394.0" y="358" width="10" height="10" fill="#e15759"/>
<text x="408.0" y="367" font-size="11" fill="#333">received audio</text>
<polyline points="70.0,313.8 88.8,316.9 107.7,315.6 126.5,316.4 145.3,312.7 164.2,320.5 183.0,306.6 201.9,315.1 220.7,317.8 239.5,309.6 258.4,317.4 277.2,319.3 296.0,310.8 314.9,317.9 333.7,313.7 352.6,311.5 371.4,313.9 390.2,315.8 409.1,312.3 427.9,317.7 446.7,316.9 465.6,318.4 484.4,315.2 503.3,317.0 522.1,319.2 540.9,315.3 559.8,319.4 578.6,319.4 597.4,318.9 616.3,310.1 635.1,311.8 654.0,319.8 672.8,318.0 691.6,315.2 710.5,314.7 729.3,320.7 748.1,320.6 767.0,316.9 785.8,316.3 804.7,321.2 823.5,320.4 842.3,321.2 861.2,319.7 880.0,320.8" fill="none" stroke="#b279a2" stroke-width="2"/>
<circle cx="70.0" cy="313.8" r="3" fill="#b279a2"/>
<circle cx="88.8" cy="316.9" r="3" fill="#b279a2"/>
<circle cx="107.7" cy="315.6" r="3" fill="#b279a2"/>
<circle cx="126.5" cy="316.4" r="3" fill="#b279a2"/>
<circle cx="145.3" cy="312.7" r="3" fill="#b279a2"/>
<circle cx="164.2" cy="320.5" r="3" fill="#b279a2"/>
<circle cx="183.0" cy="306.6" r="3" fill="#b279a2"/>
<circle cx="201.9" cy="315.1" r="3" fill="#b279a2"/>
<circle cx="220.7" cy="317.8" r="3" fill="#b279a2"/>
<circle cx="239.5" cy="309.6" r="3" fill="#b279a2"/>
<circle cx="258.4" cy="317.4" r="3" fill="#b279a2"/>
<circle cx="277.2" cy="319.3" r="3" fill="#b279a2"/>
<circle cx="296.0" cy="310.8" r="3" fill="#b279a2"/>
<circle cx="314.9" cy="317.9" r="3" fill="#b279a2"/>
<circle cx="333.7" cy="313.7" r="3" fill="#b279a2"/>
<circle cx="352.6" cy="311.5" r="3" fill="#b279a2"/>
<circle cx="371.4" cy="313.9" r="3" fill="#b279a2"/>
<circle cx="390.2" cy="315.8" r="3" fill="#b279a2"/>
<circle cx="409.1" cy="312.3" r="3" fill="#b279a2"/>
<circle cx="427.9" cy="317.7" r="3" fill="#b279a2"/>
<circle cx="446.7" cy="316.9" r="3" fill="#b279a2"/>
<circle cx="465.6" cy="318.4" r="3" fill="#b279a2"/>
<circle cx="484.4" cy="315.2" r="3" fill="#b279a2"/>
<circle cx="503.3" cy="317.0" r="3" fill="#b279a2"/>
<circle cx="522.1" cy="319.2" r="3" fill="#b279a2"/>
<circle cx="540.9" cy="315.3" r="3" fill="#b279a2"/>
<circle cx="559.8" cy="319.4" r="3" fill="#b279a2"/>
<circle cx="578.6" cy="319.4" r="3" fill="#b279a2"/>
<circle cx="597.4" cy="318.9" r="3" fill="#b279a2"/>
<circle cx="616.3" cy="310.1" r="3" fill="#b279a2"/>
<circle cx="635.1" cy="311.8" r="3" fill="#b279a2"/>
<circle cx="654.0" cy="319.8" r="3" fill="#b279a2"/>
<circle cx="672.8" cy="318.0" r="3" fill="#b279a2"/>
<circle cx="691.6" cy="315.2" r="3" fill="#b279a2"/>
<circle cx="710.5" cy="314.7" r="3" fill="#b279a2"/>
<circle cx="729.3" cy="320.7" r="3" fill="#b279a2"/>
<circle cx="748.1" cy="320.6" r="3" fill="#b279a2"/>
<circle cx="767.0" cy="316.9" r="3" fill="#b279a2"/>
<circle cx="785.8" cy="316.3" r="3" fill="#b279a2"/>
<circle cx="804.7" cy="321.2" r="3" fill="#b279a2"/>
<circle cx="823.5" cy="320.4" r="3" fill="#b279a2"/>
<circle cx="842.3" cy="321.2" r="3" fill="#b279a2"/>
<circle cx="861.2" cy="319.7" r="3" fill="#b279a2"/>
<circle cx="880.0" cy="320.8" r="3" fill="#b279a2"/>
<rect x="556.0" y="358" width="10" height="10" fill="#b279a2"/>
<text x="570.0" y="367" font-size="11" fill="#333">received mouth</text>
<rect x="718.0" y="358" width="10" height="10" fill="#ff7f0e"/>
<text x="732.0" y="367" font-size="11" fill="#333">server A/V offset</text>
</svg>
