<svg xmlns="http://www.w3.org/2000/svg" width="900" height="380" viewBox="0 0 900 380" font-family="sans-serif">
<rect width="900" height="380" fill="white"/>
<text x="70" y="24" font-size="16" fill="#333">Browser-observed WebRTC latency (ms, p50) — lower is better</text>
<line x1="70" y1="324.0" x2="880" y2="324.0" stroke="#e5e5e5"/>
<text x="64" y="328.0" font-size="11" fill="#666" text-anchor="end">0ms</text>
<line x1="70" y1="268.0" x2="880" y2="268.0" stroke="#e5e5e5"/>
<text x="64" y="272.0" font-size="11" fill="#666" text-anchor="end">2305ms</text>
<line x1="70" y1="212.0" x2="880" y2="212.0" stroke="#e5e5e5"/>
<text x="64" y="216.0" font-size="11" fill="#666" text-anchor="end">4609ms</text>
<line x1="70" y1="156.0" x2="880" y2="156.0" stroke="#e5e5e5"/>
<text x="64" y="160.0" font-size="11" fill="#666" text-anchor="end">6914ms</text>
<line x1="70" y1="100.0" x2="880" y2="100.0" stroke="#e5e5e5"/>
<text x="64" y="104.0" font-size="11" fill="#666" text-anchor="end">9219ms</text>
<line x1="70" y1="44.0" x2="880" y2="44.0" stroke="#e5e5e5"/>
<text x="64" y="48.0" font-size="11" fill="#666" text-anchor="end">11523ms</text>
<text x="70.0" y="342" font-size="11" fill="#666" text-anchor="start">07-16 22:20</text>
<text x="491.2" y="342" font-size="11" fill="#666" text-anchor="middle">07-17 18:48</text>
<text x="880.0" y="342" font-size="11" fill="#666" text-anchor="end">07-17 20:23</text>
<polyline points="70.0,286.6 102.4,283.0 134.8,286.3 167.2,285.6 199.6,282.6 232.0,288.2 264.4,285.3 296.8,283.7 329.2,287.3 361.6,287.2 394.0,289.4 426.4,287.2 458.8,284.5 491.2,295.8 523.6,298.9 556.0,295.9 588.4,297.1 620.8,299.0 653.2,294.2 685.6,303.9 718.0,305.8 750.4,302.6 782.8,306.9 815.2,295.9 847.6,303.4 880.0,304.4" fill="none" stroke="#4c78a8" stroke-width="2"/>
<circle cx="70.0" cy="286.6" r="3" fill="#4c78a8"/>
<circle cx="102.4" cy="283.0" r="3" fill="#4c78a8"/>
<circle cx="134.8" cy="286.3" r="3" fill="#4c78a8"/>
<circle cx="167.2" cy="285.6" r="3" fill="#4c78a8"/>
<circle cx="199.6" cy="282.6" r="3" fill="#4c78a8"/>
<circle cx="232.0" cy="288.2" r="3" fill="#4c78a8"/>
<circle cx="264.4" cy="285.3" r="3" fill="#4c78a8"/>
<circle cx="296.8" cy="283.7" r="3" fill="#4c78a8"/>
<circle cx="329.2" cy="287.3" r="3" fill="#4c78a8"/>
<circle cx="361.6" cy="287.2" r="3" fill="#4c78a8"/>
<circle cx="394.0" cy="289.4" r="3" fill="#4c78a8"/>
<circle cx="426.4" cy="287.2" r="3" fill="#4c78a8"/>
<circle cx="458.8" cy="284.5" r="3" fill="#4c78a8"/>
<circle cx="491.2" cy="295.8" r="3" fill="#4c78a8"/>
<circle cx="523.6" cy="298.9" r="3" fill="#4c78a8"/>
<circle cx="556.0" cy="295.9" r="3" fill="#4c78a8"/>
<circle cx="588.4" cy="297.1" r="3" fill="#4c78a8"/>
<circle cx="620.8" cy="299.0" r="3" fill="#4c78a8"/>
<circle cx="653.2" cy="294.2" r="3" fill="#4c78a8"/>
<circle cx="685.6" cy="303.9" r="3" fill="#4c78a8"/>
<circle cx="718.0" cy="305.8" r="3" fill="#4c78a8"/>
<circle cx="750.4" cy="302.6" r="3" fill="#4c78a8"/>
<circle cx="782.8" cy="306.9" r="3" fill="#4c78a8"/>
<circle cx="815.2" cy="295.9" r="3" fill="#4c78a8"/>
<circle cx="847.6" cy="303.4" r="3" fill="#4c78a8"/>
<circle cx="880.0" cy="304.4" r="3" fill="#4c78a8"/>
<rect x="70.0" y="358" width="10" height="10" fill="#4c78a8"/>
<text x="84.0" y="367" font-size="11" fill="#333">STT final</text>
<polyline points="70.0,279.7 102.4,272.0 134.8,276.8 167.2,276.8 199.6,271.5 232.0,273.1 264.4,274.7 296.8,266.2 329.2,276.2 361.6,271.8 394.0,273.2 426.4,276.7 458.8,273.0 491.2,287.5 523.6,288.1 556.0,277.4 588.4,283.6 620.8,287.3 653.2,284.1 685.6,295.0 718.0,294.7 750.4,296.8 782.8,290.6 815.2,235.7 847.6,287.8 880.0,295.2" fill="none" stroke="#59a14f" stroke-width="2"/>
<circle cx="70.0" cy="279.7" r="3" fill="#59a14f"/>
<circle cx="102.4" cy="272.0" r="3" fill="#59a14f"/>
<circle cx="134.8" cy="276.8" r="3" fill="#59a14f"/>
<circle cx="167.2" cy="276.8" r="3" fill="#59a14f"/>
<circle cx="199.6" cy="271.5" r="3" fill="#59a14f"/>
<circle cx="232.0" cy="273.1" r="3" fill="#59a14f"/>
<circle cx="264.4" cy="274.7" r="3" fill="#59a14f"/>
<circle cx="296.8" cy="266.2" r="3" fill="#59a14f"/>
<circle cx="329.2" cy="276.2" r="3" fill="#59a14f"/>
<circle cx="361.6" cy="271.8" r="3" fill="#59a14f"/>
<circle cx="394.0" cy="273.2" r="3" fill="#59a14f"/>
<circle cx="426.4" cy="276.7" r="3" fill="#59a14f"/>
<circle cx="458.8" cy="273.0" r="3" fill="#59a14f"/>
<circle cx="491.2" cy="287.5" r="3" fill="#59a14f"/>
<circle cx="523.6" cy="288.1" r="3" fill="#59a14f"/>
<circle cx="556.0" cy="277.4" r="3" fill="#59a14f"/>
<circle cx="588.4" cy="283.6" r="3" fill="#59a14f"/>
<circle cx="620.8" cy="287.3" r="3" fill="#59a14f"/>
<circle cx="653.2" cy="284.1" r="3" fill="#59a14f"/>
<circle cx="685.6" cy="295.0" r="3" fill="#59a14f"/>
<circle cx="718.0" cy="294.7" r="3" fill="#59a14f"/>
<circle cx="750.4" cy="296.8" r="3" fill="#59a14f"/>
<circle cx="782.8" cy="290.6" r="3" fill="#59a14f"/>
<circle cx="815.2" cy="235.7" r="3" fill="#59a14f"/>
<circle cx="847.6" cy="287.8" r="3" fill="#59a14f"/>
<circle cx="880.0" cy="295.2" r="3" fill="#59a14f"/>
<rect x="232.0" y="358" width="10" height="10" fill="#59a14f"/>
<text x="246.0" y="367" font-size="11" fill="#333">LLM first token</text>
<polyline points="70.0,93.7 102.4,161.7 134.8,197.4 167.2,213.5 199.6,236.3 232.0,260.6 264.4,213.4 296.8,191.1 329.2,216.8 361.6,228.5 394.0,191.6 426.4,253.8 458.8,205.2 491.2,270.8 523.6,269.3 556.0,248.4 588.4,269.3 620.8,272.7 653.2,267.4 685.6,282.0 718.0,283.9 750.4,286.8 782.8,272.5 815.2,64.7 847.6,268.8 880.0,275.7" fill="none" stroke="#e15759" stroke-width="2"/>
<circle cx="70.0" cy="93.7" r="3" fill="#e15759"/>
<circle cx="102.4" cy="161.7" r="3" fill="#e15759"/>
<circle cx="134.8" cy="197.4" r="3" fill="#e15759"/>
<circle cx="167.2" cy="213.5" r="3" fill="#e15759"/>
<circle cx="199.6" cy="236.3" r="3" fill="#e15759"/>
<circle cx="232.0" cy="260.6" r="3" fill="#e15759"/>
<circle cx="264.4" cy="213.4" r="3" fill="#e15759"/>
<circle cx="296.8" cy="191.1" r="3" fill="#e15759"/>
<circle cx="329.2" cy="216.8" r="3" fill="#e15759"/>
<circle cx="361.6" cy="228.5" r="3" fill="#e15759"/>
<circle cx="394.0" cy="191.6" r="3" fill="#e15759"/>
<circle cx="426.4" cy="253.8" r="3" fill="#e15759"/>
<circle cx="458.8" cy="205.2" r="3" fill="#e15759"/>
<circle cx="491.2" cy="270.8" r="3" fill="#e15759"/>
<circle cx="523.6" cy="269.3" r="3" fill="#e15759"/>
<circle cx="556.0" cy="248.4" r="3" fill="#e15759"/>
<circle cx="588.4" cy="269.3" r="3" fill="#e15759"/>
<circle cx="620.8" cy="272.7" r="3" fill="#e15759"/>
<circle cx="653.2" cy="267.4" r="3" fill="#e15759"/>
<circle cx="685.6" cy="282.0" r="3" fill="#e15759"/>
<circle cx="718.0" cy="283.9" r="3" fill="#e15759"/>
<circle cx="750.4" cy="286.8" r="3" fill="#e15759"/>
<circle cx="782.8" cy="272.5" r="3" fill="#e15759"/>
<circle cx="815.2" cy="64.7" r="3" fill="#e15759"/>
<circle cx="847.6" cy="268.8" r="3" fill="#e15759"/>
<circle cx="880.0" cy="275.7" r="3" fill="#e15759"/>
<rect x="394.0" y="358" width="10" height="10" fill="#e15759"/>
<text x="408.0" y="367" font-size="11" fill="#333">received audio</text>
<polyline points="70.0,313.8 102.4,316.9 134.8,315.6 167.2,316.4 199.6,312.7 232.0,320.5 264.4,306.6 296.8,315.1 329.2,317.8 361.6,309.6 394.0,317.4 426.4,319.3 458.8,310.8 491.2,317.9 523.6,313.7 556.0,311.5 588.4,313.9 620.8,315.8 653.2,312.3 685.6,317.7 718.0,316.9 750.4,318.4 782.8,315.2 815.2,317.0 847.6,319.2 880.0,315.3" fill="none" stroke="#b279a2" stroke-width="2"/>
<circle cx="70.0" cy="313.8" r="3" fill="#b279a2"/>
<circle cx="102.4" cy="316.9" r="3" fill="#b279a2"/>
<circle cx="134.8" cy="315.6" r="3" fill="#b279a2"/>
<circle cx="167.2" cy="316.4" r="3" fill="#b279a2"/>
<circle cx="199.6" cy="312.7" r="3" fill="#b279a2"/>
<circle cx="232.0" cy="320.5" r="3" fill="#b279a2"/>
<circle cx="264.4" cy="306.6" r="3" fill="#b279a2"/>
<circle cx="296.8" cy="315.1" r="3" fill="#b279a2"/>
<circle cx="329.2" cy="317.8" r="3" fill="#b279a2"/>
<circle cx="361.6" cy="309.6" r="3" fill="#b279a2"/>
<circle cx="394.0" cy="317.4" r="3" fill="#b279a2"/>
<circle cx="426.4" cy="319.3" r="3" fill="#b279a2"/>
<circle cx="458.8" cy="310.8" r="3" fill="#b279a2"/>
<circle cx="491.2" cy="317.9" r="3" fill="#b279a2"/>
<circle cx="523.6" cy="313.7" r="3" fill="#b279a2"/>
<circle cx="556.0" cy="311.5" r="3" fill="#b279a2"/>
<circle cx="588.4" cy="313.9" r="3" fill="#b279a2"/>
<circle cx="620.8" cy="315.8" r="3" fill="#b279a2"/>
<circle cx="653.2" cy="312.3" r="3" fill="#b279a2"/>
<circle cx="685.6" cy="317.7" r="3" fill="#b279a2"/>
<circle cx="718.0" cy="316.9" r="3" fill="#b279a2"/>
<circle cx="750.4" cy="318.4" r="3" fill="#b279a2"/>
<circle cx="782.8" cy="315.2" r="3" fill="#b279a2"/>
<circle cx="815.2" cy="317.0" r="3" fill="#b279a2"/>
<circle cx="847.6" cy="319.2" r="3" fill="#b279a2"/>
<circle cx="880.0" cy="315.3" r="3" fill="#b279a2"/>
<rect x="556.0" y="358" width="10" height="10" fill="#b279a2"/>
<text x="570.0" y="367" font-size="11" fill="#333">received mouth</text>
<rect x="718.0" y="358" width="10" height="10" fill="#ff7f0e"/>
<text x="732.0" y="367" font-size="11" fill="#333">server A/V offset</text>
</svg>
