<svg xmlns="http://www.w3.org/2000/svg" width="900" height="380" viewBox="0 0 900 380" font-family="sans-serif">
<rect width="900" height="380" fill="white"/>
<text x="70" y="24" font-size="16" fill="#333">Browser-observed WebRTC latency (ms, p50) — lower is better</text>
<line x1="70" y1="324.0" x2="880" y2="324.0" stroke="#e5e5e5"/>
<text x="64" y="328.0" font-size="11" fill="#666" text-anchor="end">0ms</text>
<line x1="70" y1="268.0" x2="880" y2="268.0" stroke="#e5e5e5"/>
<text x="64" y="272.0" font-size="11" fill="#666" text-anchor="end">2047ms</text>
<line x1="70" y1="212.0" x2="880" y2="212.0" stroke="#e5e5e5"/>
<text x="64" y="216.0" font-size="11" fill="#666" text-anchor="end">4095ms</text>
<line x1="70" y1="156.0" x2="880" y2="156.0" stroke="#e5e5e5"/>
<text x="64" y="160.0" font-size="11" fill="#666" text-anchor="end">6142ms</text>
<line x1="70" y1="100.0" x2="880" y2="100.0" stroke="#e5e5e5"/>
<text x="64" y="104.0" font-size="11" fill="#666" text-anchor="end">8190ms</text>
<line x1="70" y1="44.0" x2="880" y2="44.0" stroke="#e5e5e5"/>
<text x="64" y="48.0" font-size="11" fill="#666" text-anchor="end">10237ms</text>
<text x="70.0" y="342" font-size="11" fill="#666" text-anchor="start">07-16 22:20</text>
<text x="475.0" y="342" font-size="11" fill="#666" text-anchor="middle">07-17 15:16</text>
<text x="880.0" y="342" font-size="11" fill="#666" text-anchor="end">07-17 19:03</text>
<polyline points="70.0,281.9 127.9,277.8 185.7,281.6 243.6,280.8 301.4,277.4 359.3,283.7 417.1,280.4 475.0,278.6 532.9,282.7 590.7,282.6 648.6,285.1 706.4,282.6 764.3,279.5 822.1,292.3 880.0,295.7" fill="none" stroke="#4c78a8" stroke-width="2"/>
<circle cx="70.0" cy="281.9" r="3" fill="#4c78a8"/>
<circle cx="127.9" cy="277.8" r="3" fill="#4c78a8"/>
<circle cx="185.7" cy="281.6" r="3" fill="#4c78a8"/>
<circle cx="243.6" cy="280.8" r="3" fill="#4c78a8"/>
<circle cx="301.4" cy="277.4" r="3" fill="#4c78a8"/>
<circle cx="359.3" cy="283.7" r="3" fill="#4c78a8"/>
<circle cx="417.1" cy="280.4" r="3" fill="#4c78a8"/>
<circle cx="475.0" cy="278.6" r="3" fill="#4c78a8"/>
<circle cx="532.9" cy="282.7" r="3" fill="#4c78a8"/>
<circle cx="590.7" cy="282.6" r="3" fill="#4c78a8"/>
<circle cx="648.6" cy="285.1" r="3" fill="#4c78a8"/>
<circle cx="706.4" cy="282.6" r="3" fill="#4c78a8"/>
<circle cx="764.3" cy="279.5" r="3" fill="#4c78a8"/>
<circle cx="822.1" cy="292.3" r="3" fill="#4c78a8"/>
<circle cx="880.0" cy="295.7" r="3" fill="#4c78a8"/>
<rect x="70.0" y="358" width="10" height="10" fill="#4c78a8"/>
<text x="84.0" y="367" font-size="11" fill="#333">STT final</text>
<polyline points="70.0,274.2 127.9,265.5 185.7,270.9 243.6,270.9 301.4,264.9 359.3,266.7 417.1,268.5 475.0,258.9 532.9,270.2 590.7,265.3 648.6,266.8 706.4,270.8 764.3,266.6 822.1,282.9 880.0,283.6" fill="none" stroke="#59a14f" stroke-width="2"/>
<circle cx="70.0" cy="274.2" r="3" fill="#59a14f"/>
<circle cx="127.9" cy="265.5" r="3" fill="#59a14f"/>
<circle cx="185.7" cy="270.9" r="3" fill="#59a14f"/>
<circle cx="243.6" cy="270.9" r="3" fill="#59a14f"/>
<circle cx="301.4" cy="264.9" r="3" fill="#59a14f"/>
<circle cx="359.3" cy="266.7" r="3" fill="#59a14f"/>
<circle cx="417.1" cy="268.5" r="3" fill="#59a14f"/>
<circle cx="475.0" cy="258.9" r="3" fill="#59a14f"/>
<circle cx="532.9" cy="270.2" r="3" fill="#59a14f"/>
<circle cx="590.7" cy="265.3" r="3" fill="#59a14f"/>
<circle cx="648.6" cy="266.8" r="3" fill="#59a14f"/>
<circle cx="706.4" cy="270.8" r="3" fill="#59a14f"/>
<circle cx="764.3" cy="266.6" r="3" fill="#59a14f"/>
<circle cx="822.1" cy="282.9" r="3" fill="#59a14f"/>
<circle cx="880.0" cy="283.6" r="3" fill="#59a14f"/>
<rect x="232.0" y="358" width="10" height="10" fill="#59a14f"/>
<text x="246.0" y="367" font-size="11" fill="#333">LLM first token</text>
<polyline points="70.0,64.7 127.9,141.3 185.7,181.5 243.6,199.6 301.4,225.3 359.3,252.6 417.1,199.5 475.0,174.4 532.9,203.4 590.7,216.5 648.6,175.0 706.4,245.0 764.3,190.3 822.1,264.1 880.0,262.5" fill="none" stroke="#e15759" stroke-width="2"/>
<circle cx="70.0" cy="64.7" r="3" fill="#e15759"/>
<circle cx="127.9" cy="141.3" r="3" fill="#e15759"/>
<circle cx="185.7" cy="181.5" r="3" fill="#e15759"/>
<circle cx="243.6" cy="199.6" r="3" fill="#e15759"/>
<circle cx="301.4" cy="225.3" r="3" fill="#e15759"/>
<circle cx="359.3" cy="252.6" r="3" fill="#e15759"/>
<circle cx="417.1" cy="199.5" r="3" fill="#e15759"/>
<circle cx="475.0" cy="174.4" r="3" fill="#e15759"/>
<circle cx="532.9" cy="203.4" r="3" fill="#e15759"/>
<circle cx="590.7" cy="216.5" r="3" fill="#e15759"/>
<circle cx="648.6" cy="175.0" r="3" fill="#e15759"/>
<circle cx="706.4" cy="245.0" r="3" fill="#e15759"/>
<circle cx="764.3" cy="190.3" r="3" fill="#e15759"/>
<circle cx="822.1" cy="264.1" r="3" fill="#e15759"/>
<circle cx="880.0" cy="262.5" r="3" fill="#e15759"/>
<rect x="394.0" y="358" width="10" height="10" fill="#e15759"/>
<text x="408.0" y="367" font-size="11" fill="#333">received audio</text>
<polyline points="70.0,312.5 127.9,316.0 185.7,314.6 243.6,315.4 301.4,311.2 359.3,320.1 417.1,304.4 475.0,313.9 532.9,317.1 590.7,307.8 648.6,316.6 706.4,318.8 764.3,309.2 822.1,317.1 880.0,312.4" fill="none" stroke="#b279a2" stroke-width="2"/>
<circle cx="70.0" cy="312.5" r="3" fill="#b279a2"/>
<circle cx="127.9" cy="316.0" r="3" fill="#b279a2"/>
<circle cx="185.7" cy="314.6" r="3" fill="#b279a2"/>
<circle cx="243.6" cy="315.4" r="3" fill="#b279a2"/>
<circle cx="301.4" cy="311.2" r="3" fill="#b279a2"/>
<circle cx="359.3" cy="320.1" r="3" fill="#b279a2"/>
<circle cx="417.1" cy="304.4" r="3" fill="#b279a2"/>
<circle cx="475.0" cy="313.9" r="3" fill="#b279a2"/>
<circle cx="532.9" cy="317.1" r="3" fill="#b279a2"/>
<circle cx="590.7" cy="307.8" r="3" fill="#b279a2"/>
<circle cx="648.6" cy="316.6" r="3" fill="#b279a2"/>
<circle cx="706.4" cy="318.8" r="3" fill="#b279a2"/>
<circle cx="764.3" cy="309.2" r="3" fill="#b279a2"/>
<circle cx="822.1" cy="317.1" r="3" fill="#b279a2"/>
<circle cx="880.0" cy="312.4" r="3" fill="#b279a2"/>
<rect x="556.0" y="358" width="10" height="10" fill="#b279a2"/>
<text x="570.0" y="367" font-size="11" fill="#333">received mouth</text>
<rect x="718.0" y="358" width="10" height="10" fill="#ff7f0e"/>
<text x="732.0" y="367" font-size="11" fill="#333">server A/V offset</text>
</svg>
