<svg xmlns="http://www.w3.org/2000/svg" width="900" height="380" viewBox="0 0 900 380" font-family="sans-serif">
<rect width="900" height="380" fill="white"/>
<text x="70" y="24" font-size="16" fill="#333">STT word error rate (%) — lower is better</text>
<line x1="70" y1="324.0" x2="880" y2="324.0" stroke="#e5e5e5"/>
<text x="64" y="328.0" font-size="11" fill="#666" text-anchor="end">0%</text>
<line x1="70" y1="268.0" x2="880" y2="268.0" stroke="#e5e5e5"/>
<text x="64" y="272.0" font-size="11" fill="#666" text-anchor="end">1%</text>
<line x1="70" y1="212.0" x2="880" y2="212.0" stroke="#e5e5e5"/>
<text x="64" y="216.0" font-size="11" fill="#666" text-anchor="end">2%</text>
<line x1="70" y1="156.0" x2="880" y2="156.0" stroke="#e5e5e5"/>
<text x="64" y="160.0" font-size="11" fill="#666" text-anchor="end">2%</text>
<line x1="70" y1="100.0" x2="880" y2="100.0" stroke="#e5e5e5"/>
<text x="64" y="104.0" font-size="11" fill="#666" text-anchor="end">3%</text>
<line x1="70" y1="44.0" x2="880" y2="44.0" stroke="#e5e5e5"/>
<text x="64" y="48.0" font-size="11" fill="#666" text-anchor="end">4%</text>
<text x="70.0" y="342" font-size="11" fill="#666" text-anchor="start">07-16 16:02</text>
<text x="482.4" y="342" font-size="11" fill="#666" text-anchor="middle">07-17 19:15</text>
<text x="880.0" y="342" font-size="11" fill="#666" text-anchor="end">07-18 10:28</text>
<polyline points="70.0,64.7 84.7,64.7 99.5,64.7 114.2,64.7 128.9,64.7 143.6,64.7 173.1,64.7 187.8,64.7 202.5,64.7 261.5,64.7 276.2,64.7 290.9,64.7 305.6,64.7 320.4,64.7 335.1,64.7 349.8,64.7 364.5,64.7 379.3,64.7 394.0,64.7 408.7,64.7 423.5,64.7 438.2,64.7 452.9,64.7 467.6,64.7 482.4,64.7 497.1,64.7 541.3,64.7 556.0,64.7 570.7,64.7 585.5,64.7 600.2,64.7 614.9,64.7 629.6,64.7 644.4,64.7 659.1,64.7 673.8,64.7 688.5,64.7 703.3,64.7 718.0,64.7 732.7,64.7 747.5,64.7 762.2,64.7 776.9,64.7 791.6,64.7 806.4,64.7 821.1,64.7 835.8,64.7 850.5,64.7 865.3,64.7 880.0,64.7" fill="none" stroke="#d62728" stroke-width="2"/>
<circle cx="70.0" cy="64.7" r="3" fill="#d62728"/>
<circle cx="84.7" cy="64.7" r="3" fill="#d62728"/>
<circle cx="99.5" cy="64.7" r="3" fill="#d62728"/>
<circle cx="114.2" cy="64.7" r="3" fill="#d62728"/>
<circle cx="128.9" cy="64.7" r="3" fill="#d62728"/>
<circle cx="143.6" cy="64.7" r="3" fill="#d62728"/>
<circle cx="173.1" cy="64.7" r="3" fill="#d62728"/>
<circle cx="187.8" cy="64.7" r="3" fill="#d62728"/>
<circle cx="202.5" cy="64.7" r="3" fill="#d62728"/>
<circle cx="261.5" cy="64.7" r="3" fill="#d62728"/>
<circle cx="276.2" cy="64.7" r="3" fill="#d62728"/>
<circle cx="290.9" cy="64.7" r="3" fill="#d62728"/>
<circle cx="305.6" cy="64.7" r="3" fill="#d62728"/>
<circle cx="320.4" cy="64.7" r="3" fill="#d62728"/>
<circle cx="335.1" cy="64.7" r="3" fill="#d62728"/>
<circle cx="349.8" cy="64.7" r="3" fill="#d62728"/>
<circle cx="364.5" cy="64.7" r="3" fill="#d62728"/>
<circle cx="379.3" cy="64.7" r="3" fill="#d62728"/>
<circle cx="394.0" cy="64.7" r="3" fill="#d62728"/>
<circle cx="408.7" cy="64.7" r="3" fill="#d62728"/>
<circle cx="423.5" cy="64.7" r="3" fill="#d62728"/>
<circle cx="438.2" cy="64.7" r="3" fill="#d62728"/>
<circle cx="452.9" cy="64.7" r="3" fill="#d62728"/>
<circle cx="467.6" cy="64.7" r="3" fill="#d62728"/>
<circle cx="482.4" cy="64.7" r="3" fill="#d62728"/>
<circle cx="497.1" cy="64.7" r="3" fill="#d62728"/>
<circle cx="541.3" cy="64.7" r="3" fill="#d62728"/>
<circle cx="556.0" cy="64.7" r="3" fill="#d62728"/>
<circle cx="570.7" cy="64.7" r="3" fill="#d62728"/>
<circle cx="585.5" cy="64.7" r="3" fill="#d62728"/>
<circle cx="600.2" cy="64.7" r="3" fill="#d62728"/>
<circle cx="614.9" cy="64.7" r="3" fill="#d62728"/>
<circle cx="629.6" cy="64.7" r="3" fill="#d62728"/>
<circle cx="644.4" cy="64.7" r="3" fill="#d62728"/>
<circle cx="659.1" cy="64.7" r="3" fill="#d62728"/>
<circle cx="673.8" cy="64.7" r="3" fill="#d62728"/>
<circle cx="688.5" cy="64.7" r="3" fill="#d62728"/>
<circle cx="703.3" cy="64.7" r="3" fill="#d62728"/>
<circle cx="718.0" cy="64.7" r="3" fill="#d62728"/>
<circle cx="732.7" cy="64.7" r="3" fill="#d62728"/>
<circle cx="747.5" cy="64.7" r="3" fill="#d62728"/>
<circle cx="762.2" cy="64.7" r="3" fill="#d62728"/>
<circle cx="776.9" cy="64.7" r="3" fill="#d62728"/>
<circle cx="791.6" cy="64.7" r="3" fill="#d62728"/>
<circle cx="806.4" cy="64.7" r="3" fill="#d62728"/>
<circle cx="821.1" cy="64.7" r="3" fill="#d62728"/>
<circle cx="835.8" cy="64.7" r="3" fill="#d62728"/>
<circle cx="850.5" cy="64.7" r="3" fill="#d62728"/>
<circle cx="865.3" cy="64.7" r="3" fill="#d62728"/>
<circle cx="880.0" cy="64.7" r="3" fill="#d62728"/>
<rect x="70.0" y="358" width="10" height="10" fill="#d62728"/>
<text x="84.0" y="367" font-size="11" fill="#333">WER</text>
</svg>
