<svg xmlns="http://www.w3.org/2000/svg" width="900" height="380" viewBox="0 0 900 380" font-family="sans-serif">
<rect width="900" height="380" fill="white"/>
<text x="70" y="24" font-size="16" fill="#333">STT word error rate (%) — lower is better</text>
<line x1="70" y1="324.0" x2="880" y2="324.0" stroke="#e5e5e5"/>
<text x="64" y="328.0" font-size="11" fill="#666" text-anchor="end">0%</text>
<line x1="70" y1="268.0" x2="880" y2="268.0" stroke="#e5e5e5"/>
<text x="64" y="272.0" font-size="11" fill="#666" text-anchor="end">1%</text>
<line x1="70" y1="212.0" x2="880" y2="212.0" stroke="#e5e5e5"/>
<text x="64" y="216.0" font-size="11" fill="#666" text-anchor="end">2%</text>
<line x1="70" y1="156.0" x2="880" y2="156.0" stroke="#e5e5e5"/>
<text x="64" y="160.0" font-size="11" fill="#666" text-anchor="end">2%</text>
<line x1="70" y1="100.0" x2="880" y2="100.0" stroke="#e5e5e5"/>
<text x="64" y="104.0" font-size="11" fill="#666" text-anchor="end">3%</text>
<line x1="70" y1="44.0" x2="880" y2="44.0" stroke="#e5e5e5"/>
<text x="64" y="48.0" font-size="11" fill="#666" text-anchor="end">4%</text>
<text x="70.0" y="342" font-size="11" fill="#666" text-anchor="start">07-16 16:02</text>
<text x="489.0" y="342" font-size="11" fill="#666" text-anchor="middle">07-17 13:17</text>
<text x="880.0" y="342" font-size="11" fill="#666" text-anchor="end">07-17 19:27</text>
<polyline points="70.0,64.7 97.9,64.7 125.9,64.7 153.8,64.7 181.7,64.7 209.7,64.7 265.5,64.7 293.4,64.7 321.4,64.7 433.1,64.7 461.0,64.7 489.0,64.7 516.9,64.7 544.8,64.7 572.8,64.7 600.7,64.7 628.6,64.7 656.6,64.7 684.5,64.7 712.4,64.7 740.3,64.7 768.3,64.7 796.2,64.7 824.1,64.7 852.1,64.7 880.0,64.7" fill="none" stroke="#d62728" stroke-width="2"/>
<circle cx="70.0" cy="64.7" r="3" fill="#d62728"/>
<circle cx="97.9" cy="64.7" r="3" fill="#d62728"/>
<circle cx="125.9" cy="64.7" r="3" fill="#d62728"/>
<circle cx="153.8" cy="64.7" r="3" fill="#d62728"/>
<circle cx="181.7" cy="64.7" r="3" fill="#d62728"/>
<circle cx="209.7" cy="64.7" r="3" fill="#d62728"/>
<circle cx="265.5" cy="64.7" r="3" fill="#d62728"/>
<circle cx="293.4" cy="64.7" r="3" fill="#d62728"/>
<circle cx="321.4" cy="64.7" r="3" fill="#d62728"/>
<circle cx="433.1" cy="64.7" r="3" fill="#d62728"/>
<circle cx="461.0" cy="64.7" r="3" fill="#d62728"/>
<circle cx="489.0" cy="64.7" r="3" fill="#d62728"/>
<circle cx="516.9" cy="64.7" r="3" fill="#d62728"/>
<circle cx="544.8" cy="64.7" r="3" fill="#d62728"/>
<circle cx="572.8" cy="64.7" r="3" fill="#d62728"/>
<circle cx="600.7" cy="64.7" r="3" fill="#d62728"/>
<circle cx="628.6" cy="64.7" r="3" fill="#d62728"/>
<circle cx="656.6" cy="64.7" r="3" fill="#d62728"/>
<circle cx="684.5" cy="64.7" r="3" fill="#d62728"/>
<circle cx="712.4" cy="64.7" r="3" fill="#d62728"/>
<circle cx="740.3" cy="64.7" r="3" fill="#d62728"/>
<circle cx="768.3" cy="64.7" r="3" fill="#d62728"/>
<circle cx="796.2" cy="64.7" r="3" fill="#d62728"/>
<circle cx="824.1" cy="64.7" r="3" fill="#d62728"/>
<circle cx="852.1" cy="64.7" r="3" fill="#d62728"/>
<circle cx="880.0" cy="64.7" r="3" fill="#d62728"/>
<rect x="70.0" y="358" width="10" height="10" fill="#d62728"/>
<text x="84.0" y="367" font-size="11" fill="#333">WER</text>
</svg>
