<svg xmlns="http://www.w3.org/2000/svg" width="900" height="380" viewBox="0 0 900 380" font-family="sans-serif">
<rect width="900" height="380" fill="white"/>
<text x="70" y="24" font-size="16" fill="#333">STT word error rate (%) — lower is better</text>
<line x1="70" y1="324.0" x2="880" y2="324.0" stroke="#e5e5e5"/>
<text x="64" y="328.0" font-size="11" fill="#666" text-anchor="end">0%</text>
<line x1="70" y1="268.0" x2="880" y2="268.0" stroke="#e5e5e5"/>
<text x="64" y="272.0" font-size="11" fill="#666" text-anchor="end">1%</text>
<line x1="70" y1="212.0" x2="880" y2="212.0" stroke="#e5e5e5"/>
<text x="64" y="216.0" font-size="11" fill="#666" text-anchor="end">2%</text>
<line x1="70" y1="156.0" x2="880" y2="156.0" stroke="#e5e5e5"/>
<text x="64" y="160.0" font-size="11" fill="#666" text-anchor="end">2%</text>
<line x1="70" y1="100.0" x2="880" y2="100.0" stroke="#e5e5e5"/>
<text x="64" y="104.0" font-size="11" fill="#666" text-anchor="end">3%</text>
<line x1="70" y1="44.0" x2="880" y2="44.0" stroke="#e5e5e5"/>
<text x="64" y="48.0" font-size="11" fill="#666" text-anchor="end">4%</text>
<text x="70.0" y="342" font-size="11" fill="#666" text-anchor="start">07-16 16:02</text>
<text x="475.0" y="342" font-size="11" fill="#666" text-anchor="middle">07-17 19:01</text>
<text x="880.0" y="342" font-size="11" fill="#666" text-anchor="end">07-18 10:24</text>
<polyline points="70.0,64.7 85.0,64.7 100.0,64.7 115.0,64.7 130.0,64.7 145.0,64.7 175.0,64.7 190.0,64.7 205.0,64.7 265.0,64.7 280.0,64.7 295.0,64.7 310.0,64.7 325.0,64.7 340.0,64.7 355.0,64.7 370.0,64.7 385.0,64.7 400.0,64.7 415.0,64.7 430.0,64.7 445.0,64.7 460.0,64.7 475.0,64.7 490.0,64.7 505.0,64.7 550.0,64.7 565.0,64.7 580.0,64.7 595.0,64.7 610.0,64.7 625.0,64.7 640.0,64.7 655.0,64.7 670.0,64.7 685.0,64.7 700.0,64.7 715.0,64.7 730.0,64.7 745.0,64.7 760.0,64.7 775.0,64.7 790.0,64.7 805.0,64.7 820.0,64.7 835.0,64.7 850.0,64.7 865.0,64.7 880.0,64.7" fill="none" stroke="#d62728" stroke-width="2"/>
<circle cx="70.0" cy="64.7" r="3" fill="#d62728"/>
<circle cx="85.0" cy="64.7" r="3" fill="#d62728"/>
<circle cx="100.0" cy="64.7" r="3" fill="#d62728"/>
<circle cx="115.0" cy="64.7" r="3" fill="#d62728"/>
<circle cx="130.0" cy="64.7" r="3" fill="#d62728"/>
<circle cx="145.0" cy="64.7" r="3" fill="#d62728"/>
<circle cx="175.0" cy="64.7" r="3" fill="#d62728"/>
<circle cx="190.0" cy="64.7" r="3" fill="#d62728"/>
<circle cx="205.0" cy="64.7" r="3" fill="#d62728"/>
<circle cx="265.0" cy="64.7" r="3" fill="#d62728"/>
<circle cx="280.0" cy="64.7" r="3" fill="#d62728"/>
<circle cx="295.0" cy="64.7" r="3" fill="#d62728"/>
<circle cx="310.0" cy="64.7" r="3" fill="#d62728"/>
<circle cx="325.0" cy="64.7" r="3" fill="#d62728"/>
<circle cx="340.0" cy="64.7" r="3" fill="#d62728"/>
<circle cx="355.0" cy="64.7" r="3" fill="#d62728"/>
<circle cx="370.0" cy="64.7" r="3" fill="#d62728"/>
<circle cx="385.0" cy="64.7" r="3" fill="#d62728"/>
<circle cx="400.0" cy="64.7" r="3" fill="#d62728"/>
<circle cx="415.0" cy="64.7" r="3" fill="#d62728"/>
<circle cx="430.0" cy="64.7" r="3" fill="#d62728"/>
<circle cx="445.0" cy="64.7" r="3" fill="#d62728"/>
<circle cx="460.0" cy="64.7" r="3" fill="#d62728"/>
<circle cx="475.0" cy="64.7" r="3" fill="#d62728"/>
<circle cx="490.0" cy="64.7" r="3" fill="#d62728"/>
<circle cx="505.0" cy="64.7" r="3" fill="#d62728"/>
<circle cx="550.0" cy="64.7" r="3" fill="#d62728"/>
<circle cx="565.0" cy="64.7" r="3" fill="#d62728"/>
<circle cx="580.0" cy="64.7" r="3" fill="#d62728"/>
<circle cx="595.0" cy="64.7" r="3" fill="#d62728"/>
<circle cx="610.0" cy="64.7" r="3" fill="#d62728"/>
<circle cx="625.0" cy="64.7" r="3" fill="#d62728"/>
<circle cx="640.0" cy="64.7" r="3" fill="#d62728"/>
<circle cx="655.0" cy="64.7" r="3" fill="#d62728"/>
<circle cx="670.0" cy="64.7" r="3" fill="#d62728"/>
<circle cx="685.0" cy="64.7" r="3" fill="#d62728"/>
<circle cx="700.0" cy="64.7" r="3" fill="#d62728"/>
<circle cx="715.0" cy="64.7" r="3" fill="#d62728"/>
<circle cx="730.0" cy="64.7" r="3" fill="#d62728"/>
<circle cx="745.0" cy="64.7" r="3" fill="#d62728"/>
<circle cx="760.0" cy="64.7" r="3" fill="#d62728"/>
<circle cx="775.0" cy="64.7" r="3" fill="#d62728"/>
<circle cx="790.0" cy="64.7" r="3" fill="#d62728"/>
<circle cx="805.0" cy="64.7" r="3" fill="#d62728"/>
<circle cx="820.0" cy="64.7" r="3" fill="#d62728"/>
<circle cx="835.0" cy="64.7" r="3" fill="#d62728"/>
<circle cx="850.0" cy="64.7" r="3" fill="#d62728"/>
<circle cx="865.0" cy="64.7" r="3" fill="#d62728"/>
<circle cx="880.0" cy="64.7" r="3" fill="#d62728"/>
<rect x="70.0" y="358" width="10" height="10" fill="#d62728"/>
<text x="84.0" y="367" font-size="11" fill="#333">WER</text>
</svg>
