<svg xmlns="http://www.w3.org/2000/svg" width="900" height="380" viewBox="0 0 900 380" font-family="sans-serif">
<rect width="900" height="380" fill="white"/>
<text x="70" y="24" font-size="16" fill="#333">STT word error rate (%) — lower is better</text>
<line x1="70" y1="324.0" x2="880" y2="324.0" stroke="#e5e5e5"/>
<text x="64" y="328.0" font-size="11" fill="#666" text-anchor="end">0%</text>
<line x1="70" y1="268.0" x2="880" y2="268.0" stroke="#e5e5e5"/>
<text x="64" y="272.0" font-size="11" fill="#666" text-anchor="end">1%</text>
<line x1="70" y1="212.0" x2="880" y2="212.0" stroke="#e5e5e5"/>
<text x="64" y="216.0" font-size="11" fill="#666" text-anchor="end">2%</text>
<line x1="70" y1="156.0" x2="880" y2="156.0" stroke="#e5e5e5"/>
<text x="64" y="160.0" font-size="11" fill="#666" text-anchor="end">2%</text>
<line x1="70" y1="100.0" x2="880" y2="100.0" stroke="#e5e5e5"/>
<text x="64" y="104.0" font-size="11" fill="#666" text-anchor="end">3%</text>
<line x1="70" y1="44.0" x2="880" y2="44.0" stroke="#e5e5e5"/>
<text x="64" y="48.0" font-size="11" fill="#666" text-anchor="end">4%</text>
<text x="70.0" y="342" font-size="11" fill="#666" text-anchor="start">07-16 16:02</text>
<text x="484.0" y="342" font-size="11" fill="#666" text-anchor="middle">07-17 16:30</text>
<text x="880.0" y="342" font-size="11" fill="#666" text-anchor="end">07-17 22:06</text>
<polyline points="70.0,64.7 88.0,64.7 106.0,64.7 124.0,64.7 142.0,64.7 160.0,64.7 196.0,64.7 214.0,64.7 232.0,64.7 304.0,64.7 322.0,64.7 340.0,64.7 358.0,64.7 376.0,64.7 394.0,64.7 412.0,64.7 430.0,64.7 448.0,64.7 466.0,64.7 484.0,64.7 502.0,64.7 520.0,64.7 538.0,64.7 556.0,64.7 574.0,64.7 592.0,64.7 646.0,64.7 664.0,64.7 682.0,64.7 700.0,64.7 718.0,64.7 736.0,64.7 754.0,64.7 772.0,64.7 790.0,64.7 808.0,64.7 826.0,64.7 844.0,64.7 862.0,64.7 880.0,64.7" fill="none" stroke="#d62728" stroke-width="2"/>
<circle cx="70.0" cy="64.7" r="3" fill="#d62728"/>
<circle cx="88.0" cy="64.7" r="3" fill="#d62728"/>
<circle cx="106.0" cy="64.7" r="3" fill="#d62728"/>
<circle cx="124.0" cy="64.7" r="3" fill="#d62728"/>
<circle cx="142.0" cy="64.7" r="3" fill="#d62728"/>
<circle cx="160.0" cy="64.7" r="3" fill="#d62728"/>
<circle cx="196.0" cy="64.7" r="3" fill="#d62728"/>
<circle cx="214.0" cy="64.7" r="3" fill="#d62728"/>
<circle cx="232.0" cy="64.7" r="3" fill="#d62728"/>
<circle cx="304.0" cy="64.7" r="3" fill="#d62728"/>
<circle cx="322.0" cy="64.7" r="3" fill="#d62728"/>
<circle cx="340.0" cy="64.7" r="3" fill="#d62728"/>
<circle cx="358.0" cy="64.7" r="3" fill="#d62728"/>
<circle cx="376.0" cy="64.7" r="3" fill="#d62728"/>
<circle cx="394.0" cy="64.7" r="3" fill="#d62728"/>
<circle cx="412.0" cy="64.7" r="3" fill="#d62728"/>
<circle cx="430.0" cy="64.7" r="3" fill="#d62728"/>
<circle cx="448.0" cy="64.7" r="3" fill="#d62728"/>
<circle cx="466.0" cy="64.7" r="3" fill="#d62728"/>
<circle cx="484.0" cy="64.7" r="3" fill="#d62728"/>
<circle cx="502.0" cy="64.7" r="3" fill="#d62728"/>
<circle cx="520.0" cy="64.7" r="3" fill="#d62728"/>
<circle cx="538.0" cy="64.7" r="3" fill="#d62728"/>
<circle cx="556.0" cy="64.7" r="3" fill="#d62728"/>
<circle cx="574.0" cy="64.7" r="3" fill="#d62728"/>
<circle cx="592.0" cy="64.7" r="3" fill="#d62728"/>
<circle cx="646.0" cy="64.7" r="3" fill="#d62728"/>
<circle cx="664.0" cy="64.7" r="3" fill="#d62728"/>
<circle cx="682.0" cy="64.7" r="3" fill="#d62728"/>
<circle cx="700.0" cy="64.7" r="3" fill="#d62728"/>
<circle cx="718.0" cy="64.7" r="3" fill="#d62728"/>
<circle cx="736.0" cy="64.7" r="3" fill="#d62728"/>
<circle cx="754.0" cy="64.7" r="3" fill="#d62728"/>
<circle cx="772.0" cy="64.7" r="3" fill="#d62728"/>
<circle cx="790.0" cy="64.7" r="3" fill="#d62728"/>
<circle cx="808.0" cy="64.7" r="3" fill="#d62728"/>
<circle cx="826.0" cy="64.7" r="3" fill="#d62728"/>
<circle cx="844.0" cy="64.7" r="3" fill="#d62728"/>
<circle cx="862.0" cy="64.7" r="3" fill="#d62728"/>
<circle cx="880.0" cy="64.7" r="3" fill="#d62728"/>
<rect x="70.0" y="358" width="10" height="10" fill="#d62728"/>
<text x="84.0" y="367" font-size="11" fill="#333">WER</text>
</svg>
