<svg xmlns="http://www.w3.org/2000/svg" width="900" height="380" viewBox="0 0 900 380" font-family="sans-serif">
<rect width="900" height="380" fill="white"/>
<text x="70" y="24" font-size="16" fill="#333">STT word error rate (%) — lower is better</text>
<line x1="70" y1="324.0" x2="880" y2="324.0" stroke="#e5e5e5"/>
<text x="64" y="328.0" font-size="11" fill="#666" text-anchor="end">0%</text>
<line x1="70" y1="268.0" x2="880" y2="268.0" stroke="#e5e5e5"/>
<text x="64" y="272.0" font-size="11" fill="#666" text-anchor="end">1%</text>
<line x1="70" y1="212.0" x2="880" y2="212.0" stroke="#e5e5e5"/>
<text x="64" y="216.0" font-size="11" fill="#666" text-anchor="end">2%</text>
<line x1="70" y1="156.0" x2="880" y2="156.0" stroke="#e5e5e5"/>
<text x="64" y="160.0" font-size="11" fill="#666" text-anchor="end">2%</text>
<line x1="70" y1="100.0" x2="880" y2="100.0" stroke="#e5e5e5"/>
<text x="64" y="104.0" font-size="11" fill="#666" text-anchor="end">3%</text>
<line x1="70" y1="44.0" x2="880" y2="44.0" stroke="#e5e5e5"/>
<text x="64" y="48.0" font-size="11" fill="#666" text-anchor="end">4%</text>
<text x="70.0" y="342" font-size="11" fill="#666" text-anchor="start">07-16 16:02</text>
<text x="485.4" y="342" font-size="11" fill="#666" text-anchor="middle">07-17 15:13</text>
<text x="880.0" y="342" font-size="11" fill="#666" text-anchor="end">07-17 20:27</text>
<polyline points="70.0,64.7 90.8,64.7 111.5,64.7 132.3,64.7 153.1,64.7 173.8,64.7 215.4,64.7 236.2,64.7 256.9,64.7 340.0,64.7 360.8,64.7 381.5,64.7 402.3,64.7 423.1,64.7 443.8,64.7 464.6,64.7 485.4,64.7 506.2,64.7 526.9,64.7 547.7,64.7 568.5,64.7 589.2,64.7 610.0,64.7 630.8,64.7 651.5,64.7 672.3,64.7 734.6,64.7 755.4,64.7 776.2,64.7 796.9,64.7 817.7,64.7 838.5,64.7 859.2,64.7 880.0,64.7" fill="none" stroke="#d62728" stroke-width="2"/>
<circle cx="70.0" cy="64.7" r="3" fill="#d62728"/>
<circle cx="90.8" cy="64.7" r="3" fill="#d62728"/>
<circle cx="111.5" cy="64.7" r="3" fill="#d62728"/>
<circle cx="132.3" cy="64.7" r="3" fill="#d62728"/>
<circle cx="153.1" cy="64.7" r="3" fill="#d62728"/>
<circle cx="173.8" cy="64.7" r="3" fill="#d62728"/>
<circle cx="215.4" cy="64.7" r="3" fill="#d62728"/>
<circle cx="236.2" cy="64.7" r="3" fill="#d62728"/>
<circle cx="256.9" cy="64.7" r="3" fill="#d62728"/>
<circle cx="340.0" cy="64.7" r="3" fill="#d62728"/>
<circle cx="360.8" cy="64.7" r="3" fill="#d62728"/>
<circle cx="381.5" cy="64.7" r="3" fill="#d62728"/>
<circle cx="402.3" cy="64.7" r="3" fill="#d62728"/>
<circle cx="423.1" cy="64.7" r="3" fill="#d62728"/>
<circle cx="443.8" cy="64.7" r="3" fill="#d62728"/>
<circle cx="464.6" cy="64.7" r="3" fill="#d62728"/>
<circle cx="485.4" cy="64.7" r="3" fill="#d62728"/>
<circle cx="506.2" cy="64.7" r="3" fill="#d62728"/>
<circle cx="526.9" cy="64.7" r="3" fill="#d62728"/>
<circle cx="547.7" cy="64.7" r="3" fill="#d62728"/>
<circle cx="568.5" cy="64.7" r="3" fill="#d62728"/>
<circle cx="589.2" cy="64.7" r="3" fill="#d62728"/>
<circle cx="610.0" cy="64.7" r="3" fill="#d62728"/>
<circle cx="630.8" cy="64.7" r="3" fill="#d62728"/>
<circle cx="651.5" cy="64.7" r="3" fill="#d62728"/>
<circle cx="672.3" cy="64.7" r="3" fill="#d62728"/>
<circle cx="734.6" cy="64.7" r="3" fill="#d62728"/>
<circle cx="755.4" cy="64.7" r="3" fill="#d62728"/>
<circle cx="776.2" cy="64.7" r="3" fill="#d62728"/>
<circle cx="796.9" cy="64.7" r="3" fill="#d62728"/>
<circle cx="817.7" cy="64.7" r="3" fill="#d62728"/>
<circle cx="838.5" cy="64.7" r="3" fill="#d62728"/>
<circle cx="859.2" cy="64.7" r="3" fill="#d62728"/>
<circle cx="880.0" cy="64.7" r="3" fill="#d62728"/>
<rect x="70.0" y="358" width="10" height="10" fill="#d62728"/>
<text x="84.0" y="367" font-size="11" fill="#333">WER</text>
</svg>
