<svg xmlns="http://www.w3.org/2000/svg" width="900" height="380" viewBox="0 0 900 380" font-family="sans-serif">
<rect width="900" height="380" fill="white"/>
<text x="70" y="24" font-size="16" fill="#333">STT word error rate (%) — lower is better</text>
<line x1="70" y1="324.0" x2="880" y2="324.0" stroke="#e5e5e5"/>
<text x="64" y="328.0" font-size="11" fill="#666" text-anchor="end">0%</text>
<line x1="70" y1="268.0" x2="880" y2="268.0" stroke="#e5e5e5"/>
<text x="64" y="272.0" font-size="11" fill="#666" text-anchor="end">1%</text>
<line x1="70" y1="212.0" x2="880" y2="212.0" stroke="#e5e5e5"/>
<text x="64" y="216.0" font-size="11" fill="#666" text-anchor="end">2%</text>
<line x1="70" y1="156.0" x2="880" y2="156.0" stroke="#e5e5e5"/>
<text x="64" y="160.0" font-size="11" fill="#666" text-anchor="end">2%</text>
<line x1="70" y1="100.0" x2="880" y2="100.0" stroke="#e5e5e5"/>
<text x="64" y="104.0" font-size="11" fill="#666" text-anchor="end">3%</text>
<line x1="70" y1="44.0" x2="880" y2="44.0" stroke="#e5e5e5"/>
<text x="64" y="48.0" font-size="11" fill="#666" text-anchor="end">4%</text>
<text x="70.0" y="342" font-size="11" fill="#666" text-anchor="start">07-16 16:02</text>
<text x="475.0" y="342" font-size="11" fill="#666" text-anchor="middle">07-17 18:46</text>
<text x="880.0" y="342" font-size="11" fill="#666" text-anchor="end">07-18 08:37</text>
<polyline points="70.0,64.7 85.6,64.7 101.2,64.7 116.7,64.7 132.3,64.7 147.9,64.7 179.0,64.7 194.6,64.7 210.2,64.7 272.5,64.7 288.1,64.7 303.7,64.7 319.2,64.7 334.8,64.7 350.4,64.7 366.0,64.7 381.5,64.7 397.1,64.7 412.7,64.7 428.3,64.7 443.8,64.7 459.4,64.7 475.0,64.7 490.6,64.7 506.2,64.7 521.7,64.7 568.5,64.7 584.0,64.7 599.6,64.7 615.2,64.7 630.8,64.7 646.3,64.7 661.9,64.7 677.5,64.7 693.1,64.7 708.7,64.7 724.2,64.7 739.8,64.7 755.4,64.7 771.0,64.7 786.5,64.7 802.1,64.7 817.7,64.7 833.3,64.7 848.8,64.7 864.4,64.7 880.0,64.7" fill="none" stroke="#d62728" stroke-width="2"/>
<circle cx="70.0" cy="64.7" r="3" fill="#d62728"/>
<circle cx="85.6" cy="64.7" r="3" fill="#d62728"/>
<circle cx="101.2" cy="64.7" r="3" fill="#d62728"/>
<circle cx="116.7" cy="64.7" r="3" fill="#d62728"/>
<circle cx="132.3" cy="64.7" r="3" fill="#d62728"/>
<circle cx="147.9" cy="64.7" r="3" fill="#d62728"/>
<circle cx="179.0" cy="64.7" r="3" fill="#d62728"/>
<circle cx="194.6" cy="64.7" r="3" fill="#d62728"/>
<circle cx="210.2" cy="64.7" r="3" fill="#d62728"/>
<circle cx="272.5" cy="64.7" r="3" fill="#d62728"/>
<circle cx="288.1" cy="64.7" r="3" fill="#d62728"/>
<circle cx="303.7" cy="64.7" r="3" fill="#d62728"/>
<circle cx="319.2" cy="64.7" r="3" fill="#d62728"/>
<circle cx="334.8" cy="64.7" r="3" fill="#d62728"/>
<circle cx="350.4" cy="64.7" r="3" fill="#d62728"/>
<circle cx="366.0" cy="64.7" r="3" fill="#d62728"/>
<circle cx="381.5" cy="64.7" r="3" fill="#d62728"/>
<circle cx="397.1" cy="64.7" r="3" fill="#d62728"/>
<circle cx="412.7" cy="64.7" r="3" fill="#d62728"/>
<circle cx="428.3" cy="64.7" r="3" fill="#d62728"/>
<circle cx="443.8" cy="64.7" r="3" fill="#d62728"/>
<circle cx="459.4" cy="64.7" r="3" fill="#d62728"/>
<circle cx="475.0" cy="64.7" r="3" fill="#d62728"/>
<circle cx="490.6" cy="64.7" r="3" fill="#d62728"/>
<circle cx="506.2" cy="64.7" r="3" fill="#d62728"/>
<circle cx="521.7" cy="64.7" r="3" fill="#d62728"/>
<circle cx="568.5" cy="64.7" r="3" fill="#d62728"/>
<circle cx="584.0" cy="64.7" r="3" fill="#d62728"/>
<circle cx="599.6" cy="64.7" r="3" fill="#d62728"/>
<circle cx="615.2" cy="64.7" r="3" fill="#d62728"/>
<circle cx="630.8" cy="64.7" r="3" fill="#d62728"/>
<circle cx="646.3" cy="64.7" r="3" fill="#d62728"/>
<circle cx="661.9" cy="64.7" r="3" fill="#d62728"/>
<circle cx="677.5" cy="64.7" r="3" fill="#d62728"/>
<circle cx="693.1" cy="64.7" r="3" fill="#d62728"/>
<circle cx="708.7" cy="64.7" r="3" fill="#d62728"/>
<circle cx="724.2" cy="64.7" r="3" fill="#d62728"/>
<circle cx="739.8" cy="64.7" r="3" fill="#d62728"/>
<circle cx="755.4" cy="64.7" r="3" fill="#d62728"/>
<circle cx="771.0" cy="64.7" r="3" fill="#d62728"/>
<circle cx="786.5" cy="64.7" r="3" fill="#d62728"/>
<circle cx="802.1" cy="64.7" r="3" fill="#d62728"/>
<circle cx="817.7" cy="64.7" r="3" fill="#d62728"/>
<circle cx="833.3" cy="64.7" r="3" fill="#d62728"/>
<circle cx="848.8" cy="64.7" r="3" fill="#d62728"/>
<circle cx="864.4" cy="64.7" r="3" fill="#d62728"/>
<circle cx="880.0" cy="64.7" r="3" fill="#d62728"/>
<rect x="70.0" y="358" width="10" height="10" fill="#d62728"/>
<text x="84.0" y="367" font-size="11" fill="#333">WER</text>
</svg>
