<svg xmlns="http://www.w3.org/2000/svg" width="900" height="380" viewBox="0 0 900 380" font-family="sans-serif">
<rect width="900" height="380" fill="white"/>
<text x="70" y="24" font-size="16" fill="#333">STT word error rate (%) — lower is better</text>
<line x1="70" y1="324.0" x2="880" y2="324.0" stroke="#e5e5e5"/>
<text x="64" y="328.0" font-size="11" fill="#666" text-anchor="end">0%</text>
<line x1="70" y1="268.0" x2="880" y2="268.0" stroke="#e5e5e5"/>
<text x="64" y="272.0" font-size="11" fill="#666" text-anchor="end">1%</text>
<line x1="70" y1="212.0" x2="880" y2="212.0" stroke="#e5e5e5"/>
<text x="64" y="216.0" font-size="11" fill="#666" text-anchor="end">2%</text>
<line x1="70" y1="156.0" x2="880" y2="156.0" stroke="#e5e5e5"/>
<text x="64" y="160.0" font-size="11" fill="#666" text-anchor="end">2%</text>
<line x1="70" y1="100.0" x2="880" y2="100.0" stroke="#e5e5e5"/>
<text x="64" y="104.0" font-size="11" fill="#666" text-anchor="end">3%</text>
<line x1="70" y1="44.0" x2="880" y2="44.0" stroke="#e5e5e5"/>
<text x="64" y="48.0" font-size="11" fill="#666" text-anchor="end">4%</text>
<text x="70.0" y="342" font-size="11" fill="#666" text-anchor="start">07-16 16:02</text>
<text x="475.0" y="342" font-size="11" fill="#666" text-anchor="middle">07-17 14:39</text>
<text x="880.0" y="342" font-size="11" fill="#666" text-anchor="end">07-17 20:11</text>
<polyline points="70.0,64.7 92.5,64.7 115.0,64.7 137.5,64.7 160.0,64.7 182.5,64.7 227.5,64.7 250.0,64.7 272.5,64.7 362.5,64.7 385.0,64.7 407.5,64.7 430.0,64.7 452.5,64.7 475.0,64.7 497.5,64.7 520.0,64.7 542.5,64.7 565.0,64.7 587.5,64.7 610.0,64.7 632.5,64.7 655.0,64.7 677.5,64.7 700.0,64.7 722.5,64.7 790.0,64.7 812.5,64.7 835.0,64.7 857.5,64.7 880.0,64.7" fill="none" stroke="#d62728" stroke-width="2"/>
<circle cx="70.0" cy="64.7" r="3" fill="#d62728"/>
<circle cx="92.5" cy="64.7" r="3" fill="#d62728"/>
<circle cx="115.0" cy="64.7" r="3" fill="#d62728"/>
<circle cx="137.5" cy="64.7" r="3" fill="#d62728"/>
<circle cx="160.0" cy="64.7" r="3" fill="#d62728"/>
<circle cx="182.5" cy="64.7" r="3" fill="#d62728"/>
<circle cx="227.5" cy="64.7" r="3" fill="#d62728"/>
<circle cx="250.0" cy="64.7" r="3" fill="#d62728"/>
<circle cx="272.5" cy="64.7" r="3" fill="#d62728"/>
<circle cx="362.5" cy="64.7" r="3" fill="#d62728"/>
<circle cx="385.0" cy="64.7" r="3" fill="#d62728"/>
<circle cx="407.5" cy="64.7" r="3" fill="#d62728"/>
<circle cx="430.0" cy="64.7" r="3" fill="#d62728"/>
<circle cx="452.5" cy="64.7" r="3" fill="#d62728"/>
<circle cx="475.0" cy="64.7" r="3" fill="#d62728"/>
<circle cx="497.5" cy="64.7" r="3" fill="#d62728"/>
<circle cx="520.0" cy="64.7" r="3" fill="#d62728"/>
<circle cx="542.5" cy="64.7" r="3" fill="#d62728"/>
<circle cx="565.0" cy="64.7" r="3" fill="#d62728"/>
<circle cx="587.5" cy="64.7" r="3" fill="#d62728"/>
<circle cx="610.0" cy="64.7" r="3" fill="#d62728"/>
<circle cx="632.5" cy="64.7" r="3" fill="#d62728"/>
<circle cx="655.0" cy="64.7" r="3" fill="#d62728"/>
<circle cx="677.5" cy="64.7" r="3" fill="#d62728"/>
<circle cx="700.0" cy="64.7" r="3" fill="#d62728"/>
<circle cx="722.5" cy="64.7" r="3" fill="#d62728"/>
<circle cx="790.0" cy="64.7" r="3" fill="#d62728"/>
<circle cx="812.5" cy="64.7" r="3" fill="#d62728"/>
<circle cx="835.0" cy="64.7" r="3" fill="#d62728"/>
<circle cx="857.5" cy="64.7" r="3" fill="#d62728"/>
<circle cx="880.0" cy="64.7" r="3" fill="#d62728"/>
<rect x="70.0" y="358" width="10" height="10" fill="#d62728"/>
<text x="84.0" y="367" font-size="11" fill="#333">WER</text>
</svg>
