<svg xmlns="http://www.w3.org/2000/svg" width="900" height="380" viewBox="0 0 900 380" font-family="sans-serif">
<rect width="900" height="380" fill="white"/>
<text x="70" y="24" font-size="16" fill="#333">STT word error rate (%) — lower is better</text>
<line x1="70" y1="324.0" x2="880" y2="324.0" stroke="#e5e5e5"/>
<text x="64" y="328.0" font-size="11" fill="#666" text-anchor="end">0%</text>
<line x1="70" y1="268.0" x2="880" y2="268.0" stroke="#e5e5e5"/>
<text x="64" y="272.0" font-size="11" fill="#666" text-anchor="end">1%</text>
<line x1="70" y1="212.0" x2="880" y2="212.0" stroke="#e5e5e5"/>
<text x="64" y="216.0" font-size="11" fill="#666" text-anchor="end">2%</text>
<line x1="70" y1="156.0" x2="880" y2="156.0" stroke="#e5e5e5"/>
<text x="64" y="160.0" font-size="11" fill="#666" text-anchor="end">2%</text>
<line x1="70" y1="100.0" x2="880" y2="100.0" stroke="#e5e5e5"/>
<text x="64" y="104.0" font-size="11" fill="#666" text-anchor="end">3%</text>
<line x1="70" y1="44.0" x2="880" y2="44.0" stroke="#e5e5e5"/>
<text x="64" y="48.0" font-size="11" fill="#666" text-anchor="end">4%</text>
<text x="70.0" y="342" font-size="11" fill="#666" text-anchor="start">07-16 16:02</text>
<text x="487.3" y="342" font-size="11" fill="#666" text-anchor="middle">07-17 14:26</text>
<text x="880.0" y="342" font-size="11" fill="#666" text-anchor="end">07-17 19:55</text>
<polyline points="70.0,64.7 94.5,64.7 119.1,64.7 143.6,64.7 168.2,64.7 192.7,64.7 241.8,64.7 266.4,64.7 290.9,64.7 389.1,64.7 413.6,64.7 438.2,64.7 462.7,64.7 487.3,64.7 511.8,64.7 536.4,64.7 560.9,64.7 585.5,64.7 610.0,64.7 634.5,64.7 659.1,64.7 683.6,64.7 708.2,64.7 732.7,64.7 757.3,64.7 781.8,64.7 855.5,64.7 880.0,64.7" fill="none" stroke="#d62728" stroke-width="2"/>
<circle cx="70.0" cy="64.7" r="3" fill="#d62728"/>
<circle cx="94.5" cy="64.7" r="3" fill="#d62728"/>
<circle cx="119.1" cy="64.7" r="3" fill="#d62728"/>
<circle cx="143.6" cy="64.7" r="3" fill="#d62728"/>
<circle cx="168.2" cy="64.7" r="3" fill="#d62728"/>
<circle cx="192.7" cy="64.7" r="3" fill="#d62728"/>
<circle cx="241.8" cy="64.7" r="3" fill="#d62728"/>
<circle cx="266.4" cy="64.7" r="3" fill="#d62728"/>
<circle cx="290.9" cy="64.7" r="3" fill="#d62728"/>
<circle cx="389.1" cy="64.7" r="3" fill="#d62728"/>
<circle cx="413.6" cy="64.7" r="3" fill="#d62728"/>
<circle cx="438.2" cy="64.7" r="3" fill="#d62728"/>
<circle cx="462.7" cy="64.7" r="3" fill="#d62728"/>
<circle cx="487.3" cy="64.7" r="3" fill="#d62728"/>
<circle cx="511.8" cy="64.7" r="3" fill="#d62728"/>
<circle cx="536.4" cy="64.7" r="3" fill="#d62728"/>
<circle cx="560.9" cy="64.7" r="3" fill="#d62728"/>
<circle cx="585.5" cy="64.7" r="3" fill="#d62728"/>
<circle cx="610.0" cy="64.7" r="3" fill="#d62728"/>
<circle cx="634.5" cy="64.7" r="3" fill="#d62728"/>
<circle cx="659.1" cy="64.7" r="3" fill="#d62728"/>
<circle cx="683.6" cy="64.7" r="3" fill="#d62728"/>
<circle cx="708.2" cy="64.7" r="3" fill="#d62728"/>
<circle cx="732.7" cy="64.7" r="3" fill="#d62728"/>
<circle cx="757.3" cy="64.7" r="3" fill="#d62728"/>
<circle cx="781.8" cy="64.7" r="3" fill="#d62728"/>
<circle cx="855.5" cy="64.7" r="3" fill="#d62728"/>
<circle cx="880.0" cy="64.7" r="3" fill="#d62728"/>
<rect x="70.0" y="358" width="10" height="10" fill="#d62728"/>
<text x="84.0" y="367" font-size="11" fill="#333">WER</text>
</svg>
