<svg xmlns="http://www.w3.org/2000/svg" width="900" height="380" viewBox="0 0 900 380" font-family="sans-serif">
<rect width="900" height="380" fill="white"/>
<text x="70" y="24" font-size="16" fill="#333">STT word error rate (%) — lower is better</text>
<line x1="70" y1="324.0" x2="880" y2="324.0" stroke="#e5e5e5"/>
<text x="64" y="328.0" font-size="11" fill="#666" text-anchor="end">0%</text>
<line x1="70" y1="268.0" x2="880" y2="268.0" stroke="#e5e5e5"/>
<text x="64" y="272.0" font-size="11" fill="#666" text-anchor="end">1%</text>
<line x1="70" y1="212.0" x2="880" y2="212.0" stroke="#e5e5e5"/>
<text x="64" y="216.0" font-size="11" fill="#666" text-anchor="end">2%</text>
<line x1="70" y1="156.0" x2="880" y2="156.0" stroke="#e5e5e5"/>
<text x="64" y="160.0" font-size="11" fill="#666" text-anchor="end">2%</text>
<line x1="70" y1="100.0" x2="880" y2="100.0" stroke="#e5e5e5"/>
<text x="64" y="104.0" font-size="11" fill="#666" text-anchor="end">3%</text>
<line x1="70" y1="44.0" x2="880" y2="44.0" stroke="#e5e5e5"/>
<text x="64" y="48.0" font-size="11" fill="#666" text-anchor="end">4%</text>
<text x="70.0" y="342" font-size="11" fill="#666" text-anchor="start">07-16 16:02</text>
<text x="482.6" y="342" font-size="11" fill="#666" text-anchor="middle">07-17 19:01</text>
<text x="880.0" y="342" font-size="11" fill="#666" text-anchor="end">07-18 08:44</text>
<polyline points="70.0,64.7 85.3,64.7 100.6,64.7 115.8,64.7 131.1,64.7 146.4,64.7 177.0,64.7 192.3,64.7 207.5,64.7 268.7,64.7 284.0,64.7 299.2,64.7 314.5,64.7 329.8,64.7 345.1,64.7 360.4,64.7 375.7,64.7 390.9,64.7 406.2,64.7 421.5,64.7 436.8,64.7 452.1,64.7 467.4,64.7 482.6,64.7 497.9,64.7 513.2,64.7 559.1,64.7 574.3,64.7 589.6,64.7 604.9,64.7 620.2,64.7 635.5,64.7 650.8,64.7 666.0,64.7 681.3,64.7 696.6,64.7 711.9,64.7 727.2,64.7 742.5,64.7 757.7,64.7 773.0,64.7 788.3,64.7 803.6,64.7 818.9,64.7 834.2,64.7 849.4,64.7 864.7,64.7 880.0,64.7" fill="none" stroke="#d62728" stroke-width="2"/>
<circle cx="70.0" cy="64.7" r="3" fill="#d62728"/>
<circle cx="85.3" cy="64.7" r="3" fill="#d62728"/>
<circle cx="100.6" cy="64.7" r="3" fill="#d62728"/>
<circle cx="115.8" cy="64.7" r="3" fill="#d62728"/>
<circle cx="131.1" cy="64.7" r="3" fill="#d62728"/>
<circle cx="146.4" cy="64.7" r="3" fill="#d62728"/>
<circle cx="177.0" cy="64.7" r="3" fill="#d62728"/>
<circle cx="192.3" cy="64.7" r="3" fill="#d62728"/>
<circle cx="207.5" cy="64.7" r="3" fill="#d62728"/>
<circle cx="268.7" cy="64.7" r="3" fill="#d62728"/>
<circle cx="284.0" cy="64.7" r="3" fill="#d62728"/>
<circle cx="299.2" cy="64.7" r="3" fill="#d62728"/>
<circle cx="314.5" cy="64.7" r="3" fill="#d62728"/>
<circle cx="329.8" cy="64.7" r="3" fill="#d62728"/>
<circle cx="345.1" cy="64.7" r="3" fill="#d62728"/>
<circle cx="360.4" cy="64.7" r="3" fill="#d62728"/>
<circle cx="375.7" cy="64.7" r="3" fill="#d62728"/>
<circle cx="390.9" cy="64.7" r="3" fill="#d62728"/>
<circle cx="406.2" cy="64.7" r="3" fill="#d62728"/>
<circle cx="421.5" cy="64.7" r="3" fill="#d62728"/>
<circle cx="436.8" cy="64.7" r="3" fill="#d62728"/>
<circle cx="452.1" cy="64.7" r="3" fill="#d62728"/>
<circle cx="467.4" cy="64.7" r="3" fill="#d62728"/>
<circle cx="482.6" cy="64.7" r="3" fill="#d62728"/>
<circle cx="497.9" cy="64.7" r="3" fill="#d62728"/>
<circle cx="513.2" cy="64.7" r="3" fill="#d62728"/>
<circle cx="559.1" cy="64.7" r="3" fill="#d62728"/>
<circle cx="574.3" cy="64.7" r="3" fill="#d62728"/>
<circle cx="589.6" cy="64.7" r="3" fill="#d62728"/>
<circle cx="604.9" cy="64.7" r="3" fill="#d62728"/>
<circle cx="620.2" cy="64.7" r="3" fill="#d62728"/>
<circle cx="635.5" cy="64.7" r="3" fill="#d62728"/>
<circle cx="650.8" cy="64.7" r="3" fill="#d62728"/>
<circle cx="666.0" cy="64.7" r="3" fill="#d62728"/>
<circle cx="681.3" cy="64.7" r="3" fill="#d62728"/>
<circle cx="696.6" cy="64.7" r="3" fill="#d62728"/>
<circle cx="711.9" cy="64.7" r="3" fill="#d62728"/>
<circle cx="727.2" cy="64.7" r="3" fill="#d62728"/>
<circle cx="742.5" cy="64.7" r="3" fill="#d62728"/>
<circle cx="757.7" cy="64.7" r="3" fill="#d62728"/>
<circle cx="773.0" cy="64.7" r="3" fill="#d62728"/>
<circle cx="788.3" cy="64.7" r="3" fill="#d62728"/>
<circle cx="803.6" cy="64.7" r="3" fill="#d62728"/>
<circle cx="818.9" cy="64.7" r="3" fill="#d62728"/>
<circle cx="834.2" cy="64.7" r="3" fill="#d62728"/>
<circle cx="849.4" cy="64.7" r="3" fill="#d62728"/>
<circle cx="864.7" cy="64.7" r="3" fill="#d62728"/>
<circle cx="880.0" cy="64.7" r="3" fill="#d62728"/>
<rect x="70.0" y="358" width="10" height="10" fill="#d62728"/>
<text x="84.0" y="367" font-size="11" fill="#333">WER</text>
</svg>
