<svg xmlns="http://www.w3.org/2000/svg" width="900" height="380" viewBox="0 0 900 380" font-family="sans-serif">
<rect width="900" height="380" fill="white"/>
<text x="70" y="24" font-size="16" fill="#333">STT word error rate (%) — lower is better</text>
<line x1="70" y1="324.0" x2="880" y2="324.0" stroke="#e5e5e5"/>
<text x="64" y="328.0" font-size="11" fill="#666" text-anchor="end">0%</text>
<line x1="70" y1="268.0" x2="880" y2="268.0" stroke="#e5e5e5"/>
<text x="64" y="272.0" font-size="11" fill="#666" text-anchor="end">1%</text>
<line x1="70" y1="212.0" x2="880" y2="212.0" stroke="#e5e5e5"/>
<text x="64" y="216.0" font-size="11" fill="#666" text-anchor="end">2%</text>
<line x1="70" y1="156.0" x2="880" y2="156.0" stroke="#e5e5e5"/>
<text x="64" y="160.0" font-size="11" fill="#666" text-anchor="end">2%</text>
<line x1="70" y1="100.0" x2="880" y2="100.0" stroke="#e5e5e5"/>
<text x="64" y="104.0" font-size="11" fill="#666" text-anchor="end">3%</text>
<line x1="70" y1="44.0" x2="880" y2="44.0" stroke="#e5e5e5"/>
<text x="64" y="48.0" font-size="11" fill="#666" text-anchor="end">4%</text>
<text x="70.0" y="342" font-size="11" fill="#666" text-anchor="start">07-16 16:02</text>
<text x="484.9" y="342" font-size="11" fill="#666" text-anchor="middle">07-17 15:18</text>
<text x="880.0" y="342" font-size="11" fill="#666" text-anchor="end">07-17 20:50</text>
<polyline points="70.0,64.7 89.8,64.7 109.5,64.7 129.3,64.7 149.0,64.7 168.8,64.7 208.3,64.7 228.0,64.7 247.8,64.7 326.8,64.7 346.6,64.7 366.3,64.7 386.1,64.7 405.9,64.7 425.6,64.7 445.4,64.7 465.1,64.7 484.9,64.7 504.6,64.7 524.4,64.7 544.1,64.7 563.9,64.7 583.7,64.7 603.4,64.7 623.2,64.7 642.9,64.7 702.2,64.7 722.0,64.7 741.7,64.7 761.5,64.7 781.2,64.7 801.0,64.7 820.7,64.7 840.5,64.7 860.2,64.7 880.0,64.7" fill="none" stroke="#d62728" stroke-width="2"/>
<circle cx="70.0" cy="64.7" r="3" fill="#d62728"/>
<circle cx="89.8" cy="64.7" r="3" fill="#d62728"/>
<circle cx="109.5" cy="64.7" r="3" fill="#d62728"/>
<circle cx="129.3" cy="64.7" r="3" fill="#d62728"/>
<circle cx="149.0" cy="64.7" r="3" fill="#d62728"/>
<circle cx="168.8" cy="64.7" r="3" fill="#d62728"/>
<circle cx="208.3" cy="64.7" r="3" fill="#d62728"/>
<circle cx="228.0" cy="64.7" r="3" fill="#d62728"/>
<circle cx="247.8" cy="64.7" r="3" fill="#d62728"/>
<circle cx="326.8" cy="64.7" r="3" fill="#d62728"/>
<circle cx="346.6" cy="64.7" r="3" fill="#d62728"/>
<circle cx="366.3" cy="64.7" r="3" fill="#d62728"/>
<circle cx="386.1" cy="64.7" r="3" fill="#d62728"/>
<circle cx="405.9" cy="64.7" r="3" fill="#d62728"/>
<circle cx="425.6" cy="64.7" r="3" fill="#d62728"/>
<circle cx="445.4" cy="64.7" r="3" fill="#d62728"/>
<circle cx="465.1" cy="64.7" r="3" fill="#d62728"/>
<circle cx="484.9" cy="64.7" r="3" fill="#d62728"/>
<circle cx="504.6" cy="64.7" r="3" fill="#d62728"/>
<circle cx="524.4" cy="64.7" r="3" fill="#d62728"/>
<circle cx="544.1" cy="64.7" r="3" fill="#d62728"/>
<circle cx="563.9" cy="64.7" r="3" fill="#d62728"/>
<circle cx="583.7" cy="64.7" r="3" fill="#d62728"/>
<circle cx="603.4" cy="64.7" r="3" fill="#d62728"/>
<circle cx="623.2" cy="64.7" r="3" fill="#d62728"/>
<circle cx="642.9" cy="64.7" r="3" fill="#d62728"/>
<circle cx="702.2" cy="64.7" r="3" fill="#d62728"/>
<circle cx="722.0" cy="64.7" r="3" fill="#d62728"/>
<circle cx="741.7" cy="64.7" r="3" fill="#d62728"/>
<circle cx="761.5" cy="64.7" r="3" fill="#d62728"/>
<circle cx="781.2" cy="64.7" r="3" fill="#d62728"/>
<circle cx="801.0" cy="64.7" r="3" fill="#d62728"/>
<circle cx="820.7" cy="64.7" r="3" fill="#d62728"/>
<circle cx="840.5" cy="64.7" r="3" fill="#d62728"/>
<circle cx="860.2" cy="64.7" r="3" fill="#d62728"/>
<circle cx="880.0" cy="64.7" r="3" fill="#d62728"/>
<rect x="70.0" y="358" width="10" height="10" fill="#d62728"/>
<text x="84.0" y="367" font-size="11" fill="#333">WER</text>
</svg>
