<svg xmlns="http://www.w3.org/2000/svg" width="900" height="380" viewBox="0 0 900 380" font-family="sans-serif">
<rect width="900" height="380" fill="white"/>
<text x="70" y="24" font-size="16" fill="#333">STT word error rate (%) — lower is better</text>
<line x1="70" y1="324.0" x2="880" y2="324.0" stroke="#e5e5e5"/>
<text x="64" y="328.0" font-size="11" fill="#666" text-anchor="end">0%</text>
<line x1="70" y1="268.0" x2="880" y2="268.0" stroke="#e5e5e5"/>
<text x="64" y="272.0" font-size="11" fill="#666" text-anchor="end">1%</text>
<line x1="70" y1="212.0" x2="880" y2="212.0" stroke="#e5e5e5"/>
<text x="64" y="216.0" font-size="11" fill="#666" text-anchor="end">2%</text>
<line x1="70" y1="156.0" x2="880" y2="156.0" stroke="#e5e5e5"/>
<text x="64" y="160.0" font-size="11" fill="#666" text-anchor="end">2%</text>
<line x1="70" y1="100.0" x2="880" y2="100.0" stroke="#e5e5e5"/>
<text x="64" y="104.0" font-size="11" fill="#666" text-anchor="end">3%</text>
<line x1="70" y1="44.0" x2="880" y2="44.0" stroke="#e5e5e5"/>
<text x="64" y="48.0" font-size="11" fill="#666" text-anchor="end">4%</text>
<text x="70.0" y="342" font-size="11" fill="#666" text-anchor="start">07-16 16:02</text>
<text x="475.0" y="342" font-size="11" fill="#666" text-anchor="middle">07-17 16:30</text>
<text x="880.0" y="342" font-size="11" fill="#666" text-anchor="end">07-17 22:11</text>
<polyline points="70.0,64.7 87.6,64.7 105.2,64.7 122.8,64.7 140.4,64.7 158.0,64.7 193.3,64.7 210.9,64.7 228.5,64.7 298.9,64.7 316.5,64.7 334.1,64.7 351.7,64.7 369.3,64.7 387.0,64.7 404.6,64.7 422.2,64.7 439.8,64.7 457.4,64.7 475.0,64.7 492.6,64.7 510.2,64.7 527.8,64.7 545.4,64.7 563.0,64.7 580.7,64.7 633.5,64.7 651.1,64.7 668.7,64.7 686.3,64.7 703.9,64.7 721.5,64.7 739.1,64.7 756.7,64.7 774.3,64.7 792.0,64.7 809.6,64.7 827.2,64.7 844.8,64.7 862.4,64.7 880.0,64.7" fill="none" stroke="#d62728" stroke-width="2"/>
<circle cx="70.0" cy="64.7" r="3" fill="#d62728"/>
<circle cx="87.6" cy="64.7" r="3" fill="#d62728"/>
<circle cx="105.2" cy="64.7" r="3" fill="#d62728"/>
<circle cx="122.8" cy="64.7" r="3" fill="#d62728"/>
<circle cx="140.4" cy="64.7" r="3" fill="#d62728"/>
<circle cx="158.0" cy="64.7" r="3" fill="#d62728"/>
<circle cx="193.3" cy="64.7" r="3" fill="#d62728"/>
<circle cx="210.9" cy="64.7" r="3" fill="#d62728"/>
<circle cx="228.5" cy="64.7" r="3" fill="#d62728"/>
<circle cx="298.9" cy="64.7" r="3" fill="#d62728"/>
<circle cx="316.5" cy="64.7" r="3" fill="#d62728"/>
<circle cx="334.1" cy="64.7" r="3" fill="#d62728"/>
<circle cx="351.7" cy="64.7" r="3" fill="#d62728"/>
<circle cx="369.3" cy="64.7" r="3" fill="#d62728"/>
<circle cx="387.0" cy="64.7" r="3" fill="#d62728"/>
<circle cx="404.6" cy="64.7" r="3" fill="#d62728"/>
<circle cx="422.2" cy="64.7" r="3" fill="#d62728"/>
<circle cx="439.8" cy="64.7" r="3" fill="#d62728"/>
<circle cx="457.4" cy="64.7" r="3" fill="#d62728"/>
<circle cx="475.0" cy="64.7" r="3" fill="#d62728"/>
<circle cx="492.6" cy="64.7" r="3" fill="#d62728"/>
<circle cx="510.2" cy="64.7" r="3" fill="#d62728"/>
<circle cx="527.8" cy="64.7" r="3" fill="#d62728"/>
<circle cx="545.4" cy="64.7" r="3" fill="#d62728"/>
<circle cx="563.0" cy="64.7" r="3" fill="#d62728"/>
<circle cx="580.7" cy="64.7" r="3" fill="#d62728"/>
<circle cx="633.5" cy="64.7" r="3" fill="#d62728"/>
<circle cx="651.1" cy="64.7" r="3" fill="#d62728"/>
<circle cx="668.7" cy="64.7" r="3" fill="#d62728"/>
<circle cx="686.3" cy="64.7" r="3" fill="#d62728"/>
<circle cx="703.9" cy="64.7" r="3" fill="#d62728"/>
<circle cx="721.5" cy="64.7" r="3" fill="#d62728"/>
<circle cx="739.1" cy="64.7" r="3" fill="#d62728"/>
<circle cx="756.7" cy="64.7" r="3" fill="#d62728"/>
<circle cx="774.3" cy="64.7" r="3" fill="#d62728"/>
<circle cx="792.0" cy="64.7" r="3" fill="#d62728"/>
<circle cx="809.6" cy="64.7" r="3" fill="#d62728"/>
<circle cx="827.2" cy="64.7" r="3" fill="#d62728"/>
<circle cx="844.8" cy="64.7" r="3" fill="#d62728"/>
<circle cx="862.4" cy="64.7" r="3" fill="#d62728"/>
<circle cx="880.0" cy="64.7" r="3" fill="#d62728"/>
<rect x="70.0" y="358" width="10" height="10" fill="#d62728"/>
<text x="84.0" y="367" font-size="11" fill="#333">WER</text>
</svg>
