<svg xmlns="http://www.w3.org/2000/svg" width="900" height="380" viewBox="0 0 900 380" font-family="sans-serif">
<rect width="900" height="380" fill="white"/>
<text x="70" y="24" font-size="16" fill="#333">STT word error rate (%) — lower is better</text>
<line x1="70" y1="324.0" x2="880" y2="324.0" stroke="#e5e5e5"/>
<text x="64" y="328.0" font-size="11" fill="#666" text-anchor="end">0%</text>
<line x1="70" y1="268.0" x2="880" y2="268.0" stroke="#e5e5e5"/>
<text x="64" y="272.0" font-size="11" fill="#666" text-anchor="end">1%</text>
<line x1="70" y1="212.0" x2="880" y2="212.0" stroke="#e5e5e5"/>
<text x="64" y="216.0" font-size="11" fill="#666" text-anchor="end">2%</text>
<line x1="70" y1="156.0" x2="880" y2="156.0" stroke="#e5e5e5"/>
<text x="64" y="160.0" font-size="11" fill="#666" text-anchor="end">2%</text>
<line x1="70" y1="100.0" x2="880" y2="100.0" stroke="#e5e5e5"/>
<text x="64" y="104.0" font-size="11" fill="#666" text-anchor="end">3%</text>
<line x1="70" y1="44.0" x2="880" y2="44.0" stroke="#e5e5e5"/>
<text x="64" y="48.0" font-size="11" fill="#666" text-anchor="end">4%</text>
<text x="70.0" y="342" font-size="11" fill="#666" text-anchor="start">07-16 16:02</text>
<text x="483.3" y="342" font-size="11" fill="#666" text-anchor="middle">07-17 16:41</text>
<text x="880.0" y="342" font-size="11" fill="#666" text-anchor="end">07-17 22:45</text>
<polyline points="70.0,64.7 86.5,64.7 103.1,64.7 119.6,64.7 136.1,64.7 152.7,64.7 185.7,64.7 202.2,64.7 218.8,64.7 284.9,64.7 301.4,64.7 318.0,64.7 334.5,64.7 351.0,64.7 367.6,64.7 384.1,64.7 400.6,64.7 417.1,64.7 433.7,64.7 450.2,64.7 466.7,64.7 483.3,64.7 499.8,64.7 516.3,64.7 532.9,64.7 549.4,64.7 599.0,64.7 615.5,64.7 632.0,64.7 648.6,64.7 665.1,64.7 681.6,64.7 698.2,64.7 714.7,64.7 731.2,64.7 747.8,64.7 764.3,64.7 780.8,64.7 797.3,64.7 813.9,64.7 830.4,64.7 846.9,64.7 863.5,64.7 880.0,64.7" fill="none" stroke="#d62728" stroke-width="2"/>
<circle cx="70.0" cy="64.7" r="3" fill="#d62728"/>
<circle cx="86.5" cy="64.7" r="3" fill="#d62728"/>
<circle cx="103.1" cy="64.7" r="3" fill="#d62728"/>
<circle cx="119.6" cy="64.7" r="3" fill="#d62728"/>
<circle cx="136.1" cy="64.7" r="3" fill="#d62728"/>
<circle cx="152.7" cy="64.7" r="3" fill="#d62728"/>
<circle cx="185.7" cy="64.7" r="3" fill="#d62728"/>
<circle cx="202.2" cy="64.7" r="3" fill="#d62728"/>
<circle cx="218.8" cy="64.7" r="3" fill="#d62728"/>
<circle cx="284.9" cy="64.7" r="3" fill="#d62728"/>
<circle cx="301.4" cy="64.7" r="3" fill="#d62728"/>
<circle cx="318.0" cy="64.7" r="3" fill="#d62728"/>
<circle cx="334.5" cy="64.7" r="3" fill="#d62728"/>
<circle cx="351.0" cy="64.7" r="3" fill="#d62728"/>
<circle cx="367.6" cy="64.7" r="3" fill="#d62728"/>
<circle cx="384.1" cy="64.7" r="3" fill="#d62728"/>
<circle cx="400.6" cy="64.7" r="3" fill="#d62728"/>
<circle cx="417.1" cy="64.7" r="3" fill="#d62728"/>
<circle cx="433.7" cy="64.7" r="3" fill="#d62728"/>
<circle cx="450.2" cy="64.7" r="3" fill="#d62728"/>
<circle cx="466.7" cy="64.7" r="3" fill="#d62728"/>
<circle cx="483.3" cy="64.7" r="3" fill="#d62728"/>
<circle cx="499.8" cy="64.7" r="3" fill="#d62728"/>
<circle cx="516.3" cy="64.7" r="3" fill="#d62728"/>
<circle cx="532.9" cy="64.7" r="3" fill="#d62728"/>
<circle cx="549.4" cy="64.7" r="3" fill="#d62728"/>
<circle cx="599.0" cy="64.7" r="3" fill="#d62728"/>
<circle cx="615.5" cy="64.7" r="3" fill="#d62728"/>
<circle cx="632.0" cy="64.7" r="3" fill="#d62728"/>
<circle cx="648.6" cy="64.7" r="3" fill="#d62728"/>
<circle cx="665.1" cy="64.7" r="3" fill="#d62728"/>
<circle cx="681.6" cy="64.7" r="3" fill="#d62728"/>
<circle cx="698.2" cy="64.7" r="3" fill="#d62728"/>
<circle cx="714.7" cy="64.7" r="3" fill="#d62728"/>
<circle cx="731.2" cy="64.7" r="3" fill="#d62728"/>
<circle cx="747.8" cy="64.7" r="3" fill="#d62728"/>
<circle cx="764.3" cy="64.7" r="3" fill="#d62728"/>
<circle cx="780.8" cy="64.7" r="3" fill="#d62728"/>
<circle cx="797.3" cy="64.7" r="3" fill="#d62728"/>
<circle cx="813.9" cy="64.7" r="3" fill="#d62728"/>
<circle cx="830.4" cy="64.7" r="3" fill="#d62728"/>
<circle cx="846.9" cy="64.7" r="3" fill="#d62728"/>
<circle cx="863.5" cy="64.7" r="3" fill="#d62728"/>
<circle cx="880.0" cy="64.7" r="3" fill="#d62728"/>
<rect x="70.0" y="358" width="10" height="10" fill="#d62728"/>
<text x="84.0" y="367" font-size="11" fill="#333">WER</text>
</svg>
