<svg xmlns="http://www.w3.org/2000/svg" width="900" height="380" viewBox="0 0 900 380" font-family="sans-serif">
<rect width="900" height="380" fill="white"/>
<text x="70" y="24" font-size="16" fill="#333">STT word error rate (%) — lower is better</text>
<line x1="70" y1="324.0" x2="880" y2="324.0" stroke="#e5e5e5"/>
<text x="64" y="328.0" font-size="11" fill="#666" text-anchor="end">0%</text>
<line x1="70" y1="268.0" x2="880" y2="268.0" stroke="#e5e5e5"/>
<text x="64" y="272.0" font-size="11" fill="#666" text-anchor="end">1%</text>
<line x1="70" y1="212.0" x2="880" y2="212.0" stroke="#e5e5e5"/>
<text x="64" y="216.0" font-size="11" fill="#666" text-anchor="end">2%</text>
<line x1="70" y1="156.0" x2="880" y2="156.0" stroke="#e5e5e5"/>
<text x="64" y="160.0" font-size="11" fill="#666" text-anchor="end">2%</text>
<line x1="70" y1="100.0" x2="880" y2="100.0" stroke="#e5e5e5"/>
<text x="64" y="104.0" font-size="11" fill="#666" text-anchor="end">3%</text>
<line x1="70" y1="44.0" x2="880" y2="44.0" stroke="#e5e5e5"/>
<text x="64" y="48.0" font-size="11" fill="#666" text-anchor="end">4%</text>
<text x="70.0" y="342" font-size="11" fill="#666" text-anchor="start">07-16 16:02</text>
<text x="488.1" y="342" font-size="11" fill="#666" text-anchor="middle">07-17 14:10</text>
<text x="880.0" y="342" font-size="11" fill="#666" text-anchor="end">07-17 19:46</text>
<polyline points="70.0,64.7 96.1,64.7 122.3,64.7 148.4,64.7 174.5,64.7 200.6,64.7 252.9,64.7 279.0,64.7 305.2,64.7 409.7,64.7 435.8,64.7 461.9,64.7 488.1,64.7 514.2,64.7 540.3,64.7 566.5,64.7 592.6,64.7 618.7,64.7 644.8,64.7 671.0,64.7 697.1,64.7 723.2,64.7 749.4,64.7 775.5,64.7 801.6,64.7 827.7,64.7" fill="none" stroke="#d62728" stroke-width="2"/>
<circle cx="70.0" cy="64.7" r="3" fill="#d62728"/>
<circle cx="96.1" cy="64.7" r="3" fill="#d62728"/>
<circle cx="122.3" cy="64.7" r="3" fill="#d62728"/>
<circle cx="148.4" cy="64.7" r="3" fill="#d62728"/>
<circle cx="174.5" cy="64.7" r="3" fill="#d62728"/>
<circle cx="200.6" cy="64.7" r="3" fill="#d62728"/>
<circle cx="252.9" cy="64.7" r="3" fill="#d62728"/>
<circle cx="279.0" cy="64.7" r="3" fill="#d62728"/>
<circle cx="305.2" cy="64.7" r="3" fill="#d62728"/>
<circle cx="409.7" cy="64.7" r="3" fill="#d62728"/>
<circle cx="435.8" cy="64.7" r="3" fill="#d62728"/>
<circle cx="461.9" cy="64.7" r="3" fill="#d62728"/>
<circle cx="488.1" cy="64.7" r="3" fill="#d62728"/>
<circle cx="514.2" cy="64.7" r="3" fill="#d62728"/>
<circle cx="540.3" cy="64.7" r="3" fill="#d62728"/>
<circle cx="566.5" cy="64.7" r="3" fill="#d62728"/>
<circle cx="592.6" cy="64.7" r="3" fill="#d62728"/>
<circle cx="618.7" cy="64.7" r="3" fill="#d62728"/>
<circle cx="644.8" cy="64.7" r="3" fill="#d62728"/>
<circle cx="671.0" cy="64.7" r="3" fill="#d62728"/>
<circle cx="697.1" cy="64.7" r="3" fill="#d62728"/>
<circle cx="723.2" cy="64.7" r="3" fill="#d62728"/>
<circle cx="749.4" cy="64.7" r="3" fill="#d62728"/>
<circle cx="775.5" cy="64.7" r="3" fill="#d62728"/>
<circle cx="801.6" cy="64.7" r="3" fill="#d62728"/>
<circle cx="827.7" cy="64.7" r="3" fill="#d62728"/>
<rect x="70.0" y="358" width="10" height="10" fill="#d62728"/>
<text x="84.0" y="367" font-size="11" fill="#333">WER</text>
</svg>
