<svg xmlns="http://www.w3.org/2000/svg" width="900" height="380" viewBox="0 0 900 380" font-family="sans-serif">
<rect width="900" height="380" fill="white"/>
<text x="70" y="24" font-size="16" fill="#333">STT word error rate (%) — lower is better</text>
<line x1="70" y1="324.0" x2="880" y2="324.0" stroke="#e5e5e5"/>
<text x="64" y="328.0" font-size="11" fill="#666" text-anchor="end">0%</text>
<line x1="70" y1="268.0" x2="880" y2="268.0" stroke="#e5e5e5"/>
<text x="64" y="272.0" font-size="11" fill="#666" text-anchor="end">1%</text>
<line x1="70" y1="212.0" x2="880" y2="212.0" stroke="#e5e5e5"/>
<text x="64" y="216.0" font-size="11" fill="#666" text-anchor="end">2%</text>
<line x1="70" y1="156.0" x2="880" y2="156.0" stroke="#e5e5e5"/>
<text x="64" y="160.0" font-size="11" fill="#666" text-anchor="end">2%</text>
<line x1="70" y1="100.0" x2="880" y2="100.0" stroke="#e5e5e5"/>
<text x="64" y="104.0" font-size="11" fill="#666" text-anchor="end">3%</text>
<line x1="70" y1="44.0" x2="880" y2="44.0" stroke="#e5e5e5"/>
<text x="64" y="48.0" font-size="11" fill="#666" text-anchor="end">4%</text>
<text x="70.0" y="342" font-size="11" fill="#666" text-anchor="start">07-16 16:02</text>
<text x="481.9" y="342" font-size="11" fill="#666" text-anchor="middle">07-17 19:42</text>
<text x="880.0" y="342" font-size="11" fill="#666" text-anchor="end">07-20 06:28</text>
<polyline points="70.0,64.7 83.7,64.7 97.5,64.7 111.2,64.7 124.9,64.7 138.6,64.7 166.1,64.7 179.8,64.7 193.6,64.7 248.5,64.7 262.2,64.7 275.9,64.7 289.7,64.7 303.4,64.7 317.1,64.7 330.8,64.7 344.6,64.7 358.3,64.7 372.0,64.7 385.8,64.7 399.5,64.7 413.2,64.7 426.9,64.7 440.7,64.7 454.4,64.7 468.1,64.7 509.3,64.7 523.1,64.7 536.8,64.7 550.5,64.7 564.2,64.7 578.0,64.7 591.7,64.7 605.4,64.7 619.2,64.7 632.9,64.7 646.6,64.7 660.3,64.7 674.1,64.7 687.8,64.7 701.5,64.7 715.3,64.7 729.0,64.7 742.7,64.7 756.4,64.7 770.2,64.7 783.9,64.7 797.6,64.7 811.4,64.7 825.1,64.7 838.8,64.7 852.5,64.7 866.3,64.7 880.0,64.7" fill="none" stroke="#d62728" stroke-width="2"/>
<circle cx="70.0" cy="64.7" r="3" fill="#d62728"/>
<circle cx="83.7" cy="64.7" r="3" fill="#d62728"/>
<circle cx="97.5" cy="64.7" r="3" fill="#d62728"/>
<circle cx="111.2" cy="64.7" r="3" fill="#d62728"/>
<circle cx="124.9" cy="64.7" r="3" fill="#d62728"/>
<circle cx="138.6" cy="64.7" r="3" fill="#d62728"/>
<circle cx="166.1" cy="64.7" r="3" fill="#d62728"/>
<circle cx="179.8" cy="64.7" r="3" fill="#d62728"/>
<circle cx="193.6" cy="64.7" r="3" fill="#d62728"/>
<circle cx="248.5" cy="64.7" r="3" fill="#d62728"/>
<circle cx="262.2" cy="64.7" r="3" fill="#d62728"/>
<circle cx="275.9" cy="64.7" r="3" fill="#d62728"/>
<circle cx="289.7" cy="64.7" r="3" fill="#d62728"/>
<circle cx="303.4" cy="64.7" r="3" fill="#d62728"/>
<circle cx="317.1" cy="64.7" r="3" fill="#d62728"/>
<circle cx="330.8" cy="64.7" r="3" fill="#d62728"/>
<circle cx="344.6" cy="64.7" r="3" fill="#d62728"/>
<circle cx="358.3" cy="64.7" r="3" fill="#d62728"/>
<circle cx="372.0" cy="64.7" r="3" fill="#d62728"/>
<circle cx="385.8" cy="64.7" r="3" fill="#d62728"/>
<circle cx="399.5" cy="64.7" r="3" fill="#d62728"/>
<circle cx="413.2" cy="64.7" r="3" fill="#d62728"/>
<circle cx="426.9" cy="64.7" r="3" fill="#d62728"/>
<circle cx="440.7" cy="64.7" r="3" fill="#d62728"/>
<circle cx="454.4" cy="64.7" r="3" fill="#d62728"/>
<circle cx="468.1" cy="64.7" r="3" fill="#d62728"/>
<circle cx="509.3" cy="64.7" r="3" fill="#d62728"/>
<circle cx="523.1" cy="64.7" r="3" fill="#d62728"/>
<circle cx="536.8" cy="64.7" r="3" fill="#d62728"/>
<circle cx="550.5" cy="64.7" r="3" fill="#d62728"/>
<circle cx="564.2" cy="64.7" r="3" fill="#d62728"/>
<circle cx="578.0" cy="64.7" r="3" fill="#d62728"/>
<circle cx="591.7" cy="64.7" r="3" fill="#d62728"/>
<circle cx="605.4" cy="64.7" r="3" fill="#d62728"/>
<circle cx="619.2" cy="64.7" r="3" fill="#d62728"/>
<circle cx="632.9" cy="64.7" r="3" fill="#d62728"/>
<circle cx="646.6" cy="64.7" r="3" fill="#d62728"/>
<circle cx="660.3" cy="64.7" r="3" fill="#d62728"/>
<circle cx="674.1" cy="64.7" r="3" fill="#d62728"/>
<circle cx="687.8" cy="64.7" r="3" fill="#d62728"/>
<circle cx="701.5" cy="64.7" r="3" fill="#d62728"/>
<circle cx="715.3" cy="64.7" r="3" fill="#d62728"/>
<circle cx="729.0" cy="64.7" r="3" fill="#d62728"/>
<circle cx="742.7" cy="64.7" r="3" fill="#d62728"/>
<circle cx="756.4" cy="64.7" r="3" fill="#d62728"/>
<circle cx="770.2" cy="64.7" r="3" fill="#d62728"/>
<circle cx="783.9" cy="64.7" r="3" fill="#d62728"/>
<circle cx="797.6" cy="64.7" r="3" fill="#d62728"/>
<circle cx="811.4" cy="64.7" r="3" fill="#d62728"/>
<circle cx="825.1" cy="64.7" r="3" fill="#d62728"/>
<circle cx="838.8" cy="64.7" r="3" fill="#d62728"/>
<circle cx="852.5" cy="64.7" r="3" fill="#d62728"/>
<circle cx="866.3" cy="64.7" r="3" fill="#d62728"/>
<circle cx="880.0" cy="64.7" r="3" fill="#d62728"/>
<rect x="70.0" y="358" width="10" height="10" fill="#d62728"/>
<text x="84.0" y="367" font-size="11" fill="#333">WER</text>
</svg>
