<svg xmlns="http://www.w3.org/2000/svg" width="900" height="380" viewBox="0 0 900 380" font-family="sans-serif">
<rect width="900" height="380" fill="white"/>
<text x="70" y="24" font-size="16" fill="#333">STT word error rate (%) — lower is better</text>
<line x1="70" y1="324.0" x2="880" y2="324.0" stroke="#e5e5e5"/>
<text x="64" y="328.0" font-size="11" fill="#666" text-anchor="end">0%</text>
<line x1="70" y1="268.0" x2="880" y2="268.0" stroke="#e5e5e5"/>
<text x="64" y="272.0" font-size="11" fill="#666" text-anchor="end">1%</text>
<line x1="70" y1="212.0" x2="880" y2="212.0" stroke="#e5e5e5"/>
<text x="64" y="216.0" font-size="11" fill="#666" text-anchor="end">2%</text>
<line x1="70" y1="156.0" x2="880" y2="156.0" stroke="#e5e5e5"/>
<text x="64" y="160.0" font-size="11" fill="#666" text-anchor="end">2%</text>
<line x1="70" y1="100.0" x2="880" y2="100.0" stroke="#e5e5e5"/>
<text x="64" y="104.0" font-size="11" fill="#666" text-anchor="end">3%</text>
<line x1="70" y1="44.0" x2="880" y2="44.0" stroke="#e5e5e5"/>
<text x="64" y="48.0" font-size="11" fill="#666" text-anchor="end">4%</text>
<text x="70.0" y="342" font-size="11" fill="#666" text-anchor="start">07-16 16:02</text>
<text x="475.0" y="342" font-size="11" fill="#666" text-anchor="middle">07-17 15:23</text>
<text x="880.0" y="342" font-size="11" fill="#666" text-anchor="end">07-17 22:02</text>
<polyline points="70.0,64.7 88.4,64.7 106.8,64.7 125.2,64.7 143.6,64.7 162.0,64.7 198.9,64.7 217.3,64.7 235.7,64.7 309.3,64.7 327.7,64.7 346.1,64.7 364.5,64.7 383.0,64.7 401.4,64.7 419.8,64.7 438.2,64.7 456.6,64.7 475.0,64.7 493.4,64.7 511.8,64.7 530.2,64.7 548.6,64.7 567.0,64.7 585.5,64.7 603.9,64.7 659.1,64.7 677.5,64.7 695.9,64.7 714.3,64.7 732.7,64.7 751.1,64.7 769.5,64.7 788.0,64.7 806.4,64.7 824.8,64.7 843.2,64.7 861.6,64.7 880.0,64.7" fill="none" stroke="#d62728" stroke-width="2"/>
<circle cx="70.0" cy="64.7" r="3" fill="#d62728"/>
<circle cx="88.4" cy="64.7" r="3" fill="#d62728"/>
<circle cx="106.8" cy="64.7" r="3" fill="#d62728"/>
<circle cx="125.2" cy="64.7" r="3" fill="#d62728"/>
<circle cx="143.6" cy="64.7" r="3" fill="#d62728"/>
<circle cx="162.0" cy="64.7" r="3" fill="#d62728"/>
<circle cx="198.9" cy="64.7" r="3" fill="#d62728"/>
<circle cx="217.3" cy="64.7" r="3" fill="#d62728"/>
<circle cx="235.7" cy="64.7" r="3" fill="#d62728"/>
<circle cx="309.3" cy="64.7" r="3" fill="#d62728"/>
<circle cx="327.7" cy="64.7" r="3" fill="#d62728"/>
<circle cx="346.1" cy="64.7" r="3" fill="#d62728"/>
<circle cx="364.5" cy="64.7" r="3" fill="#d62728"/>
<circle cx="383.0" cy="64.7" r="3" fill="#d62728"/>
<circle cx="401.4" cy="64.7" r="3" fill="#d62728"/>
<circle cx="419.8" cy="64.7" r="3" fill="#d62728"/>
<circle cx="438.2" cy="64.7" r="3" fill="#d62728"/>
<circle cx="456.6" cy="64.7" r="3" fill="#d62728"/>
<circle cx="475.0" cy="64.7" r="3" fill="#d62728"/>
<circle cx="493.4" cy="64.7" r="3" fill="#d62728"/>
<circle cx="511.8" cy="64.7" r="3" fill="#d62728"/>
<circle cx="530.2" cy="64.7" r="3" fill="#d62728"/>
<circle cx="548.6" cy="64.7" r="3" fill="#d62728"/>
<circle cx="567.0" cy="64.7" r="3" fill="#d62728"/>
<circle cx="585.5" cy="64.7" r="3" fill="#d62728"/>
<circle cx="603.9" cy="64.7" r="3" fill="#d62728"/>
<circle cx="659.1" cy="64.7" r="3" fill="#d62728"/>
<circle cx="677.5" cy="64.7" r="3" fill="#d62728"/>
<circle cx="695.9" cy="64.7" r="3" fill="#d62728"/>
<circle cx="714.3" cy="64.7" r="3" fill="#d62728"/>
<circle cx="732.7" cy="64.7" r="3" fill="#d62728"/>
<circle cx="751.1" cy="64.7" r="3" fill="#d62728"/>
<circle cx="769.5" cy="64.7" r="3" fill="#d62728"/>
<circle cx="788.0" cy="64.7" r="3" fill="#d62728"/>
<circle cx="806.4" cy="64.7" r="3" fill="#d62728"/>
<circle cx="824.8" cy="64.7" r="3" fill="#d62728"/>
<circle cx="843.2" cy="64.7" r="3" fill="#d62728"/>
<circle cx="861.6" cy="64.7" r="3" fill="#d62728"/>
<circle cx="880.0" cy="64.7" r="3" fill="#d62728"/>
<rect x="70.0" y="358" width="10" height="10" fill="#d62728"/>
<text x="84.0" y="367" font-size="11" fill="#333">WER</text>
</svg>
