<svg xmlns="http://www.w3.org/2000/svg" width="900" height="380" viewBox="0 0 900 380" font-family="sans-serif">
<rect width="900" height="380" fill="white"/>
<text x="70" y="24" font-size="16" fill="#333">STT word error rate (%) — lower is better</text>
<line x1="70" y1="324.0" x2="880" y2="324.0" stroke="#e5e5e5"/>
<text x="64" y="328.0" font-size="11" fill="#666" text-anchor="end">0%</text>
<line x1="70" y1="268.0" x2="880" y2="268.0" stroke="#e5e5e5"/>
<text x="64" y="272.0" font-size="11" fill="#666" text-anchor="end">1%</text>
<line x1="70" y1="212.0" x2="880" y2="212.0" stroke="#e5e5e5"/>
<text x="64" y="216.0" font-size="11" fill="#666" text-anchor="end">2%</text>
<line x1="70" y1="156.0" x2="880" y2="156.0" stroke="#e5e5e5"/>
<text x="64" y="160.0" font-size="11" fill="#666" text-anchor="end">2%</text>
<line x1="70" y1="100.0" x2="880" y2="100.0" stroke="#e5e5e5"/>
<text x="64" y="104.0" font-size="11" fill="#666" text-anchor="end">3%</text>
<line x1="70" y1="44.0" x2="880" y2="44.0" stroke="#e5e5e5"/>
<text x="64" y="48.0" font-size="11" fill="#666" text-anchor="end">4%</text>
<text x="70.0" y="342" font-size="11" fill="#666" text-anchor="start">07-16 16:02</text>
<text x="483.6" y="342" font-size="11" fill="#666" text-anchor="middle">07-17 16:35</text>
<text x="880.0" y="342" font-size="11" fill="#666" text-anchor="end">07-17 22:28</text>
<polyline points="70.0,64.7 87.2,64.7 104.5,64.7 121.7,64.7 138.9,64.7 156.2,64.7 190.6,64.7 207.9,64.7 225.1,64.7 294.0,64.7 311.3,64.7 328.5,64.7 345.7,64.7 363.0,64.7 380.2,64.7 397.4,64.7 414.7,64.7 431.9,64.7 449.1,64.7 466.4,64.7 483.6,64.7 500.9,64.7 518.1,64.7 535.3,64.7 552.6,64.7 569.8,64.7 621.5,64.7 638.7,64.7 656.0,64.7 673.2,64.7 690.4,64.7 707.7,64.7 724.9,64.7 742.1,64.7 759.4,64.7 776.6,64.7 793.8,64.7 811.1,64.7 828.3,64.7 845.5,64.7 862.8,64.7 880.0,64.7" fill="none" stroke="#d62728" stroke-width="2"/>
<circle cx="70.0" cy="64.7" r="3" fill="#d62728"/>
<circle cx="87.2" cy="64.7" r="3" fill="#d62728"/>
<circle cx="104.5" cy="64.7" r="3" fill="#d62728"/>
<circle cx="121.7" cy="64.7" r="3" fill="#d62728"/>
<circle cx="138.9" cy="64.7" r="3" fill="#d62728"/>
<circle cx="156.2" cy="64.7" r="3" fill="#d62728"/>
<circle cx="190.6" cy="64.7" r="3" fill="#d62728"/>
<circle cx="207.9" cy="64.7" r="3" fill="#d62728"/>
<circle cx="225.1" cy="64.7" r="3" fill="#d62728"/>
<circle cx="294.0" cy="64.7" r="3" fill="#d62728"/>
<circle cx="311.3" cy="64.7" r="3" fill="#d62728"/>
<circle cx="328.5" cy="64.7" r="3" fill="#d62728"/>
<circle cx="345.7" cy="64.7" r="3" fill="#d62728"/>
<circle cx="363.0" cy="64.7" r="3" fill="#d62728"/>
<circle cx="380.2" cy="64.7" r="3" fill="#d62728"/>
<circle cx="397.4" cy="64.7" r="3" fill="#d62728"/>
<circle cx="414.7" cy="64.7" r="3" fill="#d62728"/>
<circle cx="431.9" cy="64.7" r="3" fill="#d62728"/>
<circle cx="449.1" cy="64.7" r="3" fill="#d62728"/>
<circle cx="466.4" cy="64.7" r="3" fill="#d62728"/>
<circle cx="483.6" cy="64.7" r="3" fill="#d62728"/>
<circle cx="500.9" cy="64.7" r="3" fill="#d62728"/>
<circle cx="518.1" cy="64.7" r="3" fill="#d62728"/>
<circle cx="535.3" cy="64.7" r="3" fill="#d62728"/>
<circle cx="552.6" cy="64.7" r="3" fill="#d62728"/>
<circle cx="569.8" cy="64.7" r="3" fill="#d62728"/>
<circle cx="621.5" cy="64.7" r="3" fill="#d62728"/>
<circle cx="638.7" cy="64.7" r="3" fill="#d62728"/>
<circle cx="656.0" cy="64.7" r="3" fill="#d62728"/>
<circle cx="673.2" cy="64.7" r="3" fill="#d62728"/>
<circle cx="690.4" cy="64.7" r="3" fill="#d62728"/>
<circle cx="707.7" cy="64.7" r="3" fill="#d62728"/>
<circle cx="724.9" cy="64.7" r="3" fill="#d62728"/>
<circle cx="742.1" cy="64.7" r="3" fill="#d62728"/>
<circle cx="759.4" cy="64.7" r="3" fill="#d62728"/>
<circle cx="776.6" cy="64.7" r="3" fill="#d62728"/>
<circle cx="793.8" cy="64.7" r="3" fill="#d62728"/>
<circle cx="811.1" cy="64.7" r="3" fill="#d62728"/>
<circle cx="828.3" cy="64.7" r="3" fill="#d62728"/>
<circle cx="845.5" cy="64.7" r="3" fill="#d62728"/>
<circle cx="862.8" cy="64.7" r="3" fill="#d62728"/>
<circle cx="880.0" cy="64.7" r="3" fill="#d62728"/>
<rect x="70.0" y="358" width="10" height="10" fill="#d62728"/>
<text x="84.0" y="367" font-size="11" fill="#333">WER</text>
</svg>
