<svg xmlns="http://www.w3.org/2000/svg" width="900" height="380" viewBox="0 0 900 380" font-family="sans-serif">
<rect width="900" height="380" fill="white"/>
<text x="70" y="24" font-size="16" fill="#333">STT word error rate (%) — lower is better</text>
<line x1="70" y1="324.0" x2="880" y2="324.0" stroke="#e5e5e5"/>
<text x="64" y="328.0" font-size="11" fill="#666" text-anchor="end">0%</text>
<line x1="70" y1="268.0" x2="880" y2="268.0" stroke="#e5e5e5"/>
<text x="64" y="272.0" font-size="11" fill="#666" text-anchor="end">1%</text>
<line x1="70" y1="212.0" x2="880" y2="212.0" stroke="#e5e5e5"/>
<text x="64" y="216.0" font-size="11" fill="#666" text-anchor="end">2%</text>
<line x1="70" y1="156.0" x2="880" y2="156.0" stroke="#e5e5e5"/>
<text x="64" y="160.0" font-size="11" fill="#666" text-anchor="end">2%</text>
<line x1="70" y1="100.0" x2="880" y2="100.0" stroke="#e5e5e5"/>
<text x="64" y="104.0" font-size="11" fill="#666" text-anchor="end">3%</text>
<line x1="70" y1="44.0" x2="880" y2="44.0" stroke="#e5e5e5"/>
<text x="64" y="48.0" font-size="11" fill="#666" text-anchor="end">4%</text>
<text x="70.0" y="342" font-size="11" fill="#666" text-anchor="start">07-16 16:02</text>
<text x="475.0" y="342" font-size="11" fill="#666" text-anchor="middle">07-17 05:57</text>
<text x="880.0" y="342" font-size="11" fill="#666" text-anchor="end">07-17 16:35</text>
<polyline points="70.0,64.7 103.8,64.7 137.5,64.7 171.2,64.7 205.0,64.7 238.8,64.7 306.2,64.7 340.0,64.7 373.8,64.7 508.8,64.7 542.5,64.7 576.2,64.7 610.0,64.7 643.8,64.7 677.5,64.7 711.2,64.7 745.0,64.7 778.8,64.7 812.5,64.7 846.2,64.7 880.0,64.7" fill="none" stroke="#d62728" stroke-width="2"/>
<circle cx="70.0" cy="64.7" r="3" fill="#d62728"/>
<circle cx="103.8" cy="64.7" r="3" fill="#d62728"/>
<circle cx="137.5" cy="64.7" r="3" fill="#d62728"/>
<circle cx="171.2" cy="64.7" r="3" fill="#d62728"/>
<circle cx="205.0" cy="64.7" r="3" fill="#d62728"/>
<circle cx="238.8" cy="64.7" r="3" fill="#d62728"/>
<circle cx="306.2" cy="64.7" r="3" fill="#d62728"/>
<circle cx="340.0" cy="64.7" r="3" fill="#d62728"/>
<circle cx="373.8" cy="64.7" r="3" fill="#d62728"/>
<circle cx="508.8" cy="64.7" r="3" fill="#d62728"/>
<circle cx="542.5" cy="64.7" r="3" fill="#d62728"/>
<circle cx="576.2" cy="64.7" r="3" fill="#d62728"/>
<circle cx="610.0" cy="64.7" r="3" fill="#d62728"/>
<circle cx="643.8" cy="64.7" r="3" fill="#d62728"/>
<circle cx="677.5" cy="64.7" r="3" fill="#d62728"/>
<circle cx="711.2" cy="64.7" r="3" fill="#d62728"/>
<circle cx="745.0" cy="64.7" r="3" fill="#d62728"/>
<circle cx="778.8" cy="64.7" r="3" fill="#d62728"/>
<circle cx="812.5" cy="64.7" r="3" fill="#d62728"/>
<circle cx="846.2" cy="64.7" r="3" fill="#d62728"/>
<circle cx="880.0" cy="64.7" r="3" fill="#d62728"/>
<rect x="70.0" y="358" width="10" height="10" fill="#d62728"/>
<text x="84.0" y="367" font-size="11" fill="#333">WER</text>
</svg>
