<svg xmlns="http://www.w3.org/2000/svg" width="900" height="380" viewBox="0 0 900 380" font-family="sans-serif">
<rect width="900" height="380" fill="white"/>
<text x="70" y="24" font-size="16" fill="#333">STT word error rate (%) — lower is better</text>
<line x1="70" y1="324.0" x2="880" y2="324.0" stroke="#e5e5e5"/>
<text x="64" y="328.0" font-size="11" fill="#666" text-anchor="end">0%</text>
<line x1="70" y1="268.0" x2="880" y2="268.0" stroke="#e5e5e5"/>
<text x="64" y="272.0" font-size="11" fill="#666" text-anchor="end">1%</text>
<line x1="70" y1="212.0" x2="880" y2="212.0" stroke="#e5e5e5"/>
<text x="64" y="216.0" font-size="11" fill="#666" text-anchor="end">2%</text>
<line x1="70" y1="156.0" x2="880" y2="156.0" stroke="#e5e5e5"/>
<text x="64" y="160.0" font-size="11" fill="#666" text-anchor="end">2%</text>
<line x1="70" y1="100.0" x2="880" y2="100.0" stroke="#e5e5e5"/>
<text x="64" y="104.0" font-size="11" fill="#666" text-anchor="end">3%</text>
<line x1="70" y1="44.0" x2="880" y2="44.0" stroke="#e5e5e5"/>
<text x="64" y="48.0" font-size="11" fill="#666" text-anchor="end">4%</text>
<text x="70.0" y="342" font-size="11" fill="#666" text-anchor="start">07-16 16:02</text>
<text x="485.9" y="342" font-size="11" fill="#666" text-anchor="middle">07-17 14:55</text>
<text x="880.0" y="342" font-size="11" fill="#666" text-anchor="end">07-17 20:15</text>
<polyline points="70.0,64.7 91.9,64.7 113.8,64.7 135.7,64.7 157.6,64.7 179.5,64.7 223.2,64.7 245.1,64.7 267.0,64.7 354.6,64.7 376.5,64.7 398.4,64.7 420.3,64.7 442.2,64.7 464.1,64.7 485.9,64.7 507.8,64.7 529.7,64.7 551.6,64.7 573.5,64.7 595.4,64.7 617.3,64.7 639.2,64.7 661.1,64.7 683.0,64.7 704.9,64.7 770.5,64.7 792.4,64.7 814.3,64.7 836.2,64.7 858.1,64.7 880.0,64.7" fill="none" stroke="#d62728" stroke-width="2"/>
<circle cx="70.0" cy="64.7" r="3" fill="#d62728"/>
<circle cx="91.9" cy="64.7" r="3" fill="#d62728"/>
<circle cx="113.8" cy="64.7" r="3" fill="#d62728"/>
<circle cx="135.7" cy="64.7" r="3" fill="#d62728"/>
<circle cx="157.6" cy="64.7" r="3" fill="#d62728"/>
<circle cx="179.5" cy="64.7" r="3" fill="#d62728"/>
<circle cx="223.2" cy="64.7" r="3" fill="#d62728"/>
<circle cx="245.1" cy="64.7" r="3" fill="#d62728"/>
<circle cx="267.0" cy="64.7" r="3" fill="#d62728"/>
<circle cx="354.6" cy="64.7" r="3" fill="#d62728"/>
<circle cx="376.5" cy="64.7" r="3" fill="#d62728"/>
<circle cx="398.4" cy="64.7" r="3" fill="#d62728"/>
<circle cx="420.3" cy="64.7" r="3" fill="#d62728"/>
<circle cx="442.2" cy="64.7" r="3" fill="#d62728"/>
<circle cx="464.1" cy="64.7" r="3" fill="#d62728"/>
<circle cx="485.9" cy="64.7" r="3" fill="#d62728"/>
<circle cx="507.8" cy="64.7" r="3" fill="#d62728"/>
<circle cx="529.7" cy="64.7" r="3" fill="#d62728"/>
<circle cx="551.6" cy="64.7" r="3" fill="#d62728"/>
<circle cx="573.5" cy="64.7" r="3" fill="#d62728"/>
<circle cx="595.4" cy="64.7" r="3" fill="#d62728"/>
<circle cx="617.3" cy="64.7" r="3" fill="#d62728"/>
<circle cx="639.2" cy="64.7" r="3" fill="#d62728"/>
<circle cx="661.1" cy="64.7" r="3" fill="#d62728"/>
<circle cx="683.0" cy="64.7" r="3" fill="#d62728"/>
<circle cx="704.9" cy="64.7" r="3" fill="#d62728"/>
<circle cx="770.5" cy="64.7" r="3" fill="#d62728"/>
<circle cx="792.4" cy="64.7" r="3" fill="#d62728"/>
<circle cx="814.3" cy="64.7" r="3" fill="#d62728"/>
<circle cx="836.2" cy="64.7" r="3" fill="#d62728"/>
<circle cx="858.1" cy="64.7" r="3" fill="#d62728"/>
<circle cx="880.0" cy="64.7" r="3" fill="#d62728"/>
<rect x="70.0" y="358" width="10" height="10" fill="#d62728"/>
<text x="84.0" y="367" font-size="11" fill="#333">WER</text>
</svg>
