<svg xmlns="http://www.w3.org/2000/svg" width="900" height="380" viewBox="0 0 900 380" font-family="sans-serif">
<rect width="900" height="380" fill="white"/>
<text x="70" y="24" font-size="16" fill="#333">STT word error rate (%) — lower is better</text>
<line x1="70" y1="324.0" x2="880" y2="324.0" stroke="#e5e5e5"/>
<text x="64" y="328.0" font-size="11" fill="#666" text-anchor="end">0%</text>
<line x1="70" y1="268.0" x2="880" y2="268.0" stroke="#e5e5e5"/>
<text x="64" y="272.0" font-size="11" fill="#666" text-anchor="end">1%</text>
<line x1="70" y1="212.0" x2="880" y2="212.0" stroke="#e5e5e5"/>
<text x="64" y="216.0" font-size="11" fill="#666" text-anchor="end">2%</text>
<line x1="70" y1="156.0" x2="880" y2="156.0" stroke="#e5e5e5"/>
<text x="64" y="160.0" font-size="11" fill="#666" text-anchor="end">2%</text>
<line x1="70" y1="100.0" x2="880" y2="100.0" stroke="#e5e5e5"/>
<text x="64" y="104.0" font-size="11" fill="#666" text-anchor="end">3%</text>
<line x1="70" y1="44.0" x2="880" y2="44.0" stroke="#e5e5e5"/>
<text x="64" y="48.0" font-size="11" fill="#666" text-anchor="end">4%</text>
<text x="70.0" y="342" font-size="11" fill="#666" text-anchor="start">07-16 16:02</text>
<text x="475.0" y="342" font-size="11" fill="#666" text-anchor="middle">07-17 15:13</text>
<text x="880.0" y="342" font-size="11" fill="#666" text-anchor="end">07-17 20:37</text>
<polyline points="70.0,64.7 90.2,64.7 110.5,64.7 130.8,64.7 151.0,64.7 171.2,64.7 211.8,64.7 232.0,64.7 252.2,64.7 333.2,64.7 353.5,64.7 373.8,64.7 394.0,64.7 414.2,64.7 434.5,64.7 454.8,64.7 475.0,64.7 495.2,64.7 515.5,64.7 535.8,64.7 556.0,64.7 576.2,64.7 596.5,64.7 616.8,64.7 637.0,64.7 657.2,64.7 718.0,64.7 738.2,64.7 758.5,64.7 778.8,64.7 799.0,64.7 819.2,64.7 839.5,64.7 859.8,64.7 880.0,64.7" fill="none" stroke="#d62728" stroke-width="2"/>
<circle cx="70.0" cy="64.7" r="3" fill="#d62728"/>
<circle cx="90.2" cy="64.7" r="3" fill="#d62728"/>
<circle cx="110.5" cy="64.7" r="3" fill="#d62728"/>
<circle cx="130.8" cy="64.7" r="3" fill="#d62728"/>
<circle cx="151.0" cy="64.7" r="3" fill="#d62728"/>
<circle cx="171.2" cy="64.7" r="3" fill="#d62728"/>
<circle cx="211.8" cy="64.7" r="3" fill="#d62728"/>
<circle cx="232.0" cy="64.7" r="3" fill="#d62728"/>
<circle cx="252.2" cy="64.7" r="3" fill="#d62728"/>
<circle cx="333.2" cy="64.7" r="3" fill="#d62728"/>
<circle cx="353.5" cy="64.7" r="3" fill="#d62728"/>
<circle cx="373.8" cy="64.7" r="3" fill="#d62728"/>
<circle cx="394.0" cy="64.7" r="3" fill="#d62728"/>
<circle cx="414.2" cy="64.7" r="3" fill="#d62728"/>
<circle cx="434.5" cy="64.7" r="3" fill="#d62728"/>
<circle cx="454.8" cy="64.7" r="3" fill="#d62728"/>
<circle cx="475.0" cy="64.7" r="3" fill="#d62728"/>
<circle cx="495.2" cy="64.7" r="3" fill="#d62728"/>
<circle cx="515.5" cy="64.7" r="3" fill="#d62728"/>
<circle cx="535.8" cy="64.7" r="3" fill="#d62728"/>
<circle cx="556.0" cy="64.7" r="3" fill="#d62728"/>
<circle cx="576.2" cy="64.7" r="3" fill="#d62728"/>
<circle cx="596.5" cy="64.7" r="3" fill="#d62728"/>
<circle cx="616.8" cy="64.7" r="3" fill="#d62728"/>
<circle cx="637.0" cy="64.7" r="3" fill="#d62728"/>
<circle cx="657.2" cy="64.7" r="3" fill="#d62728"/>
<circle cx="718.0" cy="64.7" r="3" fill="#d62728"/>
<circle cx="738.2" cy="64.7" r="3" fill="#d62728"/>
<circle cx="758.5" cy="64.7" r="3" fill="#d62728"/>
<circle cx="778.8" cy="64.7" r="3" fill="#d62728"/>
<circle cx="799.0" cy="64.7" r="3" fill="#d62728"/>
<circle cx="819.2" cy="64.7" r="3" fill="#d62728"/>
<circle cx="839.5" cy="64.7" r="3" fill="#d62728"/>
<circle cx="859.8" cy="64.7" r="3" fill="#d62728"/>
<circle cx="880.0" cy="64.7" r="3" fill="#d62728"/>
<rect x="70.0" y="358" width="10" height="10" fill="#d62728"/>
<text x="84.0" y="367" font-size="11" fill="#333">WER</text>
</svg>
