<svg xmlns="http://www.w3.org/2000/svg" width="900" height="380" viewBox="0 0 900 380" font-family="sans-serif">
<rect width="900" height="380" fill="white"/>
<text x="70" y="24" font-size="16" fill="#333">STT word error rate (%) — lower is better</text>
<line x1="70" y1="324.0" x2="880" y2="324.0" stroke="#e5e5e5"/>
<text x="64" y="328.0" font-size="11" fill="#666" text-anchor="end">0%</text>
<line x1="70" y1="268.0" x2="880" y2="268.0" stroke="#e5e5e5"/>
<text x="64" y="272.0" font-size="11" fill="#666" text-anchor="end">1%</text>
<line x1="70" y1="212.0" x2="880" y2="212.0" stroke="#e5e5e5"/>
<text x="64" y="216.0" font-size="11" fill="#666" text-anchor="end">2%</text>
<line x1="70" y1="156.0" x2="880" y2="156.0" stroke="#e5e5e5"/>
<text x="64" y="160.0" font-size="11" fill="#666" text-anchor="end">2%</text>
<line x1="70" y1="100.0" x2="880" y2="100.0" stroke="#e5e5e5"/>
<text x="64" y="104.0" font-size="11" fill="#666" text-anchor="end">3%</text>
<line x1="70" y1="44.0" x2="880" y2="44.0" stroke="#e5e5e5"/>
<text x="64" y="48.0" font-size="11" fill="#666" text-anchor="end">4%</text>
<text x="70.0" y="342" font-size="11" fill="#666" text-anchor="start">07-16 16:02</text>
<text x="482.9" y="342" font-size="11" fill="#666" text-anchor="middle">07-17 18:46</text>
<text x="880.0" y="342" font-size="11" fill="#666" text-anchor="end">07-18 08:28</text>
<polyline points="70.0,64.7 85.9,64.7 101.8,64.7 117.6,64.7 133.5,64.7 149.4,64.7 181.2,64.7 197.1,64.7 212.9,64.7 276.5,64.7 292.4,64.7 308.2,64.7 324.1,64.7 340.0,64.7 355.9,64.7 371.8,64.7 387.6,64.7 403.5,64.7 419.4,64.7 435.3,64.7 451.2,64.7 467.1,64.7 482.9,64.7 498.8,64.7 514.7,64.7 530.6,64.7 578.2,64.7 594.1,64.7 610.0,64.7 625.9,64.7 641.8,64.7 657.6,64.7 673.5,64.7 689.4,64.7 705.3,64.7 721.2,64.7 737.1,64.7 752.9,64.7 768.8,64.7 784.7,64.7 800.6,64.7 816.5,64.7 832.4,64.7 848.2,64.7 864.1,64.7 880.0,64.7" fill="none" stroke="#d62728" stroke-width="2"/>
<circle cx="70.0" cy="64.7" r="3" fill="#d62728"/>
<circle cx="85.9" cy="64.7" r="3" fill="#d62728"/>
<circle cx="101.8" cy="64.7" r="3" fill="#d62728"/>
<circle cx="117.6" cy="64.7" r="3" fill="#d62728"/>
<circle cx="133.5" cy="64.7" r="3" fill="#d62728"/>
<circle cx="149.4" cy="64.7" r="3" fill="#d62728"/>
<circle cx="181.2" cy="64.7" r="3" fill="#d62728"/>
<circle cx="197.1" cy="64.7" r="3" fill="#d62728"/>
<circle cx="212.9" cy="64.7" r="3" fill="#d62728"/>
<circle cx="276.5" cy="64.7" r="3" fill="#d62728"/>
<circle cx="292.4" cy="64.7" r="3" fill="#d62728"/>
<circle cx="308.2" cy="64.7" r="3" fill="#d62728"/>
<circle cx="324.1" cy="64.7" r="3" fill="#d62728"/>
<circle cx="340.0" cy="64.7" r="3" fill="#d62728"/>
<circle cx="355.9" cy="64.7" r="3" fill="#d62728"/>
<circle cx="371.8" cy="64.7" r="3" fill="#d62728"/>
<circle cx="387.6" cy="64.7" r="3" fill="#d62728"/>
<circle cx="403.5" cy="64.7" r="3" fill="#d62728"/>
<circle cx="419.4" cy="64.7" r="3" fill="#d62728"/>
<circle cx="435.3" cy="64.7" r="3" fill="#d62728"/>
<circle cx="451.2" cy="64.7" r="3" fill="#d62728"/>
<circle cx="467.1" cy="64.7" r="3" fill="#d62728"/>
<circle cx="482.9" cy="64.7" r="3" fill="#d62728"/>
<circle cx="498.8" cy="64.7" r="3" fill="#d62728"/>
<circle cx="514.7" cy="64.7" r="3" fill="#d62728"/>
<circle cx="530.6" cy="64.7" r="3" fill="#d62728"/>
<circle cx="578.2" cy="64.7" r="3" fill="#d62728"/>
<circle cx="594.1" cy="64.7" r="3" fill="#d62728"/>
<circle cx="610.0" cy="64.7" r="3" fill="#d62728"/>
<circle cx="625.9" cy="64.7" r="3" fill="#d62728"/>
<circle cx="641.8" cy="64.7" r="3" fill="#d62728"/>
<circle cx="657.6" cy="64.7" r="3" fill="#d62728"/>
<circle cx="673.5" cy="64.7" r="3" fill="#d62728"/>
<circle cx="689.4" cy="64.7" r="3" fill="#d62728"/>
<circle cx="705.3" cy="64.7" r="3" fill="#d62728"/>
<circle cx="721.2" cy="64.7" r="3" fill="#d62728"/>
<circle cx="737.1" cy="64.7" r="3" fill="#d62728"/>
<circle cx="752.9" cy="64.7" r="3" fill="#d62728"/>
<circle cx="768.8" cy="64.7" r="3" fill="#d62728"/>
<circle cx="784.7" cy="64.7" r="3" fill="#d62728"/>
<circle cx="800.6" cy="64.7" r="3" fill="#d62728"/>
<circle cx="816.5" cy="64.7" r="3" fill="#d62728"/>
<circle cx="832.4" cy="64.7" r="3" fill="#d62728"/>
<circle cx="848.2" cy="64.7" r="3" fill="#d62728"/>
<circle cx="864.1" cy="64.7" r="3" fill="#d62728"/>
<circle cx="880.0" cy="64.7" r="3" fill="#d62728"/>
<rect x="70.0" y="358" width="10" height="10" fill="#d62728"/>
<text x="84.0" y="367" font-size="11" fill="#333">WER</text>
</svg>
