<svg xmlns="http://www.w3.org/2000/svg" width="900" height="380" viewBox="0 0 900 380" font-family="sans-serif">
<rect width="900" height="380" fill="white"/>
<text x="70" y="24" font-size="16" fill="#333">STT word error rate (%) — lower is better</text>
<line x1="70" y1="324.0" x2="880" y2="324.0" stroke="#e5e5e5"/>
<text x="64" y="328.0" font-size="11" fill="#666" text-anchor="end">0%</text>
<line x1="70" y1="268.0" x2="880" y2="268.0" stroke="#e5e5e5"/>
<text x="64" y="272.0" font-size="11" fill="#666" text-anchor="end">1%</text>
<line x1="70" y1="212.0" x2="880" y2="212.0" stroke="#e5e5e5"/>
<text x="64" y="216.0" font-size="11" fill="#666" text-anchor="end">2%</text>
<line x1="70" y1="156.0" x2="880" y2="156.0" stroke="#e5e5e5"/>
<text x="64" y="160.0" font-size="11" fill="#666" text-anchor="end">2%</text>
<line x1="70" y1="100.0" x2="880" y2="100.0" stroke="#e5e5e5"/>
<text x="64" y="104.0" font-size="11" fill="#666" text-anchor="end">3%</text>
<line x1="70" y1="44.0" x2="880" y2="44.0" stroke="#e5e5e5"/>
<text x="64" y="48.0" font-size="11" fill="#666" text-anchor="end">4%</text>
<text x="70.0" y="342" font-size="11" fill="#666" text-anchor="start">07-16 16:02</text>
<text x="475.0" y="342" font-size="11" fill="#666" text-anchor="middle">07-17 19:15</text>
<text x="880.0" y="342" font-size="11" fill="#666" text-anchor="end">07-18 18:08</text>
<polyline points="70.0,64.7 84.5,64.7 98.9,64.7 113.4,64.7 127.9,64.7 142.3,64.7 171.2,64.7 185.7,64.7 200.2,64.7 258.0,64.7 272.5,64.7 287.0,64.7 301.4,64.7 315.9,64.7 330.4,64.7 344.8,64.7 359.3,64.7 373.8,64.7 388.2,64.7 402.7,64.7 417.1,64.7 431.6,64.7 446.1,64.7 460.5,64.7 475.0,64.7 489.5,64.7 532.9,64.7 547.3,64.7 561.8,64.7 576.2,64.7 590.7,64.7 605.2,64.7 619.6,64.7 634.1,64.7 648.6,64.7 663.0,64.7 677.5,64.7 692.0,64.7 706.4,64.7 720.9,64.7 735.4,64.7 749.8,64.7 764.3,64.7 778.8,64.7 793.2,64.7 807.7,64.7 822.1,64.7 836.6,64.7 851.1,64.7 865.5,64.7 880.0,64.7" fill="none" stroke="#d62728" stroke-width="2"/>
<circle cx="70.0" cy="64.7" r="3" fill="#d62728"/>
<circle cx="84.5" cy="64.7" r="3" fill="#d62728"/>
<circle cx="98.9" cy="64.7" r="3" fill="#d62728"/>
<circle cx="113.4" cy="64.7" r="3" fill="#d62728"/>
<circle cx="127.9" cy="64.7" r="3" fill="#d62728"/>
<circle cx="142.3" cy="64.7" r="3" fill="#d62728"/>
<circle cx="171.2" cy="64.7" r="3" fill="#d62728"/>
<circle cx="185.7" cy="64.7" r="3" fill="#d62728"/>
<circle cx="200.2" cy="64.7" r="3" fill="#d62728"/>
<circle cx="258.0" cy="64.7" r="3" fill="#d62728"/>
<circle cx="272.5" cy="64.7" r="3" fill="#d62728"/>
<circle cx="287.0" cy="64.7" r="3" fill="#d62728"/>
<circle cx="301.4" cy="64.7" r="3" fill="#d62728"/>
<circle cx="315.9" cy="64.7" r="3" fill="#d62728"/>
<circle cx="330.4" cy="64.7" r="3" fill="#d62728"/>
<circle cx="344.8" cy="64.7" r="3" fill="#d62728"/>
<circle cx="359.3" cy="64.7" r="3" fill="#d62728"/>
<circle cx="373.8" cy="64.7" r="3" fill="#d62728"/>
<circle cx="388.2" cy="64.7" r="3" fill="#d62728"/>
<circle cx="402.7" cy="64.7" r="3" fill="#d62728"/>
<circle cx="417.1" cy="64.7" r="3" fill="#d62728"/>
<circle cx="431.6" cy="64.7" r="3" fill="#d62728"/>
<circle cx="446.1" cy="64.7" r="3" fill="#d62728"/>
<circle cx="460.5" cy="64.7" r="3" fill="#d62728"/>
<circle cx="475.0" cy="64.7" r="3" fill="#d62728"/>
<circle cx="489.5" cy="64.7" r="3" fill="#d62728"/>
<circle cx="532.9" cy="64.7" r="3" fill="#d62728"/>
<circle cx="547.3" cy="64.7" r="3" fill="#d62728"/>
<circle cx="561.8" cy="64.7" r="3" fill="#d62728"/>
<circle cx="576.2" cy="64.7" r="3" fill="#d62728"/>
<circle cx="590.7" cy="64.7" r="3" fill="#d62728"/>
<circle cx="605.2" cy="64.7" r="3" fill="#d62728"/>
<circle cx="619.6" cy="64.7" r="3" fill="#d62728"/>
<circle cx="634.1" cy="64.7" r="3" fill="#d62728"/>
<circle cx="648.6" cy="64.7" r="3" fill="#d62728"/>
<circle cx="663.0" cy="64.7" r="3" fill="#d62728"/>
<circle cx="677.5" cy="64.7" r="3" fill="#d62728"/>
<circle cx="692.0" cy="64.7" r="3" fill="#d62728"/>
<circle cx="706.4" cy="64.7" r="3" fill="#d62728"/>
<circle cx="720.9" cy="64.7" r="3" fill="#d62728"/>
<circle cx="735.4" cy="64.7" r="3" fill="#d62728"/>
<circle cx="749.8" cy="64.7" r="3" fill="#d62728"/>
<circle cx="764.3" cy="64.7" r="3" fill="#d62728"/>
<circle cx="778.8" cy="64.7" r="3" fill="#d62728"/>
<circle cx="793.2" cy="64.7" r="3" fill="#d62728"/>
<circle cx="807.7" cy="64.7" r="3" fill="#d62728"/>
<circle cx="822.1" cy="64.7" r="3" fill="#d62728"/>
<circle cx="836.6" cy="64.7" r="3" fill="#d62728"/>
<circle cx="851.1" cy="64.7" r="3" fill="#d62728"/>
<circle cx="865.5" cy="64.7" r="3" fill="#d62728"/>
<circle cx="880.0" cy="64.7" r="3" fill="#d62728"/>
<rect x="70.0" y="358" width="10" height="10" fill="#d62728"/>
<text x="84.0" y="367" font-size="11" fill="#333">WER</text>
</svg>
