<svg xmlns="http://www.w3.org/2000/svg" width="900" height="380" viewBox="0 0 900 380" font-family="sans-serif">
<rect width="900" height="380" fill="white"/>
<text x="70" y="24" font-size="16" fill="#333">STT word error rate (%) — lower is better</text>
<line x1="70" y1="324.0" x2="880" y2="324.0" stroke="#e5e5e5"/>
<text x="64" y="328.0" font-size="11" fill="#666" text-anchor="end">0%</text>
<line x1="70" y1="268.0" x2="880" y2="268.0" stroke="#e5e5e5"/>
<text x="64" y="272.0" font-size="11" fill="#666" text-anchor="end">1%</text>
<line x1="70" y1="212.0" x2="880" y2="212.0" stroke="#e5e5e5"/>
<text x="64" y="216.0" font-size="11" fill="#666" text-anchor="end">2%</text>
<line x1="70" y1="156.0" x2="880" y2="156.0" stroke="#e5e5e5"/>
<text x="64" y="160.0" font-size="11" fill="#666" text-anchor="end">2%</text>
<line x1="70" y1="100.0" x2="880" y2="100.0" stroke="#e5e5e5"/>
<text x="64" y="104.0" font-size="11" fill="#666" text-anchor="end">3%</text>
<line x1="70" y1="44.0" x2="880" y2="44.0" stroke="#e5e5e5"/>
<text x="64" y="48.0" font-size="11" fill="#666" text-anchor="end">4%</text>
<text x="70.0" y="342" font-size="11" fill="#666" text-anchor="start">07-16 16:02</text>
<text x="482.1" y="342" font-size="11" fill="#666" text-anchor="middle">07-17 19:27</text>
<text x="880.0" y="342" font-size="11" fill="#666" text-anchor="end">07-18 18:25</text>
<polyline points="70.0,64.7 84.2,64.7 98.4,64.7 112.6,64.7 126.8,64.7 141.1,64.7 169.5,64.7 183.7,64.7 197.9,64.7 254.7,64.7 268.9,64.7 283.2,64.7 297.4,64.7 311.6,64.7 325.8,64.7 340.0,64.7 354.2,64.7 368.4,64.7 382.6,64.7 396.8,64.7 411.1,64.7 425.3,64.7 439.5,64.7 453.7,64.7 467.9,64.7 482.1,64.7 524.7,64.7 538.9,64.7 553.2,64.7 567.4,64.7 581.6,64.7 595.8,64.7 610.0,64.7 624.2,64.7 638.4,64.7 652.6,64.7 666.8,64.7 681.1,64.7 695.3,64.7 709.5,64.7 723.7,64.7 737.9,64.7 752.1,64.7 766.3,64.7 780.5,64.7 794.7,64.7 808.9,64.7 823.2,64.7 837.4,64.7 851.6,64.7 865.8,64.7 880.0,64.7" fill="none" stroke="#d62728" stroke-width="2"/>
<circle cx="70.0" cy="64.7" r="3" fill="#d62728"/>
<circle cx="84.2" cy="64.7" r="3" fill="#d62728"/>
<circle cx="98.4" cy="64.7" r="3" fill="#d62728"/>
<circle cx="112.6" cy="64.7" r="3" fill="#d62728"/>
<circle cx="126.8" cy="64.7" r="3" fill="#d62728"/>
<circle cx="141.1" cy="64.7" r="3" fill="#d62728"/>
<circle cx="169.5" cy="64.7" r="3" fill="#d62728"/>
<circle cx="183.7" cy="64.7" r="3" fill="#d62728"/>
<circle cx="197.9" cy="64.7" r="3" fill="#d62728"/>
<circle cx="254.7" cy="64.7" r="3" fill="#d62728"/>
<circle cx="268.9" cy="64.7" r="3" fill="#d62728"/>
<circle cx="283.2" cy="64.7" r="3" fill="#d62728"/>
<circle cx="297.4" cy="64.7" r="3" fill="#d62728"/>
<circle cx="311.6" cy="64.7" r="3" fill="#d62728"/>
<circle cx="325.8" cy="64.7" r="3" fill="#d62728"/>
<circle cx="340.0" cy="64.7" r="3" fill="#d62728"/>
<circle cx="354.2" cy="64.7" r="3" fill="#d62728"/>
<circle cx="368.4" cy="64.7" r="3" fill="#d62728"/>
<circle cx="382.6" cy="64.7" r="3" fill="#d62728"/>
<circle cx="396.8" cy="64.7" r="3" fill="#d62728"/>
<circle cx="411.1" cy="64.7" r="3" fill="#d62728"/>
<circle cx="425.3" cy="64.7" r="3" fill="#d62728"/>
<circle cx="439.5" cy="64.7" r="3" fill="#d62728"/>
<circle cx="453.7" cy="64.7" r="3" fill="#d62728"/>
<circle cx="467.9" cy="64.7" r="3" fill="#d62728"/>
<circle cx="482.1" cy="64.7" r="3" fill="#d62728"/>
<circle cx="524.7" cy="64.7" r="3" fill="#d62728"/>
<circle cx="538.9" cy="64.7" r="3" fill="#d62728"/>
<circle cx="553.2" cy="64.7" r="3" fill="#d62728"/>
<circle cx="567.4" cy="64.7" r="3" fill="#d62728"/>
<circle cx="581.6" cy="64.7" r="3" fill="#d62728"/>
<circle cx="595.8" cy="64.7" r="3" fill="#d62728"/>
<circle cx="610.0" cy="64.7" r="3" fill="#d62728"/>
<circle cx="624.2" cy="64.7" r="3" fill="#d62728"/>
<circle cx="638.4" cy="64.7" r="3" fill="#d62728"/>
<circle cx="652.6" cy="64.7" r="3" fill="#d62728"/>
<circle cx="666.8" cy="64.7" r="3" fill="#d62728"/>
<circle cx="681.1" cy="64.7" r="3" fill="#d62728"/>
<circle cx="695.3" cy="64.7" r="3" fill="#d62728"/>
<circle cx="709.5" cy="64.7" r="3" fill="#d62728"/>
<circle cx="723.7" cy="64.7" r="3" fill="#d62728"/>
<circle cx="737.9" cy="64.7" r="3" fill="#d62728"/>
<circle cx="752.1" cy="64.7" r="3" fill="#d62728"/>
<circle cx="766.3" cy="64.7" r="3" fill="#d62728"/>
<circle cx="780.5" cy="64.7" r="3" fill="#d62728"/>
<circle cx="794.7" cy="64.7" r="3" fill="#d62728"/>
<circle cx="808.9" cy="64.7" r="3" fill="#d62728"/>
<circle cx="823.2" cy="64.7" r="3" fill="#d62728"/>
<circle cx="837.4" cy="64.7" r="3" fill="#d62728"/>
<circle cx="851.6" cy="64.7" r="3" fill="#d62728"/>
<circle cx="865.8" cy="64.7" r="3" fill="#d62728"/>
<circle cx="880.0" cy="64.7" r="3" fill="#d62728"/>
<rect x="70.0" y="358" width="10" height="10" fill="#d62728"/>
<text x="84.0" y="367" font-size="11" fill="#333">WER</text>
</svg>
