<svg xmlns="http://www.w3.org/2000/svg" width="900" height="380" viewBox="0 0 900 380" font-family="sans-serif">
<rect width="900" height="380" fill="white"/>
<text x="70" y="24" font-size="16" fill="#333">STT word error rate (%) — lower is better</text>
<line x1="70" y1="324.0" x2="880" y2="324.0" stroke="#e5e5e5"/>
<text x="64" y="328.0" font-size="11" fill="#666" text-anchor="end">0%</text>
<line x1="70" y1="268.0" x2="880" y2="268.0" stroke="#e5e5e5"/>
<text x="64" y="272.0" font-size="11" fill="#666" text-anchor="end">1%</text>
<line x1="70" y1="212.0" x2="880" y2="212.0" stroke="#e5e5e5"/>
<text x="64" y="216.0" font-size="11" fill="#666" text-anchor="end">2%</text>
<line x1="70" y1="156.0" x2="880" y2="156.0" stroke="#e5e5e5"/>
<text x="64" y="160.0" font-size="11" fill="#666" text-anchor="end">2%</text>
<line x1="70" y1="100.0" x2="880" y2="100.0" stroke="#e5e5e5"/>
<text x="64" y="104.0" font-size="11" fill="#666" text-anchor="end">3%</text>
<line x1="70" y1="44.0" x2="880" y2="44.0" stroke="#e5e5e5"/>
<text x="64" y="48.0" font-size="11" fill="#666" text-anchor="end">4%</text>
<text x="70.0" y="342" font-size="11" fill="#666" text-anchor="start">07-16 16:02</text>
<text x="475.0" y="342" font-size="11" fill="#666" text-anchor="middle">07-16 22:34</text>
<text x="880.0" y="342" font-size="11" fill="#666" text-anchor="end">07-17 15:23</text>
<polyline points="70.0,64.7 106.8,64.7 143.6,64.7 180.5,64.7 217.3,64.7 254.1,64.7 327.7,64.7 364.5,64.7 401.4,64.7 548.6,64.7 585.5,64.7 622.3,64.7 659.1,64.7 695.9,64.7 732.7,64.7 769.5,64.7 806.4,64.7 843.2,64.7 880.0,64.7" fill="none" stroke="#d62728" stroke-width="2"/>
<circle cx="70.0" cy="64.7" r="3" fill="#d62728"/>
<circle cx="106.8" cy="64.7" r="3" fill="#d62728"/>
<circle cx="143.6" cy="64.7" r="3" fill="#d62728"/>
<circle cx="180.5" cy="64.7" r="3" fill="#d62728"/>
<circle cx="217.3" cy="64.7" r="3" fill="#d62728"/>
<circle cx="254.1" cy="64.7" r="3" fill="#d62728"/>
<circle cx="327.7" cy="64.7" r="3" fill="#d62728"/>
<circle cx="364.5" cy="64.7" r="3" fill="#d62728"/>
<circle cx="401.4" cy="64.7" r="3" fill="#d62728"/>
<circle cx="548.6" cy="64.7" r="3" fill="#d62728"/>
<circle cx="585.5" cy="64.7" r="3" fill="#d62728"/>
<circle cx="622.3" cy="64.7" r="3" fill="#d62728"/>
<circle cx="659.1" cy="64.7" r="3" fill="#d62728"/>
<circle cx="695.9" cy="64.7" r="3" fill="#d62728"/>
<circle cx="732.7" cy="64.7" r="3" fill="#d62728"/>
<circle cx="769.5" cy="64.7" r="3" fill="#d62728"/>
<circle cx="806.4" cy="64.7" r="3" fill="#d62728"/>
<circle cx="843.2" cy="64.7" r="3" fill="#d62728"/>
<circle cx="880.0" cy="64.7" r="3" fill="#d62728"/>
<rect x="70.0" y="358" width="10" height="10" fill="#d62728"/>
<text x="84.0" y="367" font-size="11" fill="#333">WER</text>
</svg>
