<svg xmlns="http://www.w3.org/2000/svg" width="900" height="380" viewBox="0 0 900 380" font-family="sans-serif">
<rect width="900" height="380" fill="white"/>
<text x="70" y="24" font-size="16" fill="#333">STT word error rate (%) — lower is better</text>
<line x1="70" y1="324.0" x2="880" y2="324.0" stroke="#e5e5e5"/>
<text x="64" y="328.0" font-size="11" fill="#666" text-anchor="end">0%</text>
<line x1="70" y1="268.0" x2="880" y2="268.0" stroke="#e5e5e5"/>
<text x="64" y="272.0" font-size="11" fill="#666" text-anchor="end">1%</text>
<line x1="70" y1="212.0" x2="880" y2="212.0" stroke="#e5e5e5"/>
<text x="64" y="216.0" font-size="11" fill="#666" text-anchor="end">2%</text>
<line x1="70" y1="156.0" x2="880" y2="156.0" stroke="#e5e5e5"/>
<text x="64" y="160.0" font-size="11" fill="#666" text-anchor="end">2%</text>
<line x1="70" y1="100.0" x2="880" y2="100.0" stroke="#e5e5e5"/>
<text x="64" y="104.0" font-size="11" fill="#666" text-anchor="end">3%</text>
<line x1="70" y1="44.0" x2="880" y2="44.0" stroke="#e5e5e5"/>
<text x="64" y="48.0" font-size="11" fill="#666" text-anchor="end">4%</text>
<text x="70.0" y="342" font-size="11" fill="#666" text-anchor="start">07-16 16:02</text>
<text x="475.0" y="342" font-size="11" fill="#666" text-anchor="middle">07-17 13:17</text>
<text x="880.0" y="342" font-size="11" fill="#666" text-anchor="end">07-17 19:42</text>
<polyline points="70.0,64.7 97.0,64.7 124.0,64.7 151.0,64.7 178.0,64.7 205.0,64.7 259.0,64.7 286.0,64.7 313.0,64.7 421.0,64.7 448.0,64.7 475.0,64.7 502.0,64.7 529.0,64.7 556.0,64.7 583.0,64.7 610.0,64.7 637.0,64.7 664.0,64.7 691.0,64.7 718.0,64.7 745.0,64.7 772.0,64.7 799.0,64.7 826.0,64.7 853.0,64.7" fill="none" stroke="#d62728" stroke-width="2"/>
<circle cx="70.0" cy="64.7" r="3" fill="#d62728"/>
<circle cx="97.0" cy="64.7" r="3" fill="#d62728"/>
<circle cx="124.0" cy="64.7" r="3" fill="#d62728"/>
<circle cx="151.0" cy="64.7" r="3" fill="#d62728"/>
<circle cx="178.0" cy="64.7" r="3" fill="#d62728"/>
<circle cx="205.0" cy="64.7" r="3" fill="#d62728"/>
<circle cx="259.0" cy="64.7" r="3" fill="#d62728"/>
<circle cx="286.0" cy="64.7" r="3" fill="#d62728"/>
<circle cx="313.0" cy="64.7" r="3" fill="#d62728"/>
<circle cx="421.0" cy="64.7" r="3" fill="#d62728"/>
<circle cx="448.0" cy="64.7" r="3" fill="#d62728"/>
<circle cx="475.0" cy="64.7" r="3" fill="#d62728"/>
<circle cx="502.0" cy="64.7" r="3" fill="#d62728"/>
<circle cx="529.0" cy="64.7" r="3" fill="#d62728"/>
<circle cx="556.0" cy="64.7" r="3" fill="#d62728"/>
<circle cx="583.0" cy="64.7" r="3" fill="#d62728"/>
<circle cx="610.0" cy="64.7" r="3" fill="#d62728"/>
<circle cx="637.0" cy="64.7" r="3" fill="#d62728"/>
<circle cx="664.0" cy="64.7" r="3" fill="#d62728"/>
<circle cx="691.0" cy="64.7" r="3" fill="#d62728"/>
<circle cx="718.0" cy="64.7" r="3" fill="#d62728"/>
<circle cx="745.0" cy="64.7" r="3" fill="#d62728"/>
<circle cx="772.0" cy="64.7" r="3" fill="#d62728"/>
<circle cx="799.0" cy="64.7" r="3" fill="#d62728"/>
<circle cx="826.0" cy="64.7" r="3" fill="#d62728"/>
<circle cx="853.0" cy="64.7" r="3" fill="#d62728"/>
<rect x="70.0" y="358" width="10" height="10" fill="#d62728"/>
<text x="84.0" y="367" font-size="11" fill="#333">WER</text>
</svg>
